<svg width="1728" height="1117" viewBox="0 0 1728 1117" fill="none" xmlns="http://www.w3.org/2000/svg">
<path d="M589.36 1538.38C643.64 1472.8 728.23 1384.49 771.77 1223.76C796.45 1132.65 797.82 1025.32 797.68 961.88L806.67 -240.23" stroke="#FEFEFE" stroke-opacity="0.1" stroke-miterlimit="10"/>
<path d="M991.39 1542.26C966.43 1432.51 944.57 1305.51 932.77 1163.76C922.83 1044.28 922.12 934.86 925.77 836.76L923.5 -240.23" stroke="#FEFEFE" stroke-opacity="0.1" stroke-miterlimit="10"/>
<path d="M1274.22 1542.26C1219.94 1476.68 1140.32 1362.5 1096.78 1201.76C1072.1 1110.65 1065.64 953.2 1065.78 889.76L1065.89 -242.23" stroke="#FEFEFE" stroke-opacity="0.1" stroke-miterlimit="10"/>
<path d="M1560.82 1518.26C1502.27 1481.18 1415.67 1415.77 1342.89 1309.76C1302.68 1251.19 1278.2 1205.18 1261.42 1161.04C1241.26 1108.03 1224.45 1035.15 1219.78 976.76C1203.78 776.76 1199.6 -222.99 1201.78 -264.24" stroke="#FEFEFE" stroke-opacity="0.1" stroke-miterlimit="10"/>
<path d="M1825.1 1545.53C1760.15 1519.04 1680.52 1459.76 1589.65 1361.79C1437.53 1197.79 1369.56 1070.03 1361.64 939.58C1361.62 939.21 1361.56 938.84 1361.55 938.47C1358.03 781.33 1354.52 -79.81 1351 -236.96" stroke="#FEFEFE" stroke-opacity="0.06" stroke-miterlimit="10"/>
<path d="M312.32 1545.3C370.87 1508.22 457.47 1442.81 530.25 1336.8C570.46 1278.23 594.94 1232.22 611.72 1188.08C631.88 1135.07 648.69 1062.19 653.36 1003.8C669.36 803.8 673.54 -195.95 671.36 -237.2" stroke="#FEFEFE" stroke-opacity="0.1" stroke-miterlimit="10"/>
<path d="M57.8203 1548.3C122.77 1521.81 224.37 1472.77 315.24 1374.8C467.36 1210.8 513.36 1072.8 521.28 942.35C521.3 941.98 521.36 941.61 521.37 941.24C524.89 784.1 528.4 -77.0399 531.92 -234.19" stroke="#FEFEFE" stroke-opacity="0.1" stroke-miterlimit="10"/>
<path d="M-282 1419.53C-217.05 1393.04 -115.45 1344 -24.58 1246.03C127.54 1082.03 173.54 944.03 181.46 813.58C181.48 813.21 181.54 812.84 181.55 812.47C185.07 655.33 188.58 -205.81 192.1 -362.96" stroke="#FEFEFE" stroke-opacity="0.06" stroke-miterlimit="10"/>
<path d="M2008.27 1419.53C1943.32 1393.04 1841.72 1344 1750.85 1246.03C1598.73 1082.03 1552.73 944.03 1544.81 813.58C1544.79 813.21 1544.73 812.84 1544.72 812.47C1541.2 655.33 1537.69 -205.81 1534.17 -362.96" stroke="#FEFEFE" stroke-opacity="0.06" stroke-miterlimit="10"/>
<path d="M-98 1419.53C-33.05 1393.04 68.55 1344 159.42 1246.03C311.54 1082.03 357.54 944.03 365.46 813.58C365.48 813.21 365.54 812.84 365.55 812.47C369.07 655.33 372.58 -205.81 376.1 -362.96" stroke="#FEFEFE" stroke-opacity="0.06" stroke-miterlimit="10"/>
</svg>
