<svg viewBox="0 0 146 19" fill="white" xmlns="http://www.w3.org/2000/svg">
<path d="M26.8827 0.90625H9.2942C4.63443 0.90625 0.856934 4.62528 0.856934 9.21294C0.856934 13.8006 4.63443 17.5196 9.2942 17.5196H26.8827C31.5425 17.5196 35.32 13.8006 35.32 9.21294C35.32 4.62528 31.5425 0.90625 26.8827 0.90625Z" fill="#016DF9"/>
<path d="M11.2086 10.8123L8.41758 6.54448C8.35472 6.44871 8.21246 6.44871 8.14959 6.54448L5.35857 10.8123C5.29041 10.9166 5.36651 11.054 5.49289 11.054H11.0756C11.202 11.054 11.2781 10.9166 11.2099 10.8123H11.2086Z" fill="white"/>
<path d="M19.8721 6.33594H15.4579C15.3161 6.33594 15.2012 6.44911 15.2012 6.58871V10.9347C15.2012 11.0743 15.3161 11.1875 15.4579 11.1875H19.8721C20.0139 11.1875 20.1288 11.0743 20.1288 10.9347V6.58871C20.1288 6.44911 20.0139 6.33594 19.8721 6.33594Z" fill="white"/>
<path d="M27.5641 11.8408C29.038 11.8408 30.2327 10.6644 30.2327 9.21336C30.2327 7.76227 29.038 6.58594 27.5641 6.58594C26.0903 6.58594 24.8955 7.76227 24.8955 9.21336C24.8955 10.6644 26.0903 11.8408 27.5641 11.8408Z" fill="white"/>
<path d="M73.0259 11.1683C73.0259 14.1938 71.1386 15.9974 68.5274 15.9974C67.0833 15.9974 65.8257 15.4138 65.2513 14.4483V19.4592H63.2329V6.48651H65.0833L65.2495 7.90832C65.8238 6.94287 67.0445 6.30469 68.5255 6.30469C71.0426 6.30469 73.0241 8.0356 73.0241 11.1701L73.0259 11.1683ZM70.9336 11.1683C70.9336 9.2556 69.7868 8.07014 68.1193 8.07014C66.5274 8.05196 65.3067 9.25378 65.3067 11.1865C65.3067 13.1192 66.5293 14.2301 68.1193 14.2301C69.7093 14.2301 70.9336 13.0829 70.9336 11.1683Z" />
<path d="M83.7607 11.6979H76.5051C76.542 13.447 77.7073 14.3579 79.1883 14.3579C80.2982 14.3579 81.2252 13.847 81.613 12.827H83.6684C83.1679 14.7215 81.4653 15.9979 79.1514 15.9979C76.3186 15.9979 74.4497 14.067 74.4497 11.1324C74.4497 8.19788 76.3186 6.28516 79.1329 6.28516C81.9473 6.28516 83.7607 8.14334 83.7607 10.9506V11.6979V11.6979ZM76.5235 10.3124H81.7053C81.5945 8.69061 80.5032 7.87061 79.1329 7.87061C77.7627 7.87061 76.6713 8.69061 76.5235 10.3124Z" />
<path d="M87.3339 6.48828C86.3921 6.48828 85.6294 7.23919 85.6294 8.16646V15.8192H87.6663V10.8446V8.69374C87.6663 8.46283 87.8565 8.27374 88.0929 8.27374H91.2027V6.48828H87.3357H87.3339Z" />
<path d="M59.977 6.46875L57.3676 14.2142L54.5533 6.48693H52.3687L55.9771 15.6906C56.0879 15.9815 56.1433 16.2197 56.1433 16.456C56.1433 16.5851 56.1304 16.7033 56.1082 16.8124L56.1027 16.8324C56.0897 16.8906 56.075 16.9451 56.0565 16.9978L55.9198 17.4906C55.8866 17.6124 55.7739 17.696 55.6465 17.696H52.7749V19.4633H54.8672C56.2744 19.4633 57.4397 19.136 58.1063 17.3124L62.0859 6.48693L59.9752 6.46875H59.977Z" />
<path d="M42.7437 15.8165H44.7602V10.7874C44.7602 9.22016 45.63 8.12743 47.2403 8.12743C48.6475 8.10925 49.5173 8.92925 49.5173 10.7329V15.8165H51.5357V10.422C51.5357 7.23288 49.5561 6.28561 47.7593 6.28561C46.389 6.28561 45.3161 6.8147 44.7602 7.68925V2.66016H42.7437V15.8165V15.8165Z" />
<path d="M93.8673 12.992C93.8857 13.9574 94.7925 14.5229 96.0334 14.5229C97.2744 14.5229 98.0131 14.0665 98.0131 13.2465C98.0131 12.5356 97.6438 12.1538 96.569 11.9883L94.6632 11.6611C92.8128 11.352 92.0908 10.4029 92.0908 9.07378C92.0908 7.39741 93.7749 6.30469 95.9226 6.30469C98.2365 6.30469 99.9207 7.39741 99.9392 9.25741H97.9411C97.9226 8.31014 97.0897 7.78105 95.9245 7.78105C94.7592 7.78105 94.111 8.23741 94.111 9.00287C94.111 9.67741 94.593 9.98651 95.6475 10.1683L97.5163 10.4956C99.2744 10.8047 100.089 11.6611 100.089 13.0647C100.089 14.9956 98.2753 15.9992 96.0722 15.9992C93.5737 15.9992 91.8895 14.8156 91.8525 12.992H93.871H93.8673Z" />
<path d="M104.676 13.6319L106.824 6.48828H108.934L111.045 13.6319L112.84 6.48828H114.969L112.286 15.8192H110.009L107.862 8.71192L105.695 15.8192H103.4L100.698 6.48828H102.827L104.678 13.6319H104.676Z" />
<path d="M116.153 2.66016H118.393V4.73834H116.153V2.66016ZM116.264 6.48743H118.281V15.8183H116.264V6.48743Z" />
<path d="M131.108 8.01815C129.534 8.01815 128.462 9.14724 128.462 11.1345C128.462 13.2309 129.571 14.2509 131.052 14.2509C132.236 14.2509 133.108 13.5945 133.496 12.3563H135.643C135.161 14.6163 133.422 16.0018 131.089 16.0018C128.277 16.0018 126.388 14.0709 126.388 11.1363C126.388 8.20179 128.275 6.28906 131.108 6.28906C133.422 6.28906 135.143 7.58361 135.643 9.84179H133.459C133.126 8.67634 132.218 8.01997 131.108 8.01997V8.01815Z" />
<path d="M123.269 14.0483C123.15 14.0483 123.056 13.9537 123.056 13.8392V8.25374H125.259V6.48646H123.056V3.98828H121.04V5.6101C121.04 6.19374 120.855 6.48465 120.262 6.48465H119.448V8.25192H121.04V13.281C121.04 14.9028 121.946 15.8137 123.594 15.8137H125.241V14.0465H123.27L123.269 14.0483Z" />
<path d="M142.169 6.28561C140.799 6.28561 139.726 6.8147 139.17 7.68925V2.66016H137.154V15.8165H139.17V10.7874C139.17 9.22016 140.04 8.12743 141.65 8.12743C143.058 8.10925 143.927 8.92925 143.927 10.7329V15.8165H145.946V10.422C145.946 7.23288 143.966 6.28561 142.169 6.28561V6.28561Z" />
</svg>
