 <svg
            width="30"
            height="30"
            viewBox="0 0 235 113"
            fill="none"
            xmlns="http://www.w3.org/2000/svg">
            <g>
              <path
                d="M178.607 0H56.3933C25.2481 0 0 25.2959 0 56.5C0 87.7041 25.2481 113 56.3933 113H178.607C209.752 113 235 87.7041 235 56.5C235 25.2959 209.752 0 178.607 0Z"
                fill="#006DF9"
              />
              <path
                d="M184.484 74.3713C194.335 74.3713 202.321 66.37 202.321 56.5C202.321 46.63 194.335 38.6287 184.484 38.6287C174.632 38.6287 166.646 46.63 166.646 56.5C166.646 66.37 174.632 74.3713 184.484 74.3713Z"
                fill="white"
              />
              <path
                d="M70.0683 70.4371L51.412 41.4119C50.9919 40.759 50.0402 40.759 49.6201 41.4119L30.9638 70.4371C30.5051 71.1458 31.0152 72.0821 31.8597 72.0821H69.1723C70.0168 72.0821 70.527 71.1458 70.0683 70.4371Z"
                fill="white"
              />
              <path
                d="M132.253 39.9988H102.747C101.8 39.9988 101.032 40.768 101.032 41.7168V71.2789C101.032 72.2277 101.8 72.9969 102.747 72.9969H132.253C133.2 72.9969 133.968 72.2277 133.968 71.2789V41.7168C133.968 40.768 133.2 39.9988 132.253 39.9988Z"
                fill="white"
              />
            </g>
            <defs>
              <clipPath id="clip0_2563_24661">
                <rect width="40" height="40" fill="white" />
              </clipPath>
            </defs>
          </svg>