<svg width="30" height="30" viewBox="0 0 30 30" fill="none" xmlns="http://www.w3.org/2000/svg">
<rect width="30" height="30" fill="white"/>
<path fill-rule="evenodd" clip-rule="evenodd" d="M14.9889 25.9972C14.4607 26.0119 13.9472 25.9679 13.4191 25.8946C11.996 25.6892 10.6609 25.2346 9.4285 24.4867C6.69967 22.8442 4.9538 20.4538 4.23491 17.3155C4.07353 16.6115 4.00017 15.893 4.00017 15.1744C3.9855 12.3 4.92445 9.77761 6.83171 7.63651C8.48955 5.78871 10.5435 4.6595 12.9643 4.19021C13.6391 4.05823 14.314 3.9849 14.9889 4.01423C14.9889 5.11411 14.9889 6.19933 14.9889 7.29921C14.9595 7.31388 14.9302 7.32854 14.9009 7.35787C14.5047 7.63651 14.1086 7.92981 13.7272 8.23778C12.8616 8.9417 12.04 9.68962 11.3504 10.5842C10.4261 11.7721 9.80995 13.0773 9.72193 14.6171C9.67791 15.3504 9.76594 16.0689 10.0007 16.7582C10.5729 18.474 12.3481 20.2485 14.8422 20.2925C14.9889 20.2925 15.0182 20.3218 15.0182 20.4831C15.0036 21.2311 15.0036 22.7269 15.0036 22.7269C15.0036 22.7269 15.0036 22.8149 15.0036 22.8589C14.9889 23.9001 14.9889 24.9413 14.9889 25.9972Z" fill="#2B8EFF"/>
<path fill-rule="evenodd" clip-rule="evenodd" d="M14.9886 7.28723C14.9886 7.28723 14.9886 5.10213 14.9886 4.00225C15.5901 3.98758 16.177 4.04624 16.7638 4.13423C17.8642 4.31021 18.9205 4.63284 19.9181 5.14612C21.9868 6.21667 23.6153 7.74184 24.7156 9.82429C25.3465 11.0268 25.7573 12.3027 25.9187 13.6372C26.1094 15.2064 25.9627 16.7609 25.4932 18.2714C24.9504 19.9872 24.0407 21.4977 22.7644 22.7736C21.2092 24.3134 19.3606 25.3106 17.2186 25.7652C16.4851 25.9119 15.7369 25.9999 14.9886 25.9852C14.9886 24.9293 14.9886 23.8881 14.9886 22.8322C14.9886 22.7882 14.9886 22.7149 14.9886 22.7149C14.9886 22.7149 15.0326 22.6856 15.0473 22.6709C16.1917 21.8643 17.2773 20.9844 18.2163 19.9285C18.8325 19.2393 19.3606 18.506 19.7274 17.6554C20.2409 16.4529 20.4463 15.221 20.1822 13.9158C19.7127 11.5401 17.5854 9.76563 15.1353 9.70697C14.974 9.70697 14.9886 9.57498 14.9886 9.57498V7.28723Z" fill="#0561E2"/>
</svg>
