<svg width="17" height="17" viewBox="0 0 17 17" fill="none" xmlns="http://www.w3.org/2000/svg">
<path d="M9.04365 4.12927C9.12296 3.93502 9.16667 3.72245 9.16667 3.49967C9.16667 2.5792 8.42047 1.83301 7.5 1.83301C6.57953 1.83301 5.83333 2.5792 5.83333 3.49967C5.83333 3.72245 5.87704 3.93502 5.95635 4.12927C6.01732 4.27861 6.04781 4.35329 6.0398 4.39282C6.03185 4.43206 6.01635 4.45512 5.98303 4.47732C5.94946 4.49967 5.87947 4.49967 5.73949 4.49967H5.7C4.5799 4.49967 4.01984 4.49967 3.59202 4.71766C3.2157 4.90941 2.90973 5.21537 2.71799 5.59169C2.5 6.01952 2.5 6.57957 2.5 7.69967V8.16622C2.77855 7.95699 3.1248 7.83301 3.5 7.83301C4.42047 7.83301 5.16667 8.5792 5.16667 9.49967C5.16667 10.4201 4.42047 11.1663 3.5 11.1663C3.1248 11.1663 2.77855 11.0424 2.5 10.8331V11.2997C2.5 12.4198 2.5 12.9798 2.71799 13.4077C2.90973 13.784 3.2157 14.0899 3.59202 14.2817C4.01984 14.4997 4.5799 14.4997 5.7 14.4997H9.3C10.4201 14.4997 10.9802 14.4997 11.408 14.2817C11.7843 14.0899 12.0903 13.784 12.282 13.4077C12.5 12.9798 12.5 12.4198 12.5 11.2997V10.9268C12.5 10.7869 12.5 10.7169 12.5224 10.6833C12.5446 10.65 12.5676 10.6345 12.6069 10.6265C12.6464 10.6185 12.7211 10.649 12.8704 10.71C13.0647 10.7893 13.2772 10.833 13.5 10.833C14.4205 10.833 15.1667 10.0868 15.1667 9.16634C15.1667 8.24587 14.4205 7.49967 13.5 7.49967C13.1726 7.49967 12.8672 7.5941 12.6096 7.75721C12.5632 7.78656 12.5 7.75453 12.5 7.69967C12.5 6.57957 12.5 6.01952 12.282 5.59169C12.0903 5.21537 11.7843 4.90941 11.408 4.71766C10.9802 4.49967 10.4201 4.49967 9.3 4.49967H9.26051C9.12053 4.49967 9.05054 4.49967 9.01697 4.47732C8.98365 4.45512 8.96815 4.43206 8.9602 4.39282C8.95219 4.35329 8.98268 4.27861 9.04365 4.12927Z" stroke="#862FE9" stroke-width="1.2" stroke-linecap="round" stroke-linejoin="round"/>
</svg>
