<svg
  width="99"
  height="19"
  viewBox="0 0 99 19"
  fill="none"
  xmlns="http://www.w3.org/2000/svg"
>
  <path
    d="M9.86944 18.5771C9.41757 18.5894 8.97826 18.5523 8.52639 18.4904C7.30886 18.317 6.16664 17.9331 5.11229 17.3016C2.77764 15.9147 1.28397 13.8963 0.668931 11.2463C0.530861 10.6519 0.468101 10.0452 0.468101 9.4384C0.45555 7.01133 1.25887 4.88146 2.89061 3.07354C4.30897 1.51328 6.06623 0.559794 8.13728 0.163538C8.71467 0.0520911 9.29205 -0.0098239 9.86944 0.0149421C9.86944 0.943667 9.86944 1.86001 9.86944 2.78873C9.84433 2.80112 9.81923 2.8135 9.79413 2.83826C9.45523 3.07354 9.11633 3.3212 8.78998 3.58124C8.04942 4.17563 7.34652 4.80716 6.75658 5.56252C5.96581 6.56555 5.43863 7.66763 5.36332 8.96785C5.32567 9.587 5.40098 10.1938 5.60181 10.7758C6.09133 12.2246 7.61011 13.7229 9.74392 13.7601C9.86944 13.7601 9.89454 13.7848 9.89454 13.921C9.88199 14.5526 9.88199 15.8156 9.88199 15.8156C9.88199 15.8156 9.88199 15.8899 9.88199 15.9271C9.86944 16.8063 9.86944 17.6855 9.86944 18.5771Z"
    fill="#0099FF"
  />
  <path
    d="M9.86932 2.77569C9.86932 2.77569 9.86932 0.930621 9.86932 0.00189638C10.3839 -0.0104866 10.886 0.0390454 11.3881 0.113343C12.3295 0.261939 13.2332 0.534365 14.0867 0.96777C15.8565 1.87173 17.2498 3.15956 18.1912 4.91794C18.7309 5.93335 19.0824 7.01067 19.2204 8.13752C19.3836 9.4625 19.2581 10.7751 18.8564 12.0505C18.392 13.4994 17.6138 14.7748 16.5218 15.8521C15.1913 17.1523 13.6098 17.9944 11.7772 18.3783C11.1496 18.5021 10.5095 18.5764 9.86932 18.564C9.86932 17.6724 9.86932 16.7932 9.86932 15.9017C9.86932 15.8645 9.86932 15.8026 9.86932 15.8026C9.86932 15.8026 9.90697 15.7778 9.91952 15.7654C10.8986 15.0844 11.8274 14.3414 12.6307 13.4498C13.1579 12.8678 13.6098 12.2487 13.9236 11.5305C14.3629 10.5151 14.5386 9.47489 14.3127 8.3728C13.911 6.36676 12.091 4.86841 9.99483 4.81888C9.85676 4.81888 9.86932 4.70743 9.86932 4.70743V2.77569Z"
    fill="#1585D8"
  />
  <g clip-path="url(#clip0_232_1100)">
    <path
      d="M40.3882 12.1117C40.3882 12.6318 40.3004 13.1271 40.1372 13.61C39.974 14.093 39.7104 14.514 39.3841 14.8855C39.0452 15.257 38.631 15.5418 38.1289 15.7647C37.6268 15.9752 37.0369 16.0866 36.3842 16.0866C35.3298 16.0866 34.4638 15.839 33.7985 15.356C33.1207 14.8731 32.6814 14.1054 32.468 13.0528L34.6897 12.5327C34.765 12.9661 34.9407 13.3129 35.2294 13.5729C35.5056 13.8329 35.857 13.9568 36.2712 13.9568C36.949 13.9568 37.4134 13.7339 37.6519 13.2757C37.8904 12.8299 38.0159 12.1984 38.0159 11.4059V2.60156H40.3882V12.1117Z"
      fill="#F6F8F9"
    />
    <path
      d="M53.4673 10.9227C53.4673 11.7152 53.3292 12.4334 53.0531 13.0649C52.777 13.7089 52.4004 14.2413 51.9234 14.6871C51.4465 15.1329 50.8816 15.4796 50.2289 15.7149C49.5762 15.9626 48.8608 16.074 48.0951 16.074C47.3295 16.074 46.614 15.9502 45.9739 15.7149C45.3212 15.4796 44.7563 15.1329 44.2668 14.6871C43.7773 14.2413 43.4007 13.6965 43.1371 13.0649C42.861 12.4334 42.7355 11.7152 42.7355 10.9227V2.60132H45.1078V10.8484C45.1078 11.1704 45.158 11.5047 45.2584 11.8638C45.3588 12.2105 45.522 12.5449 45.7605 12.8421C45.9864 13.1392 46.3002 13.3869 46.6893 13.5727C47.0659 13.7708 47.5428 13.8575 48.1077 13.8575C48.6725 13.8575 49.1495 13.7584 49.526 13.5727C49.9026 13.3869 50.2164 13.1392 50.4549 12.8421C50.6808 12.5449 50.8565 12.2229 50.9569 11.8638C51.0574 11.5047 51.1076 11.1704 51.1076 10.8484V2.60132H53.4799L53.4673 10.9227Z"
      fill="#F6F8F9"
    />
    <path
      d="M62.4544 5.42524C62.2034 5.06613 61.8645 4.80609 61.4503 4.63273C61.0235 4.45937 60.5842 4.38507 60.1198 4.38507C59.8436 4.38507 59.58 4.42222 59.3164 4.48413C59.0528 4.54605 58.8269 4.64511 58.6261 4.78133C58.4127 4.91754 58.2495 5.0909 58.124 5.31379C57.9985 5.53669 57.9357 5.78435 57.9357 6.08154C57.9357 6.52733 58.0864 6.87405 58.4127 7.09695C58.7265 7.33222 59.1156 7.54273 59.58 7.70371C60.0444 7.87707 60.5465 8.05044 61.0988 8.21141C61.6511 8.37239 62.1532 8.59529 62.6301 8.8801C63.0945 9.16491 63.4837 9.54878 63.7974 10.0069C64.1112 10.4775 64.2744 11.109 64.2744 11.8768C64.2744 12.5826 64.1489 13.2018 63.8853 13.7218C63.6217 14.2543 63.2703 14.6877 62.8184 15.0344C62.3665 15.3812 61.8519 15.6412 61.262 15.8146C60.672 15.9879 60.0444 16.0746 59.4043 16.0746C58.5759 16.0746 57.7726 15.9384 57.0194 15.666C56.2538 15.3936 55.5885 14.9354 55.0363 14.2915L56.8312 12.5826C57.1199 13.016 57.4964 13.3504 57.9734 13.598C58.4504 13.8457 58.9399 13.9571 59.4671 13.9571C59.7432 13.9571 60.0193 13.92 60.2955 13.8457C60.5716 13.7714 60.8227 13.6599 61.0486 13.5113C61.2745 13.3627 61.4503 13.177 61.5883 12.9417C61.7264 12.7188 61.8017 12.4464 61.8017 12.1492C61.8017 11.6663 61.6385 11.2948 61.3247 11.0347C61.0109 10.7747 60.6218 10.5518 60.1574 10.3784C59.693 10.2051 59.1784 10.0317 58.6261 9.87074C58.0738 9.70976 57.5592 9.48686 57.1073 9.21444C56.6429 8.94201 56.2538 8.57052 55.94 8.09997C55.6262 7.62941 55.463 7.01026 55.463 6.23014C55.463 5.54907 55.6011 4.96707 55.8898 4.47175C56.1659 3.97643 56.5425 3.56779 57.0069 3.23345C57.4588 2.91149 57.9859 2.66383 58.5759 2.50285C59.1658 2.34188 59.7683 2.26758 60.3833 2.26758C61.0862 2.26758 61.764 2.37903 62.4293 2.57715C63.082 2.78766 63.6845 3.13439 64.2117 3.61732L62.4544 5.42524Z"
      fill="#F6F8F9"
    />
    <path
      fill-rule="evenodd"
      clip-rule="evenodd"
      d="M70.7386 2.60132H66.2575L66.245 15.7521H68.6173V10.3035H70.3118C71.0147 10.3035 71.6799 10.254 72.3326 10.1549C72.9853 10.0559 73.5502 9.85775 74.0397 9.58533C74.5292 9.3129 74.9183 8.91665 75.207 8.40894C75.4957 7.90124 75.6463 7.23256 75.6463 6.4029C75.6463 5.6723 75.5083 5.06553 75.2447 4.57021C74.9811 4.08728 74.6171 3.7034 74.1652 3.40621C73.7133 3.1214 73.1862 2.91089 72.5962 2.78706C71.9937 2.66323 71.3787 2.60132 70.7386 2.60132ZM71.1154 8.27272C70.7514 8.29748 70.4 8.30986 70.0611 8.30986H68.6176V4.60735H70.3121C70.6259 4.60735 70.9523 4.63212 71.2912 4.66926C71.6301 4.70641 71.9439 4.78071 72.22 4.91692C72.4961 5.04075 72.7221 5.2265 72.8978 5.47416C73.0735 5.72182 73.1614 6.04378 73.1614 6.45242C73.1614 6.8982 73.061 7.24493 72.8727 7.49259C72.6719 7.74025 72.4208 7.92599 72.1196 8.04982C71.8183 8.17365 71.4794 8.24795 71.1154 8.27272Z"
      fill="#F6F8F9"
    />
    <path
      fill-rule="evenodd"
      clip-rule="evenodd"
      d="M82.2488 2.60132H80.2029L74.4039 15.7521H77.0649L78.2699 12.743H84.0438L85.2864 15.7521H87.9976L82.2488 2.60132ZM81.1568 5.38775L83.2153 10.7372H79.0732L81.1568 5.38775Z"
      fill="#F6F8F9"
    />
    <path
      d="M90.8843 10.1302L85.8761 2.60132H88.8509L92.1269 7.83932L95.4406 2.60132H98.2648L93.2566 10.1302V15.7644H90.8843V10.1302Z"
      fill="#F6F8F9"
    />
  </g>
  <defs>
    <clipPath id="clip0_232_1100">
      <rect
        width="66"
        height="15"
        fill="white"
        transform="translate(32.468 2)"
      />
    </clipPath>
  </defs>
</svg>
