<svg width="16" height="17" viewBox="0 0 16 17" fill="none" xmlns="http://www.w3.org/2000/svg">
<path d="M3.33333 12.2667L3.33333 13.1667M3.33333 13.1667V14.0667M3.33333 13.1667H4.23333M3.33333 13.1667H2.43333M8.6 2.5C9.02675 5.85769 10.3537 7.92786 14 8.5C10.5401 9.04289 9.04673 10.9851 8.6 14.5C8.15327 10.9851 6.65989 9.04289 3.2 8.5C6.65989 7.95711 8.15327 6.01487 8.6 2.5ZM3.8 2.5C3.96539 3.50408 4.56767 4.12996 5.6 4.3C4.56767 4.47004 3.96539 5.09592 3.8 6.1C3.63461 5.09592 3.03233 4.47004 2 4.3C3.00408 4.13461 3.62996 3.53233 3.8 2.5Z" stroke="#9E5400" stroke-width="1.2" stroke-linecap="round" stroke-linejoin="round"/>
</svg>
