<svg width="18" height="14" viewBox="0 0 18 14" fill="none" xmlns="http://www.w3.org/2000/svg">
<path d="M2.64713 0.160037C2.74903 0.0553728 2.88604 -0.00217022 3.02802 6.26371e-05C3.17 0.00229549 3.30534 0.0641211 3.40425 0.171944C3.51241 0.291322 3.57176 0.451001 3.56944 0.616374C3.56713 0.781747 3.50333 0.939492 3.39188 1.05543C1.9371 2.61326 1.1224 4.71608 1.12501 6.90641C1.12501 9.27585 2.05875 11.4143 3.5595 12.9312C3.61745 12.9879 3.66415 13.0562 3.69688 13.1322C3.7296 13.2082 3.7477 13.2903 3.75011 13.3738C3.75252 13.4572 3.73919 13.5404 3.71091 13.6183C3.68262 13.6963 3.63995 13.7675 3.58538 13.8278C3.4886 13.9336 3.35665 13.9953 3.21757 13.9997C3.0785 14.0042 2.94326 13.951 2.84063 13.8516C1.94274 12.9618 1.22726 11.8861 0.738602 10.6913C0.249945 9.49659 -0.00145596 8.20829 6.34271e-06 6.90641C6.34271e-06 4.27025 1.01251 1.88414 2.64713 0.160037ZM14.6081 1.05543C14.4968 0.939334 14.4332 0.781501 14.4311 0.616129C14.429 0.450757 14.4886 0.291167 14.5969 0.171944C14.6957 0.064483 14.8308 0.00288836 14.9725 0.000656512C15.1143 -0.00157533 15.251 0.055738 15.3529 0.160037C16.1931 1.0439 16.8596 2.09512 17.3139 3.25303C17.7683 4.41094 18.0014 5.65262 18 6.90641C18 9.64496 16.9087 12.1144 15.1594 13.8516C15.0567 13.951 14.9215 14.0042 14.7824 13.9997C14.6434 13.9953 14.5114 13.9336 14.4146 13.8278C14.3602 13.7675 14.3177 13.6964 14.2895 13.6185C14.2613 13.5407 14.2481 13.4577 14.2505 13.3744C14.2529 13.2911 14.2709 13.2091 14.3035 13.1332C14.3362 13.0573 14.3827 12.9891 14.4405 12.9324C15.211 12.1551 15.8242 11.22 16.2427 10.1841C16.6612 9.1482 16.8763 8.03304 16.875 6.90641C16.8777 4.71572 16.063 2.6137 14.6081 1.05543ZM4.6485 2.25086C4.74875 2.14981 4.88283 2.09505 5.02123 2.09862C5.15963 2.10219 5.29102 2.16381 5.3865 2.26991C5.6205 2.51757 5.59688 2.92479 5.36625 3.17483C4.44822 4.17375 3.93549 5.51289 3.9375 6.90641C3.9375 8.44238 4.54838 9.82832 5.52825 10.8059C5.77575 11.0523 5.8095 11.4738 5.56763 11.7298C5.47491 11.8319 5.34867 11.8922 5.21505 11.8984C5.08144 11.9046 4.95068 11.8562 4.84988 11.7632C4.20768 11.1499 3.69445 10.4007 3.34347 9.56397C2.99248 8.72728 2.81158 7.82185 2.8125 6.90641C2.81127 6.04027 2.97297 5.18254 3.28819 4.38324C3.60341 3.58394 4.06584 2.85905 4.6485 2.25086ZM12.6337 3.17483C12.4031 2.92479 12.3795 2.51757 12.6135 2.26991C12.709 2.16381 12.8404 2.10219 12.9788 2.09862C13.1172 2.09505 13.2512 2.14981 13.3515 2.25086C13.934 2.85917 14.3963 3.58408 14.7115 4.38336C15.0268 5.18263 15.1885 6.0403 15.1875 6.90641C15.1887 7.82196 15.0081 8.72757 14.6573 9.56447C14.3065 10.4014 13.7934 11.1509 13.1512 11.7644C13.05 11.8578 12.9186 11.9063 12.7845 11.8996C12.6503 11.8929 12.5238 11.8317 12.4312 11.7286C12.1905 11.4738 12.2242 11.0523 12.4717 10.8059C12.9747 10.3055 13.3754 9.70135 13.649 9.03064C13.9226 8.35993 14.0633 7.63696 14.0625 6.90641C14.0645 5.51289 13.5518 4.17375 12.6337 3.17483ZM9 5.41806C8.62704 5.41806 8.26935 5.57487 8.00563 5.85399C7.74191 6.13311 7.59375 6.51167 7.59375 6.90641C7.59375 7.30114 7.74191 7.67971 8.00563 7.95882C8.26935 8.23794 8.62704 8.39475 9 8.39475C9.37296 8.39475 9.73065 8.23794 9.99437 7.95882C10.2581 7.67971 10.4062 7.30114 10.4062 6.90641C10.4062 6.51167 10.2581 6.13311 9.99437 5.85399C9.73065 5.57487 9.37296 5.41806 9 5.41806Z" fill="#6CB851"/>
</svg>
