<svg width="16" height="17" viewBox="0 0 16 17" fill="none" xmlns="http://www.w3.org/2000/svg">
<path d="M1.33301 5.26562L1.81912 5.89063C3.0188 7.43307 4.51767 8.71729 6.22582 9.66626C6.43702 9.7836 6.70291 9.71913 6.83693 9.51811L8.97804 6.30644C9.11575 6.09987 9.39991 6.05376 9.59588 6.20618C11.3035 7.53429 12.6632 9.25698 13.5584 11.2263L13.7726 11.6976M14.6663 8.61641C14.5456 9.61852 14.2937 10.6001 13.9175 11.5359C13.8888 11.6072 13.8366 11.6633 13.7726 11.6976M10.6754 10.9206C11.6036 11.3171 12.5796 11.5897 13.5782 11.7318C13.647 11.7416 13.7146 11.7285 13.7726 11.6976" stroke="#AE0DCE" stroke-width="1.2" stroke-linecap="round" stroke-linejoin="round"/>
</svg>
