<svg width="17" height="17" viewBox="0 0 17 17" fill="none" xmlns="http://www.w3.org/2000/svg">
<path d="M11.8337 2.5V7.16667M11.8337 7.16667C10.7291 7.16667 9.83366 8.0621 9.83366 9.16667V9.83333C9.83366 10.9379 10.7291 11.8333 11.8337 11.8333C12.9382 11.8333 13.8337 10.9379 13.8337 9.83333V9.16667C13.8337 8.0621 12.9382 7.16667 11.8337 7.16667ZM5.16699 11.1667L5.16699 14.5M11.8337 13.8333V14.5M5.16699 2.5L5.16699 4.5M5.16699 4.5C4.06242 4.5 3.16699 5.39543 3.16699 6.5L3.16699 7.16667C3.16699 8.27124 4.06242 9.16667 5.16699 9.16667C6.27156 9.16667 7.16699 8.27124 7.16699 7.16667V6.5C7.16699 5.39543 6.27156 4.5 5.16699 4.5Z" stroke="#0E7B6A" stroke-width="1.2" stroke-linecap="round" stroke-linejoin="round"/>
</svg>
