<svg width="13" height="16" viewBox="0 0 13 16" fill="none" xmlns="http://www.w3.org/2000/svg">
<path d="M8.40332 1.16992C8.73856 1.20786 9.03568 1.39955 9.2207 1.68555L9.29297 1.81445C9.3771 1.98762 9.39117 2.20694 9.36523 2.4707L9.32715 2.74902C9.29395 2.94658 9.24494 3.1758 9.18262 3.44043L8.95898 4.3457L8.65723 5.54492C8.62182 5.68566 8.59142 5.80702 8.56641 5.91309L8.50781 6.19141C8.48717 6.31196 8.48078 6.40188 8.48633 6.47754L8.49609 6.5498L8.49707 6.55273C8.53131 6.72404 8.6138 6.8772 8.72949 6.99609C8.7285 6.99709 8.72852 6.99796 8.72852 6.99805L8.74805 7.01758V7.0166L8.74902 7.01758C8.75543 7.02372 8.76142 7.02981 8.76758 7.03516C8.78013 7.04603 8.79297 7.05592 8.80469 7.06445C8.8278 7.08127 8.85127 7.09578 8.87402 7.1084L9.04004 7.18359C9.11225 7.2111 9.19571 7.23777 9.29395 7.26758L9.6377 7.36816L10.0098 7.47461C10.3737 7.57852 10.6771 7.6649 10.9238 7.74805L11.1523 7.83105C11.4005 7.92822 11.5977 8.0351 11.7305 8.1875L11.7832 8.25586C11.9608 8.51408 12.032 8.83399 11.9863 9.14453L11.96 9.27734C11.9164 9.44511 11.8155 9.59728 11.6719 9.75195L11.5146 9.9082C11.4022 10.0123 11.2666 10.1248 11.1084 10.251L10.5654 10.6738L6.74512 13.6094C6.34999 13.913 6.02265 14.1639 5.74902 14.3564L5.49219 14.5293C5.21658 14.7053 4.97151 14.825 4.74609 14.832L4.65039 14.8281C4.31668 14.788 4.02225 14.5953 3.83887 14.3096L3.76758 14.1816L3.73145 14.0918C3.68047 13.9355 3.67402 13.7481 3.69531 13.5303L3.73242 13.2549C3.76516 13.0596 3.81448 12.8335 3.87598 12.5723L4.0957 11.6787L4.36621 10.6035C4.40157 10.4629 4.43202 10.3414 4.45703 10.2354L4.51562 9.95703C4.53614 9.83708 4.54301 9.74617 4.53711 9.66895L4.52734 9.5957L4.49023 9.46387C4.45948 9.37868 4.41654 9.29967 4.36328 9.22949L4.27637 9.13086C4.25735 9.11259 4.23643 9.09606 4.21484 9.08105L4.14551 9.04102L4.02246 8.98145L3.95312 8.9541L3.39551 8.7832L3.38574 8.78027L2.97559 8.66309C2.61551 8.56028 2.31558 8.4749 2.07129 8.39258L1.8457 8.31055H1.84473C1.5988 8.21418 1.40371 8.10733 1.27148 7.95605L1.21875 7.88867C1.04111 7.63191 0.968902 7.31359 1.0127 7.00391L1.03809 6.87207C1.08033 6.7048 1.17915 6.55237 1.32031 6.39746L1.47461 6.24121C1.58513 6.13691 1.71844 6.02398 1.87402 5.89746L2.40723 5.47363L6.29688 2.42578C6.69481 2.11383 7.02348 1.85514 7.29883 1.65723L7.55762 1.47949C7.83455 1.29873 8.08094 1.17492 8.30762 1.16602L8.40332 1.16992Z" fill="#6BBDF6" stroke="#E7F4FE" stroke-linecap="round" stroke-linejoin="round"/>
</svg>
