  <svg
            width="150"
            height="40"
            viewBox="0 0 560 94"
            fill="white"
            xmlns="http://www.w3.org/2000/svg">
            <path
              d="M163.98 46.8C163.98 63.44 153.76 73.36 139.62 73.36C131.8 73.36 124.99 70.15 121.88 64.84V92.4H110.95V21.05H120.97L121.87 28.87C124.98 23.56 131.59 20.05 139.61 20.05C153.24 20.05 163.97 29.57 163.97 46.81L163.98 46.8ZM152.65 46.8C152.65 36.28 146.44 29.76 137.41 29.76C128.79 29.66 122.18 36.27 122.18 46.9C122.18 57.53 128.8 63.64 137.41 63.64C146.02 63.64 152.65 57.33 152.65 46.8Z"
            />
            <path
              d="M222.11 49.71H182.82C183.02 59.33 189.33 64.34 197.35 64.34C203.36 64.34 208.38 61.53 210.48 55.92H221.61C218.9 66.34 209.68 73.36 197.15 73.36C181.81 73.36 171.69 62.74 171.69 46.6C171.69 30.46 181.81 19.94 197.05 19.94C212.29 19.94 222.11 30.16 222.11 45.6V49.71V49.71ZM182.92 42.09H210.98C210.38 33.17 204.47 28.66 197.05 28.66C189.63 28.66 183.72 33.17 182.92 42.09Z"
            />
            <path
              d="M241.46 21.05C236.36 21.05 232.23 25.18 232.23 30.28V72.37H243.26V45.01V33.18C243.26 31.91 244.29 30.87 245.57 30.87H262.41V21.05H241.47H241.46Z"
            />
            <path
              d="M93.32 20.95L79.19 63.55L63.95 21.05H52.12L71.66 71.67C72.26 73.27 72.56 74.58 72.56 75.88C72.56 76.59 72.49 77.24 72.37 77.84L72.34 77.95C72.27 78.27 72.19 78.57 72.09 78.86L71.35 81.57C71.17 82.24 70.56 82.7 69.87 82.7H54.32V92.42H65.65C73.27 92.42 79.58 90.62 83.19 80.59L104.74 21.05L93.31 20.95H93.32Z"
            />
            <path
              d="M0 72.36H10.92V44.7C10.92 36.08 15.63 30.07 24.35 30.07C31.97 29.97 36.68 34.48 36.68 44.4V72.36H47.61V42.69C47.61 25.15 36.89 19.94 27.16 19.94C19.74 19.94 13.93 22.85 10.92 27.66V0H0V72.36V72.36Z"
            />
            <path
              d="M276.84 56.83C276.94 62.14 281.85 65.25 288.57 65.25C295.29 65.25 299.29 62.74 299.29 58.23C299.29 54.32 297.29 52.22 291.47 51.31L281.15 49.51C271.13 47.81 267.22 42.59 267.22 35.28C267.22 26.06 276.34 20.05 287.97 20.05C300.5 20.05 309.62 26.06 309.72 36.29H298.9C298.8 31.08 294.29 28.17 287.98 28.17C281.67 28.17 278.16 30.68 278.16 34.89C278.16 38.6 280.77 40.3 286.48 41.3L296.6 43.1C306.12 44.8 310.53 49.51 310.53 57.23C310.53 67.85 300.71 73.37 288.78 73.37C275.25 73.37 266.13 66.86 265.93 56.83H276.86H276.84Z"
            />
            <path
              d="M335.37 60.34L347 21.05H358.43L369.86 60.34L379.58 21.05H391.11L376.58 72.37H364.25L352.62 33.28L340.89 72.37H328.46L313.83 21.05H325.36L335.38 60.34H335.37Z"
            />
            <path
              d="M397.52 0H409.65V11.43H397.52V0ZM398.12 21.05H409.04V72.37H398.12V21.05Z"
            />
            <path
              d="M478.5 29.47C469.98 29.47 464.17 35.68 464.17 46.61C464.17 58.14 470.18 63.75 478.2 63.75C484.61 63.75 489.33 60.14 491.43 53.33H503.06C500.45 65.76 491.03 73.38 478.4 73.38C463.17 73.38 452.94 62.76 452.94 46.62C452.94 30.48 463.16 19.96 478.5 19.96C491.03 19.96 500.35 27.08 503.06 39.5H491.23C489.43 33.09 484.51 29.48 478.5 29.48V29.47Z"
            />
            <path
              d="M436.05 62.64C435.41 62.64 434.9 62.12 434.9 61.49V30.77H446.83V21.05H434.9V7.31H423.98V16.23C423.98 19.44 422.98 21.04 419.77 21.04H415.36V30.76H423.98V58.42C423.98 67.34 428.89 72.35 437.81 72.35H446.73V62.63H436.06L436.05 62.64Z"
            />
            <path
              d="M538.4 19.94C530.98 19.94 525.17 22.85 522.16 27.66V0H511.24V72.36H522.16V44.7C522.16 36.08 526.87 30.07 535.59 30.07C543.21 29.97 547.92 34.48 547.92 44.4V72.36H558.85V42.69C558.85 25.15 548.13 19.94 538.4 19.94V19.94Z"
            />
          </svg>