<svg width="172" height="33" viewBox="0 0 172 33" fill="none" xmlns="http://www.w3.org/2000/svg">
<rect y="0.5" width="32" height="32" rx="4" fill="#006DF9"/>
<path d="M21.4854 11.167H10.4553C7.53302 11.167 5.16406 13.5359 5.16406 16.458C5.16406 19.3801 7.53302 21.749 10.4553 21.749H21.4854C24.4077 21.749 26.7767 19.3801 26.7767 16.458C26.7767 13.5359 24.4077 11.167 21.4854 11.167Z" fill="white"/>
<path d="M11.9421 17.7632L10.1917 15.0448C10.1523 14.9838 10.0631 14.9838 10.0237 15.0448L8.27335 17.7632C8.23061 17.8296 8.27833 17.9172 8.35759 17.9172H11.8586C11.9379 17.9172 11.9856 17.8296 11.9429 17.7632H11.9421Z" fill="#006DF9"/>
<path d="M17.3753 14.9131H14.6071C14.5181 14.9131 14.446 14.9852 14.446 15.0741V17.8423C14.446 17.9312 14.5181 18.0033 14.6071 18.0033H17.3753C17.4642 18.0033 17.5363 17.9312 17.5363 17.8423V15.0741C17.5363 14.9852 17.4642 14.9131 17.3753 14.9131Z" fill="#006DF9"/>
<path d="M21.9128 18.1313C22.8371 18.1313 23.5864 17.382 23.5864 16.4577C23.5864 15.5335 22.8371 14.7842 21.9128 14.7842C20.9885 14.7842 20.2393 15.5335 20.2393 16.4577C20.2393 17.382 20.9885 18.1313 21.9128 18.1313Z" fill="#006DF9"/>
<path d="M81.5194 17.6326C81.5194 21.3812 79.181 23.6159 75.9457 23.6159C74.1564 23.6159 72.5982 22.8928 71.8866 21.6966V27.9052H69.3857V11.8317H71.6784L71.8843 13.5934C72.5959 12.3972 74.1083 11.6064 75.9434 11.6064C79.062 11.6064 81.5172 13.7511 81.5172 17.6348L81.5194 17.6326ZM78.927 17.6326C78.927 15.2627 77.5061 13.7939 75.44 13.7939C73.4677 13.7713 71.9553 15.2604 71.9553 17.6551C71.9553 20.0498 73.47 21.4262 75.44 21.4262C77.41 21.4262 78.927 20.0047 78.927 17.6326Z" fill="#333333"/>
<path d="M94.8202 18.2885H85.8303C85.8761 20.4557 87.3199 21.5843 89.1549 21.5843C90.53 21.5843 91.6787 20.9513 92.1592 19.6875H94.7058C94.0857 22.0348 91.9761 23.6163 89.1091 23.6163C85.5992 23.6163 83.2837 21.2238 83.2837 17.5879C83.2837 13.9519 85.5992 11.582 89.0863 11.582C92.5733 11.582 94.8202 13.8844 94.8202 17.3626V18.2885ZM85.8532 16.5719H92.2736C92.1363 14.5624 90.784 13.5464 89.0863 13.5464C87.3885 13.5464 86.0362 14.5624 85.8532 16.5719Z" fill="#333333"/>
<path d="M99.2481 11.832C98.0812 11.832 97.1362 12.7624 97.1362 13.9113V23.3932H99.66V17.2296V14.5646C99.66 14.2785 99.8957 14.0442 100.189 14.0442H104.042V11.832H99.2504H99.2481Z" fill="#333333"/>
<path d="M65.3522 11.8096L62.1191 21.4063L58.6321 11.8321H55.9253L60.3962 23.2356C60.5335 23.596 60.6021 23.8911 60.6021 24.184C60.6021 24.3439 60.5861 24.4904 60.5587 24.6255L60.5518 24.6503C60.5358 24.7224 60.5175 24.79 60.4946 24.8553L60.3253 25.4658C60.2841 25.6167 60.1445 25.7204 59.9866 25.7204H56.4287V27.91H59.0211C60.7646 27.91 62.2084 27.5045 63.0344 25.245L67.9652 11.8321L65.3499 11.8096H65.3522Z" fill="#333333"/>
<path d="M44 23.3908H46.4986V17.1597C46.4986 15.2178 47.5763 13.8639 49.5715 13.8639C51.315 13.8414 52.3927 14.8574 52.3927 17.0921V23.3908H54.8935V16.7069C54.8935 12.7555 52.4407 11.5818 50.2144 11.5818C48.5167 11.5818 47.1873 12.2374 46.4986 13.321V7.08984H44V23.3908Z" fill="#333333"/>
<path d="M107.343 19.8921C107.366 21.0883 108.489 21.7889 110.027 21.7889C111.564 21.7889 112.48 21.2235 112.48 20.2075C112.48 19.3267 112.022 18.8536 110.69 18.6486L108.329 18.2431C106.036 17.8601 105.142 16.6842 105.142 15.0374C105.142 12.9604 107.229 11.6064 109.89 11.6064C112.757 11.6064 114.843 12.9604 114.866 15.2649H112.39C112.368 14.0912 111.336 13.4357 109.892 13.4357C108.448 13.4357 107.645 14.0011 107.645 14.9495C107.645 15.7853 108.242 16.1683 109.549 16.3936L111.864 16.7991C114.042 17.182 115.052 18.2431 115.052 19.9822C115.052 22.3746 112.805 23.6182 110.075 23.6182C106.979 23.6182 104.892 22.1516 104.847 19.8921H107.348H107.343Z" fill="#333333"/>
<path d="M120.735 20.6831L123.396 11.832H126.011L128.627 20.6831L130.851 11.832H133.489L130.164 23.3932H127.343L124.682 14.5872L121.998 23.3932H119.154L115.807 11.832H118.445L120.737 20.6831H120.735Z" fill="#333333"/>
<path d="M134.956 7.08984H137.731V9.66475H134.956V7.08984ZM135.093 11.8319H137.592V23.3931H135.093V11.8319Z" fill="#333333"/>
<path d="M153.485 13.7283C151.535 13.7283 150.206 15.1273 150.206 17.5895C150.206 20.187 151.581 21.4508 153.416 21.4508C154.883 21.4508 155.963 20.6375 156.443 19.1034H159.104C158.507 21.9036 156.352 23.6202 153.462 23.6202C149.977 23.6202 147.636 21.2277 147.636 17.5918C147.636 13.9558 149.975 11.5859 153.485 11.5859C156.352 11.5859 158.484 13.1899 159.104 15.9878H156.397C155.985 14.5438 154.86 13.7306 153.485 13.7306V13.7283Z" fill="#333333"/>
<path d="M143.773 21.2008C143.626 21.2008 143.509 21.0837 143.509 20.9418V14.0213H146.239V11.8316H143.509V8.73633H141.011V10.7458C141.011 11.4689 140.782 11.8294 140.048 11.8294H139.039V14.019H141.011V20.2502C141.011 22.2596 142.134 23.3883 144.175 23.3883H146.216V21.1986H143.775L143.773 21.2008Z" fill="#333333"/>
<path d="M167.191 11.5818C165.493 11.5818 164.164 12.2374 163.475 13.321V7.08984H160.977V23.3908H163.475V17.1597C163.475 15.2178 164.553 13.8639 166.548 13.8639C168.292 13.8414 169.369 14.8574 169.369 17.0921V23.3908H171.87V16.7069C171.87 12.7555 169.417 11.5818 167.191 11.5818Z" fill="#333333"/>
</svg>
