<svg width="14" height="14" viewBox="0 0 14 14" fill="none" xmlns="http://www.w3.org/2000/svg">
<path d="M6.71033 13.2404C6.38902 13.2531 6.07083 13.2219 5.75398 13.1777C4.88806 13.0554 4.07171 12.7815 3.32234 12.3363C1.65012 11.3445 0.586143 9.9084 0.147601 8.02774C0.0493527 7.60585 0.00313156 7.17693 0.000228787 6.74405C-0.0131686 5.0145 0.561804 3.50403 1.73296 2.21792C2.74224 1.1091 3.99981 0.434703 5.47598 0.147875C5.88304 0.0686892 6.29456 0.0295363 6.71033 0.0396545C6.71033 0.696236 6.71033 1.35238 6.70966 2.0094C6.69202 2.01952 6.67371 2.02964 6.65674 2.04085C6.41112 2.21 6.17131 2.38531 5.93819 2.57162C5.40788 2.99306 4.90771 3.4464 4.48524 3.97739C3.92054 4.69006 3.54072 5.47818 3.4916 6.39783C3.46815 6.83621 3.51884 7.26711 3.66108 7.68526C4.01388 8.71599 5.08969 9.7773 6.61499 9.80964C6.70877 9.81206 6.72284 9.82833 6.7206 9.9205C6.71033 10.3703 6.70966 11.2706 6.70966 11.2706C6.70966 11.2706 6.71033 11.3219 6.71033 11.3487V13.2404Z" fill="#0067F0"/>
<path d="M6.72079 2.01002C6.72079 2.01002 6.72146 0.696643 6.72146 0.0399542C7.08585 0.0291744 7.44712 0.0661338 7.80683 0.122673C8.47894 0.227611 9.12382 0.422748 9.72854 0.733602C10.9862 1.37973 11.9872 2.29118 12.6533 3.54053C13.0366 4.2608 13.2895 5.02507 13.3914 5.83355C13.5095 6.7791 13.4178 7.70858 13.1275 8.61694C12.7963 9.65137 12.2407 10.5542 11.4617 11.3176C10.5142 12.2458 9.38401 12.8429 8.07817 13.1099C7.63032 13.2012 7.17801 13.2483 6.72146 13.2428V11.3511C6.72146 11.3242 6.7228 11.2844 6.7228 11.2844C6.7228 11.2844 6.75225 11.2642 6.76118 11.2582C7.46163 10.7742 8.1228 10.2447 8.6936 9.61243C9.0667 9.20125 9.38847 8.75532 9.61273 8.24691C9.93004 7.52664 10.0494 6.78174 9.89188 6.00427C9.59956 4.56308 8.30154 3.49433 6.80871 3.46265C6.71454 3.46265 6.72079 3.37928 6.72079 3.37928V2.01002Z" fill="#0455CA"/>
</svg>
