<svg width="216" height="128" viewBox="0 0 216 128" fill="none" xmlns="http://www.w3.org/2000/svg">
<path d="M75.0486 23.3874C75.3486 24.3111 75.6234 25.2426 75.8727 26.1822C75.9985 26.6518 76.1156 27.1244 76.2203 27.6021C76.2733 27.8408 76.3202 28.082 76.3609 28.3258C76.3775 28.4498 76.4029 28.5689 76.4116 28.6974L76.4279 28.8878L76.4502 29.0439C76.5539 29.4667 76.8101 29.8357 77.1692 30.0795C77.5468 30.3597 77.9482 30.6061 78.3686 30.8158C78.4888 30.878 78.6042 30.9491 78.7139 31.0286L78.762 31.0658C78.788 31.0923 78.812 31.1207 78.8338 31.1508C78.8635 31.1906 78.887 31.2348 78.9034 31.2818C78.929 31.3472 78.9513 31.4139 78.9702 31.4815C79.0571 31.7652 79.0623 32.0677 78.9851 32.3541C78.9389 32.5069 78.8627 32.6489 78.7611 32.7717C78.6595 32.8946 78.5345 32.9958 78.3935 33.0695C78.1413 33.1938 77.8695 33.273 77.5903 33.3035L77.8686 32.9813C77.9054 33.6579 77.9049 34.3238 77.8922 34.9963C77.8766 35.6673 77.8415 36.3395 77.7683 37.0133C77.7053 37.7005 77.5704 38.3791 77.3659 39.0379C77.2543 39.3984 77.0812 39.7366 76.8543 40.0376C76.7158 40.2143 76.5371 40.3551 76.3332 40.4481C76.1117 40.5452 75.8665 40.5738 75.6287 40.5301L75.7116 40.5366L72.4347 40.6533L72.4602 39.8902C73.5493 40.0626 74.5989 40.4292 75.5595 40.9725C76.5138 41.4935 77.3849 42.1553 78.1438 42.9358C78.3374 43.1248 78.5043 43.3396 78.6853 43.5402L78.951 43.8462L79.1876 44.1749C79.3435 44.3953 79.5063 44.6106 79.6555 44.8346L80.0625 45.532L80.2648 45.8806L80.4341 46.2463L80.7714 46.9766C80.9745 47.4717 81.136 47.983 81.3193 48.4842L81.2251 48.371C82.6523 49.2563 83.9571 50.3266 85.1059 51.5543C86.262 52.7708 87.2325 54.1525 87.9858 55.6544C88.3525 56.4115 88.6542 57.1986 88.8878 58.0072C89.1113 58.8204 89.2681 59.6505 89.3567 60.4893C89.4999 62.1767 89.3722 63.8763 88.9786 65.523L88.942 65.3066C90.1763 67.0946 91.4006 68.889 92.6151 70.6898L96.2561 76.0945L96.2605 76.1008C96.3004 76.1602 96.3235 76.2293 96.3274 76.3009C96.3313 76.3724 96.3158 76.4437 96.2826 76.5071C94.8841 79.1366 93.2118 81.6097 91.2939 83.8849C89.4062 86.1739 87.3041 88.2757 85.0164 90.1613L84.1658 90.8747L83.275 91.5374C82.6761 91.9719 82.0975 92.4343 81.4827 92.845C80.2372 93.643 79.0218 94.4873 77.7054 95.1635C75.1197 96.5852 72.4061 97.7586 69.6008 98.668L69.5933 98.6705C69.5719 98.6778 69.5489 98.6788 69.527 98.6734C69.5051 98.668 69.4852 98.6565 69.4696 98.6402L67.3431 96.4094C67.3392 96.4053 67.3361 96.4005 67.3341 96.3953C67.3321 96.3901 67.3311 96.3845 67.3312 96.3788C67.3313 96.3732 67.3326 96.3677 67.3348 96.3625C67.3371 96.3574 67.3403 96.3527 67.3443 96.3488C67.3526 96.3414 67.3633 96.3374 67.3744 96.3375C67.3855 96.3377 67.3961 96.3419 67.4042 96.3495L69.6471 98.4469L69.5161 98.4191L71.5406 97.5737C72.2225 97.313 72.8905 97.0171 73.542 96.6873L75.4985 95.7062C75.8262 95.5462 76.145 95.3686 76.4538 95.1743L77.3934 94.6145C78.6716 93.9115 79.8539 93.0544 81.0603 92.2398C81.6562 91.8216 82.2155 91.3521 82.7945 90.9113L83.6554 90.2397L84.4756 89.518C85.0131 89.0269 85.5901 88.5806 86.1044 88.0643L87.6723 86.5441L89.162 84.9469C89.6563 84.4127 90.116 83.847 90.5948 83.2987C92.4737 81.0813 94.131 78.6838 95.5426 76.1406L95.5691 76.5532L92.0157 71.09C90.8351 69.2664 89.6613 67.4383 88.4943 65.6055L88.4895 65.598C88.4701 65.5673 88.4573 65.5329 88.4518 65.4969C88.4463 65.4609 88.4484 65.4242 88.4577 65.3891C88.8953 63.8057 89.0714 62.1611 88.979 60.5205C88.9211 59.7004 88.7893 58.8873 88.5854 58.091C88.3654 57.2976 88.0786 56.5243 87.7281 55.7797C87.0124 54.2897 86.0599 52.9267 84.9082 51.744C83.771 50.5527 82.4669 49.5343 81.0371 48.721C80.997 48.6988 80.9657 48.6635 80.9483 48.6209L80.9428 48.6077C80.7451 48.1253 80.57 47.6338 80.3554 47.1613L80.0027 46.4676L79.8269 46.1212L79.6194 45.7933L79.2053 45.1386C79.0547 44.9297 78.8914 44.73 78.7356 44.5253L78.4996 44.2204L78.2364 43.9391C78.0575 43.7553 77.8932 43.5572 77.7034 43.3854C76.9614 42.6826 76.1258 42.0867 75.2205 41.6148C74.3328 41.1418 73.3746 40.8165 72.3833 40.6515L72.365 40.6488C72.271 40.6348 72.1856 40.5859 72.1256 40.5118C72.0657 40.4378 72.0355 40.3438 72.041 40.2485C72.0464 40.1532 72.0872 40.0634 72.1553 39.9968C72.2234 39.9301 72.3138 39.8915 72.4088 39.8884L75.6861 39.7823C75.7044 39.7817 75.7227 39.7826 75.7408 39.7848L75.7691 39.7887C75.8674 39.8048 75.9682 39.7919 76.0594 39.7516C76.1505 39.7113 76.2281 39.6454 76.2827 39.5618C76.4541 39.3313 76.5858 39.0736 76.6723 38.7994C76.8634 38.1902 76.9958 37.564 77.0675 36.9294C77.2185 35.6279 77.2795 34.3174 77.2502 33.0073L77.2501 33.003C77.2495 32.9249 77.2775 32.8493 77.3289 32.7906C77.3803 32.7319 77.4514 32.6944 77.5287 32.6851C77.731 32.6699 77.9295 32.6216 78.1164 32.5421C78.1924 32.508 78.2606 32.4586 78.3167 32.3968C78.3728 32.3351 78.4156 32.2624 78.4425 32.1833C78.4957 31.9998 78.4965 31.805 78.4449 31.6211C78.4327 31.5713 78.4182 31.5217 78.4017 31.4746C78.3951 31.455 78.379 31.4151 78.388 31.4462C78.3909 31.4528 78.3963 31.4579 78.4029 31.4605L78.3791 31.4424C78.294 31.3784 78.2049 31.3202 78.1121 31.268C77.6755 31.03 77.2606 30.7538 76.8723 30.4426C76.6699 30.2757 76.4912 30.0816 76.3412 29.866C76.1786 29.642 76.0742 29.3808 76.0373 29.1062C75.9713 28.1424 75.8295 27.1854 75.6134 26.2441C75.4129 25.2978 75.194 24.3533 74.9666 23.4112C74.9639 23.4004 74.9655 23.389 74.971 23.3793C74.9765 23.3697 74.9855 23.3626 74.9962 23.3595C75.0068 23.3564 75.0182 23.3576 75.028 23.3628C75.0378 23.368 75.0452 23.3769 75.0486 23.3874ZM49.494 39.0881C46.6617 40.0796 44.0515 41.6213 41.8121 43.6251C39.5982 45.6252 37.8404 48.0818 36.659 50.8269C36.363 51.5069 36.1042 52.2026 35.8837 52.9109C35.6828 53.6101 35.4645 54.3642 35.2319 55.0799C34.7647 56.5223 34.2621 57.9462 33.7546 59.3687C32.7357 62.2122 31.6892 65.044 30.615 67.8642L30.4682 67.3649C31.7461 68.2253 33.17 68.8435 34.6696 69.1888C36.1913 69.5603 37.7414 69.8026 39.3036 69.913C40.8746 70.0297 42.4506 70.0661 44.0253 70.022C45.5994 69.9745 47.1844 69.8917 48.7426 69.7207L48.7549 69.7194C48.8226 69.712 48.8908 69.7268 48.9495 69.7614C49.0083 69.7961 49.0543 69.8488 49.0808 69.9118C50.2413 72.6334 51.578 75.2758 53.0824 77.822C54.5572 80.391 56.1962 82.8644 57.8961 85.2975C56.0485 82.9701 54.3251 80.5459 52.7333 78.0351C51.1447 75.5125 49.7272 72.8853 48.4904 70.1712L48.8286 70.3622C47.2426 70.5778 45.6466 70.7108 44.0469 70.7606C42.4467 70.819 40.8445 70.7956 39.2467 70.6906C37.6381 70.5904 36.0407 70.3543 34.4716 69.9848C32.8638 69.6309 31.3367 68.9764 29.9699 68.0555C29.8937 68.0012 29.8377 67.9228 29.8109 67.8329C29.784 67.743 29.7879 67.6467 29.8217 67.5592L29.823 67.5562C30.9141 64.7482 31.9825 61.9306 33.0282 59.1034C33.5462 57.6895 34.0597 56.2728 34.5339 54.8493C34.7772 54.1336 34.9714 53.4363 35.2113 52.693C36.4508 49.0556 38.6362 45.8173 41.5411 43.3135C43.2929 41.8608 45.2563 40.6868 47.3628 39.8324C47.71 39.6859 48.0643 39.5572 48.4245 39.4467L49.494 39.0881Z" fill="black"/>
<path d="M38.4946 57.2581C39.6582 58.0177 40.796 58.8191 41.8945 59.6773C42.4447 60.1054 42.9806 60.5539 43.4938 61.0333C44.0297 61.5053 44.4943 62.0531 44.8732 62.6595L49.1559 69.8298C49.2138 69.9272 49.2309 70.0438 49.2034 70.1538C49.176 70.2639 49.1062 70.3585 49.0093 70.417C48.9125 70.4754 48.7966 70.493 48.6869 70.4657C48.5772 70.4385 48.4827 70.3687 48.4242 70.2716L48.4132 70.2522L44.5015 62.87C44.1705 62.277 43.7555 61.7355 43.2694 61.2624C42.7912 60.7675 42.2834 60.2958 41.759 59.8429C40.7118 58.9345 39.6176 58.0763 38.4946 57.2581ZM60.0711 56.694C59.9909 57.9827 59.8924 59.2692 59.7754 60.5533C59.66 61.8376 59.5325 63.1204 59.393 64.4016C59.2595 65.6837 59.1033 66.9628 58.953 68.2427C58.7947 69.5215 58.6244 70.7988 58.4217 72.072L58.1717 71.703C59.6946 72.1303 61.2536 72.4932 62.8149 72.8087C64.38 73.1145 65.9623 73.3235 67.553 73.4343C69.1386 73.5467 70.7309 73.5241 72.3127 73.3666C73.094 73.2831 73.8686 73.1458 74.6312 72.9557C75.3811 72.7832 76.1044 72.5102 76.7818 72.1441L76.5927 72.4026C76.9334 70.4023 77.3011 68.4082 77.6638 66.4122C78.0342 64.4177 78.4382 62.4294 78.8758 60.4472C79.0934 59.4555 79.3264 58.467 79.567 57.4776C79.6894 56.9853 79.8246 56.4874 79.962 55.9971C80.0946 55.5197 80.2157 55.0361 80.3186 54.5458C80.5264 53.566 80.681 52.5688 80.7959 51.5659C80.9269 50.5642 81.0144 49.5551 81.0873 48.5444C81.0875 48.5388 81.0889 48.5332 81.0912 48.5281C81.0936 48.523 81.097 48.5184 81.1011 48.5146C81.1053 48.5108 81.1101 48.5079 81.1154 48.506C81.1207 48.5041 81.1263 48.5032 81.1319 48.5035C81.1425 48.5042 81.1524 48.5088 81.1599 48.5163C81.1674 48.5238 81.1719 48.5338 81.1726 48.5444C81.2722 50.5839 81.1826 52.6282 80.905 54.651C80.8379 55.1601 80.7379 55.6665 80.6225 56.1717C80.5104 56.6638 80.4042 57.1503 80.3056 57.6472L79.718 60.6234C79.3322 62.6108 78.9489 64.6002 78.5413 66.585L77.3188 72.5403L77.3155 72.556C77.3047 72.6079 77.2823 72.6567 77.2501 72.6987C77.218 72.7408 77.1768 72.775 77.1296 72.7988C75.6266 73.4798 73.9993 73.8406 72.3505 73.8583C70.7429 73.9124 69.1335 73.8615 67.5324 73.7058C65.9355 73.5678 64.3455 73.3769 62.7578 73.1577C61.1666 72.9479 59.5874 72.6914 58.0059 72.3562C57.9291 72.3399 57.8609 72.2958 57.8143 72.2323C57.7677 72.1688 57.7461 72.0903 57.7534 72.0118L57.7558 71.9871C57.8764 70.7035 58.0294 69.4239 58.1945 68.1459C58.3676 66.869 58.5347 65.5912 58.7244 64.3164C58.9064 63.0406 59.1023 61.7666 59.3121 60.4943C59.5206 59.2218 59.7454 57.9515 59.9864 56.6831C59.9884 56.6724 59.9945 56.6629 60.0033 56.6565C60.0121 56.6501 60.023 56.6473 60.0338 56.6487C60.0446 56.6501 60.0544 56.6555 60.0613 56.664C60.0683 56.6724 60.0717 56.6831 60.0711 56.694ZM75.1776 22.5329C75.1776 22.5329 61.8665 15.1225 56.7665 21.6085C56.7665 21.6085 54.392 24.8468 54.4721 27.9027C54.5523 30.9585 55.3038 32.8204 47.0039 42.3314C38.704 51.8424 57.7249 49.2222 59.2216 48.2417C60.7184 47.2612 65.4612 40.5495 68.3777 40.1195C71.2943 39.6895 68.373 35.4739 68.373 35.4739C68.373 35.4739 65.0484 35.9735 65.1268 32.2666C65.2053 28.5597 68.4099 30.1803 68.4099 30.1803C68.4099 30.1803 73.4408 32.2231 75.1776 22.5329Z" fill="black"/>
<path d="M70.1348 37.8972C70.4869 38.1344 70.7561 38.3871 71.0434 38.6117C71.1835 38.7262 71.3267 38.8302 71.4757 38.9314C71.6391 39.0324 71.809 39.1224 71.9842 39.2009C71.7822 39.2854 71.5577 39.2991 71.3469 39.2398C71.1395 39.1813 70.9458 39.0816 70.7775 38.9465C70.6149 38.8143 70.4749 38.6563 70.363 38.4788C70.2463 38.3037 70.1684 38.1053 70.1348 37.8972ZM69.0745 39.8913C69.6364 39.8031 70.2079 39.795 70.7721 39.8672C71.3384 39.9215 71.894 40.0568 72.4221 40.2688C71.8603 40.3579 71.2886 40.366 70.7245 40.2928C70.1584 40.2377 69.6029 40.1025 69.0745 39.8913ZM75.9509 31.9215C76.0453 32.1077 76.1493 32.2888 76.2623 32.4642C76.3081 32.535 76.3617 32.6003 76.4221 32.6589C76.4883 32.7303 76.5753 32.7962 76.6793 32.902C76.6188 32.9379 76.5518 32.9614 76.4822 32.9711C76.4126 32.9808 76.3418 32.9765 76.2739 32.9585C76.1269 32.9233 75.9981 32.8345 75.9127 32.7093C75.8302 32.5885 75.7892 32.4439 75.7958 32.2975C75.7987 32.1571 75.854 32.0229 75.9509 31.9215ZM73.7395 27.9812C73.9888 27.7643 74.3066 27.6433 74.6364 27.6396C74.9683 27.6156 75.2967 27.7207 75.5535 27.9332C75.2596 28.0147 74.957 28.0598 74.6522 28.0676C74.3454 28.0838 74.0379 28.0547 73.7395 27.9812ZM74.3108 30.1614C74.4373 30.1569 74.5571 30.1034 74.645 30.012C74.7329 29.9206 74.782 29.7985 74.782 29.6715C74.782 29.5444 74.7329 29.4223 74.645 29.3309C74.5571 29.2395 74.4373 29.186 74.3108 29.1816C74.1844 29.186 74.0646 29.2395 73.9767 29.3309C73.8888 29.4223 73.8397 29.5444 73.8397 29.6715C73.8397 29.7985 73.8888 29.9206 73.9767 30.012C74.0646 30.1034 74.1844 30.1569 74.3108 30.1614ZM75.5013 34.8738C75.8643 34.9169 76.2195 35.0106 76.5568 35.152C76.8865 35.2838 77.1779 35.4221 77.5339 35.5909C77.3534 35.6748 77.1533 35.7067 76.9558 35.6829C76.7656 35.6659 76.5788 35.6215 76.4013 35.5509C76.2267 35.4812 76.0612 35.3903 75.9086 35.2804C75.7494 35.1708 75.6113 35.0331 75.5013 34.8738ZM92.7293 81.3257C93.3353 81.8314 93.9198 82.3543 94.4618 82.9027L93.9198 83.6355C93.459 84.2527 93.0323 84.8955 92.5245 85.474L91.0651 87.2525C90.5957 87.8652 90.0452 88.4009 89.5331 88.9666L88.7565 89.8151C88.5048 90.1057 88.2385 90.3832 87.9586 90.6465L87.327 91.2551C86.9728 90.7536 86.6315 90.2351 86.3071 89.708C86.6187 90.2479 86.943 90.7793 87.2801 91.2978L86.3071 92.2406C84.0619 94.3222 81.6291 96.1901 79.0401 97.8202C78.383 98.2102 77.7386 98.6216 77.0558 98.9688L76.0445 99.5172L75.0033 100.006C73.6198 100.677 72.1769 101.216 70.6934 101.617C70.2605 100.614 69.8816 99.5883 69.5583 98.5444C81.4254 94.4733 88.8888 86.5281 92.7293 81.3257ZM95.9126 76.3247L97.8713 77.9274C96.9837 79.2002 96.1729 80.5115 95.2939 81.7757L94.7264 82.5471C94.1018 82.0757 93.433 81.6666 92.7293 81.3257C93.9223 79.7472 94.9868 78.0748 95.9126 76.3247ZM145.131 110.394C131.774 109.652 120.701 109.031 120.701 109.031C123.339 106.255 125.626 103.162 127.507 99.8214C129.402 96.4824 130.973 92.968 132.197 89.3266C133.425 85.6916 134.364 81.9644 135.005 78.1802C135.056 77.876 135.103 77.5717 135.154 77.2675C135.209 78.8616 135.278 80.4601 135.337 82.0585C135.423 84.1712 135.534 86.2882 135.636 88.4009L135.982 94.739L136.361 101.077C136.368 101.172 136.407 101.262 136.471 101.332C136.535 101.403 136.622 101.449 136.716 101.463H136.72C138.67 101.729 140.633 101.934 142.604 102.033C143.168 102.063 143.735 102.084 144.298 102.101C144.768 103.048 145.557 105.44 145.131 110.394Z" fill="black"/>
<path d="M147.93 101.287C146.167 101.317 144.407 101.281 142.647 101.18C140.816 101.077 138.986 100.914 137.164 100.678L136.728 94.6918L136.238 88.358C136.063 86.2496 135.892 84.1412 135.696 82.0329C135.534 80.3187 135.38 78.6045 135.214 76.8904C135.745 73.5388 136.004 70.1492 135.986 66.7554C135.841 68.6581 135.632 70.5523 135.337 72.4378C135.064 74.3191 134.731 76.1961 134.352 78.0559C133.963 79.9201 133.541 81.7714 133.042 83.6013C132.555 85.4397 132.013 87.2567 131.39 89.048C130.784 90.8478 130.114 92.622 129.363 94.3619C129.009 95.2404 128.595 96.0974 128.203 96.9588C127.78 97.8073 127.379 98.6644 126.927 99.5C125.156 102.867 123.071 106.059 120.701 109.031C108.885 118.33 99.544 121.064 92.2642 120.348C92.3409 119.333 92.3708 118.317 92.405 117.306C92.4055 117.255 92.3873 117.206 92.3537 117.169L92.3367 117.147C91.4875 116.264 90.6269 115.39 89.755 114.525C88.8802 113.663 87.9984 112.812 87.1093 111.971C86.226 111.118 85.3171 110.299 84.4167 109.464C83.5078 108.641 82.5946 107.822 81.6687 107.021L81.6473 107.004C81.5962 106.959 81.5311 106.933 81.4632 106.932C81.3954 106.93 81.3291 106.953 81.2761 106.995C79.9916 108.028 78.7115 109.069 77.4739 110.171C78.8181 109.369 80.1239 108.508 81.4211 107.638C82.2234 108.457 83.0426 109.258 83.862 110.059C84.7538 110.903 85.6286 111.761 86.5332 112.588C87.4293 113.423 88.3368 114.248 89.2557 115.06C90.1518 115.857 91.0579 116.644 91.9739 117.422C92.0593 118.394 92.1404 119.371 92.2642 120.348C79.5393 119.101 73.0915 107.325 70.6934 101.617C73.7543 101.065 76.694 99.9736 79.3771 98.3945C82.0781 96.841 84.5961 94.9865 86.8831 92.8662L87.7579 92.0135C88.7104 93.405 89.7705 94.7189 90.9284 95.9432C92.7164 97.8116 94.7561 99.5172 97.1842 100.541C98.3979 101.062 99.6937 101.364 101.012 101.433C102.339 101.46 103.659 101.23 104.899 100.756L105.812 100.37C106.103 100.22 106.389 100.049 106.674 99.8858L107.105 99.6415L107.507 99.3544L108.309 98.7758C108.812 98.3516 109.307 97.9188 109.785 97.4689C110.229 96.9889 110.703 96.5303 111.121 96.0289C111.531 95.5189 111.957 95.0175 112.35 94.4947L113.476 92.892C114.189 91.8078 114.885 90.7194 115.58 89.6223C116.967 87.4367 118.334 85.2368 119.681 83.0227C122.386 78.6046 125.011 74.1391 127.729 69.7466C129.082 67.544 130.46 65.3584 131.962 63.2799C132.701 62.2409 133.51 61.2531 134.381 60.323C134.811 59.8721 135.279 59.4605 135.781 59.093C136.244 58.7265 136.784 58.4714 137.36 58.3475C137.629 58.2994 137.904 58.3053 138.171 58.3646C138.306 58.3886 138.436 58.4318 138.559 58.4931C138.681 58.538 138.796 58.6001 138.9 58.6775C139.336 59.0796 139.692 59.5608 139.95 60.0959C140.518 61.2344 140.986 62.4202 141.35 63.6399C142.114 66.0911 142.702 68.611 143.253 71.135C144.328 76.1918 145.165 81.3085 145.924 86.4296C146.68 91.3706 147.324 96.3246 147.93 101.287Z" fill="black"/>
<path d="M160.198 91.8635C160.185 92.8149 160.159 93.7662 160.13 94.7176C160.061 96.5432 159.993 98.3687 159.912 100.19C158.06 100.507 156.195 100.76 154.326 100.936C152.389 101.129 150.439 101.244 148.493 101.279C148.309 101.283 148.126 101.283 147.947 101.287C147.105 91.1299 145.752 81.022 143.893 71.0022C143.411 68.4437 142.797 65.9119 142.054 63.4171C141.68 62.1529 141.201 60.9228 140.62 59.7403C140.317 59.1061 139.892 58.5382 139.37 58.0689C139.216 57.9504 139.047 57.8552 138.866 57.7861C138.7 57.7026 138.524 57.6421 138.341 57.6062C137.977 57.5249 137.6 57.5161 137.232 57.5804C136.539 57.7166 135.887 58.013 135.329 58.4461C134.785 58.8397 134.278 59.2814 133.814 59.7659C132.909 60.7168 132.071 61.7291 131.305 62.7957C129.764 64.8999 128.369 67.0897 127.003 69.2924C124.298 73.7192 121.699 78.1931 119.019 82.6199C117.684 84.8312 116.33 87.0338 114.957 89.228L112.879 92.5021L111.799 94.0877C111.424 94.6062 111.014 95.0989 110.626 95.6047C110.22 96.0975 109.768 96.5475 109.346 97.0232C108.889 97.4689 108.415 97.893 107.937 98.3088L107.174 98.8744L106.794 99.1573L106.384 99.3973C106.111 99.5558 105.842 99.7229 105.565 99.8729L104.703 100.254C103.532 100.721 102.284 100.958 101.025 100.953C99.7602 100.904 98.5139 100.635 97.3419 100.156C94.9651 99.2258 92.9041 97.5931 91.0905 95.7847C90.1803 94.8709 89.3267 93.902 88.5345 92.8834C88.2912 92.5749 88.0565 92.2621 87.8218 91.9492L88.5515 91.2335C88.833 90.9645 89.1008 90.6813 89.3537 90.385L90.1304 89.5109C91.1666 88.351 92.1422 87.138 93.0534 85.8768C93.5399 85.2726 93.9496 84.6083 94.3763 83.9613L94.8158 83.2799C95.152 83.6339 95.4656 84.0089 95.7546 84.4026C96.1736 84.9608 96.5153 85.5735 96.7702 86.2239C97.0337 86.8583 97.1839 87.5343 97.2139 88.221C97.2499 89.6179 96.9234 91.0002 96.2666 92.2321C95.603 93.5176 94.7768 94.7117 93.8087 95.7847C95.034 94.9313 96.0687 93.8308 96.847 92.5535C97.6831 91.2503 98.107 89.7235 98.0631 88.1738C97.9566 86.6151 97.3262 85.1389 96.2752 83.987C95.9173 83.5726 95.5247 83.1898 95.1017 82.8428L95.6436 82.0072C96.0404 81.3429 96.3947 80.6488 96.7702 79.9716C97.1457 79.2945 97.5127 78.6132 97.8711 77.9275L101.059 80.5372C100.035 81.4338 99.2118 82.538 98.6435 83.777C99.1612 83.3377 99.624 82.8369 100.022 82.2857C100.435 81.7461 100.783 81.1592 101.059 80.5372C126.688 51.0666 135.999 43.3872 145.617 46.8413C155.167 50.2696 160.087 88.4995 160.151 89.0095V89.0138C160.228 89.965 160.198 90.9121 160.198 91.8635Z" fill="black"/>
<path d="M190.913 112.819C190.009 112.84 175.991 112.095 160.714 111.255C155.645 106.76 155.854 102.641 156.05 101.437C157.45 101.24 158.844 100.997 160.232 100.708L160.245 100.704C160.305 100.691 160.36 100.657 160.399 100.609C160.438 100.561 160.461 100.501 160.462 100.439C160.48 98.5316 160.488 96.6288 160.45 94.7218C160.433 93.7662 160.411 92.8149 160.377 91.8592C160.351 90.9074 160.275 89.9576 160.151 89.0137L190.478 96.2089C191.972 99.6157 190.913 112.819 190.913 112.819Z" fill="black"/>
<path d="M160.728 111.238C161.524 111.883 162.355 112.475 163.206 113.035C164.059 113.594 164.944 114.099 165.836 114.59C166.729 115.078 167.648 115.518 168.571 115.948C169.494 116.38 170.431 116.779 171.369 117.182L171.386 117.189C171.409 117.199 171.428 117.215 171.442 117.236C171.456 117.257 171.463 117.281 171.464 117.306C171.446 117.632 171.336 117.945 171.146 118.209C170.956 118.474 170.695 118.678 170.393 118.797C169.837 119.037 169.242 119.174 168.637 119.201C168.042 119.24 167.446 119.23 166.853 119.173C166.26 119.133 165.671 119.053 165.085 118.96C162.743 118.564 160.436 117.987 158.183 117.233C155.927 116.495 153.705 115.657 151.52 114.736C150.968 114.512 150.43 114.268 149.885 114.081C149.337 113.89 148.772 113.747 148.199 113.654C147.624 113.561 147.043 113.515 146.46 113.518C145.881 113.521 145.287 113.576 144.697 113.608L144.691 113.608C144.676 113.609 144.661 113.607 144.646 113.602C144.632 113.597 144.619 113.589 144.608 113.579C144.597 113.569 144.587 113.556 144.581 113.543C144.574 113.529 144.571 113.514 144.57 113.499C144.569 113.489 144.57 113.478 144.572 113.468C144.803 112.452 144.983 111.425 145.109 110.391C145.11 110.385 145.113 110.38 145.117 110.377C145.121 110.373 145.127 110.372 145.132 110.372C145.138 110.372 145.143 110.375 145.147 110.379C145.15 110.383 145.152 110.389 145.152 110.395C145.101 111.441 144.984 112.483 144.801 113.514L144.677 113.374C145.266 113.315 145.849 113.232 146.453 113.201C147.054 113.179 147.656 113.208 148.253 113.289C148.851 113.369 149.441 113.501 150.016 113.683C150.598 113.864 151.138 114.116 151.685 114.331C153.877 115.217 156.075 116.089 158.306 116.865C160.523 117.681 162.797 118.33 165.11 118.808C166.266 119.042 167.447 119.12 168.624 119.043C169.203 119.007 169.771 118.857 170.292 118.6C170.539 118.471 170.756 118.289 170.926 118.067C171.086 117.859 171.17 117.602 171.165 117.338L171.259 117.463C169.329 116.761 167.461 115.899 165.672 114.888C164.775 114.385 163.907 113.833 163.072 113.233C162.235 112.637 161.443 111.981 160.7 111.27C160.696 111.266 160.694 111.261 160.694 111.256C160.693 111.25 160.695 111.245 160.699 111.241C160.703 111.236 160.708 111.234 160.713 111.233C160.719 111.233 160.724 111.235 160.728 111.238ZM155.385 126.987L143.095 126.442L145.378 122.727C146.172 122.997 146.982 123.224 147.797 123.413C148.612 123.605 149.432 123.773 150.264 123.901C151.096 124.034 151.935 124.115 152.777 124.145C153.602 124.191 154.429 124.132 155.239 123.97C155.139 124.438 155.098 124.918 155.12 125.397C155.128 125.937 155.218 126.473 155.385 126.987ZM158.542 122.573L158.427 124.094L155.385 126.987C155.516 126.462 155.571 125.92 155.547 125.38C155.533 124.896 155.459 124.417 155.325 123.952L155.338 123.948L156.946 123.284C157.48 123.044 158.017 122.821 158.542 122.573Z" fill="black"/>
<path d="M185.934 126.764C182.396 129.202 170.755 127.115 166.812 124.218C165.63 123.368 164.281 122.781 162.854 122.498C161.428 122.214 159.958 122.239 158.542 122.573C157.983 122.727 157.429 122.911 156.874 123.083L155.24 123.627C154.43 123.746 153.611 123.779 152.794 123.725C151.967 123.687 151.142 123.611 150.319 123.498C149.496 123.395 148.672 123.278 147.849 123.147L145.378 122.727C143.138 119.076 144.687 113.492 144.687 113.492L145.835 113.393C147.493 113.251 149.16 113.514 150.695 114.16C171.933 123.091 171.314 117.323 171.314 117.323C185.285 121.72 189.467 124.325 185.934 126.764ZM191.052 99.9351C191.886 100.124 192.75 100.135 193.588 99.9669C193.797 99.9357 194.004 99.8894 194.207 99.8281C194.41 99.7688 194.618 99.7324 194.815 99.6554L195.404 99.4226L195.699 99.3088L195.98 99.1604C197.485 98.3758 198.836 97.3215 199.965 96.0495C200.261 95.7428 200.539 95.4187 200.798 95.0789C201.065 94.7456 201.351 94.4271 201.604 94.0819L202.348 93.0304C202.59 92.6762 202.867 92.3443 203.08 91.9682L203.762 90.8674C203.984 90.497 204.233 90.1412 204.423 89.7516C204.827 88.986 205.239 88.2217 205.629 87.4466L205.639 87.427C205.65 87.4049 205.668 87.3865 205.689 87.374C205.71 87.3615 205.735 87.3555 205.759 87.3566C206.045 87.3886 206.317 87.5002 206.543 87.6787C206.769 87.8571 206.941 88.0954 207.04 88.3668C207.141 88.6166 207.213 88.8774 207.255 89.1439C207.309 89.4039 207.337 89.6688 207.337 89.9344C207.346 90.9844 207.244 92.0325 207.032 93.0609C206.817 94.0821 206.582 95.1028 206.275 96.0992C206.008 97.1114 205.64 98.0852 205.296 99.07C204.581 101.028 203.752 102.938 202.897 104.834L202.581 105.547C202.477 105.779 202.375 105.996 202.29 106.229C202.113 106.689 201.977 107.163 201.883 107.646C201.788 108.13 201.731 108.62 201.711 109.112C201.696 109.594 201.724 110.123 201.733 110.64C201.736 110.756 201.692 110.869 201.612 110.953C201.532 111.036 201.422 111.085 201.306 111.087C201.269 111.088 201.232 111.084 201.196 111.076L199.762 110.734C199.278 110.652 198.797 110.542 198.31 110.482C197.338 110.339 196.356 110.265 195.374 110.261C194.388 110.258 193.405 110.346 192.437 110.526C191.46 110.69 190.511 110.992 189.618 111.422L189.614 111.424C189.604 111.429 189.593 111.43 189.583 111.427C189.572 111.423 189.564 111.416 189.558 111.407C189.553 111.398 189.551 111.387 189.553 111.376C189.556 111.365 189.562 111.356 189.571 111.35C190.429 110.806 191.366 110.4 192.349 110.145C193.333 109.889 194.339 109.727 195.353 109.659C195.861 109.624 196.37 109.615 196.879 109.632C197.389 109.63 197.894 109.683 198.402 109.723C198.909 109.767 199.409 109.861 199.914 109.929C200.413 110.023 200.911 110.129 201.408 110.235L200.871 110.671C200.852 110.151 200.813 109.645 200.817 109.09C200.825 108.545 200.882 108.002 200.987 107.468C201.093 106.933 201.246 106.409 201.442 105.901C201.537 105.648 201.652 105.394 201.765 105.156L202.096 104.456C202.532 103.521 202.993 102.595 203.408 101.651L204.024 100.232C204.229 99.7586 204.451 99.2917 204.633 98.8103C205.444 96.9162 206.125 94.9689 206.673 92.982C206.939 91.9918 207.073 90.9705 207.072 89.9449C207.075 89.6919 207.051 89.4394 207.002 89.1913C206.964 88.9456 206.895 88.7056 206.798 88.4768C206.698 88.26 206.556 88.0653 206.38 87.904C206.213 87.7556 206 87.67 205.777 87.6615L205.907 87.5717C205.537 88.3626 205.188 89.1643 204.832 89.9646C204.666 90.3713 204.441 90.7482 204.24 91.1382L203.622 92.3016C203.417 92.6911 203.189 93.068 202.94 93.4305L202.212 94.5349C201.954 94.8923 201.661 95.2258 201.386 95.5724C201.116 95.9231 200.823 96.2554 200.508 96.567L199.563 97.5039C199.226 97.7934 198.867 98.0596 198.52 98.3372C197.807 98.874 197.032 99.3229 196.212 99.6746L195.908 99.8133L195.589 99.9166L194.95 100.115C194.737 100.179 194.513 100.203 194.295 100.249C194.078 100.298 193.857 100.328 193.634 100.336C192.75 100.433 191.856 100.323 191.021 100.015C191.011 100.011 191.003 100.003 190.998 99.9935C190.993 99.9838 190.993 99.9727 190.996 99.9624C190.999 99.9521 191.006 99.9435 191.015 99.9381C191.025 99.9328 191.036 99.9312 191.046 99.9336L191.052 99.9351ZM212.083 102.063C212.554 102.076 213.024 102.011 213.474 101.87L212.476 112.605L209.352 110.445H209.348C209.621 109.764 209.859 109.069 210.06 108.362C210.269 107.659 210.453 106.948 210.598 106.224C210.751 105.501 210.86 104.77 210.922 104.034C210.996 103.318 210.98 102.595 210.875 101.883C211.268 101.997 211.674 102.058 212.083 102.063ZM211.093 99.0844L213.474 101.87C212.629 101.589 211.721 101.558 210.858 101.78V101.776L210.338 100.336C210.15 99.8643 209.979 99.3843 209.779 98.9173L211.093 99.0844Z" fill="black"/>
<path d="M209.804 108.298L209.348 110.445C206.079 112.253 201.304 110.655 201.304 110.655L201.266 109.648C201.214 108.189 201.514 106.739 202.14 105.422C210.798 87.2181 205.767 87.5095 205.767 87.5095C210.184 75.4676 212.621 71.9193 214.588 75.1162C216.551 78.3174 214.246 88.418 211.558 91.7478C210.769 92.7461 210.202 93.9025 209.895 95.1391C209.589 96.3757 209.549 97.6639 209.779 98.9172C209.881 99.4143 210.018 99.9072 210.133 100.404L210.53 101.857C210.596 102.569 210.587 103.286 210.504 103.995C210.436 104.715 210.333 105.435 210.205 106.151C210.082 106.867 209.949 107.582 209.804 108.298ZM31.7584 68.5996C31.0921 72.0507 30.3867 75.4939 29.5814 78.9179C29.3801 79.7741 29.1756 80.6295 28.954 81.4831C28.7475 82.3548 28.4889 83.2132 28.1796 84.0537C27.4113 85.6475 26.6628 87.2143 25.9534 88.8211C24.5214 92.0187 23.2327 95.2778 22.0097 98.5572C21.7081 99.3788 21.4168 100.204 21.1357 101.032C20.8408 101.856 20.6129 102.71 20.2918 103.529L18.4245 108.463L18.4209 108.473C18.4044 108.516 18.3767 108.554 18.3407 108.584C18.3047 108.613 18.2615 108.632 18.2158 108.639C17.4165 108.762 16.6111 108.841 15.8031 108.876C14.9787 108.948 14.1483 108.856 13.3592 108.606C12.6243 108.316 11.8709 108.076 11.1041 107.888C10.7554 107.791 10.3846 107.81 10.0479 107.943C9.98091 107.983 9.92265 108.036 9.87653 108.099C9.83041 108.162 9.79738 108.234 9.77939 108.31C9.74599 108.485 9.74658 108.665 9.78111 108.841C9.86007 109.218 9.99241 109.582 10.1741 109.922C10.2194 110.008 10.2654 110.094 10.3144 110.178L10.389 110.3L10.4194 110.347C10.4209 110.349 10.4178 110.347 10.4229 110.353C10.5449 110.402 10.3557 110.681 10.3739 110.599L10.36 110.604L10.3347 110.611L10.2889 110.619L9.68819 110.692C8.89631 110.781 8.10695 110.882 7.32195 111.009C6.53813 111.131 5.76245 111.301 4.99921 111.518C4.62213 111.623 4.25425 111.759 3.89923 111.925C3.56632 112.088 3.19492 112.321 3.1396 112.617C3.13427 112.645 3.12091 112.672 3.10112 112.693C3.08133 112.714 3.05594 112.729 3.02797 112.736C2.6873 112.82 2.35365 112.931 2.02998 113.067C1.70983 113.194 1.41025 113.368 1.14107 113.584C1.01375 113.669 0.911813 113.788 0.845994 113.927C0.780175 114.066 0.752907 114.221 0.767063 114.374C0.857749 114.687 1.04662 114.963 1.30567 115.16C1.33294 115.185 1.35154 115.218 1.3587 115.254C1.36585 115.29 1.36118 115.327 1.34537 115.361L1.34188 115.368C1.17294 115.692 1.10179 116.058 1.13716 116.422C1.17125 116.584 1.25397 116.733 1.37426 116.847C1.49456 116.961 1.64672 117.036 1.81042 117.061C2.58006 117.149 3.35887 117.107 4.11467 116.937C5.69388 116.704 7.24882 116.326 8.88247 116.178C9.29519 116.14 9.71009 116.133 10.1239 116.156C10.5499 116.181 10.9489 116.253 11.3406 116.306C12.1304 116.419 12.9196 116.519 13.711 116.597C15.2893 116.759 16.8768 116.811 18.4623 116.753C20.033 116.707 21.5928 116.475 23.1089 116.059C23.4789 115.949 23.8492 115.81 24.2031 115.683C24.5276 115.546 24.8248 115.352 25.0805 115.109C25.3366 114.864 25.5496 114.578 25.7106 114.262C25.8689 113.926 25.9855 113.573 26.0577 113.209C26.8576 110.073 27.854 106.991 29.041 103.982C30.2126 100.968 31.5432 98.0199 33.0271 95.1488C34.5299 92.2878 36.1977 89.5173 38.0217 86.8513C39.8238 84.1971 41.6107 81.5306 43.2536 78.7756C44.0674 77.3948 44.868 76.0039 45.5832 74.57C45.9444 73.8546 46.276 73.1259 46.578 72.3836C46.7195 72.0097 46.86 71.635 46.9731 71.2516C47.0973 70.8764 47.1677 70.4853 47.1821 70.0902L47.1818 70.0783C47.1816 70.0673 47.1857 70.0566 47.1932 70.0486C47.2007 70.0405 47.2111 70.0357 47.222 70.0352C47.233 70.0347 47.2438 70.0385 47.252 70.0459C47.2602 70.0532 47.2652 70.0635 47.266 70.0745C47.2716 70.4846 47.2167 70.8932 47.1032 71.2872C47.0046 71.6804 46.8784 72.0644 46.7508 72.4484C46.4767 73.2084 46.1728 73.9563 45.8393 74.6921C45.5112 75.4301 45.1519 76.1519 44.7925 76.8744C44.4147 77.586 44.043 78.3025 43.645 79.003C42.068 81.8144 40.3707 84.5549 38.5951 87.2409C36.8362 89.9144 35.2305 92.6865 33.7861 95.5437C32.3272 98.3926 31.0204 101.317 29.8712 104.306C29.2909 105.797 28.7606 107.308 28.2612 108.828C27.7562 110.346 27.2921 111.879 26.885 113.424C26.7932 113.848 26.6503 114.26 26.4596 114.65C26.2512 115.05 25.9767 115.411 25.6479 115.719C25.3168 116.027 24.9331 116.273 24.5152 116.444C24.115 116.585 23.7314 116.724 23.3331 116.839C21.7509 117.259 20.1236 117.485 18.4871 117.512C16.8678 117.543 15.2483 117.462 13.6402 117.269C12.8384 117.175 12.0386 117.064 11.2448 116.931C10.8445 116.865 10.4546 116.787 10.0809 116.756C9.69502 116.725 9.30736 116.722 8.92103 116.747C7.35609 116.847 5.7737 117.18 4.17797 117.381C3.77636 117.431 3.38449 117.487 2.97225 117.516C2.54967 117.561 2.12263 117.536 1.70813 117.442C1.60208 117.405 1.49649 117.361 1.39184 117.319C1.28945 117.26 1.19261 117.192 1.10248 117.115C0.929291 116.944 0.815121 116.722 0.776713 116.482C0.735893 116.039 0.829124 115.595 1.04419 115.206L1.08034 115.414C0.770768 115.161 0.551017 114.815 0.454018 114.426C0.41917 114.213 0.455636 113.994 0.557726 113.804C0.655121 113.628 0.785616 113.473 0.941945 113.347C1.23667 113.114 1.56454 112.925 1.91467 112.789C2.25526 112.649 2.60622 112.536 2.96433 112.451L2.85286 112.569C2.90729 112.338 3.0443 112.134 3.23801 111.997C3.40503 111.868 3.58607 111.759 3.77766 111.671C4.14799 111.501 4.53146 111.363 4.92427 111.256C5.70067 111.035 6.49045 110.891 7.27868 110.749C8.06788 110.612 8.86107 110.502 9.65393 110.403L10.2409 110.326L10.2686 110.321C10.2662 110.322 10.2637 110.322 10.2613 110.323L10.2564 110.326C10.2778 110.242 10.0897 110.518 10.2139 110.564L10.1948 110.541C10.1753 110.517 10.1571 110.491 10.1403 110.464L10.0573 110.331C10.0043 110.243 9.9548 110.153 9.9061 110.062C9.70585 109.697 9.55915 109.305 9.47052 108.897C9.42552 108.679 9.42398 108.453 9.46599 108.234C9.49342 108.115 9.54423 108.003 9.61545 107.904C9.68666 107.806 9.77684 107.722 9.88067 107.659C10.0808 107.547 10.3067 107.491 10.5355 107.495C10.7462 107.492 10.9568 107.51 11.1642 107.547C11.9533 107.717 12.7301 107.939 13.4892 108.214C14.233 108.425 15.0111 108.487 15.7787 108.396C16.5645 108.34 17.3467 108.241 18.1218 108.1L17.9132 108.276L19.6424 103.307C20.1905 101.645 20.7046 99.9574 21.3122 98.3026C22.4853 94.9792 23.8685 91.7377 25.3262 88.5354C26.0546 86.939 26.8276 85.3399 27.6129 83.7871C27.9274 82.986 28.1956 82.1674 28.4164 81.3354C28.658 80.4946 28.884 79.6471 29.1068 78.7989C29.9857 75.402 30.8331 71.9922 31.675 68.5813C31.6776 68.5704 31.6844 68.5609 31.6939 68.555C31.7033 68.549 31.7147 68.5471 31.7256 68.5495C31.7365 68.5518 31.7461 68.5584 31.7522 68.5678C31.7583 68.5772 31.7605 68.5886 31.7584 68.5996Z" fill="black"/>
<path d="M14.2413 110.433L10.3199 110.673C10.2919 110.675 10.2638 110.671 10.2373 110.662C10.2107 110.653 10.1862 110.638 10.1652 110.62C10.1441 110.601 10.127 110.578 10.1147 110.553C10.1024 110.528 10.0951 110.5 10.0934 110.472C10.0917 110.444 10.0956 110.416 10.1047 110.389C10.1139 110.362 10.1282 110.338 10.1468 110.317C10.1654 110.295 10.188 110.278 10.2133 110.266C10.2385 110.254 10.266 110.246 10.294 110.245C10.3017 110.244 10.3095 110.244 10.3172 110.245L14.2413 110.433ZM1.13112 115.082C2.42193 114.745 3.73096 114.482 5.05175 114.296C6.36736 114.097 7.69929 114.03 9.02809 114.095C7.70393 114.101 6.38365 114.239 5.0866 114.507C3.79179 114.762 2.51257 115.091 1.25523 115.492L1.25023 115.494C1.19634 115.511 1.13788 115.506 1.08765 115.48C1.03743 115.454 0.999549 115.409 0.982322 115.355C0.965095 115.301 0.969927 115.242 0.995758 115.191C1.02159 115.141 1.06631 115.103 1.12011 115.085L1.13112 115.082ZM2.96926 112.381L7.41227 112.025L3.02343 112.806C2.99577 112.811 2.96739 112.81 2.93992 112.804C2.91245 112.798 2.88644 112.787 2.86337 112.771C2.8403 112.754 2.82063 112.734 2.80549 112.71C2.79035 112.686 2.78004 112.66 2.77514 112.632C2.77024 112.604 2.77085 112.576 2.77694 112.548C2.78304 112.52 2.79449 112.494 2.81064 112.471C2.82679 112.448 2.84733 112.428 2.87107 112.413C2.89481 112.398 2.92129 112.388 2.949 112.383C2.95567 112.382 2.96265 112.381 2.96926 112.381ZM18.3652 108.453L17.36 110.273L17.9728 108.285C17.9811 108.258 17.9946 108.233 18.0126 108.211C18.0306 108.189 18.0527 108.171 18.0776 108.158C18.1025 108.145 18.1298 108.137 18.1579 108.134C18.186 108.132 18.2143 108.134 18.2412 108.143C18.2681 108.151 18.2932 108.165 18.3149 108.183C18.3365 108.201 18.3545 108.223 18.3676 108.248C18.3807 108.273 18.3888 108.301 18.3914 108.329C18.3939 108.357 18.3909 108.386 18.3826 108.413C18.3781 108.427 18.3723 108.44 18.3652 108.453ZM59.7397 72.4015C59.5271 77.489 58.829 82.5443 57.6549 87.4979C57.0439 89.9651 56.3267 92.4028 55.7151 94.8528C55.0912 97.2933 54.6725 99.7822 54.4635 102.293C54.3669 103.55 54.3007 104.803 54.2525 106.074C54.1881 107.345 54.1841 108.603 53.992 109.916C53.9413 110.262 53.8444 110.601 53.7039 110.921C53.5444 111.263 53.3013 111.558 52.9972 111.779C52.4461 112.136 51.8631 112.44 51.2559 112.689C50.6794 112.949 50.1384 113.232 49.5518 113.514C48.9719 113.788 48.3848 114.037 47.7946 114.274C45.4313 115.215 43.0233 115.996 40.621 116.784C39.4227 117.18 38.2102 117.557 37.05 118.023C36.9093 118.08 36.7715 118.144 36.6372 118.214C36.5786 118.243 36.525 118.281 36.4787 118.327C36.4245 118.38 36.3719 118.435 36.3208 118.491C36.1152 118.714 35.9391 118.963 35.7967 119.231C35.6512 119.478 35.5882 119.765 35.617 120.05C35.6476 120.183 35.7098 120.307 35.7981 120.41C35.8865 120.514 35.9985 120.595 36.1245 120.646C36.1414 120.654 36.1564 120.665 36.1689 120.679C36.1813 120.693 36.1909 120.71 36.197 120.727C36.2032 120.745 36.2058 120.764 36.2047 120.783C36.2036 120.801 36.1988 120.82 36.1907 120.837L36.1871 120.844L36.1851 120.847C36.0434 121.101 35.9354 121.372 35.8638 121.654C35.7849 121.921 35.7859 122.206 35.8668 122.472C35.9167 122.596 35.9944 122.706 36.0938 122.794C36.1933 122.882 36.3117 122.946 36.4398 122.98C36.7159 123.064 37.0049 123.099 37.293 123.081C37.3155 123.081 37.3377 123.086 37.3575 123.097C37.3774 123.107 37.3941 123.123 37.4062 123.142C37.4183 123.161 37.4252 123.183 37.4264 123.205C37.4276 123.228 37.423 123.25 37.413 123.27L37.4108 123.274C37.2264 123.628 37.1024 124.009 37.044 124.404C36.999 124.58 37.0072 124.767 37.0676 124.939C37.1279 125.111 37.2377 125.261 37.3831 125.37C37.7291 125.537 38.1182 125.592 38.4967 125.528C38.8981 125.479 39.2943 125.395 39.6808 125.277C40.4596 125.06 41.2141 124.696 41.9805 124.397L44.2669 123.447C44.3024 123.433 44.3416 123.43 44.3788 123.439C44.4159 123.449 44.4491 123.47 44.4734 123.5C44.4976 123.529 44.5116 123.566 44.5134 123.605C44.5151 123.643 44.5045 123.681 44.483 123.713L44.4789 123.719C44.2335 124.078 44.0142 124.455 43.8227 124.846C43.6265 125.22 43.4934 125.624 43.4287 126.042C43.4021 126.219 43.4296 126.401 43.5074 126.562C43.553 126.631 43.6123 126.689 43.6814 126.734C43.7505 126.778 43.828 126.808 43.9091 126.82C44.3109 126.885 44.7222 126.851 45.1082 126.722C45.9351 126.449 46.733 126.095 47.4901 125.664C48.2627 125.244 49.0204 124.789 49.7714 124.321C51.2777 123.387 52.7399 122.392 54.297 121.484C54.697 121.245 55.1196 121.046 55.5587 120.89C56.0249 120.716 56.5236 120.649 57.0187 120.694C57.953 120.866 58.834 121.255 59.5906 121.832C61.0596 122.811 62.5438 123.796 64.1607 124.28C64.9004 124.557 65.7181 124.535 66.4423 124.22C66.6022 124.133 66.7492 124.023 66.8789 123.895C67.0102 123.767 67.1243 123.622 67.2184 123.465C67.2985 123.35 67.3357 123.21 67.3236 123.071C67.3115 122.931 67.2508 122.8 67.1521 122.701C66.8856 122.41 66.5746 122.163 66.2307 121.97C65.8676 121.746 65.4799 121.535 65.0893 121.311C64.6818 121.086 64.2908 120.832 63.9191 120.551C63.511 120.243 63.1784 119.846 62.9465 119.39C62.575 118.521 62.3552 117.595 62.2967 116.651C62.1891 115.787 62.0804 114.889 61.6224 114.4L61.6196 114.397C61.566 114.34 61.5285 114.269 61.5108 114.193C61.4931 114.116 61.4959 114.036 61.5189 113.961L64.6598 103.748L67.8803 93.5589C68.9506 90.1616 70.0602 86.7765 71.165 83.39C72.2697 80.0034 73.4159 76.6302 74.6037 73.2703C74.6075 73.2596 74.6154 73.2509 74.6256 73.246C74.6359 73.2412 74.6476 73.2406 74.6582 73.2444C74.6687 73.2483 74.6772 73.2561 74.6821 73.2662C74.6869 73.2763 74.6877 73.2879 74.6843 73.2985C73.6034 76.6909 72.6273 80.1175 71.5935 83.5253L68.5382 93.7638L65.4757 104L62.3693 114.222L62.2659 113.784C62.6115 114.178 62.8501 114.655 62.9584 115.169C63.0617 115.621 63.1384 116.078 63.1879 116.539C63.2399 117.377 63.431 118.201 63.7533 118.976C63.9218 119.319 64.1684 119.617 64.4731 119.846C64.809 120.103 65.1625 120.336 65.531 120.543C65.9084 120.765 66.2994 120.981 66.6906 121.227C67.1192 121.475 67.5036 121.793 67.828 122.168C68.0233 122.406 68.1438 122.697 68.174 123.004C68.1915 123.313 68.1153 123.62 67.9555 123.885C67.8215 124.11 67.6581 124.316 67.4695 124.498C67.2815 124.681 67.0686 124.837 66.8373 124.96C66.3797 125.198 65.8692 125.314 65.3543 125.298C64.8726 125.287 64.3947 125.208 63.9347 125.064C62.1394 124.505 60.6331 123.465 59.165 122.471C58.5132 121.953 57.7513 121.593 56.9385 121.418C56.5468 121.379 56.1513 121.428 55.7813 121.563C55.3814 121.698 54.996 121.874 54.6307 122.086C53.1051 122.945 51.6123 123.928 50.0752 124.826C49.3078 125.28 48.5315 125.722 47.7345 126.132C46.9366 126.561 46.0979 126.91 45.2309 127.172C44.7683 127.314 44.2778 127.34 43.8028 127.247C43.6658 127.218 43.5361 127.161 43.4218 127.08C43.3076 126.998 43.2112 126.894 43.1387 126.774C43.0198 126.533 42.9784 126.261 43.02 125.995C43.098 125.532 43.253 125.085 43.4787 124.673C43.687 124.268 43.9244 123.879 44.1888 123.509L44.4008 123.78L42.0944 124.692C41.321 124.987 40.5784 125.341 39.7623 125.563C39.3581 125.684 38.9439 125.768 38.5247 125.815C38.083 125.885 37.6307 125.812 37.2333 125.606C37.0285 125.477 36.8788 125.276 36.8132 125.043C36.7553 124.823 36.7429 124.595 36.7766 124.37C36.8419 123.943 36.979 123.53 37.1822 123.15L37.2999 123.343C36.9815 123.357 36.6629 123.318 36.3573 123.227C36.1919 123.181 36.0392 123.098 35.9107 122.984C35.7823 122.87 35.6815 122.728 35.6162 122.569C35.5123 122.252 35.5046 121.911 35.594 121.589C35.669 121.28 35.7846 120.981 35.9377 120.702L35.9984 120.904C35.831 120.834 35.6826 120.725 35.5657 120.586C35.4488 120.447 35.3667 120.282 35.3262 120.104C35.2813 119.754 35.351 119.399 35.5247 119.092C35.6765 118.798 35.8655 118.525 36.0871 118.28C36.1416 118.218 36.1978 118.158 36.2563 118.1C36.3225 118.034 36.3979 117.979 36.4802 117.935C36.6246 117.857 36.773 117.786 36.9248 117.723C38.1091 117.241 39.3047 116.842 40.4947 116.411C42.8756 115.564 45.2594 114.721 47.5729 113.736C48.1497 113.487 48.7213 113.229 49.2782 112.949C49.8242 112.67 50.3976 112.353 50.9674 112.079C51.5236 111.833 52.0599 111.543 52.5713 111.212C52.7817 111.06 52.9489 110.855 53.0565 110.618C53.1667 110.355 53.2419 110.08 53.2799 109.797C53.4481 108.596 53.4497 107.308 53.5023 106.046C53.5389 104.78 53.5941 103.498 53.7129 102.227C53.9492 99.6795 54.3979 97.1566 55.0544 94.6846C55.6936 92.2169 56.4262 89.7911 57.1053 87.3513C57.7588 84.9088 58.2836 82.4333 58.6773 79.9353C59.0961 77.4376 59.4128 74.9204 59.6545 72.3963C59.6553 72.3849 59.6606 72.3744 59.6691 72.3669C59.6776 72.3594 59.6888 72.3557 59.7001 72.3564C59.7111 72.3575 59.7214 72.3627 59.7287 72.3711C59.7361 72.3795 59.74 72.3903 59.7397 72.4015Z" fill="black"/>
<path d="M35.9916 120.627L43.0785 117.433L36.1309 120.922C36.1118 120.932 36.091 120.938 36.0696 120.939C36.0483 120.941 36.0269 120.938 36.0066 120.932C35.9863 120.925 35.9675 120.914 35.9513 120.9C35.9351 120.886 35.9219 120.869 35.9123 120.85C35.9027 120.83 35.897 120.809 35.8955 120.788C35.894 120.767 35.8968 120.745 35.9035 120.725C35.9103 120.704 35.9211 120.685 35.9351 120.669C35.9492 120.653 35.9663 120.64 35.9854 120.63L35.9916 120.627ZM37.215 123.071L45.9099 118.221L37.3776 123.353C37.3406 123.376 37.2963 123.382 37.2546 123.372C37.2128 123.361 37.1769 123.334 37.1548 123.297C37.1327 123.26 37.1261 123.216 37.1365 123.174C37.147 123.132 37.1735 123.096 37.2104 123.073L37.215 123.071ZM44.2234 123.494L49.0596 119.235L44.4439 123.734C44.413 123.764 44.3713 123.781 44.3282 123.78C44.2851 123.779 44.244 123.762 44.2139 123.731C44.1839 123.699 44.1674 123.658 44.168 123.614C44.1687 123.571 44.1864 123.53 44.2174 123.5L44.2234 123.494ZM153.774 36.741C154.211 35.8059 154.987 35.0738 155.943 34.6947C156.908 34.3387 157.947 34.23 158.965 34.3785C160.973 34.6397 162.918 35.1901 164.878 35.5749C165.363 35.6775 165.853 35.7556 166.346 35.809C166.824 35.8751 167.31 35.8584 167.782 35.7595C167.892 35.7273 168 35.6892 168.106 35.6452C168.208 35.5979 168.293 35.5254 168.389 35.4689C168.498 35.3945 168.609 35.3062 168.726 35.238C168.846 35.1751 168.971 35.1211 169.099 35.0764C169.606 34.9311 170.139 34.901 170.659 34.9883C171.657 35.1622 172.638 35.4206 173.593 35.7609L176.445 36.741C175.469 36.4984 174.506 36.2054 173.538 35.9395C172.587 35.6388 171.613 35.4181 170.626 35.2795C170.15 35.2191 169.666 35.2562 169.204 35.3885C169.096 35.4279 168.991 35.4747 168.889 35.5285C168.791 35.5886 168.705 35.6603 168.606 35.7272C168.494 35.8101 168.376 35.8857 168.254 35.9534C168.129 36.0083 168.001 36.0556 167.87 36.0948C167.359 36.2104 166.832 36.2363 166.313 36.1715C165.806 36.1232 165.303 36.0487 164.804 35.9482C162.829 35.5271 160.895 34.9861 158.925 34.6674C157.952 34.4913 156.95 34.5602 156.009 34.868C155.059 35.1928 154.263 35.8602 153.774 36.741ZM18.8837 4.88307C19.32 3.94796 20.0958 3.21583 21.0523 2.83673C22.0176 2.48077 23.0561 2.3721 24.0738 2.52055C26.0826 2.7818 28.0273 3.33212 29.987 3.71701C30.4721 3.81958 30.9619 3.8977 31.4548 3.95105C31.9331 4.01721 32.4191 4.00047 32.8917 3.90157C33.0015 3.86939 33.1095 3.83121 33.2152 3.78722C33.3176 3.73993 33.4022 3.66742 33.4985 3.61092C33.6077 3.53654 33.7184 3.44823 33.8349 3.38002C33.9554 3.3172 34.0803 3.26321 34.2086 3.21848C34.7156 3.07314 35.2485 3.04308 35.7685 3.13049C36.7663 3.30432 37.7477 3.56276 38.7021 3.90303L41.554 4.88304C40.5781 4.64062 39.6156 4.34747 38.6476 4.08163C37.6967 3.78093 36.7225 3.56014 35.7352 3.42156C35.2589 3.36117 34.7753 3.39825 34.3136 3.53058C34.2054 3.56995 34.1001 3.61673 33.9983 3.67057C33.8999 3.73073 33.8141 3.8024 33.7157 3.86925C33.6033 3.95221 33.4856 4.02781 33.3635 4.09558C33.2385 4.15044 33.1103 4.19764 32.9797 4.23691C32.4687 4.35246 31.9417 4.3784 31.422 4.3136C30.9156 4.26528 30.412 4.19075 29.9133 4.09033C27.9384 3.66922 26.004 3.12821 24.0345 2.80952C23.0609 2.6334 22.0591 2.70231 21.1185 3.01009C20.1683 3.33486 19.3719 4.0023 18.8837 4.88307ZM0.94458 67.9039C1.38081 66.9688 2.15667 66.2367 3.11313 65.8576C4.07849 65.5016 5.11696 65.3929 6.13466 65.5413C8.14346 65.8027 10.0881 66.353 12.0479 66.7379C12.5329 66.8405 13.0228 66.9186 13.5156 66.9719C13.9939 67.038 14.4799 67.0213 14.9525 66.9225C15.0624 66.8902 15.1704 66.852 15.2761 66.808C15.3784 66.7608 15.463 66.6882 15.5594 66.6318C15.6685 66.5574 15.7792 66.4691 15.8957 66.4009C16.0163 66.338 16.1412 66.284 16.2695 66.2394C16.7765 66.094 17.3093 66.0639 17.8293 66.1512C18.8272 66.3251 19.8086 66.5836 20.763 66.9239L23.6148 67.9039C22.639 67.6614 21.6765 67.3682 20.7084 67.1025C19.7576 66.8017 18.7834 66.581 17.7961 66.4424C17.3197 66.382 16.8361 66.4191 16.3745 66.5514C16.2663 66.5908 16.1609 66.6376 16.0591 66.6914C15.9607 66.7516 15.875 66.8233 15.7766 66.89C15.6642 66.9731 15.5465 67.0486 15.4244 67.1163C15.2994 67.1713 15.1712 67.2185 15.0405 67.2577C14.5296 67.3733 14.0026 67.3993 13.4828 67.3345C12.9764 67.2861 12.4729 67.2116 11.9742 67.1111C9.99921 66.6901 8.06486 66.1491 6.09539 65.8304C5.1218 65.6543 4.11993 65.7232 3.17934 66.031C2.2291 66.3557 1.43273 67.0231 0.94458 67.9039ZM94.4756 21.4513C94.9118 20.5162 95.6877 19.784 96.6441 19.4049C97.6095 19.049 98.648 18.9403 99.6656 19.0888C101.674 19.35 103.619 19.9003 105.579 20.2852C106.064 20.3878 106.554 20.4659 107.047 20.5193C107.525 20.5854 108.011 20.5686 108.484 20.4698C108.593 20.4376 108.701 20.3994 108.807 20.3553C108.909 20.3081 108.994 20.2356 109.09 20.1791C109.2 20.1048 109.31 20.0165 109.427 19.9482C109.547 19.8854 109.672 19.8314 109.8 19.7867C110.307 19.6414 110.84 19.6113 111.36 19.6986C112.358 19.8724 113.34 20.1309 114.294 20.4712L117.146 21.4512C116.17 21.2087 115.207 20.9156 114.239 20.6498C113.289 20.3491 112.314 20.1283 111.327 19.9898C110.851 19.9294 110.367 19.9665 109.905 20.0988C109.797 20.1381 109.692 20.1849 109.59 20.2388C109.492 20.2989 109.406 20.3706 109.308 20.4375C109.195 20.5204 109.078 20.596 108.955 20.6637C108.83 20.7186 108.702 20.7658 108.572 20.805C108.061 20.9206 107.534 20.9466 107.014 20.8818C106.507 20.8335 106.004 20.7589 105.505 20.6585C103.53 20.2374 101.596 19.6964 99.6264 19.3777C98.6528 19.2016 97.6509 19.2705 96.7103 19.5783C95.7601 19.903 94.9637 20.5705 94.4756 21.4513ZM178.23 5.1101C173.793 5.1101 170.09 1.50687 170.042 1.45915L169.811 1.23065L170.112 1.10845C177.746 -1.9993 182.395 3.54158 182.441 3.59766L182.596 3.78765L182.388 3.91613C181.141 4.69875 179.7 5.11257 178.23 5.1101ZM170.589 1.38089C171.765 2.42043 176.941 6.55223 181.942 3.68344C181.077 2.77615 176.949 -1.0309 170.589 1.38089Z" fill="black"/>
<path d="M176.234 2.63684C177.841 2.89265 179.444 3.17032 181.043 3.47969C181.842 3.63631 182.64 3.79712 183.435 3.9845C183.833 4.07772 184.23 4.17387 184.625 4.28864C185.035 4.39395 185.434 4.53876 185.816 4.72106C185.841 4.73359 185.864 4.75095 185.882 4.77216C185.9 4.79336 185.914 4.81799 185.923 4.84464C185.932 4.87128 185.936 4.89943 185.934 4.92746C185.932 4.95549 185.924 4.98287 185.912 5.00802C185.899 5.03317 185.882 5.0556 185.861 5.07404C185.84 5.09248 185.815 5.10656 185.789 5.11548C185.762 5.1244 185.734 5.12799 185.706 5.12603C185.678 5.12408 185.651 5.11662 185.626 5.10409L185.623 5.10252L185.598 5.08955C184.878 4.75372 184.127 4.48795 183.356 4.29587C182.576 4.07554 181.787 3.8802 180.997 3.68916C179.417 3.31063 177.829 2.95986 176.234 2.63684ZM20.7464 40.8483C19.1009 40.8381 17.4677 40.5629 15.9091 40.0331L15.6057 39.9175L15.8312 39.6836C21.5623 33.7381 28.0448 36.9174 28.1094 36.9509L28.3282 37.0613L28.189 37.2639C26.2304 40.1159 23.2696 40.8483 20.7464 40.8483ZM16.3771 39.7393C17.8722 40.2118 24.2701 41.8878 27.6877 37.2316C26.5317 36.7533 21.2218 34.9504 16.3771 39.7393Z" fill="black"/>
<path d="M22.0461 38.5942C23.6183 38.1754 25.1973 37.781 26.783 37.4112C27.5769 37.2298 28.3719 37.0524 29.1744 36.9008C29.5757 36.8245 29.9774 36.7511 30.3855 36.6954C30.8027 36.6251 31.2257 36.5955 31.6486 36.607C31.7048 36.6099 31.7576 36.635 31.7955 36.6769C31.8333 36.7188 31.8531 36.774 31.8505 36.8305C31.848 36.887 31.8232 36.9402 31.7817 36.9784C31.7402 37.0166 31.6853 37.0368 31.6291 37.0345L31.6256 37.0343L31.5979 37.0324C30.8036 37.0181 30.0097 37.0802 29.2272 37.2178C28.4253 37.3331 27.6252 37.475 26.8262 37.6211C25.2282 37.9171 23.6349 38.2448 22.0461 38.5942ZM190.166 6.45666C192.013 6.61707 193.845 6.9164 195.647 7.35214C197.465 7.77057 199.22 8.4261 200.868 9.30201C201.704 9.74821 202.458 10.335 203.096 11.037C203.75 11.7588 204.161 12.6693 204.27 13.639C204.289 13.8807 204.278 14.1248 204.277 14.3671C204.241 14.6057 204.214 14.848 204.168 15.0834C204.067 15.5516 203.919 16.0085 203.728 16.4475C203.527 16.8982 203.239 17.3047 202.882 17.6433C202.509 17.9845 202.047 18.212 201.551 18.2991C200.581 18.4243 199.596 18.2355 198.74 17.7602C197.882 17.3131 197.167 16.6317 196.678 15.7944C196.193 14.9616 195.93 14.0172 195.915 13.0526C195.899 12.088 196.132 11.1356 196.59 10.2876C197.069 9.46099 197.737 8.76038 198.539 8.24321C199.32 7.73165 200.143 7.28854 200.999 6.91878C202.712 6.20228 204.494 5.66233 206.315 5.30725C204.519 5.74153 202.768 6.34524 201.085 7.11034C199.453 7.90443 197.726 8.82304 196.878 10.4444C196.465 11.2444 196.261 12.1363 196.284 13.0371C196.308 13.9378 196.558 14.818 197.012 15.5953C197.468 16.3645 198.132 16.9886 198.926 17.3956C199.704 17.8215 200.595 17.9904 201.474 17.8781C201.895 17.8083 202.287 17.6187 202.604 17.3318C202.922 17.0326 203.179 16.6734 203.359 16.2747C203.743 15.4636 203.923 14.5701 203.883 13.6728C203.788 12.7826 203.415 11.9454 202.819 11.2801C202.209 10.6057 201.495 10.0338 200.705 9.58638C199.097 8.68984 197.379 8.00676 195.595 7.55427C193.812 7.06517 191.999 6.69846 190.166 6.45666ZM28.8092 106.215C29.3224 106.298 29.8281 106.422 30.3213 106.587C30.8388 106.743 31.3301 106.976 31.7787 107.279C31.909 107.371 32.0256 107.482 32.1249 107.607C32.1896 107.691 32.2385 107.785 32.2689 107.886C32.3111 108.016 32.311 108.155 32.2686 108.285C32.1903 108.493 32.0354 108.664 31.8358 108.761C31.6985 108.836 31.5533 108.894 31.4028 108.936C30.8768 109.071 30.3337 109.127 29.7913 109.102C28.7568 109.03 27.7269 108.902 26.7059 108.72C25.6895 108.574 24.6692 108.472 23.6449 108.354C22.6169 108.25 21.5971 108.077 20.5926 107.834C19.5746 107.608 18.5768 107.299 17.6092 106.909C17.108 106.701 16.6303 106.44 16.1842 106.131C16.0625 106.041 15.9483 105.942 15.8426 105.834C15.7039 105.7 15.5994 105.535 15.538 105.352C15.4989 105.219 15.5004 105.077 15.5423 104.944C15.582 104.822 15.6533 104.713 15.7489 104.628C15.8842 104.514 16.0416 104.429 16.211 104.379C16.4803 104.3 16.7584 104.256 17.0387 104.246C17.3025 104.231 17.5671 104.231 17.8309 104.246C18.3494 104.274 18.8654 104.338 19.3755 104.436L19.3712 104.521C18.8581 104.568 18.3488 104.614 17.8491 104.684C17.3697 104.733 16.8985 104.843 16.4466 105.011C16.3724 105.042 16.3052 105.087 16.249 105.145C16.2326 105.192 16.2696 105.115 16.2632 105.12C16.3006 105.173 16.3454 105.221 16.3962 105.262C16.4766 105.33 16.5622 105.391 16.6521 105.446C17.0683 105.689 17.5044 105.896 17.9558 106.064C18.8777 106.429 19.832 106.763 20.8001 107.055C21.7716 107.336 22.747 107.621 23.7312 107.893C24.7143 108.167 25.72 108.352 26.7362 108.444C27.7485 108.506 28.764 108.487 29.7734 108.389C30.2537 108.362 30.7314 108.3 31.2028 108.204C31.3003 108.182 31.3951 108.149 31.4856 108.106C31.5653 108.071 31.596 108.024 31.5813 108.053C31.5738 108.093 31.599 108.08 31.5583 108.011C31.5041 107.931 31.4388 107.858 31.3644 107.797C30.9847 107.492 30.575 107.227 30.1417 107.006L28.7823 106.297L28.8092 106.215Z" fill="black"/>
<path d="M29.7689 103.327C30.2869 103.408 30.7977 103.529 31.2969 103.69C31.815 103.844 32.3112 104.065 32.773 104.346C32.8995 104.429 33.0184 104.523 33.1283 104.627C33.2792 104.768 33.382 104.953 33.422 105.156C33.4394 105.297 33.4125 105.441 33.3451 105.566C33.2886 105.667 33.2113 105.756 33.1182 105.825C32.9818 105.927 32.8295 106.006 32.6677 106.058C32.1374 106.218 31.5843 106.288 31.0311 106.264C29.9861 106.199 28.9456 106.076 27.9142 105.895C26.8879 105.751 25.8583 105.648 24.8245 105.53C23.787 105.426 22.7578 105.251 21.744 105.007C20.7166 104.78 19.7095 104.468 18.733 104.075C18.2269 103.866 17.7447 103.602 17.2948 103.289C17.1719 103.197 17.0567 103.095 16.9504 102.985C16.8081 102.845 16.7048 102.671 16.6507 102.478C16.6157 102.341 16.6261 102.195 16.6802 102.064C16.702 102.001 16.7357 101.942 16.7795 101.892C16.813 101.845 16.8534 101.803 16.8994 101.769C17.0369 101.661 17.1945 101.581 17.3629 101.534C17.8968 101.406 18.4477 101.364 18.9948 101.41C19.5179 101.44 20.0384 101.505 20.5528 101.604L20.5484 101.69C20.0305 101.735 19.5163 101.779 19.0116 101.848C18.5264 101.896 18.049 102.004 17.5902 102.17C17.5113 102.2 17.4394 102.246 17.3787 102.305C17.3499 102.357 17.3933 102.294 17.3875 102.286C17.423 102.335 17.4641 102.379 17.51 102.419C17.5901 102.487 17.6754 102.55 17.765 102.605C18.1843 102.851 18.6241 103.061 19.0795 103.23C20.01 103.599 20.9736 103.934 21.9509 104.228C22.9316 104.51 23.9164 104.797 24.9103 105.069C25.9029 105.344 26.9182 105.528 27.9438 105.619C28.965 105.679 29.9894 105.657 31.0071 105.551C31.4863 105.523 31.962 105.451 32.4285 105.338C32.5142 105.315 32.596 105.28 32.6711 105.233C32.7238 105.187 32.6957 105.218 32.7024 105.245C32.6862 105.193 32.6593 105.146 32.6234 105.106C32.5511 105.026 32.4724 104.953 32.388 104.886C31.5465 104.324 30.662 103.83 29.7426 103.409L29.7689 103.327ZM63.7239 108.265C64.2283 108.347 64.725 108.471 65.2091 108.636C65.7194 108.791 66.202 109.026 66.6389 109.333C66.7687 109.43 66.8823 109.547 66.9755 109.68L67.0493 109.811C67.0705 109.867 67.0879 109.924 67.1015 109.982C67.1247 110.117 67.1072 110.257 67.0511 110.382C66.953 110.565 66.7982 110.711 66.6099 110.798C66.4748 110.866 66.3333 110.92 66.1876 110.959C65.6707 111.089 65.1378 111.142 64.6056 111.118C63.5892 111.045 62.5773 110.92 61.5739 110.743C60.5752 110.601 59.5727 110.501 58.5658 110.39C57.5555 110.292 56.5529 110.126 55.565 109.892C54.5652 109.675 53.5838 109.38 52.6298 109.009C52.141 108.812 51.6705 108.572 51.2236 108.292C50.9725 108.136 50.747 107.943 50.5551 107.718C50.412 107.552 50.3355 107.339 50.3406 107.119C50.3526 107.002 50.3927 106.889 50.4573 106.79C50.522 106.692 50.6093 106.61 50.712 106.553C50.9727 106.412 51.2602 106.329 51.5555 106.308C51.8161 106.281 52.0783 106.271 52.3402 106.278C52.8511 106.294 53.36 106.348 53.8631 106.438L53.8602 106.524C53.3569 106.579 52.8576 106.633 52.3707 106.715C52.1281 106.758 51.8882 106.806 51.6601 106.866C51.4563 106.913 51.2625 106.996 51.0882 107.112C51.0263 107.164 51.0458 107.185 51.0577 107.148C51.0595 107.119 51.0766 107.168 51.1375 107.225C51.291 107.367 51.4637 107.487 51.6506 107.58C52.0749 107.803 52.5138 107.996 52.9644 108.159C53.8775 108.506 54.8164 108.829 55.769 109.113L58.6511 109.929C59.6171 110.197 60.6054 110.377 61.6039 110.466C62.5985 110.523 63.5962 110.503 64.5877 110.405C65.06 110.377 65.53 110.317 65.9942 110.225C66.0923 110.204 66.188 110.172 66.2802 110.133C66.3217 110.112 66.3616 110.089 66.3997 110.063C66.3824 110.09 66.4219 110.119 66.385 110.047C66.3386 109.97 66.2804 109.9 66.2125 109.841C65.8469 109.536 65.4493 109.272 65.0268 109.054L63.6967 108.347L63.7239 108.265Z" fill="black"/>
<path d="M64.6153 105.355C65.1037 105.44 65.5837 105.568 66.0497 105.737C66.2889 105.821 66.5217 105.922 66.7464 106.039C66.9959 106.16 67.2239 106.321 67.421 106.517C67.5623 106.659 67.6506 106.846 67.671 107.047C67.6737 107.165 67.6475 107.282 67.5947 107.388C67.5419 107.494 67.4641 107.585 67.3681 107.654C67.1209 107.821 66.8418 107.934 66.5485 107.987C66.0482 108.088 65.5371 108.126 65.0272 108.1C64.0294 108.058 63.063 107.848 62.0962 107.716C61.1299 107.576 60.1594 107.482 59.1842 107.378C58.2059 107.287 57.2349 107.131 56.2777 106.908C55.31 106.703 54.3589 106.425 53.4322 106.078C52.9615 105.893 52.5046 105.675 52.0651 105.425C51.8333 105.292 51.6136 105.138 51.4085 104.967C51.2927 104.867 51.1889 104.755 51.0994 104.631C51.0337 104.545 50.9858 104.446 50.9585 104.341C50.9312 104.236 50.925 104.126 50.9403 104.019C50.9642 103.914 51.0112 103.815 51.078 103.731C51.1448 103.647 51.2297 103.579 51.3262 103.532C51.4574 103.463 51.597 103.413 51.7415 103.382C51.9954 103.326 52.2544 103.296 52.5144 103.294C53.0108 103.288 53.5069 103.326 53.9969 103.406L53.9959 103.492C53.5109 103.561 53.0282 103.624 52.5661 103.73C52.3426 103.777 52.1232 103.842 51.9097 103.924C51.8197 103.958 51.7347 104.004 51.6572 104.062C51.5877 104.113 51.5856 104.156 51.603 104.131C51.6122 104.106 51.6167 104.137 51.6697 104.194C51.7349 104.258 51.8058 104.316 51.8814 104.368C52.0631 104.492 52.2551 104.601 52.4553 104.693C52.879 104.892 53.3127 105.069 53.7546 105.223C54.6449 105.548 55.5556 105.856 56.4786 106.128L59.269 106.916C60.2036 107.178 61.1601 107.353 62.1265 107.44C63.09 107.494 64.0561 107.476 65.0169 107.387C65.4891 107.353 65.9613 107.318 66.3975 107.243C66.5855 107.218 66.7675 107.16 66.9347 107.07C66.988 107.029 66.9713 107.045 66.977 107.069C66.9881 107.083 66.9706 107.017 66.9205 106.951C66.6089 106.631 66.25 106.361 65.8564 106.15C65.4447 105.907 65.016 105.678 64.5869 105.436L64.6153 105.355Z" fill="black"/>
</svg>
