<svg width="32" height="32" viewBox="0 0 32 32" fill="none" xmlns="http://www.w3.org/2000/svg">
<rect x="0.5" y="0.5" width="31" height="31" rx="15.5" stroke="black" stroke-opacity="0.1"/>
<rect width="19.2" height="11.52" transform="translate(6.3999 10.24)" fill="white"/>
<path d="M6.3999 11.2C6.3999 10.6698 6.82971 10.24 7.3599 10.24H24.6399C25.1701 10.24 25.5999 10.6698 25.5999 11.2V20.8C25.5999 21.3302 25.1701 21.76 24.6399 21.76H7.3599C6.82971 21.76 6.3999 21.3302 6.3999 20.8V11.2Z" fill="white"/>
<path fill-rule="evenodd" clip-rule="evenodd" d="M24.6399 10.72H7.3599C7.09481 10.72 6.8799 10.9349 6.8799 11.2V20.8C6.8799 21.0651 7.09481 21.28 7.3599 21.28H24.6399C24.905 21.28 25.1199 21.0651 25.1199 20.8V11.2C25.1199 10.9349 24.905 10.72 24.6399 10.72ZM7.3599 10.24C6.82971 10.24 6.3999 10.6698 6.3999 11.2V20.8C6.3999 21.3302 6.82971 21.76 7.3599 21.76H24.6399C25.1701 21.76 25.5999 21.3302 25.5999 20.8V11.2C25.5999 10.6698 25.1701 10.24 24.6399 10.24H7.3599Z" fill="black"/>
<path d="M11.345 13.8717C11.5059 13.6726 11.6151 13.4053 11.5863 13.1321C11.3507 13.1437 11.0633 13.2858 10.8969 13.4851C10.7474 13.6557 10.6152 13.9342 10.6497 14.196C10.9141 14.2187 11.1782 14.0652 11.345 13.8717Z" fill="black"/>
<path d="M11.5833 14.2471C11.1993 14.2245 10.8728 14.4627 10.6894 14.4627C10.506 14.4627 10.2252 14.2585 9.92144 14.264C9.52613 14.2697 9.15933 14.4909 8.95873 14.8425C8.54613 15.5461 8.84985 16.5896 9.25108 17.1626C9.44593 17.4461 9.68075 17.7582 9.99017 17.747C10.2825 17.7357 10.3971 17.5597 10.7525 17.5597C11.1076 17.5597 11.2108 17.747 11.5203 17.7413C11.8412 17.7357 12.0418 17.4577 12.2367 17.174C12.4602 16.8508 12.5517 16.5388 12.5575 16.5217C12.5517 16.516 11.9386 16.2833 11.9329 15.5857C11.9271 15.0015 12.4143 14.7236 12.4372 14.7064C12.1621 14.3039 11.7323 14.2585 11.5833 14.2471Z" fill="black"/>
<path d="M15.7357 13.4565C16.5703 13.4565 17.1515 14.0256 17.1515 14.8543C17.1515 15.6858 16.5583 16.2579 15.7148 16.2579H14.7907V17.7117H14.1231V13.4565L15.7357 13.4565ZM14.7907 15.7035H15.5568C16.1381 15.7035 16.4689 15.3939 16.4689 14.8572C16.4689 14.3206 16.1381 14.0139 15.5598 14.0139H14.7907V15.7035Z" fill="black"/>
<path d="M17.3259 16.83C17.3259 16.2874 17.7462 15.9542 18.4915 15.9129L19.3499 15.8628V15.624C19.3499 15.2789 19.1144 15.0725 18.721 15.0725C18.3483 15.0725 18.1158 15.2494 18.0592 15.5266H17.4512C17.4869 14.9663 17.9698 14.5535 18.7448 14.5535C19.5049 14.5535 19.9907 14.9516 19.9907 15.5738V17.7117H19.3737V17.2016H19.3589C19.1771 17.5466 18.7806 17.7648 18.3693 17.7648C17.7552 17.7648 17.3259 17.3873 17.3259 16.83ZM19.3499 16.5499V16.3051L18.5778 16.3523C18.1933 16.3789 17.9758 16.5469 17.9758 16.8123C17.9758 17.0836 18.2023 17.2605 18.5481 17.2605C18.9981 17.2605 19.3499 16.9538 19.3499 16.5499Z" fill="black"/>
<path d="M20.5732 18.8529V18.3369C20.6208 18.3486 20.7281 18.3486 20.7818 18.3486C21.0799 18.3486 21.2409 18.2248 21.3392 17.9063C21.3392 17.9004 21.3959 17.7176 21.3959 17.7147L20.2632 14.6095H20.9606L21.7536 17.1337H21.7654L22.5584 14.6095H23.238L22.0635 17.8739C21.7953 18.6259 21.4853 18.8676 20.8355 18.8676C20.7818 18.8676 20.6208 18.8617 20.5732 18.8529Z" fill="black"/>
</svg>
