<svg width="33" height="32" viewBox="0 0 33 32" fill="none" xmlns="http://www.w3.org/2000/svg">
<rect x="0.25" width="32" height="32" rx="16" fill="white"/>
<g clip-path="url(#clip0_31982_1853)">
<path d="M15.9156 29.1672C23.0444 29.1672 28.8234 23.3882 28.8234 16.2594C28.8234 9.13059 23.0444 3.35156 15.9156 3.35156C8.78684 3.35156 3.00781 9.13059 3.00781 16.2594C3.00781 23.3882 8.78684 29.1672 15.9156 29.1672Z" fill="#008CEB"/>
<path d="M23.4539 16.3127V19.9456C23.4539 20.1819 23.3523 20.2316 23.1537 20.1158C22.8881 19.9564 22.6117 19.8158 22.3265 19.695C21.465 19.3518 20.5319 19.2276 19.6106 19.3334C18.6051 19.4638 17.6183 19.7113 16.6703 20.0709C15.7248 20.3899 14.7983 20.735 13.8339 21.0021C13.0352 21.2393 12.2039 21.3486 11.371 21.3259C10.4479 21.2901 9.55082 21.0104 8.771 20.5152C8.67302 20.4562 8.59263 20.372 8.53818 20.2714C8.48372 20.1709 8.4572 20.0575 8.46136 19.9432C8.46136 17.5638 8.46136 15.1844 8.46136 12.805C8.46136 12.6892 8.46136 12.5521 8.56536 12.493C8.66936 12.4339 8.77572 12.5309 8.86554 12.5899C9.71236 13.1625 10.7153 13.4597 11.7374 13.4409C12.4682 13.4109 13.1909 13.2764 13.8835 13.0414C14.8668 12.7365 15.817 12.3323 16.7837 11.9896C17.5363 11.7004 18.3078 11.4635 19.093 11.2805C19.7668 11.1227 20.4661 11.1061 21.1466 11.2318C21.8272 11.3575 22.4743 11.6228 23.0474 12.0109C23.1787 12.0913 23.2863 12.2054 23.359 12.3412C23.4317 12.4771 23.4669 12.6298 23.461 12.7838C23.461 13.9656 23.461 15.1474 23.461 16.3292L23.4539 16.3127Z" fill="#FEFEFE"/>
</g>
<defs>
<clipPath id="clip0_31982_1853">
<rect width="26" height="26" fill="white" transform="translate(3.25 3)"/>
</clipPath>
</defs>
</svg>
