<svg width="33" height="32" viewBox="0 0 33 32" fill="none" xmlns="http://www.w3.org/2000/svg">
<rect x="1" y="0.5" width="31" height="31" rx="15.5" stroke="black" stroke-opacity="0.1"/>
<path d="M14.4238 12.9175L12.8044 23.3614C12.711 24.0704 13.057 23.9683 14.0673 23.9683C15.8218 24.0425 15.7114 24.0915 15.9083 22.8316C16.4984 19.0552 16.2634 19.2514 17.7912 19.4126C23.1901 19.9823 24.1205 14.6384 22.8252 12.9175C21.709 11.4346 18.4619 11.7302 16.4984 11.7659C14.4066 11.804 14.6182 11.7394 14.4238 12.9175Z" fill="#009EE3"/>
<path d="M11.5456 9.38714L9.67219 21.4694C9.56417 22.2896 9.9644 22.1715 11.1332 22.1715C13.1629 22.2573 13.0352 22.314 13.263 20.8565C13.9456 16.4876 13.6738 16.7146 15.4413 16.9011C21.6871 17.5601 22.7635 11.3779 21.265 9.38714C19.9737 7.67157 16.2172 8.01352 13.9456 8.05487C11.5257 8.09893 11.7705 8.0242 11.5456 9.38714Z" fill="#113984"/>
<path d="M21.8391 12.1689C20.581 11.7253 18.8221 11.7794 17.4202 11.8226C17.1666 11.8304 16.9247 11.8378 16.6996 11.8419C15.4817 11.8639 15.0394 11.8516 14.845 12.0651C14.7032 12.2208 14.6934 12.4966 14.6108 12.9935L13.9663 17.1221C14.0128 17.0609 14.0645 17.0147 14.1231 16.9806C14.3722 16.8359 14.7478 16.9091 15.3953 16.9769C19.7494 17.4333 21.6083 14.6099 21.8391 12.1689Z" fill="#172C70"/>
</svg>
