<svg width="40" height="40" viewBox="0 0 40 40" fill="none" xmlns="http://www.w3.org/2000/svg">
<rect x="0.5" y="0.5" width="39" height="39" rx="3.5" fill="white" stroke="#E6E6E6"/>
<g clip-path="url(#clip0_3_13)">
<path d="M34.5504 12.9466C32.0813 7.66171 26.7183 4 20.5 4C14.2817 4 8.91872 7.66171 6.44965 12.9466L8.20573 13.7658C10.3663 9.14147 15.0589 5.9374 20.5 5.9374C25.9407 5.9374 30.6337 9.14147 32.7939 13.7658L34.5504 12.9466ZM7.7525 14.8586L5.93148 14.1957C5.32876 15.8506 5 17.6368 5 19.5002C5 21.3632 5.32876 23.1497 5.93148 24.8043L7.7525 24.1414C7.22521 22.6934 6.93737 21.1305 6.93737 19.5002C6.93737 17.8699 7.22521 16.3066 7.7525 14.8586ZM6.44965 26.0534C8.91872 31.3383 14.2817 35 20.5 35C26.7183 35 32.0813 31.3383 34.5504 26.0534L32.7939 25.2342C30.6337 29.8585 25.9407 33.0626 20.5 33.0626C15.0589 33.0626 10.3663 29.8585 8.20573 25.2342L6.44965 26.0534ZM33.2472 14.8586C33.7745 16.3066 34.0623 17.8699 34.0623 19.5002C34.0623 21.1305 33.7745 22.6934 33.2472 24.1414L35.0682 24.8043C35.6709 23.1497 36 21.3632 36 19.5002C36 17.6368 35.6709 15.8506 35.0682 14.1957L33.2472 14.8586Z" fill="#BE0028"/>
<path d="M17.7875 16.4C17.4009 16.4 16.9849 16.4687 16.625 16.5455V13.3001L15.0046 13.476V22.1892C15.6739 22.4006 16.5428 22.6002 17.3999 22.6002C19.3491 22.6002 20.4998 21.9426 20.4998 19.4999C20.4998 17.0576 19.3491 16.4 17.7875 16.4ZM17.5291 21.2144C17.2355 21.2144 16.9771 21.1793 16.625 21.0971V17.9052C16.9166 17.8382 17.2054 17.7858 17.5291 17.7858C18.4098 17.7858 18.8326 18.1849 18.8326 19.4999C18.8326 20.8153 18.4098 21.2144 17.5291 21.2144Z" fill="#BE0028"/>
<path d="M24.0537 18.7838C23.361 18.7719 22.9264 18.7604 22.9264 18.3847C22.9264 17.8915 23.22 17.7856 24.1126 17.7856C24.6527 17.7856 25.4157 17.8915 25.897 18.0089L25.7682 16.6702C25.1458 16.4821 24.4528 16.3999 23.9949 16.3999C22.0456 16.3999 21.2944 17.1044 21.2944 18.4313C21.2944 19.7115 22.0812 20.0403 23.408 20.0636C24.2651 20.0755 24.7112 20.0518 24.7112 20.6156C24.7112 21.1088 24.3236 21.2143 23.4902 21.2143C22.5625 21.2143 21.9049 21.0736 21.4233 20.9211L21.5525 22.2594C22.1748 22.4827 22.762 22.6 23.6191 22.6C25.6975 22.6 26.3435 21.8955 26.3435 20.6275C26.3435 19.0303 25.2984 18.8071 24.0537 18.7838Z" fill="#BE0028"/>
<path d="M11.2821 16.4C10.7653 16.4 10.0726 16.4822 9.45027 16.6703L9.32107 18.0087C9.83788 17.8913 10.6009 17.7858 11.1059 17.7858C11.9515 17.7858 12.2921 17.8561 12.2921 18.5373V18.725L11.1648 18.7839C9.92007 18.8542 8.87495 19.0656 8.87495 20.6273C8.87495 21.8956 9.52096 22.6002 11.4698 22.6002C12.3743 22.6002 13.2432 22.4006 13.9122 22.1892V18.4315C13.9122 17.1046 13.1725 16.4 11.2821 16.4ZM12.2921 21.1674C12.0807 21.2026 11.7989 21.2496 11.5054 21.2496C10.8008 21.2496 10.5072 21.0267 10.5072 20.5451C10.5072 20.0401 10.789 19.9579 11.3761 19.9227L12.2921 19.8642V21.1674Z" fill="#BE0028"/>
<path d="M29.4946 16.4C28.9782 16.4 28.2851 16.4822 27.6628 16.6703L27.5336 18.0087C28.0504 17.8913 28.8135 17.7858 29.3184 17.7858C30.164 17.7858 30.5046 17.8561 30.5046 18.5373V18.725L29.3773 18.7839C28.1326 18.8542 27.0875 19.0305 27.0875 20.6273C27.0875 21.8956 27.7335 22.6002 29.6824 22.6002C30.5868 22.6002 31.4557 22.4006 32.1247 22.1892V18.4315C32.1247 17.1046 31.385 16.4 29.4946 16.4ZM30.5046 21.1674C30.2932 21.2026 30.0115 21.2496 29.7179 21.2496C29.0133 21.2496 28.7198 21.0267 28.7198 20.5451C28.7198 20.0401 29.0015 19.9579 29.5887 19.9227L30.5046 19.8642V21.1674Z" fill="#BE0028"/>
</g>
<defs>
<clipPath id="clip0_3_13">
<rect width="31" height="31" fill="white" transform="translate(5 4)"/>
</clipPath>
</defs>
</svg>
