<svg width="40" height="40" viewBox="0 0 40 40" fill="none" xmlns="http://www.w3.org/2000/svg">
<rect x="0.5" y="0.5" width="39" height="39" rx="3.5" fill="#FAFAFA"/>
<rect x="0.5" y="0.5" width="39" height="39" rx="3.5" stroke="#E6E6E6"/>
<path d="M21.5303 8C24.0978 14.5591 26.6847 21.111 29.2933 27.6532C29.7317 28.7553 30.1217 29.4674 30.4584 29.7895C31.0881 30.3926 31.8826 30.722 32.8417 30.7826C32.912 30.7874 32.9556 30.8237 32.9725 30.8916L32.9967 30.9981C33.0137 31.066 32.9628 31.1314 32.8926 31.1314H23.4318C23.3421 31.1314 23.2961 31.0853 23.2961 30.9933V30.8988C23.2961 30.8358 23.3276 30.8019 23.3905 30.7971C24.4127 30.7123 26.0089 30.3321 25.6577 28.8933C25.4421 27.9996 25.2241 27.2462 25.0086 26.6335C24.5144 25.2359 23.8919 23.6082 23.1411 21.7528C23.1169 21.6899 23.049 21.656 22.9836 21.6705L13.5518 23.9425C13.4913 23.9594 13.4477 23.9958 13.421 24.0539C12.7405 25.6162 12.1567 27.2026 11.665 28.8085C11.5972 29.0338 11.5803 29.2518 11.6142 29.4625C11.7861 30.4992 13.1328 30.7123 14.3293 30.7995C14.3875 30.8044 14.4238 30.8334 14.436 30.8891L14.4505 30.9497C14.4771 31.0563 14.3972 31.158 14.2882 31.158L7 31.1556V30.7922C8.45084 30.7147 9.45122 30.0535 10.0058 28.8061C12.4619 23.274 15.0778 17.3736 17.856 11.1076C17.9723 10.8436 18.0207 10.6401 18.0038 10.4924C17.9505 10.0539 17.4418 9.75847 17.1294 9.63494C16.5505 9.40486 16.5601 9.21349 17.1584 9.06333L21.3995 8L21.5303 8ZM22.6663 20.8542C22.7148 20.8422 22.7414 20.7913 22.722 20.7428L18.9532 11.4031C18.9242 11.3353 18.8297 11.3328 18.8006 11.4007L13.92 22.8259C13.8934 22.8864 13.9491 22.9542 14.0145 22.9373L22.6663 20.8542Z" fill="#919191"/>
</svg>
