<svg width="40" height="40" viewBox="0 0 40 40" fill="none" xmlns="http://www.w3.org/2000/svg">
<rect x="0.5" y="0.5" width="39" height="39" rx="3.5" fill="#FAFAFA"/>
<rect x="0.5" y="0.5" width="39" height="39" rx="3.5" stroke="#E6E6E6"/>
<path d="M13.2342 12.0026C13.4518 12.0052 13.4982 12.2575 13.4237 12.4197C12.068 15.3709 10.7113 18.3216 9.35384 21.272C9.03941 21.9551 8.87664 22.2094 8.0628 22.2139C7.50324 22.2166 6.94389 22.2166 6.38477 22.2139C6.01151 22.212 5.91934 22.027 6.06707 21.7054C7.45421 18.6836 8.84352 15.6626 10.235 12.6426C10.4932 12.0824 10.7959 12.0026 11.4182 12.0013C12.363 11.9996 12.9683 12 13.2342 12.0026Z" fill="#2726DD"/>
<path d="M23.2415 22.212C19.5181 22.2015 16.9347 18.4382 18.5251 14.9841C19.3625 13.1649 21.1824 12.0111 23.2075 12.0065C24.6696 12.0035 26.1317 12.0017 27.5938 12.0013C27.869 12.0007 28.0913 12.117 27.9566 12.4242C27.7474 12.9019 27.5302 13.3754 27.3049 13.8447C26.997 14.4866 26.6407 14.6939 25.9452 14.6965C25.1865 14.6987 24.428 14.6989 23.6697 14.6971C23.1589 14.6963 22.7881 14.727 22.5571 14.7893C20.7451 15.2776 20.1698 17.457 21.472 18.8043C22.0139 19.3645 22.6454 19.4998 23.4644 19.5011C24.3373 19.5029 25.2104 19.5033 26.0838 19.5024C26.7584 19.5018 27.0689 19.8528 27.3552 20.4549C27.557 20.8798 27.7524 21.3073 27.9416 21.7374C28.071 22.0316 27.9213 22.2133 27.6245 22.2139C26.1637 22.217 24.7027 22.2163 23.2415 22.212Z" fill="#2726DD"/>
<path d="M31.5715 12H29.7137C29.478 12 29.2869 12.1911 29.2869 12.4269V21.7864C29.2869 22.0222 29.478 22.2133 29.7137 22.2133H31.5715C31.8073 22.2133 31.9984 22.0222 31.9984 21.7864V12.4269C31.9984 12.1911 31.8073 12 31.5715 12Z" fill="#2726DD"/>
<path d="M14.08 14.1421C14.1938 13.8996 14.4572 13.8179 14.5873 14.0996C15.7613 16.6464 16.933 19.1945 18.1022 21.7439C18.2329 22.0296 18.1179 22.2094 17.8133 22.212C16.7809 22.222 16.1128 22.2216 15.8091 22.2107C15.3162 22.193 15.0841 21.8871 14.8756 21.438C13.95 19.4386 13.368 18.1708 13.1296 17.6348C12.808 16.9112 13.0367 16.417 13.3865 15.6437C13.6135 15.1412 13.8447 14.6407 14.08 14.1421Z" fill="#2726DD"/>
<path d="M28.2586 27.6919C27.8786 28.0806 27.4221 28.2146 26.8891 28.0939C25.8687 27.8625 25.719 26.5656 26.0733 25.7831C26.4498 24.9536 27.6467 24.8823 28.2233 25.521C28.2599 25.5615 28.278 25.5543 28.2776 25.4994L28.2697 23.8933C28.2697 23.8821 28.2741 23.8714 28.2819 23.8635C28.2897 23.8555 28.3004 23.851 28.3115 23.8508L28.7312 23.8462C28.753 23.8458 28.7639 23.8565 28.7639 23.8782V28.0083C28.7639 28.0235 28.7578 28.0382 28.7471 28.049C28.7363 28.0597 28.7216 28.0658 28.7064 28.0658H28.3011C28.2962 28.0658 28.2914 28.0648 28.2869 28.0629C28.2825 28.061 28.2785 28.0581 28.2752 28.0546C28.2718 28.051 28.2693 28.0468 28.2677 28.0422C28.2661 28.0376 28.2654 28.0327 28.2658 28.0279L28.2913 27.7069C28.2943 27.6721 28.2834 27.667 28.2586 27.6919ZM28.2606 26.3675C28.2606 26.1452 28.1723 25.9321 28.0151 25.7749C27.8579 25.6178 27.6448 25.5295 27.4225 25.5295H27.2761C27.0538 25.5295 26.8407 25.6178 26.6835 25.7749C26.5264 25.9321 26.4381 26.1452 26.4381 26.3675V26.8604C26.4381 27.0827 26.5264 27.2958 26.6835 27.453C26.8407 27.6101 27.0538 27.6984 27.2761 27.6984H27.4225C27.6448 27.6984 27.8579 27.6101 28.0151 27.453C28.1723 27.2958 28.2606 27.0827 28.2606 26.8604V26.3675Z" fill="#2726DD"/>
<path d="M8.52366 23.8495H9.04661C9.05165 23.8496 9.05652 23.8513 9.06052 23.8543C9.06453 23.8574 9.06744 23.8616 9.06884 23.8665L10.0036 27.2807C10.0051 27.2856 10.008 27.2898 10.0121 27.2929C10.0162 27.2959 10.0211 27.2975 10.0262 27.2975C10.0312 27.2975 10.0362 27.2959 10.0402 27.2929C10.0443 27.2898 10.0473 27.2856 10.0487 27.2807L11.0266 23.8665C11.028 23.8616 11.031 23.8574 11.035 23.8543C11.039 23.8513 11.0438 23.8496 11.0489 23.8495H11.5078C11.5114 23.8494 11.5151 23.8503 11.5184 23.8519C11.5217 23.8535 11.5245 23.8558 11.5268 23.8588C11.529 23.8617 11.5305 23.8651 11.5312 23.8687C11.5318 23.8723 11.5317 23.876 11.5306 23.8795L10.3141 28.0488C10.3127 28.0537 10.3097 28.0581 10.3055 28.0612C10.3014 28.0642 10.2964 28.0659 10.2912 28.0658H9.76894C9.76391 28.0657 9.75903 28.064 9.75503 28.061C9.75103 28.0579 9.74812 28.0536 9.74672 28.0488L8.80475 24.6287C8.80351 24.6235 8.80058 24.619 8.79643 24.6157C8.79228 24.6124 8.78715 24.6107 8.78187 24.6107C8.77658 24.6107 8.77145 24.6124 8.7673 24.6157C8.76315 24.619 8.76022 24.6235 8.75899 24.6287L7.81636 28.0488C7.81497 28.0536 7.81205 28.0579 7.80805 28.061C7.80405 28.064 7.79917 28.0657 7.79414 28.0658H7.28034C7.27519 28.0659 7.27016 28.0642 7.26603 28.0612C7.2619 28.0581 7.25889 28.0537 7.25746 28.0488L6.03571 23.8795C6.0347 23.8761 6.03451 23.8724 6.03515 23.8689C6.03579 23.8653 6.03724 23.8619 6.03939 23.859C6.04154 23.8561 6.04433 23.8537 6.04754 23.8521C6.05076 23.8504 6.05431 23.8495 6.05793 23.8495H6.51878C6.52382 23.8496 6.5287 23.8513 6.5327 23.8543C6.5367 23.8574 6.53961 23.8616 6.54101 23.8665L7.52286 27.2964C7.5243 27.3013 7.52728 27.3055 7.53134 27.3085C7.53541 27.3116 7.54034 27.3132 7.54541 27.3132C7.55048 27.3132 7.55541 27.3116 7.55947 27.3085C7.56354 27.3055 7.56651 27.3013 7.56796 27.2964L8.50078 23.8671C8.50209 23.8621 8.50505 23.8576 8.50919 23.8544C8.51333 23.8512 8.51843 23.8495 8.52366 23.8495Z" fill="#2726DD"/>
<path d="M16.8438 23.8495H16.415C16.4024 23.8495 16.3921 23.8597 16.3921 23.8724V28.0455C16.3921 28.0582 16.4024 28.0684 16.415 28.0684H16.8438C16.8565 28.0684 16.8667 28.0582 16.8667 28.0455V23.8724C16.8667 23.8597 16.8565 23.8495 16.8438 23.8495Z" fill="#2726DD"/>
<path d="M19.5481 27.7095C19.0317 28.2848 18.0688 28.2795 17.5714 27.7082C17.1596 27.2336 17.136 26.4113 17.3733 25.8269C17.7073 25.0045 18.9866 24.8228 19.5383 25.5216C19.5427 25.5272 19.5487 25.5313 19.5555 25.5333C19.5623 25.5353 19.5695 25.5352 19.5762 25.5329C19.5829 25.5306 19.5887 25.5262 19.5928 25.5205C19.5969 25.5147 19.5991 25.5078 19.5991 25.5007L19.5919 23.8841C19.5919 23.861 19.6035 23.8495 19.6266 23.8495H20.0312C20.06 23.8495 20.0744 23.8639 20.0744 23.8926L20.0691 28.0253C20.0691 28.0523 20.0556 28.0658 20.0286 28.0658H19.6325C19.6267 28.0658 19.621 28.0646 19.6157 28.0623C19.6104 28.06 19.6056 28.0566 19.6017 28.0524C19.5977 28.0482 19.5947 28.0432 19.5928 28.0377C19.5909 28.0322 19.5902 28.0264 19.5906 28.0207L19.6129 27.7376C19.6135 27.7299 19.6117 27.7221 19.6077 27.7154C19.6037 27.7088 19.5977 27.7035 19.5906 27.7004C19.5834 27.6973 19.5755 27.6965 19.5679 27.6982C19.5603 27.6998 19.5534 27.7038 19.5481 27.7095ZM19.5726 26.3653C19.5724 26.2552 19.5505 26.1463 19.5082 26.0447C19.4659 25.9431 19.404 25.8508 19.3261 25.7731C19.2481 25.6954 19.1556 25.6339 19.0539 25.5919C18.9521 25.55 18.8431 25.5285 18.7331 25.5287L18.5866 25.5289C18.3644 25.5293 18.1514 25.618 17.9945 25.7754C17.8376 25.9329 17.7497 26.1462 17.7501 26.3684L17.7509 26.8626C17.7511 26.9727 17.773 27.0816 17.8153 27.1832C17.8576 27.2848 17.9195 27.3771 17.9974 27.4548C18.0754 27.5325 18.1679 27.594 18.2696 27.636C18.3714 27.6779 18.4804 27.6994 18.5904 27.6992L18.7368 27.6989C18.9591 27.6985 19.1721 27.6099 19.329 27.4525C19.4859 27.295 19.5738 27.0817 19.5734 26.8594L19.5726 26.3653Z" fill="#2726DD"/>
<path d="M25.3023 24.6515C25.4796 24.654 25.6251 24.522 25.6274 24.3566C25.6298 24.1913 25.4879 24.0553 25.3107 24.0528C25.1334 24.0503 24.9879 24.1823 24.9856 24.3477C24.9833 24.513 25.1251 24.649 25.3023 24.6515Z" fill="#2726DD"/>
<path d="M14.1431 26.8115C14.1437 27.1589 14.0063 27.4923 13.7611 27.7384C13.5158 27.9845 13.1828 28.1231 12.8354 28.1237L12.5844 28.1242C12.237 28.1248 11.9035 27.9874 11.6574 27.7421C11.4113 27.4969 11.2727 27.1639 11.2721 26.8165L11.2714 26.4164C11.2708 26.069 11.4082 25.7355 11.6535 25.4894C11.8987 25.2433 12.2317 25.1047 12.5791 25.1041L12.8301 25.1037C13.1776 25.1031 13.511 25.2405 13.7571 25.4858C14.0032 25.731 14.1418 26.064 14.1424 26.4114L14.1431 26.8115ZM13.6351 26.3783C13.6347 26.1522 13.5445 25.9356 13.3844 25.776C13.2242 25.6164 13.0073 25.527 12.7812 25.5274L12.6295 25.5276C12.5176 25.5278 12.4068 25.5501 12.3035 25.5931C12.2001 25.6361 12.1063 25.6991 12.0272 25.7784C11.9482 25.8576 11.8856 25.9517 11.8429 26.0552C11.8003 26.1587 11.7784 26.2696 11.7786 26.3815L11.7794 26.8496C11.7798 27.0757 11.87 27.2923 12.0302 27.4519C12.1903 27.6115 12.4073 27.7009 12.6333 27.7005L12.785 27.7002C12.8969 27.7001 13.0077 27.6778 13.1111 27.6348C13.2144 27.5918 13.3083 27.5288 13.3873 27.4495C13.4663 27.3702 13.5289 27.2762 13.5716 27.1727C13.6143 27.0692 13.6361 26.9583 13.6359 26.8463L13.6351 26.3783Z" fill="#2726DD"/>
<path d="M29.6098 27.8246C29.1058 27.4546 29.0247 26.6643 29.177 26.0903C29.4058 25.2261 30.2824 24.9339 31.0832 25.1771C31.7846 25.3909 32.0337 26.0158 31.9964 26.6963C31.9951 26.7159 31.9849 26.7257 31.9657 26.7257H29.6327C29.6269 26.7257 29.6213 26.7269 29.616 26.7292C29.6108 26.7315 29.6061 26.7349 29.6022 26.7392C29.5984 26.7434 29.5955 26.7484 29.5938 26.7539C29.592 26.7594 29.5915 26.7651 29.5921 26.7708C29.6854 27.5513 30.1336 27.8544 30.9368 27.6801C31.2575 27.6104 31.4456 27.411 31.5009 27.082C31.5032 27.0678 31.5106 27.055 31.5217 27.046C31.5329 27.0371 31.5469 27.0326 31.561 27.0336L31.9526 27.0571C31.9801 27.0584 31.9916 27.0728 31.9873 27.1003C31.8068 28.2331 30.3713 28.3848 29.6098 27.8246ZM29.6255 26.3675L31.5068 26.3636L31.5086 26.3628L31.5094 26.361V26.3583C31.5089 26.1306 31.415 25.9125 31.2483 25.7518C31.0816 25.5911 30.8557 25.501 30.6204 25.5014H30.5093C30.3926 25.5015 30.2772 25.5239 30.1695 25.5673C30.0618 25.6107 29.964 25.6742 29.8817 25.7541C29.7994 25.8341 29.7342 25.9289 29.6897 26.0333C29.6453 26.1376 29.6226 26.2494 29.6229 26.3623V26.3649L29.6236 26.3667L29.6255 26.3675Z" fill="#2726DD"/>
<path d="M15.0403 25.4484C15.3201 25.1699 15.6567 25.076 16.0503 25.1667C16.0594 25.1687 16.0675 25.1738 16.0734 25.1811C16.0792 25.1883 16.0823 25.1973 16.0823 25.2065V25.5628C16.0823 25.5855 16.071 25.5953 16.0483 25.5922C15.0756 25.4451 15.0017 26.0485 15.0037 26.8375C15.0046 27.2358 15.0043 27.6343 15.003 28.0331C15.003 28.0549 14.9921 28.0658 14.9704 28.0658H14.5461C14.5243 28.0658 14.5134 28.0549 14.5134 28.0331V25.2059C14.5134 25.1841 14.5243 25.1732 14.5461 25.1732H14.9684C14.9761 25.1732 14.9838 25.175 14.9907 25.1783C14.9977 25.1817 15.0039 25.1865 15.0087 25.1925C15.0136 25.1985 15.0171 25.2055 15.0189 25.213C15.0208 25.2205 15.0209 25.2284 15.0194 25.2359L14.9828 25.4177C14.968 25.4913 14.9871 25.5016 15.0403 25.4484Z" fill="#2726DD"/>
<path d="M23.5337 27.399L24.2626 25.1935C24.2641 25.1885 24.2671 25.1841 24.2712 25.181C24.2753 25.1778 24.2803 25.176 24.2855 25.1758L24.7529 25.1673C24.7569 25.1673 24.7608 25.1682 24.7644 25.1701C24.768 25.1719 24.771 25.1746 24.7733 25.1778C24.7757 25.1811 24.7771 25.1849 24.7777 25.1889C24.7782 25.1928 24.7778 25.1969 24.7764 25.2007L23.7566 28.0475C23.7549 28.0523 23.7517 28.0565 23.7475 28.0594C23.7432 28.0623 23.7382 28.0639 23.7331 28.0638L23.2696 28.0664C23.2643 28.0664 23.2592 28.0647 23.255 28.0615C23.2507 28.0583 23.2476 28.0539 23.2461 28.0488L22.5898 25.8838C22.5881 25.8788 22.585 25.8746 22.5807 25.8715C22.5765 25.8685 22.5715 25.8669 22.5663 25.8669C22.5611 25.8669 22.556 25.8685 22.5518 25.8715C22.5476 25.8746 22.5444 25.8788 22.5427 25.8838L21.8871 28.0481C21.8855 28.0532 21.8824 28.0577 21.8782 28.0608C21.874 28.064 21.8688 28.0657 21.8635 28.0658H21.3922C21.3871 28.0658 21.3821 28.0643 21.3779 28.0614C21.3736 28.0584 21.3704 28.0543 21.3687 28.0495L20.3529 25.1987C20.3515 25.1949 20.351 25.1909 20.3516 25.1869C20.3521 25.1829 20.3536 25.1792 20.3559 25.1759C20.3582 25.1726 20.3613 25.1699 20.3649 25.1681C20.3684 25.1663 20.3724 25.1653 20.3764 25.1654L20.8497 25.168C20.8549 25.168 20.8599 25.1696 20.8642 25.1727C20.8684 25.1757 20.8715 25.18 20.8732 25.185L21.5975 27.3997C21.5991 27.4046 21.6023 27.4089 21.6065 27.4119C21.6108 27.4149 21.6158 27.4166 21.621 27.4166C21.6262 27.4166 21.6313 27.4149 21.6355 27.4119C21.6397 27.4089 21.6429 27.4046 21.6445 27.3997L22.3172 25.181C22.3188 25.1759 22.322 25.1714 22.3263 25.1682C22.3307 25.165 22.336 25.1633 22.3414 25.1634L22.7937 25.1771C22.7989 25.1773 22.8039 25.1791 22.808 25.1823C22.8121 25.1854 22.8151 25.1898 22.8166 25.1948L23.486 27.3984C23.4874 27.4036 23.4905 27.4082 23.4948 27.4114C23.499 27.4147 23.5042 27.4166 23.5096 27.4166C23.515 27.4167 23.5203 27.415 23.5246 27.4119C23.529 27.4087 23.5322 27.4042 23.5337 27.399Z" fill="#2726DD"/>
<path d="M25.5262 25.1686H25.0882C25.0785 25.1686 25.0706 25.1765 25.0706 25.1863V28.0481C25.0706 28.0579 25.0785 28.0658 25.0882 28.0658H25.5262C25.5359 28.0658 25.5438 28.0579 25.5438 28.0481V25.1863C25.5438 25.1765 25.5359 25.1686 25.5262 25.1686Z" fill="#2726DD"/>
</svg>
