<svg width="40" height="40" viewBox="0 0 40 40" fill="none" xmlns="http://www.w3.org/2000/svg">
<rect x="0.5" y="0.5" width="39" height="39" rx="3.5" fill="white"/>
<rect x="0.5" y="0.5" width="39" height="39" rx="3.5" stroke="#E6E6E6"/>
<path fill-rule="evenodd" clip-rule="evenodd" d="M13.3011 17.7099C12.7101 17.8872 12.3067 18.4727 12.223 19.2748L12.1742 19.7411H11.8462H11.5181V20.2304V20.7197H11.8555H12.1928L12.213 22.3947L12.2333 24.0696H12.8355H13.4377L13.458 22.3947L13.4782 20.7197H14.3787H15.2792L15.2995 22.3947L15.3197 24.0696H15.9219H16.5242L16.5444 22.3947L16.5647 20.7197H17.1278H17.691V20.2304V19.7411H17.1264H16.5618V19.4362C16.5618 18.7385 16.8951 18.5033 17.6111 18.6957C17.7271 18.727 17.9811 18.2812 18.012 17.992C18.0355 17.7717 17.6704 17.6427 17.0135 17.6392C15.9743 17.6337 15.4254 18.1649 15.3078 19.2899L15.2606 19.7411H14.368H13.4754V19.4362C13.4754 19.0921 13.6353 18.7286 13.8175 18.6587C14.0023 18.5878 14.2959 18.6026 14.4613 18.6911C14.5932 18.7617 14.6301 18.725 14.8002 18.3533C14.9051 18.124 14.9706 17.9033 14.9456 17.8629C14.8232 17.6647 13.7761 17.5673 13.3011 17.7099ZM22.7347 19.6601C22.3887 19.7282 22.0994 19.9242 21.9111 20.2181L21.7586 20.4563L21.7573 20.0987L21.756 19.7411H21.1914H20.6269V21.9272V24.1134L21.2479 24.0915L21.869 24.0696L21.9066 22.7523C21.95 21.2358 22.0052 21.0598 22.5094 20.8324C22.7674 20.716 22.8727 20.7054 23.1179 20.7708C23.3906 20.8436 23.4173 20.8372 23.4503 20.6907C23.6052 20.0049 23.6362 19.7851 23.5846 19.7382C23.4857 19.6482 23.0149 19.605 22.7347 19.6601ZM8.16438 19.8087C7.80365 19.9404 7.46195 20.1053 7.23951 20.255C7.15873 20.3093 7.17898 20.4024 7.34271 20.7282C7.4548 20.9513 7.55538 21.1439 7.56622 21.1563C7.57706 21.1687 7.71436 21.0918 7.87124 20.9852C8.58323 20.5021 9.65678 20.479 9.71512 20.9456C9.76315 21.3291 9.67319 21.3817 8.69321 21.5434C8.02263 21.6541 7.39548 21.9639 7.17258 22.2947C6.95661 22.6152 6.9411 23.204 7.13871 23.5815C7.52308 24.3158 8.91303 24.3856 9.59392 23.7047L9.77851 23.5201L9.80147 23.7949L9.82435 24.0696L10.4118 24.0917L10.9992 24.1137L10.9763 22.4356C10.9497 20.4774 10.906 20.3212 10.2753 19.9293C9.94947 19.7267 9.84144 19.7017 9.2283 19.6867C8.71828 19.6741 8.44803 19.7051 8.16438 19.8087ZM25.8964 19.822C25.7515 19.9075 25.5569 20.0683 25.4639 20.1792L25.2949 20.381L25.2945 20.0579L25.2941 19.7348L24.7107 19.7568L24.1273 19.7787V21.9242V24.0696L24.7484 24.0915L25.3694 24.1134L25.3711 22.8117C25.3733 21.0892 25.5229 20.7197 26.2185 20.7197C26.3837 20.7197 26.5264 20.7761 26.6187 20.878C26.7467 21.0193 26.7661 21.1984 26.7997 22.5529L26.8374 24.0696H27.4396H28.0418L28.0795 22.677C28.1175 21.2686 28.1312 21.1931 28.4049 20.8891C28.6537 20.6128 29.2509 20.6789 29.4062 20.9999C29.4419 21.0735 29.4882 21.7943 29.5092 22.6017L29.5474 24.0696H30.1496H30.7519L30.7747 22.677C30.8018 21.0213 30.7592 20.5821 30.5399 20.2599C30.255 19.8415 30.009 19.7111 29.4443 19.6792C28.8755 19.647 28.4995 19.7845 28.1593 20.1491L27.9755 20.3459L27.7076 20.0857C27.3694 19.7571 27.1255 19.6658 26.5878 19.6661C26.2908 19.6663 26.0792 19.714 25.8964 19.822ZM18.3862 21.9054L18.4061 24.0696H19.0084H19.6106L19.6305 21.9054L19.6506 19.7411H19.0084H18.3662L18.3862 21.9054ZM9.71113 22.3194C9.71046 22.7484 9.14398 23.2784 8.68554 23.2789C8.41054 23.2793 8.26232 23.1317 8.26232 22.8576C8.26232 22.588 8.50163 22.3741 8.93298 22.2581C9.51052 22.1029 9.71151 22.1187 9.71113 22.3194Z" fill="black"/>
<path fill-rule="evenodd" clip-rule="evenodd" d="M24.3451 13.8708C21.7509 14.3397 19.5007 16.1702 18.5976 18.546C18.513 18.7686 18.4438 18.976 18.4438 19.0071C18.4438 19.0382 18.7087 19.0636 19.0324 19.0636H19.6211L19.8615 18.5178C20.5473 16.9614 22.0284 15.7106 23.8638 15.1378C24.3511 14.9857 24.5831 14.9617 25.5576 14.9625C26.8472 14.9635 27.2688 15.0513 28.3021 15.5341C30.1319 16.3889 31.3755 18.0022 31.7979 20.0691C31.9569 20.8478 31.958 22.4679 31.8 23.2538C31.7347 23.5783 31.6754 23.8946 31.6682 23.9567C31.6577 24.0482 31.7621 24.0696 32.2181 24.0696H32.7808L32.8877 23.6556C32.962 23.3676 32.9959 22.7718 32.9993 21.6983C33.0038 20.2472 32.992 20.1103 32.8002 19.4041C32.0823 16.7608 30.1663 14.7925 27.5901 14.0517C27.0362 13.8924 26.7137 13.8518 25.8211 13.8291C25.2207 13.8138 24.5566 13.8326 24.3451 13.8708Z" fill="#4A49EB"/>
</svg>
