<svg width="40" height="40" viewBox="0 0 40 40" fill="none" xmlns="http://www.w3.org/2000/svg">
<rect x="0.5" y="0.5" width="39" height="39" rx="3.5" fill="#FAFAFA"/>
<rect x="0.5" y="0.5" width="39" height="39" rx="3.5" stroke="#E6E6E6"/>
<path fill-rule="evenodd" clip-rule="evenodd" d="M32.0101 18.0631C32.9645 18.995 33.2801 20.4003 32.8067 21.6478L31.0406 26.4424C30.5747 27.6974 29.5226 28.6744 28.215 28.9299C26.8848 29.1929 25.5171 28.7044 24.6604 27.6598L14.0867 14.9895C14.004 14.8918 13.8537 14.8768 13.756 14.9594C13.726 14.982 13.7034 15.0195 13.6884 15.0571L10.2465 24.3682C10.1789 24.5636 10.3668 24.744 10.5546 24.6688L14.7781 22.9479C15.7325 22.5646 16.8222 23.0231 17.2054 23.9775C17.2205 24.0226 17.243 24.0676 17.2505 24.1127C17.5662 25.0671 17.0401 26.1042 16.1158 26.48L10.5997 28.7345C9.57768 29.1553 8.40533 29.0802 7.4885 28.4639C6.19591 27.5997 5.66986 25.9689 6.21094 24.511L10.2766 13.5165C10.7575 12.2164 11.8547 11.2921 13.215 11.0591C14.5601 10.8186 15.9279 11.3221 16.7996 12.3818L22.8718 19.6563L28.4554 17.3717C29.6879 16.8532 31.0481 17.1238 32.0101 18.0631ZM28.7861 21.723C28.8537 21.5276 28.6659 21.3472 28.478 21.4224L25.3968 22.6849L27.2455 24.9018C27.3282 24.9995 27.471 25.0145 27.5762 24.9319C27.6063 24.9018 27.6288 24.8718 27.6438 24.8342L28.7861 21.723Z" fill="url(#paint0_linear_993_725)"/>
<defs>
<linearGradient id="paint0_linear_993_725" x1="3.6918" y1="12.5184" x2="20.3185" y2="37.463" gradientUnits="userSpaceOnUse">
<stop stop-color="#FF4244"/>
<stop offset="1" stop-color="#FF8E3C"/>
</linearGradient>
</defs>
</svg>
