<svg width="40" height="40" viewBox="0 0 40 40" fill="none" xmlns="http://www.w3.org/2000/svg">
<rect x="0.5" y="0.5" width="39" height="39" rx="3.5" fill="#FAFAFA"/>
<rect x="0.5" y="0.5" width="39" height="39" rx="3.5" stroke="#E6E6E6"/>
<g clip-path="url(#clip0_86_9)">
<path fill-rule="evenodd" clip-rule="evenodd" d="M6.48654 20.4413C6.44516 20.4761 6.38568 20.4819 6.33795 20.4559C6.12925 20.2875 6.09141 20.2097 5.97788 20.0494C5.63228 20.3905 5.38797 20.4926 4.94108 20.4926C4.41183 20.4926 4 20.1757 4 19.5421C4 19.0472 4.27826 18.7109 4.66783 18.5457C5.00897 18.4006 5.48536 18.3741 5.84988 18.3342V18.2554C5.84988 18.1102 5.86157 17.9386 5.77363 17.8128C5.69683 17.7005 5.55103 17.6547 5.4208 17.6547C5.18094 17.6547 4.96723 17.7739 4.91492 18.0206C4.90829 18.0781 4.86264 18.1242 4.80362 18.1329L4.19923 18.0686C4.16908 18.0644 4.14201 18.0484 4.12434 18.0244C4.10667 18.0003 4.09995 17.9703 4.10574 17.9413C4.24543 17.2245 4.91325 17.0081 5.51151 17.0081C5.8176 17.0081 6.21718 17.0869 6.4576 17.3114C6.76313 17.5888 6.73586 17.9591 6.73586 18.3612V19.3105C6.73586 19.5966 6.8583 19.7218 6.9735 19.8756C7.01357 19.9296 7.02247 19.9971 6.9735 20.0376C6.84494 20.1417 6.61677 20.3339 6.49155 20.4424L6.48654 20.4413ZM5.85266 18.9549C5.85266 19.1923 5.85823 19.3904 5.73523 19.6025C5.63506 19.7742 5.47645 19.88 5.29948 19.88C5.0585 19.88 4.9177 19.7018 4.9177 19.4374C4.9177 18.9182 5.39798 18.8237 5.85266 18.8237V18.9559V18.9549Z" fill="#232F3E"/>
<path fill-rule="evenodd" clip-rule="evenodd" d="M8.20837 20.4176H7.58005C7.52177 20.4146 7.47445 20.3708 7.46875 20.3145V17.184C7.47086 17.1213 7.52424 17.0717 7.58896 17.0723H8.17498C8.23502 17.0755 8.28297 17.122 8.28628 17.1802V17.5888H8.29797C8.45045 17.1932 8.73818 17.0092 9.12552 17.0092C9.51285 17.0092 9.76496 17.1932 9.94138 17.5888C10.0592 17.2844 10.3371 17.0652 10.6684 17.0154C10.9998 16.9656 11.333 17.093 11.5403 17.3486C11.7401 17.612 11.6989 17.9963 11.6989 18.3299V20.3047C11.6983 20.3353 11.6852 20.3644 11.6624 20.3856C11.6396 20.4068 11.6091 20.4183 11.5775 20.4176H10.9492C10.8874 20.4144 10.8387 20.3653 10.8379 20.3053V18.6462C10.8379 18.5145 10.8496 18.1852 10.8201 18.06C10.7734 17.8495 10.6326 17.7901 10.4506 17.7901C10.2838 17.7951 10.1361 17.8959 10.0749 18.0465C10.0104 18.2052 10.0159 18.468 10.0159 18.6462V20.3047C10.0154 20.3352 10.0023 20.3643 9.97966 20.3854C9.95701 20.4066 9.92662 20.4181 9.89518 20.4176H9.2652C9.20351 20.4142 9.15496 20.3652 9.1539 20.3053V18.6462C9.1539 18.2969 9.20955 17.7826 8.76433 17.7826C8.31912 17.7826 8.33025 18.2829 8.33025 18.6462V20.3047C8.32966 20.3353 8.31653 20.3644 8.29376 20.3856C8.27099 20.4068 8.24046 20.4183 8.20892 20.4176" fill="#232F3E"/>
<path fill-rule="evenodd" clip-rule="evenodd" d="M15.2135 19.8736C15.0983 19.7197 14.9758 19.5945 14.9758 19.309V18.3591C14.9758 17.9564 15.0053 17.5867 14.6976 17.3093C14.4566 17.0848 14.057 17.006 13.7515 17.006C13.1532 17.006 12.4854 17.2219 12.3451 17.9392C12.3392 17.9683 12.3459 17.9986 12.3637 18.0228C12.3815 18.047 12.4088 18.063 12.4392 18.0671L13.0486 18.1308C13.1075 18.1219 13.1531 18.076 13.1599 18.0185C13.2128 17.7719 13.4254 17.6526 13.6652 17.6526C13.7949 17.6526 13.9435 17.699 14.018 17.8113C14.1065 17.9365 14.0948 18.1081 14.0948 18.2533V18.3305C13.7303 18.3699 13.2534 18.3963 12.9128 18.5415C12.5188 18.7067 12.2422 19.0429 12.2422 19.5384C12.2422 20.1715 12.654 20.4883 13.1833 20.4883C13.6285 20.4883 13.8745 20.3863 14.2195 20.0452C14.3342 20.2071 14.3714 20.2832 14.5801 20.4516C14.6278 20.4775 14.6871 20.4719 14.7287 20.4376C14.8539 20.3296 15.0821 20.137 15.2107 20.0328C15.2647 19.9955 15.2558 19.9297 15.2135 19.8736ZM13.978 19.5999C13.8784 19.771 13.7192 19.8768 13.5428 19.8768C13.3018 19.8768 13.161 19.6987 13.161 19.4348C13.161 18.915 13.6413 18.8211 14.096 18.8211V18.9528C14.096 19.1908 14.1004 19.3884 13.978 19.5999Z" fill="#232F3E"/>
<path fill-rule="evenodd" clip-rule="evenodd" d="M15.7451 17.6207V17.1733C15.7437 17.1428 15.7556 17.1131 15.778 17.0916C15.8004 17.0701 15.8311 17.0588 15.8626 17.0605H17.9289C17.9604 17.0594 17.9908 17.0709 18.0133 17.0922C18.0358 17.1135 18.0484 17.1428 18.048 17.1733V17.557C18.048 17.6213 17.9924 17.7055 17.8928 17.8382L16.822 19.3203C17.2194 19.3111 17.6395 19.3689 18.0007 19.5659C18.0674 19.6004 18.1099 19.6669 18.112 19.7402V20.2195C18.112 20.2854 18.038 20.3615 17.9595 20.3221C17.2741 19.9804 16.4605 19.9818 15.7763 20.3258C15.7045 20.3631 15.6294 20.2881 15.6294 20.2222V19.7661C15.6228 19.6586 15.6496 19.5517 15.7062 19.459L16.9467 17.7319H15.8648C15.8333 17.7331 15.8027 17.7217 15.78 17.7004C15.7574 17.6791 15.7448 17.6497 15.7451 17.6191" fill="#232F3E"/>
<path fill-rule="evenodd" clip-rule="evenodd" d="M19.8324 17.6433C19.3688 17.6433 19.3393 18.2554 19.3393 18.6375C19.3393 19.0196 19.3337 19.8357 19.8262 19.8357C20.3188 19.8357 20.3371 19.1772 20.3371 18.7757C20.3371 18.5123 20.3254 18.196 20.2431 17.9461C20.1724 17.7302 20.0316 17.6433 19.8324 17.6433ZM19.8262 17.0043C20.7595 17.0043 21.2643 17.7815 21.2643 18.7692C21.2643 19.724 20.7078 20.4812 19.8262 20.4812C18.9108 20.4812 18.4121 19.704 18.4121 18.7363C18.4121 17.7685 18.9169 17.0043 19.8262 17.0043Z" fill="#232F3E"/>
<path fill-rule="evenodd" clip-rule="evenodd" d="M22.4811 20.4111H21.8545C21.7927 20.408 21.744 20.3589 21.7432 20.2988V17.1684C21.7498 17.109 21.8023 17.0644 21.8639 17.0658H22.4472C22.5003 17.0675 22.5458 17.1032 22.5585 17.1533V17.632H22.5707C22.7466 17.204 22.9931 17 23.4272 17C23.7088 17 23.9837 17.0988 24.1613 17.3686C24.3254 17.6191 24.3254 18.0406 24.3254 18.3434V20.3129C24.3162 20.3703 24.2646 20.4123 24.2047 20.4111H23.5725C23.5157 20.4087 23.4689 20.3674 23.4611 20.3129V18.6133C23.4611 18.2711 23.5023 17.7702 23.0677 17.7702C22.9063 17.7774 22.7641 17.8753 22.7037 18.0206C22.6158 18.2117 22.6041 18.4028 22.6041 18.6143V20.2988C22.6017 20.3624 22.5472 20.4123 22.4817 20.4111" fill="#232F3E"/>
<path fill-rule="evenodd" clip-rule="evenodd" d="M27.5963 17.5413C27.2768 17.5438 26.9668 17.647 26.7131 17.8355V19.6166C26.9943 19.8217 27.2843 19.9241 27.5829 19.9237C28.1892 19.9237 28.4923 19.5279 28.4923 18.7363C28.4923 17.9447 28.1936 17.5462 27.5963 17.5408V17.5413ZM26.6669 17.4582C26.8249 17.3231 27.0053 17.2151 27.2006 17.1387C27.3851 17.0674 27.5819 17.0307 27.7805 17.0307C27.9779 17.0272 28.1737 17.0655 28.3543 17.143C28.5244 17.2187 28.6734 17.3326 28.7889 17.4755C28.9147 17.6337 29.0077 17.8141 29.0627 18.0066C29.1295 18.2347 29.1617 18.4711 29.1585 18.7082C29.1615 18.9504 29.127 19.1917 29.0561 19.4239C28.9967 19.621 28.8995 19.8054 28.7695 19.9674C28.6487 20.1147 28.4954 20.2339 28.3209 20.3161C28.1375 20.3986 27.937 20.4394 27.7349 20.4354C27.357 20.4414 26.9913 20.3061 26.7137 20.0576V21.5558C26.719 21.5911 26.7068 21.6267 26.6808 21.6519C26.6548 21.6771 26.6181 21.6889 26.5818 21.6838H26.1922C26.1558 21.6889 26.1191 21.6771 26.0932 21.6519C26.0672 21.6267 26.055 21.5911 26.0603 21.5558V17.2537C26.0552 17.2185 26.0675 17.183 26.0934 17.1578C26.1193 17.1327 26.1559 17.1208 26.1922 17.1257H26.4821C26.52 17.1223 26.5576 17.134 26.5863 17.1582C26.615 17.1824 26.6323 17.2168 26.6341 17.2537L26.6669 17.4582Z" fill="#232F3E"/>
<path fill-rule="evenodd" clip-rule="evenodd" d="M30.8024 19.9722C30.9578 19.9703 31.1116 19.9424 31.2571 19.8897C31.4204 19.8314 31.5737 19.7495 31.7118 19.6468V18.9943C31.5976 18.9682 31.482 18.948 31.3656 18.9338C31.2488 18.9189 31.1312 18.9114 31.0134 18.9111C30.5162 18.9111 30.2678 19.0966 30.2682 19.4676C30.2682 19.6295 30.3144 19.7542 30.4067 19.8416C30.4991 19.9291 30.631 19.9726 30.8024 19.9722ZM30.0311 17.6827L29.9816 17.6989C29.9637 17.7051 29.9449 17.7083 29.9259 17.7086C29.8703 17.7086 29.8402 17.6703 29.8402 17.5931V17.422C29.836 17.3788 29.8453 17.3354 29.8669 17.2973C29.8954 17.2664 29.9316 17.2432 29.9721 17.2299C30.1395 17.1639 30.314 17.1167 30.4924 17.089C30.6968 17.0531 30.9041 17.035 31.1119 17.035C31.5293 17.035 31.8368 17.118 32.0346 17.2838C32.2323 17.4497 32.3314 17.7075 32.3318 18.0573V20.241C32.3368 20.2762 32.3246 20.3117 32.2986 20.3368C32.2727 20.362 32.2362 20.3739 32.1999 20.3689H31.916C31.88 20.3724 31.8441 20.3613 31.8168 20.3384C31.7894 20.3154 31.773 20.2826 31.7713 20.2475L31.7379 20.0365C31.5827 20.1669 31.4056 20.2706 31.2143 20.343C31.0328 20.4136 30.8393 20.4502 30.6438 20.451C30.3277 20.451 30.0773 20.3646 29.8925 20.1919C29.7078 20.0192 29.615 19.788 29.6143 19.4984C29.6143 19.1875 29.7285 18.9392 29.9571 18.7535C30.1856 18.5679 30.4932 18.4752 30.8798 18.4756C31.16 18.4798 31.4387 18.516 31.7101 18.5835V18.1636C31.7101 17.9333 31.6574 17.7714 31.5521 17.6779C31.4467 17.5843 31.2621 17.5373 30.9983 17.537C30.6703 17.54 30.3446 17.5891 30.0311 17.6827Z" fill="#232F3E"/>
<path fill-rule="evenodd" clip-rule="evenodd" d="M34.4767 20.9352C34.3576 21.2291 34.2202 21.4402 34.0643 21.5683C33.9085 21.6964 33.7044 21.7602 33.4522 21.7599C33.3254 21.7615 33.1991 21.7464 33.0765 21.7151C33.0353 21.7065 32.9982 21.6851 32.9708 21.6541C32.9458 21.615 32.9343 21.5693 32.9379 21.5235V21.3572C32.9379 21.2763 32.9708 21.2358 33.037 21.2358C33.0703 21.2373 33.1034 21.2414 33.1361 21.2482C33.1947 21.258 33.2541 21.2624 33.3136 21.2612C33.4535 21.2697 33.5919 21.2289 33.7032 21.1462C33.7955 21.0695 33.879 20.9289 33.9536 20.7241L34.0788 20.4003L32.8088 17.3557C32.7849 17.3072 32.7695 17.2552 32.7632 17.2018C32.7632 17.1511 32.7938 17.1252 32.855 17.1252H33.2507C33.3014 17.1205 33.3523 17.1316 33.396 17.157C33.4332 17.1974 33.4601 17.2456 33.4744 17.2979L34.3977 19.778L35.2881 17.2979C35.3025 17.2456 35.3294 17.1974 35.3666 17.157C35.4103 17.1316 35.4612 17.1205 35.5118 17.1252H35.8808C35.9426 17.1252 35.9732 17.1511 35.9732 17.2018C35.9666 17.2552 35.951 17.3072 35.927 17.3557L34.4767 20.9352Z" fill="#232F3E"/>
<path fill-rule="evenodd" clip-rule="evenodd" d="M16.598 21.6449C15.4176 22.4895 13.7041 22.9402 12.2326 22.9402C10.2641 22.95 8.36276 22.2464 6.90117 20.9675C6.78987 20.8709 6.88893 20.7387 7.02194 20.8137C8.54013 21.6702 10.4167 22.1862 12.3568 22.1862C13.7551 22.1788 15.1382 21.9037 16.4266 21.3766C16.6258 21.2946 16.7933 21.504 16.598 21.6465M17.0889 21.103C17.2402 21.2903 16.9219 22.0632 16.7789 22.408C16.7355 22.5122 16.8284 22.5543 16.9258 22.4755C17.5586 21.9617 17.7222 20.8855 17.5936 20.73C17.4651 20.5746 16.3581 20.4429 15.6825 20.9033C15.5785 20.974 15.5963 21.0717 15.712 21.0582C16.0921 21.0139 16.9392 20.9152 17.09 21.103" fill="#FF9900"/>
</g>
<defs>
<clipPath id="clip0_86_9">
<rect width="32" height="6" fill="white" transform="translate(4 17)"/>
</clipPath>
</defs>
</svg>
