<svg width="40" height="40" viewBox="0 0 40 40" fill="none" xmlns="http://www.w3.org/2000/svg">
<g clip-path="url(#clip0_20_222)">
<path d="M36 0.5H4C2.067 0.5 0.5 2.067 0.5 4V36C0.5 37.933 2.067 39.5 4 39.5H36C37.933 39.5 39.5 37.933 39.5 36V4C39.5 2.067 37.933 0.5 36 0.5Z" fill="#FAFAFA"/>
<path d="M36 0.5H4C2.067 0.5 0.5 2.067 0.5 4V36C0.5 37.933 2.067 39.5 4 39.5H36C37.933 39.5 39.5 37.933 39.5 36V4C39.5 2.067 37.933 0.5 36 0.5Z" stroke="#E6E6E6"/>
<path d="M23.9862 24.3211C23.9862 25.509 23.5629 26.523 22.7182 27.3651C21.8731 28.2073 20.8545 28.6279 19.6627 28.6279C18.4705 28.6279 17.4576 28.2073 16.6231 27.3651C15.7887 26.523 15.3721 25.509 15.3721 24.3211V15.6748H11V24.3211C11 26.7392 11.842 28.7902 13.5262 30.4742C15.21 32.158 17.2609 33 19.6788 33C22.1187 33 24.175 32.1636 25.8483 30.4902C27.5209 28.8174 28.358 26.7612 28.358 24.3211V15.6748H23.9862V24.3211Z" fill="url(#paint0_linear_20_222)"/>
<mask id="mask0_20_222" style="mask-type:luminance" maskUnits="userSpaceOnUse" x="13" y="7" width="14" height="7">
<path d="M13.4133 13.6691V13.3365C13.4243 11.4976 14.007 10.078 15.2416 8.82846C16.4915 7.59345 17.9109 7.01071 19.7494 7.00001C21.5653 7.01071 22.9814 7.59456 24.2438 8.84228C25.4915 10.1049 26.0752 11.5208 26.0863 13.3365V13.7202H24.5133V13.3365C24.5238 12.0676 24.0307 10.8667 23.1305 9.97275C22.6838 9.52132 22.1648 9.16285 21.5923 8.92611C21.0218 8.68802 20.4032 8.57299 19.7692 8.57299H19.7634C18.4889 8.56206 17.2836 9.06053 16.3881 9.96807C15.9373 10.4168 15.5782 10.9358 15.3403 11.5085C15.1013 12.0807 14.9856 12.7009 14.9861 13.3365V13.6691H13.4133Z" fill="white"/>
</mask>
<g mask="url(#mask0_20_222)">
<path d="M13.4133 13.6691V13.3365C13.4243 11.4976 14.007 10.078 15.2416 8.82846C16.4915 7.59345 17.9109 7.01071 19.7494 7.00001C21.5653 7.01071 22.9814 7.59456 24.2438 8.84228C25.4915 10.1049 26.0752 11.5208 26.0863 13.3365V13.7202H24.5133V13.3365C24.5238 12.0676 24.0307 10.8667 23.1305 9.97275C22.6838 9.52132 22.1648 9.16285 21.5923 8.92611C21.0218 8.68802 20.4032 8.57299 19.7692 8.57299H19.7634C18.4889 8.56206 17.2836 9.06053 16.3881 9.96807C15.9373 10.4168 15.5782 10.9358 15.3403 11.5085C15.1013 12.0807 14.9856 12.7009 14.9861 13.3365V13.6691H13.4133Z" fill="url(#paint1_linear_20_222)"/>
</g>
<mask id="mask1_20_222" style="mask-type:luminance" maskUnits="userSpaceOnUse" x="18" y="20" width="4" height="5">
<path d="M21.1126 21.5073C21.1126 20.7025 20.4605 20.0499 19.6553 20.0499C18.8505 20.0499 18.1985 20.7025 18.1985 21.5073C18.1985 22.0628 18.5097 22.5456 18.9671 22.7913V24.9146H20.3442V22.7913C20.8016 22.5456 21.1126 22.0628 21.1126 21.5073Z" fill="white"/>
</mask>
<g mask="url(#mask1_20_222)">
<path d="M21.1126 21.5073C21.1126 20.7025 20.4605 20.0499 19.6553 20.0499C18.8505 20.0499 18.1985 20.7025 18.1985 21.5073C18.1985 22.0628 18.5097 22.5456 18.9671 22.7913V24.9146H20.3442V22.7913C20.8016 22.5456 21.1126 22.0628 21.1126 21.5073Z" fill="url(#paint2_linear_20_222)"/>
</g>
</g>
<defs>
<linearGradient id="paint0_linear_20_222" x1="58.0343" y1="6.86602" x2="58.0343" y2="41.7762" gradientUnits="userSpaceOnUse">
<stop stop-color="#0E8095"/>
<stop offset="0.273567" stop-color="#0E8095"/>
<stop offset="1" stop-color="#104056"/>
</linearGradient>
<linearGradient id="paint1_linear_20_222" x1="13.4133" y1="10.36" x2="26.0864" y2="10.36" gradientUnits="userSpaceOnUse">
<stop stop-color="#3E5366"/>
<stop offset="0.0320582" stop-color="#3E5366"/>
<stop offset="1" stop-color="#16191B"/>
</linearGradient>
<linearGradient id="paint2_linear_20_222" x1="18.1985" y1="22.4823" x2="21.1127" y2="22.4823" gradientUnits="userSpaceOnUse">
<stop stop-color="#3E5366"/>
<stop offset="0.0320582" stop-color="#3E5366"/>
<stop offset="1" stop-color="#16191B"/>
</linearGradient>
<clipPath id="clip0_20_222">
<rect width="40" height="40" fill="white"/>
</clipPath>
</defs>
</svg>
