<svg width="40" height="40" viewBox="0 0 40 40" fill="none" xmlns="http://www.w3.org/2000/svg">
<rect x="0.5" y="0.5" width="39" height="39" rx="3.5" fill="#FAFAFA"/>
<rect x="0.5" y="0.5" width="39" height="39" rx="3.5" stroke="#E6E6E6"/>
<path d="M25.375 6.27179C25.375 6.1997 25.3464 6.13057 25.2954 6.0796C25.2445 6.02863 25.1753 6 25.1033 6C25.0312 6 24.962 6.02863 24.9111 6.0796C24.8601 6.13057 24.8315 6.1997 24.8315 6.27179C24.8315 6.30748 24.8385 6.34282 24.8522 6.3758C24.8658 6.40877 24.8858 6.43873 24.9111 6.46397C24.9363 6.48921 24.9663 6.50923 24.9993 6.52289C25.0322 6.53654 25.0676 6.54357 25.1033 6.54357C25.139 6.54357 25.1743 6.53654 25.2073 6.52289C25.2402 6.50923 25.2702 6.48921 25.2954 6.46397C25.3207 6.43873 25.3407 6.40877 25.3544 6.3758C25.368 6.34282 25.375 6.30748 25.375 6.27179Z" fill="#9B56D6"/>
<path d="M24.4387 7.23594L24.3911 7.77951C24.3857 7.84069 24.4037 7.90157 24.4413 7.94983C24.4788 7.99808 24.5332 8.0301 24.5934 8.0394L27.1585 8.43815C27.2182 8.44682 27.2791 8.43309 27.3295 8.39963C27.3798 8.36616 27.4161 8.31535 27.4311 8.25704C27.4462 8.19873 27.4391 8.13707 27.411 8.08403C27.383 8.03099 27.3362 7.99034 27.2795 7.96996C26.3987 7.64858 25.5047 7.39002 24.5974 7.19428C24.5286 7.17841 24.4889 7.13608 24.4783 7.06731L24.4168 6.66062C24.4089 6.61036 24.3897 6.56474 24.3593 6.52374C24.2469 6.37296 24.0882 6.30882 23.8832 6.3313C23.8456 6.3353 23.8111 6.35405 23.7873 6.38342C23.7635 6.4128 23.7523 6.45042 23.7562 6.48803C23.7893 6.82793 23.9837 7.03226 24.3395 7.10104C24.3695 7.10721 24.3961 7.12436 24.4144 7.14922C24.4327 7.17409 24.4413 7.20495 24.4387 7.23594Z" fill="#9B56D6"/>
<path d="M25.5247 8.88959C25.5256 8.87633 25.5238 8.86304 25.5195 8.85046C25.5152 8.83788 25.5085 8.82627 25.4998 8.81628C25.491 8.8063 25.4803 8.79814 25.4684 8.79227C25.4565 8.78641 25.4435 8.78295 25.4303 8.78209L24.2622 8.70656C24.249 8.7057 24.2357 8.70747 24.2231 8.71175C24.2105 8.71603 24.1989 8.72274 24.1889 8.73151C24.179 8.74028 24.1708 8.75093 24.1649 8.76285C24.1591 8.77477 24.1556 8.78773 24.1547 8.80099L24.1263 9.2405C24.1255 9.25376 24.1272 9.26705 24.1315 9.27963C24.1358 9.29221 24.1425 9.30382 24.1513 9.31381C24.1601 9.32379 24.1707 9.33195 24.1826 9.33781C24.1945 9.34368 24.2075 9.34714 24.2208 9.348L25.3888 9.42353C25.4021 9.42438 25.4154 9.42262 25.4279 9.41834C25.4405 9.41406 25.4521 9.40735 25.4621 9.39858C25.4721 9.38981 25.4802 9.37916 25.4861 9.36724C25.492 9.35532 25.4954 9.34235 25.4963 9.3291L25.5247 8.88959Z" fill="#9B56D6"/>
<path d="M25.2958 10.1134C25.2961 10.1024 25.2942 10.0915 25.2903 10.0813C25.2864 10.0711 25.2805 10.0617 25.273 10.0538C25.2655 10.0458 25.2565 10.0394 25.2465 10.035C25.2365 10.0305 25.2257 10.0281 25.2148 10.0277L23.906 9.9912C23.8839 9.99059 23.8625 9.99878 23.8464 10.014C23.8303 10.0291 23.821 10.0501 23.8204 10.0722L23.8077 10.5243C23.8074 10.5352 23.8093 10.5461 23.8132 10.5564C23.8171 10.5666 23.823 10.5759 23.8305 10.5839C23.838 10.5918 23.847 10.5982 23.857 10.6027C23.867 10.6072 23.8777 10.6096 23.8887 10.6099L25.1975 10.6465C25.2196 10.6471 25.241 10.6389 25.2571 10.6237C25.2731 10.6085 25.2825 10.5876 25.2831 10.5655L25.2958 10.1134Z" fill="#9B56D6"/>
<path d="M25.0695 11.3901C25.0695 11.3721 25.066 11.3543 25.0591 11.3377C25.0522 11.3211 25.0422 11.306 25.0294 11.2933C25.0167 11.2806 25.0016 11.2705 24.985 11.2636C24.9684 11.2568 24.9506 11.2532 24.9326 11.2532H23.6273C23.6093 11.2532 23.5915 11.2568 23.5749 11.2636C23.5583 11.2705 23.5432 11.2806 23.5305 11.2933C23.5178 11.306 23.5077 11.3211 23.5008 11.3377C23.4939 11.3543 23.4904 11.3721 23.4904 11.3901V11.7472C23.4904 11.7835 23.5048 11.8183 23.5305 11.844C23.5562 11.8697 23.591 11.8841 23.6273 11.8841H24.9326C24.969 11.8841 25.0038 11.8697 25.0294 11.844C25.0551 11.8183 25.0695 11.7835 25.0695 11.7472V11.3901Z" fill="#9B56D6"/>
<path d="M24.8125 12.5803C24.8124 12.5733 24.8109 12.5663 24.8081 12.5599C24.8052 12.5534 24.8012 12.5476 24.7961 12.5427C24.791 12.5378 24.7851 12.534 24.7785 12.5315C24.772 12.5289 24.765 12.5276 24.7579 12.5278L23.195 12.5578C23.1879 12.5579 23.181 12.5594 23.1745 12.5623C23.1681 12.5651 23.1623 12.5691 23.1574 12.5742C23.1525 12.5793 23.1487 12.5853 23.1461 12.5918C23.1435 12.5984 23.1423 12.6053 23.1424 12.6124L23.1522 13.1241C23.1524 13.1312 23.1539 13.1381 23.1567 13.1445C23.1595 13.151 23.1636 13.1568 23.1687 13.1617C23.1737 13.1666 23.1797 13.1704 23.1863 13.173C23.1928 13.1755 23.1998 13.1768 23.2068 13.1766L24.7698 13.1466C24.7768 13.1465 24.7838 13.145 24.7902 13.1422C24.7967 13.1393 24.8025 13.1353 24.8074 13.1302C24.8123 13.1251 24.8161 13.1192 24.8187 13.1126C24.8212 13.1061 24.8225 13.0991 24.8223 13.092L24.8125 12.5803Z" fill="#9B56D6"/>
<path d="M22.7544 13.8937L22.7584 14.4016C22.7583 14.4088 22.7598 14.4159 22.7626 14.4226C22.7654 14.4292 22.7695 14.4352 22.7747 14.4402C22.7799 14.4452 22.7861 14.4491 22.7928 14.4517C22.7995 14.4542 22.8067 14.4554 22.8139 14.4552L24.3534 14.4373C24.4147 14.4364 24.4731 14.4054 24.5159 14.3511C24.5586 14.2968 24.5822 14.2237 24.5815 14.1477V14.108C24.5812 14.0701 24.5748 14.0326 24.5627 13.9977C24.5506 13.9628 24.5331 13.9311 24.5112 13.9046C24.4892 13.878 24.4633 13.8571 24.4349 13.843C24.4064 13.8289 24.376 13.8218 24.3454 13.8223L22.806 13.8402C22.7921 13.8407 22.779 13.8465 22.7694 13.8565C22.7597 13.8665 22.7544 13.8799 22.7544 13.8937Z" fill="#9B56D6"/>
<path d="M22.2366 15.2864L22.2921 15.82C22.2941 15.8345 22.3017 15.8475 22.3132 15.8564C22.3247 15.8653 22.3392 15.8694 22.3536 15.8677L24.0717 15.6871C24.1545 15.6783 24.2305 15.6385 24.2833 15.5764C24.3361 15.5143 24.3613 15.435 24.3534 15.3558L24.3494 15.3122C24.3454 15.2727 24.3332 15.2345 24.3137 15.1997C24.2942 15.1648 24.2676 15.1341 24.2355 15.1092C24.2035 15.0843 24.1665 15.0658 24.1268 15.0547C24.0871 15.0435 24.0455 15.04 24.0042 15.0444L22.2862 15.2249C22.2789 15.2256 22.2718 15.2278 22.2653 15.2313C22.2589 15.2348 22.2532 15.2396 22.2486 15.2453C22.2439 15.251 22.2405 15.2576 22.2385 15.2646C22.2364 15.2717 22.2358 15.2791 22.2366 15.2864Z" fill="#9B56D6"/>
<path d="M21.7486 17.2583L24.1133 16.9131C24.1214 16.9117 24.1286 16.9072 24.1334 16.9005C24.1382 16.8938 24.1403 16.8856 24.1391 16.8774V16.8695C24.1279 16.7926 24.1014 16.7187 24.0609 16.6521C24.0205 16.5855 23.9669 16.5274 23.9034 16.4811C23.8398 16.4349 23.7675 16.4014 23.6905 16.3826C23.6135 16.3638 23.5334 16.36 23.4547 16.3716L22.2247 16.5521C22.0661 16.5756 21.9232 16.6596 21.8272 16.7857C21.7313 16.9118 21.6901 17.0697 21.7129 17.2246V17.2325C21.7143 17.2406 21.7189 17.2478 21.7255 17.2526C21.7322 17.2575 21.7404 17.2595 21.7486 17.2583Z" fill="#9B56D6"/>
<path d="M21.2625 18.1035C21.1217 18.1411 20.8598 18.5716 20.8023 18.6946C20.7977 18.7038 20.7959 18.714 20.7969 18.7241C20.798 18.7343 20.8019 18.744 20.8082 18.7522C20.8146 18.7604 20.8231 18.7667 20.8329 18.7706C20.8427 18.7744 20.8534 18.7756 20.8638 18.774L23.5598 18.286C23.6233 18.2741 23.663 18.237 23.6789 18.1749L23.7622 17.8634C23.7662 17.8476 23.7665 17.831 23.7632 17.8151C23.7598 17.7991 23.7529 17.7842 23.7429 17.7715C23.7329 17.7588 23.7201 17.7487 23.7055 17.7419C23.691 17.7351 23.675 17.7319 23.659 17.7325C22.843 17.7629 22.0442 17.8866 21.2625 18.1035Z" fill="#9B56D6"/>
<path d="M23.5102 19.5338L23.4249 19.0736C23.4206 19.052 23.408 19.0331 23.3898 19.0208C23.3716 19.0086 23.3493 19.004 23.3277 19.0081L21.2308 19.3969C20.7094 19.4935 20.2152 19.618 19.8567 19.743C19.4981 19.8679 19.3045 19.9832 19.3184 20.0635L19.3223 20.0833C19.3391 20.1629 19.5615 20.201 19.9407 20.1891C20.32 20.1772 20.8252 20.1163 21.3459 20.0199L23.4428 19.631C23.4536 19.6291 23.464 19.6251 23.4732 19.6191C23.4825 19.6132 23.4905 19.6055 23.4968 19.5965C23.503 19.5874 23.5074 19.5772 23.5098 19.5665C23.5121 19.5557 23.5122 19.5446 23.5102 19.5338Z" fill="#9B56D6"/>
<path d="M18.8998 20.8531C18.38 20.8385 17.966 20.9734 17.6579 21.2578C17.5891 21.3199 17.6017 21.357 17.6956 21.3689C19.4519 21.5778 21.1878 21.4727 22.9032 21.0534C22.9825 21.0336 23.0354 20.9853 23.0619 20.9086L23.1829 20.5575C23.1898 20.5367 23.1911 20.5145 23.1866 20.493C23.182 20.4716 23.1719 20.4518 23.1571 20.4356C23.1423 20.4194 23.1235 20.4075 23.1026 20.401C23.0817 20.3945 23.0594 20.3938 23.0381 20.3988C21.656 20.7413 20.2766 20.8927 18.8998 20.8531Z" fill="#9B56D6"/>
<path d="M22.7088 21.8252C20.7467 22.2259 18.9652 22.21 16.9973 21.9005C16.6719 21.8509 16.414 22.0196 16.2057 22.2338C16.1369 22.3052 16.1508 22.3515 16.2474 22.3727C18.3542 22.8382 20.4697 22.8733 22.5937 22.4778C22.6836 22.462 22.7359 22.4084 22.7504 22.3171L22.8159 21.9283C22.8304 21.8423 22.7947 21.808 22.7088 21.8252Z" fill="#9B56D6"/>
<path d="M23.292 22.2517C23.4507 22.257 23.4441 22.1935 23.2722 22.0612C23.2246 22.0242 23.2014 22.0361 23.2027 22.0969C23.2027 22.1155 23.2027 22.136 23.2027 22.1584C23.2027 22.1825 23.212 22.2056 23.2286 22.223C23.2453 22.2404 23.268 22.2507 23.292 22.2517Z" fill="#9B56D6"/>
<path d="M22.4191 23.2059C20.1337 23.5352 17.9475 23.4261 15.7216 22.825C15.6463 22.8052 15.5801 22.8204 15.5233 22.8706L15.1979 23.1583C15.1829 23.1715 15.1717 23.1886 15.1656 23.2076C15.1594 23.2267 15.1585 23.247 15.163 23.2665C15.1675 23.286 15.1771 23.304 15.191 23.3184C15.2048 23.3329 15.2223 23.3434 15.2416 23.3487C17.5415 23.9928 19.8785 24.1641 22.2525 23.8626C22.3305 23.852 22.3794 23.809 22.3993 23.7336L22.5104 23.3091C22.5315 23.2284 22.5011 23.194 22.4191 23.2059Z" fill="#9B56D6"/>
<path d="M23.1035 23.067L22.8992 23.5987C22.8948 23.61 22.8926 23.6221 22.8929 23.6343C22.8932 23.6464 22.8959 23.6584 22.9009 23.6695C22.9059 23.6806 22.9131 23.6906 22.922 23.6989C22.9309 23.7071 22.9413 23.7136 22.9528 23.7177L22.9627 23.7217C23.0658 23.7612 23.1781 23.7641 23.2748 23.7299C23.3715 23.6957 23.4448 23.6271 23.4785 23.5392L23.4944 23.4995C23.5113 23.4559 23.5179 23.4088 23.5139 23.361C23.5099 23.3131 23.4953 23.2654 23.471 23.2206C23.4466 23.1758 23.413 23.1348 23.3721 23.0999C23.3312 23.0651 23.2837 23.037 23.2325 23.0174L23.2226 23.0135C23.2113 23.009 23.1992 23.0069 23.187 23.0072C23.1748 23.0075 23.1629 23.0102 23.1518 23.0152C23.1407 23.0202 23.1307 23.0274 23.1224 23.0363C23.1141 23.0452 23.1077 23.0556 23.1035 23.067Z" fill="#9B56D6"/>
<path d="M22.0799 24.547C19.6338 24.8446 17.2472 24.5648 14.8587 23.8308C14.7767 23.8057 14.7112 23.8282 14.6623 23.8983L14.4421 24.2177C14.4343 24.2288 14.4292 24.2416 14.4272 24.255C14.4252 24.2685 14.4263 24.2822 14.4306 24.2951C14.4348 24.308 14.442 24.3197 14.4516 24.3294C14.4611 24.339 14.4728 24.3463 14.4857 24.3506C15.3903 24.6548 16.3128 24.8842 17.2532 25.039C17.3194 25.0494 17.3872 25.0419 17.4496 25.0172C18.3106 24.664 18.5943 25.162 19.3065 25.2334C20.1794 25.3207 21.0555 25.3101 21.9351 25.2017C21.9999 25.1937 22.0402 25.158 22.0561 25.0945L22.1691 24.6482C22.189 24.5715 22.1592 24.5377 22.0799 24.547Z" fill="#9B56D6"/>
<path d="M22.7941 25.1402L23.5876 24.9537C23.6147 24.9471 23.6381 24.93 23.6526 24.9062C23.6671 24.8824 23.6715 24.8538 23.665 24.8267L23.6451 24.7434C23.6177 24.627 23.5499 24.5251 23.4565 24.46C23.3632 24.3949 23.252 24.372 23.1472 24.3962L22.9409 24.4438C22.836 24.4687 22.7463 24.5389 22.6916 24.639C22.637 24.739 22.6217 24.8608 22.6492 24.9775L22.6691 25.0608C22.6752 25.0878 22.6918 25.1114 22.7152 25.1262C22.7386 25.1411 22.767 25.1461 22.7941 25.1402Z" fill="#9B56D6"/>
<path d="M16.3624 25.4734L14.0572 24.8684C14.044 24.8647 14.03 24.8664 14.0181 24.8731C14.0062 24.8798 13.9974 24.8909 13.9937 24.9041L13.9838 24.9398C13.9467 25.0812 13.9623 25.2302 14.027 25.3541C14.0917 25.4779 14.2003 25.5665 14.329 25.6004L15.7653 25.9774C15.8941 26.0109 16.0322 25.987 16.1494 25.9107C16.2666 25.8344 16.3532 25.7121 16.3902 25.5707L16.4001 25.5369C16.4019 25.5303 16.4023 25.5234 16.4014 25.5165C16.4005 25.5097 16.3982 25.5032 16.3946 25.4973C16.3911 25.4913 16.3865 25.4862 16.3809 25.4821C16.3754 25.478 16.3691 25.4751 16.3624 25.4734Z" fill="#9B56D6"/>
<path d="M23.676 25.8058C23.672 25.7713 23.6545 25.7398 23.6274 25.7181C23.6002 25.6965 23.5655 25.6866 23.531 25.6905L22.6046 25.7961C22.5701 25.8 22.5386 25.8175 22.517 25.8447C22.4954 25.8718 22.4854 25.9065 22.4894 25.941L22.5311 26.3076C22.5351 26.3421 22.5525 26.3736 22.5797 26.3953C22.6069 26.4169 22.6415 26.4268 22.676 26.4229L23.6025 26.3173C23.637 26.3134 23.6685 26.2959 23.6901 26.2688C23.7117 26.2416 23.7217 26.2069 23.7177 26.1724L23.676 25.8058Z" fill="#9B56D6"/>
<path d="M16.9933 26.2571C17.1996 26.3721 17.3497 26.347 17.4436 26.1817C17.4684 26.1383 17.4766 26.0875 17.4666 26.0388C17.4566 25.99 17.4291 25.9465 17.3892 25.9163C17.3494 25.8861 17.2998 25.8712 17.2496 25.8744C17.1994 25.8776 17.1521 25.8987 17.1163 25.9337L16.9695 26.0805C16.9573 26.0929 16.9482 26.108 16.9427 26.1245C16.9372 26.1409 16.9355 26.1584 16.9378 26.1755C16.9401 26.1925 16.9463 26.2088 16.956 26.2229C16.9656 26.2371 16.9783 26.2488 16.9933 26.2571Z" fill="#9B56D6"/>
<path d="M21.7565 25.9099L19.487 25.9297C19.4733 25.9297 19.4602 25.9352 19.4505 25.9448C19.4408 25.9545 19.4354 25.9676 19.4354 25.9813V26.0448C19.4365 26.1857 19.4898 26.3205 19.5836 26.4195C19.6773 26.5184 19.8039 26.5735 19.9353 26.5725L21.3161 26.5606C21.3813 26.5601 21.4457 26.5459 21.5057 26.5187C21.5657 26.4915 21.6201 26.4519 21.6658 26.4022C21.7114 26.3525 21.7475 26.2935 21.772 26.2288C21.7964 26.1641 21.8087 26.0948 21.8081 26.025V25.9615C21.8081 25.9478 21.8027 25.9347 21.793 25.925C21.7833 25.9153 21.7702 25.9099 21.7565 25.9099Z" fill="#9B56D6"/>
<path d="M15.4422 26.5579C15.4465 26.5443 15.4452 26.5296 15.4387 26.517C15.4322 26.5044 15.421 26.4949 15.4074 26.4905L13.7518 25.9622C13.7451 25.9601 13.7381 25.9592 13.7311 25.9598C13.7241 25.9604 13.7172 25.9624 13.711 25.9656C13.7047 25.9688 13.6992 25.9733 13.6946 25.9786C13.6901 25.984 13.6866 25.9902 13.6845 25.9969L13.5253 26.4959C13.521 26.5094 13.5222 26.5241 13.5287 26.5367C13.5352 26.5494 13.5465 26.5589 13.56 26.5632L15.2156 27.0916C15.2223 27.0937 15.2294 27.0945 15.2364 27.0939C15.2434 27.0933 15.2502 27.0914 15.2565 27.0881C15.2627 27.0849 15.2683 27.0805 15.2728 27.0751C15.2774 27.0697 15.2808 27.0635 15.2829 27.0568L15.4422 26.5579Z" fill="#9B56D6"/>
<path d="M16.3208 27.368L17.3504 27.5644C17.3673 27.5676 17.3847 27.5674 17.4016 27.5638C17.4184 27.5602 17.4344 27.5533 17.4486 27.5436C17.4628 27.5338 17.4749 27.5213 17.4843 27.5069C17.4936 27.4924 17.5 27.4762 17.5031 27.4593L17.5051 27.4474C17.5303 27.3151 17.509 27.1796 17.4457 27.0706C17.3825 26.9616 17.2825 26.8881 17.1679 26.8661L16.7473 26.7868C16.6905 26.7759 16.6317 26.7781 16.5745 26.7932C16.5172 26.8083 16.4625 26.836 16.4135 26.8747C16.3645 26.9133 16.3221 26.9623 16.2889 27.0187C16.2556 27.0751 16.2321 27.1378 16.2196 27.2034L16.2156 27.2133C16.2122 27.2304 16.2122 27.248 16.2156 27.265C16.2191 27.2821 16.2259 27.2983 16.2357 27.3128C16.2455 27.3272 16.258 27.3395 16.2726 27.349C16.2873 27.3585 16.3036 27.3649 16.3208 27.368Z" fill="#9B56D6"/>
<path d="M23.8211 27.1579C23.8148 27.1105 23.7899 27.0675 23.7518 27.0384C23.7138 27.0093 23.6658 26.9965 23.6183 27.0028L22.8907 27.0999C22.8433 27.1063 22.8003 27.1312 22.7712 27.1692C22.7421 27.2072 22.7293 27.2553 22.7357 27.3027L22.7708 27.5662C22.7772 27.6137 22.8021 27.6567 22.8401 27.6858C22.8782 27.7149 22.9262 27.7276 22.9736 27.7213L23.7012 27.6242C23.7487 27.6179 23.7917 27.593 23.8208 27.5549C23.8498 27.5169 23.8626 27.4689 23.8563 27.4214L23.8211 27.1579Z" fill="#9B56D6"/>
<path d="M14.7887 27.6879C14.7992 27.6571 14.797 27.6233 14.7826 27.594C14.7682 27.5647 14.7428 27.5424 14.7119 27.5319L13.5212 27.1265C13.4903 27.116 13.4566 27.1182 13.4273 27.1326C13.398 27.147 13.3757 27.1724 13.3652 27.2033L13.2424 27.5639C13.2319 27.5948 13.2341 27.6286 13.2485 27.6579C13.2629 27.6871 13.2883 27.7095 13.3192 27.72L14.5099 28.1253C14.5407 28.1358 14.5745 28.1336 14.6038 28.1192C14.6331 28.1048 14.6554 28.0794 14.6659 28.0485L14.7887 27.6879Z" fill="#9B56D6"/>
<path d="M21.3538 27.2153L19.7548 27.1915C19.7426 27.1915 19.7304 27.1939 19.7191 27.1986C19.7078 27.2032 19.6975 27.2101 19.6889 27.2188C19.6802 27.2274 19.6733 27.2377 19.6687 27.249C19.664 27.2603 19.6616 27.2725 19.6616 27.2847L19.6576 27.489C19.6569 27.5366 19.6669 27.5838 19.6869 27.6279C19.707 27.6721 19.7368 27.7124 19.7746 27.7465C19.8124 27.7806 19.8574 27.8078 19.9071 27.8266C19.9568 27.8454 20.0102 27.8554 20.0643 27.8561L21.0284 27.868C21.1371 27.8692 21.2418 27.8326 21.3195 27.766C21.3972 27.6994 21.4417 27.6084 21.4431 27.5128L21.447 27.3085C21.447 27.2838 21.4372 27.2601 21.4197 27.2426C21.4022 27.2251 21.3785 27.2153 21.3538 27.2153Z" fill="#9B56D6"/>
<path d="M17.5309 28.7091C17.644 28.0167 16.8762 28.0624 16.414 27.983C16.3585 27.9724 16.3261 27.9949 16.3168 28.0505C16.1859 28.7984 16.9159 28.6655 17.3504 28.8162C17.3693 28.8229 17.3894 28.8253 17.4093 28.8233C17.4292 28.8214 17.4485 28.815 17.4657 28.8048C17.4829 28.7946 17.4976 28.7807 17.5089 28.7642C17.5202 28.7477 17.5277 28.7289 17.5309 28.7091Z" fill="#9B56D6"/>
<path d="M14.2742 28.757C14.2791 28.7428 14.2813 28.7277 14.2804 28.7126C14.2795 28.6975 14.2757 28.6827 14.2691 28.6691C14.2625 28.6555 14.2533 28.6433 14.2421 28.6333C14.2308 28.6232 14.2176 28.6155 14.2033 28.6105L13.2404 28.2752C13.2261 28.2702 13.211 28.2681 13.1959 28.269C13.1808 28.2698 13.166 28.2737 13.1524 28.2802C13.1388 28.2868 13.1267 28.296 13.1166 28.3073C13.1066 28.3186 13.0988 28.3317 13.0939 28.346L12.9634 28.7207C12.9584 28.735 12.9563 28.7501 12.9572 28.7652C12.958 28.7802 12.9619 28.795 12.9684 28.8086C12.975 28.8222 12.9842 28.8344 12.9955 28.8444C13.0068 28.8545 13.0199 28.8622 13.0342 28.8672L13.9972 29.2025C14.0114 29.2075 14.0265 29.2096 14.0416 29.2088C14.0567 29.2079 14.0715 29.2041 14.0851 29.1975C14.0987 29.1909 14.1109 29.1817 14.1209 29.1704C14.131 29.1591 14.1387 29.146 14.1437 29.1317L14.2742 28.757Z" fill="#9B56D6"/>
<path d="M23.9228 28.4269C23.9204 28.4064 23.9141 28.3866 23.9041 28.3687C23.8941 28.3507 23.8806 28.3348 23.8645 28.322C23.8483 28.3093 23.8299 28.2998 23.8101 28.2941C23.7903 28.2885 23.7696 28.2868 23.7491 28.2892L23.1067 28.3635C23.0862 28.3659 23.0664 28.3723 23.0485 28.3823C23.0305 28.3923 23.0146 28.4057 23.0019 28.4219C22.9891 28.438 22.9796 28.4565 22.974 28.4763C22.9683 28.4961 22.9666 28.5168 22.969 28.5372L23.0064 28.8604C23.0088 28.8809 23.0151 28.9006 23.0251 28.9186C23.0351 28.9366 23.0486 28.9524 23.0647 28.9652C23.0809 28.978 23.0993 28.9875 23.1191 28.9931C23.1389 28.9988 23.1597 29.0005 23.1801 28.9981L23.8225 28.9238C23.843 28.9214 23.8628 28.915 23.8807 28.905C23.8987 28.895 23.9146 28.8816 23.9273 28.8654C23.9401 28.8493 23.9496 28.8308 23.9552 28.811C23.9609 28.7912 23.9626 28.7705 23.9602 28.7501L23.9228 28.4269Z" fill="#9B56D6"/>
<path d="M21.1239 28.6203C21.1252 28.5862 21.1128 28.5529 21.0895 28.5278C21.0662 28.5028 21.0339 28.488 20.9998 28.4868L19.8301 28.4439C19.7959 28.4426 19.7626 28.455 19.7376 28.4783C19.7125 28.5015 19.6978 28.5338 19.6965 28.568L19.6831 28.9328C19.6819 28.967 19.6943 29.0002 19.7175 29.0253C19.7408 29.0503 19.7731 29.0651 19.8073 29.0664L20.977 29.1092C21.0111 29.1105 21.0444 29.0981 21.0695 29.0748C21.0945 29.0516 21.1093 29.0193 21.1105 28.9851L21.1239 28.6203Z" fill="#9B56D6"/>
<path d="M17.5408 30.0026C17.7829 29.3003 17.0726 29.334 16.6441 29.2686C16.5635 29.2567 16.5297 29.291 16.543 29.3717L16.6124 29.7883C16.6243 29.8624 16.6666 29.9074 16.7394 29.9232L17.4139 30.074C17.4773 30.0885 17.5197 30.0647 17.5408 30.0026Z" fill="#9B56D6"/>
<path d="M13.8504 29.9047C13.8568 29.8873 13.8597 29.8688 13.859 29.8504C13.8582 29.8319 13.8539 29.8137 13.8461 29.7969C13.8384 29.7801 13.8274 29.765 13.8138 29.7525C13.8002 29.74 13.7842 29.7302 13.7669 29.7238L13.0259 29.4512C12.9908 29.4383 12.9521 29.4399 12.9182 29.4555C12.8842 29.4712 12.8579 29.4997 12.845 29.5347L12.7245 29.8624C12.7181 29.8798 12.7152 29.8982 12.7159 29.9167C12.7167 29.9352 12.7211 29.9534 12.7288 29.9702C12.7366 29.9869 12.7476 30.002 12.7612 30.0146C12.7748 30.0271 12.7907 30.0369 12.808 30.0433L13.5491 30.3159C13.5841 30.3288 13.6229 30.3272 13.6568 30.3116C13.6907 30.2959 13.717 30.2674 13.7299 30.2323L13.8504 29.9047Z" fill="#9B56D6"/>
<path d="M24.0566 29.7385C24.0509 29.6888 24.0256 29.6435 23.9865 29.6124C23.9473 29.5814 23.8974 29.5672 23.8477 29.5729L23.3787 29.6272C23.3291 29.6329 23.2837 29.6582 23.2527 29.6973C23.2216 29.7365 23.2074 29.7864 23.2132 29.8361L23.2455 30.1159C23.2513 30.1656 23.2765 30.2109 23.3157 30.242C23.3549 30.273 23.4048 30.2872 23.4544 30.2815L23.9234 30.2272C23.9731 30.2214 24.0184 30.1962 24.0495 30.157C24.0805 30.1179 24.0947 30.068 24.089 30.0183L24.0566 29.7385Z" fill="#9B56D6"/>
<path d="M20.6674 29.703L19.7191 29.6832C19.7003 29.6826 19.6817 29.6858 19.6641 29.6925C19.6466 29.6992 19.6306 29.7093 19.6169 29.7222C19.6033 29.7351 19.5923 29.7505 19.5847 29.7677C19.577 29.7848 19.5728 29.8033 19.5723 29.822L19.5703 29.9708C19.5678 30.0712 19.5991 30.1683 19.6571 30.2408C19.7151 30.3134 19.7952 30.3554 19.8798 30.3577L20.4749 30.3696C20.5595 30.3713 20.6414 30.3333 20.7027 30.2637C20.7641 30.1942 20.7999 30.0989 20.8023 29.9986L20.8062 29.8498C20.8068 29.8311 20.8036 29.8124 20.7969 29.7948C20.7902 29.7773 20.7801 29.7613 20.7672 29.7476C20.7543 29.734 20.7389 29.723 20.7217 29.7154C20.7046 29.7077 20.6861 29.7035 20.6674 29.703Z" fill="#9B56D6"/>
<path d="M17.5726 31.2008C17.8702 30.7068 17.2095 30.6334 16.8921 30.5521C16.826 30.5349 16.7903 30.5607 16.785 30.6295C16.7599 30.9429 16.8723 31.1724 17.1222 31.3179C17.1973 31.3613 17.2866 31.3733 17.3708 31.3515C17.455 31.3296 17.5274 31.2755 17.5726 31.2008Z" fill="#9B56D6"/>
<path d="M13.4305 30.9985C13.4422 30.9647 13.4401 30.9276 13.4245 30.8954C13.4089 30.8632 13.3812 30.8385 13.3474 30.8267L12.7591 30.6219C12.7254 30.6101 12.6883 30.6122 12.6561 30.6278C12.6239 30.6434 12.5992 30.6711 12.5874 30.7049L12.47 31.0421C12.4582 31.0759 12.4603 31.113 12.4759 31.1452C12.4915 31.1774 12.5192 31.2021 12.553 31.2139L13.1413 31.4187C13.1751 31.4305 13.2121 31.4284 13.2443 31.4128C13.2766 31.3972 13.3013 31.3695 13.313 31.3357L13.4305 30.9985Z" fill="#9B56D6"/>
<path d="M24.1839 31.3693C24.2221 31.2815 24.2207 31.1808 24.1802 31.0893C24.1396 30.9979 24.0632 30.9232 23.9676 30.8816C23.8721 30.8401 23.7653 30.8351 23.6708 30.8678C23.5762 30.9006 23.5016 30.9683 23.4635 31.0561C23.4253 31.1439 23.4266 31.2446 23.4672 31.3361C23.5077 31.4276 23.5842 31.5023 23.6797 31.5438C23.7752 31.5854 23.882 31.5903 23.9766 31.5576C24.0711 31.5249 24.1457 31.4572 24.1839 31.3693Z" fill="#9B56D6"/>
<path d="M20.3321 30.9608L19.606 30.9211C19.5685 30.9195 19.5318 30.9327 19.5039 30.958C19.4761 30.9832 19.4593 31.0185 19.4572 31.056L19.4473 31.2286C19.4422 31.3215 19.4651 31.4121 19.5109 31.4806C19.5566 31.549 19.6215 31.5897 19.6913 31.5936L20.1754 31.6194C20.245 31.6229 20.3137 31.5897 20.3665 31.5268C20.4193 31.464 20.4518 31.3768 20.4571 31.2841L20.467 31.1115C20.4681 31.0928 20.4654 31.074 20.4592 31.0562C20.453 31.0385 20.4434 31.0222 20.4309 31.0082C20.4183 30.9942 20.4031 30.9828 20.3862 30.9746C20.3693 30.9665 20.3509 30.9618 20.3321 30.9608Z" fill="#9B56D6"/>
<path d="M13.0214 32.1227C13.0335 32.0923 13.033 32.0585 13.0201 32.0285C13.0072 31.9986 12.983 31.975 12.9526 31.9629L12.5324 31.7956C12.5174 31.7897 12.5013 31.7867 12.4852 31.7869C12.469 31.7872 12.4531 31.7906 12.4383 31.797C12.4234 31.8033 12.41 31.8126 12.3987 31.8242C12.3875 31.8358 12.3786 31.8494 12.3726 31.8645L12.2362 32.2073C12.2241 32.2376 12.2246 32.2715 12.2375 32.3014C12.2504 32.3314 12.2747 32.355 12.305 32.367L12.7253 32.5343C12.7403 32.5403 12.7563 32.5432 12.7725 32.543C12.7886 32.5428 12.8046 32.5394 12.8194 32.533C12.8342 32.5266 12.8477 32.5173 12.8589 32.5058C12.8702 32.4942 12.8791 32.4805 12.885 32.4655L13.0214 32.1227Z" fill="#9B56D6"/>
<path d="M17.5785 32.5181C18.0209 32.1392 17.4575 31.8654 17.0707 31.8476C16.9992 31.8449 16.9721 31.878 16.9893 31.9467L17.0905 32.3594C17.1027 32.4094 17.1274 32.4554 17.1624 32.4931C17.1973 32.5308 17.2413 32.559 17.2902 32.5749C17.3391 32.5908 17.3913 32.5939 17.4418 32.584C17.4922 32.574 17.5393 32.5514 17.5785 32.5181Z" fill="#9B56D6"/>
<path d="M20.111 32.4268C20.1164 32.3713 20.0996 32.3159 20.0642 32.2729C20.0288 32.2298 19.9777 32.2025 19.9222 32.197L19.5826 32.1637C19.5552 32.161 19.5274 32.1638 19.501 32.1718C19.4746 32.1798 19.45 32.193 19.4286 32.2105C19.4073 32.2281 19.3896 32.2496 19.3766 32.274C19.3636 32.2983 19.3555 32.325 19.3528 32.3525L19.3312 32.5736C19.3257 32.6291 19.3426 32.6845 19.378 32.7276C19.4134 32.7707 19.4644 32.798 19.5199 32.8034L19.8595 32.8367C19.887 32.8394 19.9147 32.8367 19.9412 32.8287C19.9676 32.8206 19.9922 32.8075 20.0135 32.79C20.0349 32.7724 20.0525 32.7509 20.0655 32.7265C20.0785 32.7021 20.0866 32.6755 20.0893 32.648L20.111 32.4268Z" fill="#9B56D6"/>
<path d="M24.1258 32.8226C24.1631 32.8092 24.1969 32.7873 24.2253 32.7582C24.2537 32.7291 24.2762 32.6934 24.2914 32.653C24.3066 32.6127 24.3143 32.5685 24.3141 32.5231C24.3138 32.4776 24.3056 32.4318 24.2899 32.3882C24.2742 32.3445 24.2513 32.304 24.2225 32.2688C24.1938 32.2336 24.1597 32.2045 24.1222 32.1832C24.0848 32.1618 24.0447 32.1486 24.0042 32.1443C23.9638 32.14 23.9238 32.1447 23.8866 32.1581C23.8493 32.1715 23.8155 32.1934 23.7871 32.2224C23.7587 32.2515 23.7362 32.2873 23.721 32.3276C23.7058 32.368 23.698 32.4121 23.6983 32.4575C23.6986 32.503 23.7068 32.5488 23.7225 32.5925C23.7382 32.6361 23.7611 32.6767 23.7899 32.7118C23.8186 32.747 23.8527 32.7761 23.8902 32.7975C23.9276 32.8189 23.9677 32.8321 24.0081 32.8364C24.0486 32.8407 24.0886 32.836 24.1258 32.8226Z" fill="#9B56D6"/>
<path d="M12.5653 33.0478L12.2797 32.9526C12.1897 32.9221 12.1368 32.9539 12.121 33.0478L12.0019 33.7719C11.9951 33.8205 12.0064 33.8698 12.0336 33.9107C12.0608 33.9515 12.102 33.9809 12.1494 33.9934C12.1969 34.0059 12.2472 34.0005 12.291 33.9783C12.3347 33.9562 12.3688 33.9187 12.3868 33.8731L12.6348 33.1906C12.6612 33.1192 12.6381 33.0716 12.5653 33.0478Z" fill="#9B56D6"/>
<path d="M17.6726 33.2829C17.6681 33.24 17.6466 33.2007 17.613 33.1736C17.5795 33.1465 17.5365 33.1339 17.4936 33.1385L17.4029 33.1482C17.36 33.1528 17.3206 33.1742 17.2935 33.2078C17.2665 33.2413 17.2538 33.2843 17.2584 33.3272L17.3098 33.8085C17.3144 33.8514 17.3359 33.8908 17.3694 33.9178C17.403 33.9449 17.446 33.9576 17.4889 33.953L17.5796 33.9433C17.6225 33.9387 17.6618 33.9173 17.6889 33.8837C17.716 33.8501 17.7287 33.8071 17.7241 33.7642L17.6726 33.2829Z" fill="#9B56D6"/>
<path d="M19.2796 33.8985C19.3296 33.9489 19.4003 33.9747 19.4761 33.9702C19.5519 33.9657 19.6265 33.9314 19.6836 33.8746C19.7408 33.8179 19.7757 33.7435 19.7807 33.6677C19.7857 33.592 19.7603 33.5211 19.7103 33.4707C19.6602 33.4203 19.5895 33.3945 19.5138 33.399C19.438 33.4035 19.3633 33.4378 19.3062 33.4946C19.2491 33.5513 19.2142 33.6257 19.2092 33.7015C19.2042 33.7772 19.2295 33.8481 19.2796 33.8985Z" fill="#9B56D6"/>
<path d="M24.4327 33.7064C24.4327 33.6422 24.4072 33.5807 24.3618 33.5353C24.3164 33.4899 24.2549 33.4644 24.1907 33.4644C24.1265 33.4644 24.0649 33.4899 24.0195 33.5353C23.9742 33.5807 23.9487 33.6422 23.9487 33.7064C23.9487 33.7706 23.9742 33.8322 24.0195 33.8776C24.0649 33.923 24.1265 33.9485 24.1907 33.9485C24.2549 33.9485 24.3164 33.923 24.3618 33.8776C24.4072 33.8322 24.4327 33.7706 24.4327 33.7064Z" fill="#9B56D6"/>
<path d="M25.1033 6.54357C25.2534 6.54357 25.375 6.42189 25.375 6.27179C25.375 6.12168 25.2534 6 25.1033 6C24.9532 6 24.8315 6.12168 24.8315 6.27179C24.8315 6.42189 24.9532 6.54357 25.1033 6.54357Z" fill="#9B56D6"/>
<path d="M24.3395 7.10104C23.9837 7.03226 23.7893 6.82793 23.7562 6.48803C23.7523 6.45042 23.7635 6.4128 23.7873 6.38342C23.8111 6.35405 23.8456 6.3353 23.8832 6.3313C24.0882 6.30882 24.2469 6.37296 24.3593 6.52374C24.3897 6.56474 24.4089 6.61036 24.4168 6.66062L24.4783 7.06731C24.4889 7.13608 24.5286 7.17841 24.5974 7.19428C25.5047 7.39002 26.3987 7.64858 27.2795 7.96996C27.3362 7.99034 27.383 8.03099 27.411 8.08403C27.4391 8.13707 27.4462 8.19873 27.4311 8.25704C27.4161 8.31535 27.3798 8.36616 27.3295 8.39963C27.2791 8.43309 27.2182 8.44682 27.1585 8.43815L24.5934 8.0394C24.5332 8.0301 24.4788 7.99808 24.4413 7.94983C24.4037 7.90157 24.3857 7.84069 24.3911 7.77951L24.4387 7.23594C24.4413 7.20495 24.4327 7.17409 24.4144 7.14922C24.3961 7.12436 24.3695 7.10721 24.3395 7.10104Z" fill="#9B56D6"/>
<path d="M25.4303 8.78209L24.2622 8.70656C24.2065 8.70296 24.1583 8.74523 24.1547 8.80099L24.1263 9.2405C24.1227 9.29626 24.165 9.3444 24.2208 9.348L25.3888 9.42353C25.4446 9.42713 25.4927 9.38486 25.4963 9.3291L25.5247 8.88959C25.5283 8.83383 25.486 8.78569 25.4303 8.78209Z" fill="#9B56D6"/>
<path d="M25.2148 10.0277L23.906 9.9912C23.86 9.98992 23.8216 10.0262 23.8204 10.0722L23.8077 10.5243C23.8064 10.5703 23.8427 10.6086 23.8887 10.6099L25.1975 10.6465C25.2435 10.6478 25.2818 10.6115 25.2831 10.5655L25.2958 10.1134C25.2971 10.0674 25.2608 10.029 25.2148 10.0277Z" fill="#9B56D6"/>
<path d="M24.9326 11.2532H23.6273C23.5517 11.2532 23.4904 11.3145 23.4904 11.3901V11.7472C23.4904 11.8228 23.5517 11.8841 23.6273 11.8841H24.9326C25.0082 11.8841 25.0695 11.8228 25.0695 11.7472V11.3901C25.0695 11.3145 25.0082 11.2532 24.9326 11.2532Z" fill="#9B56D6"/>
<path d="M24.7579 12.5278L23.195 12.5578C23.1654 12.5584 23.1419 12.5828 23.1424 12.6124L23.1522 13.1241C23.1528 13.1537 23.1773 13.1772 23.2068 13.1766L24.7698 13.1466C24.7994 13.1461 24.8229 13.1216 24.8223 13.092L24.8125 12.5803C24.812 12.5507 24.7875 12.5272 24.7579 12.5278Z" fill="#9B56D6"/>
<path d="M22.7544 13.8937C22.7544 13.8799 22.7597 13.8665 22.7694 13.8565C22.779 13.8465 22.7921 13.8407 22.806 13.8402L24.3454 13.8223C24.376 13.8218 24.4064 13.8289 24.4349 13.843C24.4633 13.8571 24.4892 13.878 24.5112 13.9046C24.5331 13.9311 24.5506 13.9628 24.5627 13.9977C24.5748 14.0326 24.5812 14.0701 24.5815 14.108V14.1477C24.5822 14.2237 24.5586 14.2968 24.5159 14.3511C24.4731 14.4054 24.4147 14.4364 24.3534 14.4373L22.8139 14.4552C22.8067 14.4554 22.7995 14.4542 22.7928 14.4517C22.7861 14.4491 22.7799 14.4452 22.7747 14.4402C22.7695 14.4352 22.7654 14.4292 22.7626 14.4226C22.7598 14.4159 22.7583 14.4088 22.7584 14.4016L22.7544 13.8937Z" fill="#9B56D6"/>
<path d="M22.2366 15.2864C22.2358 15.2791 22.2364 15.2717 22.2385 15.2646C22.2405 15.2576 22.2439 15.251 22.2486 15.2453C22.2532 15.2396 22.2589 15.2348 22.2653 15.2313C22.2718 15.2278 22.2789 15.2256 22.2862 15.2249L24.0042 15.0444C24.0455 15.04 24.0871 15.0435 24.1268 15.0547C24.1665 15.0658 24.2035 15.0843 24.2355 15.1092C24.2676 15.1341 24.2942 15.1648 24.3137 15.1997C24.3332 15.2345 24.3454 15.2727 24.3494 15.3122L24.3534 15.3558C24.3613 15.435 24.3361 15.5143 24.2833 15.5764C24.2305 15.6385 24.1545 15.6783 24.0717 15.6871L22.3536 15.8677C22.3392 15.8694 22.3247 15.8653 22.3132 15.8564C22.3017 15.8475 22.2941 15.8345 22.2921 15.82L22.2366 15.2864Z" fill="#9B56D6"/>
<path d="M21.7486 17.2583C21.7404 17.2595 21.7322 17.2575 21.7255 17.2526C21.7189 17.2478 21.7143 17.2406 21.7129 17.2325V17.2246C21.6901 17.0697 21.7313 16.9118 21.8272 16.7857C21.9232 16.6596 22.0661 16.5756 22.2247 16.5521L23.4547 16.3716C23.5334 16.36 23.6135 16.3638 23.6905 16.3826C23.7675 16.4014 23.8398 16.4349 23.9034 16.4811C23.9669 16.5274 24.0205 16.5855 24.0609 16.6521C24.1014 16.7187 24.1279 16.7926 24.1391 16.8695V16.8774C24.1403 16.8856 24.1382 16.8938 24.1334 16.9005C24.1286 16.9072 24.1214 16.9117 24.1133 16.9131L21.7486 17.2583Z" fill="#9B56D6"/>
<path d="M20.8023 18.6946C20.8598 18.5716 21.1217 18.1411 21.2625 18.1035C22.0442 17.8866 22.843 17.7629 23.659 17.7325C23.675 17.7319 23.691 17.7351 23.7055 17.7419C23.7201 17.7487 23.7329 17.7588 23.7429 17.7715C23.7529 17.7842 23.7598 17.7991 23.7632 17.8151C23.7665 17.831 23.7662 17.8476 23.7622 17.8634L23.6789 18.1749C23.663 18.237 23.6233 18.2741 23.5598 18.286L20.8638 18.774C20.8534 18.7756 20.8427 18.7744 20.8329 18.7706C20.8231 18.7667 20.8146 18.7604 20.8082 18.7522C20.8019 18.744 20.798 18.7343 20.7969 18.7241C20.7959 18.714 20.7977 18.7038 20.8023 18.6946Z" fill="#9B56D6"/>
<path d="M23.5102 19.5338C23.5122 19.5446 23.5121 19.5557 23.5098 19.5665C23.5074 19.5772 23.503 19.5874 23.4968 19.5965C23.4905 19.6055 23.4825 19.6132 23.4732 19.6191C23.464 19.6251 23.4536 19.6291 23.4428 19.631L21.3459 20.0199C20.8252 20.1163 20.32 20.1772 19.9407 20.1891C19.5615 20.201 19.3391 20.1629 19.3223 20.0833L19.3184 20.0635C19.3045 19.9832 19.4981 19.8679 19.8567 19.743C20.2152 19.618 20.7094 19.4935 21.2308 19.3969L23.3277 19.0081C23.3493 19.004 23.3716 19.0086 23.3898 19.0208C23.408 19.0331 23.4206 19.052 23.4249 19.0736L23.5102 19.5338Z" fill="#9B56D6"/>
<path d="M18.8998 20.8531C20.2766 20.8927 21.656 20.7413 23.0381 20.3988C23.0594 20.3938 23.0817 20.3945 23.1026 20.401C23.1235 20.4075 23.1423 20.4194 23.1571 20.4356C23.1719 20.4518 23.182 20.4716 23.1866 20.493C23.1911 20.5145 23.1898 20.5367 23.1829 20.5575L23.0619 20.9086C23.0354 20.9853 22.9825 21.0336 22.9032 21.0534C21.1878 21.4727 19.4519 21.5778 17.6956 21.3689C17.6017 21.357 17.5891 21.3199 17.6579 21.2578C17.966 20.9734 18.38 20.8385 18.8998 20.8531Z" fill="#9B56D6"/>
<path d="M16.9973 21.9005C18.9652 22.21 20.7467 22.2259 22.7088 21.8252C22.7947 21.808 22.8304 21.8423 22.8159 21.9283L22.7504 22.3171C22.7359 22.4084 22.6836 22.462 22.5937 22.4778C20.4697 22.8733 18.3542 22.8382 16.2474 22.3727C16.1508 22.3515 16.1369 22.3052 16.2057 22.2338C16.414 22.0196 16.6719 21.8509 16.9973 21.9005Z" fill="#9B56D6"/>
<path d="M23.2027 22.1584C23.2027 22.136 23.2027 22.1155 23.2027 22.0969C23.2014 22.0361 23.2246 22.0242 23.2722 22.0612C23.4441 22.1935 23.4507 22.257 23.292 22.2517C23.268 22.2507 23.2453 22.2404 23.2286 22.223C23.212 22.2056 23.2027 22.1825 23.2027 22.1584Z" fill="#9B56D6"/>
<path d="M15.7216 22.825C17.9475 23.4261 20.1337 23.5352 22.4191 23.2059C22.5011 23.194 22.5315 23.2284 22.5104 23.3091L22.3993 23.7336C22.3794 23.809 22.3305 23.852 22.2525 23.8626C19.8785 24.1641 17.5415 23.9928 15.2416 23.3487C15.2223 23.3434 15.2048 23.3329 15.191 23.3184C15.1771 23.304 15.1675 23.286 15.163 23.2665C15.1585 23.247 15.1594 23.2267 15.1656 23.2076C15.1717 23.1886 15.1829 23.1715 15.1979 23.1583L15.5233 22.8706C15.5801 22.8204 15.6463 22.8052 15.7216 22.825Z" fill="#9B56D6"/>
<path d="M23.1035 23.067C23.1077 23.0556 23.1141 23.0452 23.1224 23.0363C23.1307 23.0274 23.1407 23.0202 23.1518 23.0152C23.1629 23.0102 23.1748 23.0075 23.187 23.0072C23.1992 23.0069 23.2113 23.009 23.2226 23.0135L23.2325 23.0174C23.2837 23.037 23.3312 23.0651 23.3721 23.0999C23.413 23.1348 23.4466 23.1758 23.471 23.2206C23.4953 23.2654 23.5099 23.3131 23.5139 23.361C23.5179 23.4088 23.5113 23.4559 23.4944 23.4995L23.4785 23.5392C23.4448 23.6271 23.3715 23.6957 23.2748 23.7299C23.1781 23.7641 23.0658 23.7612 22.9627 23.7217L22.9528 23.7177C22.9413 23.7136 22.9309 23.7071 22.922 23.6989C22.9131 23.6906 22.9059 23.6806 22.9009 23.6695C22.8959 23.6584 22.8932 23.6464 22.8929 23.6343C22.8926 23.6221 22.8948 23.61 22.8992 23.5987L23.1035 23.067Z" fill="#9B56D6"/>
<path d="M14.8587 23.8308C17.2472 24.5648 19.6338 24.8446 22.0799 24.547C22.1592 24.5377 22.189 24.5715 22.1691 24.6482L22.0561 25.0945C22.0402 25.158 21.9999 25.1937 21.9351 25.2017C21.0555 25.3101 20.1794 25.3207 19.3065 25.2334C18.5943 25.162 18.3106 24.664 17.4496 25.0172C17.3872 25.0419 17.3194 25.0494 17.2532 25.039C16.3128 24.8842 15.3903 24.6548 14.4857 24.3506C14.4728 24.3463 14.4611 24.339 14.4516 24.3294C14.442 24.3197 14.4348 24.308 14.4306 24.2951C14.4263 24.2822 14.4252 24.2685 14.4272 24.255C14.4292 24.2416 14.4343 24.2288 14.4421 24.2177L14.6623 23.8983C14.7112 23.8282 14.7767 23.8057 14.8587 23.8308Z" fill="#9B56D6"/>
<path d="M22.7941 25.1402C22.767 25.1461 22.7386 25.1411 22.7152 25.1262C22.6918 25.1114 22.6752 25.0878 22.6691 25.0608L22.6492 24.9775C22.6217 24.8608 22.637 24.739 22.6916 24.639C22.7463 24.5389 22.836 24.4687 22.9409 24.4438L23.1472 24.3962C23.252 24.372 23.3632 24.3949 23.4565 24.46C23.5499 24.5251 23.6177 24.627 23.6451 24.7434L23.665 24.8267C23.6715 24.8538 23.6671 24.8824 23.6526 24.9062C23.6381 24.93 23.6147 24.9471 23.5876 24.9537L22.7941 25.1402Z" fill="#9B56D6"/>
<path d="M16.3624 25.4734C16.3691 25.4751 16.3754 25.478 16.3809 25.4821C16.3865 25.4862 16.3911 25.4913 16.3946 25.4973C16.3982 25.5032 16.4005 25.5097 16.4014 25.5165C16.4023 25.5234 16.4019 25.5303 16.4001 25.5369L16.3902 25.5707C16.3532 25.7121 16.2666 25.8344 16.1494 25.9107C16.0322 25.987 15.8941 26.0109 15.7653 25.9774L14.329 25.6004C14.2003 25.5665 14.0917 25.4779 14.027 25.3541C13.9623 25.2302 13.9467 25.0812 13.9838 24.9398L13.9937 24.9041C13.9974 24.8909 14.0062 24.8798 14.0181 24.8731C14.03 24.8664 14.044 24.8647 14.0572 24.8684L16.3624 25.4734Z" fill="#9B56D6"/>
<path d="M23.531 25.6905L22.6046 25.7961C22.5328 25.8043 22.4812 25.8691 22.4894 25.941L22.5311 26.3076C22.5393 26.3795 22.6042 26.4311 22.676 26.4229L23.6025 26.3173C23.6743 26.3092 23.7259 26.2443 23.7177 26.1724L23.676 25.8058C23.6678 25.7339 23.6029 25.6823 23.531 25.6905Z" fill="#9B56D6"/>
<path d="M16.9933 26.2571C16.9783 26.2488 16.9656 26.2371 16.956 26.2229C16.9463 26.2088 16.9401 26.1925 16.9378 26.1755C16.9355 26.1584 16.9372 26.1409 16.9427 26.1245C16.9482 26.108 16.9573 26.0929 16.9695 26.0805L17.1163 25.9337C17.1521 25.8987 17.1994 25.8776 17.2496 25.8744C17.2998 25.8712 17.3494 25.8861 17.3892 25.9163C17.4291 25.9465 17.4566 25.99 17.4666 26.0388C17.4766 26.0875 17.4684 26.1383 17.4436 26.1817C17.3497 26.347 17.1996 26.3721 16.9933 26.2571Z" fill="#9B56D6"/>
<path d="M21.7565 25.9099C21.7702 25.9099 21.7833 25.9153 21.793 25.925C21.8027 25.9347 21.8081 25.9478 21.8081 25.9615V26.025C21.8087 26.0948 21.7964 26.1641 21.772 26.2288C21.7475 26.2935 21.7114 26.3525 21.6658 26.4022C21.6201 26.4519 21.5657 26.4915 21.5057 26.5187C21.4457 26.5459 21.3813 26.5601 21.3161 26.5606L19.9353 26.5725C19.8039 26.5735 19.6773 26.5184 19.5836 26.4195C19.4898 26.3205 19.4365 26.1857 19.4354 26.0448V25.9813C19.4354 25.9676 19.4408 25.9545 19.4505 25.9448C19.4602 25.9352 19.4733 25.9297 19.487 25.9297L21.7565 25.9099Z" fill="#9B56D6"/>
<path d="M15.4074 26.4905L13.7518 25.9622C13.7237 25.9532 13.6935 25.9687 13.6845 25.9969L13.5253 26.4959C13.5163 26.5241 13.5318 26.5542 13.56 26.5632L15.2156 27.0916C15.2438 27.1005 15.2739 27.085 15.2829 27.0568L15.4422 26.5579C15.4512 26.5297 15.4356 26.4995 15.4074 26.4905Z" fill="#9B56D6"/>
<path d="M16.3208 27.368C16.3036 27.3649 16.2873 27.3585 16.2726 27.349C16.258 27.3395 16.2455 27.3272 16.2357 27.3128C16.2259 27.2983 16.2191 27.2821 16.2156 27.265C16.2122 27.248 16.2122 27.2304 16.2156 27.2133L16.2196 27.2034C16.2321 27.1378 16.2556 27.0751 16.2889 27.0187C16.3221 26.9623 16.3645 26.9133 16.4135 26.8747C16.4625 26.836 16.5172 26.8083 16.5745 26.7932C16.6317 26.7781 16.6905 26.7759 16.7473 26.7868L17.1679 26.8661C17.2825 26.8881 17.3825 26.9616 17.4457 27.0706C17.509 27.1796 17.5303 27.3151 17.5051 27.4474L17.5031 27.4593C17.5 27.4762 17.4936 27.4924 17.4843 27.5069C17.4749 27.5213 17.4628 27.5338 17.4486 27.5436C17.4344 27.5533 17.4184 27.5602 17.4016 27.5638C17.3847 27.5674 17.3673 27.5676 17.3504 27.5644L16.3208 27.368Z" fill="#9B56D6"/>
<path d="M23.6183 27.0028L22.8907 27.0999C22.7919 27.1131 22.7225 27.2039 22.7357 27.3027L22.7708 27.5662C22.784 27.6651 22.8748 27.7345 22.9736 27.7213L23.7012 27.6242C23.8 27.611 23.8695 27.5202 23.8563 27.4214L23.8211 27.1579C23.8079 27.0591 23.7171 26.9897 23.6183 27.0028Z" fill="#9B56D6"/>
<path d="M14.7119 27.5319L13.5212 27.1265C13.4569 27.1046 13.387 27.139 13.3652 27.2033L13.2424 27.5639C13.2205 27.6282 13.2549 27.6981 13.3192 27.72L14.5099 28.1253C14.5742 28.1472 14.644 28.1128 14.6659 28.0485L14.7887 27.6879C14.8106 27.6236 14.7762 27.5538 14.7119 27.5319Z" fill="#9B56D6"/>
<path d="M21.3538 27.2153C21.3785 27.2153 21.4022 27.2251 21.4197 27.2426C21.4372 27.2601 21.447 27.2838 21.447 27.3085L21.4431 27.5128C21.4417 27.6084 21.3972 27.6994 21.3195 27.766C21.2418 27.8326 21.1371 27.8692 21.0284 27.868L20.0643 27.8561C20.0102 27.8554 19.9568 27.8454 19.9071 27.8266C19.8574 27.8078 19.8124 27.7806 19.7746 27.7465C19.7368 27.7124 19.707 27.6721 19.6869 27.6279C19.6669 27.5838 19.6569 27.5366 19.6576 27.489L19.6616 27.2847C19.6616 27.2725 19.664 27.2603 19.6687 27.249C19.6733 27.2377 19.6802 27.2274 19.6889 27.2188C19.6975 27.2101 19.7078 27.2032 19.7191 27.1986C19.7304 27.1939 19.7426 27.1915 19.7548 27.1915L21.3538 27.2153Z" fill="#9B56D6"/>
<path d="M16.414 27.983C16.8762 28.0624 17.644 28.0167 17.5309 28.7091C17.5277 28.7289 17.5202 28.7477 17.5089 28.7642C17.4976 28.7807 17.4829 28.7946 17.4657 28.8048C17.4485 28.815 17.4292 28.8214 17.4093 28.8233C17.3894 28.8253 17.3693 28.8229 17.3504 28.8162C16.9159 28.6655 16.1859 28.7984 16.3168 28.0505C16.3261 27.9949 16.3585 27.9724 16.414 27.983Z" fill="#9B56D6"/>
<path d="M14.2033 28.6105L13.2404 28.2752C13.1804 28.2543 13.1148 28.286 13.0939 28.346L12.9634 28.7207C12.9425 28.7807 12.9742 28.8463 13.0342 28.8672L13.9972 29.2025C14.0572 29.2234 14.1228 29.1917 14.1437 29.1317L14.2742 28.757C14.2951 28.697 14.2634 28.6314 14.2033 28.6105Z" fill="#9B56D6"/>
<path d="M23.7491 28.2892L23.1067 28.3635C23.0207 28.3735 22.959 28.4512 22.969 28.5372L23.0064 28.8604C23.0163 28.9464 23.0941 29.008 23.1801 28.9981L23.8225 28.9238C23.9085 28.9138 23.9702 28.836 23.9602 28.7501L23.9228 28.4269C23.9129 28.3409 23.8351 28.2792 23.7491 28.2892Z" fill="#9B56D6"/>
<path d="M20.9998 28.4868L19.8301 28.4439C19.7589 28.4413 19.6991 28.4968 19.6965 28.568L19.6831 28.9328C19.6805 29.004 19.7361 29.0637 19.8073 29.0664L20.977 29.1092C21.0481 29.1119 21.1079 29.0563 21.1105 28.9851L21.1239 28.6203C21.1265 28.5492 21.0709 28.4894 20.9998 28.4868Z" fill="#9B56D6"/>
<path d="M16.6441 29.2686C17.0726 29.334 17.7829 29.3003 17.5408 30.0026C17.5197 30.0647 17.4773 30.0885 17.4139 30.074L16.7394 29.9232C16.6666 29.9074 16.6243 29.8624 16.6124 29.7883L16.543 29.3717C16.5297 29.291 16.5635 29.2567 16.6441 29.2686Z" fill="#9B56D6"/>
<path d="M13.7669 29.7238L13.0259 29.4512C12.9529 29.4243 12.8719 29.4617 12.845 29.5347L12.7245 29.8624C12.6976 29.9354 12.735 30.0164 12.808 30.0433L13.5491 30.3159C13.6221 30.3427 13.703 30.3054 13.7299 30.2323L13.8504 29.9047C13.8773 29.8316 13.8399 29.7507 13.7669 29.7238Z" fill="#9B56D6"/>
<path d="M23.8477 29.5729L23.3787 29.6272C23.2753 29.6392 23.2012 29.7327 23.2132 29.8361L23.2455 30.1159C23.2575 30.2193 23.351 30.2934 23.4544 30.2815L23.9234 30.2272C24.0268 30.2152 24.101 30.1217 24.089 30.0183L24.0566 29.7385C24.0447 29.6351 23.9511 29.5609 23.8477 29.5729Z" fill="#9B56D6"/>
<path d="M20.6674 29.703C20.6861 29.7035 20.7046 29.7077 20.7217 29.7154C20.7389 29.723 20.7543 29.734 20.7672 29.7476C20.7801 29.7613 20.7902 29.7773 20.7969 29.7948C20.8036 29.8124 20.8068 29.8311 20.8062 29.8498L20.8023 29.9986C20.7999 30.0989 20.7641 30.1942 20.7027 30.2637C20.6414 30.3333 20.5595 30.3713 20.4749 30.3696L19.8798 30.3577C19.7952 30.3554 19.7151 30.3134 19.6571 30.2408C19.5991 30.1683 19.5678 30.0712 19.5703 29.9708L19.5723 29.822C19.5728 29.8033 19.577 29.7848 19.5847 29.7677C19.5923 29.7505 19.6033 29.7351 19.6169 29.7222C19.6306 29.7093 19.6466 29.6992 19.6641 29.6925C19.6817 29.6858 19.7003 29.6826 19.7191 29.6832L20.6674 29.703Z" fill="#9B56D6"/>
<path d="M16.8921 30.5521C17.2095 30.6334 17.8702 30.7068 17.5726 31.2008C17.5274 31.2755 17.455 31.3296 17.3708 31.3515C17.2866 31.3733 17.1973 31.3613 17.1222 31.3179C16.8723 31.1724 16.7599 30.9429 16.785 30.6295C16.7903 30.5607 16.826 30.5349 16.8921 30.5521Z" fill="#9B56D6"/>
<path d="M13.3474 30.8267L12.7591 30.6219C12.6888 30.5974 12.6119 30.6345 12.5874 30.7049L12.47 31.0421C12.4455 31.1125 12.4826 31.1894 12.553 31.2139L13.1413 31.4187C13.2116 31.4432 13.2885 31.4061 13.313 31.3357L13.4305 30.9985C13.455 30.9281 13.4178 30.8512 13.3474 30.8267Z" fill="#9B56D6"/>
<path d="M23.6797 31.5438C23.8787 31.6303 24.1044 31.5522 24.1839 31.3693C24.2634 31.1865 24.1666 30.9681 23.9676 30.8816C23.7687 30.7951 23.543 30.8732 23.4635 31.0561C23.3839 31.239 23.4808 31.4573 23.6797 31.5438Z" fill="#9B56D6"/>
<path d="M20.3321 30.9608C20.3509 30.9618 20.3693 30.9665 20.3862 30.9746C20.4031 30.9828 20.4183 30.9942 20.4309 31.0082C20.4434 31.0222 20.453 31.0385 20.4592 31.0562C20.4654 31.074 20.4681 31.0928 20.467 31.1115L20.4571 31.2841C20.4518 31.3768 20.4193 31.464 20.3665 31.5268C20.3137 31.5897 20.245 31.6229 20.1754 31.6194L19.6913 31.5936C19.6215 31.5897 19.5566 31.549 19.5109 31.4806C19.4651 31.4121 19.4422 31.3215 19.4473 31.2286L19.4572 31.056C19.4593 31.0185 19.4761 30.9832 19.5039 30.958C19.5318 30.9327 19.5685 30.9195 19.606 30.9211L20.3321 30.9608Z" fill="#9B56D6"/>
<path d="M12.9526 31.9629L12.5324 31.7956C12.4693 31.7705 12.3977 31.8013 12.3726 31.8645L12.2362 32.2073C12.2111 32.2704 12.2419 32.3419 12.305 32.367L12.7253 32.5343C12.7884 32.5594 12.8599 32.5286 12.885 32.4655L13.0214 32.1227C13.0466 32.0595 13.0158 31.988 12.9526 31.9629Z" fill="#9B56D6"/>
<path d="M17.0707 31.8476C17.4575 31.8654 18.0209 32.1392 17.5785 32.5181C17.5393 32.5514 17.4922 32.574 17.4418 32.584C17.3913 32.5939 17.3391 32.5908 17.2902 32.5749C17.2413 32.559 17.1973 32.5308 17.1624 32.4931C17.1274 32.4554 17.1027 32.4094 17.0905 32.3594L16.9893 31.9467C16.9721 31.878 16.9992 31.8449 17.0707 31.8476Z" fill="#9B56D6"/>
<path d="M19.9222 32.197L19.5826 32.1637C19.4671 32.1524 19.3642 32.2369 19.3528 32.3525L19.3312 32.5736C19.3198 32.6892 19.4043 32.7921 19.5199 32.8034L19.8595 32.8367C19.9751 32.8481 20.078 32.7636 20.0893 32.648L20.111 32.4268C20.1223 32.3113 20.0378 32.2084 19.9222 32.197Z" fill="#9B56D6"/>
<path d="M23.7225 32.5925C23.7885 32.776 23.9691 32.879 24.1258 32.8226C24.2825 32.7662 24.356 32.5717 24.2899 32.3882C24.2238 32.2047 24.0433 32.1017 23.8866 32.1581C23.7299 32.2145 23.6564 32.409 23.7225 32.5925Z" fill="#9B56D6"/>
<path d="M12.5653 33.0478C12.6381 33.0716 12.6612 33.1192 12.6348 33.1906L12.3868 33.8731C12.3688 33.9187 12.3347 33.9562 12.291 33.9783C12.2472 34.0005 12.1969 34.0059 12.1494 33.9934C12.102 33.9809 12.0608 33.9515 12.0336 33.9107C12.0064 33.8698 11.9951 33.8205 12.0019 33.7719L12.121 33.0478C12.1368 32.9539 12.1897 32.9221 12.2797 32.9526L12.5653 33.0478Z" fill="#9B56D6"/>
<path d="M17.4936 33.1385L17.4029 33.1482C17.3135 33.1577 17.2488 33.2379 17.2584 33.3272L17.3098 33.8085C17.3194 33.8979 17.3995 33.9625 17.4889 33.953L17.5796 33.9433C17.669 33.9337 17.7336 33.8536 17.7241 33.7642L17.6726 33.2829C17.6631 33.1936 17.5829 33.1289 17.4936 33.1385Z" fill="#9B56D6"/>
<path d="M19.3062 33.4946C19.1873 33.6127 19.1753 33.7935 19.2796 33.8985C19.3838 34.0034 19.5647 33.9927 19.6836 33.8746C19.8026 33.7565 19.8145 33.5757 19.7103 33.4707C19.6061 33.3658 19.4251 33.3764 19.3062 33.4946Z" fill="#9B56D6"/>
<path d="M24.1907 33.9485C24.3244 33.9485 24.4327 33.8401 24.4327 33.7064C24.4327 33.5728 24.3244 33.4644 24.1907 33.4644C24.057 33.4644 23.9487 33.5728 23.9487 33.7064C23.9487 33.8401 24.057 33.9485 24.1907 33.9485Z" fill="#9B56D6"/>
</svg>
