<svg width="40" height="40" viewBox="0 0 40 40" fill="none" xmlns="http://www.w3.org/2000/svg">
<g clip-path="url(#clip0_23_19)">
<path d="M36 0.5H4C2.067 0.5 0.5 2.067 0.5 4V36C0.5 37.933 2.067 39.5 4 39.5H36C37.933 39.5 39.5 37.933 39.5 36V4C39.5 2.067 37.933 0.5 36 0.5Z" fill="#FAFAFA"/>
<path d="M36 0.5H4C2.067 0.5 0.5 2.067 0.5 4V36C0.5 37.933 2.067 39.5 4 39.5H36C37.933 39.5 39.5 37.933 39.5 36V4C39.5 2.067 37.933 0.5 36 0.5Z" stroke="#E6E6E6"/>
<path fill-rule="evenodd" clip-rule="evenodd" d="M16.3344 9.12043C18.8609 8.85204 21.4796 9.00058 23.8776 9.88908C24.8859 10.2712 25.8561 10.8019 26.6265 11.5662C25.0275 13.8809 22.6981 15.5649 20.301 16.9737C17.3662 18.6734 14.216 19.9736 11.0059 21.0523C9.17417 21.662 7.31552 22.1962 5.4308 22.614C5.28923 22.6487 5.1442 22.6704 5 22.64C5.04776 22.6113 5.14156 22.554 5.18935 22.5254C8.33081 21.4831 11.3776 20.1595 14.309 18.6239C16.0478 17.7059 17.7492 16.7123 19.3629 15.5866C20.5146 14.7572 21.6915 13.9061 22.5513 12.7613C21.8374 12.0761 20.9315 11.6287 20.0004 11.3196C18.8175 10.9305 17.5764 10.7428 16.3361 10.6621C13.714 10.5049 11.065 10.8193 8.55407 11.5923C8.68608 11.4429 8.87627 11.3717 9.04913 11.2831C11.3256 10.1436 13.8026 9.39922 16.3344 9.12043Z" fill="#010101"/>
<path fill-rule="evenodd" clip-rule="evenodd" d="M25.1037 15.8455C27.1977 15.3044 29.4194 15.1533 31.5473 15.5936C32.8076 15.8637 34.0713 16.3562 34.9997 17.2794C33.9063 18.888 32.3238 20.0848 30.6866 21.0958C30.5355 21.1835 30.3887 21.3042 30.2072 21.3129C30.2349 21.3711 30.2593 21.4302 30.2827 21.491C30.1898 21.491 30.0986 21.491 30.0065 21.4901C29.1172 21.9999 28.1939 22.4498 27.2576 22.8667C24.8883 23.9081 22.426 24.7341 19.9125 25.3472C19.5859 25.4132 19.2636 25.534 18.9258 25.514C18.9519 25.4202 19.01 25.3611 19.0995 25.3368C21.4584 24.5499 23.747 23.5555 25.9453 22.3951C26.8164 21.9322 27.6745 21.4441 28.5066 20.9134C29.7156 20.1239 30.9602 19.3161 31.8721 18.1775C30.8342 17.2325 29.4064 16.8999 28.0515 16.7279C26 16.5082 23.8964 16.6793 21.9162 17.2647C21.7893 17.2846 21.6356 17.3932 21.5288 17.2629C22.6475 16.6306 23.8634 16.1773 25.1037 15.8455Z" fill="#010101"/>
<path fill-rule="evenodd" clip-rule="evenodd" d="M19.024 21.6872C22.0369 20.5981 25.3582 20.2246 28.5066 20.9134C27.6746 21.4441 26.8165 21.9322 25.9453 22.3951C22.8516 21.6786 19.5877 21.9252 16.5582 22.8181C17.3269 22.3404 18.1806 22.0112 19.024 21.6872ZM27.2577 22.8667C28.194 22.4498 29.1172 21.9999 30.0066 21.4901C30.0986 21.491 30.1898 21.491 30.2828 21.491H30.3288C31.0445 21.8358 31.7463 22.2318 32.3117 22.799C31.4475 24.0661 30.2715 25.0858 29.0112 25.9456C26.5507 27.5967 23.7818 28.7267 20.9738 29.6378C18.8876 30.3066 16.7588 30.8416 14.6049 31.2472C14.0629 31.3392 13.5236 31.46 12.9729 31.493C13.0102 31.4634 13.0849 31.4061 13.1223 31.3775C16.3281 30.5272 19.4565 29.385 22.4625 27.9832C24.0033 27.2528 25.5215 26.4581 26.9276 25.4897C27.599 25.0146 28.2678 24.5074 28.7637 23.8421C28.3277 23.4278 27.8127 23.0978 27.2577 22.8667Z" fill="#010101"/>
</g>
<defs>
<clipPath id="clip0_23_19">
<rect width="40" height="40" fill="white"/>
</clipPath>
</defs>
</svg>
