<svg width="40" height="40" viewBox="0 0 40 40" fill="none" xmlns="http://www.w3.org/2000/svg">
<rect x="0.5" y="0.5" width="39" height="39" rx="3.5" fill="#FAFAFA"/>
<rect x="0.5" y="0.5" width="39" height="39" rx="3.5" stroke="#E6E6E6"/>
<path d="M25.6926 20.334C23.9845 19.5708 22.0617 18.6606 21.2184 16.8708C20.6857 15.7376 20.6692 14.312 21.0722 13.1309C22.0609 10.2285 25.5976 9.50749 28.2348 10.3004C29.814 10.7756 30.8886 11.7854 31.4585 13.33C31.7492 14.1179 31.6666 14.9298 30.7383 15.1603C29.781 15.3973 29.4548 14.8191 29.1723 14.0675C28.9652 13.5169 28.6203 13.1072 28.1374 12.8385C27.0199 12.2149 24.8856 12.1769 23.8739 13.1094C22.9331 13.9775 22.9785 15.6897 23.9036 16.5511C25.4109 17.9544 27.7046 18.4037 29.4382 19.5229C31.0252 20.5471 31.8756 22.0161 31.9896 23.9301C32.0634 25.1657 31.7462 26.2844 31.0381 27.2859C28.5495 30.8045 21.7157 30.3106 20.4743 25.7959C20.3663 25.4022 20.3317 25.0898 20.3702 24.8585C20.5569 23.7402 22.1138 23.5378 22.6407 24.5537C22.6677 24.6055 22.7288 24.8161 22.8241 25.1856C23.4757 27.7047 27.6269 27.6502 29.031 25.9743C30.0726 24.7313 29.7339 22.8647 28.5247 21.862C27.6839 21.1649 26.6771 20.7742 25.6926 20.334Z" fill="#F28B20"/>
<path d="M17.1829 18.7878C18.0881 19.47 18.707 20.3579 19.0396 21.4515C20.0745 24.8519 18.7695 29.1146 14.6753 29.4285C14.427 29.4472 14.0104 29.4541 13.4256 29.4491C12.1281 29.4384 10.8206 29.4086 9.52387 29.4607C8.45757 29.5028 8 28.9602 8 27.9484C8 22.5434 8 17.1384 8 11.7334C8 11.3056 8.04075 11.0016 8.12224 10.8216C8.38076 10.2484 8.86889 10.1344 9.49909 10.1336C10.8779 10.1319 12.2572 10.1338 13.6371 10.1393C16.7145 10.1526 18.5068 12.7006 18.3202 15.5848C18.2447 16.7455 17.8626 17.792 17.1738 18.7242C17.1556 18.7484 17.1586 18.7696 17.1829 18.7878ZM10.3944 12.5709V17.8438C10.3944 17.8608 10.4012 17.8772 10.4133 17.8893C10.4254 17.9014 10.4418 17.9082 10.4588 17.9082H13.7221C14.3116 17.9082 14.877 17.6544 15.2938 17.2028C15.7106 16.7511 15.9448 16.1385 15.9448 15.4997V14.915C15.9448 14.2762 15.7106 13.6636 15.2938 13.2119C14.877 12.7603 14.3116 12.5065 13.7221 12.5065H10.4588C10.4418 12.5065 10.4254 12.5133 10.4133 12.5254C10.4012 12.5375 10.3944 12.5538 10.3944 12.5709ZM10.3952 20.3348V27.02C10.3952 27.0345 10.401 27.0483 10.4112 27.0586C10.4214 27.0688 10.4353 27.0745 10.4498 27.0745H14.3383C15.0419 27.0745 15.7167 26.7561 16.2142 26.1894C16.7117 25.6226 16.9912 24.8539 16.9912 24.0524V23.3024C16.9912 22.5009 16.7117 21.7322 16.2142 21.1655C15.7167 20.5987 15.0419 20.2803 14.3383 20.2803H10.4498C10.4353 20.2803 10.4214 20.286 10.4112 20.2963C10.401 20.3065 10.3952 20.3204 10.3952 20.3348Z" fill="#0076BE"/>
</svg>
