<svg width="40" height="40" viewBox="0 0 40 40" fill="none" xmlns="http://www.w3.org/2000/svg">
<rect x="0.5" y="0.5" width="39" height="39" rx="3.5" fill="#FAFAFA"/>
<rect x="0.5" y="0.5" width="39" height="39" rx="3.5" stroke="#E6E6E6"/>
<path d="M18.2066 18.7744C17.4673 18.7744 16.8626 19.3855 16.8626 20.1423C16.8626 20.8893 17.4673 21.5004 18.2163 21.5004C18.9556 21.5004 19.5604 20.8893 19.5604 20.1325C19.5604 20.0454 19.5507 19.9579 19.5317 19.8708C19.4068 19.2597 18.8883 18.8135 18.2739 18.7842C18.2546 18.7744 18.226 18.7744 18.2066 18.7744ZM19.5507 18.9296V18.4349H20.0019V21.8591H19.5507V21.3547C18.8883 22.1115 17.7457 22.1791 17.0064 21.5098C16.2575 20.8405 16.1906 19.686 16.8529 18.9389C17.1986 18.551 17.6881 18.3279 18.197 18.3279H18.2929C18.7828 18.338 19.234 18.5611 19.5507 18.9296Z" fill="#415364"/>
<path d="M15.6054 19.7348C15.3847 19.017 14.626 18.6095 13.9157 18.8326C13.2054 19.0557 12.8021 19.8223 13.0229 20.54C13.2437 21.2577 14.0023 21.6652 14.7126 21.4421C15.1349 21.3062 15.4709 20.9764 15.6054 20.54H16.076C15.8552 21.5199 14.8855 22.1407 13.9161 21.9079C12.9463 21.6848 12.3319 20.7049 12.5624 19.7254C12.7832 18.7455 13.7529 18.1246 14.7223 18.3575C15.3943 18.5126 15.9225 19.0463 16.076 19.7254H15.6054" fill="#415364"/>
<path d="M24.1589 18.7744C23.4099 18.7744 22.8052 19.3854 22.8052 20.1422C22.8052 20.899 23.4099 21.5101 24.1589 21.5101C24.9079 21.5101 25.5126 20.899 25.5126 20.1422C25.5126 20.0453 25.5029 19.9578 25.484 19.8707C25.3591 19.2596 24.8406 18.8134 24.2262 18.7841C24.2068 18.7744 24.1875 18.7744 24.1589 18.7744ZM25.5126 18.9295V17.1736H25.9638V21.8492H25.5126V21.3448C24.8502 22.1016 23.7077 22.1692 22.9684 21.4999C22.2194 20.8307 22.1525 19.6761 22.8148 18.9291C23.1605 18.5411 23.65 18.318 24.1589 18.318C24.1875 18.318 24.2262 18.318 24.2548 18.318C24.735 18.3379 25.1956 18.561 25.5126 18.9295Z" fill="#415364"/>
<path d="M33.8647 18.7744C33.1157 18.7744 32.511 19.3855 32.511 20.1423C32.511 20.8991 33.1157 21.5102 33.8647 21.5102C34.6137 21.5102 35.2184 20.8991 35.2184 20.1423C35.2184 20.0454 35.2088 19.9579 35.1898 19.8708C35.0649 19.2597 34.5464 18.8135 33.932 18.7842C33.913 18.7744 33.8937 18.7744 33.8647 18.7744ZM35.2184 18.9296V18.4349H35.6697V21.8591H35.2184V21.3547C34.5561 22.1115 33.4135 22.1791 32.6742 21.5098C31.9252 20.8405 31.8583 19.686 32.5207 18.9389C32.8663 18.551 33.3559 18.3279 33.8647 18.3279C33.8933 18.3279 33.932 18.3279 33.9606 18.3279C34.4408 18.338 34.9017 18.5611 35.2184 18.9296Z" fill="#415364"/>
<path d="M22.6136 18.7841C21.884 18.7841 21.2889 19.3854 21.2889 20.1227V21.859H20.8376V18.4349H21.2889V18.9295C21.6249 18.5513 22.1048 18.3282 22.6136 18.3282V18.7841Z" fill="#415364"/>
<path d="M27.2691 18.4153H26.8179V21.8493H27.2691V18.4153Z" fill="#415364"/>
<path d="M36.9561 17.1736H36.5049V21.8492H36.9561V17.1736Z" fill="#415364"/>
<path d="M28.575 21.8497H28.1238V18.4154H28.575V18.91C29.2277 18.1728 30.351 18.1048 31.0806 18.7647C31.4549 19.1042 31.6757 19.5988 31.6757 20.1032V21.8493H31.2245V20.0938C31.2245 19.3566 30.6294 18.7553 29.8997 18.7553C29.1701 18.7553 28.575 19.3566 28.575 20.0938V21.8497Z" fill="#415364"/>
<path d="M7.08019 24.2263C4.83367 24.2263 3.00977 22.3834 3.00977 20.1134C3.01943 19.6473 3.41305 19.2788 3.87358 19.2886C4.31516 19.2983 4.68016 19.6668 4.68945 20.113C4.68945 21.4418 5.7551 22.5283 7.07982 22.5283C7.9533 22.5283 8.75988 22.0435 9.17283 21.2769C9.38395 20.8596 9.8928 20.6947 10.3058 20.9085C10.7187 21.1218 10.8819 21.6359 10.6704 22.0532C10.6607 22.0727 10.6511 22.0821 10.6511 22.1017C9.93146 23.4113 8.55879 24.2263 7.08019 24.2263Z" fill="#ED1C24"/>
<path d="M3.84486 20.9667C3.38396 20.9667 3 20.5884 3 20.113C3 17.843 4.8239 16 7.07043 16C8.55832 16 9.92169 16.815 10.632 18.1243C10.8721 18.522 10.7472 19.0459 10.3439 19.2882C9.95031 19.5308 9.4318 19.4046 9.19206 18.9971C9.18239 18.9776 9.17273 18.9584 9.16344 18.9389C8.5297 17.775 7.07043 17.348 5.91854 17.9883C5.16029 18.415 4.68006 19.2202 4.68006 20.1032C4.68972 20.5884 4.31505 20.9667 3.84486 20.9667Z" fill="#1434CB"/>
<path d="M3.84486 20.9667C4.31147 20.9667 4.68972 20.5845 4.68972 20.113C4.68972 19.6415 4.31147 19.2593 3.84486 19.2593C3.37826 19.2593 3 19.6415 3 20.113C3 20.5845 3.37826 20.9667 3.84486 20.9667Z" fill="#021E4C"/>
<path d="M22.0745 24.9684H21.8845L22.4993 23.3463H22.7167L23.3293 24.9684H23.1096L22.9279 24.4734H22.2584L22.0745 24.9684ZM22.3153 24.3093H22.8706L22.5959 23.5709H22.5896L22.3153 24.3093Z" fill="#415364"/>
<path d="M24.0536 23.3467L24.5457 24.7405H24.5543L25.0442 23.3467H25.2323L24.6472 24.9688H24.4235L23.8362 23.3467H24.0536Z" fill="#415364"/>
<path d="M25.4243 23.4683C25.4243 23.4372 25.4351 23.4113 25.457 23.3906C25.479 23.3699 25.5065 23.3598 25.5403 23.3598C25.5741 23.3598 25.6024 23.3699 25.6247 23.3906C25.6473 23.4113 25.6585 23.4372 25.6585 23.4683C25.6585 23.501 25.6473 23.5277 25.6247 23.5483C25.602 23.569 25.5741 23.5791 25.5403 23.5791C25.5065 23.5791 25.4786 23.569 25.457 23.5483C25.4351 23.5277 25.4243 23.501 25.4243 23.4683ZM25.6354 23.7628V24.9684H25.4474V23.7628H25.6354Z" fill="#415364"/>
<path d="M25.9356 24.0892C25.9356 24.0096 25.9549 23.9435 25.9936 23.8909C26.0323 23.8383 26.0847 23.7989 26.1508 23.7726C26.217 23.7463 26.2932 23.7332 26.379 23.7332C26.4523 23.7332 26.5173 23.7403 26.5746 23.7546C26.6314 23.7688 26.6749 23.7831 26.7043 23.7974L26.7128 23.9701H26.7065C26.6827 23.9529 26.6515 23.9378 26.6136 23.9243C26.5757 23.9108 26.5348 23.9003 26.4913 23.8924C26.4478 23.8845 26.4077 23.8808 26.3709 23.8808C26.2906 23.8808 26.2274 23.8928 26.1809 23.9172C26.1345 23.9412 26.1111 23.9889 26.1111 24.0603C26.1111 24.1031 26.1211 24.1369 26.1415 24.1617C26.162 24.1865 26.1921 24.2068 26.2322 24.2225C26.2724 24.2383 26.3222 24.2545 26.3813 24.2717C26.4616 24.2958 26.5318 24.3191 26.5924 24.3412C26.653 24.3634 26.7006 24.3949 26.7348 24.4362C26.7693 24.4776 26.7864 24.5388 26.7864 24.6199C26.7864 24.7438 26.7463 24.8381 26.666 24.9027C26.5857 24.9673 26.4753 25 26.3344 25C26.2542 25 26.1791 24.991 26.1096 24.9733C26.0397 24.9557 25.9824 24.9324 25.9375 24.9038L25.9226 24.7183H25.9289C25.9769 24.7622 26.0389 24.796 26.1148 24.8186C26.191 24.8415 26.2634 24.8528 26.3322 24.8528C26.4281 24.8528 26.4984 24.837 26.5433 24.8058C26.5883 24.7746 26.611 24.7247 26.611 24.6563C26.611 24.6124 26.5998 24.5782 26.5772 24.5538C26.5545 24.5298 26.5218 24.5095 26.479 24.493C26.4359 24.4768 26.382 24.4591 26.3173 24.4407C26.2456 24.4193 26.1809 24.3976 26.123 24.3758C26.0653 24.3536 26.0196 24.3213 25.9858 24.2789C25.9523 24.2346 25.9356 24.1718 25.9356 24.0892Z" fill="#415364"/>
<path d="M27.0376 24.0295L27.0588 23.844C27.1038 23.8128 27.1603 23.7865 27.2279 23.7651C27.2956 23.7437 27.3695 23.7332 27.4498 23.7332C27.6033 23.7332 27.7174 23.764 27.7922 23.8248C27.8669 23.886 27.904 23.987 27.904 24.1279V24.9688H27.7245V24.7382H27.716C27.6851 24.828 27.6372 24.8937 27.5725 24.9358C27.5078 24.9778 27.4268 24.9989 27.3298 24.9989C27.2636 24.9989 27.2026 24.9865 27.1469 24.9613C27.0911 24.9365 27.0465 24.8986 27.0127 24.8482C26.9789 24.7979 26.9622 24.7333 26.9622 24.6552C26.9622 24.5771 26.9785 24.514 27.0109 24.4663C27.0432 24.4186 27.0885 24.3822 27.1473 24.3562C27.2056 24.3307 27.2759 24.3108 27.3573 24.2965C27.4573 24.2796 27.5364 24.2638 27.5948 24.2496C27.6531 24.2353 27.6951 24.2161 27.7204 24.1921V24.1365C27.7204 24.0483 27.7003 23.9844 27.6602 23.9446C27.6201 23.9048 27.545 23.8849 27.4353 23.8849C27.3651 23.8849 27.2956 23.8969 27.2272 23.9213C27.1588 23.9454 27.0971 23.9818 27.0424 24.0302H27.0376V24.0295ZM27.7178 24.5632V24.3134C27.6951 24.3333 27.6554 24.3506 27.5985 24.3656C27.5416 24.3807 27.4706 24.3961 27.3863 24.4115C27.3145 24.4227 27.2562 24.4441 27.2119 24.4757C27.1677 24.5068 27.1454 24.5624 27.1454 24.6421C27.1454 24.7145 27.1662 24.7683 27.2078 24.8032C27.2495 24.8381 27.3067 24.8554 27.3799 24.8554C27.4502 24.8554 27.5108 24.8404 27.5617 24.8107C27.6123 24.781 27.6513 24.7435 27.6777 24.6988C27.7044 24.6537 27.7178 24.6086 27.7178 24.5632Z" fill="#415364"/>
<path d="M28.6218 23.7606C28.6218 23.6611 28.6456 23.5784 28.6935 23.5131C28.7415 23.4477 28.8058 23.3985 28.8868 23.3659C28.9678 23.3332 29.0567 23.3167 29.154 23.3167C29.2708 23.3167 29.3648 23.3294 29.4362 23.355C29.5071 23.3805 29.5596 23.406 29.5934 23.432L29.6082 23.6389H29.6019C29.5696 23.6104 29.5287 23.5844 29.4793 23.5612C29.4298 23.5379 29.3763 23.5187 29.3187 23.5044C29.2611 23.4902 29.2038 23.483 29.1477 23.483C29.0507 23.483 28.9704 23.5007 28.9069 23.5364C28.8437 23.572 28.8117 23.6336 28.8117 23.7219C28.8117 23.7903 28.8273 23.8432 28.8582 23.8808C28.889 23.9183 28.9333 23.9484 28.9901 23.9705C29.047 23.9927 29.1143 24.0149 29.192 24.0378C29.2622 24.0577 29.3287 24.0783 29.3916 24.0997C29.4544 24.1211 29.5094 24.1482 29.5573 24.1809C29.6053 24.2135 29.6428 24.2567 29.6703 24.3101C29.6978 24.3634 29.7116 24.4321 29.7116 24.5159C29.7116 24.674 29.6599 24.7938 29.5562 24.8757C29.4525 24.9576 29.3079 24.9985 29.1221 24.9985C29.0291 24.9985 28.9355 24.9853 28.8411 24.9591C28.7467 24.9328 28.6701 24.8982 28.611 24.8554L28.6006 24.6443H28.6069C28.6772 24.7025 28.7593 24.7487 28.853 24.7822C28.9466 24.8156 29.0418 24.8321 29.1392 24.8321C29.3897 24.8321 29.515 24.7412 29.515 24.5591C29.515 24.4937 29.5001 24.4415 29.4707 24.4021C29.4414 24.3626 29.3971 24.3315 29.3388 24.3071C29.2804 24.283 29.2083 24.2586 29.1224 24.2346C29.0548 24.2162 28.9909 24.1959 28.9303 24.1737C28.8697 24.1516 28.8162 24.1238 28.7697 24.0903C28.7232 24.0569 28.6868 24.0137 28.6608 23.9611C28.6348 23.9086 28.6218 23.8417 28.6218 23.7606Z" fill="#415364"/>
<path d="M30.5016 23.7328C30.6183 23.7328 30.7216 23.7602 30.8108 23.815C30.9004 23.8699 30.9703 23.945 31.0208 24.0404C31.0714 24.1358 31.0967 24.2447 31.0967 24.3668C31.0967 24.4892 31.0714 24.5981 31.0208 24.6931C30.9703 24.7885 30.9 24.8633 30.8108 24.9174C30.7213 24.9714 30.6183 24.9985 30.5016 24.9985C30.386 24.9985 30.2834 24.9714 30.1931 24.9174C30.1031 24.8633 30.0325 24.7885 29.982 24.6931C29.9314 24.5977 29.9058 24.4888 29.9058 24.3668C29.9058 24.2443 29.931 24.1354 29.982 24.0404C30.0325 23.945 30.1031 23.8699 30.1931 23.815C30.2834 23.7602 30.386 23.7328 30.5016 23.7328ZM30.5016 24.8404C30.6339 24.8404 30.7335 24.7979 30.8004 24.7134C30.8673 24.6289 30.9008 24.5132 30.9008 24.3668C30.9008 24.2188 30.8673 24.1024 30.8004 24.0179C30.7335 23.9333 30.6339 23.8909 30.5016 23.8909C30.3693 23.8909 30.2693 23.9333 30.2016 24.0179C30.134 24.1024 30.1002 24.2188 30.1002 24.3668C30.1002 24.5132 30.134 24.6289 30.2016 24.7134C30.2693 24.7979 30.3693 24.8404 30.5016 24.8404Z" fill="#415364"/>
<path d="M31.5406 23.2824V24.9684H31.3525V23.2824H31.5406Z" fill="#415364"/>
<path d="M32.3498 24.834C32.4145 24.834 32.4739 24.8205 32.5282 24.7934C32.5825 24.7664 32.6256 24.7281 32.6579 24.6781C32.6903 24.6282 32.7066 24.5699 32.7066 24.5031V23.7625H32.8947V24.9681H32.7152V24.7142H32.7066C32.6828 24.7825 32.6483 24.8377 32.6033 24.8794C32.5583 24.9215 32.5074 24.9515 32.4513 24.9703C32.3948 24.9887 32.3394 24.9981 32.2844 24.9981C32.1546 24.9981 32.0528 24.9639 31.9781 24.8956C31.9034 24.8272 31.8662 24.7221 31.8662 24.5797V23.7625H32.0543V24.5373C32.0543 24.6398 32.0755 24.7149 32.1175 24.7626C32.1595 24.8103 32.2372 24.834 32.3498 24.834Z" fill="#415364"/>
<path d="M33.4859 24.6443C33.4859 24.7209 33.5019 24.7727 33.5346 24.799C33.5669 24.8253 33.6093 24.8384 33.6613 24.8384C33.7093 24.8384 33.7509 24.8343 33.7858 24.8257C33.8211 24.817 33.8498 24.8073 33.8724 24.7956H33.8788L33.862 24.9556C33.8408 24.9669 33.8092 24.977 33.7669 24.9853C33.7245 24.9939 33.6818 24.9981 33.6379 24.9981C33.5323 24.9981 33.4491 24.9729 33.3885 24.9222C33.3279 24.8719 33.2978 24.7889 33.2978 24.6736V23.9179H33.0781L33.1034 23.7943L33.2978 23.7665V23.5081L33.4859 23.4803V23.762H33.8513L33.8282 23.9179H33.4859V24.6443Z" fill="#415364"/>
<path d="M34.052 23.4683C34.052 23.4372 34.0628 23.4113 34.0847 23.3906C34.1066 23.3699 34.1341 23.3598 34.168 23.3598C34.2018 23.3598 34.23 23.3699 34.2523 23.3906C34.275 23.4113 34.2862 23.4372 34.2862 23.4683C34.2862 23.501 34.275 23.5277 34.2523 23.5483C34.2297 23.569 34.2018 23.5791 34.168 23.5791C34.1341 23.5791 34.1063 23.569 34.0847 23.5483C34.0628 23.5277 34.052 23.501 34.052 23.4683ZM34.2631 23.7628V24.9684H34.075V23.7628H34.2631Z" fill="#415364"/>
<path d="M35.1207 23.7328C35.2374 23.7328 35.3408 23.7602 35.43 23.815C35.5196 23.8699 35.5894 23.945 35.64 24.0404C35.6905 24.1358 35.7158 24.2447 35.7158 24.3668C35.7158 24.4892 35.6905 24.5981 35.64 24.6931C35.5894 24.7885 35.5192 24.8633 35.43 24.9174C35.3404 24.9714 35.2374 24.9985 35.1207 24.9985C35.0051 24.9985 34.9025 24.9714 34.8122 24.9174C34.7223 24.8633 34.6516 24.7885 34.6011 24.6931C34.5505 24.5977 34.5249 24.4888 34.5249 24.3668C34.5249 24.2443 34.5502 24.1354 34.6011 24.0404C34.6516 23.945 34.7223 23.8699 34.8122 23.815C34.9025 23.7602 35.0051 23.7328 35.1207 23.7328ZM35.1207 24.8404C35.2531 24.8404 35.3527 24.7979 35.4196 24.7134C35.4865 24.6289 35.5199 24.5132 35.5199 24.3668C35.5199 24.2188 35.4865 24.1024 35.4196 24.0179C35.3527 23.9333 35.2531 23.8909 35.1207 23.8909C34.9884 23.8909 34.8884 23.9333 34.8208 24.0179C34.7531 24.1024 34.7193 24.2188 34.7193 24.3668C34.7193 24.5132 34.7531 24.6289 34.8208 24.7134C34.8884 24.7979 34.9884 24.8404 35.1207 24.8404Z" fill="#415364"/>
<path d="M36.517 23.8973C36.4508 23.8973 36.3906 23.9109 36.3363 23.9379C36.282 23.9649 36.2393 24.0032 36.2073 24.0532C36.1757 24.1032 36.1598 24.1621 36.1598 24.2305V24.9689H35.9717V23.7633H36.1512V24.0194H36.1616C36.1843 23.951 36.2181 23.8958 36.2642 23.8541C36.3099 23.8121 36.3612 23.7817 36.4185 23.7625C36.4753 23.7433 36.5315 23.7336 36.5865 23.7336C36.7158 23.7336 36.8173 23.767 36.8905 23.8339C36.9637 23.9007 37.0002 24.0055 37.0002 24.1475V24.9692H36.8143V24.2008C36.8143 24.0998 36.7928 24.0239 36.75 23.9736C36.7073 23.9225 36.6296 23.8973 36.517 23.8973Z" fill="#415364"/>
</svg>
