<svg width="40" height="40" viewBox="0 0 40 40" fill="none" xmlns="http://www.w3.org/2000/svg">
<rect x="0.5" y="0.5" width="39" height="39" rx="3.5" fill="#FAFAFA"/>
<rect x="0.5" y="0.5" width="39" height="39" rx="3.5" stroke="#E6E6E6"/>
<path fill-rule="evenodd" clip-rule="evenodd" d="M14.9097 8.58824C13.1326 11.2511 7.92491 19.9702 8.00082 20.1558C8.10316 20.4058 14.2651 30.4444 14.91 31.4118L15.3023 32H22.3341C26.8615 32 29.481 31.9421 29.6894 31.8376C29.8673 31.7482 30.0128 31.5365 30.0128 31.3667C30.0128 31.1972 28.5406 28.6089 26.7414 25.6152C24.9422 22.6215 23.5025 20.056 23.542 19.914C23.5816 19.7719 25.0538 17.2455 26.8133 14.2996C28.5731 11.3537 30.0128 8.816 30.0128 8.66008C30.0128 8.00925 29.9068 8 22.457 8H15.3023L14.9097 8.58824ZM27.839 9.5109C27.839 9.66933 22.581 18.3526 22.4849 18.3528C22.4125 18.3529 17.3364 9.94682 17.1654 9.54322C17.1346 9.4709 19.5237 9.41176 22.4744 9.41176C25.425 9.41176 27.839 9.45631 27.839 9.5109ZM18.6537 15.2256C21.0049 19.1553 21.4769 20.0467 21.3455 20.3092C21.2577 20.4842 19.9468 22.6919 18.4322 25.2151L15.6782 29.8027L12.771 25.0745C11.172 22.474 9.83898 20.2486 9.80872 20.1291C9.77845 20.0097 11.0133 17.8494 12.553 15.3285C15.4138 10.6445 15.635 10.3029 15.7414 10.4027C15.775 10.4342 17.0856 12.6045 18.6537 15.2256ZM25.1636 25.9853C26.5891 28.3711 27.7805 30.3827 27.8111 30.4557C27.8419 30.5286 25.4465 30.5882 22.4882 30.5882C19.5299 30.5882 17.1346 30.5291 17.1654 30.4568C17.3366 30.053 22.4125 21.6471 22.4849 21.6472C22.5327 21.6474 23.7381 23.5995 25.1636 25.9853Z" fill="#0C1142"/>
</svg>
