<svg width="40" height="40" viewBox="0 0 40 40" fill="none" xmlns="http://www.w3.org/2000/svg">
<g clip-path="url(#clip0_22_280)">
<path d="M36 0.5H4C2.067 0.5 0.5 2.067 0.5 4V36C0.5 37.933 2.067 39.5 4 39.5H36C37.933 39.5 39.5 37.933 39.5 36V4C39.5 2.067 37.933 0.5 36 0.5Z" fill="#FAFAFA"/>
<path d="M36 0.5H4C2.067 0.5 0.5 2.067 0.5 4V36C0.5 37.933 2.067 39.5 4 39.5H36C37.933 39.5 39.5 37.933 39.5 36V4C39.5 2.067 37.933 0.5 36 0.5Z" stroke="#E6E6E6"/>
<path d="M10.8929 7.00769V32.9807L7 29.0878V10.8967H7.00385L10.8929 7.00769Z" fill="#4A78F2"/>
<path d="M25.9641 15.7936V17.1092C25.9662 17.4486 25.8339 17.775 25.596 18.0172C25.3582 18.2594 25.0341 18.3976 24.6947 18.4017H14.3086V14.5319H24.6947C24.9104 14.5316 25.1225 14.5872 25.3102 14.6934C25.5071 14.8021 25.6716 14.9614 25.7865 15.1547C25.9014 15.3481 25.9628 15.5686 25.9641 15.7936Z" fill="#4A78F2"/>
<path d="M25.9641 22.5677V23.8832C25.9647 24.0501 25.9322 24.2154 25.8686 24.3696C25.8049 24.5239 25.7115 24.664 25.5935 24.782C25.4755 24.9 25.3354 24.9935 25.1811 25.0571C25.0269 25.1207 24.8616 25.1532 24.6947 25.1527H14.3086V21.2829H24.6947C24.8624 21.2839 25.0283 21.3179 25.1829 21.383C25.3374 21.4481 25.4777 21.5431 25.5955 21.6624C25.7134 21.7817 25.8066 21.923 25.8699 22.0784C25.9331 22.2337 25.9652 22.4 25.9641 22.5677Z" fill="#4A78F2"/>
<path d="M32.973 10.8736H7L10.8929 7.00385H29.084L31.0343 8.94259L32.973 10.8736Z" fill="#4A78F2"/>
<path d="M32.973 29.0917V29.0956L29.0879 32.9769V32.9692L29.084 32.9615H10.8929V32.973L7 29.0917H32.973Z" fill="#4A78F2"/>
<path d="M32.9998 24.0987V29.0879L32.9844 29.0917H32.9767L29.08 32.9769H29.0608V32.9807V24.0987H32.9998Z" fill="#4A78F2"/>
<path d="M32.9998 10.8929V15.8667H29.0608V7L31.0342 8.95029L32.9998 10.8929Z" fill="#4A78F2"/>
<path style="mix-blend-mode:multiply" opacity="0.3" d="M29.0878 29.084H23.2446V32.9692H29.0878V29.084Z" fill="url(#paint0_linear_22_280)"/>
<path style="mix-blend-mode:multiply" opacity="0.3" d="M29.0878 7H23.2446V10.8852H29.0878V7Z" fill="url(#paint1_linear_22_280)"/>
<path style="mix-blend-mode:multiply" opacity="0.3" d="M10.8852 10.8852H7V15.8552H10.8852V10.8852Z" fill="url(#paint2_linear_22_280)"/>
<path style="mix-blend-mode:multiply" opacity="0.3" d="M10.8852 24.1102H7V29.0802H10.8852V24.1102Z" fill="url(#paint3_linear_22_280)"/>
</g>
<defs>
<linearGradient id="paint0_linear_22_280" x1="23.2446" y1="31.0266" x2="29.0878" y2="31.0266" gradientUnits="userSpaceOnUse">
<stop stop-color="white"/>
<stop offset="1"/>
</linearGradient>
<linearGradient id="paint1_linear_22_280" x1="23.2446" y1="8.94259" x2="29.0878" y2="8.94259" gradientUnits="userSpaceOnUse">
<stop stop-color="white"/>
<stop offset="1"/>
</linearGradient>
<linearGradient id="paint2_linear_22_280" x1="8.94259" y1="15.859" x2="8.94259" y2="10.8852" gradientUnits="userSpaceOnUse">
<stop stop-color="white"/>
<stop offset="1"/>
</linearGradient>
<linearGradient id="paint3_linear_22_280" x1="8.94259" y1="24.1102" x2="8.94259" y2="29.0802" gradientUnits="userSpaceOnUse">
<stop stop-color="white"/>
<stop offset="1"/>
</linearGradient>
<clipPath id="clip0_22_280">
<rect width="40" height="40" fill="white"/>
</clipPath>
</defs>
</svg>
