<svg width="32" height="32" viewBox="0 0 32 32" fill="none" xmlns="http://www.w3.org/2000/svg">
<rect x="0.4" y="0.4" width="31.2" height="31.2" rx="2.8" fill="#FAFAFA"/>
<rect x="0.4" y="0.4" width="31.2" height="31.2" rx="2.8" stroke="#E6E6E6" stroke-width="0.8"/>
<path d="M23.2436 11.537L22.141 13.1375C21.8041 12.9836 21.4059 12.8913 21.0078 12.8913C20.7627 12.8913 20.5484 12.922 20.3339 12.9836C20.3033 12.9836 20.2727 12.9836 20.242 13.0144C19.9051 13.1067 19.5682 13.2298 19.2926 13.4453C19.262 13.476 19.2313 13.476 19.2007 13.5068C18.9557 13.6915 18.7106 13.9069 18.5269 14.1839C17.8224 15.0765 17.2712 16.3692 16.3217 17.7542C16.2298 17.8773 16.1379 18.0312 16.0154 18.1543C15.2803 19.17 14.3002 20.001 13.167 20.555C13.1057 20.5857 13.0445 20.6165 12.9832 20.6473C12.8301 20.7089 12.6463 20.7704 12.4932 20.832C12.3706 20.8628 12.2787 20.8935 12.1562 20.9243C11.85 20.9859 11.5131 21.0474 11.2068 21.0474C11.1455 21.0474 11.0843 21.0474 10.9924 21.0474C8.23585 21.0474 6 18.8006 6 16.0306C6 13.2606 8.23585 11.0138 10.9924 11.0138C12.2787 11.0138 13.5345 11.5063 14.4534 12.4296L13.3507 14.03C12.2481 12.6758 10.2879 12.5219 9.00155 13.6607C7.68454 14.7687 7.5314 16.7385 8.63401 18.0619C9.21595 18.7699 10.1042 19.17 10.9924 19.17C11.0536 19.17 11.1149 19.17 11.2068 19.17C11.6356 19.1392 12.0337 19.0469 12.4013 18.8314C12.4013 18.8314 12.4013 18.8314 12.4319 18.8314C13.5039 18.339 14.3615 17.2309 15.8316 14.6764C15.8929 14.5841 15.9541 14.4609 16.0154 14.3378C16.5054 13.4453 17.1792 12.6758 17.9756 12.0295C18.0062 11.9987 18.0368 11.9987 18.0675 11.9679C18.0981 11.9371 18.1593 11.9064 18.19 11.8756C18.2819 11.814 18.3737 11.7525 18.4656 11.6909C18.5881 11.6294 18.7106 11.5678 18.8332 11.5063L18.9251 11.4447C18.9863 11.4139 19.0476 11.3831 19.0782 11.3831C19.1395 11.3524 19.2313 11.3216 19.2926 11.2908C20.6096 10.8291 22.0185 10.9215 23.2436 11.537Z" fill="#5022ED"/>
<path d="M26 15.0762V16.0303C26 16.215 26 16.3689 25.9694 16.5536C25.9387 16.7074 25.9387 16.8306 25.9081 16.9844C25.3874 19.7237 22.7841 21.5088 20.0582 20.9856C19.1393 20.8009 18.3124 20.37 17.6079 19.7545L18.7105 18.154C19.8744 19.4159 21.8346 19.5082 23.0903 18.3386C23.4885 17.9693 23.7948 17.5076 23.9479 16.9844H20.8545L22.1715 15.0762H26Z" fill="#5022ED"/>
</svg>
