<svg width="16" height="16" viewBox="0 0 16 16" fill="none" xmlns="http://www.w3.org/2000/svg">
<rect x="0.2" y="0.2" width="15.6" height="15.6" rx="1.4" fill="#FAFAFA"/>
<rect x="0.2" y="0.2" width="15.6" height="15.6" rx="1.4" stroke="#E6E6E6" stroke-width="0.4"/>
<path d="M7.15919 4.323C7.45368 4.03456 7.60092 3.89034 7.77004 3.83617C7.91884 3.7885 8.07882 3.7885 8.22762 3.83617C8.39674 3.89034 8.54398 4.03456 8.83847 4.323L8.98006 4.46168C9.10739 4.58639 9.17105 4.64875 9.24491 4.69358C9.31039 4.73334 9.38158 4.76283 9.456 4.78102C9.53993 4.80154 9.62904 4.80247 9.80725 4.80432L10.0054 4.80637C10.4176 4.81065 10.6237 4.81279 10.7816 4.89407C10.9205 4.96558 11.0337 5.0787 11.1052 5.21762C11.1865 5.37552 11.1886 5.58161 11.1929 5.9938L11.1949 6.19199C11.1968 6.37021 11.1977 6.45932 11.2182 6.54324C11.2364 6.61766 11.2659 6.68885 11.3057 6.75434C11.3505 6.82819 11.4129 6.89185 11.5376 7.01918L11.6762 7.16077C11.9647 7.45526 12.1089 7.60251 12.1631 7.77163C12.2107 7.92043 12.2107 8.0804 12.1631 8.22921C12.1089 8.39832 11.9647 8.54557 11.6762 8.84006L11.5376 8.98165C11.4129 9.10898 11.3505 9.17264 11.3057 9.24649C11.2659 9.31198 11.2364 9.38317 11.2182 9.45759C11.1977 9.54152 11.1968 9.63062 11.1949 9.80884L11.1929 10.007C11.1886 10.4192 11.1865 10.6253 11.1052 10.7832C11.0337 10.9221 10.9205 11.0353 10.7816 11.1068C10.6237 11.188 10.4176 11.1902 10.0054 11.1945L9.80725 11.1965C9.62904 11.1984 9.53993 11.1993 9.456 11.2198C9.38158 11.238 9.31039 11.2675 9.24491 11.3072C9.17105 11.3521 9.10739 11.4144 8.98006 11.5391L8.83847 11.6778C8.54398 11.9663 8.39674 12.1105 8.22762 12.1647C8.07882 12.2123 7.91884 12.2123 7.77004 12.1647C7.60092 12.1105 7.45368 11.9663 7.15919 11.6778L7.01759 11.5391C6.89027 11.4144 6.8266 11.3521 6.75275 11.3072C6.68727 11.2675 6.61607 11.238 6.54165 11.2198C6.45773 11.1993 6.36862 11.1984 6.1904 11.1965L5.99222 11.1945C5.58003 11.1902 5.37393 11.188 5.21604 11.1068C5.07711 11.0353 4.96399 10.9221 4.89248 10.7832C4.8112 10.6253 4.80906 10.4192 4.80479 10.007L4.80273 9.80884C4.80088 9.63062 4.79995 9.54152 4.77944 9.45759C4.76124 9.38317 4.73175 9.31198 4.692 9.24649C4.64716 9.17264 4.58481 9.10898 4.4601 8.98165L4.32141 8.84006C4.03297 8.54557 3.88875 8.39832 3.83458 8.22921C3.78691 8.0804 3.78691 7.92043 3.83458 7.77163C3.88875 7.60251 4.03297 7.45526 4.32141 7.16077L4.4601 7.01918C4.58481 6.89185 4.64716 6.82819 4.692 6.75434C4.73175 6.68885 4.76124 6.61766 4.77944 6.54324C4.79995 6.45932 4.80088 6.37021 4.80273 6.19199L4.80479 5.9938C4.80906 5.58161 4.8112 5.37552 4.89248 5.21762C4.96399 5.0787 5.07711 4.96558 5.21604 4.89407C5.37393 4.81279 5.58003 4.81065 5.99222 4.80637L6.1904 4.80432C6.36862 4.80247 6.45773 4.80154 6.54165 4.78102C6.61607 4.76283 6.68727 4.73334 6.75275 4.69358C6.8266 4.64875 6.89027 4.58639 7.01759 4.46168L7.15919 4.323Z" stroke="#99A0AE" stroke-width="0.933333" stroke-linecap="round" stroke-linejoin="round"/>
<path d="M7.52797 8.00043C7.52797 7.74269 7.74119 7.53376 7.99892 7.53376C8.25666 7.53376 8.46987 7.74269 8.46987 8.00043C8.46987 8.25816 8.25666 8.46709 7.99892 8.46709C7.74119 8.46709 7.52797 8.25816 7.52797 8.00043Z" stroke="#99A0AE" stroke-width="0.933333" stroke-linecap="round" stroke-linejoin="round"/>
</svg>
