<svg width="40" height="40" viewBox="0 0 40 40" fill="none" xmlns="http://www.w3.org/2000/svg">
<rect x="0.5" y="0.5" width="39" height="39" rx="3.5" fill="#FAFAFA"/>
<rect x="0.5" y="0.5" width="39" height="39" rx="3.5" stroke="#E6E6E6"/>
<path fill-rule="evenodd" clip-rule="evenodd" d="M12.8543 27.0729C12.3419 27.585 12.2635 28.5011 12.6811 29.0972C13.0705 29.6534 15.0351 31.0902 16.2313 31.6941C17.6851 32.428 19.6987 32.9394 21.3221 32.9872C22.6452 33.0261 22.7339 33.0036 23.1489 32.5224C23.389 32.2443 23.5852 31.863 23.5852 31.6749C23.5852 31.1263 23.2161 30.469 22.7995 30.2755C22.5874 30.1771 21.6892 30.0014 20.8034 29.8853C18.8351 29.6272 17.1288 28.8808 15.491 27.5616C14.1628 26.4917 13.5492 26.378 12.8543 27.0729ZM29.2361 27.0575C28.8627 27.3789 28.7394 27.6481 28.7394 28.143C28.7394 28.921 29.1953 29.4555 29.9957 29.6155C30.4307 29.7026 30.6697 29.6236 31.1215 29.2436C31.5171 28.9105 31.6949 28.6029 31.6949 28.2511C31.6949 27.4957 31.5282 27.1873 30.9611 26.8941C30.2444 26.5234 29.8092 26.5647 29.2361 27.0575ZM25.6263 29.4209C25.4162 29.5681 25.1643 29.9185 25.0662 30.1996C24.6948 31.2652 25.6986 32.4042 26.772 32.1348C27.4098 31.9747 27.9104 31.3188 27.9104 30.6431C27.9104 29.4654 26.5795 28.7534 25.6263 29.4209Z" fill="#222A42"/>
<path fill-rule="evenodd" clip-rule="evenodd" d="M10.3656 14.4572C9.86336 14.9229 9.73342 15.731 10.0621 16.3453C10.2984 16.7869 11.2251 17.1446 11.7753 17.0064C12.3606 16.8595 12.8308 16.1307 12.8101 15.4023C12.7901 14.6964 12.0715 14.0153 11.3467 14.0153C11.0613 14.0153 10.6356 14.2071 10.3656 14.4572ZM9.43012 18.9631C8.8828 19.5103 8.85559 20.2867 9.36128 20.9293C9.6489 21.295 9.89381 21.4042 10.4265 21.4042C10.9776 21.4042 11.213 21.2915 11.5848 20.8496C11.8414 20.5447 12.0514 20.2324 12.0514 20.1556C12.0514 19.737 11.6086 18.8498 11.3235 18.6971C10.7279 18.3785 9.89814 18.4949 9.43012 18.9631ZM10.6997 23.054C10.1279 23.3667 9.88877 23.7697 9.88877 24.4204C9.88877 25.1928 10.5669 25.9096 11.2981 25.9096C11.9513 25.9096 12.7016 25.3388 12.8126 24.7574C12.9353 24.1153 12.4988 23.2305 11.9576 23.0247C11.3692 22.801 11.153 22.8061 10.6997 23.054Z" fill="#F6C443"/>
<path fill-rule="evenodd" clip-rule="evenodd" d="M19.3501 7.25398C17.6485 7.62918 16.2851 8.2093 14.8524 9.16733C13.3139 10.1965 12.4117 11.149 12.4117 11.7446C12.4117 11.9756 12.5799 12.3782 12.7853 12.6394C13.0681 12.9989 13.32 13.1142 13.8228 13.1142C14.3456 13.1142 14.6972 12.94 15.4767 12.2943C17.2403 10.8332 19.7166 9.87035 21.71 9.87035C22.3299 9.87035 22.624 9.76654 22.9625 9.42792C23.5478 8.84276 23.5594 7.91555 22.9879 7.37868C22.6514 7.06277 22.3636 6.9896 21.5011 7.00113C20.9127 7.00906 19.9448 7.12278 19.3501 7.25398ZM25.4693 8.3304C24.9822 8.81735 24.8955 9.59227 25.2725 10.0886C25.4013 10.2582 25.7232 10.4791 25.9876 10.5797C26.9865 10.9594 28.0527 10.0277 27.8218 8.97684C27.5829 7.88887 26.2711 7.52844 25.4693 8.3304ZM29.2032 10.828C28.7045 11.3589 28.6896 12.2715 29.1718 12.7538C29.4099 12.9919 29.7725 13.1142 30.24 13.1142C30.7965 13.1142 31.0307 13.009 31.3355 12.6215C31.6181 12.2622 31.6947 11.9814 31.6182 11.5853C31.5608 11.2863 31.3425 10.8999 31.1336 10.7264C30.589 10.2742 29.6786 10.3221 29.2032 10.828Z" fill="#4875F4"/>
</svg>
