<svg width="40" height="40" viewBox="0 0 40 40" fill="none" xmlns="http://www.w3.org/2000/svg">
<rect x="0.5" y="0.5" width="39" height="39" rx="3.5" fill="#FAFAFA"/>
<rect x="0.5" y="0.5" width="39" height="39" rx="3.5" stroke="#E6E6E6"/>
<g clip-path="url(#clip0_1760_689)">
<path d="M27.92 18.455C27.944 17.805 27.93 17.155 27.877 16.507C22.132 16.999 14.067 20.722 6.59902 26.797C5.75402 27.487 4.94102 28.177 4.17102 28.877H4.64802C4.78902 28.768 4.91902 28.647 5.06002 28.527C12.92 22.145 21.503 18.433 27.335 18.433C27.53 18.433 27.725 18.444 27.92 18.455ZM34.272 18.193C33.448 17.339 32.278 16.835 30.879 16.605C30.974 17.438 31.024 18.275 31.031 19.112C31.6866 19.3845 32.2801 19.7869 32.776 20.295C33.839 21.389 34.316 22.889 34.207 24.761C34.131 26.031 33.784 27.421 33.199 28.889H33.513C34.782 26.557 35.529 24.367 35.649 22.462C35.746 20.667 35.28 19.233 34.272 18.193Z" fill="#0C2074"/>
<path d="M29.557 13.299C29.047 11.777 28.299 11 27.335 11H27.324C25.557 11 23.357 13.627 21.167 18.16C21.547 18.017 21.926 17.886 22.294 17.755C23.823 15.16 25.275 13.627 26.327 13.627H26.424C27.01 13.682 27.444 14.251 27.692 15.324C28.342 18.084 27.627 23.491 26.034 29.195C27.259 29.272 28.332 29.578 29.232 30.093C30.456 22.988 30.673 16.616 29.557 13.299ZM19.953 20.875C19.4259 22.1454 18.9344 23.4302 18.479 24.728C17.9989 26.0996 17.5544 27.4834 17.146 28.878H17.612C18.2713 26.7228 19.042 24.6033 19.921 22.528C20.214 21.849 20.506 21.214 20.799 20.59C20.517 20.678 20.235 20.765 19.953 20.875Z" fill="#0075C9"/>
</g>
<defs>
<clipPath id="clip0_1760_689">
<rect width="32" height="20" fill="white" transform="translate(4 11)"/>
</clipPath>
</defs>
</svg>
