<svg width="40" height="40" viewBox="0 0 40 40" fill="none" xmlns="http://www.w3.org/2000/svg">
<rect x="0.5" y="0.5" width="39" height="39" rx="3.5" fill="#FAFAFA"/>
<rect x="0.5" y="0.5" width="39" height="39" rx="3.5" stroke="#E6E6E6"/>
<g clip-path="url(#clip0_3500_5030)">
<mask id="mask0_3500_5030" style="mask-type:luminance" maskUnits="userSpaceOnUse" x="-34" y="-330" width="404" height="483">
<path d="M-33.1997 152.907H369.813V-329.226H-33.1997V152.907Z" fill="white"/>
</mask>
<g mask="url(#mask0_3500_5030)">
<path d="M32.9623 14.7356C32.9623 14.8288 32.8846 14.9 32.7845 14.9C32.6831 14.9 32.606 14.8288 32.606 14.7356C32.606 14.6419 32.6831 14.5713 32.7845 14.5713C32.8846 14.5713 32.9623 14.6419 32.9623 14.7356ZM32.9965 14.7356C32.9965 14.6236 32.9037 14.5396 32.7845 14.5396C32.6633 14.5396 32.5718 14.6236 32.5718 14.7356C32.5718 14.847 32.6633 14.9316 32.7845 14.9316C32.9037 14.9316 32.9965 14.847 32.9965 14.7356ZM32.8806 14.6894C32.8806 14.6449 32.8464 14.6248 32.8049 14.6248H32.7035V14.8391H32.743V14.7563H32.7871L32.8326 14.8391H32.8793L32.8326 14.7527C32.8615 14.7441 32.8806 14.7234 32.8806 14.6894ZM32.8411 14.6906C32.8411 14.7113 32.8253 14.721 32.8036 14.721H32.743V14.6595H32.8036C32.8253 14.6595 32.8411 14.6705 32.8411 14.6906Z" fill="#FF6600"/>
</g>
<path d="M34.0001 22.2329H32.2129V23.8857H34.0001V22.2329Z" fill="#FF6600"/>
<path d="M28.5861 14.8744L29.6509 22.261L30.7137 14.8744H32.3725L30.8211 23.8857H28.4623L26.9272 14.8744H28.5861Z" fill="#FF6600"/>
<mask id="mask1_3500_5030" style="mask-type:luminance" maskUnits="userSpaceOnUse" x="-34" y="-330" width="404" height="483">
<path d="M-33.1997 152.907H369.813V-329.226H-33.1997V152.907Z" fill="white"/>
</mask>
<g mask="url(#mask1_3500_5030)">
<path d="M6.91995 14.8739H6V16.0713H6.91995V23.8853H8.53661V16.0713H9.67256V14.8739H8.53661V13.0421C8.53661 12.7749 8.59654 12.5703 8.73614 12.4303C8.87641 12.2915 9.09043 12.2258 9.38083 12.2258H9.6719V10.9998H9.08713C8.36869 10.9998 7.67659 11.1404 7.34733 11.4295C7.01807 11.7187 6.91995 12.1673 6.91995 12.8065V14.8739Z" fill="#FF6600"/>
</g>
<path d="M10.1775 23.8849H11.7981V14.8735H10.1775V23.8849Z" fill="#FF6600"/>
<mask id="mask2_3500_5030" style="mask-type:luminance" maskUnits="userSpaceOnUse" x="-34" y="-330" width="404" height="483">
<path d="M-33.1997 152.907H369.813V-329.226H-33.1997V152.907Z" fill="white"/>
</mask>
<g mask="url(#mask2_3500_5030)">
<path d="M19.2805 19.8897H22.6587V17.1126C22.6548 15.4513 21.7908 14.7701 20.1537 14.7701C18.4514 14.7701 17.6533 15.4494 17.6533 17.1235V21.6873C17.6586 23.2098 18.6556 23.9976 20.1531 23.9976C21.6499 23.9976 22.6548 23.3492 22.6587 21.6873V20.9654H21.0934L21.0954 21.8207C21.0954 22.4306 20.8485 22.8525 20.186 22.8525C19.5222 22.8525 19.2805 22.427 19.2805 21.82V19.8897ZM19.2805 16.8137C19.2805 16.3053 19.4234 15.7788 20.1814 15.7788C20.9387 15.7788 21.0921 16.2974 21.0921 16.813V18.6752H19.2805V16.8137Z" fill="#FF6600"/>
<path d="M15.4419 18.7623C14.2124 17.7755 14.1169 17.6324 14.1169 16.8971C14.1169 16.2707 14.1755 15.8896 14.7847 15.8896C15.3931 15.8896 15.4722 16.2658 15.4722 16.9044V17.7365H17.0342V16.379C17.0289 15.3131 16.1419 14.7713 14.7484 14.7713C13.3781 14.7713 12.4845 15.1932 12.4766 16.8971C12.4752 17.1868 12.4772 17.1868 12.4766 17.0748C12.4792 17.6105 12.4818 18.4597 13.9141 19.5957L14.325 19.9207C15.3806 20.7438 15.4959 20.843 15.4913 21.8219C15.4906 22.4252 15.4504 22.8823 14.7656 22.8823C14.0807 22.8823 14.0379 22.4215 14.0379 22.1372V20.9842H12.3982V22.1737C12.3982 23.6378 13.4288 24 14.7636 24C16.0997 24 17.1316 23.6341 17.1316 21.7507V21.5942C17.1283 20.2781 16.8708 19.925 15.4419 18.7623Z" fill="#FF6600"/>
<path d="M24.8281 15.8017V14.874H23.3511V23.8848H24.9447V17.6049C24.944 17.1197 25.1152 16.8001 25.4129 16.6114C25.6947 16.4318 26.0418 16.3709 26.4836 16.3648V14.7705C25.6381 14.7869 25.2733 14.941 24.8446 15.7689L24.8281 15.8017Z" fill="#FF6600"/>
</g>
</g>
<path d="M9.3486 27.1587H8.84113C8.82665 27.0755 8.79997 27.0018 8.76107 26.9375C8.72217 26.8724 8.67378 26.8172 8.61588 26.772C8.55799 26.7268 8.49195 26.6928 8.41778 26.6702C8.3445 26.6467 8.26535 26.635 8.18032 26.635C8.02925 26.635 7.89537 26.6729 7.77868 26.7489C7.66199 26.824 7.57062 26.9344 7.50459 27.08C7.43855 27.2247 7.40553 27.4016 7.40553 27.6106C7.40553 27.8231 7.43855 28.0022 7.50459 28.1479C7.57153 28.2926 7.66289 28.4021 7.77868 28.4763C7.89537 28.5495 8.0288 28.5862 8.17896 28.5862C8.26219 28.5862 8.33998 28.5753 8.41235 28.5536C8.48562 28.531 8.5512 28.498 8.6091 28.4545C8.6679 28.4111 8.7172 28.3578 8.757 28.2944C8.79771 28.2311 8.82575 28.1587 8.84113 28.0773L9.3486 28.08C9.32961 28.2121 9.28845 28.336 9.22513 28.4518C9.16271 28.5676 9.08084 28.6698 8.97953 28.7585C8.87821 28.8462 8.75971 28.915 8.62402 28.9647C8.48833 29.0136 8.33772 29.038 8.17218 29.038C7.92794 29.038 7.70993 28.9815 7.51816 28.8684C7.32638 28.7553 7.17532 28.592 7.06495 28.3786C6.95459 28.1651 6.89941 27.9091 6.89941 27.6106C6.89941 27.3111 6.95505 27.0551 7.06631 26.8426C7.17758 26.6291 7.3291 26.4658 7.52087 26.3527C7.71264 26.2396 7.92975 26.1831 8.17218 26.1831C8.32686 26.1831 8.47069 26.2048 8.60367 26.2482C8.73665 26.2917 8.85515 26.3554 8.95918 26.4396C9.0632 26.5228 9.14869 26.625 9.21563 26.7462C9.28347 26.8665 9.3278 27.004 9.3486 27.1587Z" fill="black"/>
<path d="M10.506 29.0407C10.3024 29.0407 10.126 28.9959 9.97678 28.9064C9.82752 28.8168 9.71173 28.6915 9.62941 28.5305C9.548 28.3695 9.50729 28.1814 9.50729 27.9661C9.50729 27.7508 9.548 27.5622 9.62941 27.4002C9.71173 27.2383 9.82752 27.1126 9.97678 27.023C10.126 26.9335 10.3024 26.8887 10.506 26.8887C10.7095 26.8887 10.8859 26.9335 11.0352 27.023C11.1844 27.1126 11.2997 27.2383 11.3812 27.4002C11.4635 27.5622 11.5046 27.7508 11.5046 27.9661C11.5046 28.1814 11.4635 28.3695 11.3812 28.5305C11.2997 28.6915 11.1844 28.8168 11.0352 28.9064C10.8859 28.9959 10.7095 29.0407 10.506 29.0407ZM10.5087 28.6472C10.619 28.6472 10.7113 28.6169 10.7855 28.5563C10.8597 28.4948 10.9148 28.4125 10.951 28.3094C10.9881 28.2062 11.0067 28.0913 11.0067 27.9647C11.0067 27.8372 10.9881 27.7218 10.951 27.6187C10.9148 27.5147 10.8597 27.4319 10.7855 27.3704C10.7113 27.3089 10.619 27.2781 10.5087 27.2781C10.3956 27.2781 10.3015 27.3089 10.2264 27.3704C10.1523 27.4319 10.0966 27.5147 10.0595 27.6187C10.0234 27.7218 10.0053 27.8372 10.0053 27.9647C10.0053 28.0913 10.0234 28.2062 10.0595 28.3094C10.0966 28.4125 10.1523 28.4948 10.2264 28.5563C10.3015 28.6169 10.3956 28.6472 10.5087 28.6472Z" fill="black"/>
<path d="M11.7305 29V26.9158H12.2V27.27H12.2244C12.2678 27.1506 12.3397 27.0574 12.4401 26.9905C12.5406 26.9226 12.6604 26.8887 12.7997 26.8887C12.9408 26.8887 13.0598 26.9231 13.1566 26.9918C13.2543 27.0597 13.323 27.1524 13.3628 27.27H13.3845C13.4307 27.1542 13.5085 27.0619 13.6179 26.9932C13.7283 26.9235 13.859 26.8887 14.0101 26.8887C14.2018 26.8887 14.3583 26.9493 14.4796 27.0705C14.6008 27.1917 14.6614 27.3686 14.6614 27.6011V29H14.1688V27.677C14.1688 27.5477 14.1345 27.4532 14.0657 27.3935C13.997 27.3328 13.9128 27.3025 13.8133 27.3025C13.6948 27.3025 13.6021 27.3396 13.5352 27.4138C13.4691 27.4871 13.4361 27.5825 13.4361 27.7001V29H12.9544V27.6567C12.9544 27.549 12.9218 27.4631 12.8567 27.3989C12.7925 27.3347 12.7084 27.3025 12.6043 27.3025C12.5338 27.3025 12.4695 27.3206 12.4117 27.3568C12.3538 27.3921 12.3076 27.4423 12.2732 27.5074C12.2389 27.5717 12.2217 27.6467 12.2217 27.7327V29H11.7305Z" fill="black"/>
<path d="M14.9686 29V26.9158H15.4381V27.27H15.4626C15.506 27.1506 15.5779 27.0574 15.6783 26.9905C15.7787 26.9226 15.8986 26.8887 16.0379 26.8887C16.179 26.8887 16.2979 26.9231 16.3947 26.9918C16.4924 27.0597 16.5612 27.1524 16.601 27.27H16.6227C16.6688 27.1542 16.7466 27.0619 16.8561 26.9932C16.9664 26.9235 17.0972 26.8887 17.2482 26.8887C17.44 26.8887 17.5965 26.9493 17.7177 27.0705C17.8389 27.1917 17.8995 27.3686 17.8995 27.6011V29H17.407V27.677C17.407 27.5477 17.3726 27.4532 17.3039 27.3935C17.2351 27.3328 17.151 27.3025 17.0515 27.3025C16.933 27.3025 16.8403 27.3396 16.7733 27.4138C16.7073 27.4871 16.6743 27.5825 16.6743 27.7001V29H16.1926V27.6567C16.1926 27.549 16.16 27.4631 16.0949 27.3989C16.0306 27.3347 15.9465 27.3025 15.8425 27.3025C15.7719 27.3025 15.7077 27.3206 15.6498 27.3568C15.5919 27.3921 15.5458 27.4423 15.5114 27.5074C15.477 27.5717 15.4598 27.6467 15.4598 27.7327V29H14.9686Z" fill="black"/>
<path d="M19.1295 29.0407C18.9205 29.0407 18.7401 28.9973 18.5881 28.9105C18.437 28.8227 18.3208 28.6988 18.2394 28.5387C18.158 28.3777 18.1172 28.1881 18.1172 27.9701C18.1172 27.7557 18.158 27.5676 18.2394 27.4057C18.3217 27.2428 18.4366 27.1162 18.584 27.0257C18.7315 26.9344 18.9047 26.8887 19.1037 26.8887C19.2322 26.8887 19.3534 26.9095 19.4674 26.9511C19.5822 26.9918 19.6835 27.0551 19.7713 27.1411C19.8599 27.227 19.9296 27.3365 19.9803 27.4694C20.0309 27.6015 20.0562 27.7589 20.0562 27.9416V28.0923H18.3479V27.7612H19.5854C19.5845 27.6671 19.5641 27.5834 19.5243 27.5101C19.4845 27.436 19.4289 27.3776 19.3574 27.3351C19.2869 27.2926 19.2046 27.2713 19.1105 27.2713C19.0101 27.2713 18.9219 27.2958 18.8459 27.3446C18.7699 27.3925 18.7107 27.4559 18.6681 27.5346C18.6265 27.6124 18.6053 27.6978 18.6044 27.791V28.08C18.6044 28.2013 18.6265 28.3053 18.6709 28.3921C18.7152 28.4781 18.7771 28.5441 18.8567 28.5902C18.9364 28.6355 19.0295 28.6581 19.1363 28.6581C19.2077 28.6581 19.2724 28.6481 19.3303 28.6282C19.3882 28.6074 19.4384 28.5771 19.4809 28.5373C19.5234 28.4975 19.5555 28.4482 19.5773 28.3894L20.0359 28.441C20.0069 28.5622 19.9518 28.668 19.8703 28.7585C19.7898 28.848 19.6867 28.9177 19.561 28.9674C19.4352 29.0163 19.2914 29.0407 19.1295 29.0407Z" fill="black"/>
<path d="M20.2807 29V26.9158H20.757V27.2632H20.7787C20.8167 27.1429 20.8818 27.0502 20.9741 26.985C21.0673 26.919 21.1736 26.886 21.293 26.886C21.3201 26.886 21.3504 26.8873 21.3839 26.89C21.4183 26.8919 21.4468 26.895 21.4694 26.8995V27.3514C21.4486 27.3442 21.4156 27.3378 21.3703 27.3324C21.326 27.3261 21.283 27.3229 21.2414 27.3229C21.1519 27.3229 21.0714 27.3423 20.9999 27.3812C20.9293 27.4192 20.8737 27.4722 20.833 27.54C20.7923 27.6078 20.7719 27.6861 20.7719 27.7747V29H20.2807Z" fill="black"/>
<path d="M22.428 29.0407C22.2199 29.0407 22.0412 28.995 21.892 28.9037C21.7436 28.8123 21.6292 28.6861 21.5487 28.5251C21.4691 28.3632 21.4293 28.1768 21.4293 27.9661C21.4293 27.7544 21.47 27.5676 21.5514 27.4057C21.6328 27.2428 21.7477 27.1162 21.8961 27.0257C22.0453 26.9344 22.2217 26.8887 22.4252 26.8887C22.5944 26.8887 22.7441 26.9199 22.8744 26.9823C23.0055 27.0438 23.11 27.1311 23.1878 27.2442C23.2656 27.3564 23.3099 27.4875 23.3208 27.6377H22.8513C22.8323 27.5373 22.7871 27.4536 22.7156 27.3867C22.6451 27.3188 22.5505 27.2849 22.432 27.2849C22.3316 27.2849 22.2434 27.312 22.1674 27.3663C22.0914 27.4197 22.0322 27.4966 21.9897 27.597C21.9481 27.6974 21.9273 27.8177 21.9273 27.9579C21.9273 28.0999 21.9481 28.2221 21.9897 28.3243C22.0313 28.4256 22.0896 28.5038 22.1647 28.559C22.2407 28.6133 22.3298 28.6404 22.432 28.6404C22.5044 28.6404 22.5691 28.6269 22.6261 28.5997C22.684 28.5717 22.7323 28.5314 22.7712 28.479C22.8101 28.4265 22.8368 28.3627 22.8513 28.2876H23.3208C23.309 28.4351 23.2656 28.5658 23.1905 28.6798C23.1154 28.7929 23.0132 28.8815 22.8839 28.9457C22.7545 29.0091 22.6025 29.0407 22.428 29.0407Z" fill="black"/>
<path d="M24.4558 29.0407C24.2468 29.0407 24.0663 28.9973 23.9144 28.9105C23.7633 28.8227 23.6471 28.6988 23.5656 28.5387C23.4842 28.3777 23.4435 28.1881 23.4435 27.9701C23.4435 27.7557 23.4842 27.5676 23.5656 27.4057C23.648 27.2428 23.7628 27.1162 23.9103 27.0257C24.0577 26.9344 24.231 26.8887 24.43 26.8887C24.5584 26.8887 24.6796 26.9095 24.7936 26.9511C24.9085 26.9918 25.0098 27.0551 25.0976 27.1411C25.1862 27.227 25.2559 27.3365 25.3065 27.4694C25.3572 27.6015 25.3825 27.7589 25.3825 27.9416V28.0923H23.6742V27.7612H24.9117C24.9108 27.6671 24.8904 27.5834 24.8506 27.5101C24.8108 27.436 24.7552 27.3776 24.6837 27.3351C24.6132 27.2926 24.5308 27.2713 24.4368 27.2713C24.3364 27.2713 24.2482 27.2958 24.1722 27.3446C24.0962 27.3925 24.0369 27.4559 23.9944 27.5346C23.9528 27.6124 23.9315 27.6978 23.9306 27.791V28.08C23.9306 28.2013 23.9528 28.3053 23.9971 28.3921C24.0415 28.4781 24.1034 28.5441 24.183 28.5902C24.2626 28.6355 24.3558 28.6581 24.4625 28.6581C24.534 28.6581 24.5987 28.6481 24.6566 28.6282C24.7145 28.6074 24.7647 28.5771 24.8072 28.5373C24.8497 28.4975 24.8818 28.4482 24.9035 28.3894L25.3622 28.441C25.3332 28.5622 25.278 28.668 25.1966 28.7585C25.1161 28.848 25.013 28.9177 24.8873 28.9674C24.7615 29.0163 24.6177 29.0407 24.4558 29.0407Z" fill="black"/>
<path d="M26.3855 29V26.2211H26.8889V27.3975H28.1766V26.2211H28.6813V29H28.1766V27.8195H26.8889V29H26.3855Z" fill="black"/>
<path d="M30.3445 28.1235V26.9158H30.8357V29H30.3594V28.6296H30.3377C30.2906 28.7463 30.2133 28.8417 30.1057 28.9159C29.9989 28.9901 29.8673 29.0272 29.7108 29.0272C29.5742 29.0272 29.4534 28.9968 29.3485 28.9362C29.2445 28.8747 29.1631 28.7856 29.1043 28.6689C29.0455 28.5513 29.0161 28.4093 29.0161 28.2429V26.9158H29.5073V28.1669C29.5073 28.299 29.5434 28.4039 29.6158 28.4817C29.6882 28.5595 29.7832 28.5984 29.9008 28.5984C29.9731 28.5984 30.0432 28.5807 30.1111 28.5455C30.1789 28.5102 30.2346 28.4577 30.278 28.3881C30.3223 28.3175 30.3445 28.2293 30.3445 28.1235Z" fill="black"/>
<path d="M31.1714 29V26.2211H31.6626V27.2605H31.683C31.7083 27.2098 31.744 27.156 31.7902 27.099C31.8363 27.0411 31.8987 26.9918 31.9774 26.9511C32.0561 26.9095 32.1565 26.8887 32.2786 26.8887C32.4397 26.8887 32.5849 26.9298 32.7142 27.0122C32.8445 27.0936 32.9476 27.2143 33.0236 27.3745C33.1005 27.5337 33.1389 27.7291 33.1389 27.9606C33.1389 28.1895 33.1014 28.384 33.0263 28.5441C32.9512 28.7042 32.849 28.8263 32.7196 28.9105C32.5903 28.9946 32.4437 29.0366 32.28 29.0366C32.1606 29.0366 32.0615 29.0167 31.9828 28.9769C31.9041 28.9371 31.8408 28.8892 31.7929 28.8331C31.7458 28.7761 31.7092 28.7223 31.683 28.6716H31.6545V29H31.1714ZM31.6531 27.9579C31.6531 28.0927 31.6721 28.2108 31.7101 28.3121C31.749 28.4134 31.8046 28.4925 31.877 28.5495C31.9503 28.6056 32.0389 28.6337 32.143 28.6337C32.2515 28.6337 32.3424 28.6047 32.4157 28.5468C32.489 28.488 32.5441 28.408 32.5812 28.3066C32.6192 28.2044 32.6382 28.0882 32.6382 27.9579C32.6382 27.8286 32.6197 27.7137 32.5826 27.6133C32.5455 27.5129 32.4903 27.4342 32.417 27.3772C32.3438 27.3202 32.2524 27.2917 32.143 27.2917C32.038 27.2917 31.9489 27.3193 31.8757 27.3745C31.8024 27.4296 31.7467 27.507 31.7088 27.6065C31.6717 27.706 31.6531 27.8231 31.6531 27.9579Z" fill="black"/>
<defs>
<clipPath id="clip0_3500_5030">
<rect width="28" height="13" fill="white" transform="translate(6 11)"/>
</clipPath>
</defs>
</svg>
