<svg width="40" height="40" viewBox="0 0 40 40" fill="none" xmlns="http://www.w3.org/2000/svg">
<rect x="0.5" y="0.5" width="39" height="39" rx="3.5" fill="#FAFAFA"/>
<rect x="0.5" y="0.5" width="39" height="39" rx="3.5" stroke="#E6E6E6"/>
<path fill-rule="evenodd" clip-rule="evenodd" d="M11.6088 12.0487C11.6088 12.0762 11.4706 12.0974 11.2917 12.0974C11.1129 12.0974 10.9747 12.1188 10.9747 12.1463C10.9747 12.173 10.9088 12.195 10.8284 12.195C10.748 12.195 10.6821 12.2169 10.6821 12.2437C10.6821 12.2706 10.6163 12.2925 10.5357 12.2925C10.4553 12.2925 10.3894 12.3145 10.3894 12.3414C10.3894 12.3682 10.3455 12.3901 10.292 12.3901C10.2382 12.3901 10.1944 12.4121 10.1944 12.4388C10.1944 12.4657 10.1419 12.4877 10.0776 12.4877C10.0136 12.4877 9.94787 12.5219 9.93171 12.5639C9.91575 12.6059 9.88216 12.6275 9.85739 12.6122C9.8324 12.5969 9.76879 12.6393 9.71588 12.7067C9.66298 12.7739 9.59453 12.8291 9.56388 12.8291C9.48158 12.8291 9.17023 13.1553 9.17023 13.2418C9.17023 13.283 9.13601 13.3168 9.09423 13.3168C9.05245 13.3168 9.03187 13.3386 9.04846 13.3655C9.06504 13.3924 9.05224 13.4142 9.02012 13.4142C8.94264 13.4142 8.83242 13.5631 8.83053 13.6703C8.82969 13.7172 8.80702 13.7556 8.78015 13.7556C8.75327 13.7556 8.73144 13.7995 8.73144 13.8532C8.73144 13.9067 8.70939 13.9506 8.68252 13.9506C8.65586 13.9506 8.63381 13.9945 8.63381 14.0482C8.63381 14.1018 8.61198 14.1457 8.5851 14.1457C8.55823 14.1457 8.5364 14.2116 8.5364 14.292C8.5364 14.3726 8.51435 14.4383 8.48748 14.4383C8.4606 14.4383 8.43877 14.5372 8.43877 14.6577C8.43877 14.7784 8.41673 14.8773 8.39006 14.8773C8.36214 14.8773 8.34114 15.0237 8.34114 15.2187C8.34114 15.4137 8.32036 15.5601 8.29244 15.5601C8.2622 15.5601 8.24373 15.8202 8.24373 16.2428V16.9256H7V19.6566H8.24373V28.2886H11.5111V19.6566H14.0471V16.9256H11.5111V16.5109C11.5111 16.2672 11.5313 16.0965 11.5599 16.0965C11.5867 16.0965 11.6088 16.0197 11.6088 15.9258C11.6088 15.832 11.6306 15.7551 11.6575 15.7551C11.6843 15.7551 11.7062 15.7215 11.7062 15.6804C11.7062 15.5849 12.0213 15.2674 12.1162 15.2674C12.1559 15.2674 12.2017 15.2456 12.2182 15.2187C12.2348 15.1918 12.3129 15.1698 12.3919 15.1698C12.4708 15.1698 12.5353 15.148 12.5353 15.1211C12.5353 15.0906 12.8197 15.0724 13.2913 15.0724H14.0471V12H12.8279C12.0476 12 11.6088 12.0174 11.6088 12.0487ZM15.5102 28.2886H18.7776V12H15.5102V28.2886Z" fill="#343C3C"/>
<path fill-rule="evenodd" clip-rule="evenodd" d="M30.2966 16.4005C30.2788 16.4155 29.1839 16.486 28.9512 16.487C28.8926 16.4872 28.8336 16.5155 28.8202 16.55C28.8059 16.5861 28.754 16.6018 28.6967 16.5873C28.6406 16.5729 28.5642 16.5951 28.5196 16.6386C28.4764 16.6806 28.3989 16.715 28.347 16.715C28.2953 16.715 28.2529 16.7366 28.2529 16.7628C28.2529 16.7888 28.2248 16.8104 28.1901 16.8104C28.1557 16.8104 28.0513 16.8737 27.9585 16.9512C27.8654 17.0287 27.7621 17.0931 27.7285 17.0941C27.6949 17.0952 27.6676 17.1142 27.6676 17.1364C27.6676 17.21 27.4876 17.3808 27.4475 17.3453C27.4256 17.326 27.4221 17.3344 27.4391 17.3638C27.475 17.4253 27.3078 17.634 27.2601 17.5875C27.2427 17.5704 27.2284 17.5922 27.2284 17.6359C27.2284 17.6795 27.2066 17.7152 27.1797 17.7152C27.1528 17.7152 27.131 17.7367 27.131 17.763C27.131 17.789 27.0871 17.8587 27.0333 17.9178C26.8367 18.1335 26.808 18.1745 26.822 18.2184C26.83 18.243 26.7706 18.3361 26.6899 18.4255C26.6093 18.5146 26.5305 18.6379 26.5148 18.6992C26.499 18.7605 26.4665 18.8107 26.4425 18.8107C26.4188 18.8107 26.3991 18.8536 26.3991 18.9061C26.3991 18.9583 26.3812 19.0012 26.3594 19.0012C26.3375 19.0012 26.2901 19.0752 26.2537 19.1658C26.2172 19.2563 26.1729 19.3215 26.155 19.3108C26.1372 19.2999 26.1191 19.3223 26.1145 19.3604C26.1101 19.3988 26.1027 19.4611 26.0983 19.4992C26.0939 19.5374 26.0718 19.5575 26.0496 19.5439C26.0271 19.5306 26.0072 19.5368 26.0051 19.5581C25.992 19.692 25.9572 19.7756 25.8677 19.8868C25.8118 19.9561 25.7768 20.029 25.7894 20.0491C25.8022 20.0694 25.7799 20.1123 25.74 20.1447C25.7001 20.1771 25.6673 20.2546 25.6673 20.3167C25.6673 20.379 25.6497 20.4301 25.6283 20.4301C25.6069 20.4301 25.5602 20.5105 25.5245 20.6087C25.4888 20.7069 25.4187 20.8717 25.3685 20.9749C25.3181 21.078 25.2771 21.1904 25.2771 21.2248C25.2771 21.2593 25.2551 21.2874 25.2282 21.2874C25.2015 21.2874 25.1795 21.3409 25.1795 21.4065C25.1795 21.4719 25.1576 21.5254 25.1307 21.5254C25.1039 21.5254 25.082 21.5769 25.082 21.6394C25.082 21.7022 25.0507 21.7651 25.0127 21.7795C24.9745 21.7936 24.9499 21.8442 24.9577 21.8916C24.9657 21.9392 24.9365 22.0177 24.893 22.0663C24.8493 22.1149 24.8172 22.1627 24.8216 22.1723C24.8415 22.2172 24.7733 22.3829 24.7346 22.3829C24.7111 22.3829 24.6952 22.3989 24.6994 22.4186C24.7036 22.4382 24.6903 22.4971 24.6697 22.5496C24.4856 23.0197 24.4181 23.1708 24.3866 23.1846C24.3667 23.1932 24.3501 23.2522 24.3501 23.3156C24.3501 23.3787 24.3283 23.4306 24.3014 23.4306C24.2745 23.4306 24.2527 23.4841 24.2527 23.5497C24.2527 23.6151 24.2306 23.6687 24.2037 23.6687C24.177 23.6687 24.155 23.7013 24.155 23.7408C24.155 23.8192 24.0573 24.0086 23.9933 24.0545C23.9712 24.0703 23.946 24.1132 23.9372 24.1497C23.8889 24.3496 23.8435 24.4308 23.7805 24.4308C23.7419 24.4308 23.7234 24.4517 23.7398 24.4775C23.7765 24.5358 23.1122 25.54 23.0662 25.4953C23.048 25.4773 23.0329 25.4888 23.0329 25.5206C23.0329 25.5523 22.978 25.628 22.911 25.6887C22.8438 25.7494 22.789 25.8246 22.789 25.856C22.789 25.8872 22.767 25.8997 22.7403 25.8835C22.7134 25.8673 22.6914 25.8839 22.6914 25.9206C22.6914 26.0001 22.3723 26.2944 22.3303 26.2534C22.3144 26.2376 22.3011 26.2587 22.3011 26.3001C22.3011 26.3415 22.2354 26.4041 22.1548 26.4387C22.0743 26.4736 22.0084 26.5267 22.0084 26.5568C22.0084 26.612 21.8702 26.6913 21.7998 26.6764C21.7788 26.672 21.7492 26.7008 21.7337 26.7403C21.7181 26.7799 21.6755 26.8121 21.6387 26.8121C21.6022 26.8121 21.4995 26.8521 21.4102 26.9011C21.2223 27.0042 21.0013 27.0483 20.5084 27.0817C20.2381 27.0998 20.1545 27.1223 20.1545 27.1764C20.1545 27.2552 20.2688 27.3837 20.3387 27.3837C20.4204 27.3837 20.6913 27.5328 20.6913 27.5777C20.6913 27.6019 20.7077 27.6173 20.7279 27.6117C20.7583 27.6033 21.4319 27.9017 21.7274 28.0542C21.7738 28.0784 21.8561 28.0981 21.9103 28.0981C21.9643 28.0981 22.0084 28.1196 22.0084 28.1457C22.0084 28.1719 22.0949 28.1934 22.2008 28.1934C22.3064 28.1934 22.4066 28.2147 22.4232 28.241C22.441 28.2695 22.756 28.2886 23.2036 28.2886C23.6514 28.2886 23.9662 28.2695 23.9842 28.241C24.0008 28.2147 24.1012 28.1934 24.2073 28.1934C24.4016 28.1934 24.7487 28.0626 24.9965 27.8961C25.0703 27.8465 25.1307 27.8211 25.1307 27.8399C25.1307 27.8586 25.1845 27.8172 25.2502 27.7479C25.3162 27.6786 25.3931 27.6218 25.421 27.6218C25.4491 27.6218 25.4722 27.5998 25.4722 27.573C25.4722 27.5461 25.5655 27.4315 25.6795 27.3185C25.9418 27.0585 26.1141 26.8599 26.0773 26.8599C26.0618 26.8599 26.1061 26.7902 26.176 26.7051C26.246 26.6198 26.3203 26.5287 26.3413 26.5025C26.3625 26.4764 26.3944 26.4227 26.4127 26.3836C26.4308 26.3442 26.5123 26.205 26.5937 26.074C26.6752 25.9429 26.7796 25.7553 26.8258 25.6571C26.8722 25.5589 26.9268 25.4785 26.9472 25.4785C26.9678 25.4785 26.9846 25.4449 26.9846 25.4037C26.9846 25.3625 27.0178 25.2965 27.0581 25.2571C27.0986 25.2175 27.1194 25.1654 27.1041 25.1414C27.0888 25.1173 27.0982 25.0976 27.1247 25.0976C27.1514 25.0976 27.1881 25.0494 27.2066 24.9903C27.2618 24.8142 27.5378 24.2653 27.5798 24.2483C27.6012 24.2395 27.6189 24.1819 27.6189 24.1199C27.6189 24.0582 27.6407 23.9945 27.6676 23.9783C27.6945 23.9621 27.7163 23.9073 27.7163 23.8565C27.7163 23.8056 27.7384 23.764 27.765 23.764C27.7919 23.764 27.814 23.7316 27.814 23.6918C27.814 23.6523 27.8333 23.5825 27.857 23.537C27.8808 23.4917 27.9223 23.4009 27.9496 23.3353C28.0925 22.9916 28.1647 22.859 28.2094 22.859C28.2365 22.859 28.2462 22.8393 28.2309 22.8151C28.2048 22.7741 28.4405 22.1914 28.6368 21.8112C28.6841 21.7196 28.7536 21.5428 28.7912 21.4184C28.829 21.2939 28.8769 21.192 28.8979 21.192C28.9189 21.192 28.9359 21.1504 28.9359 21.0995C28.9359 21.0489 28.9579 20.994 28.9848 20.9778C29.0115 20.9616 29.0336 20.906 29.0336 20.8543C29.0336 20.8027 29.0678 20.7477 29.1096 20.7319C29.1514 20.7163 29.1738 20.6741 29.1598 20.6382C29.1457 20.6023 29.152 20.573 29.1741 20.573C29.1959 20.573 29.2534 20.4871 29.3017 20.3823C29.3503 20.2776 29.4044 20.1918 29.4221 20.1918C29.4399 20.1918 29.4845 20.1168 29.5214 20.0252C29.5582 19.9335 29.6063 19.8585 29.6281 19.8585C29.65 19.8585 29.6678 19.8263 29.6678 19.7871C29.6678 19.7477 29.6897 19.7155 29.7165 19.7155C29.7434 19.7155 29.7653 19.6836 29.7653 19.6442C29.7653 19.6048 29.7835 19.5728 29.8058 19.5728C29.8281 19.5728 29.8776 19.5138 29.9156 19.4418C29.9537 19.3696 30.0782 19.2146 30.1922 19.0974C30.3063 18.9799 30.3995 18.8659 30.3995 18.8439C30.3995 18.7818 30.5306 18.6688 30.5644 18.7018C30.581 18.718 30.5946 18.7043 30.5946 18.6711C30.5946 18.6088 30.795 18.4117 30.9855 18.2868C31.0453 18.2475 31.1199 18.1917 31.151 18.163C31.2031 18.1146 31.7208 17.8464 32.0114 17.7173C32.0797 17.6869 32.2492 17.6699 32.388 17.6793C32.5638 17.6912 32.648 17.6777 32.665 17.6344C32.6785 17.6004 32.7394 17.5721 32.8007 17.5717C32.9968 17.5704 33.0638 17.496 32.9307 17.4275C32.8668 17.3945 32.8034 17.3547 32.79 17.339C32.744 17.2852 32.3418 17.0962 32.2731 17.0962C32.2355 17.0962 32.2046 17.0747 32.2046 17.0484C32.2046 17.0224 32.1608 17.0009 32.107 17.0009C32.0534 17.0009 32.0093 16.9793 32.0093 16.9533C32.0093 16.927 31.9654 16.9055 31.9119 16.9055C31.8581 16.9055 31.8142 16.8842 31.8142 16.8579C31.8142 16.8317 31.7716 16.8104 31.7195 16.8104C31.6674 16.8104 31.6113 16.7888 31.5948 16.7628C31.5782 16.7366 31.5 16.715 31.4211 16.715C31.3312 16.715 31.2776 16.6904 31.2776 16.6488C31.2776 16.584 31.2098 16.5658 30.6679 16.4862C30.5337 16.4665 30.3995 16.4354 30.3697 16.4173C30.3399 16.3991 30.3069 16.3915 30.2966 16.4005ZM20.8146 16.8557C20.7701 16.926 20.8383 17.1337 20.9152 17.1626C20.953 17.1768 20.9845 17.2159 20.9852 17.2494C20.9858 17.283 21.0624 17.3931 21.1555 17.494C21.2487 17.5951 21.3153 17.6929 21.3033 17.7115C21.2916 17.7302 21.3245 17.7757 21.3768 17.8124C21.4291 17.8491 21.4718 17.9028 21.4718 17.9315C21.4718 17.9604 21.5444 18.0681 21.6333 18.171C21.7221 18.2739 21.8236 18.4277 21.8586 18.5124C21.8935 18.5973 21.9416 18.6549 21.9653 18.6405C21.9891 18.6262 22.0084 18.6479 22.0084 18.6889C22.0084 18.7297 22.0304 18.7631 22.0573 18.7631C22.084 18.7631 22.106 18.8072 22.106 18.8612C22.106 18.9151 22.1281 18.946 22.1548 18.9298C22.1816 18.9136 22.2037 18.9305 22.2037 18.9672C22.2037 19.0041 22.2476 19.073 22.3011 19.1203C22.3549 19.1677 22.3988 19.2353 22.3988 19.2706C22.3988 19.3059 22.4206 19.3346 22.4475 19.3346C22.4744 19.3346 22.4962 19.3649 22.4962 19.402C22.4962 19.4392 22.5131 19.4767 22.5336 19.4855C22.5832 19.5064 22.9514 20.0014 22.9176 20.0014C22.9031 20.0014 22.9451 20.0582 23.0108 20.1275C23.0767 20.1968 23.1305 20.2825 23.1305 20.3179C23.1305 20.3534 23.1526 20.3823 23.1792 20.3823C23.2061 20.3823 23.2282 20.4114 23.2282 20.4467C23.2282 20.4822 23.2939 20.5785 23.3743 20.6608C23.455 20.743 23.5207 20.8213 23.5207 20.8348C23.5207 20.8484 23.6415 21.0304 23.7891 21.2398C23.9368 21.4489 24.0575 21.6452 24.0575 21.6759C24.0575 21.7067 24.0714 21.7181 24.0886 21.7013C24.1058 21.6847 24.1577 21.7401 24.2039 21.8244C24.3543 22.0991 24.6429 21.9621 24.6429 21.6162C24.6429 21.5695 24.6647 21.5178 24.6916 21.5016C24.7185 21.4854 24.7405 21.4307 24.7405 21.3798C24.7405 21.329 24.7624 21.2874 24.7893 21.2874C24.8161 21.2874 24.838 21.2457 24.838 21.1949C24.838 21.144 24.86 21.0893 24.8867 21.0731C24.9136 21.0569 24.9356 21.0013 24.9356 20.9497C24.9356 20.898 24.9684 20.8435 25.0085 20.8285C25.0486 20.8133 25.0715 20.7856 25.0595 20.7666C25.0476 20.7477 25.1135 20.5849 25.2061 20.4053C25.2988 20.2255 25.3746 20.0504 25.3746 20.0161C25.3746 19.9819 25.3966 19.9538 25.4235 19.9538C25.4502 19.9538 25.4722 19.9226 25.4722 19.8845C25.4722 19.7982 25.7724 19.1736 25.8244 19.1521C25.8454 19.1433 25.8625 19.0951 25.8625 19.0449C25.8625 18.9946 25.8845 18.9536 25.9112 18.9536C26.0616 18.9536 25.9404 18.6364 25.6064 18.1542C25.4118 17.8735 25.2444 17.6246 25.2341 17.601C25.2238 17.5776 25.1524 17.494 25.0755 17.4154C24.9984 17.3367 24.9356 17.2487 24.9356 17.2194C24.9356 17.1903 24.8642 17.0861 24.7771 16.9881L24.6185 16.8098L22.7308 16.81C21.5862 16.8102 20.8321 16.8282 20.8146 16.8557ZM28.6383 22.8249C28.5955 22.883 28.5306 23.0109 28.4944 23.1091C28.4581 23.2073 28.4111 23.2877 28.3894 23.2877C28.368 23.2877 28.3506 23.3316 28.3506 23.3853C28.3506 23.439 28.3067 23.5715 28.2529 23.6799C28.1994 23.7884 28.1555 23.903 28.1555 23.9346C28.1555 23.9662 28.121 24.0047 28.0792 24.0205C28.0372 24.0363 28.0156 24.0691 28.0311 24.0937C28.0467 24.1183 28.037 24.1519 28.0099 24.1683C27.9826 24.1847 27.9603 24.2393 27.9603 24.2895C27.9603 24.4127 27.7911 24.6774 27.7409 24.633C27.7188 24.6135 27.7142 24.6204 27.7306 24.6487C27.747 24.677 27.7066 24.8038 27.6407 24.9307C27.575 25.0576 27.5212 25.1911 27.5212 25.2276C27.5212 25.2639 27.5017 25.2819 27.4779 25.2675C27.4542 25.2532 27.4187 25.2895 27.3992 25.3481C27.3796 25.4068 27.3578 25.4709 27.3509 25.4904C27.3439 25.5101 27.3355 25.5597 27.3322 25.6005C27.3288 25.6413 27.3087 25.6643 27.2874 25.6514C27.266 25.6387 27.2452 25.6729 27.241 25.7276C27.2368 25.7824 27.2074 25.8429 27.1757 25.8619C27.114 25.8993 27.2146 26.1931 27.2891 26.1931C27.3095 26.1931 27.3261 26.2165 27.3261 26.245C27.3261 26.2737 27.3712 26.354 27.4263 26.4235C27.5853 26.6243 27.7499 26.8636 27.9146 27.1336C27.9986 27.2712 28.0815 27.3846 28.0992 27.3856C28.1166 27.3866 28.2078 27.5045 28.3018 27.6476L28.4726 27.9076L30.3989 27.8957C32.5243 27.8826 32.4888 27.8883 32.2307 27.5955C32.1626 27.5182 32.107 27.4284 32.107 27.3956C32.107 27.3628 32.0891 27.3362 32.0673 27.3362C32.0452 27.3362 31.9751 27.2449 31.9115 27.1336C31.8476 27.0223 31.7668 26.9029 31.7317 26.8683C31.6966 26.8336 31.6678 26.7887 31.6678 26.7684C31.6678 26.736 31.6126 26.6624 31.4248 26.4451C31.3975 26.4135 31.3753 26.3651 31.3753 26.3378C31.3753 26.3106 31.3532 26.2882 31.3263 26.2882C31.2997 26.2882 31.2776 26.2616 31.2774 26.2288C31.2772 26.196 31.2115 26.1006 31.131 26.017C31.0508 25.9333 30.9849 25.8462 30.9849 25.8236C30.9849 25.8008 30.9464 25.7408 30.8996 25.6899C30.8525 25.6393 30.7813 25.5333 30.741 25.4547C30.7007 25.3762 30.6503 25.2905 30.6289 25.2643C30.4566 25.0543 30.1565 24.6381 30.1561 24.609C30.1559 24.5891 30.0897 24.5054 30.0093 24.4232C29.9287 24.341 29.8629 24.2489 29.8629 24.2184C29.8629 24.1878 29.8245 24.1214 29.7774 24.0707C29.6365 23.9182 29.4238 23.5961 29.4238 23.5352C29.4238 23.5038 29.4005 23.4782 29.3721 23.4782C29.3438 23.4782 29.3343 23.4562 29.3513 23.4294C29.3683 23.4025 29.3608 23.3865 29.3345 23.3937C29.2881 23.4064 29.0336 23.0812 29.0336 23.0086C29.0336 22.9699 28.775 22.715 28.7381 22.7177C28.7263 22.7185 28.6813 22.7667 28.6383 22.8249Z" fill="#EC447C"/>
</svg>
