<svg width="40" height="40" viewBox="0 0 40 40" fill="none" xmlns="http://www.w3.org/2000/svg">
<rect x="0.5" y="0.5" width="39" height="39" rx="3.5" fill="#FAFAFA"/>
<rect x="0.5" y="0.5" width="39" height="39" rx="3.5" stroke="#E6E6E6"/>
<rect x="6" y="6" width="28" height="28" rx="6" fill="url(#paint0_linear_59_25)"/>
<path d="M27.4228 19.3662C27.6262 19.4286 27.7942 19.5215 27.899 19.716C28.0165 19.9334 28.0022 20.2143 27.9959 20.4536C27.9753 21.2261 27.8359 21.9414 27.6005 22.6756C26.9897 24.5809 25.5159 26.2629 23.7421 27.1713C21.8651 28.1413 19.6785 28.322 17.6677 27.6734C15.5612 26.9886 13.8064 25.4112 12.8085 23.4452C11.8905 21.6363 11.7601 19.4431 12.3876 17.5225C12.9295 15.8638 14.0374 14.4751 15.4613 13.4839C15.7669 13.2711 16.0859 13.0668 16.4183 12.8983C18.1535 12.0243 20.1379 11.7786 22.0337 12.2029C22.3489 12.272 22.662 12.373 22.9684 12.474C24.0199 12.8208 25.0766 13.4266 25.9077 14.1585C26.1085 14.3352 26.2774 14.5358 26.4678 14.7219C25.9898 15.0565 24.7599 16.0876 24.191 15.9869C23.9373 15.942 23.6229 15.6518 23.406 15.5076C23.2529 15.4078 23.0959 15.314 22.9355 15.2263C21.1282 14.248 18.9298 14.3394 17.2099 15.4645C16.025 16.2438 15.201 17.4646 14.9216 18.855C14.7179 19.8573 14.7661 21.0057 15.1244 21.967C15.2763 22.3745 15.4962 22.7705 15.7385 23.1309C16.5254 24.3009 17.8875 25.1837 19.2688 25.4547C20.6793 25.7314 22.0657 25.4774 23.2564 24.6681C24.1291 24.063 24.7321 23.1419 24.9374 22.0999C24.9618 21.9675 24.9762 21.8332 24.9804 21.6987L22.8824 21.6727C22.503 21.6688 22.0369 21.7061 21.6692 21.624C21.5314 21.5933 21.4255 21.5264 21.3271 21.4258C21.0799 21.1732 20.5534 19.8409 20.433 19.4642C20.4052 19.3725 20.3606 19.3318 20.2926 19.2685C20.7413 19.2268 21.2027 19.2448 21.6533 19.2447L23.7879 19.245L25.8586 19.2444C26.2651 19.2444 26.6839 19.2264 27.0885 19.2636C27.2144 19.2751 27.3077 19.3226 27.4228 19.3662Z" fill="#ECA823"/>
<defs>
<linearGradient id="paint0_linear_59_25" x1="6.3925" y1="8.38382" x2="33.748" y2="31.5077" gradientUnits="userSpaceOnUse">
<stop stop-color="#0C0C0A"/>
<stop offset="1" stop-color="#351E0E"/>
</linearGradient>
</defs>
</svg>
