<svg width="40" height="40" viewBox="0 0 40 40" fill="none" xmlns="http://www.w3.org/2000/svg">
<rect x="0.5" y="0.5" width="39" height="39" rx="3.5" fill="#FAFAFA"/>
<rect x="0.5" y="0.5" width="39" height="39" rx="3.5" stroke="#E6E6E6"/>
<g clip-path="url(#clip0_122_9)">
<path fill-rule="evenodd" clip-rule="evenodd" d="M15.106 18.0147H13.8761C13.8325 18.0152 13.7908 18.0326 13.7594 18.0634C13.7281 18.0941 13.7095 18.1359 13.7075 18.1801V20.2657C13.7075 20.3087 13.7243 20.3499 13.7543 20.3804C13.7842 20.4108 13.8248 20.4278 13.8671 20.4278C13.9094 20.4278 13.95 20.4108 13.9799 20.3804C14.0098 20.3499 14.0267 20.3087 14.0267 20.2657V18.3397H15.1057C15.1993 18.3397 15.2892 18.3775 15.3554 18.4448C15.4217 18.5121 15.4589 18.6034 15.4589 18.6986C15.4589 18.7938 15.4217 18.8851 15.3554 18.9524C15.2892 19.0197 15.1993 19.0575 15.1057 19.0575H14.4709C14.4288 19.0577 14.3884 19.0749 14.3586 19.1053C14.3289 19.1357 14.3122 19.1768 14.3122 19.2197C14.3122 19.2625 14.3289 19.3036 14.3586 19.334C14.3884 19.3644 14.4288 19.3816 14.4709 19.3818H15.106C15.2844 19.3818 15.4555 19.3098 15.5816 19.1816C15.7078 19.0534 15.7787 18.8796 15.7787 18.6983C15.7787 18.517 15.7078 18.3431 15.5816 18.2149C15.4555 18.0867 15.2844 18.0147 15.106 18.0147ZM30.4387 18.0244V18.024C30.3955 18.024 30.3542 18.0414 30.3235 18.0724C30.293 18.1033 30.2758 18.1454 30.2758 18.1892V20.3133C30.276 20.3571 30.2932 20.399 30.3237 20.43C30.3543 20.4609 30.3957 20.4782 30.4387 20.4782C30.4818 20.4782 30.5231 20.4609 30.5536 20.43C30.5843 20.399 30.6015 20.3571 30.6016 20.3133V18.1896C30.6016 18.1457 30.5844 18.1037 30.5538 18.0727C30.5233 18.0417 30.4819 18.0243 30.4387 18.0244ZM28.6937 18.079C28.6666 18.0448 28.6273 18.023 28.5843 18.0182C28.5414 18.0135 28.4983 18.0262 28.4647 18.0537L28.465 18.054L28.4643 18.0543C28.4429 18.0695 28.4252 18.0897 28.4132 18.1133C28.4011 18.1368 28.3947 18.163 28.3947 18.1896V20.3136C28.3947 20.3575 28.4118 20.3996 28.4425 20.4307C28.473 20.4617 28.5145 20.4791 28.5576 20.4791C28.6008 20.4791 28.6423 20.4617 28.6728 20.4307C28.7033 20.3996 28.7206 20.3575 28.7206 20.3136V18.6408L29.7751 19.9736C29.8021 20.0079 29.8414 20.0298 29.8844 20.0346C29.9272 20.0393 29.9702 20.0266 30.004 19.9991C30.0376 19.9717 30.0591 19.9318 30.0639 19.8882C30.0685 19.8446 30.056 19.8009 30.029 19.7666L28.6937 18.079ZM27.7984 18.7499C27.713 18.5484 27.5756 18.374 27.4006 18.2454C27.2256 18.1167 27.0197 18.0386 26.8046 18.0193C26.5894 17.9999 26.3732 18.0401 26.1787 18.1355C25.9843 18.231 25.8189 18.3781 25.7 18.5613C25.5812 18.7445 25.5134 18.957 25.5038 19.1762C25.494 19.3954 25.5429 19.6132 25.6453 19.8064C25.7475 19.9997 25.8994 20.1612 26.0848 20.2739C26.2701 20.3865 26.4819 20.4461 26.6979 20.4464L26.6982 20.4467H27.1505C27.1928 20.4465 27.2334 20.4294 27.2632 20.3989C27.293 20.3685 27.3097 20.3273 27.3097 20.2843C27.3097 20.2414 27.293 20.2002 27.2632 20.1698C27.2334 20.1393 27.1928 20.1222 27.1505 20.122H26.6982C26.5352 20.1225 26.3752 20.077 26.2361 19.9904C26.0971 19.9039 25.9844 19.7798 25.9107 19.632C25.837 19.4842 25.8053 19.3185 25.8189 19.1534C25.8326 18.9883 25.891 18.8303 25.988 18.697C26.0848 18.5637 26.2162 18.4604 26.3675 18.3986C26.5188 18.3369 26.684 18.319 26.8446 18.3471C27.0054 18.3752 27.1553 18.4481 27.2776 18.5577C27.3998 18.6673 27.4896 18.8093 27.5372 18.9678C27.541 18.9803 27.5419 18.9935 27.5397 19.0064C27.5375 19.0193 27.5325 19.0315 27.5249 19.0421C27.5173 19.0526 27.5073 19.0612 27.4959 19.0671C27.4844 19.0731 27.4718 19.0762 27.4589 19.0762H26.8339C26.7917 19.0764 26.7512 19.0936 26.7214 19.124C26.6915 19.1544 26.6747 19.1956 26.6747 19.2386C26.6747 19.2815 26.6915 19.3227 26.7214 19.3532C26.7512 19.3836 26.7917 19.4008 26.8339 19.4009H27.4791C27.5355 19.4008 27.5909 19.388 27.6418 19.3634C27.6926 19.3389 27.7375 19.3032 27.7732 19.2589C27.8087 19.2147 27.8343 19.1629 27.8479 19.1074C27.8616 19.0519 27.8629 18.9941 27.8518 18.938C27.8404 18.8736 27.8225 18.8106 27.7984 18.7499ZM35.2555 19.074H35.2059C35.1635 19.0742 35.1231 19.0913 35.0933 19.1218C35.0635 19.1522 35.0467 19.1934 35.0467 19.2364C35.0467 19.2793 35.0635 19.3205 35.0933 19.3509C35.1231 19.3813 35.1635 19.3985 35.2059 19.3987H35.2555C35.349 19.3991 35.4385 19.4371 35.5044 19.5044C35.5703 19.5717 35.6073 19.6628 35.6073 19.7578C35.6073 19.8527 35.5703 19.9438 35.5044 20.0111C35.4385 20.0784 35.349 20.1164 35.2555 20.1168H34.0293C33.987 20.117 33.9466 20.1342 33.9168 20.1646C33.8869 20.195 33.8701 20.2362 33.8701 20.2792C33.8701 20.3221 33.8869 20.3633 33.9168 20.3937C33.9466 20.4242 33.987 20.4414 34.0293 20.4415H35.2555C35.4336 20.441 35.6042 20.3687 35.7301 20.2405C35.8557 20.1123 35.9264 19.9387 35.9264 19.7578C35.9264 19.5768 35.8557 19.4032 35.7301 19.275C35.6042 19.1469 35.4336 19.0746 35.2555 19.074ZM34.421 19.3984V19.3987H34.5181C34.5604 19.3985 34.6008 19.3813 34.6308 19.3509C34.6606 19.3205 34.6773 19.2793 34.6773 19.2364C34.6773 19.1934 34.6606 19.1522 34.6308 19.1218C34.6008 19.0913 34.5604 19.0742 34.5181 19.074H34.421C34.3276 19.0736 34.2381 19.0356 34.1722 18.9683C34.1062 18.901 34.0692 18.8099 34.0692 18.7149C34.0692 18.62 34.1062 18.5289 34.1722 18.4616C34.2381 18.3943 34.3276 18.3563 34.421 18.3559H35.6473C35.6897 18.3557 35.7302 18.3385 35.76 18.3081C35.7899 18.2776 35.8067 18.2364 35.8067 18.1934C35.8067 18.1504 35.7899 18.1091 35.76 18.0787C35.7302 18.0482 35.6897 18.031 35.6473 18.0309H34.421C34.243 18.0314 34.0724 18.1037 33.9466 18.2319C33.8209 18.3601 33.7503 18.5336 33.7503 18.7146C33.7503 18.8956 33.8209 19.0692 33.9466 19.1974C34.0724 19.3255 34.243 19.3978 34.421 19.3984ZM17.487 18.0975C17.4687 18.0598 17.4365 18.0309 17.3974 18.0173C17.3582 18.0036 17.3153 18.0063 17.2782 18.0247C17.2409 18.0432 17.2125 18.0758 17.1989 18.1156C17.1854 18.1553 17.1879 18.1989 17.2059 18.2367L17.7886 19.4483H17.0914C17.0701 19.4482 17.0489 19.4523 17.0292 19.4605C17.0094 19.4687 16.9915 19.4808 16.9763 19.496C16.9612 19.5113 16.9491 19.5295 16.9409 19.5495C16.9327 19.5695 16.9285 19.591 16.9285 19.6127C16.9285 19.6344 16.9327 19.6558 16.9409 19.6759C16.9491 19.6959 16.9612 19.714 16.9763 19.7293C16.9915 19.7446 17.0094 19.7567 17.0292 19.7649C17.0489 19.773 17.0701 19.7772 17.0914 19.777L17.0918 19.7773H17.9054C17.9187 19.7772 17.932 19.7755 17.9448 19.7724L18.2278 20.361C18.2461 20.3987 18.2784 20.4275 18.3174 20.4412C18.3566 20.4548 18.3995 20.4521 18.4368 20.4337C18.4739 20.4153 18.5024 20.3826 18.516 20.3429C18.5295 20.3031 18.5269 20.2596 18.5089 20.2217L17.487 18.0975ZM16.7744 19.0275C16.7554 19.0177 16.7347 19.0118 16.7135 19.0102C16.6924 19.0085 16.671 19.0111 16.6509 19.0179C16.6307 19.0246 16.612 19.0354 16.5959 19.0494C16.5798 19.0635 16.5665 19.0807 16.557 19.1L16.0045 20.2103C15.9851 20.2492 15.9818 20.2944 15.9952 20.3358C16.0086 20.3772 16.0376 20.4115 16.0759 20.4312C16.1142 20.4509 16.1586 20.4543 16.1994 20.4407C16.2401 20.4271 16.2739 20.3976 16.2933 20.3587L16.8458 19.2483C16.8554 19.2291 16.8611 19.2081 16.8628 19.1865C16.8644 19.165 16.8618 19.1434 16.8552 19.1228C16.8485 19.1023 16.838 19.0833 16.8241 19.067C16.8102 19.0506 16.7933 19.0372 16.7744 19.0275ZM21.1484 18.0268C21.1273 18.0268 21.1066 18.031 21.0872 18.0392C21.0678 18.0474 21.0502 18.0593 21.0354 18.0744C21.0205 18.0895 21.0087 18.1074 21.0007 18.1271C20.9927 18.1468 20.9885 18.1679 20.9885 18.1892V18.6931L20.9889 18.6928C20.9885 18.8921 20.9104 19.0832 20.7715 19.224C20.6327 19.3649 20.4445 19.444 20.2483 19.444C20.0521 19.444 19.8639 19.3649 19.725 19.224C19.5862 19.0832 19.5081 18.8921 19.5077 18.6928V18.1892C19.5077 18.1462 19.4909 18.1049 19.4609 18.0744C19.4309 18.044 19.3903 18.0269 19.348 18.0269C19.3055 18.0269 19.2648 18.044 19.2349 18.0744C19.2049 18.1049 19.1881 18.1462 19.1881 18.1892V18.6921C19.1881 18.9041 19.2495 19.1113 19.3649 19.288C19.4803 19.4646 19.6442 19.6027 19.8365 19.6851C20.0288 19.7674 20.2406 19.7903 20.4456 19.7509C20.6506 19.7115 20.8395 19.6116 20.9889 19.4636V19.6501C20.9889 19.7165 20.976 19.7821 20.9511 19.8434C20.9261 19.9047 20.8895 19.9604 20.8433 20.0073C20.7972 20.0542 20.7423 20.0915 20.6821 20.1168C20.6217 20.1422 20.557 20.1553 20.4917 20.1553H19.638C19.617 20.1553 19.5962 20.1595 19.5768 20.1676C19.5574 20.1758 19.5398 20.1878 19.5249 20.2028C19.5101 20.2179 19.4983 20.2358 19.4903 20.2555C19.4823 20.2752 19.4781 20.2963 19.4781 20.3177C19.4781 20.339 19.4823 20.3601 19.4903 20.3798C19.4983 20.3995 19.5101 20.4174 19.5249 20.4325C19.5398 20.4476 19.5574 20.4595 19.5768 20.4677C19.5962 20.4759 19.617 20.4801 19.638 20.4801H20.5027C20.7162 20.4801 20.9212 20.3938 21.0723 20.2403C21.2233 20.0868 21.3082 19.8786 21.3082 19.6616V18.1892C21.3082 18.1679 21.3042 18.1468 21.296 18.1271C21.288 18.1074 21.2762 18.0894 21.2614 18.0743C21.2465 18.0593 21.2289 18.0473 21.2095 18.0391C21.1901 18.031 21.1694 18.0268 21.1484 18.0268ZM23.8582 18.9119C23.8176 18.8998 23.7739 18.9045 23.7366 18.9251C23.6994 18.9457 23.6718 18.9805 23.6598 19.0218L23.4597 19.7118L23.0012 18.132C22.9892 18.0908 22.9614 18.0562 22.9242 18.0357C22.8871 18.0152 22.8434 18.0105 22.8029 18.0227C22.7623 18.0348 22.7282 18.0628 22.7078 18.1005C22.6876 18.1382 22.6829 18.1826 22.6947 18.2238L23.305 20.3271C23.3086 20.3399 23.3139 20.3522 23.3207 20.3637H23.321C23.3364 20.3915 23.3595 20.4141 23.3874 20.4287C23.4155 20.4432 23.4469 20.449 23.4783 20.4455C23.5094 20.4419 23.5389 20.429 23.563 20.4085C23.587 20.3879 23.6046 20.3606 23.6134 20.33L23.9664 19.1137C23.9783 19.0723 23.9737 19.0279 23.9534 18.99C23.9332 18.9522 23.8989 18.9241 23.8582 18.9119ZM24.3808 18.1166C24.3687 18.0753 24.341 18.0405 24.3039 18.0199C24.2666 17.9993 24.2228 17.9946 24.1823 18.0068C24.1416 18.0189 24.1073 18.047 24.0871 18.0849C24.0667 18.1227 24.0621 18.1672 24.0741 18.2085L24.6886 20.3254C24.6944 20.3459 24.7043 20.3651 24.7174 20.3817C24.7306 20.3984 24.7469 20.4123 24.7653 20.4225C24.7838 20.4328 24.8041 20.4392 24.825 20.4415C24.8459 20.4438 24.867 20.4418 24.8872 20.4358C24.9074 20.4297 24.9263 20.4197 24.9425 20.4063C24.9589 20.3928 24.9725 20.3762 24.9825 20.3574C24.9926 20.3387 24.9988 20.318 25.001 20.2968C25.0031 20.2755 25.0012 20.2541 24.9951 20.2336L24.3808 18.1166ZM22.5276 18.9096C22.4869 18.8975 22.4433 18.9022 22.406 18.9228C22.3688 18.9434 22.3412 18.9782 22.3291 19.0195L21.9763 20.2359C21.9645 20.2771 21.9692 20.3215 21.9894 20.3592C22.0098 20.3969 22.044 20.4249 22.0845 20.437C22.125 20.4492 22.1687 20.4445 22.2059 20.424C22.243 20.4035 22.2708 20.3689 22.2829 20.3277L22.6358 19.1114C22.6476 19.07 22.643 19.0256 22.6227 18.9878C22.6025 18.95 22.5683 18.9219 22.5276 18.9096ZM33.276 18.0486H31.197C31.1542 18.0487 31.1132 18.0661 31.083 18.0969C31.0528 18.1277 31.0358 18.1694 31.0358 18.2129C31.0358 18.2564 31.0528 18.2981 31.083 18.3289C31.1132 18.3597 31.1542 18.3771 31.197 18.3773H32.1044V20.3032C32.1067 20.3451 32.1249 20.3846 32.1549 20.4134C32.185 20.4423 32.2248 20.4583 32.2662 20.4583C32.3075 20.4583 32.3473 20.4423 32.3774 20.4134C32.4075 20.3846 32.4255 20.3451 32.428 20.3032V18.3773H33.276C33.3188 18.3773 33.36 18.36 33.3904 18.3291C33.4206 18.2983 33.4377 18.2565 33.4377 18.2129C33.4377 18.1693 33.4206 18.1275 33.3904 18.0967C33.36 18.0659 33.3188 18.0486 33.276 18.0486Z" fill="url(#paint0_linear_122_9)"/>
<path d="M5.19755 18.013C4.87994 18.013 4.57534 18.1412 4.35075 18.3694C4.12617 18.5976 4 18.9071 4 19.2299C4 19.5526 4.12617 19.8621 4.35075 20.0903C4.57534 20.3185 4.87994 20.4467 5.19755 20.4467H5.74472C5.75687 20.4467 5.76881 20.4499 5.77938 20.456C5.78995 20.4621 5.79878 20.4709 5.80502 20.4815C5.81124 20.4921 5.81466 20.5041 5.81493 20.5165C5.8152 20.5288 5.81231 20.541 5.80655 20.5519C5.73732 20.6811 5.63506 20.7889 5.51059 20.864C5.3861 20.9391 5.244 20.9786 5.09923 20.9785H4.7581C4.71537 20.9787 4.67443 20.996 4.64426 21.0268C4.61409 21.0575 4.59715 21.0992 4.59715 21.1426C4.59715 21.186 4.61409 21.2277 4.64426 21.2584C4.67443 21.2892 4.71537 21.3065 4.7581 21.3067H5.11907C5.41311 21.3067 5.69511 21.188 5.90302 20.9767C6.11093 20.7654 6.22774 20.4789 6.22776 20.1801V19.5408C6.22782 19.5192 6.2237 19.4978 6.21561 19.4778C6.20753 19.4579 6.19565 19.4397 6.18065 19.4244C6.16565 19.4091 6.14784 19.397 6.12822 19.3887C6.1086 19.3805 6.08755 19.3762 6.06631 19.3762C6.04507 19.3762 6.02403 19.3805 6.00441 19.3887C5.98479 19.397 5.96697 19.4091 5.95197 19.4244C5.93698 19.4397 5.9251 19.4579 5.91702 19.4778C5.90892 19.4978 5.9048 19.5192 5.90487 19.5408V20.1193H5.19755C5.08252 20.1194 4.9686 20.0965 4.86228 20.0519C4.75597 20.0073 4.65936 19.9418 4.57797 19.8592C4.49658 19.7766 4.43201 19.6786 4.38796 19.5706C4.34391 19.4626 4.32123 19.3469 4.32123 19.23C4.32123 19.1132 4.34391 18.9974 4.38796 18.8895C4.43201 18.7815 4.49658 18.6834 4.57797 18.6008C4.65936 18.5182 4.75597 18.4528 4.86228 18.4081C4.9686 18.3635 5.08252 18.3406 5.19755 18.3408H6.06632V18.3411C6.10904 18.341 6.14998 18.3236 6.18015 18.2929C6.21032 18.2621 6.22725 18.2205 6.22725 18.1771C6.22725 18.1336 6.21032 18.092 6.18015 18.0612C6.14998 18.0305 6.10904 18.0132 6.06632 18.013L5.19755 18.013ZM7.00445 18.1771V20.2836C7.00445 20.3271 7.02145 20.3689 7.05173 20.3996C7.08201 20.4304 7.12306 20.4477 7.16588 20.4477C7.20871 20.4477 7.24976 20.4304 7.28004 20.3996C7.31032 20.3689 7.32734 20.3271 7.32734 20.2836V18.1771C7.32734 18.1336 7.31032 18.0918 7.28004 18.0611C7.24976 18.0303 7.20871 18.013 7.16588 18.013C7.12306 18.013 7.08201 18.0303 7.05173 18.0611C7.02145 18.0918 7.00445 18.1336 7.00445 18.1771ZM7.91881 18.2409L8.9376 20.3587C8.95043 20.3853 8.97035 20.4077 8.99509 20.4234C9.01982 20.4391 9.04841 20.4474 9.07757 20.4473L9.07789 20.4476C9.10434 20.4477 9.13035 20.4408 9.15349 20.4278C9.17662 20.4148 9.19611 20.396 9.21012 20.3732C9.22412 20.3504 9.23219 20.3244 9.23355 20.2975C9.2349 20.2707 9.22951 20.2439 9.21787 20.2198L8.1987 18.1016C8.1805 18.064 8.14834 18.0352 8.10925 18.0216C8.07017 18.008 8.02738 18.0107 7.99029 18.0292C7.95319 18.0476 7.92483 18.0803 7.91142 18.12C7.89802 18.1597 7.90068 18.2032 7.91881 18.2409ZM10.1374 18.0987L9.6088 19.1488C9.59955 19.1672 9.59395 19.1872 9.59233 19.2078C9.5907 19.2283 9.59307 19.249 9.59931 19.2686C9.60555 19.2882 9.61553 19.3064 9.62868 19.3221C9.64184 19.3378 9.65791 19.3507 9.67597 19.3601C9.69405 19.3695 9.71376 19.3752 9.73398 19.3768C9.75421 19.3784 9.77456 19.376 9.79387 19.3697C9.81317 19.3633 9.83105 19.3532 9.8465 19.3398C9.86194 19.3264 9.87463 19.3101 9.88386 19.2917L10.4125 18.2416C10.4218 18.2232 10.4275 18.2031 10.4292 18.1825C10.4309 18.1619 10.4285 18.1412 10.4223 18.1215C10.4161 18.1018 10.4061 18.0836 10.3929 18.0679C10.3798 18.0521 10.3637 18.0392 10.3456 18.0298C10.3275 18.0203 10.3077 18.0147 10.2874 18.013C10.2671 18.0114 10.2467 18.0139 10.2274 18.0203C10.2081 18.0267 10.1902 18.0369 10.1747 18.0504C10.1593 18.0638 10.1466 18.0802 10.1374 18.0987ZM11.8489 18.0001C11.5293 18.0048 11.2244 18.1377 11.0007 18.3699C10.7771 18.6021 10.6529 18.9147 10.6551 19.2395C10.6574 19.5644 10.786 19.8752 11.0129 20.1041C11.2397 20.333 11.5465 20.4615 11.8662 20.4616H12.3245C12.3673 20.4616 12.4084 20.4443 12.4387 20.4135C12.469 20.3828 12.486 20.3411 12.486 20.2975C12.486 20.254 12.469 20.2123 12.4387 20.1815C12.4084 20.1508 12.3673 20.1335 12.3245 20.1335H11.8662V20.1331C11.7016 20.1331 11.5403 20.0867 11.4001 19.999C11.26 19.9113 11.1466 19.7858 11.0726 19.6365C10.9986 19.4871 10.9668 19.3198 10.9809 19.1532C10.9949 18.9866 11.0543 18.8272 11.1522 18.6929C11.2502 18.5585 11.383 18.4544 11.5357 18.3923C11.6885 18.3301 11.8553 18.3122 12.0174 18.3407C12.1796 18.3692 12.3308 18.4429 12.4541 18.5536C12.5775 18.6642 12.6682 18.8076 12.7161 18.9675C12.7199 18.9802 12.7208 18.9936 12.7186 19.0066C12.7164 19.0196 12.7113 19.032 12.7036 19.0426C12.6958 19.0533 12.6858 19.0619 12.6741 19.0679C12.6625 19.0739 12.6497 19.077 12.6367 19.077H12.0033C11.982 19.077 11.961 19.0812 11.9413 19.0894C11.9217 19.0976 11.9038 19.1097 11.8888 19.1249C11.8737 19.1401 11.8618 19.1582 11.8536 19.1782C11.8455 19.1981 11.8413 19.2195 11.8413 19.2411C11.8413 19.2627 11.8455 19.284 11.8536 19.304C11.8618 19.3239 11.8737 19.342 11.8888 19.3573C11.9038 19.3725 11.9217 19.3846 11.9413 19.3928C11.961 19.401 11.982 19.4052 12.0033 19.4051H12.6569C12.7138 19.4051 12.77 19.3923 12.8214 19.3675C12.8729 19.3428 12.9183 19.3068 12.9544 19.2621C12.9906 19.2175 13.0165 19.1652 13.0304 19.1091C13.0443 19.0531 13.0458 18.9945 13.0348 18.9378C13.0233 18.8727 13.0051 18.8091 12.9804 18.7479C12.8869 18.5262 12.7315 18.3372 12.5333 18.2042C12.3352 18.0713 12.1031 18.0003 11.8656 18C11.8601 18 11.8545 18 11.8489 18.0001Z" fill="#121212"/>
</g>
<defs>
<linearGradient id="paint0_linear_122_9" x1="13.7075" y1="20.4801" x2="35.9347" y2="18.0772" gradientUnits="userSpaceOnUse">
<stop offset="0.12" stop-color="#83B3F9"/>
<stop offset="0.42" stop-color="#5B99E8"/>
<stop offset="0.71" stop-color="#1060DF"/>
<stop offset="1" stop-color="#001AA8"/>
</linearGradient>
<clipPath id="clip0_122_9">
<rect width="32" height="3.30667" fill="white" transform="translate(4 18)"/>
</clipPath>
</defs>
</svg>
