<svg width="40" height="40" viewBox="0 0 40 40" fill="none" xmlns="http://www.w3.org/2000/svg">
<rect x="0.5" y="0.5" width="39" height="39" rx="3.5" fill="#FAFAFA"/>
<rect x="0.5" y="0.5" width="39" height="39" rx="3.5" stroke="#E6E6E6"/>
<path d="M24.981 11.0128C26.0891 11.0128 26.9874 10.1145 26.9874 9.00638C26.9874 7.89829 26.0891 7 24.981 7C23.8729 7 22.9746 7.89829 22.9746 9.00638C22.9746 10.1145 23.8729 11.0128 24.981 11.0128Z" fill="#003C71"/>
<path d="M17.3025 21.229C17.0954 21.1931 16.8825 21.2409 16.7107 21.3619C16.5388 21.4829 16.4221 21.6672 16.3861 21.8743C16.3502 22.0814 16.3979 22.2943 16.519 22.4662C16.64 22.6381 16.8243 22.7548 17.0314 22.7908C20.4694 23.6909 28.1587 22.6281 26.8789 28.734C25.5666 34.9917 9.11434 34.2759 12.4438 27.1723C12.5885 26.8686 12.809 26.6445 13.1054 26.4998L14.0489 26.0443C14.5623 25.7913 14.5731 25.5129 14.0815 25.2093C11.8257 23.8211 12.6282 21.5436 14.396 20.2747C14.7214 20.0361 14.7539 19.7613 14.4936 19.4504C12.7945 17.4549 12.386 15.4593 13.2681 13.4638C16.4783 6.19747 28.7443 10.8718 24.9593 18.2357C23.5711 20.9362 20.0572 21.4785 17.3025 21.229ZM21.9118 15.5678C21.9118 15.2288 21.845 14.8932 21.7153 14.58C21.5856 14.2669 21.3955 13.9823 21.1558 13.7426C20.9161 13.5029 20.6315 13.3128 20.3184 13.1831C20.0052 13.0534 19.6696 12.9866 19.3306 12.9866C18.646 12.9866 17.9895 13.2586 17.5054 13.7426C17.0214 14.2267 16.7494 14.8832 16.7494 15.5678C16.7494 16.2524 17.0214 16.9089 17.5054 17.393C17.9895 17.877 18.646 18.149 19.3306 18.149C19.6696 18.149 20.0052 18.0822 20.3184 17.9525C20.6315 17.8228 20.9161 17.6327 21.1558 17.393C21.3955 17.1533 21.5856 16.8687 21.7153 16.5556C21.845 16.2424 21.9118 15.9068 21.9118 15.5678ZM16.0662 27.0313L16.0445 29.3088C16.0445 29.444 16.0982 29.5736 16.1938 29.6692C16.2894 29.7648 16.419 29.8185 16.5542 29.8185L20.1006 29.8402C20.9508 29.845 21.7673 29.6867 22.3712 29.4C22.975 29.1133 23.3169 28.7217 23.3217 28.311V28.1158C23.3241 27.9118 23.2432 27.7093 23.0836 27.5198C22.924 27.3303 22.6889 27.1576 22.3917 27.0115C22.0945 26.8655 21.7411 26.7489 21.3517 26.6686C20.9623 26.5882 20.5445 26.5456 20.1223 26.5432L16.5759 26.5215C16.4407 26.5215 16.3111 26.5752 16.2155 26.6708C16.1199 26.7664 16.0662 26.8961 16.0662 27.0313Z" fill="#003C71"/>
</svg>
