<svg width="32" height="32" viewBox="0 0 32 32" fill="none" xmlns="http://www.w3.org/2000/svg">
<rect x="0.4" y="0.4" width="31.2" height="31.2" rx="2.8" fill="#FAFAFA"/>
<rect x="0.4" y="0.4" width="31.2" height="31.2" rx="2.8" stroke="#E6E6E6" stroke-width="0.8"/>
<path d="M24.8723 15.3358C25.6014 14.4265 25.9989 13.2986 26 12.1359C25.9992 11.4604 25.8643 10.7916 25.6033 10.1678C25.3422 9.54399 24.96 8.97743 24.4785 8.50047C23.997 8.02351 23.4256 7.64551 22.7971 7.38805C22.1685 7.13059 21.495 6.99874 20.8151 7.00001H12.3795C12.0347 7.00001 11.7039 7.13614 11.4601 7.37844C11.2162 7.62075 11.0792 7.94939 11.0792 8.29207V20.2194H13.7204V17.2719H18.2714V22.3109H11.1686C10.8366 22.3112 10.5078 22.2465 10.201 22.1204C9.89427 21.9943 9.61552 21.8093 9.38075 21.576C9.14601 21.3428 8.95984 21.0658 8.83294 20.7609C8.70604 20.4561 8.64088 20.1294 8.6412 19.7995C8.64165 19.3373 8.77001 18.8842 9.01225 18.4897C9.25447 18.0951 9.60125 17.7744 10.0146 17.5626V14.7927C8.87442 15.0534 7.85677 15.6904 7.12767 16.5997C6.39857 17.5089 6.00107 18.6369 6 19.7995C6.00065 21.1614 6.5454 22.4674 7.51457 23.4304C8.48374 24.3935 9.79801 24.9348 11.1686 24.9354H19.6205C19.9653 24.9354 20.2961 24.7993 20.5399 24.557C20.7838 24.3147 20.9208 23.986 20.9208 23.6434V11.716H18.2796V14.6635H13.7286V9.62451H20.8314C21.1634 9.62419 21.4922 9.68893 21.799 9.81503C22.1057 9.94113 22.3845 10.1261 22.6193 10.3594C22.854 10.5926 23.0401 10.8696 23.1671 11.1745C23.294 11.4793 23.3591 11.8061 23.3588 12.1359C23.3583 12.5981 23.23 13.0512 22.9878 13.4458C22.7455 13.8403 22.3987 14.161 21.9854 14.3728V17.1427C23.1256 16.882 24.1432 16.245 24.8723 15.3358Z" fill="#2D0965"/>
</svg>
