<svg width="117" height="117" viewBox="0 0 117 117" fill="none" xmlns="http://www.w3.org/2000/svg">
<g clip-path="url(#clip0_6959_123296)">
<path d="M52.6196 0H63.9707C65.0935 0.765541 68.277 0.79257 69.7231 1.18372C72.2204 1.85926 74.9667 2.30148 77.4122 3.14783C92.079 8.29922 104.14 18.9982 111.004 32.946C113.453 38.0048 114.926 43.3142 116.177 48.7743C116.688 51.0009 116.578 54.2881 117 56.2355V60.7456C116.625 62.6158 116.715 64.7227 116.399 66.6654C110.976 99.9373 79.9196 122.199 46.3414 115.38C31.0827 112.219 17.7268 103.077 9.25958 89.9953C6.57577 85.8548 4.4186 81.3959 2.83799 76.7218C2.29465 75.0999 0.355602 66.508 0 66.0202V51.0139C0.522975 50.3368 0.762718 48.0222 0.94932 47.0598C5.53914 23.3872 25.0441 4.61446 48.8397 0.809578C49.952 0.631718 51.7223 0.699689 52.6196 0Z" fill="#EE6421"/>
<path d="M41.5734 24.0436C43.2825 24.0316 53.5589 23.8508 54.6165 24.1872C55.2222 24.9431 55.9861 28.1414 56.3722 29.2694C59.3651 38.0128 62.379 46.7673 65.1846 55.5687C65.2759 55.855 65.4821 56.0344 65.7487 56.1221C66.0182 55.9005 75.505 27.2681 76.5536 24.1327C80.8296 23.9955 85.7187 23.9863 89.9993 24.0348L89.9667 49.4007C89.967 55.1045 89.858 61.1772 90.0042 66.8452C86.9956 66.8734 83.9867 66.8734 80.9781 66.8455C81.0806 58.6168 81.5287 50.3699 81.5278 42.1334C81.4376 39.1943 81.6397 36.7092 81.6725 33.8273C81.2551 34.6861 80.9446 35.8792 80.6621 36.817C77.6246 46.8989 73.8172 56.7304 70.8783 66.8414C67.6103 66.8744 64.3421 66.8817 61.0739 66.8637C60.773 65.5051 59.9927 63.8533 59.515 62.4949C56.162 52.9602 53.2581 43.1463 49.9837 33.6106C49.9257 34.5107 50.0562 36.2447 50.0883 37.2013C50.1308 38.8708 50.1512 40.5408 50.1494 42.2109C50.1921 50.4212 50.2888 58.6311 50.4393 66.8402C47.444 66.8698 44.4485 66.875 41.4531 66.8559L41.5734 24.0436Z" fill="#FEFEFE"/>
<path d="M82.6842 69.0134L90.2667 69.0098C90.2244 72.6801 90.1632 74.7462 89.1949 78.3586C87.4995 83.744 86.4419 86.3941 82.7248 90.8215C71.6949 103.959 51.0743 105.252 38.2058 93.9744C30.4414 87.1699 27.8755 79.3796 27.4297 69.1462L30.4324 69.0676C31.9917 69.0303 33.5516 69.034 35.1108 69.0785C35.0359 75.4806 37.0168 81.6644 41.4682 86.4956C52.6103 98.5883 73.3383 95.617 80.2644 80.5375C82.375 75.9424 82.5046 74.0793 82.6842 69.0134Z" fill="#E3D730"/>
<path d="M27.6035 37.8609C30.521 37.762 33.441 37.753 36.3591 37.834L36.3765 56.7687C36.377 57.7652 36.4847 66.5747 36.3025 66.832C33.3438 66.8697 30.3846 66.8714 27.4258 66.8372L27.5271 47.7866C27.5359 45.3492 27.3856 40.0895 27.6035 37.8609Z" fill="#FEFEFE"/>
<path d="M30.9596 24.0844C34.0071 23.5112 36.9448 25.509 37.5319 28.5538C38.1188 31.5987 36.1344 34.5453 33.0923 35.146C30.0305 35.7507 27.0608 33.7507 26.4701 30.6863C25.8793 27.6219 27.8926 24.6614 30.9596 24.0844Z" fill="#FEFEFE"/>
</g>
<defs>
<clipPath id="clip0_6959_123296">
<rect width="117" height="117" fill="white"/>
</clipPath>
</defs>
</svg>
