<svg width="40" height="40" viewBox="0 0 40 40" fill="none" xmlns="http://www.w3.org/2000/svg">
<g clip-path="url(#clip0_20_62)">
<path d="M36 0.5H4C2.067 0.5 0.5 2.067 0.5 4V36C0.5 37.933 2.067 39.5 4 39.5H36C37.933 39.5 39.5 37.933 39.5 36V4C39.5 2.067 37.933 0.5 36 0.5Z" fill="#FAFAFA"/>
<path d="M36 0.5H4C2.067 0.5 0.5 2.067 0.5 4V36C0.5 37.933 2.067 39.5 4 39.5H36C37.933 39.5 39.5 37.933 39.5 36V4C39.5 2.067 37.933 0.5 36 0.5Z" stroke="#E6E6E6"/>
<g clip-path="url(#clip1_20_62)">
<path d="M22.8398 6.92046C22.9404 6.94219 23.041 6.96391 23.1416 6.98561C25.3007 7.4801 27.3012 8.62653 28.8981 10.1546C28.9351 10.1897 28.9721 10.2249 29.0102 10.2611C31.5092 12.6472 32.9035 15.8934 33.0116 19.3507C33.0723 22.4681 32.0747 25.598 30.034 27.9741C29.9939 28.0214 29.9538 28.0686 29.9125 28.1173C29.7669 28.2843 29.6174 28.4465 29.466 28.6083C29.4319 28.6451 29.3978 28.6819 29.3626 28.7198C27.2921 30.9345 24.2462 32.5229 21.1875 32.6736C21.0392 32.6772 20.8911 32.6789 20.7428 32.6797C20.6882 32.6801 20.6337 32.6806 20.5775 32.6811C18.2899 32.6957 18.2899 32.6957 17.3495 32.4766C17.2876 32.4626 17.2256 32.4486 17.1618 32.4342C13.6311 31.6158 10.7187 29.479 8.79444 26.41C7.55196 24.3774 6.97088 22.0797 6.97636 19.7064C6.97641 19.6478 6.97647 19.5892 6.97652 19.5288C6.97946 18.5813 7.02918 17.6744 7.25245 16.7497C7.2753 16.655 7.2753 16.655 7.29861 16.5584C8.17542 13.0574 10.3921 10.2097 13.4414 8.34754C14.6524 7.62872 15.9772 7.15196 17.3495 6.85705C17.3988 6.84586 17.448 6.83467 17.4987 6.82314C19.1787 6.45596 21.1757 6.5239 22.8398 6.92046Z" fill="#F26222"/>
<path d="M16.2136 11.9937C17.1924 11.9937 18.1712 11.9937 19.1796 11.9937C19.3515 12.4253 19.5122 12.8521 19.6567 13.2926C19.6776 13.3556 19.6984 13.4187 19.7199 13.4837C19.7648 13.6194 19.8095 13.7551 19.8542 13.8908C19.9248 14.1054 19.9957 14.3199 20.0666 14.5343C20.2169 14.9887 20.3668 15.4431 20.5167 15.8976C20.6911 16.4263 20.8656 16.955 21.0405 17.4836C21.1104 17.6953 21.1802 17.9072 21.2499 18.119C21.2924 18.2477 21.335 18.3765 21.3776 18.5052C21.397 18.5644 21.4165 18.6237 21.4365 18.6848C21.4543 18.7384 21.472 18.792 21.4904 18.8472C21.5135 18.9174 21.5135 18.9174 21.5371 18.989C21.5696 19.0966 21.5696 19.0966 21.6408 19.1595C21.6528 19.1233 21.6648 19.0872 21.6771 19.0499C21.9682 18.1708 22.2595 17.2918 22.5509 16.4128C22.6918 15.9877 22.8326 15.5626 22.9734 15.1374C23.1092 14.7275 23.245 14.3175 23.3809 13.9076C23.4329 13.7509 23.4848 13.5942 23.5367 13.4375C23.6091 13.2186 23.6817 12.9998 23.7543 12.781C23.7759 12.7157 23.7975 12.6503 23.8197 12.583C23.8395 12.5236 23.8592 12.4642 23.8795 12.403C23.8967 12.3512 23.9138 12.2994 23.9315 12.246C23.9758 12.1205 23.9758 12.1205 24.0389 11.9937C25.0177 11.9937 25.9964 11.9937 27.0049 11.9937C27.0049 15.1536 27.0049 18.3136 27.0049 21.5693C26.3593 21.5693 25.7137 21.5693 25.0486 21.5693C25.0418 19.9816 25.0481 18.3955 25.0892 16.8083C25.1091 16.0276 25.1152 15.2478 25.1117 14.4668C25.0263 14.7226 24.9411 14.9785 24.8559 15.2343C24.8271 15.321 24.7982 15.4076 24.7693 15.4943C24.7272 15.6203 24.6852 15.7465 24.6433 15.8726C24.6182 15.948 24.5931 16.0234 24.5672 16.101C24.4969 16.3157 24.4311 16.5315 24.3656 16.7476C24.2139 17.245 24.0503 17.7381 23.886 18.2313C23.8538 18.3282 23.8217 18.4252 23.7895 18.5221C23.7057 18.7743 23.6219 19.0265 23.538 19.2786C23.4369 19.5827 23.3359 19.8869 23.2349 20.191C23.0823 20.6505 22.9295 21.1099 22.7767 21.5693C22.0478 21.5693 21.319 21.5693 20.568 21.5693C20.3392 20.8878 20.1103 20.2063 19.8816 19.5248C19.7753 19.2081 19.669 18.8915 19.5626 18.5748C19.096 17.1852 18.6296 15.7954 18.1699 14.4034C18.1551 16.3078 18.1963 18.2153 18.2769 20.118C18.2976 20.6244 18.2961 21.1242 18.2961 21.6327C17.6089 21.6327 16.9217 21.6327 16.2136 21.6327C16.2136 18.4518 16.2136 15.2709 16.2136 11.9937Z" fill="#FEFEFD"/>
<path d="M13.1213 22.0766C13.7044 22.0766 14.2876 22.0766 14.8883 22.0766C14.9013 22.3068 14.9144 22.537 14.9278 22.7741C14.9771 23.4482 15.1039 24.0052 15.3932 24.6132C15.4225 24.6766 15.4519 24.74 15.4822 24.8054C16.1239 26.0843 17.2807 26.9496 18.6116 27.4034C19.9726 27.814 21.3454 27.6038 22.6041 26.985C23.8435 26.2954 24.6713 25.2356 25.1392 23.9037C25.3038 23.3131 25.3195 22.6844 25.3641 22.0766C25.9263 22.0766 26.4886 22.0766 27.0679 22.0766C27.1152 23.9755 26.5548 25.6482 25.3009 27.0863C25.2557 27.1382 25.2105 27.1901 25.1639 27.2436C23.9489 28.5403 22.1471 29.3157 20.3843 29.3831C18.5693 29.4274 16.8016 28.8513 15.4563 27.5936C15.4256 27.5654 15.3949 27.5371 15.3632 27.508C13.9373 26.185 13.2282 24.4478 13.1213 22.5205C13.1213 22.374 13.1213 22.2275 13.1213 22.0766Z" fill="#D7DD21"/>
<path d="M13.1213 15.0375C13.7669 15.0375 14.4125 15.0375 15.0776 15.0375C15.2015 15.162 15.1488 15.353 15.1493 15.5186C15.1492 15.5788 15.1491 15.6389 15.1489 15.7009C15.149 15.7639 15.1491 15.8269 15.1493 15.8918C15.1495 16.1012 15.1493 16.3105 15.1491 16.5199C15.1492 16.6646 15.1492 16.8094 15.1493 16.9542C15.1494 17.2581 15.1493 17.5619 15.149 17.8658C15.1486 18.2563 15.1488 18.6468 15.1492 19.0372C15.1494 19.3363 15.1494 19.6354 15.1492 19.9345C15.1492 20.0785 15.1492 20.2226 15.1494 20.3666C15.1495 20.5675 15.1493 20.7684 15.1489 20.9693C15.149 21.0294 15.1492 21.0896 15.1493 21.1516C15.148 21.562 15.148 21.562 15.0776 21.6327C14.4321 21.6327 13.7865 21.6327 13.1213 21.6327C13.1213 19.4563 13.1213 17.2799 13.1213 15.0375Z" fill="#FEF9F7"/>
<path d="M14.6032 12.0489C14.9998 12.2525 15.2499 12.5129 15.3932 12.9449C15.4401 13.3792 15.3985 13.7274 15.1408 14.0863C14.8528 14.4058 14.529 14.5315 14.1074 14.554C13.7551 14.5445 13.4702 14.4287 13.2136 14.1839C12.9005 13.8215 12.8361 13.5465 12.8453 13.0744C12.8878 12.7278 13.0388 12.5023 13.2972 12.275C13.6942 11.9769 14.1281 11.8812 14.6032 12.0489Z" fill="#FEFCFB"/>
</g>
</g>
<defs>
<clipPath id="clip0_20_62">
<rect width="40" height="40" fill="white"/>
</clipPath>
<clipPath id="clip1_20_62">
<rect width="26" height="26" fill="white" transform="translate(7 6.66681)"/>
</clipPath>
</defs>
</svg>
