<svg width="22" height="16" viewBox="0 0 22 16" fill="none" xmlns="http://www.w3.org/2000/svg">
<path d="M7.16676 0H3.75258C2.09384 0 0.979431 1.23243 0.979431 3.06664V8.55211C0.979431 8.55478 0.979686 8.55753 0.980131 8.5602C1.11103 9.24798 1.76295 9.76652 2.49652 9.76652C3.30638 9.76652 3.91694 9.13729 3.91694 8.30272V5.56337H6.00412V8.26698C6.00412 9.80874 4.20934 10.5365 2.99674 10.5428C2.27946 10.5395 1.57657 10.2959 1.0682 9.87418C1.05757 9.86539 1.04313 9.86391 1.03117 9.87052C1.03117 9.87052 1.03104 9.87059 1.03091 9.87066C1.02092 9.8651 1.00902 9.86496 0.998967 9.87052C0.987067 9.87721 0.979495 9.89072 0.979495 9.90557V15.9607C0.979495 15.9823 0.995276 15.9999 1.01494 15.9999H4.52585C5.76365 15.9999 7.20233 14.707 7.20233 13.0401V0.039195C7.20221 0.0174513 7.18649 0 7.16676 0Z" fill="#0F549D"/>
<path d="M14.0276 0H10.6456C8.96102 0 7.87251 1.18978 7.87251 3.03124V6.12997C7.87251 6.14517 7.8804 6.15896 7.8928 6.16544C7.90528 6.17184 7.91991 6.16973 7.93054 6.16002C8.22573 5.88783 8.70165 5.56344 9.2928 5.56344H12.9293V6.29498C12.0463 6.0812 11.2296 5.98382 10.8388 5.98382C9.91336 5.98382 9.16051 6.81634 9.16051 7.83956L9.16076 7.85089L9.16051 7.87517C9.16051 8.89846 9.91336 9.73091 10.8388 9.73091C11.3128 9.73091 12.1382 9.64563 12.9293 9.45535V10.1156H9.2928C8.76974 10.1156 8.2741 9.89895 7.93283 9.52136C7.92258 9.5101 7.90738 9.50679 7.8942 9.51291C7.8809 9.51896 7.87231 9.53325 7.87231 9.54908V15.9605C7.87231 15.9821 7.8881 15.9996 7.90776 15.9996H11.3862C12.6241 15.9996 14.0629 14.7068 14.0629 13.0399V0.039195C14.063 0.0174513 14.0472 0 14.0276 0Z" fill="#B41F36"/>
<path d="M15.8926 9.65626C15.8926 9.67786 15.9086 9.69545 15.9281 9.69545H17.4419C17.8483 9.69545 18.2183 9.28619 18.2183 8.83696C18.2183 8.38781 17.8482 7.97862 17.4419 7.97862H15.9281C15.9086 7.97862 15.8926 7.99614 15.8926 8.01781V9.65626Z" fill="#329947"/>
<path d="M20.9851 0H17.6351C16.7434 0 16.0188 0.333474 15.5341 0.920414C15.5341 0.920414 14.8297 1.68018 14.8297 2.93329C14.8297 2.97959 14.8297 3.02357 14.8297 3.06657V5.52424C14.8297 5.54584 14.8455 5.56344 14.8652 5.56344H18.9238C19.4807 5.56344 19.9513 6.08388 19.9513 6.69981C19.9513 7.31574 19.4807 7.83611 18.9238 7.83611C18.9042 7.83611 18.8883 7.85363 18.8883 7.87531C18.8883 7.89698 18.9041 7.9145 18.9238 7.9145C19.554 7.9145 20.0478 8.398 20.0478 9.0152C20.0478 9.64274 19.5645 10.116 18.9238 10.116H14.8652C14.8456 10.116 14.8297 10.1335 14.8297 10.1552V15.9608C14.8297 15.9824 14.8455 16 14.8652 16H18.3439C19.5818 16 21.0205 14.7071 21.0205 13.0403V0.039195C21.0205 0.0174513 21.0046 0 20.9851 0Z" fill="#329947"/>
<path d="M15.9281 7.66512H17.4419C17.8452 7.66512 18.186 7.2883 18.186 6.84224C18.186 6.39301 17.8161 5.98382 17.4099 5.98382H15.9281C15.9086 5.98382 15.8926 6.00134 15.8926 6.02301V7.626C15.8926 7.6476 15.9086 7.66512 15.9281 7.66512Z" fill="#329947"/>
</svg>
