<svg width="40" height="40" viewBox="0 0 40 40" fill="none" xmlns="http://www.w3.org/2000/svg">
<rect x="0.5" y="0.5" width="39" height="39" rx="3.5" fill="#FAFAFA"/>
<rect x="0.5" y="0.5" width="39" height="39" rx="3.5" stroke="#E6E6E6"/>
<path d="M12.592 10V30H8V10H12.592ZM24.052 10C24.052 14.194 22.469 18.105 19.637 21.068L19.359 21.351L25.702 30H20.034L13.141 20.6L14.92 19.268C17.778 17.128 19.455 13.89 19.557 10.344L19.562 10H24.052ZM29.5 25C30.163 25 30.7989 25.2634 31.2678 25.7322C31.7366 26.2011 32 26.837 32 27.5C32 28.163 31.7366 28.7989 31.2678 29.2678C30.7989 29.7366 30.163 30 29.5 30C28.837 30 28.2011 29.7366 27.7322 29.2678C27.2634 28.7989 27 28.163 27 27.5C27 26.837 27.2634 26.2011 27.7322 25.7322C28.2011 25.2634 28.837 25 29.5 25Z" fill="black"/>
</svg>
