<svg width="40" height="40" viewBox="0 0 40 40" fill="none" xmlns="http://www.w3.org/2000/svg">
<rect x="0.5" y="0.5" width="39" height="39" rx="3.5" fill="#FAFAFA"/>
<rect x="0.5" y="0.5" width="39" height="39" rx="3.5" stroke="#E6E6E6"/>
<path d="M34 16.2542H31.9659V24.2316H34V16.2542Z" fill="#2D32AA"/>
<path d="M9.9092 16.0318C8.00228 16.0318 6 16.6992 6 16.6992V24.2634H8.09762V18.0976C8.09762 18.0976 8.82861 17.7798 9.94099 17.7798C11.3076 17.7798 11.8479 18.5108 11.8479 19.655V24.2316H13.9138C13.9138 24.1045 13.9138 19.7821 13.9138 19.655C13.9138 17.2077 12.7696 16.0318 9.9092 16.0318Z" fill="#2D32AA"/>
<path d="M31.394 16.2543H28.8832L26.9762 18.6061L25.9592 17.2713C25.4507 16.6039 24.5926 16.2225 23.7662 16.2225H22.5267L25.6732 20.1953L22.4314 24.2316H24.9104L26.9445 21.7526L28.1204 23.2146C28.6289 23.882 29.487 24.2316 30.3134 24.2316H31.5211L28.2475 20.1317L31.394 16.2543Z" fill="#2D32AA"/>
<path d="M18.8401 17.748C19.7617 17.748 20.5245 18.1612 20.8106 18.8922L16.6789 19.6232C16.9014 18.4154 17.7595 17.748 18.8401 17.748ZM22.781 22.706L21.4144 21.5937C20.9695 22.1022 20.2385 22.706 19.0308 22.706C18.0773 22.706 17.2192 22.1975 16.8378 21.3076L22.9717 20.227C22.9717 19.6232 22.8446 19.0511 22.6221 18.5426C21.9865 17.0488 20.5563 16 18.7765 16C16.4246 16 14.613 17.6845 14.613 20.227C14.613 22.706 16.3928 24.4541 18.999 24.4541C21.0012 24.4858 22.1772 23.4688 22.781 22.706Z" fill="#2D32AA"/>
</svg>
