<svg width="32" height="32" viewBox="0 0 32 32" fill="none" xmlns="http://www.w3.org/2000/svg">
<rect x="0.4" y="0.4" width="31.2" height="31.2" rx="2.8" fill="#FAFAFA"/>
<rect x="0.4" y="0.4" width="31.2" height="31.2" rx="2.8" stroke="#E6E6E6" stroke-width="0.8"/>
<rect x="7" y="7" width="18" height="18" rx="9" fill="#172147"/>
<path d="M13.2748 13.7578C13.6369 13.7578 13.9594 13.8314 14.2422 13.9784C14.5307 14.1199 14.757 14.3405 14.9211 14.6403C15.0851 14.9345 15.1672 15.3135 15.1672 15.7774V18.391H13.8434V15.9811C13.8434 15.6134 13.7614 15.3418 13.5973 15.1665C13.4389 14.9911 13.2126 14.9034 12.9184 14.9034C12.7091 14.9034 12.5196 14.9486 12.3499 15.0392C12.1858 15.124 12.0557 15.257 11.9596 15.438C11.869 15.619 11.8238 15.851 11.8238 16.1338V18.391H10.5V13.8257H11.7644V15.0901L11.5268 14.7082C11.6908 14.4027 11.9256 14.168 12.2311 14.0039C12.5366 13.8398 12.8845 13.7578 13.2748 13.7578Z" fill="white"/>
<path d="M18.6985 18.5605C18.3138 18.5605 17.9772 18.4756 17.6887 18.3059C17.4002 18.1362 17.1739 17.8788 17.0098 17.5337C16.8514 17.183 16.7722 16.7417 16.7722 16.2099C16.7722 15.6725 16.8486 15.2312 17.0013 14.8862C17.1541 14.5411 17.3747 14.2837 17.6632 14.1139C17.9517 13.9442 18.2968 13.8594 18.6985 13.8594C19.1284 13.8594 19.5131 13.9584 19.8525 14.1564C20.1976 14.3487 20.4692 14.6203 20.6672 14.971C20.8708 15.3218 20.9727 15.7347 20.9727 16.2099C20.9727 16.6908 20.8708 17.1066 20.6672 17.4573C20.4692 17.8081 20.1976 18.0796 19.8525 18.272C19.5131 18.4643 19.1284 18.5605 18.6985 18.5605ZM16 20.1388V13.9273H17.2644V14.8607L17.2389 16.2184L17.3238 17.5677V20.1388H16ZM18.4694 17.4743C18.69 17.4743 18.8852 17.4234 19.0549 17.3216C19.2302 17.2197 19.3689 17.0755 19.4707 16.8888C19.5782 16.6965 19.6319 16.4702 19.6319 16.2099C19.6319 15.944 19.5782 15.7178 19.4707 15.5311C19.3689 15.3444 19.2302 15.2001 19.0549 15.0983C18.8852 14.9965 18.69 14.9456 18.4694 14.9456C18.2487 14.9456 18.0507 14.9965 17.8754 15.0983C17.7 15.2001 17.5614 15.3444 17.4596 15.5311C17.3577 15.7178 17.3068 15.944 17.3068 16.2099C17.3068 16.4702 17.3577 16.6965 17.4596 16.8888C17.5614 17.0755 17.7 17.2197 17.8754 17.3216C18.0507 17.4234 18.2487 17.4743 18.4694 17.4743Z" fill="white"/>
<path d="M21.9999 18.822C21.7736 18.822 21.5784 18.7456 21.4144 18.5929C21.256 18.4345 21.1768 18.2337 21.1768 17.9904C21.1768 17.7472 21.256 17.552 21.4144 17.4049C21.5784 17.2522 21.7736 17.1758 21.9999 17.1758C22.2318 17.1758 22.427 17.2522 22.5854 17.4049C22.7438 17.552 22.823 17.7472 22.823 17.9904C22.823 18.2337 22.7438 18.4345 22.5854 18.5929C22.427 18.7456 22.2318 18.822 21.9999 18.822Z" fill="#0190F7"/>
</svg>
