<svg width="40" height="40" viewBox="0 0 40 40" fill="none" xmlns="http://www.w3.org/2000/svg">
<rect x="0.5" y="0.5" width="39" height="39" rx="3.5" fill="#FAFAFA"/>
<rect x="0.5" y="0.5" width="39" height="39" rx="3.5" stroke="#E6E6E6"/>
<path d="M19.82 8H20.9682C21.8045 8.06909 22.6173 8.26273 23.4064 8.58091C23.4229 8.58747 23.4378 8.59755 23.4501 8.61046C23.4624 8.62337 23.4717 8.63879 23.4774 8.65566C23.4831 8.67252 23.4851 8.69043 23.4832 8.70813C23.4813 8.72584 23.4755 8.74292 23.4664 8.75818L21.5764 12.0145C21.5309 12.0945 21.4636 12.1227 21.3745 12.0991C19.58 11.63 17.8436 11.7673 16.1654 12.5109C16.1458 12.52 16.1237 12.5225 16.1025 12.518C16.0813 12.5136 16.0621 12.5024 16.0477 12.4862C16.0333 12.47 16.0245 12.4496 16.0227 12.428C16.0208 12.4064 16.0259 12.3848 16.0373 12.3664L18.3664 8.36545C18.4209 8.27091 18.5027 8.21455 18.6118 8.19636L19.82 8Z" fill="black"/>
<path d="M20.4636 32H18.8982C13.1245 31.3536 8.79091 27.4373 8 21.5545V20.5836L11.5564 18.5136C11.5764 18.502 11.5994 18.4963 11.6226 18.4972C11.6458 18.4981 11.6682 18.5055 11.6873 18.5187C11.7065 18.5318 11.7215 18.5501 11.7306 18.5714C11.7398 18.5927 11.7427 18.6162 11.7391 18.6391C10.0618 28.9809 25.2009 32.1255 27.7864 21.9991C28.5173 19.1318 27.7073 16.5218 25.3564 14.1691C25.3 14.1127 25.2918 14.05 25.3318 13.9809L27.1182 10.8936C27.1345 10.8659 27.1566 10.8421 27.183 10.8238C27.2095 10.8055 27.2396 10.7932 27.2712 10.7877C27.3029 10.7823 27.3354 10.7838 27.3665 10.7922C27.3975 10.8006 27.4263 10.8157 27.4509 10.8364C36.0064 18.0636 31.3727 31.0154 20.4636 32Z" fill="black"/>
</svg>
