<svg width="40" height="40" viewBox="0 0 40 40" fill="none" xmlns="http://www.w3.org/2000/svg">
<g clip-path="url(#clip0_17_4)">
<path d="M36 0.5H4C2.067 0.5 0.5 2.067 0.5 4V36C0.5 37.933 2.067 39.5 4 39.5H36C37.933 39.5 39.5 37.933 39.5 36V4C39.5 2.067 37.933 0.5 36 0.5Z" fill="#FAFAFA"/>
<path d="M36 0.5H4C2.067 0.5 0.5 2.067 0.5 4V36C0.5 37.933 2.067 39.5 4 39.5H36C37.933 39.5 39.5 37.933 39.5 36V4C39.5 2.067 37.933 0.5 36 0.5Z" stroke="#E6E6E6"/>
<path fill-rule="evenodd" clip-rule="evenodd" d="M7.97378 21.2838C7.84669 21.2838 7.7196 21.2597 7.6011 21.2099C7.48259 21.1601 7.37611 21.0897 7.28509 20.9987C7.19407 20.9077 7.12365 20.8012 7.07385 20.6827C7.02404 20.5642 7 20.4371 7 20.31V19.0048C7 18.8777 7.02404 18.7506 7.07385 18.6321C7.12365 18.5136 7.19407 18.4071 7.28509 18.3161C7.37611 18.2268 7.48259 18.1546 7.6011 18.1048C7.7196 18.0567 7.84497 18.031 7.97378 18.031C8.10087 18.031 8.22795 18.055 8.34646 18.1048C8.46496 18.1546 8.57144 18.225 8.66246 18.3161C8.75348 18.4071 8.8239 18.5136 8.8737 18.6321C8.92351 18.7506 8.94755 18.8777 8.94755 19.0048V20.31C8.94755 20.8544 8.50961 21.2838 7.97378 21.2838Z" fill="#0000A0"/>
<path fill-rule="evenodd" clip-rule="evenodd" d="M11.8808 21.4538C11.6661 21.4538 11.4549 21.4108 11.2574 21.3301C11.0599 21.2477 10.8813 21.1275 10.7301 20.9763C10.579 20.8252 10.4588 20.6466 10.3781 20.4491C10.2956 20.2516 10.2527 20.0403 10.2527 19.8274V14.9551C10.2527 14.524 10.4244 14.1101 10.7301 13.8044C11.0358 13.5004 11.4497 13.3287 11.8808 13.3287C12.3119 13.3287 12.7258 13.5004 13.0315 13.8044C13.3372 14.1101 13.5089 14.524 13.5089 14.9551V19.8274C13.4986 20.7204 12.7739 21.4538 11.8808 21.4538Z" fill="#0000A0"/>
<path fill-rule="evenodd" clip-rule="evenodd" d="M17.155 25.1909C16.8888 25.1892 16.626 25.1377 16.3804 25.0346C16.1331 24.9333 15.9099 24.7839 15.7227 24.595C15.5337 24.406 15.3843 24.1828 15.2813 23.9372C15.1799 23.6916 15.1267 23.4271 15.1267 23.1609V9.02999C15.1267 8.76379 15.1799 8.49931 15.2813 8.25372C15.3843 8.00812 15.5337 7.78486 15.7227 7.59594C15.9099 7.40703 16.1331 7.25761 16.3804 7.15629C16.626 7.05324 16.8888 7 17.155 7C17.4229 7 17.6857 7.05324 17.9313 7.15629C18.1768 7.25761 18.4018 7.40703 18.589 7.59594C18.7779 7.78314 18.9274 8.00641 19.0304 8.25372C19.1317 8.49931 19.185 8.76207 19.185 9.02827V23.1609C19.185 23.4271 19.1334 23.6916 19.0321 23.9389C18.9291 24.1845 18.7797 24.4078 18.5907 24.5967C18.4035 24.7856 18.1786 24.935 17.933 25.0363C17.6857 25.1377 17.4229 25.1909 17.155 25.1909Z" fill="#0000A0"/>
<path fill-rule="evenodd" clip-rule="evenodd" d="M22.8415 32.3336C22.5753 32.3319 22.3125 32.2787 22.0669 32.1773C21.8196 32.0743 21.5964 31.9249 21.4092 31.736C21.2203 31.5488 21.0708 31.3255 20.9695 31.0799C20.8665 30.8343 20.8132 30.5698 20.8132 30.3036V16.171C20.8132 15.9048 20.8665 15.642 20.9695 15.3947C21.0708 15.1491 21.2203 14.9259 21.4092 14.7387C21.5964 14.5498 21.8214 14.4003 22.0669 14.2973C22.3125 14.196 22.577 14.1427 22.8432 14.1427C23.1094 14.1427 23.3722 14.196 23.6178 14.2973C23.8651 14.4003 24.0883 14.5498 24.2755 14.7387C24.4645 14.9259 24.6139 15.1491 24.7169 15.3947C24.8183 15.642 24.8715 15.9048 24.8715 16.171V30.3036C24.8732 30.5698 24.82 30.8343 24.7186 31.0799C24.6156 31.3255 24.4662 31.5505 24.279 31.7394C24.0901 31.9266 23.8668 32.076 23.6195 32.1791C23.3739 32.2804 23.1094 32.3336 22.8415 32.3336Z" fill="#0000A0"/>
<path fill-rule="evenodd" clip-rule="evenodd" d="M28.1259 25.9946C27.9129 25.9946 27.7017 25.9534 27.5042 25.871C27.3067 25.7903 27.1264 25.6701 26.9752 25.5189C26.8241 25.3678 26.7039 25.1875 26.6232 24.99C26.5407 24.7925 26.4995 24.5812 26.4995 24.3682V19.4959C26.4995 19.0649 26.6695 18.651 26.9752 18.3453C27.2809 18.0413 27.6948 17.8695 28.1259 17.8695C28.5587 17.8695 28.9726 18.0413 29.2766 18.3453C29.5823 18.651 29.754 19.0649 29.754 19.4959V24.3682C29.7454 25.2716 29.0207 25.9946 28.1259 25.9946Z" fill="#0000A0"/>
<path fill-rule="evenodd" clip-rule="evenodd" d="M32.0246 21.2838C31.8975 21.2838 31.7704 21.2597 31.6519 21.2099C31.5334 21.1601 31.4269 21.0897 31.3359 20.9987C31.2466 20.9077 31.1744 20.8012 31.1246 20.6827C31.0765 20.5642 31.0508 20.4371 31.0508 20.31V19.0048C31.0508 18.8777 31.0765 18.7506 31.1246 18.6321C31.1744 18.5136 31.2466 18.4071 31.3359 18.3161C31.4269 18.225 31.5334 18.1546 31.6519 18.1048C31.7704 18.055 31.8975 18.031 32.0246 18.031C32.1534 18.031 32.2805 18.0567 32.3972 18.1048C32.5157 18.1546 32.6239 18.2268 32.7132 18.3161C32.8043 18.4071 32.8764 18.5136 32.9245 18.6321C32.9743 18.7506 32.9983 18.8777 33.0001 19.0048V20.31C33.0001 20.8544 32.5621 21.2838 32.0246 21.2838Z" fill="#0000A0"/>
</g>
<defs>
<clipPath id="clip0_17_4">
<rect width="40" height="40" fill="white"/>
</clipPath>
</defs>
</svg>
