<svg width="40" height="40" viewBox="0 0 40 40" fill="none" xmlns="http://www.w3.org/2000/svg">
<rect x="0.5" y="0.5" width="39" height="39" rx="3.5" fill="#FAFAFA"/>
<rect x="0.5" y="0.5" width="39" height="39" rx="3.5" stroke="#E6E6E6"/>
<g clip-path="url(#clip0_993_701)">
<path d="M33.7517 15H33.8592C34.5129 15.067 34.9471 15.4966 35 16.1589V16.2445C34.9699 16.6378 34.8119 16.942 34.5259 17.1572C33.9592 17.5839 33.1181 17.4368 32.7583 16.8063C32.2994 16.0017 32.8563 15.0557 33.7517 15Z" fill="#E40946"/>
<path d="M5 24.8333V18.2434L7.08506 18.2414C7.08946 18.2414 7.09368 18.2431 7.09685 18.2461C7.10001 18.2492 7.10186 18.2534 7.10201 18.2578C7.10757 18.4175 7.10843 18.5777 7.1046 18.7382C7.10086 18.8856 6.94167 19.1195 6.86667 19.2483C6.86526 19.2502 6.86466 19.2526 6.86501 19.2549C6.86536 19.2573 6.86663 19.2594 6.86853 19.2608C6.87044 19.2622 6.87283 19.2628 6.87517 19.2624C6.87752 19.2621 6.87962 19.2608 6.88103 19.2589C7.27778 18.844 7.74148 18.5261 8.27213 18.3055C9.47126 17.8072 11.1922 18.0595 11.504 19.5761C11.5511 19.8049 11.5652 20.0115 11.5655 20.2695C11.5665 21.787 11.5666 23.3038 11.5658 24.8201C11.5658 24.824 11.5643 24.8277 11.5615 24.8305C11.5588 24.8332 11.555 24.8348 11.5511 24.8348H9.48305C9.47725 24.8348 9.4717 24.8325 9.4676 24.8285C9.46351 24.8244 9.46121 24.8189 9.46121 24.8132C9.46102 23.5316 9.46102 22.2481 9.46121 20.9626C9.46149 20.5376 9.2773 20.1167 8.8431 19.994C8.17356 19.8049 7.5658 20.0399 7.12213 20.5486C7.08879 20.5871 7.10489 20.6101 7.10489 20.6514C7.10489 22.0363 7.10489 23.4232 7.10489 24.8121C7.10489 24.815 7.10431 24.8179 7.10318 24.8206C7.10205 24.8234 7.1004 24.8258 7.09832 24.8279C7.09624 24.83 7.09377 24.8316 7.09105 24.8328C7.08833 24.8339 7.08541 24.8345 7.08247 24.8345L5 24.8333Z" fill="#081F2C"/>
<path d="M29.1861 25H28.9212C27.4083 24.9569 26.0451 24.1371 25.5994 22.6353C25.4306 22.0666 25.394 21.5 25.4896 20.9356C25.8261 18.9526 27.658 17.7908 29.6054 18.1316C30.4925 18.2868 31.2655 18.7922 31.7393 19.5575C32.2324 20.354 32.3629 21.2569 32.3149 22.183C32.3147 22.1872 32.3129 22.191 32.3099 22.1939C32.3069 22.1967 32.3029 22.1983 32.2988 22.1983H27.8043C27.7974 22.1983 27.7906 22.1967 27.7844 22.1936C27.7782 22.1905 27.7728 22.186 27.7686 22.1805L27.6186 21.9807C27.6087 21.9675 27.6038 21.9692 27.604 21.9856C27.6111 22.5333 28.0134 23.0187 28.4867 23.2161C29.2859 23.5494 30.2324 23.3284 30.9149 22.825C30.9156 22.8244 30.9164 22.824 30.9173 22.8238C30.9182 22.8236 30.9192 22.8235 30.9201 22.8237C30.921 22.8238 30.9219 22.8241 30.9226 22.8246C30.9234 22.8251 30.9241 22.8257 30.9247 22.8264L31.7936 24.1109C31.7964 24.1152 31.7976 24.1204 31.7969 24.1255C31.7961 24.1306 31.7935 24.1352 31.7896 24.1385C31.079 24.7313 30.0951 24.9741 29.1861 25ZM29.1884 19.7149C28.4014 19.6147 27.7387 20.0247 27.6034 20.8198C27.6031 20.8215 27.6032 20.8232 27.6036 20.8248C27.604 20.8264 27.6048 20.8279 27.6059 20.8292C27.6069 20.8305 27.6083 20.8315 27.6098 20.8322C27.6113 20.8329 27.6129 20.8333 27.6146 20.8333H30.3014C30.3102 20.8333 30.3139 20.8289 30.3126 20.8201C30.218 20.1977 29.7988 19.7925 29.1884 19.7149Z" fill="#081F2C"/>
<path d="M14.244 25H14.0428C13.292 24.975 12.5776 24.7011 12.2279 23.9957C12.0806 23.6989 12.0067 23.3853 12.0064 23.0549C12.0037 21.4532 12.0032 19.8517 12.0049 18.2506C12.0049 18.2433 12.0086 18.2397 12.0158 18.2397L14.0877 18.2399C14.0973 18.2401 14.102 18.245 14.102 18.2546C14.1019 19.5073 14.1021 20.7595 14.1029 22.0112C14.1029 22.523 14.2434 22.9994 14.8201 23.104C15.4908 23.2255 16.0312 23.0272 16.4411 22.5092C16.4478 22.5006 16.4512 22.4909 16.4512 22.4802V18.2569C16.4512 18.2523 16.453 18.2479 16.4562 18.2447C16.4595 18.2415 16.4639 18.2397 16.4684 18.2397L18.5472 18.2399C18.5495 18.2399 18.5518 18.2409 18.5535 18.2426C18.5551 18.2442 18.5561 18.2465 18.5561 18.2488V24.8204C18.5561 24.8242 18.5546 24.8279 18.5519 24.8306C18.5492 24.8333 18.5455 24.8348 18.5417 24.8348H16.4658C16.462 24.8348 16.4582 24.8332 16.4555 24.8304C16.4527 24.8276 16.4512 24.8238 16.4512 24.8198C16.4512 24.6693 16.4216 24.4216 16.4796 24.2842C16.535 24.1532 16.5921 24.0233 16.6509 23.8945C16.6513 23.8932 16.6514 23.8918 16.6509 23.8905C16.6505 23.8892 16.6496 23.888 16.6485 23.8873C16.6474 23.8865 16.646 23.8861 16.6446 23.8862C16.6432 23.8862 16.6419 23.8867 16.6408 23.8876C16.0015 24.5391 15.1638 24.9488 14.244 25Z" fill="#081F2C"/>
<path d="M22.3776 22.7443C22.3801 22.7435 22.3825 22.7426 22.385 22.7417C22.3868 22.7411 22.3875 22.74 22.3873 22.7385C22.371 22.572 22.3556 22.4056 22.3411 22.2391C22.337 22.1927 22.3429 22.1477 22.3586 22.104C22.8216 20.8211 23.2852 19.5383 23.7494 18.2557C23.7532 18.2452 23.7607 18.2399 23.7718 18.2399L25.9652 18.2397C25.9668 18.2396 25.9684 18.24 25.9698 18.2407C25.9712 18.2415 25.9724 18.2426 25.9733 18.2439C25.9742 18.2452 25.9748 18.2468 25.975 18.2484C25.9752 18.25 25.975 18.2516 25.9744 18.2532L23.3934 24.8195C23.3916 24.824 23.3885 24.8279 23.3845 24.8306C23.3805 24.8333 23.3758 24.8348 23.371 24.8348H21.1638C21.1532 24.8348 21.146 24.8298 21.1419 24.8198C20.4283 23.0041 19.7153 21.1899 19.0028 19.3773C18.9831 19.3269 18.9732 19.2748 18.973 19.221C18.9724 18.898 18.9724 18.5759 18.973 18.2546C18.973 18.2527 18.9733 18.2508 18.9741 18.249C18.9748 18.2472 18.9759 18.2456 18.9773 18.2442C18.9786 18.2429 18.9802 18.2418 18.982 18.2411C18.9838 18.2403 18.9857 18.2399 18.9876 18.2399H20.7537C20.7627 18.2399 20.7687 18.2443 20.7718 18.2529C21.3023 19.7389 21.8324 21.2247 22.3623 22.7103C22.3649 22.7184 22.3626 22.7273 22.3638 22.7356C22.3651 22.7437 22.3697 22.7466 22.3776 22.7443Z" fill="#081F2C"/>
<path d="M34.8342 18.2399H32.7635C32.7552 18.2399 32.7485 18.2466 32.7485 18.2549V24.8198C32.7485 24.8281 32.7552 24.8348 32.7635 24.8348H34.8342C34.8424 24.8348 34.8491 24.8281 34.8491 24.8198V18.2549C34.8491 18.2466 34.8424 18.2399 34.8342 18.2399Z" fill="#081F2C"/>
</g>
<defs>
<clipPath id="clip0_993_701">
<rect width="30" height="10" fill="white" transform="translate(5 15)"/>
</clipPath>
</defs>
</svg>
