<svg width="40" height="40" viewBox="0 0 40 40" fill="none" xmlns="http://www.w3.org/2000/svg">
<rect x="0.5" y="0.5" width="39" height="39" rx="3.5" fill="white" stroke="#E6E6E6"/>
<path d="M5.04744 4.52656C7.46731 4.56923 9.97175 4.53948 12.3979 4.53948L25.6484 4.53874L30.1586 4.53971C30.9327 4.53813 31.7099 4.53221 32.484 4.53082C32.6156 4.53059 32.6713 4.53273 32.7493 4.61452C32.7328 4.76163 29.6277 7.77453 29.2207 8.17747C25.8327 11.5811 22.4227 14.9627 18.9907 18.322C18.849 18.4314 18.4003 18.9119 18.2326 19.076C17.4312 19.8602 16.6379 20.6576 15.8397 21.4467L10.002 27.2162C9.13619 28.0728 8.29322 28.9722 7.39022 29.7929C6.64586 30.4694 5.84687 31.491 5.0379 32.0658C5.08297 31.24 5.05085 30.2166 5.05069 29.3712L5.05053 24.4245L5.05084 11.0438C5.05082 8.91716 5.00619 6.63611 5.04744 4.52656Z" fill="#00A9DF"/>
<path d="M35.8341 7.61872C35.8953 7.73238 35.8622 7.91366 35.8609 8.05066L35.86 9.10291V13.5036L35.8594 29.8812L35.8597 33.0525C35.8597 33.6789 35.8444 34.4078 35.8813 35.0272C35.2716 34.9679 33.7253 35.0109 33.061 35.0111L27.4512 35.0111L8.24372 35.0031L8.18216 34.9837L8.17091 34.9449C8.53197 34.6412 8.81981 34.2946 9.15716 33.9716C9.49941 33.6439 9.82094 33.3005 10.1578 32.9702L15.2274 27.9462L29.8636 13.4603L32.0485 11.2878C32.4435 10.8978 32.854 10.4992 33.2554 10.1151C34.0663 9.33891 34.9616 8.29547 35.8341 7.61872Z" fill="#010F5A"/>
</svg>
