<svg width="40" height="40" viewBox="0 0 40 40" fill="none" xmlns="http://www.w3.org/2000/svg">
<path d="M12.4889 18.8199C12.4922 18.7175 12.4742 18.6155 12.4361 18.5199C12.398 18.4244 12.3404 18.3372 12.2669 18.2637C12.1934 18.1901 12.1054 18.1316 12.0082 18.0917C11.9109 18.0517 11.8064 18.0312 11.7008 18.0312C11.5951 18.0312 11.4906 18.0517 11.3934 18.0917C11.2961 18.1316 11.2081 18.1901 11.1346 18.2637C11.0611 18.3372 11.0036 18.4244 10.9654 18.5199C10.9273 18.6155 10.9093 18.7175 10.9126 18.8199C10.9093 18.9223 10.9273 19.0243 10.9654 19.1199C11.0036 19.2154 11.0611 19.3026 11.1346 19.3761C11.2081 19.4497 11.2961 19.5082 11.3934 19.5481C11.4906 19.5881 11.5951 19.6086 11.7008 19.6086C11.8064 19.6086 11.9109 19.5881 12.0082 19.5481C12.1054 19.5082 12.1934 19.4497 12.2669 19.3761C12.3404 19.3026 12.398 19.2154 12.4361 19.1199C12.4742 19.0243 12.4922 18.9223 12.4889 18.8199ZM11.6944 20.1727C11.5086 20.1769 11.3238 20.145 11.1509 20.0789C10.9781 20.0128 10.8205 19.9139 10.6876 19.7879C10.5547 19.6619 10.4491 19.5114 10.377 19.3452C10.3049 19.179 10.2677 19.0006 10.2677 18.8203C10.2677 18.64 10.3049 18.4615 10.377 18.2953C10.4491 18.1291 10.5547 17.9786 10.6876 17.8526C10.8205 17.7266 10.9781 17.6277 11.1509 17.5616C11.3238 17.4955 11.5086 17.4636 11.6944 17.4678H13.0766V20.1727H11.6944Z" fill="black"/>
<path d="M16.1914 17.8555L14.3668 21.5839H13.6896L14.4307 20.0844L13.3548 17.8613C13.3354 17.8241 13.324 17.7835 13.3211 17.7419C13.3181 17.7003 13.3239 17.6585 13.3379 17.6191C13.352 17.5797 13.374 17.5434 13.4027 17.5124C13.4315 17.4814 13.4663 17.4563 13.5053 17.4386C13.5439 17.4204 13.586 17.4103 13.6289 17.4088C13.6718 17.4073 13.7146 17.4145 13.7545 17.4299C13.7943 17.4454 13.8304 17.4688 13.8605 17.4986C13.8905 17.5283 13.9138 17.5639 13.9289 17.6029L14.7836 19.3784L15.6384 17.5912C15.6554 17.5547 15.6798 17.5219 15.7102 17.4947C15.7405 17.4675 15.7762 17.4465 15.8151 17.433C15.854 17.4195 15.8953 17.4137 15.9365 17.416C15.9777 17.4183 16.0181 17.4287 16.0551 17.4464C16.0921 17.4642 16.1251 17.489 16.1521 17.5193C16.179 17.5497 16.1994 17.585 16.212 17.6232C16.2245 17.6614 16.2291 17.7016 16.2253 17.7415C16.2215 17.7814 16.2095 17.8202 16.1899 17.8555" fill="black"/>
<path d="M15.9217 20.1727V19.5887H16.3401C16.7343 19.5887 16.9337 19.3769 16.942 18.9893V16.0566H17.5786V19.0499C17.5786 19.7033 17.0819 20.1734 16.4033 20.1734L15.9217 20.1727Z" fill="black"/>
<path d="M19.2733 20.1727C18.5638 20.1727 18.0431 19.6551 18.0431 18.9557V17.4678H18.6488V18.9732C18.6488 19.0582 18.666 19.1423 18.6996 19.2207C18.733 19.2992 18.7822 19.3705 18.844 19.4306C18.906 19.4907 18.9795 19.5383 19.0604 19.5708C19.1412 19.6033 19.2279 19.6201 19.3155 19.6201C19.403 19.6201 19.4897 19.6033 19.5706 19.5708C19.6514 19.5383 19.7249 19.4907 19.7869 19.4306C19.8488 19.3705 19.8978 19.2992 19.9314 19.2207C19.9649 19.1423 19.9821 19.0582 19.9821 18.9732V17.4678H20.5886V20.1727H19.2733Z" fill="black"/>
<path d="M21.0454 20.1727V19.62H22.2876C22.3246 19.6219 22.3616 19.6165 22.3964 19.604C22.4312 19.5916 22.4631 19.5724 22.4899 19.5476C22.5168 19.5229 22.5382 19.4931 22.5529 19.46C22.5675 19.427 22.5751 19.3914 22.5751 19.3554C22.5751 19.3194 22.5675 19.2838 22.5529 19.2508C22.5382 19.2177 22.5168 19.1879 22.4899 19.1632C22.4631 19.1384 22.4312 19.1192 22.3964 19.1068C22.3616 19.0943 22.3246 19.0889 22.2876 19.0907H21.8798C21.3832 19.0907 21.0198 18.7498 21.0198 18.2789C21.0198 17.808 21.3832 17.4678 21.8798 17.4678H23.1364V18.0205H21.9053C21.8683 18.0186 21.8313 18.024 21.7965 18.0365C21.7617 18.0489 21.7299 18.0681 21.7031 18.0929C21.6761 18.1176 21.6547 18.1475 21.6401 18.1805C21.6254 18.2136 21.6179 18.2492 21.6179 18.2851C21.6179 18.3211 21.6254 18.3567 21.6401 18.3897C21.6547 18.4228 21.6761 18.4526 21.7031 18.4774C21.7299 18.5021 21.7617 18.5213 21.7965 18.5338C21.8313 18.5462 21.8683 18.5517 21.9053 18.5498H23.1364V20.1727H21.0454Z" fill="black"/>
<path d="M24.8333 19.5938C24.439 19.5938 24.2389 19.382 24.2314 18.9944V18.0205H25.1395V17.4678H24.2329V16.5633H23.5963V19.0491C23.5963 19.7018 24.0937 20.1727 24.7723 20.1727H25.2509V19.5886L24.8333 19.5938Z" fill="black"/>
<path d="M8.91236 17.9877C9.09091 17.9819 9.26021 17.9091 9.38441 17.7845C9.50862 17.6599 9.57808 17.4934 9.57808 17.32C9.57808 17.1467 9.50862 16.9801 9.38441 16.8556C9.26021 16.731 9.09091 16.6581 8.91236 16.6524H8.90635C8.81405 16.6494 8.72214 16.6645 8.63599 16.6967C8.54984 16.7289 8.47122 16.7776 8.40486 16.8399C8.3385 16.9022 8.28577 16.9768 8.24974 17.0593C8.2137 17.1418 8.19509 17.2305 8.19509 17.32C8.19509 17.4096 8.2137 17.4983 8.24974 17.5808C8.28577 17.6632 8.3385 17.7378 8.40486 17.8001C8.47122 17.8624 8.54984 17.9111 8.63599 17.9433C8.72214 17.9756 8.81405 17.9906 8.90635 17.9877H8.91236ZM7.60991 20.1779V16.0567H8.94923C9.12296 16.0526 9.29575 16.0823 9.45747 16.144C9.61919 16.2057 9.76658 16.2982 9.89093 16.416C10.0153 16.5338 10.1141 16.6745 10.1815 16.8299C10.249 16.9852 10.2838 17.1522 10.2838 17.3208C10.2838 17.4894 10.249 17.6563 10.1815 17.8117C10.1141 17.967 10.0153 18.1078 9.89093 18.2256C9.76658 18.3433 9.61919 18.4358 9.45747 18.4975C9.29575 18.5592 9.12296 18.5889 8.94923 18.5849H8.2457V20.1728L7.60991 20.1779Z" fill="black"/>
<path d="M27.3501 19.1433V17.0794C27.3501 16.7735 27.1378 16.5618 26.8534 16.5618C26.569 16.5618 26.3501 16.7735 26.3501 17.0794V20.1727H25.7173V17.1115C25.7124 16.9648 25.7385 16.8187 25.7939 16.6822C25.8494 16.5456 25.933 16.4215 26.0397 16.3174C26.1464 16.2133 26.2739 16.1315 26.4143 16.077C26.5548 16.0225 26.7052 15.9964 26.8564 16.0004C27.505 16.0004 27.9896 16.4647 27.9896 17.1115V19.1762C27.987 19.2415 27.998 19.3066 28.0219 19.3677C28.0459 19.4287 28.0823 19.4845 28.129 19.5316C28.1757 19.5786 28.2317 19.6161 28.2936 19.6417C28.3556 19.6673 28.4223 19.6805 28.4896 19.6805C28.557 19.6805 28.6236 19.6673 28.6855 19.6417C28.7475 19.6161 28.8035 19.5786 28.8502 19.5316C28.8969 19.4845 28.9333 19.4287 28.9572 19.3677C28.9812 19.3066 28.9922 19.2415 28.9896 19.1762V16.0566H29.6262V19.1433C29.6185 19.4309 29.4954 19.7042 29.2831 19.9049C29.0708 20.1057 28.7861 20.2181 28.4896 20.2181C28.1931 20.2181 27.9084 20.1057 27.6961 19.9049C27.4838 19.7042 27.3607 19.4309 27.3531 19.1433" fill="black"/>
<path d="M31.5544 19.6434C31.775 19.6371 31.9844 19.5476 32.1382 19.3939C32.2919 19.2402 32.3779 19.0345 32.3779 18.8203C32.3779 18.6061 32.2919 18.4004 32.1382 18.2467C31.9844 18.0931 31.775 18.0035 31.5544 17.9972H31.5424C31.3217 18.0035 31.1124 18.0931 30.9586 18.2467C30.8049 18.4004 30.7189 18.6061 30.7189 18.8203C30.7189 19.0345 30.8049 19.2402 30.9586 19.3939C31.1124 19.5476 31.3217 19.6371 31.5424 19.6434H31.5544ZM31.5424 20.2312C31.1566 20.2312 30.7867 20.0825 30.514 19.8178C30.2412 19.5532 30.0879 19.1942 30.0879 18.8199C30.0879 18.4457 30.2412 18.0867 30.514 17.8221C30.7867 17.5574 31.1566 17.4087 31.5424 17.4087H31.5544C31.9402 17.4087 32.3101 17.5574 32.5829 17.8221C32.8556 18.0867 33.0089 18.4457 33.0089 18.8199C33.0089 19.1942 32.8556 19.5532 32.5829 19.8178C32.3101 20.0825 31.9402 20.2312 31.5544 20.2312H31.5424Z" fill="black"/>
<path d="M4.42358 18.7067L5.01499 19.8537C5.03277 19.8873 5.0413 19.9248 5.03973 19.9625C5.03816 20.0003 5.02654 20.037 5.00602 20.0691C4.9855 20.1012 4.95676 20.1276 4.9226 20.1458C4.88844 20.1639 4.85002 20.1732 4.81108 20.1727H2.22573C2.16586 20.1727 2.10845 20.1496 2.06611 20.1085C2.02378 20.0675 2 20.0118 2 19.9537V16.2778C2 16.2197 2.02378 16.164 2.06611 16.1229C2.10845 16.0819 2.16586 16.0588 2.22573 16.0588H6.01196C6.07182 16.0588 6.12924 16.0819 6.17157 16.1229C6.2139 16.164 6.23769 16.2197 6.23769 16.2778V18.7907C6.23816 18.8285 6.22853 18.8658 6.20973 18.8989C6.19093 18.9321 6.16361 18.9599 6.13043 18.9798C6.09724 18.9996 6.05932 19.0108 6.02037 19.0122C5.98141 19.0136 5.94274 19.0052 5.90812 18.9878L4.72681 18.4147C4.68461 18.3944 4.63693 18.3874 4.59044 18.3947C4.54395 18.4021 4.50098 18.4233 4.46756 18.4555C4.43414 18.4877 4.41192 18.5292 4.40404 18.5743C4.39615 18.6193 4.40298 18.6656 4.42358 18.7067Z" fill="black"/>
<path d="M36.7125 17.4678H37.3423L36.5304 19.861C36.4454 20.1194 36.3047 20.2311 36.106 20.2311C35.9074 20.2311 35.7667 20.1194 35.6696 19.8661L35.179 18.552L34.6877 19.8661C34.5914 20.1187 34.4575 20.2311 34.2581 20.2311C34.0587 20.2311 33.9187 20.1194 33.8337 19.861L33.0278 17.4678H33.6817L34.2942 19.2784L34.7968 17.9643C34.8818 17.7409 35.009 17.6467 35.1911 17.6467C35.3732 17.6467 35.5003 17.7409 35.5846 17.9643L36.094 19.2996L36.7125 17.4678Z" fill="black"/>
<path d="M37.5161 19.7501C37.5272 19.7501 37.5382 19.748 37.5484 19.7439C37.5586 19.7398 37.5679 19.7337 37.5756 19.726C37.5835 19.7186 37.5898 19.7098 37.594 19.7C37.5983 19.6902 37.6005 19.6796 37.6004 19.669C37.6006 19.6582 37.5985 19.6474 37.5942 19.6373C37.59 19.6273 37.5836 19.6182 37.5756 19.6106C37.568 19.6027 37.5588 19.5964 37.5486 19.5921C37.5383 19.5878 37.5273 19.5857 37.5161 19.5858C37.5049 19.5854 37.4938 19.5874 37.4835 19.5917C37.4732 19.596 37.4641 19.6024 37.4567 19.6106C37.4487 19.6182 37.4423 19.6273 37.438 19.6373C37.4338 19.6474 37.4317 19.6582 37.4319 19.669C37.4323 19.6905 37.4413 19.711 37.457 19.7262C37.4727 19.7413 37.494 19.7499 37.5161 19.7501ZM37.3423 20.0005V19.4989H37.5078C37.5574 19.4966 37.6058 19.5134 37.6425 19.5456C37.6596 19.5612 37.6731 19.5801 37.6819 19.6012C37.6907 19.6222 37.6947 19.6449 37.6937 19.6676C37.6941 19.699 37.6853 19.7299 37.6682 19.7567C37.6512 19.7835 37.6266 19.805 37.5974 19.8187L37.7155 20.0005H37.6095L37.5026 19.8369H37.4319V20.0005H37.3423ZM37.5034 20.1392C37.5732 20.1399 37.6419 20.1219 37.702 20.0873C37.7918 20.0334 37.8566 19.948 37.8831 19.8489C37.9096 19.7498 37.8956 19.6445 37.8442 19.5551C37.8104 19.4967 37.7613 19.4478 37.702 19.4135C37.6419 19.3791 37.5735 19.3609 37.5037 19.3609C37.434 19.3609 37.3655 19.3791 37.3055 19.4135C37.246 19.4475 37.1971 19.4964 37.164 19.5551C37.13 19.6149 37.1121 19.6821 37.1121 19.7504C37.1121 19.8187 37.13 19.8859 37.164 19.9457C37.1978 20.0042 37.2468 20.053 37.3062 20.0873C37.3659 20.1217 37.434 20.1396 37.5034 20.1392ZM37.5034 20.2312C37.4163 20.2306 37.3309 20.208 37.2556 20.1655C37.1804 20.1231 37.118 20.0623 37.0744 19.9891C37.0309 19.916 37.0079 19.833 37.0076 19.7486C37.0074 19.6641 37.0299 19.5811 37.073 19.5077C37.1276 19.4155 37.2121 19.3435 37.3133 19.3029C37.4146 19.2622 37.5268 19.2551 37.6325 19.2828C37.7383 19.3105 37.8317 19.3713 37.8982 19.4558C37.9646 19.5403 38.0004 19.6438 37.9999 19.7501C38.001 19.8136 37.9888 19.8766 37.9642 19.9355C37.9396 19.9944 37.9031 20.0478 37.8567 20.0927C37.8104 20.1376 37.7552 20.173 37.6945 20.1968C37.6338 20.2205 37.5688 20.2322 37.5034 20.2312Z" fill="black"/>
<path d="M25.3267 21.3371H25.6839V23.9416H25.3267V21.3371Z" fill="black"/>
<path d="M26.1569 22.0557H26.4577V22.3548H26.4653C26.5981 22.1262 26.8087 22.0119 27.097 22.0119C27.2248 22.0119 27.3314 22.029 27.4166 22.063C27.5018 22.097 27.5708 22.1445 27.6234 22.2053C27.676 22.2661 27.7124 22.339 27.7325 22.4241C27.755 22.5068 27.7663 22.5992 27.7663 22.7014V23.9416H27.4467V22.6649C27.4467 22.5482 27.4116 22.4557 27.3414 22.3877C27.2712 22.3196 27.1747 22.2855 27.0519 22.2855C26.9541 22.2855 26.8689 22.3001 26.7962 22.3293C26.726 22.3585 26.6671 22.3998 26.6194 22.4533C26.5718 22.5068 26.5354 22.57 26.5104 22.643C26.4878 22.7135 26.4765 22.7914 26.4765 22.8765V23.9416H26.1569V22.0557Z" fill="black"/>
<path d="M28.2752 22.7816H28.9964V23.0734H28.2752V22.7816Z" fill="black"/>
<path d="M31.163 22.0995C31.143 21.9122 31.0728 21.7773 30.9525 21.6946C30.8347 21.6095 30.683 21.5669 30.4975 21.5669C30.4223 21.5669 30.3483 21.5742 30.2756 21.5888C30.2029 21.6034 30.1378 21.6277 30.0801 21.6617C30.025 21.6958 29.9798 21.742 29.9447 21.8004C29.9121 21.8563 29.8959 21.9268 29.8959 22.0119C29.8959 22.0922 29.9197 22.1578 29.9673 22.2089C30.0174 22.2576 30.0826 22.2977 30.1628 22.3293C30.2456 22.3609 30.3383 22.3877 30.4411 22.4095C30.5439 22.429 30.6479 22.4509 30.7532 22.4752C30.861 22.4995 30.9663 22.5287 31.069 22.5628C31.1718 22.5944 31.2633 22.6381 31.3435 22.6941C31.4263 22.75 31.4914 22.8205 31.5391 22.9056C31.5892 22.9908 31.6143 23.0978 31.6143 23.2267C31.6143 23.3653 31.5817 23.4844 31.5165 23.5841C31.4538 23.6814 31.3724 23.7617 31.2721 23.8249C31.1718 23.8857 31.059 23.9295 30.9337 23.9562C30.8108 23.9854 30.688 24 30.5652 24C30.4148 24 30.2719 23.9818 30.1365 23.9453C30.0036 23.9088 29.8858 23.8541 29.783 23.7811C29.6828 23.7057 29.6026 23.6109 29.5424 23.4966C29.4847 23.3799 29.4559 23.2425 29.4559 23.0844H29.7943C29.7943 23.1938 29.8156 23.2887 29.8582 23.3689C29.9034 23.4467 29.961 23.5112 30.0312 23.5623C30.1039 23.6133 30.1879 23.651 30.2832 23.6753C30.3784 23.6997 30.4762 23.7118 30.5764 23.7118C30.6567 23.7118 30.7369 23.7045 30.8171 23.6899C30.8998 23.6753 30.9738 23.651 31.039 23.617C31.1041 23.5805 31.1568 23.5319 31.1969 23.4711C31.237 23.4103 31.2571 23.3324 31.2571 23.2376C31.2571 23.1476 31.232 23.0747 31.1818 23.0187C31.1342 22.9628 31.069 22.9178 30.9863 22.8838C30.9061 22.8473 30.8146 22.8181 30.7118 22.7962C30.609 22.7743 30.5038 22.7524 30.396 22.7306C30.2907 22.7062 30.1866 22.6795 30.0839 22.6503C29.9811 22.6187 29.8883 22.5786 29.8056 22.5299C29.7254 22.4789 29.6602 22.4144 29.6101 22.3366C29.5624 22.2563 29.5386 22.1566 29.5386 22.0375C29.5386 21.9061 29.5662 21.7931 29.6214 21.6982C29.6765 21.6009 29.7492 21.5219 29.8394 21.4611C29.9322 21.3979 30.0362 21.3517 30.1515 21.3225C30.2694 21.2909 30.3897 21.2751 30.5125 21.2751C30.6504 21.2751 30.7782 21.2909 30.8961 21.3225C31.0139 21.3541 31.1167 21.404 31.2044 21.472C31.2947 21.5401 31.3648 21.6265 31.415 21.731C31.4676 21.8332 31.4965 21.956 31.5015 22.0995H31.163Z" fill="black"/>
<path d="M32.3642 22.0557H32.7515V22.3293H32.3642V23.5002C32.3642 23.5367 32.3667 23.5659 32.3717 23.5878C32.3792 23.6097 32.3918 23.6267 32.4093 23.6389C32.4269 23.651 32.4507 23.6595 32.4808 23.6644C32.5134 23.6668 32.5547 23.668 32.6049 23.668H32.7515V23.9416H32.5071C32.4244 23.9416 32.3529 23.9368 32.2928 23.927C32.2351 23.9149 32.1875 23.8942 32.1499 23.865C32.1148 23.8358 32.0885 23.7945 32.0709 23.741C32.0534 23.6875 32.0446 23.617 32.0446 23.5294V22.3293H31.7137V22.0557H32.0446V21.4903H32.3642V22.0557Z" fill="black"/>
<path d="M33.2645 23.0005C33.2645 23.1148 33.2796 23.2169 33.3096 23.3069C33.3422 23.3945 33.3861 23.4686 33.4412 23.5294C33.4964 23.5878 33.5603 23.6328 33.633 23.6644C33.7082 23.696 33.7872 23.7118 33.8699 23.7118C33.9526 23.7118 34.0304 23.696 34.1031 23.6644C34.1783 23.6328 34.2434 23.5878 34.2986 23.5294C34.3537 23.4686 34.3963 23.3945 34.4264 23.3069C34.459 23.2169 34.4753 23.1148 34.4753 23.0005C34.4753 22.8862 34.459 22.7853 34.4264 22.6977C34.3963 22.6077 34.3537 22.5324 34.2986 22.4716C34.2434 22.4108 34.1783 22.3646 34.1031 22.3329C34.0304 22.3013 33.9526 22.2855 33.8699 22.2855C33.7872 22.2855 33.7082 22.3013 33.633 22.3329C33.5603 22.3646 33.4964 22.4108 33.4412 22.4716C33.3861 22.5324 33.3422 22.6077 33.3096 22.6977C33.2796 22.7853 33.2645 22.8862 33.2645 23.0005ZM32.9261 23.0005C32.9261 22.8619 32.9462 22.733 32.9863 22.6138C33.0264 22.4922 33.0865 22.3877 33.1667 22.3001C33.247 22.2101 33.346 22.1396 33.4638 22.0885C33.5816 22.0375 33.717 22.0119 33.8699 22.0119C34.0253 22.0119 34.1607 22.0375 34.276 22.0885C34.3938 22.1396 34.4929 22.2101 34.5731 22.3001C34.6533 22.3877 34.7135 22.4922 34.7536 22.6138C34.7937 22.733 34.8137 22.8619 34.8137 23.0005C34.8137 23.1391 34.7937 23.268 34.7536 23.3872C34.7135 23.5063 34.6533 23.6109 34.5731 23.7009C34.4929 23.7884 34.3938 23.8577 34.276 23.9088C34.1607 23.9574 34.0253 23.9818 33.8699 23.9818C33.717 23.9818 33.5816 23.9574 33.4638 23.9088C33.346 23.8577 33.247 23.7884 33.1667 23.7009C33.0865 23.6109 33.0264 23.5063 32.9863 23.3872C32.9462 23.268 32.9261 23.1391 32.9261 23.0005Z" fill="black"/>
<path d="M35.1041 22.0557H35.4049V22.4533H35.4124C35.4901 22.3001 35.5854 22.187 35.6982 22.1141C35.811 22.0411 35.9539 22.0071 36.1269 22.0119V22.3402C35.999 22.3402 35.89 22.3573 35.7997 22.3913C35.7095 22.4254 35.6368 22.4752 35.5816 22.5409C35.5265 22.6065 35.4864 22.6868 35.4613 22.7816C35.4362 22.874 35.4237 22.981 35.4237 23.1026V23.9416H35.1041V22.0557Z" fill="black"/>
<path d="M37.5762 22.8181C37.5712 22.7451 37.5536 22.6758 37.5235 22.6102C37.496 22.5445 37.4571 22.4886 37.407 22.4424C37.3593 22.3937 37.3017 22.356 37.234 22.3293C37.1688 22.3001 37.0961 22.2855 37.0159 22.2855C36.9332 22.2855 36.858 22.3001 36.7903 22.3293C36.7251 22.356 36.6687 22.3937 36.6211 22.4424C36.5735 22.491 36.5359 22.5482 36.5083 22.6138C36.4807 22.6771 36.4644 22.7451 36.4594 22.8181H37.5762ZM37.8845 23.3434C37.8419 23.555 37.7479 23.7143 37.6025 23.8213C37.4571 23.9283 37.2741 23.9818 37.0535 23.9818C36.8981 23.9818 36.7627 23.9574 36.6474 23.9088C36.5346 23.8602 36.4393 23.7921 36.3616 23.7045C36.2839 23.617 36.225 23.5124 36.1849 23.3908C36.1473 23.2692 36.126 23.1367 36.121 22.9932C36.121 22.8497 36.1435 22.7184 36.1887 22.5992C36.2338 22.4801 36.2964 22.3767 36.3767 22.2892C36.4594 22.2016 36.5559 22.1335 36.6662 22.0849C36.779 22.0362 36.9018 22.0119 37.0347 22.0119C37.2077 22.0119 37.3506 22.0472 37.4634 22.1177C37.5787 22.1858 37.6702 22.2734 37.7379 22.3804C37.8081 22.4874 37.8557 22.6041 37.8808 22.7306C37.9083 22.857 37.9196 22.9774 37.9146 23.0917H36.4594C36.4569 23.1744 36.4669 23.2534 36.4895 23.3288C36.512 23.4018 36.5484 23.4674 36.5985 23.5258C36.6487 23.5817 36.7126 23.6267 36.7903 23.6608C36.868 23.6948 36.9595 23.7118 37.0648 23.7118C37.2002 23.7118 37.3105 23.6814 37.3957 23.6206C37.4834 23.5598 37.5411 23.4674 37.5687 23.3434H37.8845Z" fill="black"/>
</svg>
