<svg xmlns="http://www.w3.org/2000/svg" width="40" height="40" viewBox="0 0 40 40" fill="none">
<g clip-path="url(#clip0_89_25)">
<path d="M36 0.5H4C2.067 0.5 0.5 2.067 0.5 4V36C0.5 37.933 2.067 39.5 4 39.5H36C37.933 39.5 39.5 37.933 39.5 36V4C39.5 2.067 37.933 0.5 36 0.5Z" fill="#FAFAFA"/>
<path d="M36 0.5H4C2.067 0.5 0.5 2.067 0.5 4V36C0.5 37.933 2.067 39.5 4 39.5H36C37.933 39.5 39.5 37.933 39.5 36V4C39.5 2.067 37.933 0.5 36 0.5Z" stroke="#E6E6E6"/>
<g clip-path="url(#clip1_89_25)">
<path d="M13.3412 20.5281C13.3441 20.4372 13.3282 20.3467 13.2943 20.2619C13.2604 20.1772 13.2093 20.0998 13.1441 20.0346C13.0788 19.9693 13.0006 19.9174 12.9143 19.882C12.8279 19.8465 12.7351 19.8283 12.6413 19.8283C12.5475 19.8283 12.4547 19.8465 12.3684 19.882C12.282 19.9174 12.2039 19.9693 12.1386 20.0346C12.0733 20.0998 12.0222 20.1772 11.9884 20.2619C11.9545 20.3467 11.9385 20.4372 11.9414 20.5281C11.9385 20.6189 11.9545 20.7095 11.9884 20.7942C12.0222 20.879 12.0733 20.9563 12.1386 21.0216C12.2039 21.0869 12.282 21.1387 12.3684 21.1742C12.4547 21.2096 12.5475 21.2279 12.6413 21.2279C12.7351 21.2279 12.8279 21.2096 12.9143 21.1742C13.0006 21.1387 13.0788 21.0869 13.1441 21.0216C13.2093 20.9563 13.2604 20.879 13.2943 20.7942C13.3282 20.7095 13.3441 20.6189 13.3412 20.5281ZM12.6357 21.7284C12.4707 21.7321 12.3066 21.7038 12.1531 21.6452C11.9996 21.5865 11.8597 21.4987 11.7416 21.3869C11.6236 21.2751 11.5298 21.1416 11.4658 20.9942C11.4018 20.8467 11.3688 20.6884 11.3688 20.5284C11.3688 20.3684 11.4018 20.2101 11.4658 20.0626C11.5298 19.9152 11.6236 19.7817 11.7416 19.6699C11.8597 19.5581 11.9996 19.4703 12.1531 19.4117C12.3066 19.353 12.4707 19.3247 12.6357 19.3284H13.8631V21.7284H12.6357Z" fill="black"/>
<path d="M16.6291 19.6723L15.0087 22.9804H14.4074L15.0655 21.6499L14.1101 19.6775C14.0928 19.6445 14.0827 19.6085 14.0801 19.5715C14.0775 19.5346 14.0827 19.4976 14.0951 19.4626C14.1076 19.4276 14.1271 19.3955 14.1526 19.368C14.1782 19.3404 14.2091 19.3182 14.2437 19.3025C14.278 19.2863 14.3154 19.2773 14.3535 19.276C14.3916 19.2747 14.4296 19.2811 14.465 19.2948C14.5004 19.3085 14.5324 19.3292 14.5591 19.3557C14.5858 19.3821 14.6065 19.4136 14.6199 19.4482L15.3789 21.0235L16.138 19.4379C16.153 19.4055 16.1747 19.3763 16.2017 19.3522C16.2286 19.3281 16.2603 19.3095 16.2949 19.2975C16.3294 19.2855 16.3661 19.2804 16.4027 19.2824C16.4393 19.2845 16.4751 19.2936 16.508 19.3094C16.5409 19.3251 16.5702 19.3471 16.5941 19.3741C16.618 19.401 16.6361 19.4324 16.6473 19.4662C16.6584 19.5001 16.6625 19.5358 16.6591 19.5712C16.6558 19.6066 16.6451 19.641 16.6277 19.6723" fill="black"/>
<path d="M16.3895 21.7283V21.2101H16.761C17.1111 21.2101 17.2882 21.0223 17.2955 20.6783V18.0763H17.8608V20.7321C17.8608 21.3118 17.4198 21.729 16.8172 21.729L16.3895 21.7283Z" fill="black"/>
<path d="M19.3658 21.7283C18.7357 21.7283 18.2733 21.2691 18.2733 20.6485V19.3284H18.8112V20.6641C18.8112 20.7395 18.8265 20.8141 18.8563 20.8837C18.886 20.9533 18.9296 21.0166 18.9846 21.0699C19.0396 21.1232 19.1048 21.1655 19.1767 21.1943C19.2485 21.2232 19.3255 21.238 19.4032 21.238C19.4809 21.238 19.5579 21.2232 19.6297 21.1943C19.7016 21.1655 19.7668 21.1232 19.8218 21.0699C19.8768 21.0166 19.9204 20.9533 19.9501 20.8837C19.9799 20.8141 19.9952 20.7395 19.9952 20.6641V19.3284H20.5337V21.7283H19.3658Z" fill="black"/>
<path d="M20.9394 21.7283V21.238H22.0425C22.0754 21.2397 22.1082 21.2348 22.1391 21.2238C22.17 21.2127 22.1983 21.1957 22.2222 21.1738C22.246 21.1518 22.265 21.1253 22.2781 21.096C22.2911 21.0667 22.2977 21.0351 22.2977 21.0032C22.2977 20.9713 22.2911 20.9397 22.2781 20.9104C22.265 20.881 22.246 20.8546 22.2222 20.8326C22.1983 20.8106 22.17 20.7936 22.1391 20.7826C22.1082 20.7715 22.0754 20.7667 22.0425 20.7684H21.6803C21.2393 20.7684 20.9166 20.4659 20.9166 20.0481C20.9166 19.6303 21.2393 19.3284 21.6803 19.3284H22.7962V19.8188H21.703C21.6702 19.8171 21.6373 19.8219 21.6064 19.833C21.5755 19.844 21.5473 19.861 21.5234 19.883C21.4995 19.905 21.4805 19.9314 21.4675 19.9608C21.4545 19.9901 21.4478 20.0217 21.4478 20.0536C21.4478 20.0855 21.4545 20.1171 21.4675 20.1464C21.4805 20.1757 21.4995 20.2022 21.5234 20.2242C21.5473 20.2461 21.5755 20.2632 21.6064 20.2742C21.6373 20.2852 21.6702 20.2901 21.703 20.2884H22.7962V21.7283H20.9394Z" fill="black"/>
<path d="M24.3032 21.2146C23.953 21.2146 23.7753 21.0268 23.7686 20.6828V19.8187H24.5751V19.3284H23.77V18.5258H23.2047V20.7314C23.2047 21.3105 23.6464 21.7283 24.249 21.7283H24.674V21.2101L24.3032 21.2146Z" fill="black"/>
<path d="M10.1651 19.7897C10.3237 19.7846 10.474 19.72 10.5843 19.6094C10.6946 19.4989 10.7563 19.3511 10.7563 19.1973C10.7563 19.0435 10.6946 18.8957 10.5843 18.7852C10.474 18.6747 10.3237 18.61 10.1651 18.6049H10.1598C10.0778 18.6023 9.99622 18.6157 9.91971 18.6443C9.84321 18.6729 9.7734 18.7161 9.71447 18.7713C9.65554 18.8266 9.60872 18.8928 9.57672 18.966C9.54472 19.0392 9.5282 19.1178 9.5282 19.1973C9.5282 19.2768 9.54472 19.3555 9.57672 19.4286C9.60872 19.5018 9.65554 19.568 9.71447 19.6233C9.7734 19.6785 9.84321 19.7217 9.91971 19.7503C9.99622 19.7789 10.0778 19.7923 10.1598 19.7897H10.1651ZM9.00854 21.7329V18.0764H10.1979C10.3522 18.0728 10.5056 18.0991 10.6492 18.1539C10.7928 18.2086 10.9237 18.2907 11.0341 18.3952C11.1445 18.4997 11.2323 18.6245 11.2922 18.7624C11.3521 18.9003 11.383 19.0484 11.383 19.198C11.383 19.3475 11.3521 19.4956 11.2922 19.6335C11.2323 19.7714 11.1445 19.8962 11.0341 20.0007C10.9237 20.1052 10.7928 20.1873 10.6492 20.242C10.5056 20.2968 10.3522 20.3231 10.1979 20.3195H9.57314V21.7284L9.00854 21.7329Z" fill="black"/>
<path d="M26.5381 20.815V18.9838C26.5381 18.7124 26.3496 18.5245 26.0971 18.5245C25.8445 18.5245 25.6501 18.7124 25.6501 18.9838V21.7283H25.0882V19.0123C25.0838 18.8821 25.107 18.7525 25.1562 18.6313C25.2054 18.5101 25.2797 18.4 25.3745 18.3077C25.4692 18.2154 25.5824 18.1428 25.7071 18.0944C25.8319 18.046 25.9654 18.0229 26.0997 18.0264C26.6757 18.0264 27.106 18.4384 27.106 19.0123V20.8441C27.1037 20.902 27.1135 20.9598 27.1347 21.014C27.156 21.0682 27.1883 21.1177 27.2298 21.1594C27.2712 21.2012 27.321 21.2345 27.376 21.2572C27.431 21.2799 27.4902 21.2916 27.55 21.2916C27.6098 21.2916 27.669 21.2799 27.724 21.2572C27.779 21.2345 27.8287 21.2012 27.8702 21.1594C27.9117 21.1177 27.944 21.0682 27.9653 21.014C27.9866 20.9598 27.9963 20.902 27.994 20.8441V18.0763H28.5593V20.815C28.5525 21.0701 28.4432 21.3126 28.2547 21.4907C28.0661 21.6688 27.8133 21.7685 27.55 21.7685C27.2868 21.7685 27.0339 21.6688 26.8454 21.4907C26.6568 21.3126 26.5475 21.0701 26.5408 20.815" fill="black"/>
<path d="M30.2716 21.2588C30.4675 21.2531 30.6535 21.1737 30.79 21.0373C30.9265 20.901 31.0029 20.7184 31.0029 20.5284C31.0029 20.3384 30.9265 20.1559 30.79 20.0195C30.6535 19.8832 30.4675 19.8037 30.2716 19.7981H30.2609C30.065 19.8037 29.8791 19.8832 29.7426 20.0195C29.606 20.1559 29.5297 20.3384 29.5297 20.5284C29.5297 20.7184 29.606 20.901 29.7426 21.0373C29.8791 21.1737 30.065 21.2531 30.2609 21.2588H30.2716ZM30.2609 21.7802C29.9184 21.7802 29.5899 21.6483 29.3477 21.4135C29.1055 21.1787 28.9694 20.8602 28.9694 20.5281C28.9694 20.196 29.1055 19.8775 29.3477 19.6427C29.5899 19.4079 29.9184 19.276 30.2609 19.276H30.2716C30.6142 19.276 30.9427 19.4079 31.1849 19.6427C31.4271 19.8775 31.5632 20.196 31.5632 20.5281C31.5632 20.8602 31.4271 21.1787 31.1849 21.4135C30.9427 21.6483 30.6142 21.7802 30.2716 21.7802H30.2609Z" fill="black"/>
<path d="M6.17902 20.4276L6.7042 21.4452C6.72 21.4751 6.72757 21.5084 6.72617 21.5419C6.72477 21.5754 6.71446 21.6079 6.69624 21.6364C6.67801 21.6649 6.65249 21.6884 6.62216 21.7045C6.59182 21.7206 6.55771 21.7288 6.52313 21.7283H4.22731C4.17414 21.7283 4.12316 21.7078 4.08557 21.6714C4.04797 21.635 4.02686 21.5855 4.02686 21.534V18.2726C4.02686 18.221 4.04797 18.1716 4.08557 18.1352C4.12316 18.0987 4.17414 18.0782 4.22731 18.0782H7.58952C7.64268 18.0782 7.69367 18.0987 7.73126 18.1352C7.76885 18.1716 7.78997 18.221 7.78997 18.2726V20.5021C7.79039 20.5357 7.78184 20.5688 7.76515 20.5982C7.74845 20.6276 7.72419 20.6523 7.69472 20.6699C7.66525 20.6875 7.63158 20.6974 7.59699 20.6987C7.56239 20.6999 7.52805 20.6925 7.49732 20.677L6.44829 20.1685C6.41082 20.1505 6.36848 20.1443 6.3272 20.1508C6.28591 20.1573 6.24776 20.1762 6.21808 20.2047C6.1884 20.2333 6.16867 20.2701 6.16167 20.3101C6.15467 20.3501 6.16073 20.3912 6.17902 20.4276Z" fill="black"/>
<path d="M34.852 19.3284H35.4113L34.6903 21.4518C34.6148 21.6811 34.4899 21.7802 34.3134 21.7802C34.137 21.7802 34.0121 21.6811 33.9259 21.4563L33.4903 20.2903L33.054 21.4563C32.9684 21.6804 32.8495 21.7802 32.6724 21.7802C32.4954 21.7802 32.3711 21.6811 32.2956 21.4518L31.58 19.3284H32.1606L32.7045 20.9348L33.1508 19.7689C33.2263 19.5707 33.3393 19.4871 33.501 19.4871C33.6627 19.4871 33.7756 19.5707 33.8504 19.7689L34.3028 20.9536L34.852 19.3284Z" fill="black"/>
<path d="M35.5657 21.3533C35.5755 21.3534 35.5853 21.3515 35.5944 21.3478C35.6034 21.3442 35.6116 21.3388 35.6185 21.3319C35.6255 21.3254 35.6311 21.3176 35.6349 21.3089C35.6387 21.3002 35.6406 21.2908 35.6405 21.2814C35.6407 21.2718 35.6388 21.2622 35.6351 21.2533C35.6313 21.2444 35.6256 21.2363 35.6185 21.2296C35.6118 21.2225 35.6036 21.2169 35.5945 21.2131C35.5854 21.2094 35.5756 21.2075 35.5657 21.2076C35.5558 21.2072 35.5459 21.209 35.5367 21.2128C35.5276 21.2166 35.5195 21.2223 35.5129 21.2296C35.5058 21.2363 35.5002 21.2444 35.4963 21.2533C35.4925 21.2622 35.4907 21.2718 35.4909 21.2814C35.4912 21.3005 35.4992 21.3187 35.5132 21.3321C35.5272 21.3455 35.546 21.3531 35.5657 21.3533ZM35.4114 21.5755V21.1305H35.5583C35.6023 21.1284 35.6453 21.1433 35.6779 21.1719C35.6931 21.1857 35.705 21.2025 35.7129 21.2212C35.7207 21.2399 35.7243 21.26 35.7234 21.2801C35.7237 21.308 35.7159 21.3355 35.7007 21.3592C35.6856 21.3829 35.6638 21.402 35.6379 21.4142L35.7428 21.5755H35.6486L35.5537 21.4304H35.4909V21.5755H35.4114ZM35.5544 21.6986C35.6164 21.6992 35.6774 21.6833 35.7308 21.6526C35.8104 21.6047 35.868 21.529 35.8915 21.441C35.9151 21.3531 35.9027 21.2597 35.857 21.1804C35.827 21.1285 35.7834 21.0851 35.7308 21.0547C35.6774 21.0241 35.6166 21.008 35.5547 21.008C35.4927 21.008 35.432 21.0241 35.3786 21.0547C35.3258 21.0848 35.2824 21.1282 35.253 21.1804C35.2228 21.2334 35.2069 21.293 35.2069 21.3536C35.2069 21.4142 35.2228 21.4739 35.253 21.5269C35.283 21.5788 35.3266 21.6221 35.3793 21.6526C35.4323 21.683 35.4928 21.6989 35.5544 21.6986ZM35.5544 21.7802C35.477 21.7797 35.4012 21.7596 35.3344 21.722C35.2676 21.6843 35.2121 21.6303 35.1735 21.5654C35.1348 21.5005 35.1144 21.4269 35.1141 21.352C35.1139 21.2771 35.1339 21.2034 35.1721 21.1383C35.2207 21.0565 35.2957 20.9926 35.3856 20.9565C35.4755 20.9205 35.5752 20.9142 35.6691 20.9387C35.763 20.9633 35.8459 21.0172 35.905 21.0922C35.964 21.1672 35.9957 21.259 35.9953 21.3533C35.9962 21.4097 35.9854 21.4656 35.9636 21.5178C35.9417 21.5701 35.9093 21.6175 35.8681 21.6573C35.827 21.6971 35.778 21.7285 35.7241 21.7496C35.6702 21.7708 35.6125 21.7811 35.5544 21.7802Z" fill="black"/>
</g>
</g>
<defs>
<clipPath id="clip0_89_25">
<rect width="40" height="40" fill="white"/>
</clipPath>
<clipPath id="clip1_89_25">
<rect width="32" height="5" fill="white" transform="translate(4 18)"/>
</clipPath>
</defs>
</svg>