<svg width="40" height="40" viewBox="0 0 40 40" fill="none" xmlns="http://www.w3.org/2000/svg">
<rect x="0.5" y="0.5" width="39" height="39" rx="3.5" fill="#FAFAFA"/>
<rect x="0.5" y="0.5" width="39" height="39" rx="3.5" stroke="#E6E6E6"/>
<rect x="7" y="7" width="26" height="26" rx="4" fill="#5B28FF"/>
<path d="M28.5898 20.0035V19.9969L28.5892 19.9965C28.5892 19.9334 28.5645 19.8726 28.5216 19.8281L23.0291 14.1808C23.007 14.1585 22.9777 14.1459 22.9472 14.1459H22.9121C22.8484 14.1459 22.7964 14.1994 22.7964 14.265V19.9965C22.7964 19.9334 22.7717 19.8726 22.7288 19.8281L17.2701 14.2157C17.2269 14.1712 17.1677 14.1459 17.1064 14.1459H17.0999C17.0385 14.1459 16.9793 14.1712 16.936 14.2157L11.4783 19.8284C11.4349 19.8729 11.4104 19.9338 11.4104 19.9969V20.0035C11.4104 20.0666 11.4349 20.1275 11.4783 20.172L16.9368 25.7843C16.9801 25.8288 17.0392 25.8541 17.1006 25.8541H17.1071C17.1684 25.8541 17.2276 25.8288 17.2709 25.7843L22.7294 20.172C22.773 20.1275 22.797 20.0666 22.797 20.0035V25.735C22.797 25.8007 22.849 25.8541 22.9134 25.8541H22.9478C22.9784 25.8541 23.0083 25.8415 23.0297 25.8192L28.5222 20.172C28.5651 20.1275 28.5898 20.0666 28.5898 20.0035Z" fill="white"/>
</svg>
