<svg width="32" height="32" viewBox="0 0 32 32" fill="none" xmlns="http://www.w3.org/2000/svg">
<rect x="0.4" y="0.4" width="31.2" height="31.2" rx="2.8" fill="#FAFAFA"/>
<rect x="0.4" y="0.4" width="31.2" height="31.2" rx="2.8" stroke="#E6E6E6" stroke-width="0.8"/>
<path d="M22.6134 8H8.85335C8.38207 8 8.00002 8.38205 8.00002 8.85333V10.4267C8.00002 10.8979 8.38207 11.28 8.85335 11.28H22.6134C23.0846 11.28 23.4667 10.8979 23.4667 10.4267V8.85333C23.4667 8.38205 23.0846 8 22.6134 8Z" fill="#00C3F7"/>
<path d="M23.4667 12.2396H8.85333C8.38205 12.2396 8 12.6216 8 13.0929V14.6663C8 15.1375 8.38205 15.5196 8.85333 15.5196H23.4667C23.9379 15.5196 24.32 15.1375 24.32 14.6663V13.0929C24.32 12.6216 23.9379 12.2396 23.4667 12.2396Z" fill="#00C3F7"/>
<path d="M22.6133 16.4826H8.85333C8.38205 16.4826 8 16.8647 8 17.336V18.9093C8 19.3806 8.38205 19.7626 8.85333 19.7626H22.6133C23.0846 19.7626 23.4667 19.3806 23.4667 18.9093V17.336C23.4667 16.8647 23.0846 16.4826 22.6133 16.4826Z" fill="#00C3F7"/>
<path d="M16.5867 20.7188H8.85333C8.38205 20.7188 8 21.1008 8 21.5721V23.1454C8 23.6167 8.38205 23.9987 8.85333 23.9987H16.5867C17.0579 23.9987 17.44 23.6167 17.44 23.1454V21.5721C17.44 21.1008 17.0579 20.7188 16.5867 20.7188Z" fill="#00C3F7"/>
</svg>