<svg width="40" height="40" viewBox="0 0 40 40" fill="none" xmlns="http://www.w3.org/2000/svg">
<rect x="0.5" y="0.5" width="39" height="39" rx="3.5" fill="#FAFAFA"/>
<rect x="0.5" y="0.5" width="39" height="39" rx="3.5" stroke="#E6E6E6"/>
<path d="M32 22.7279V8.01093L12.4799 8C11.2918 8 10.1523 8.47199 9.31213 9.31213C8.47199 10.1523 8 11.2918 8 12.4799V27.5295C8.00021 28.7175 8.47229 29.8568 9.31241 30.6967C10.1525 31.5367 11.2919 32.0086 12.4799 32.0086H19.3317C19.5102 32.0086 19.6814 31.9377 19.8076 31.8115C19.9338 31.6853 20.0047 31.5141 20.0047 31.3356V27.2078H27.5201C28.7082 27.2078 29.8477 26.7358 30.6879 25.8957C31.528 25.0555 32 23.9161 32 22.7279Z" fill="#DE481E"/>
</svg>