<svg width="40" height="40" viewBox="0 0 40 40" fill="none" xmlns="http://www.w3.org/2000/svg">
<rect x="0.5" y="0.5" width="39" height="39" rx="3.5" fill="#FAFAFA"/>
<rect x="0.5" y="0.5" width="39" height="39" rx="3.5" stroke="#E6E6E6"/>
<path d="M31.872 22.6924C33.4392 16.0555 29.3293 9.40482 22.6924 7.83764C16.0555 6.27045 9.40482 10.3803 7.83764 17.0172C6.27045 23.6541 10.3803 30.3048 17.0172 31.872C23.6541 33.4392 30.3048 29.3293 31.872 22.6924Z" fill="#5F259F"/>
<path d="M25.2197 17.064C25.2197 16.5949 24.8177 16.1925 24.3485 16.1925H22.7396L19.0535 11.9698C18.7181 11.5677 18.182 11.4336 17.6458 11.5677L16.3722 11.9698C16.171 12.0368 16.104 12.3051 16.2381 12.4389L20.26 16.2596H14.1605C13.9593 16.2596 13.8252 16.3937 13.8252 16.5949V17.2648C13.8252 17.7343 14.2276 18.1363 14.6967 18.1363H15.6349V21.3538C15.6349 23.7667 16.9085 25.1741 19.0535 25.1741C19.7235 25.1741 20.26 25.107 20.9299 24.8391V26.9838C20.9299 27.587 21.3994 28.0565 22.0027 28.0565H22.9409C23.1421 28.0565 23.3429 27.8553 23.3429 27.6541V18.0693H24.8848C25.086 18.0693 25.2197 17.9352 25.2197 17.7343V17.064H25.2197ZM20.9299 22.8281C20.5279 23.0293 19.9917 23.0964 19.5897 23.0964C18.517 23.0964 17.9808 22.5602 17.9808 21.3537V18.1363H20.9299V22.8281Z" fill="white"/>
</svg>
