<svg width="40" height="40" viewBox="0 0 40 40" fill="none" xmlns="http://www.w3.org/2000/svg">
<rect x="0.5" y="0.5" width="39" height="39" rx="3.5" fill="#FAFAFA"/>
<rect x="0.5" y="0.5" width="39" height="39" rx="3.5" stroke="#E6E6E6"/>
<path d="M17.643 7H19.6239C23.4156 7.50698 26.1599 9.21158 27.8569 12.1138C31.2312 17.8924 29.1639 24.6456 23.1712 27.6374C21.1994 28.621 20.0291 30.2239 19.7923 32.4187C19.7854 32.4876 19.7615 32.5538 19.7226 32.6118C19.6837 32.6697 19.6311 32.7176 19.5692 32.7512C19.0197 33.0547 18.4247 33.0805 17.7842 32.8286C17.6384 32.7709 17.558 32.6631 17.5428 32.5053C17.2741 29.6774 15.4891 28.0927 13.0301 27.0864C12.9442 27.0513 12.8755 26.9835 12.839 26.8975C12.8024 26.8116 12.8007 26.7142 12.8343 26.6264L12.8753 26.5217C12.8935 26.4771 12.9286 26.4415 12.973 26.4227C13.0174 26.4039 13.0674 26.4035 13.1121 26.4215C17.3925 28.1793 21.9872 26.968 24.6694 23.2248C27.7795 18.8806 26.5227 13.0291 22.2832 10.0692C19.5723 8.17182 16.4803 7.88038 13.0073 9.19488C12.9223 9.22828 12.8647 9.20095 12.8343 9.11292L12.7979 9.00363C12.7749 8.93293 12.7773 8.85629 12.8047 8.78662C12.832 8.71695 12.8827 8.6585 12.9481 8.62112C14.381 7.79842 15.946 7.25804 17.643 7Z" fill="#333333"/>
<path d="M14.1685 21.7221C15.2978 22.9273 16.8446 23.5056 18.8087 23.4571C18.8328 23.4567 18.8566 23.4617 18.8785 23.4716C18.9004 23.4815 18.9199 23.496 18.9355 23.5143C18.9511 23.5325 18.9626 23.554 18.969 23.5772C18.9754 23.6003 18.9767 23.6246 18.9727 23.6483L18.9545 23.7713C18.9211 23.9747 18.8027 24.09 18.5993 24.1173C15.7077 24.4953 12.9891 24.131 11.1995 21.6219C9.62848 19.4179 9.58294 16.203 11.1676 14.0218C12.7887 11.7996 15.1961 10.9253 18.3898 11.3989C18.6387 11.4353 18.8315 11.5552 18.9681 11.7586C19.0865 11.9316 19.041 12.0303 18.8315 12.0546C17.9344 12.1548 17.0146 12.1138 16.1676 12.4781C12.3926 14.1129 11.3133 18.6848 14.1685 21.7221Z" fill="#333333"/>
</svg>
