<svg width="40" height="40" viewBox="0 0 40 40" fill="none" xmlns="http://www.w3.org/2000/svg">
<rect x="0.5" y="0.5" width="39" height="39" rx="3.5" fill="#FAFAFA"/>
<rect x="0.5" y="0.5" width="39" height="39" rx="3.5" stroke="#E6E6E6"/>
<path fill-rule="evenodd" clip-rule="evenodd" d="M17.1458 19.3145H22.847V19.3125C24.243 19.3125 25.5474 18.1604 25.7325 16.7658L25.9862 15.072C26.302 13.3724 25.1896 12.3374 23.7936 12.3374H18.1917L17.1458 19.3145ZM16.1191 26.1688L14.9494 34C14.8731 33.974 8 34 8 34L12.1794 6.01938H25.6363C30.2188 6.01938 33.4409 9.71379 32.8341 14.2925L32.3106 17.7991C31.7029 22.3781 27.4227 26.1688 22.8402 26.1688H16.1191Z" fill="#231F20"/>
<path d="M17.5618 33.9999L17.6777 28.8555H32.1068L32 32C32 33.5 31.5 34 31.5 34L17.5618 33.9999Z" fill="#EE7623"/>
</svg>
