<svg xmlns="http://www.w3.org/2000/svg" version="1.1" viewBox="0 0 1440 1084" width="1280" height="1280">
<path transform="translate(0)" d="m0 0h1440v1084h-1440z" fill="#FAFAFB"/>
<path transform="translate(1084,128)" d="m0 0h2l-1 7-15 57-10 37-9 35-7 25-10 38-12 45-9 33-19 70-16 60-10 37-10 38-12 44-13 49-9 33-10 38-10 37-10 38-14 52-9 34-17 62-6 19-1 1h-162l8-29 15-56 22-82 19-70 14-53 20-75 11-40 22-84 9-33 11-41 9-32 2-10-8 4-18 12-14 9-12 8-11 7-26 17-17 11-19 12-29 19-20 13-19 12-23 15-26 16-4 2 1-8 12-43 19-70 8-30 4-6 27-18 22-14 68-44 23-15 11-7 23-15 14-9 20-13 11-7 19-12 32-21 19-12 15-10 14-9 20-13 17-11 26-17 19-12 18-12z" fill="#3194FE"/>
<path transform="translate(776,503)" d="m0 0 1 2-5 19-3 12-9 33-11 42-15 56-16 61-14 52-22 84-24 90-11 42-5 20-1 1-58 1h-174l-102-1 2-10 12-45 15-56 11-41 19-72 7-28 7-6 14-9 40-26 25-16 15-10 25-16 22-14 18-12 23-15 20-13 22-14 20-13 25-16 15-10 34-22 14-9 26-17 31-20z" fill="#072553"/>
</svg>