<svg width="40" height="40" viewBox="0 0 40 40" fill="none" xmlns="http://www.w3.org/2000/svg">
<rect x="0.5" y="0.5" width="39" height="39" rx="3.5" fill="#FAFAFA"/>
<rect x="0.5" y="0.5" width="39" height="39" rx="3.5" stroke="#E6E6E6"/>
<path d="M18.9677 17.8499C19.1172 17.8334 19.3279 17.8433 19.4809 17.8431L20.3975 17.8427L21.4696 17.843C21.8414 17.8433 22.4369 17.8073 22.757 18.0279C22.9211 18.1409 22.9604 18.4105 22.9714 18.5948C22.9969 19.0231 22.9793 19.4641 22.9849 19.8939C22.9714 20.2956 23.0134 20.7097 22.953 21.1081C22.8815 21.5787 22.54 21.636 22.1328 21.6663C21.0821 21.701 19.9863 21.6599 18.9332 21.6637C18.4039 21.6472 18.1159 21.4679 18.1003 20.9308C18.0772 20.1297 18.0676 19.3188 18.106 18.5212C18.1325 17.9722 18.4767 17.8951 18.9677 17.8499ZM19.1626 18.6271C19.1529 18.8252 19.1499 19.0398 19.1545 19.2385C19.1668 19.7718 19.1351 20.3237 19.1623 20.8555C19.3589 20.8818 19.8292 20.8707 20.05 20.8707L21.6787 20.8697C21.7517 20.8696 21.825 20.8756 21.8912 20.8478C21.9447 20.7892 21.9328 18.871 21.9174 18.6514C21.9169 18.6455 21.9163 18.6395 21.9157 18.6336C21.6938 18.606 21.2474 18.618 21.006 18.618L19.4333 18.619L19.1626 18.6271Z" fill="#1A3F51"/>
<path d="M32.1299 17.8409C32.8337 17.8699 33.5756 17.8248 34.2595 17.8473C35.0299 17.8728 36.0791 17.6276 35.9699 18.7186C35.9254 19.1651 36.1103 19.426 35.6072 19.6824C36.1404 19.9621 35.9486 20.296 35.9925 20.7803C36.0826 21.7748 35.2429 21.6783 34.5151 21.6774L33.4691 21.6765L29.8125 21.676C29.8967 21.4979 30.1252 21.1278 30.2402 20.958C30.2525 20.938 30.2924 20.8789 30.3185 20.8776C30.6241 20.8625 30.9376 20.8749 31.2437 20.8747L33.5857 20.8745C34.0043 20.8744 34.501 20.8856 34.9143 20.8668C34.9191 20.7635 34.9304 20.1586 34.8929 20.0995C34.7352 20.0504 33.0677 20.0755 32.7677 20.0684C32.8445 19.888 33.0535 19.46 33.1784 19.3224C33.5109 19.3308 33.8601 19.326 34.1931 19.3277C34.3431 19.3284 34.7633 19.338 34.8926 19.3039C34.9296 19.2509 34.9312 18.6753 34.8852 18.624C34.7928 18.5704 32.0284 18.6 31.6643 18.6002C31.7173 18.468 32.0271 17.918 32.1299 17.8409Z" fill="#1F87B9"/>
<path d="M8.69336 17.8403C9.18217 17.8526 9.69565 17.8452 10.1859 17.8451L12.7533 17.8455C12.9293 18.073 13.0668 18.3696 13.2323 18.6094C12.8503 18.5982 12.4142 18.6081 12.0287 18.6081L9.77023 18.6106L9.77267 19.3251C10.4601 19.3146 11.1632 19.3271 11.8534 19.3218C11.8429 19.5514 11.8502 19.8389 11.8505 20.073C11.664 20.0627 11.4052 20.0691 11.2134 20.0689L9.99774 20.0705L9.77181 20.0695L9.77212 20.8746C10.8081 20.8616 11.8701 20.8741 12.9086 20.8743C13.0714 21.1507 13.2415 21.3827 13.3867 21.6778C12.3188 21.6364 11.2015 21.698 10.1286 21.6741C9.67569 21.6641 9.1443 21.6591 8.69408 21.6803C8.69824 21.4988 8.69831 21.3135 8.69718 21.132C8.69036 20.0355 8.7084 18.9365 8.69336 17.8403Z" fill="#1A3F51"/>
<path d="M30.3253 17.8403C30.5459 17.8617 31.281 17.852 31.5189 17.8442C31.4056 18.065 31.1531 18.4887 31.0185 18.6945C30.4089 19.6784 29.8295 20.6889 29.2211 21.6727C28.9825 21.6842 28.7293 21.6795 28.4892 21.6788C28.0792 21.0129 27.6704 20.3227 27.2726 19.6492C26.9297 19.0691 26.5024 18.4353 26.1855 17.8468C26.5935 17.8503 27.0015 17.8508 27.4095 17.8482C27.5638 18.0787 27.6961 18.3263 27.8384 18.5638C28.2028 19.1713 28.5329 19.8091 28.8822 20.4219C28.9899 20.1415 29.3515 19.6467 29.5062 19.3555C29.774 18.8509 30.0448 18.3379 30.3253 17.8403Z" fill="#1A3F51"/>
<path d="M23.4121 17.8404C23.7719 17.8474 24.1319 17.8474 24.4917 17.8403C24.4751 18.8339 24.4906 19.8702 24.4909 20.8671C25.4226 20.8436 26.4567 20.8651 27.3979 20.8648C27.4781 20.9738 27.8639 21.5712 27.8921 21.6744L24.9152 21.6739C24.4407 21.6739 23.8799 21.6614 23.4121 21.6803C23.4367 20.4272 23.4137 19.1007 23.4121 17.8404Z" fill="#1A3F51"/>
<path d="M9.10775 21.8931L9.11993 21.9047C9.10994 21.9762 9.10093 22.0478 9.09293 22.1195C9.015 22.8081 8.88607 23.6925 9.32271 24.2839C9.80666 24.9395 10.7417 24.564 11.3202 24.273C11.9318 23.9652 12.4644 23.5579 12.9909 23.1122C13.2635 22.8816 13.5072 22.6124 13.7781 22.3821C13.9355 22.6407 14.0973 22.9375 14.23 23.2136C14.2514 23.258 14.2344 23.2785 14.2174 23.3185C14.1407 23.3695 14.0058 23.4984 13.9288 23.5645C13.7987 23.6744 13.6659 23.7809 13.5307 23.8838C12.5113 24.675 10.5135 25.8985 9.25653 24.9773C8.47755 24.4064 8.64263 23.0684 8.94494 22.2662C8.98687 22.155 9.04002 21.9912 9.10775 21.8931Z" fill="#1A3F51"/>
<path d="M12.959 17.8456C13.2674 17.8692 13.8724 17.8103 14.1196 17.8631C14.1227 17.8637 14.1258 17.8645 14.1289 17.8651C14.1354 17.8665 14.142 17.8674 14.1484 17.8695C14.2792 17.9114 15.3708 19.9249 15.519 20.2106C15.3901 20.3575 15.2869 20.5034 15.173 20.6606C15.0679 20.7722 14.9487 20.9217 14.8508 21.0403C14.3354 20.1561 13.776 19.2753 13.2642 18.3877C13.2016 18.2793 12.9861 17.9489 12.959 17.8456Z" fill="#1F87B9"/>
<path d="M4 17.8415L6.3967 17.8421C6.72542 17.842 7.05849 17.8373 7.38513 17.8437C7.85793 17.853 8.29884 17.9078 8.33602 18.4544C8.35842 18.7837 8.34872 19.104 8.34978 19.4339C8.35642 20.1478 8.06265 20.2539 7.41516 20.2964C7.73604 20.6299 8.02822 20.9788 8.34723 21.313C8.44644 21.4169 8.59126 21.5907 8.69331 21.6786C8.26847 21.6586 7.81314 21.69 7.38955 21.6745C7.25835 21.5386 7.14199 21.3983 7.01958 21.2551C6.74689 20.9362 6.44259 20.6269 6.19341 20.2902C5.80947 20.2879 5.42551 20.2886 5.04157 20.2921L5.04389 21.1959C5.0439 21.3325 5.03738 21.5508 5.0468 21.6803C4.71681 21.6662 4.33396 21.6748 4 21.6751V17.8415ZM5.04188 18.5998L5.04374 19.5321L6.99429 19.5325L7.27639 19.5248C7.29676 19.3363 7.30255 18.8047 7.27858 18.6071C7.07458 18.5861 6.77547 18.5948 6.5643 18.595L5.38908 18.5959L5.04188 18.5998Z" fill="#1A3F51"/>
<path d="M16.4422 14H17.0527C17.1286 14.0278 17.2255 14.0481 17.3056 14.0706C18.3307 14.359 18.6073 15.5346 18.4752 16.4867C18.2205 18.3222 17.1819 20.0475 16.0547 21.4794C15.9886 21.5634 15.543 22.1137 15.479 22.1066C15.3646 21.9666 15.0239 21.3593 14.9266 21.1776C15.9122 19.8815 16.7999 18.71 17.2943 17.1403C18.5862 13.0391 14.4588 15.3126 12.9707 16.5045C12.6273 16.7795 12.2356 17.0994 11.8926 17.3814C11.9828 17.2295 12.2156 16.9516 12.3333 16.8061C13.195 15.7415 14.3237 14.7765 15.5885 14.238C15.9098 14.1012 16.1339 14.0907 16.4422 14Z" fill="#1F87B9"/>
</svg>
