<svg width="30" height="30" viewBox="0 0 49 38" fill="none" xmlns="http://www.w3.org/2000/svg">
<rect x="0.5" y="0.5" width="39" height="39" rx="3.5" fill="#FAFAFA"/>
<rect x="0.5" y="0.5" width="39" height="39" rx="3.5" stroke="#E6E6E6"/>
<g clip-path="url(#clip0_1207_702)">
<path d="M8.28578 21.9054L11.1705 18.5846L9.9869 17.5568L6.07434 22.0612C6.3888 22.3326 6.79785 22.4685 7.21219 22.4393C7.62653 22.4101 8.01249 22.2182 8.28578 21.9054Z" fill="#00BEA6"/>
<path d="M5.65268 21.7024L6.86632 20.3058C6.49011 19.9671 5.99706 19.7877 5.49114 19.8055C5.24499 19.817 5.00383 19.8789 4.78255 19.9874C4.56126 20.0958 4.36456 20.2484 4.20459 20.4359L5.65268 21.7024Z" fill="#5A4CFF"/>
<path d="M15.5991 19.058V22.1H16.3996V19.058H15.5991Z" fill="white"/>
<path d="M17.8607 19.8951C17.8607 19.725 18.0508 19.5921 18.3396 19.5921C18.6201 19.5925 18.8934 19.6805 19.1215 19.8436L19.5203 19.3676C19.1775 19.1136 18.7605 18.9795 18.3339 18.9859C17.5333 18.9859 17.0873 19.4334 17.0873 19.9437C17.0873 21.1402 18.8942 20.7299 18.8942 21.2303C18.8942 21.419 18.7313 21.5576 18.3839 21.5576C18.0688 21.5437 17.7632 21.4455 17.499 21.2731L17.0702 21.7735C17.4406 22.0427 17.8889 22.1838 18.3467 22.1752C19.1901 22.1752 19.6633 21.7463 19.6633 21.1988C19.6633 19.9709 17.8607 20.3483 17.8607 19.8951Z" fill="white"/>
<path d="M23.806 19.058V22.1H24.6066V19.058H23.806Z" fill="white"/>
<path d="M32.0071 20.6578C32.0071 19.6571 31.3896 18.9824 30.4832 18.9824C30.2739 18.979 30.0662 19.0181 29.8725 19.0973C29.6787 19.1764 29.503 19.2941 29.3562 19.4431C29.2091 19.592 29.0939 19.7693 29.0173 19.964C28.9407 20.1588 28.9046 20.3671 28.9107 20.5763C28.9107 21.5526 29.6098 22.1759 30.5362 22.1759C30.9889 22.1901 31.4321 22.042 31.7855 21.7585L31.2937 21.3468C31.0909 21.4674 30.8605 21.5339 30.6248 21.5398C30.1087 21.5398 29.7984 21.2181 29.7484 20.835H32.0098L32.0071 20.6578ZM29.7327 20.2932C29.7475 20.1061 29.8339 19.9318 29.9734 19.8062C30.113 19.6807 30.2955 19.6135 30.4832 19.6185C30.5768 19.6125 30.6709 19.6253 30.7596 19.6562C30.8482 19.6871 30.93 19.7353 30.9998 19.7982C31.0696 19.861 31.1262 19.9372 31.1659 20.0222C31.2059 20.1072 31.2284 20.1994 31.2323 20.2932H29.7327Z" fill="white"/>
<path d="M28.3389 19.058H27.5385V22.1H28.3389V19.058Z" fill="white"/>
<path d="M26.971 17.8254V18.5244C26.971 18.5244 26.5135 18.493 26.3763 18.583C26.3284 18.625 26.2916 18.6781 26.2692 18.7377C26.2467 18.7973 26.2393 18.8615 26.2476 18.9247V19.0576H26.9724V19.7581H26.2476V22.0996H25.4399V18.9247C25.4399 18.2871 25.8402 17.854 26.4048 17.8254H26.971Z" fill="white"/>
<path d="M22.3407 22.1002L21.4573 20.918L21.0827 21.3125V22.1002H20.2822V18.3234H21.0827V20.3976L22.2264 19.0568H23.217L22.0277 20.4234L23.2799 22.1002H22.3407Z" fill="white"/>
<path d="M15.5991 19.058V22.1H16.3996V19.058H15.5991Z" fill="#080E3F"/>
<path d="M17.8607 19.8951C17.8607 19.725 18.0508 19.5921 18.3396 19.5921C18.6201 19.5925 18.8934 19.6805 19.1215 19.8436L19.5203 19.3676C19.1775 19.1136 18.7605 18.9795 18.3339 18.9859C17.5333 18.9859 17.0873 19.4334 17.0873 19.9437C17.0873 21.1402 18.8942 20.7299 18.8942 21.2303C18.8942 21.419 18.7313 21.5576 18.3839 21.5576C18.0688 21.5437 17.7632 21.4455 17.499 21.2731L17.0702 21.7735C17.4406 22.0427 17.8889 22.1838 18.3467 22.1752C19.1901 22.1752 19.6633 21.7463 19.6633 21.1988C19.6633 19.9709 17.8607 20.3483 17.8607 19.8951Z" fill="#080E3F"/>
<path d="M23.806 19.058V22.1H24.6066V19.058H23.806Z" fill="#080E3F"/>
<path d="M32.0071 20.6578C32.0071 19.6571 31.3896 18.9824 30.4832 18.9824C30.2739 18.979 30.0662 19.0181 29.8725 19.0973C29.6787 19.1764 29.503 19.2941 29.3562 19.4431C29.2091 19.592 29.0939 19.7693 29.0173 19.964C28.9407 20.1588 28.9046 20.3671 28.9107 20.5763C28.9107 21.5526 29.6098 22.1759 30.5362 22.1759C30.9889 22.1901 31.4321 22.042 31.7855 21.7585L31.2937 21.3468C31.0909 21.4674 30.8605 21.5339 30.6248 21.5398C30.1087 21.5398 29.7984 21.2181 29.7484 20.835H32.0098L32.0071 20.6578ZM29.7327 20.2932C29.7475 20.1061 29.8339 19.9318 29.9734 19.8062C30.113 19.6807 30.2955 19.6135 30.4832 19.6185C30.5768 19.6125 30.6709 19.6253 30.7596 19.6562C30.8482 19.6871 30.93 19.7353 30.9998 19.7982C31.0696 19.861 31.1262 19.9372 31.1659 20.0222C31.2059 20.1072 31.2284 20.1994 31.2323 20.2932H29.7327Z" fill="#080E3F"/>
<path d="M28.3389 19.058H27.5385V22.1H28.3389V19.058Z" fill="#080E3F"/>
<path d="M26.971 17.8254V18.5244C26.971 18.5244 26.5135 18.493 26.3763 18.583C26.3284 18.625 26.2916 18.6781 26.2692 18.7377C26.2467 18.7973 26.2393 18.8615 26.2476 18.9247V19.0576H26.9724V19.7581H26.2476V22.0996H25.4399V18.9247C25.4399 18.2871 25.8402 17.854 26.4048 17.8254H26.971Z" fill="#080E3F"/>
<path d="M22.3407 22.1002L21.4573 20.918L21.0827 21.3125V22.1002H20.2822V18.3234H21.0827V20.3976L22.2264 19.0568H23.217L22.0277 20.4234L23.2799 22.1002H22.3407Z" fill="#080E3F"/>
<path d="M35.6194 20.5801V17.824C35.4072 17.824 35.2035 17.9084 35.0533 18.0585C34.9033 18.2086 34.819 18.4122 34.819 18.6246L34.8017 19.1964C34.5647 19.0597 34.2962 18.9873 34.0226 18.9862C33.7097 18.9862 33.4037 19.0782 33.1426 19.2507C32.8817 19.4233 32.6772 19.6688 32.5547 19.9567C32.4319 20.2446 32.3967 20.5622 32.4533 20.87C32.5099 21.1777 32.6558 21.4621 32.8728 21.6876C33.0897 21.9131 33.3681 22.0698 33.6735 22.1382C33.9787 22.2067 34.2976 22.1838 34.5901 22.0725C34.8824 21.9612 35.1358 21.7663 35.3183 21.5121C35.5008 21.2579 35.6044 20.9557 35.6165 20.643V20.5801H35.6194ZM34.0226 21.4478C33.851 21.4478 33.6833 21.3969 33.5406 21.3016C33.3978 21.2062 33.2867 21.0707 33.221 20.9122C33.1553 20.7536 33.1381 20.5792 33.1717 20.4108C33.2051 20.2425 33.2878 20.0879 33.4092 19.9666C33.5306 19.8452 33.6851 19.7626 33.8533 19.7291C34.0217 19.6956 34.1962 19.7128 34.3547 19.7785C34.5133 19.8441 34.6487 19.9554 34.7442 20.098C34.8394 20.2407 34.8903 20.4085 34.8903 20.5801C34.8906 20.6941 34.8683 20.807 34.8247 20.9124C34.7812 21.0178 34.7172 21.1135 34.6367 21.1941C34.556 21.2747 34.4603 21.3386 34.3549 21.3822C34.2497 21.4257 34.1367 21.448 34.0226 21.4478Z" fill="#080E3F"/>
<path d="M12.9731 19.8572V22.103H13.7737V19.0567C13.5613 19.0567 13.3577 19.141 13.2076 19.2912C13.0575 19.4413 12.9731 19.6449 12.9731 19.8572Z" fill="#080E3F"/>
<path d="M14.0581 19.0567V20.0016C14.3152 20.0044 14.5634 19.9082 14.7514 19.7329C14.8428 19.6457 14.9154 19.5408 14.9646 19.4245C15.0137 19.3081 15.0385 19.183 15.0373 19.0567H14.0581Z" fill="#080E3F"/>
</g>
<defs>
<clipPath id="clip0_1207_702">
<rect width="31.5909" height="5" fill="white" transform="translate(4.20459 17.5)"/>
</clipPath>
</defs>
</svg>
