<svg width="40" height="40" viewBox="0 0 40 40" fill="none" xmlns="http://www.w3.org/2000/svg">
<rect x="0.5" y="0.5" width="39" height="39" rx="3.5" fill="#FAFAFA"/>
<rect x="0.5" y="0.5" width="39" height="39" rx="3.5" stroke="#E6E6E6"/>
<path d="M25.142 16.3135C25.6378 17.119 25.8857 18.0484 25.9476 18.9778C30.5333 20.1551 33.6316 22.6956 33.5697 25.4839C33.5697 29.5734 27.4968 32.8574 19.9987 32.8574C12.5006 32.8574 6.42773 29.5734 6.42773 25.4839C6.42773 22.5716 9.5881 20.0312 14.1118 18.8539C14.1118 19.9692 14.3596 21.0845 14.9173 22.0759L19.1931 29.4494C19.503 30.0071 19.7508 30.6267 19.8748 31.2463L20.0607 30.9365C21.1141 29.1396 21.1141 26.847 20.0607 25.0501L16.6524 19.1637C15.599 17.3049 15.599 15.0742 16.6524 13.2773L16.8383 12.9675C16.9623 13.5871 17.2102 14.2067 17.52 14.7644L19.503 18.2343L22.6014 23.625C22.9112 24.1827 23.1591 24.8023 23.283 25.4219L23.4689 25.1121C24.5224 23.3152 24.5224 21.0226 23.4689 19.2257L20.0607 13.3393C19.0072 11.5424 19.0072 9.24978 20.0607 7.45288L20.2466 7.14307C20.3705 7.76269 20.6184 8.38231 20.9282 8.93997L25.142 16.3135Z" fill="#EA1D25"/>
</svg>
