<svg width="40" height="40" viewBox="0 0 40 40" fill="none" xmlns="http://www.w3.org/2000/svg">
<rect x="0.5" y="0.5" width="39" height="39" rx="3.5" fill="#FAFAFA"/>
<rect x="0.5" y="0.5" width="39" height="39" rx="3.5" stroke="#E6E6E6"/>
<g clip-path="url(#clip0_993_697)">
<path d="M22.9659 12.6914C22.9653 12.6134 22.8912 12.4958 22.8112 12.4925C22.4806 12.4769 22.1491 12.4713 21.8167 12.4756C21.6042 12.4782 21.5606 12.527 21.4404 12.6817C19.07 15.7224 16.704 18.7576 14.3424 21.7875C14.3129 21.825 14.2969 21.871 14.2969 21.9182C14.2951 22.2843 14.2956 22.6566 14.2982 23.0349C14.2988 23.1343 14.4347 23.2032 14.5361 23.2032C16.6607 23.198 18.7853 23.1982 20.91 23.2039C21.0653 23.2045 21.1498 23.2968 21.1505 23.4541C21.1574 24.654 21.1587 25.8539 21.1544 27.0538C21.1544 27.2222 21.2142 27.3762 21.3975 27.3769C21.8169 27.3782 22.236 27.3779 22.6546 27.3762C22.8288 27.3756 22.9737 27.3275 22.9737 27.1338C22.9742 22.3194 22.9716 17.5053 22.9659 12.6914Z" stroke="#89B7FB" stroke-width="2"/>
<path d="M21.1212 16.0747C20.9366 15.8335 20.7943 16.009 20.6623 16.1774C19.3632 17.8357 18.0636 19.4939 16.7636 21.1518C16.6434 21.3046 16.6518 21.5581 16.8839 21.5587C18.219 21.5609 19.5541 21.5609 20.8892 21.5587C20.9932 21.5587 21.1531 21.4996 21.1531 21.3936C21.1544 19.6642 21.1544 17.935 21.1531 16.206C21.1531 16.1457 21.1424 16.102 21.1212 16.0747Z" stroke="#89B7FB" stroke-width="2"/>
<path d="M19.5658 7H20.4433C23.5473 7.1521 26.2467 8.22373 28.5417 10.2149C33.9321 14.8929 34.4937 23.1688 29.7864 28.5234C24.7054 34.3026 15.6964 34.5353 10.447 28.7971C8.30065 26.4515 7.15167 23.6537 7 20.4037V19.5885C7.17767 16.0252 8.51515 13.0342 11.0125 10.6153C13.3206 8.37865 16.3399 7.14495 19.5658 7ZM22.966 12.6914C22.9653 12.6134 22.8912 12.4957 22.8113 12.4925C22.4806 12.4769 22.1491 12.4713 21.8168 12.4756C21.6042 12.4782 21.5607 12.5269 21.4404 12.6817C19.0701 15.7224 16.7041 18.7576 14.3424 21.7875C14.3129 21.825 14.2969 21.871 14.2969 21.9181C14.2952 22.2843 14.2956 22.6565 14.2982 23.0348C14.2989 23.1343 14.4347 23.2032 14.5361 23.2032C16.6607 23.198 18.7854 23.1982 20.91 23.2038C21.0654 23.2045 21.1499 23.2968 21.1505 23.4541C21.1574 24.654 21.1587 25.8539 21.1544 27.0538C21.1544 27.2221 21.2142 27.3762 21.3975 27.3768C21.817 27.3781 22.236 27.3779 22.6546 27.3762C22.8288 27.3755 22.9738 27.3274 22.9738 27.1337C22.9742 22.3194 22.9716 17.5053 22.966 12.6914Z" fill="#136EF6"/>
<path d="M22.8112 12.4925C22.8912 12.4958 22.9653 12.6134 22.9659 12.6914C22.9716 17.5053 22.9742 22.3194 22.9737 27.1338C22.9737 27.3275 22.8288 27.3756 22.6546 27.3762C22.236 27.3779 21.8169 27.3782 21.3975 27.3769C21.2142 27.3762 21.1544 27.2222 21.1544 27.0538C21.1587 25.8539 21.1574 24.654 21.1505 23.4541C21.1498 23.2968 21.0653 23.2045 20.91 23.2039C18.7853 23.1982 16.6607 23.198 14.5361 23.2032C14.4347 23.2032 14.2988 23.1343 14.2982 23.0349C14.2956 22.6566 14.2951 22.2843 14.2969 21.9182C14.2969 21.871 14.3129 21.825 14.3424 21.7875C16.704 18.7576 19.07 15.7224 21.4404 12.6817C21.5606 12.527 21.6042 12.4782 21.8167 12.4756C22.1491 12.4713 22.4806 12.4769 22.8112 12.4925ZM21.1212 16.0747C20.9366 15.8335 20.7943 16.009 20.6623 16.1774C19.3632 17.8357 18.0636 19.4939 16.7636 21.1518C16.6434 21.3046 16.6518 21.5581 16.8839 21.5587C18.219 21.5609 19.5541 21.5609 20.8892 21.5587C20.9932 21.5587 21.1531 21.4996 21.1531 21.3936C21.1544 19.6642 21.1544 17.935 21.1531 16.206C21.1531 16.1457 21.1425 16.102 21.1212 16.0747Z" fill="white"/>
<path d="M20.6624 16.1773C20.7943 16.009 20.9367 15.8335 21.1213 16.0746C21.1425 16.1019 21.1531 16.1457 21.1531 16.2059C21.1544 17.9349 21.1544 19.6642 21.1531 21.3936C21.1531 21.4995 20.9932 21.5587 20.8892 21.5587C19.5541 21.5609 18.219 21.5609 16.8839 21.5587C16.6519 21.558 16.6434 21.3045 16.7637 21.1518C18.0637 19.4939 19.3632 17.8357 20.6624 16.1773Z" fill="#136EF6"/>
</g>
<defs>
<clipPath id="clip0_993_697">
<rect width="26" height="26" fill="white" transform="translate(7 7)"/>
</clipPath>
</defs>
</svg>
