<svg width="40" height="40" viewBox="0 0 40 40" fill="none" xmlns="http://www.w3.org/2000/svg">
<g clip-path="url(#clip0_20_72)">
<path d="M36 0.5H4C2.067 0.5 0.5 2.067 0.5 4V36C0.5 37.933 2.067 39.5 4 39.5H36C37.933 39.5 39.5 37.933 39.5 36V4C39.5 2.067 37.933 0.5 36 0.5Z" fill="#FAFAFA"/>
<path d="M36 0.5H4C2.067 0.5 0.5 2.067 0.5 4V36C0.5 37.933 2.067 39.5 4 39.5H36C37.933 39.5 39.5 37.933 39.5 36V4C39.5 2.067 37.933 0.5 36 0.5Z" stroke="#E6E6E6"/>
<path d="M21.6094 15.1063C21.1654 12.8779 19.34 10 14.5791 10C10.8707 10 7.74195 12.6724 7.74195 16.167C7.74195 19.1271 9.76472 21.1499 12.8893 21.783L15.6316 22.334C17.1528 22.6382 18.012 23.5262 18.012 24.661C18.012 26.0424 16.8773 27.0661 14.8299 27.0661C12.0588 27.0661 10.7185 25.3229 10.5377 23.3659L6.9978 24.3238C7.30204 27.1195 9.59616 30.4662 14.8093 30.4662C19.377 30.4662 21.8931 27.4238 21.8931 24.4061C21.8931 21.6392 19.9855 19.3121 16.4127 18.6214L13.6746 18.0952C12.2356 17.8197 11.5449 16.9605 11.5449 15.8833C11.5449 14.58 12.7783 13.3918 14.6161 13.3918C17.1075 13.3918 17.9915 15.0775 18.1847 16.1588L21.6094 15.1063Z" fill="#0E3D61"/>
<path d="M31.8386 13.3574C32.2292 13.3451 32.6239 13.3944 33.0021 13.4972V10.3973C32.4142 10.1999 31.7975 10.1054 31.1767 10.1177C28.159 10.1177 26.2226 12.1117 26.2226 15.1829V16.7328H23.9531V19.8903H26.2226V30.3495H29.9228V19.8903H32.998V16.7328H29.9228V15.2322C29.9228 13.7069 31.0287 13.3492 31.8304 13.3492" fill="#0E3D61"/>
</g>
<defs>
<clipPath id="clip0_20_72">
<rect width="40" height="40" fill="white"/>
</clipPath>
</defs>
</svg>
