<svg width="40" height="40" viewBox="0 0 40 40" fill="none" xmlns="http://www.w3.org/2000/svg">
<g clip-path="url(#clip0_13_25)">
<path d="M36 0.5H4C2.067 0.5 0.5 2.067 0.5 4V36C0.5 37.933 2.067 39.5 4 39.5H36C37.933 39.5 39.5 37.933 39.5 36V4C39.5 2.067 37.933 0.5 36 0.5Z" fill="#FAFAFA"/>
<path d="M36 0.5H4C2.067 0.5 0.5 2.067 0.5 4V36C0.5 37.933 2.067 39.5 4 39.5H36C37.933 39.5 39.5 37.933 39.5 36V4C39.5 2.067 37.933 0.5 36 0.5Z" stroke="#E6E6E6"/>
<path d="M28.6553 7H11.3447C8.9449 7 7 8.9449 7 11.3447V28.6553C7 31.0551 8.9449 33 11.3447 33H28.6553C31.0551 33 33 31.0551 33 28.6553V11.3447C33 8.9449 31.0551 7 28.6553 7ZM28.2737 26.9013C28.2737 27.6593 27.6593 28.2737 26.9013 28.2737H13.0987C12.3406 28.2737 11.7263 27.6593 11.7263 26.9013V13.0987C11.7263 12.3406 12.3406 11.7263 13.0987 11.7263H26.9013C27.6593 11.7263 28.2737 12.3406 28.2737 13.0987V26.9013ZM17.2421 23.529C16.8056 23.529 16.4552 23.1761 16.4552 22.7396V17.229C16.4552 16.7925 16.8055 16.437 17.2421 16.437H22.7605C23.1945 16.437 23.5474 16.7899 23.5474 17.229V22.737C23.5474 23.1735 23.1945 23.5264 22.7605 23.5264H17.2421V23.529Z" fill="black"/>
</g>
<defs>
<clipPath id="clip0_13_25">
<rect width="40" height="40" fill="white"/>
</clipPath>
</defs>
</svg>
