<svg width="40" height="40" viewBox="0 0 40 40" fill="none" xmlns="http://www.w3.org/2000/svg">
<rect x="0.5" y="0.5" width="39" height="39" rx="3.5" fill="#FAFAFA"/>
<rect x="0.5" y="0.5" width="39" height="39" rx="3.5" stroke="#E6E6E6"/>
<g clip-path="url(#clip0_37_78)">
<path d="M32.9653 25.4725C32.948 25.4198 32.9133 25.3846 32.8787 25.3495C32.844 25.3143 32.8093 25.2791 32.7573 25.2615C32.7053 25.244 32.6707 25.2264 32.6187 25.2264C32.5667 25.2264 32.5147 25.2264 32.48 25.2615C32.428 25.2791 32.3933 25.3143 32.3587 25.3495C32.324 25.3846 32.2893 25.4198 32.272 25.4725C32.2547 25.5253 32.2373 25.5604 32.2373 25.6132C32.2373 25.6659 32.2373 25.7187 32.272 25.7538C32.2893 25.8066 32.324 25.8418 32.3587 25.8769C32.3933 25.9121 32.428 25.9473 32.48 25.9648C32.532 25.9824 32.5667 26 32.6187 26C32.6707 26 32.7053 26 32.7573 25.9648C32.8093 25.9473 32.844 25.9121 32.8787 25.8769C32.9133 25.8418 32.9307 25.8066 32.9653 25.7538C32.9827 25.7011 33 25.6659 33 25.6132C33 25.5604 33 25.5077 32.9653 25.4725ZM32.9307 25.7538C32.9307 25.789 32.896 25.8242 32.8613 25.8593C32.8267 25.8945 32.792 25.9121 32.7573 25.9297C32.7227 25.9297 32.6707 25.9473 32.636 25.9473C32.6013 25.9473 32.5493 25.9473 32.5147 25.9297C32.48 25.9297 32.4453 25.8945 32.4107 25.8593C32.376 25.8242 32.3587 25.789 32.3413 25.7538C32.3413 25.7187 32.324 25.6659 32.324 25.6308C32.324 25.5956 32.324 25.5429 32.3413 25.5077C32.3413 25.4725 32.376 25.4374 32.4107 25.4022C32.4453 25.367 32.48 25.3495 32.5147 25.3319C32.5493 25.3319 32.6013 25.3143 32.636 25.3143C32.6707 25.3143 32.7227 25.3143 32.7573 25.3319C32.792 25.3319 32.8267 25.367 32.8613 25.4022C32.896 25.4374 32.9133 25.4725 32.9307 25.5077C32.9307 25.5429 32.948 25.5956 32.948 25.6308C32.948 25.6659 32.948 25.7187 32.9307 25.7538ZM18.6653 19.0549C18.5267 18.4044 18.6653 17.789 18.6653 17.789H11.9053C11.9053 17.789 10.1547 17.4549 9.20133 17.7011C8.508 17.8769 7.43333 18.2813 7.156 19.6176C6.93067 20.7253 7.468 21.4813 7.84933 21.8506C8.23067 22.2022 9.98133 22.9582 10.1027 22.9934C10.2933 23.0637 11.056 23.4505 10.8653 24.2593C10.7093 24.8747 9.912 25.033 9.72133 25.033C9.53067 25.033 8.248 25.1385 7.90133 23.7846H7.416C7.416 23.7846 7.39867 24.4176 7 25.4198C7 25.4198 7.676 26.0176 9.42667 26C9.53067 26 11.5413 26 12.408 24.5055C13.3613 22.8352 11.9747 21.6747 11.9747 21.6747C11.4027 21.1648 9.704 20.4615 9.704 20.4615C8.352 19.9165 8.88933 18.6857 9.58267 18.5802C10.224 18.4923 10.796 18.5099 11.8707 19.0374C11.8707 19.0374 13.6733 18.8088 14.1587 18.8791V25.8769C14.1587 25.8769 14.956 25.7011 16.36 25.8769V18.8967C16.7587 18.8088 18.648 19.0725 18.648 19.0725L18.6653 19.0549ZM32.8267 25.5253C32.8267 25.4901 32.8267 25.4549 32.7747 25.4374C32.74 25.4198 32.7053 25.4022 32.636 25.4022H32.48V25.8242H32.5493V25.6308H32.636L32.7227 25.8242H32.8093L32.7227 25.6308C32.7573 25.6308 32.7747 25.6132 32.792 25.5956C32.8093 25.578 32.8267 25.5429 32.8267 25.5253ZM32.7227 25.578C32.7053 25.578 32.6707 25.578 32.636 25.578H32.5667V25.4374H32.636C32.6707 25.4374 32.7053 25.4374 32.7227 25.4549C32.74 25.4549 32.7573 25.4901 32.7573 25.5077C32.7573 25.5253 32.7573 25.5429 32.74 25.5604L32.7227 25.578ZM18.076 13.7099C21.924 13.0945 24.056 13.2 24.056 13.2V12.8308C24.056 12.8308 19.2373 12.9363 15.6147 13.4989C8.21333 14.6242 7 16.8571 7 16.8571H12.3387C12.3387 16.8571 13.2747 14.4835 18.076 13.7099ZM31.1453 19.7407C31.1453 17.578 28.3027 17.789 28.3027 17.789H25.0093V25.3846L21.5253 17.6835C21.5253 17.6835 20.8493 17.7714 20.416 17.6835C20.416 17.6835 16.672 25.8418 16.6547 25.8418C17.3307 25.7187 18.1627 25.8418 18.1627 25.8418L19.0813 23.5033H21.8373L22.7387 25.8769C22.7387 25.8769 23.8307 25.6659 25.0613 25.8769C25.7893 25.7011 27.2453 25.8593 27.2453 25.8593V22.4484L29.464 25.8769C30.7467 25.6835 32.116 25.8769 32.116 25.8769L29.308 21.956C29.308 21.956 31.18 21.5868 31.18 19.7758L31.1453 19.7407ZM19.532 22.5011L20.4853 20.3385L21.4213 22.5011H19.5493H19.532ZM28.7187 20.8308C28.3373 21.5341 27.1933 21.4637 27.1933 21.4637V18.6681C27.1933 18.6681 28.3547 18.5275 28.684 19.0901C29.1347 19.8637 28.7187 20.8308 28.7187 20.8308ZM28.216 10L27.2973 12.8484H24.3333L26.7427 14.5538L25.7893 17.3846L28.216 15.6088L30.6427 17.367L29.6893 14.5538L32.0987 12.8484H29.1173L28.216 10Z" fill="#BA0C2F"/>
</g>
<defs>
<clipPath id="clip0_37_78">
<rect width="26" height="16" fill="white" transform="translate(7 10)"/>
</clipPath>
</defs>
</svg>
