<svg width="40" height="40" viewBox="0 0 40 40" fill="none" xmlns="http://www.w3.org/2000/svg">
<rect x="0.5" y="0.5" width="39" height="39" rx="3.5" fill="#FAFAFA"/>
<rect x="0.5" y="0.5" width="39" height="39" rx="3.5" stroke="#E6E6E6"/>
<path d="M32.0729 14.3059L32.0821 14.0293C32.0823 14.0243 32.0837 14.0193 32.0863 14.015C32.0889 14.0106 32.0925 14.0069 32.0969 14.0043C32.1012 14.0017 32.1061 14.0002 32.1112 14C32.1163 13.9998 32.1213 14.0009 32.1259 14.0031L34.0112 14.9455C34.0153 14.9476 34.0199 14.9486 34.0245 14.9486C34.0292 14.9486 34.0337 14.9476 34.0379 14.9455L35.9417 14.0031C35.9463 14.0009 35.9514 13.9998 35.9565 14C35.9616 14.0003 35.9666 14.0018 35.9709 14.0045C35.9753 14.0071 35.9789 14.0109 35.9814 14.0153C35.984 14.0197 35.9853 14.0247 35.9854 14.0298L35.9895 14.3121C35.9895 14.3178 35.9879 14.3233 35.9849 14.3282C35.9819 14.333 35.9776 14.3369 35.9726 14.3394L34.0477 15.292C34.0435 15.2941 34.0389 15.2951 34.0343 15.2951C34.0297 15.2951 34.0251 15.2941 34.0209 15.292L32.0899 14.3342C32.0846 14.3316 32.0802 14.3276 32.0772 14.3226C32.0742 14.3176 32.0727 14.3118 32.0729 14.3059Z" fill="#D03EE1"/>
<path d="M35.952 16.9213L32.093 15.0041C32.0888 15.002 32.0854 14.9987 32.083 14.9947C32.0807 14.9907 32.0795 14.9861 32.0796 14.9815L32.0847 14.6941C32.0848 14.69 32.086 14.6859 32.088 14.6823C32.0901 14.6788 32.093 14.6758 32.0966 14.6736C32.1001 14.6715 32.1041 14.6702 32.1083 14.67C32.1124 14.6699 32.1165 14.6707 32.1202 14.6725L35.9813 16.5887C35.9855 16.5908 35.989 16.5942 35.9914 16.5983C35.9938 16.6024 35.9949 16.6071 35.9947 16.6118L35.9875 16.9002C35.9873 16.9043 35.9861 16.9083 35.984 16.9118C35.9819 16.9153 35.979 16.9183 35.9754 16.9203C35.9719 16.9224 35.9679 16.9236 35.9638 16.9238C35.9598 16.924 35.9557 16.9231 35.952 16.9213Z" fill="#D03EE1"/>
<path d="M35.0883 15.4622C35.0883 15.4661 35.0894 15.4699 35.0915 15.4732C35.0936 15.4764 35.0966 15.4791 35.1001 15.4807L35.9397 15.8879C35.9818 15.9081 36.0019 15.9415 35.9998 15.9882L35.989 16.2175C35.987 16.2641 35.9654 16.2768 35.9242 16.2555L34.3952 15.4787C34.3914 15.4768 34.3882 15.4739 34.386 15.4703C34.3838 15.4667 34.3826 15.4626 34.3826 15.4584C34.3826 15.4541 34.3838 15.45 34.386 15.4464C34.3882 15.4428 34.3914 15.4399 34.3952 15.438L35.9278 14.673C35.9662 14.6538 35.9856 14.6655 35.9859 14.708L35.988 14.9507C35.988 14.9812 35.9746 15.0034 35.9479 15.0175C35.6672 15.1683 35.3872 15.3061 35.1078 15.4308C35.0951 15.4363 35.0886 15.4468 35.0883 15.4622Z" fill="#D03EE1"/>
<path d="M14.1509 17.603L16.3524 17.6036C16.3716 17.6036 16.3812 17.613 16.3812 17.6318L16.3802 19.8549C16.3802 19.8598 16.3782 19.8645 16.3748 19.868C16.3713 19.8715 16.3666 19.8734 16.3617 19.8734L14.1293 19.8724C14.1149 19.8721 14.1077 19.8793 14.1077 19.894C14.1132 20.3714 14.1125 20.8563 14.1057 21.3485C14.1016 21.6449 14.1257 21.871 14.1782 22.0266C14.3848 22.6384 14.9427 23.0764 15.59 23.0893C15.846 23.0944 16.101 23.0948 16.355 23.0903C16.3583 23.0903 16.3617 23.0909 16.3648 23.0921C16.3679 23.0933 16.3707 23.0952 16.3731 23.0975C16.3755 23.0999 16.3774 23.1027 16.3787 23.1058C16.38 23.1089 16.3807 23.1122 16.3807 23.1155L16.3797 25.3319C16.3797 25.3404 16.3763 25.3485 16.3703 25.3545C16.3643 25.3604 16.3562 25.3638 16.3478 25.3638C15.9139 25.3674 15.4064 25.3869 14.9982 25.3119C14.1036 25.1474 13.3646 24.7361 12.7813 24.078C12.3001 23.5354 11.9991 22.9015 11.8785 22.1762C11.8401 21.9445 11.8214 21.6269 11.8224 21.2235C11.8276 19.2952 11.8284 17.3374 11.825 15.3501C11.825 15.3454 11.8268 15.3408 11.8301 15.3374C11.8334 15.334 11.8378 15.3321 11.8425 15.3321L14.0805 15.3301C14.0885 15.3301 14.0962 15.3333 14.1019 15.339C14.1076 15.3447 14.1108 15.3524 14.1108 15.3604L14.1113 17.5635C14.1113 17.5898 14.1245 17.603 14.1509 17.603Z" fill="#161616"/>
<path d="M32.9814 16.1172L32.0847 15.674C32.0818 15.6726 32.0793 15.6703 32.0775 15.6675C32.0758 15.6647 32.0749 15.6614 32.075 15.6581L32.0796 15.3517C32.0796 15.3487 32.0804 15.3458 32.0819 15.3433C32.0833 15.3407 32.0854 15.3386 32.0879 15.337C32.0904 15.3355 32.0933 15.3346 32.0963 15.3345C32.0992 15.3343 32.1021 15.3349 32.1048 15.3362L33.6765 16.1193C33.6793 16.1208 33.6816 16.123 33.6832 16.1257C33.6849 16.1284 33.6857 16.1315 33.6857 16.1347C33.6857 16.1379 33.6849 16.141 33.6832 16.1437C33.6816 16.1464 33.6793 16.1486 33.6765 16.1501L32.1115 16.928C32.1089 16.9293 32.106 16.9299 32.1031 16.9298C32.1002 16.9297 32.0973 16.9288 32.0948 16.9274C32.0923 16.9259 32.0902 16.9238 32.0887 16.9213C32.0872 16.9188 32.0864 16.916 32.0863 16.9131L32.0791 16.6103C32.0789 16.6069 32.0796 16.6036 32.0813 16.6007C32.0829 16.5978 32.0854 16.5954 32.0883 16.5938L32.9814 16.1486C32.9843 16.1471 32.9868 16.1449 32.9885 16.1421C32.9902 16.1393 32.9911 16.1362 32.9911 16.1329C32.9911 16.1296 32.9902 16.1264 32.9885 16.1237C32.9868 16.1209 32.9843 16.1186 32.9814 16.1172Z" fill="#D03EE1"/>
<path d="M32.093 17.601C32.1029 17.6161 32.0959 17.6176 32.0719 17.6056C32.086 17.5898 32.0921 17.5763 32.0904 17.565C32.0774 17.4711 32.0767 17.3766 32.0884 17.2817C32.0908 17.2635 32.1002 17.2503 32.1166 17.2421L33.9701 16.3249C33.9884 16.3157 34.0087 16.3108 34.0293 16.3107C34.0499 16.3106 34.0703 16.3153 34.0888 16.3244L35.9561 17.2431C35.9631 17.2466 35.9691 17.2518 35.9736 17.2582C35.9781 17.2645 35.9809 17.2719 35.9818 17.2796C35.9914 17.354 35.9897 17.4497 35.9767 17.5665C35.9736 17.5916 35.9609 17.5984 35.9387 17.5871L34.0749 16.6617C34.0606 16.6546 34.0448 16.651 34.0288 16.651C34.0129 16.651 33.9972 16.6546 33.9829 16.6617L32.093 17.601Z" fill="#D03EE1"/>
<path d="M32.0719 17.6056C32.0959 17.6176 32.1029 17.6161 32.0929 17.601L32.0924 19.8518C32.0924 19.8548 32.0918 19.8577 32.0907 19.8604C32.0896 19.8631 32.0879 19.8656 32.0858 19.8677C32.0837 19.8697 32.0812 19.8713 32.0784 19.8724C32.0757 19.8735 32.0728 19.874 32.0698 19.8739C31.8813 19.8712 31.6926 19.8714 31.5038 19.8745C30.5639 19.8904 29.7938 20.5012 29.5131 21.3845C29.4911 21.4527 29.4913 21.5205 29.5136 21.588C29.7963 22.4477 30.5285 23.0446 31.4318 23.0914C31.6371 23.1016 31.84 23.102 32.0405 23.0924C32.0758 23.0907 32.0935 23.1076 32.0935 23.1433V25.3273C32.0935 25.354 32.0801 25.3674 32.0534 25.3674C31.7562 25.3664 31.4523 25.3767 31.1552 25.3438C29.9758 25.2132 28.9962 24.6843 28.2164 23.7572C28.2037 23.7424 28.1912 23.7424 28.1789 23.7572C27.4776 24.5969 26.6005 25.1119 25.5476 25.3021C25.2761 25.3511 24.9399 25.3743 24.5389 25.3715C23.708 25.3653 22.8782 25.3647 22.0495 25.3695C22.0445 25.3695 22.0398 25.3675 22.0364 25.364C22.0329 25.3606 22.0309 25.3559 22.0309 25.3509C22.0306 24.044 22.0304 22.7373 22.0304 21.4307C22.0304 20.8199 21.7266 20.2796 21.2068 19.968C20.4654 19.5233 19.5343 19.7125 19.0058 20.3906C18.5107 21.0261 18.5395 21.9263 19.0824 22.5263C19.3535 22.8259 19.6708 23.0052 20.0341 23.0641C20.4839 23.1366 21.0315 23.0878 21.5117 23.1001C21.5322 23.1004 21.5425 23.1111 21.5425 23.132V25.3412C21.5425 25.3583 21.534 25.3669 21.5168 25.3669C21.0959 25.3689 20.6579 25.3679 20.2027 25.3638C19.939 25.3612 19.648 25.3186 19.3935 25.2533C18.3652 24.988 17.5654 24.4125 16.994 23.5268C15.8923 21.8194 16.3025 19.5706 17.8742 18.3172C18.7333 17.6313 19.8701 17.3249 20.9652 17.5038C22.597 17.7712 23.8936 18.9984 24.2283 20.6143C24.288 20.9029 24.3162 21.2513 24.3132 21.6595C24.3097 22.1157 24.3099 22.587 24.3137 23.0734C24.3137 23.0803 24.3164 23.087 24.3214 23.0919C24.3263 23.0968 24.3329 23.0996 24.3399 23.0996C24.6597 23.1001 24.9939 23.1176 25.2879 23.0497C26.0831 22.8646 26.6175 22.3693 26.891 21.5639C26.9069 21.5166 26.908 21.4554 26.8925 21.4081C26.6334 20.627 26.1136 20.1336 25.3332 19.9279C25.0314 19.8488 24.6653 19.8698 24.342 19.8781C24.3373 19.8781 24.3327 19.8773 24.3284 19.8755C24.3241 19.8738 24.3202 19.8713 24.3169 19.868C24.3136 19.8647 24.311 19.8609 24.3092 19.8566C24.3074 19.8523 24.3065 19.8477 24.3065 19.8431V17.6318C24.3065 17.6242 24.3095 17.6169 24.3149 17.6115C24.3203 17.6061 24.3276 17.603 24.3353 17.603C24.6597 17.6041 25.0052 17.5886 25.3239 17.6318C26.4814 17.7885 27.436 18.3184 28.1876 19.2215C28.1891 19.2232 28.191 19.2246 28.193 19.2255C28.1951 19.2264 28.1973 19.2268 28.1996 19.2268C28.2018 19.2267 28.204 19.2262 28.2061 19.2252C28.2081 19.2242 28.2099 19.2228 28.2113 19.221C28.9849 18.287 29.9797 17.7523 31.1958 17.6169C31.3716 17.5974 31.6636 17.5936 32.0719 17.6056Z" fill="#161616"/>
<path d="M9.33768 19.9218C9.17676 19.9326 9.0837 20.0981 9.15722 20.2354C9.47769 20.8345 9.80656 21.4321 10.1438 22.0281C10.3399 22.3747 10.4604 22.6444 10.5053 22.8374C10.7639 23.9494 10.1243 25.0353 9.0256 25.3443C8.84394 25.395 8.60419 25.4198 8.30634 25.4188C6.7996 25.4123 5.37289 25.4114 4.02622 25.4162C4.00874 25.4162 4 25.4077 4 25.3905L4.00103 23.17C4.00103 23.1519 4.01028 23.1428 4.02879 23.1428C5.2932 23.1448 6.54099 23.1452 7.77216 23.1438C7.84174 23.1438 7.89726 23.1342 7.93874 23.115C8.06727 23.0549 8.08218 22.9248 8.01945 22.8101C7.69076 22.2065 7.38262 21.6499 7.09505 21.1402C6.875 20.7502 6.7391 20.4534 6.68735 20.2498C6.40458 19.1351 7.06369 18.0354 8.16392 17.7233C8.34113 17.673 8.57129 17.6488 8.8544 17.6509C9.68797 17.6567 10.5106 17.6575 11.3222 17.6534C11.3339 17.6534 11.3397 17.6592 11.3397 17.6709V19.8899C11.3397 19.9091 11.3301 19.9187 11.3109 19.9187C10.7142 19.9194 10.1104 19.9185 9.49963 19.9161C9.44547 19.9161 9.39149 19.918 9.33768 19.9218Z" fill="#161616"/>
</svg>
