<svg width="40" height="40" viewBox="0 0 40 40" fill="none" xmlns="http://www.w3.org/2000/svg">
<rect x="0.5" y="0.5" width="39" height="39" rx="3.5" fill="#BBB8FB"/>
<rect x="0.5" y="0.5" width="39" height="39" rx="3.5" stroke="#E6E6E6"/>
<g clip-path="url(#clip0_100_9)">
<path d="M8.39762 26.8029L19.0679 32.767C19.5804 33.1398 20.2327 33.1398 20.7453 32.767L32.0679 26.3835C32.4406 26.1505 32.7202 25.9176 32.7202 25.4982C32.7202 25.1721 32.4872 24.8459 32.1611 24.7061L29.1324 22.7025L32.0213 21.0717C32.5804 20.8387 32.9532 20.2796 32.9998 19.6738V15.2473C33.093 14.5484 32.6736 13.8495 32.0213 13.5699L20.8851 7.32617C20.2793 6.90682 19.4406 6.90682 18.8349 7.32617L7.6987 13.6631C7.27934 13.8495 7.04637 14.2688 7.04637 14.7348C7.04637 15.2939 7.60551 15.6667 7.6987 15.7599L10.5876 17.4373L7.51232 19.2545C7.23275 19.4409 7.04637 19.767 6.99977 20.0932V24.3799C6.85999 25.3584 7.41913 26.3835 8.39762 26.8029ZM30.7166 25.5448L19.9066 31.509L9.42271 25.7312L12.6844 23.914L19.4872 27.7348C19.7202 27.8746 19.9998 27.8746 20.2327 27.7348L27.5948 23.5412L30.7166 25.5448ZM31.6019 19.2079L28.6664 17.4373L31.6019 15.7599V19.2079ZM20.6987 8.957L30.6234 14.6882L27.3618 16.6452L20.6521 12.638L20.6987 8.957ZM19.86 13.8961L25.9173 17.4839L19.86 20.8853L13.6629 17.3907L19.86 13.8961ZM8.91017 14.7348L19.0679 8.957V12.638L11.9854 16.552L8.91017 14.7348ZM12.1252 18.3226L19.4872 22.4695C19.7202 22.6093 20.0464 22.6093 20.2793 22.4695L27.3618 18.3226L30.5302 20.233L19.86 26.1505L9.04995 20.0466L12.1252 18.3226ZM8.39762 21.4445L11.2399 23.0287L8.39762 24.6129V21.4445Z" fill="black"/>
</g>
<defs>
<clipPath id="clip0_100_9">
<rect width="26" height="26" fill="white" transform="translate(7 7)"/>
</clipPath>
</defs>
</svg>
