<svg width="40" height="40" viewBox="0 0 40 40" fill="none" xmlns="http://www.w3.org/2000/svg">
<rect x="0.5" y="0.5" width="39" height="39" rx="3.5" fill="#FAFAFA"/>
<rect x="0.5" y="0.5" width="39" height="39" rx="3.5" stroke="#E6E6E6"/>
<path d="M34.6374 16.7305L34.7043 15.1054C34.7055 15.0841 34.7127 15.0635 34.7251 15.0461C34.7376 15.0288 34.7547 15.0154 34.7743 15.0076C34.794 14.9998 34.8154 14.998 34.836 15.0023C34.8565 15.0066 34.8752 15.0169 34.8899 15.032L34.9698 15.1118C34.9899 15.1305 35 15.1543 35 15.1831V25.6874C34.9998 25.7248 34.9878 25.7612 34.9656 25.7911C34.9435 25.821 34.9124 25.8429 34.877 25.8536C34.5165 25.9658 34.6525 24.3579 34.6568 24.1507C34.6583 24.0615 34.6187 24.037 34.5381 24.0773C32.4662 25.1262 29.4575 24.9903 27.882 23.0672C27.836 23.0111 27.8439 22.9629 27.9057 22.9226L29.6065 21.8241C29.6525 21.7939 29.695 21.7982 29.7338 21.837C30.5942 22.732 31.6302 22.9946 32.8417 22.6248C32.9231 22.5993 32.9949 22.5498 33.0477 22.4828C33.1005 22.4158 33.1317 22.3344 33.1374 22.2493C33.1827 21.5327 31.2748 21.3903 30.787 21.3104C28.7194 20.9672 27.541 18.6752 29.2892 17.1212C30.5971 15.9579 32.9043 16.1716 34.4885 16.8255C34.5834 16.8658 34.6331 16.8341 34.6374 16.7305ZM33.9597 18.8975C33.2331 18.3162 32.4115 18.1025 31.495 18.2564C31.0633 18.3277 30.8194 18.6816 31.2144 19.0658C31.2385 19.0885 31.2674 19.1048 31.2986 19.1133L34.5101 19.8989C34.5705 19.9147 34.6072 19.8924 34.6201 19.832C34.7036 19.4363 34.7043 19.0392 34.6223 18.6406C34.5993 18.5298 34.5475 18.5133 34.4669 18.591L34.1583 18.8888C34.095 18.9507 34.0288 18.9536 33.9597 18.8975Z" fill="#003E6B"/>
<path d="M13.6395 17.1126C13.64 17.1247 13.6436 17.1365 13.65 17.1468C13.6564 17.1571 13.6655 17.1655 13.6762 17.1712C13.6869 17.1769 13.699 17.1796 13.7111 17.1792C13.7232 17.1788 13.735 17.1751 13.7453 17.1687C15.5949 15.919 18.4547 15.932 20.0798 17.5917C20.0916 17.6038 20.1007 17.6183 20.1066 17.6341C20.1124 17.65 20.1149 17.667 20.1139 17.684C20.1129 17.701 20.1084 17.7177 20.1007 17.733C20.093 17.7483 20.0822 17.7619 20.069 17.773L18.7072 18.8888C18.6511 18.9363 18.5942 18.9363 18.5367 18.8888C18.0316 18.468 15.6208 17.5917 15.6252 18.7334C15.6253 18.8336 15.6597 18.9307 15.7226 19.0085C15.7854 19.0863 15.8729 19.14 15.9705 19.1608C17.3172 19.4435 19.7928 19.6269 20.123 21.3341C20.8482 25.0744 15.9597 25.096 13.7863 24.1831C13.6856 24.1399 13.6345 24.1737 13.6331 24.2845L13.6309 25.7284C13.631 25.7589 13.6196 25.7884 13.5989 25.8111C13.5781 25.8338 13.5496 25.8482 13.5187 25.8514C13.3806 25.8644 13.2942 25.8104 13.2921 25.6658C13.2518 22.1852 13.2575 18.709 13.3093 15.237C13.3095 15.2099 13.3165 15.1832 13.3299 15.1596C13.3432 15.1359 13.3623 15.1159 13.3855 15.1015C13.4087 15.0871 13.4353 15.0788 13.4627 15.0772C13.4901 15.0756 13.5175 15.0808 13.5424 15.0924C13.6892 15.1615 13.6352 16.8708 13.6395 17.1126ZM17.5309 21.8456C16.3654 21.3104 15.0597 21.4118 13.7798 20.5917C13.682 20.5298 13.6331 20.5564 13.6331 20.6715V21.9924C13.6327 22.0158 13.6391 22.0389 13.6515 22.0587C13.664 22.0786 13.6819 22.0944 13.7032 22.1042C13.7245 22.114 13.7481 22.1175 13.7713 22.1141C13.7945 22.1107 13.8162 22.1007 13.8338 22.0852L14.1489 21.8176C14.1699 21.8002 14.1967 21.7914 14.224 21.793C14.2512 21.7947 14.2768 21.8065 14.2957 21.8262C15.1748 22.7341 16.2259 22.996 17.4489 22.6118C17.5151 22.5917 17.5683 22.5536 17.6086 22.4974C17.8331 22.1895 17.8072 21.9723 17.5309 21.8456Z" fill="#003E6B"/>
<path d="M9.74821 18.5068V24.5629C9.74821 24.5898 9.73752 24.6156 9.71849 24.6347C9.69947 24.6537 9.67367 24.6644 9.64677 24.6644H7.20576C7.17885 24.6644 7.15305 24.6537 7.13403 24.6347C7.11501 24.6156 7.10432 24.5898 7.10432 24.5629V18.5068C7.10432 18.4799 7.09363 18.4541 7.07461 18.4351C7.05558 18.4161 7.02978 18.4054 7.00288 18.4054H5.10144C5.07454 18.4054 5.04873 18.3947 5.02971 18.3757C5.01069 18.3566 5 18.3308 5 18.3039V16.4564C5 16.4295 5.01069 16.4037 5.02971 16.3847C5.04873 16.3657 5.07454 16.355 5.10144 16.355H11.7511C11.778 16.355 11.8038 16.3657 11.8228 16.3847C11.8418 16.4037 11.8525 16.4295 11.8525 16.4564V18.3039C11.8525 18.3308 11.8418 18.3566 11.8228 18.3757C11.8038 18.3947 11.778 18.4054 11.7511 18.4054H9.84964C9.82274 18.4054 9.79694 18.4161 9.77792 18.4351C9.75889 18.4541 9.74821 18.4799 9.74821 18.5068Z" fill="#003E6B"/>
<path d="M24.4612 19.0939L25.9137 16.5924C25.9199 16.5813 25.929 16.572 25.94 16.5655C25.951 16.559 25.9635 16.5557 25.9763 16.5557L28.6936 16.5773C28.7066 16.5773 28.7194 16.5809 28.7306 16.5877C28.7417 16.5944 28.7508 16.6041 28.7568 16.6157C28.7628 16.6273 28.7655 16.6403 28.7647 16.6533C28.7638 16.6663 28.7593 16.6789 28.7518 16.6895L25.6892 21.0752C25.6812 21.0866 25.6767 21.1001 25.6763 21.114L25.6353 24.4313C25.6353 24.4502 25.6278 24.4683 25.6144 24.4816C25.6011 24.495 25.5829 24.5025 25.5641 24.5025H23.2007C23.1819 24.5025 23.1637 24.495 23.1504 24.4816C23.137 24.4683 23.1295 24.4502 23.1295 24.4313V21.1658C23.1291 21.1519 23.1246 21.1384 23.1166 21.127L20.0324 16.6852C20.0249 16.6746 20.0204 16.662 20.0196 16.649C20.0187 16.636 20.0214 16.623 20.0274 16.6114C20.0334 16.5998 20.0425 16.5901 20.0537 16.5833C20.0648 16.5766 20.0776 16.573 20.0907 16.573L22.8123 16.5708C22.8248 16.5706 22.8372 16.5736 22.8482 16.5797C22.8592 16.5857 22.8684 16.5946 22.8748 16.6054L24.3382 19.0939C24.3444 19.1046 24.3534 19.1135 24.3642 19.1197C24.375 19.1259 24.3872 19.1292 24.3997 19.1292C24.4121 19.1292 24.4243 19.1259 24.4351 19.1197C24.4459 19.1135 24.4549 19.1046 24.4612 19.0939Z" fill="#003E6B"/>
</svg>
