<svg width="40" height="24" viewBox="0 0 40 24" fill="none" xmlns="http://www.w3.org/2000/svg">
<rect width="40" height="24" rx="2" fill="#1434CB"/>
<path d="M16.4981 7.65713L12.6875 16.3658H10.2014L8.32618 9.41589C8.21233 8.98782 8.11334 8.83099 7.7671 8.65064C7.20181 8.35689 6.2683 8.08128 5.44696 7.91023L5.50275 7.65713H9.50467C10.0148 7.65713 10.4734 7.9824 10.5892 8.54508L11.5795 13.5844L14.0272 7.65699H16.4981V7.65713ZM26.2393 13.5225C26.2493 11.224 22.9212 11.0974 22.9441 10.0706C22.9512 9.75814 23.2618 9.42591 23.9417 9.34111C24.2787 9.29885 25.2072 9.26661 26.2603 9.73084L26.6734 7.88409C26.1075 7.68734 25.3794 7.49799 24.4735 7.49799C22.1488 7.49799 20.5128 8.68172 20.499 10.3767C20.484 11.6305 21.6667 12.3301 22.5578 12.7467C23.4745 13.1733 23.7821 13.4474 23.7786 13.829C23.7721 14.4132 23.0475 14.6711 22.3703 14.6813C21.1882 14.6987 20.5022 14.3749 19.9554 14.1314L19.5291 16.0392C20.0786 16.2807 21.093 16.4914 22.1446 16.502C24.6154 16.502 26.2317 15.333 26.2393 13.5225ZM32.3779 16.3658H34.5531L32.6544 7.65713H30.6467C30.1952 7.65713 29.8144 7.90892 29.6459 8.29605L26.1166 16.3658H28.5862L29.0765 15.065H32.094L32.3779 16.3658ZM29.7537 13.2802L30.9916 10.0104L31.7041 13.2802H29.7537ZM19.8585 7.65713L17.9137 16.3658H15.5619L17.5075 7.65713H19.8585V7.65713Z" fill="white"/>
</svg>
