<svg width="40" height="40" viewBox="0 0 40 40" fill="none" xmlns="http://www.w3.org/2000/svg">
<rect x="0.5" y="0.5" width="39" height="39" rx="3.5" fill="#FAFAFA"/>
<rect x="0.5" y="0.5" width="39" height="39" rx="3.5" stroke="#E6E6E6"/>
<path d="M28.9072 7.59731H11.6817C11.6772 7.59731 11.6736 7.60093 11.6736 7.60539V10.7631C11.6736 10.7676 11.6772 10.7712 11.6817 10.7712H28.9072C28.9117 10.7712 28.9153 10.7676 28.9153 10.7631V7.60539C28.9153 7.60093 28.9117 7.59731 28.9072 7.59731Z" fill="#16193A"/>
<path d="M20.2971 25.7888L25.0921 15.479C25.0928 15.4774 25.094 15.476 25.0955 15.4751C25.097 15.4741 25.0987 15.4736 25.1004 15.4736L28.9 15.4739C28.9016 15.4739 28.9031 15.4743 28.9044 15.475C28.9058 15.4758 28.9069 15.4769 28.9078 15.4782C28.9086 15.4795 28.9091 15.481 28.9092 15.4825C28.9093 15.4841 28.909 15.4856 28.9084 15.4871L20.2971 33.5863C20.2964 33.5879 20.2952 33.5893 20.2937 33.5902C20.2922 33.5911 20.2905 33.5916 20.2887 33.5916C20.287 33.5916 20.2853 33.5911 20.2838 33.5902C20.2823 33.5893 20.2811 33.5879 20.2803 33.5863L11.6724 15.4871C11.6717 15.4856 11.6714 15.4841 11.6715 15.4825C11.6716 15.481 11.6721 15.4795 11.673 15.4782C11.6738 15.4769 11.6749 15.4758 11.6763 15.475C11.6777 15.4743 11.6792 15.4739 11.6807 15.4739L15.4839 15.4736C15.4857 15.4736 15.4874 15.4741 15.4889 15.4751C15.4904 15.476 15.4915 15.4774 15.4923 15.479L20.2803 25.7888C20.2811 25.7904 20.2823 25.7917 20.2838 25.7926C20.2853 25.7936 20.287 25.7941 20.2887 25.7941C20.2905 25.7941 20.2922 25.7936 20.2937 25.7926C20.2952 25.7917 20.2964 25.7904 20.2971 25.7888Z" fill="#16193A"/>
</svg>
