<svg width="40" height="40" viewBox="0 0 40 40" fill="none" xmlns="http://www.w3.org/2000/svg">
<rect x="0.5" y="0.5" width="39" height="39" rx="3.5" fill="#FAFAFA"/>
<rect x="0.5" y="0.5" width="39" height="39" rx="3.5" stroke="#E6E6E6"/>
<path d="M28.4626 13H31.5613C31.8493 13 32.0715 13.2731 31.9786 13.548L27.75 26.3993C27.4798 27.2193 26.7041 27.7692 25.8176 27.7692H24.5694C23.6761 27.7692 22.8771 27.189 22.6235 26.3597L19.9997 17.756L17.376 26.3597C17.1213 27.1896 16.3221 27.7692 15.4301 27.7692H14.1819C13.2957 27.7692 12.5199 27.2196 12.2495 26.3993L8.02092 13.548C7.9308 13.2749 8.1436 13 8.4335 13H11.5322C11.7245 13 11.8955 13.1261 11.942 13.3055L14.8914 23.416L17.5934 14.4213C17.8307 13.5852 18.6227 13.001 19.5193 13.001H20.4754C21.3716 13.001 22.1636 13.5874 22.4015 14.4213L25.1034 23.416L28.0528 13.3055C28.1021 13.1252 28.2702 13 28.4626 13Z" fill="#FF1F3E"/>
</svg>
