<svg width="40" height="40" viewBox="0 0 40 40" fill="none" xmlns="http://www.w3.org/2000/svg">
<rect x="0.5" y="0.5" width="39" height="39" rx="3.5" fill="#FAFAFA"/>
<rect x="0.5" y="0.5" width="39" height="39" rx="3.5" stroke="#E6E6E6"/>
<path d="M9.59745 18.5646C9.22814 18.6747 9.23316 18.6954 9.61254 18.6266C13.8792 17.8573 17.7579 16.1945 20.8889 13.1355C21.9768 12.0728 22.9439 9.92818 21.0566 8.99539C21.023 8.97919 21.0063 8.9898 21.0063 9.02724C21.0054 9.39432 21.6457 9.59043 21.6206 9.96757C21.6189 9.99774 21.6033 10.0098 21.5737 10.0036C20.2484 9.73039 18.9242 9.45913 17.6011 9.18983C17.2316 9.11524 17.0606 9.18228 16.7404 9.40354C15.2989 10.4014 13.7923 11.2892 12.2207 12.067C12.1665 12.0938 12.1218 12.1536 12.0866 12.2463C12.0754 12.2754 12.0852 12.2896 12.1159 12.2891C14.8975 12.2304 17.6833 12.4022 20.4121 12.962C20.4417 12.9682 20.4476 12.9833 20.4297 13.0073C20.0341 13.5462 19.6913 13.7792 19.0049 13.6677C16.7499 13.3034 14.4798 13.1565 12.1947 13.2269C11.394 13.2515 10.5928 13.2738 9.79105 13.2939C9.52202 13.3006 9.26892 13.1473 9.20439 12.8766C9.09376 12.4164 9.69886 12.191 10.0299 12.0536C12.5402 11.0082 14.9349 9.74966 17.214 8.27799C17.2193 8.27459 17.2237 8.26988 17.2268 8.26432C17.2299 8.25875 17.2315 8.2525 17.2315 8.24614C17.2315 8.23979 17.2299 8.23354 17.2268 8.22797C17.2237 8.2224 17.2193 8.2177 17.214 8.2143C16.8016 7.95281 16.2074 8.81604 15.687 8.77078C15.2721 8.73391 14.8489 8.05003 15.4489 7.81369C16.3591 7.45416 17.3388 7.48097 18.2859 7.52539C18.7409 7.54718 19.3812 7.19686 19.6804 7.12898C20.8512 6.86247 22.0514 7.04685 23.2875 7.3385C25.8202 7.93605 28.7259 9.48818 29.8648 11.9723C30.0408 12.3553 30.1322 12.9428 30.4607 13.2998C30.8714 13.7473 31.2016 14.1286 31.4513 14.4438C32.8112 16.1641 33.2755 18.0872 32.8442 20.2131C32.7378 20.7394 32.5266 21.3362 32.3355 21.8885C32.2846 22.036 32.2587 22.1921 32.2575 22.357C32.2408 24.6969 31.4069 26.7234 29.7559 28.4364C27.5609 30.7143 24.8983 32.2111 21.7782 32.6268C20.6643 32.7743 18.8734 32.7777 19.0804 31.0772C19.0893 31.0023 19.0566 30.9722 18.9823 30.9867C17.6386 31.2515 16.2949 31.3423 14.9511 31.2591C14.1021 31.2063 12.6129 30.8861 12.2466 29.9793C11.9684 29.2896 12.3816 28.6811 13.0369 28.3534C15.1984 27.2706 18.0386 27.9939 20.0944 28.9736C20.1012 28.9769 20.1068 28.9821 20.1108 28.9885C20.1147 28.9948 20.1168 29.0022 20.1168 29.0097C20.1168 29.0171 20.1147 29.0245 20.1108 29.0309C20.1068 29.0372 20.1012 29.0424 20.0944 29.0457C19.305 29.4262 18.4367 28.9644 17.716 28.7867C16.3767 28.4565 15.0486 28.4942 13.7317 28.8999C12.8685 29.1664 13.0579 29.8662 13.8683 30.0011C15.5646 30.2833 17.279 30.2101 19.0116 29.7815C23.5834 28.6501 27.9012 26.4292 30.5948 22.5279C32.2911 20.0707 32.2894 17.1793 30.4171 14.8377C30.4122 14.8315 30.4056 14.8268 30.3982 14.8241C30.3907 14.8215 30.3827 14.821 30.375 14.8228C30.3672 14.8245 30.3602 14.8284 30.3546 14.834C30.349 14.8396 30.3451 14.8467 30.3434 14.8544C30.1735 15.5791 29.9481 16.2842 29.667 16.9698C29.6276 17.0661 29.6536 17.1558 29.7265 17.2354C30.1573 17.7047 30.568 18.1911 30.9585 18.6945C31.4589 19.3407 31.4035 20.1461 30.9443 20.8015C30.9269 20.8261 30.9121 20.8247 30.8998 20.7973C30.4213 19.7505 29.9453 18.8647 29.0829 18.0743C29.0786 18.0704 29.0736 18.0674 29.0681 18.0657C29.0625 18.0639 29.0567 18.0633 29.0509 18.064C29.045 18.0648 29.0394 18.0667 29.0344 18.0698C29.0294 18.0729 29.025 18.077 29.0217 18.0819C28.3697 19.0261 27.6076 19.8779 26.7354 20.6372C26.66 20.7026 26.627 20.7903 26.6365 20.9004C26.6388 20.9277 26.6488 20.952 26.6667 20.9733C27.5014 21.9631 28.0998 22.7886 28.3965 24.0993C28.5071 24.5879 28.0495 24.836 27.7135 25.0447C27.7083 25.0479 27.7025 25.0497 27.6965 25.0499C27.6905 25.0502 27.6845 25.049 27.6791 25.0463C27.6738 25.0436 27.6692 25.0396 27.6658 25.0346C27.6624 25.0296 27.6603 25.0239 27.6598 25.0179C27.5576 23.8585 27.1265 22.8439 26.3667 21.9739C26.0524 21.6144 25.889 21.337 25.3895 21.7133C24.0829 22.698 22.9448 23.2788 21.6298 23.961C21.3465 24.1077 21.2619 24.2854 21.5142 24.5326C22.4922 25.4897 22.8668 26.6404 22.4252 27.9822C22.286 28.402 21.934 28.4615 21.5653 28.5579C21.5575 28.56 21.5492 28.5597 21.5416 28.557C21.5339 28.5544 21.5273 28.5494 21.5225 28.5429C21.5177 28.5364 21.515 28.5286 21.5147 28.5205C21.5144 28.5124 21.5165 28.5044 21.5209 28.4976C22.3271 27.2053 21.9097 25.5894 20.6635 24.7522C20.4364 24.5997 20.1104 24.6499 19.8372 24.7572C17.3195 25.7445 14.7902 26.4099 12.0748 26.5306C11.0348 26.5767 9.09712 26.4745 8.37636 25.6003C8.06739 25.226 8.00565 24.8042 8.19115 24.3348C8.57918 23.3518 10.2377 22.7391 11.1747 22.5321C13.8658 21.9362 16.6424 22.0544 19.2287 23.0576C19.2322 23.059 19.2352 23.0613 19.2376 23.0642C19.2399 23.0672 19.2415 23.0707 19.2421 23.0744C19.2427 23.0781 19.2423 23.0819 19.241 23.0854C19.2396 23.0889 19.2374 23.092 19.2346 23.0945C18.5105 23.7197 17.8501 23.4196 17.0405 23.2621C14.8827 22.8425 12.7808 22.9749 10.7347 23.6593C10.295 23.8068 9.87486 24.0309 9.47425 24.3315C9.06359 24.6391 9.18428 25.0019 9.66198 25.1033C10.34 25.2483 10.9727 25.3372 11.6834 25.3045C16.0431 25.1033 19.7844 23.6945 23.5608 21.4434C26.4186 19.7388 30.9309 15.6623 28.6446 11.8063C28.2557 11.1498 27.7244 10.5629 27.0505 10.0455C25.1313 8.57048 22.954 7.81034 20.5185 7.76508C20.4733 7.76453 20.4705 7.77486 20.5101 7.79609C21.3767 8.26123 22.0229 8.54115 22.6682 9.34655C22.7185 9.4094 22.7713 9.427 22.8425 9.44712C24.1415 9.80973 25.4017 10.2737 26.6231 10.8392C27.4436 11.2188 27.9448 11.4124 28.3253 12.0787C28.499 12.3832 28.6432 12.7455 28.7577 13.1657C28.7666 13.1987 28.7569 13.2054 28.7284 13.1858C27.1383 12.1002 25.43 11.2537 23.6035 10.6464C23.1568 10.4989 23.0118 10.6263 22.9917 11.068C22.9548 11.8851 22.6037 12.4106 22.2073 13.0869C22.1933 13.1104 22.1877 13.1358 22.1905 13.1632C22.2045 13.2928 22.2704 13.3755 22.3883 13.4113C24.4106 14.0314 26.303 14.7379 28.0252 15.8802C28.3898 16.1216 28.1543 16.8139 27.809 16.8859C27.6263 16.9237 27.3891 16.6228 27.2425 16.5339C25.4456 15.44 23.5325 14.6586 21.5033 14.1898C21.4127 14.1692 21.3317 14.1929 21.2602 14.2611C20.0869 15.3875 18.8658 16.2029 17.5483 17.0184C17.5059 17.0446 17.5092 17.0631 17.5584 17.0737C18.3445 17.2424 19.1265 17.4086 19.9042 17.5723C21.6675 17.9433 23.3163 18.5981 24.8506 19.5368C24.9193 19.5787 25.0735 19.5997 25.1028 19.7254C25.133 19.8494 24.9369 20.0573 24.8548 20.1377C24.6888 20.2997 24.5033 20.3229 24.2983 20.2073C21.8159 18.8127 19.1566 18.1682 16.2912 17.9553C15.9862 17.9327 15.7875 17.9403 15.4934 18.0609C13.2088 18.9979 10.9912 19.7731 8.61941 19.919C8.49761 19.9268 8.21629 19.8952 7.77546 19.8243C6.91056 19.6843 6.71277 18.6727 7.4704 18.2579C8.50291 17.6922 9.54633 17.4458 10.7984 17.2413C11.9784 17.0485 13.1646 16.958 14.3569 16.9698C14.362 16.9695 14.3671 16.9711 14.3711 16.9743C14.3752 16.9774 14.378 16.9818 14.3791 16.9868C14.3802 16.9918 14.3795 16.9971 14.3771 17.0016C14.3748 17.0061 14.3709 17.0097 14.3661 17.0117C12.809 17.7399 11.1689 18.0978 9.59745 18.5646ZM20.7683 8.90404C20.2579 8.4037 19.0066 7.97963 18.368 8.4037C18.3356 8.42493 18.3384 8.43946 18.3764 8.44728L20.7574 8.92499C20.7847 8.93058 20.7884 8.92359 20.7683 8.90404ZM23.3068 30.2584C22.9531 30.2643 22.2894 30.1796 21.8175 30.2768C21.4354 30.3556 20.9552 30.4975 20.3769 30.7026C19.9595 30.8501 19.4223 31.5851 20.1037 31.7611C20.4146 31.8415 20.9191 31.8164 21.2912 31.7711C24.0485 31.4359 26.567 30.0966 28.5784 28.1799C29.6952 27.115 30.466 25.842 30.8906 24.3608C30.8921 24.3548 30.8916 24.3485 30.8892 24.3428C30.8868 24.3371 30.8825 24.3324 30.8772 24.3294C30.8719 24.3264 30.8658 24.3253 30.8599 24.3263C30.854 24.3273 30.8485 24.3303 30.8445 24.3348C30.1953 25.064 29.5039 25.7534 28.7703 26.4032C28.0328 27.0552 27.654 27.9285 26.9994 28.6334C26.0177 29.6899 24.7869 30.2316 23.3068 30.2584ZM23.9128 29.4815C24.8151 29.334 25.5825 28.9298 26.215 28.2688C26.2212 28.2625 26.225 28.254 26.2255 28.245C26.2259 28.236 26.2231 28.2272 26.2176 28.2202C26.212 28.2133 26.2041 28.2088 26.1954 28.2075C26.1867 28.2063 26.1778 28.2084 26.1705 28.2135C26.0197 28.3082 25.8948 28.4331 25.7373 28.5093C25.0919 28.8239 24.4762 29.1239 23.8901 29.4094C23.7342 29.4854 23.7418 29.5094 23.9128 29.4815Z" fill="#E71E24"/>
</svg>
