<svg width="40" height="40" viewBox="0 0 40 40" fill="none" xmlns="http://www.w3.org/2000/svg">
<rect x="0.5" y="0.5" width="39" height="39" rx="3.5" fill="#FAFAFA"/>
<rect x="0.5" y="0.5" width="39" height="39" rx="3.5" stroke="#E6E6E6"/>
<path fill-rule="evenodd" clip-rule="evenodd" d="M18.2298 18.5646L17.3866 19.7892L16.5384 18.5646H15.8659L17.0403 20.2108L15.8057 21.9373H16.4782L17.3866 20.6374L18.285 21.9373H18.9575L17.7229 20.2108L18.8973 18.5646H18.2298Z" fill="#446CB3"/>
<path fill-rule="evenodd" clip-rule="evenodd" d="M20.7793 19.0063C21.0253 19.0063 21.216 19.0866 21.3465 19.2422C21.4719 19.3927 21.5422 19.6136 21.5472 19.8946H19.9161C19.9462 19.6236 20.0366 19.4078 20.1771 19.2522C20.3277 19.0866 20.5284 19.0063 20.7793 19.0063ZM20.7844 18.5044C20.3327 18.5044 19.9663 18.665 19.7003 18.9862C19.4343 19.3024 19.2988 19.739 19.2988 20.276C19.2988 20.8131 19.4443 21.2346 19.7304 21.5358C20.0165 21.8369 20.418 21.9925 20.9149 21.9925C21.1407 21.9925 21.3314 21.9774 21.492 21.9423C21.6526 21.9072 21.8233 21.8519 21.9989 21.7767L22.024 21.7666V21.2296L21.9638 21.2547C21.6225 21.4003 21.2762 21.4755 20.9299 21.4755C20.6087 21.4755 20.3527 21.3802 20.1771 21.1895C20.0065 21.0038 19.9111 20.7328 19.896 20.3814H22.1645V20.0251C22.1645 19.5734 22.0391 19.202 21.7932 18.926C21.5472 18.6449 21.2059 18.5044 20.7844 18.5044Z" fill="#446CB3"/>
<path fill-rule="evenodd" clip-rule="evenodd" d="M24.5284 18.5044C24.2975 18.5044 24.0817 18.5496 23.896 18.6399C23.7304 18.7202 23.5899 18.8306 23.4895 18.9711L23.4142 18.5596H22.9324V21.9322H23.5146V20.1656C23.5146 19.7491 23.5899 19.4479 23.7455 19.2723C23.896 19.0966 24.142 19.0063 24.4682 19.0063C24.7141 19.0063 24.8948 19.0665 25.0102 19.192C25.1256 19.3174 25.1809 19.5082 25.1809 19.7641V21.9322H25.763V19.744C25.763 19.3124 25.6576 18.9962 25.4519 18.7955C25.2461 18.6048 24.9349 18.5044 24.5284 18.5044Z" fill="#446CB3"/>
<path fill-rule="evenodd" clip-rule="evenodd" d="M27.9914 21.4906C27.7053 21.4906 27.4945 21.3902 27.349 21.1894C27.2034 20.9837 27.1282 20.6725 27.1282 20.266C27.1282 19.8645 27.2034 19.5483 27.354 19.3275C27.4995 19.1116 27.7103 19.0062 27.9914 19.0062C28.3176 19.0062 28.5535 19.1016 28.699 19.2873C28.8496 19.478 28.9249 19.8042 28.9249 20.2559V20.3613C28.9249 20.7628 28.8496 21.0539 28.7041 21.2296C28.5535 21.4052 28.3176 21.4906 27.9914 21.4906ZM28.9149 18.5646L28.9249 18.7955L28.9399 18.946C28.699 18.6499 28.3578 18.4993 27.9261 18.4993C27.4845 18.4993 27.1382 18.6549 26.8923 18.9661C26.6463 19.2722 26.5209 19.7039 26.5209 20.2559C26.5209 20.803 26.6463 21.2346 26.8872 21.5357C27.1332 21.8369 27.4845 21.9924 27.9261 21.9924C28.3728 21.9924 28.7191 21.8369 28.955 21.5257L29.0152 21.9322H29.5021V17.1844H28.9199L28.9149 18.5646Z" fill="#446CB3"/>
<path fill-rule="evenodd" clip-rule="evenodd" d="M30.7668 17.3401C30.6714 17.3401 30.5911 17.3702 30.5259 17.4304C30.4607 17.4906 30.4305 17.586 30.4305 17.7115C30.4305 17.8369 30.4607 17.9273 30.5259 17.9925C30.5911 18.0577 30.6714 18.0879 30.7668 18.0879C30.8571 18.0879 30.9374 18.0577 31.0027 17.9925C31.0679 17.9273 31.1031 17.8369 31.1031 17.7115C31.1031 17.586 31.0679 17.4956 31.0027 17.4304C30.9374 17.3702 30.8571 17.3401 30.7668 17.3401Z" fill="#446CB3"/>
<path fill-rule="evenodd" clip-rule="evenodd" d="M30.4707 21.9373H31.0579V18.5646H30.4707V21.9373Z" fill="#446CB3"/>
<path fill-rule="evenodd" clip-rule="evenodd" d="M33.5723 21.4404C33.5272 21.4555 33.4619 21.4655 33.3816 21.4806C33.3013 21.4906 33.221 21.5006 33.1307 21.5006C32.9801 21.5006 32.8597 21.4555 32.7743 21.3551C32.689 21.2597 32.6438 21.1142 32.6438 20.9285V19.0364H33.5974V18.5646H32.6438V17.8018H32.2825L32.0667 18.5144L31.5899 18.7252V19.0364H32.0617V20.9486C32.0617 21.6412 32.3979 21.9975 33.0604 21.9975C33.1457 21.9975 33.2411 21.9875 33.3515 21.9724C33.4619 21.9523 33.5422 21.9322 33.6024 21.9021L33.6275 21.8921V21.4253L33.5723 21.4404Z" fill="#446CB3"/>
<path d="M10.5471 16H8.30866L6 20L8.30866 24L8.76537 23.212L6.91343 20L8.76537 16.793H10.0903L10.5471 16Z" fill="#446CB3"/>
<path d="M8.97114 18.7152L9.42283 17.9322L8.76537 16.793L8.30865 17.5759L8.97114 18.7152Z" fill="#D24D57"/>
<path d="M11.5609 16.793L12.0176 17.5809L8.76537 23.212L8.30865 22.4241L11.5609 16.793Z" fill="#D24D57"/>
<path d="M9.78418 24L10.2359 23.212H11.5608L13.4128 20L11.5608 16.793L12.0176 16L14.3262 20L12.0176 24H9.78418Z" fill="#446CB3"/>
<path d="M11.345 21.2698L10.8883 22.0577L11.5609 23.2121L12.0176 22.4291L11.345 21.2698Z" fill="#D24D57"/>
</svg>
