<svg width="40" height="40" viewBox="0 0 40 40" fill="none" xmlns="http://www.w3.org/2000/svg">
<rect x="0.5" y="0.5" width="39" height="39" rx="3.5" fill="#FAFAFA"/>
<rect x="0.5" y="0.5" width="39" height="39" rx="3.5" stroke="#E6E6E6"/>
<path d="M16.4113 7.45203C16.8335 7.33078 17.5243 7.17593 17.9464 7.10799C18.4294 7.03026 19.2199 6.99083 20.0786 7.00181C21.2826 7.0171 21.4782 7.03997 21.7413 7.19558C21.9054 7.29263 22.126 7.50128 22.2317 7.65919C22.3588 7.8491 22.4239 8.07446 22.4239 8.32448C22.4239 8.5324 22.3669 8.81343 22.2972 8.94913C22.2276 9.08475 22.0465 9.28468 21.8949 9.39342C21.6331 9.5812 21.5448 9.59133 20.1516 9.59347C18.8046 9.59561 18.6648 9.6103 18.4485 9.77287C18.3189 9.8703 18.1337 10.0567 18.037 10.187C17.8905 10.3846 17.8646 10.5318 17.8813 11.0688C17.8942 11.488 17.8598 11.7938 17.7826 11.943C17.7175 12.0692 17.5742 12.2559 17.4641 12.3578C17.3541 12.4599 17.021 12.642 16.7238 12.7628C16.4266 12.8835 15.8681 13.1936 15.4827 13.4519C15.0973 13.7101 14.4917 14.2273 14.137 14.6012C13.7823 14.9752 13.3297 15.5562 13.1314 15.8924C12.933 16.2287 12.6621 16.7854 12.5296 17.1295C12.397 17.4735 12.223 18.0807 12.143 18.4788C12.0319 19.0316 12.0083 19.4576 12.0432 20.2824C12.0739 21.0125 12.148 21.569 12.2717 22.0007C12.3724 22.3518 12.5822 22.9169 12.738 23.2565C12.8938 23.5961 13.1865 24.1205 13.3885 24.4218C13.5905 24.7231 14.0079 25.2234 14.316 25.5337C14.624 25.844 15.1064 26.2542 15.3879 26.4453C15.6693 26.6363 16.1377 26.9135 16.4286 27.0613C16.7196 27.209 17.2953 27.4341 17.7079 27.5614C18.3847 27.7702 18.5917 27.7933 19.8227 27.798C20.9008 27.802 21.3111 27.7693 21.7771 27.6425C22.1014 27.5541 22.6278 27.3734 22.9467 27.2409C23.2657 27.1085 23.8054 26.8185 24.1463 26.5964C24.4872 26.3743 25.0301 25.9368 25.3529 25.624C25.6756 25.3113 26.1088 24.8175 26.3157 24.5267C26.5225 24.2358 26.844 23.6707 27.0302 23.2708C27.2162 22.8708 27.4421 22.2198 27.532 21.8241C27.6222 21.4284 27.7193 20.9064 27.748 20.6641L27.8 20.2236L27.3515 20.0759C27.1047 19.9947 26.7442 19.8344 26.5503 19.72C26.3562 19.6056 25.9989 19.3003 25.756 19.0416C25.5131 18.7831 25.2167 18.3565 25.0972 18.0939C24.9778 17.8312 24.8378 17.3674 24.7861 17.0631C24.7175 16.6595 24.7175 16.3599 24.7861 15.9563C24.8378 15.652 24.9778 15.1881 25.0972 14.9255C25.2167 14.6629 25.5131 14.2363 25.756 13.9778C25.9989 13.7191 26.3564 13.4137 26.5505 13.2992C26.7447 13.1846 27.1295 13.0247 27.4058 12.9438C27.7698 12.8372 28.1135 12.8067 28.6549 12.8328C29.3045 12.864 29.4854 12.9102 30.0402 13.1864C30.494 13.4123 30.8156 13.653 31.1525 14.0195C31.4132 14.303 31.7409 14.7768 31.8812 15.0725C32.0212 15.3683 32.2139 15.8995 32.3091 16.2531C32.4047 16.6068 32.5381 17.2247 32.6058 17.6262C32.6738 18.0278 32.7557 18.7814 32.7882 19.301C32.8245 19.8795 32.8073 20.6287 32.7442 21.2335C32.6876 21.7767 32.5347 22.6463 32.4047 23.1659C32.2743 23.6855 32.0449 24.4234 31.8946 24.8056C31.7443 25.1879 31.4614 25.7962 31.2656 26.1575C31.0699 26.5188 30.6619 27.1676 30.3587 27.5993C30.0555 28.0311 29.4766 28.7198 29.0725 29.1296C28.6679 29.5395 27.995 30.134 27.5767 30.4506C27.1471 30.7758 26.2965 31.2866 25.6221 31.6244C24.952 31.9601 24.0452 32.335 23.5553 32.4787C23.0753 32.6196 22.2836 32.7946 21.796 32.8675C21.3084 32.9403 20.4589 33 19.908 33C19.3571 33 18.5058 32.94 18.0161 32.8669C17.5265 32.7936 16.7923 32.6368 16.3848 32.5183C15.9772 32.3997 15.3175 32.1693 14.9188 32.0062C14.5201 31.843 13.8868 31.5319 13.5116 31.3149C13.1363 31.0979 12.4806 30.6552 12.0545 30.3312C11.6285 30.0074 10.9914 29.4383 10.6389 29.0667C10.2864 28.6952 9.78555 28.1044 9.52593 27.7539C9.26632 27.4035 8.87735 26.8075 8.6614 26.4297C8.44556 26.0517 8.12052 25.3754 7.93921 24.9266C7.7579 24.4779 7.50971 23.7242 7.38767 23.2518C7.26562 22.7794 7.12063 22.0451 7.06546 21.62C7.00294 21.1388 6.98367 20.3282 7.0143 19.4728C7.04722 18.5522 7.12139 17.8434 7.23908 17.3256C7.33574 16.9005 7.51602 16.2434 7.63986 15.8655C7.76359 15.4876 8.00666 14.8693 8.17979 14.4913C8.35303 14.1135 8.65937 13.5337 8.86064 13.203C9.06191 12.8724 9.4659 12.2927 9.75833 11.9147C10.0509 11.5368 10.5792 10.9514 10.9324 10.6139C11.2856 10.2763 11.8569 9.78801 12.2019 9.52878C12.547 9.26958 13.1363 8.87958 13.5116 8.6621C13.8868 8.44465 14.5201 8.13304 14.9188 7.96962C15.3175 7.80624 15.9891 7.57339 16.4113 7.45203Z" fill="#212121"/>
<path d="M23.7651 8.42619C23.9298 8.24262 24.1847 8.05729 24.3315 8.01443C24.4785 7.97157 24.6769 7.93303 24.7725 7.92871C24.8681 7.9245 25.1172 8.00801 25.3262 8.11423C25.5351 8.22048 25.7961 8.44274 25.9061 8.60807C26.0709 8.85568 26.1004 8.99295 26.0731 9.38666C26.0515 9.69789 25.9751 9.95644 25.854 10.1276C25.7517 10.2722 25.5368 10.4533 25.3764 10.53C25.2159 10.6067 24.9138 10.6694 24.705 10.6694C24.4539 10.6694 24.2272 10.6039 24.0356 10.4761C23.8762 10.3696 23.6559 10.1002 23.546 9.87725C23.3872 9.55482 23.3585 9.39885 23.4059 9.11584C23.4443 8.88688 23.5724 8.64088 23.7651 8.42619Z" fill="#212121"/>
</svg>
