<svg width="40" height="40" viewBox="0 0 40 40" fill="none" xmlns="http://www.w3.org/2000/svg">
<g clip-path="url(#clip0_93_9)">
<path d="M36 0.5H4C2.067 0.5 0.5 2.067 0.5 4V36C0.5 37.933 2.067 39.5 4 39.5H36C37.933 39.5 39.5 37.933 39.5 36V4C39.5 2.067 37.933 0.5 36 0.5Z" fill="#FAFAFA"/>
<path d="M36 0.5H4C2.067 0.5 0.5 2.067 0.5 4V36C0.5 37.933 2.067 39.5 4 39.5H36C37.933 39.5 39.5 37.933 39.5 36V4C39.5 2.067 37.933 0.5 36 0.5Z" stroke="#E6E6E6"/>
<g clip-path="url(#clip1_93_9)">
<path d="M26.37 13.6138C26.6255 13.6151 26.6255 13.6151 26.8862 13.6165C27.35 13.64 27.35 13.64 27.91 13.78C27.91 14.3344 27.91 14.8888 27.91 15.46C27.7252 15.4138 27.5404 15.3676 27.35 15.32C27.0338 15.2776 27.0338 15.2776 26.7112 15.2675C26.6042 15.2607 26.4972 15.2538 26.3869 15.2467C26.0642 15.2964 26.0642 15.2964 25.8472 15.5962C25.6136 16.1548 25.5915 16.6542 25.5737 17.2538C25.5593 17.632 25.5449 18.0103 25.53 18.4C26.6388 18.4 27.7476 18.4 28.89 18.4C28.89 17.5222 28.89 16.6444 28.89 15.74C29.3982 15.74 29.9064 15.74 30.43 15.74C30.43 16.6178 30.43 17.4956 30.43 18.4C31.123 18.4 31.816 18.4 32.53 18.4C32.53 18.862 32.53 19.324 32.53 19.8C31.837 19.8 31.144 19.8 30.43 19.8C30.4436 20.4401 30.458 21.0801 30.4744 21.7201C30.4798 21.9374 30.4846 22.1548 30.4891 22.3722C30.4955 22.6861 30.5036 22.9999 30.512 23.3137C30.5136 23.4097 30.5153 23.5057 30.5169 23.6046C30.5364 24.2517 30.6522 24.7896 30.85 25.4C31.4486 25.4117 31.9369 25.3786 32.53 25.26C32.53 25.7682 32.53 26.2764 32.53 26.8C31.8809 27.0596 31.5299 27.1252 30.85 27.1325C30.6825 27.1365 30.515 27.1404 30.3425 27.1445C29.7743 27.0669 29.5587 26.9378 29.17 26.52C28.8437 25.7841 28.8535 25.1004 28.8627 24.3117C28.863 24.1824 28.8634 24.0531 28.8639 23.9198C28.8654 23.509 28.8689 23.0983 28.8725 22.6875C28.8739 22.4081 28.8752 22.1286 28.8763 21.8491C28.8792 21.1661 28.8846 20.4831 28.89 19.8C27.7812 19.8 26.6724 19.8 25.53 19.8C25.53 22.11 25.53 24.42 25.53 26.8C24.9756 26.8 24.4212 26.8 23.85 26.8C23.85 24.49 23.85 22.18 23.85 19.8C23.5266 19.8 23.2032 19.8 22.87 19.8C22.87 19.338 22.87 18.876 22.87 18.4C23.1934 18.4 23.5168 18.4 23.85 18.4C23.8467 18.2311 23.8435 18.0622 23.8402 17.8881C23.8375 17.6621 23.835 17.4361 23.8325 17.21C23.8301 17.0992 23.8278 16.9884 23.8254 16.8742C23.8181 15.9899 23.8351 14.9789 24.4625 14.2875C25.0853 13.6647 25.4912 13.6035 26.37 13.6138Z" fill="#575859"/>
<path d="M17.0452 14.9785C17.2084 14.9873 17.2084 14.9873 17.375 14.9963C17.5414 15.0011 17.5414 15.0011 17.7113 15.0059C17.9843 15.0141 18.2572 15.0267 18.53 15.0401C18.408 15.6652 18.0529 16.0303 17.6375 16.4926C17.0504 17.1603 16.4831 17.8362 15.94 18.5401C15.3451 19.3082 14.7244 20.0491 14.0886 20.7835C13.592 21.358 13.1118 21.9428 12.6412 22.5388C12.3367 22.9219 12.0254 23.299 11.7137 23.6763C11.3569 24.1094 11.016 24.5435 10.6987 25.0063C10.6034 25.1363 10.5081 25.2662 10.41 25.4001C10.3176 25.4001 10.2252 25.4001 10.13 25.4001C10.0953 25.4751 10.0607 25.5502 10.025 25.6276C9.96721 25.7373 9.90946 25.847 9.84996 25.9601C9.78643 26.1102 9.72291 26.2604 9.65746 26.4151C9.28996 26.8001 9.28996 26.8001 8.8798 26.8537C8.45356 26.8527 8.03459 26.8361 7.60996 26.8001C7.54795 25.9273 7.60827 25.5425 8.18746 24.8488C8.24908 24.7734 8.3107 24.698 8.37418 24.6203C8.51001 24.4547 8.6471 24.2902 8.78526 24.1266C9.0247 23.8426 9.26012 23.5556 9.49504 23.2678C9.91079 22.7593 10.3292 22.253 10.7485 21.7474C11.2454 21.1475 11.7376 20.5437 12.23 19.9401C12.2976 19.8573 12.3652 19.7746 12.4348 19.6893C13.3889 18.5213 14.334 17.347 15.2624 16.1584C15.3705 16.0204 15.4786 15.8823 15.59 15.7401C15.6713 15.6072 15.7527 15.4744 15.8366 15.3376C16.2462 14.9487 16.4969 14.9668 17.0452 14.9785Z" fill="#D77B26"/>
<path d="M16.01 23.72C16.703 23.72 17.396 23.72 18.11 23.72C18.11 24.7364 18.11 25.7528 18.11 26.8C15.4304 26.8 12.7508 26.8 9.98999 26.8C10.2144 25.9023 10.6617 25.2722 11.39 24.7C12.1919 24.4938 12.9561 24.5087 13.7787 24.5338C13.9956 24.5348 14.2124 24.535 14.4292 24.5346C14.9566 24.535 15.4829 24.5449 16.01 24.56C16.01 24.2828 16.01 24.0056 16.01 23.72Z" fill="#D27825"/>
<path d="M15.3098 15.0401C15.1908 15.6232 14.9244 15.9406 14.5398 16.3963C14.4258 16.5326 14.3117 16.6688 14.1942 16.8092C13.9098 17.1401 13.9098 17.1401 13.7698 17.2801C13.4593 17.2923 13.1483 17.295 12.8374 17.2937C12.6979 17.2934 12.6979 17.2934 12.5555 17.2931C12.2574 17.2923 11.9592 17.2906 11.6611 17.2888C11.4594 17.2881 11.2577 17.2875 11.056 17.2869C10.5606 17.2853 10.0652 17.2829 9.56985 17.2801C9.56985 17.5573 9.56985 17.8345 9.56985 18.1201C8.87685 18.1201 8.18385 18.1201 7.46985 18.1201C7.46985 17.1499 7.46985 16.1797 7.46985 15.1801C10.0841 15.0908 12.6937 15.0163 15.3098 15.0401Z" fill="#D37925"/>
<path d="M19.9299 18.4C20.4381 18.4 20.9463 18.4 21.4699 18.4C21.4699 21.172 21.4699 23.944 21.4699 26.8C20.9617 26.8 20.4535 26.8 19.9299 26.8C19.9299 24.028 19.9299 21.256 19.9299 18.4Z" fill="#58595B"/>
<path d="M19.9299 15.04C20.4381 15.04 20.9463 15.04 21.4699 15.04C21.4699 15.6868 21.4699 16.3336 21.4699 17C20.9617 17 20.4535 17 19.9299 17C19.9299 16.3532 19.9299 15.7064 19.9299 15.04Z" fill="#535456"/>
</g>
</g>
<defs>
<clipPath id="clip0_93_9">
<rect width="40" height="40" fill="white"/>
</clipPath>
<clipPath id="clip1_93_9">
<rect width="25.62" height="14" fill="white" transform="translate(7.18994 13.5)"/>
</clipPath>
</defs>
</svg>
