<svg width="40" height="40" viewBox="0 0 40 40" fill="none" xmlns="http://www.w3.org/2000/svg">
<rect width="40" height="40" rx="20" fill="white"/>
<path d="M17.6642 16.5323L15.8424 28.2816C15.7373 29.0792 16.1265 28.9644 17.2632 28.9644C19.2369 29.0478 19.1128 29.103 19.3342 27.6856C19.9981 23.4371 19.7337 23.6578 21.4525 23.8392C27.5263 24.4801 28.573 18.4682 27.1158 16.5323C25.86 14.864 22.2071 15.1965 19.9981 15.2367C17.6448 15.2795 17.8829 15.2069 17.6642 16.5323Z" fill="#009EE3"/>
<path d="M14.4262 12.5605L12.3186 26.153C12.1971 27.0758 12.6473 26.9429 13.9623 26.9429C16.2457 27.0394 16.102 27.1033 16.3582 25.4635C17.1262 20.5486 16.8204 20.8039 18.8088 21.0137C25.8354 21.7551 27.0463 14.8002 25.3605 12.5605C23.9078 10.6305 19.6818 11.0152 17.1262 11.0617C14.4037 11.1113 14.6792 11.0272 14.4262 12.5605Z" fill="#113984"/>
<path d="M26.0066 15.6901C24.5912 15.1911 22.6124 15.2519 21.0353 15.3004C20.75 15.3092 20.4779 15.3176 20.2246 15.3222C18.8545 15.3469 18.3568 15.3331 18.1382 15.5733C17.9787 15.7484 17.9676 16.0587 17.8748 16.6177L17.1497 21.2624C17.202 21.1935 17.2601 21.1416 17.3261 21.1032C17.6063 20.9404 18.0289 21.0228 18.7573 21.0991C23.6556 21.6125 25.7469 18.4362 26.0066 15.6901Z" fill="#172C70"/>
</svg>
