<svg width="14" height="14" viewBox="0 0 14 14" fill="none" xmlns="http://www.w3.org/2000/svg">
<path fill-rule="evenodd" clip-rule="evenodd" d="M13.3905 1.20229H8.3255V0.00878906L0 1.29379V12.5573L8.3255 13.9913V12.2223H13.3905C13.5439 12.2301 13.6941 12.1768 13.8083 12.0741C13.9226 11.9714 13.9915 11.8276 14 11.6743V1.74979C13.9913 1.59652 13.9224 1.45291 13.8082 1.35032C13.694 1.24773 13.5438 1.19451 13.3905 1.20229ZM13.4705 11.7653H8.3085L8.3 10.8208H9.5435V9.72079H8.2905L8.2845 9.07079H9.5435V7.97079H8.275L8.269 7.32079H9.5435V6.22079H8.265V5.57079H9.5435V4.47079H8.265V3.82079H9.5435V2.72079H8.265V1.72079H13.4705V11.7653Z" fill="#20744A"/>
<path d="M10.2441 2.71973H12.4056V3.81973H10.2441V2.71973ZM10.2441 4.47023H12.4056V5.57023H10.2441V4.47023ZM10.2441 6.22073H12.4056V7.32073H10.2441V6.22073ZM10.2441 7.97122H12.4056V9.07123H10.2441V7.97122ZM10.2441 9.72172H12.4056V10.8217H10.2441V9.72172Z" fill="#20744A"/>
<path fill-rule="evenodd" clip-rule="evenodd" d="M2.17403 4.33622L3.24703 4.27472L3.92153 6.12922L4.71853 4.19822L5.79153 4.13672L4.48853 6.76972L5.79153 9.40922L4.65703 9.33272L3.89103 7.32072L3.12453 9.25622L2.08203 9.16422L3.29303 6.83272L2.17403 4.33622Z" fill="white"/>
</svg>
