<svg width="14" height="14" viewBox="0 0 14 14" fill="none" xmlns="http://www.w3.org/2000/svg">
    <path d="M11.05 0.0361328L13.832 2.93613V13.9641H3.43945V14.0001H13.8675V2.97263L11.05 0.0361328Z" fill="#909090"/>
    <path d="M11.0158 0H3.4043V13.964H13.8323V2.9365L11.0153 0" fill="#F4F4F4"/>
    <path d="M3.32781 0.75H0.132812V4.1635H10.1828V0.75H3.32781Z" fill="#7A7B7C"/>
    <path d="M10.2358 4.10545H0.197266V0.689453H10.2358V4.10545Z" fill="#DD2025"/>
    <path d="M3.52655 1.26636H2.87305V3.66636H3.38705V2.85686L3.50055 2.86336C3.61083 2.86146 3.72008 2.84171 3.82405 2.80486C3.9152 2.77351 3.99905 2.72401 4.07055 2.65936C4.1433 2.59777 4.20065 2.52004 4.23805 2.43236C4.28819 2.28661 4.30611 2.13171 4.29055 1.97836C4.28742 1.86881 4.26822 1.76032 4.23355 1.65636C4.20198 1.58131 4.15514 1.51366 4.096 1.45771C4.03686 1.40175 3.96672 1.35872 3.89005 1.33136C3.82375 1.30736 3.75525 1.28994 3.68555 1.27936C3.63276 1.27122 3.57946 1.26687 3.52605 1.26636M3.43155 2.41336H3.38705V1.67336H3.48355C3.52614 1.67029 3.56887 1.67683 3.6086 1.69249C3.64832 1.70816 3.68402 1.73255 3.71305 1.76386C3.77321 1.84437 3.80534 1.94236 3.80455 2.04286C3.80455 2.16586 3.80455 2.27736 3.69355 2.35586C3.61358 2.39984 3.52256 2.41964 3.43155 2.41286M5.26705 1.25986C5.21155 1.25986 5.15755 1.26386 5.11955 1.26536L5.00055 1.26836H4.61055V3.66836H5.06955C5.24496 3.67317 5.41961 3.64344 5.58355 3.58086C5.7155 3.52852 5.83235 3.44415 5.92355 3.33536C6.01223 3.22559 6.07588 3.09778 6.11005 2.96086C6.14933 2.80579 6.16849 2.64632 6.16705 2.48636C6.17675 2.29744 6.16213 2.10805 6.12355 1.92286C6.08694 1.78654 6.01838 1.66091 5.92355 1.55636C5.84914 1.47194 5.75806 1.40384 5.65605 1.35636C5.56844 1.31582 5.47628 1.28594 5.38155 1.26736C5.34388 1.26114 5.30572 1.25829 5.26755 1.25886M5.17655 3.22736H5.12655V1.69536H5.13305C5.23613 1.6835 5.34042 1.7021 5.43305 1.74886C5.50088 1.80302 5.55615 1.87126 5.59505 1.94886C5.63702 2.03053 5.66122 2.12016 5.66605 2.21186C5.67055 2.32186 5.66605 2.41186 5.66605 2.48636C5.66808 2.57218 5.66256 2.65801 5.64955 2.74286C5.63414 2.82997 5.60565 2.91426 5.56505 2.99286C5.51909 3.06594 5.457 3.12751 5.38355 3.17286C5.32186 3.21276 5.24881 3.23137 5.17555 3.22586M7.71555 1.26836H6.50055V3.66836H7.01455V2.71636H7.66455V2.27036H7.01455V1.71436H7.71455V1.26836" fill="#464648"/>
    <path d="M9.89035 9.12775C9.89035 9.12775 11.4843 8.83875 11.4843 9.38325C11.4843 9.92775 10.4968 9.70625 9.89035 9.12775ZM8.71185 9.16925C8.45859 9.22521 8.21179 9.30714 7.97535 9.41375L8.17535 8.96375C8.37535 8.51375 8.58285 7.90025 8.58285 7.90025C8.8215 8.30192 9.09918 8.67907 9.41185 9.02625C9.17605 9.06141 8.94237 9.10948 8.71185 9.17025V9.16925ZM8.08085 5.91925C8.08085 5.44475 8.23435 5.31525 8.35385 5.31525C8.47335 5.31525 8.60785 5.37275 8.61235 5.78475C8.57341 6.19903 8.48667 6.60741 8.35385 7.00175C8.17191 6.67067 8.07775 6.29852 8.08035 5.92075L8.08085 5.91925ZM5.75635 11.1772C5.26735 10.8847 6.78185 9.98425 7.05635 9.95525C7.05485 9.95575 6.26835 11.4832 5.75635 11.1772ZM11.9498 9.44775C11.9448 9.39775 11.8998 8.84425 10.9148 8.86775C10.5043 8.86113 10.0939 8.89007 9.68835 8.95425C9.29548 8.55845 8.95716 8.11201 8.68235 7.62675C8.85548 7.12646 8.96026 6.60508 8.99385 6.07675C8.97935 5.47675 8.83585 5.13275 8.37585 5.13775C7.91585 5.14275 7.84885 5.54525 7.90935 6.14425C7.96861 6.54677 8.0804 6.93979 8.24185 7.31325C8.24185 7.31325 8.02935 7.97475 7.74835 8.63275C7.46735 9.29075 7.27535 9.63575 7.27535 9.63575C6.78671 9.79482 6.32671 10.0311 5.91285 10.3357C5.50085 10.7192 5.33335 11.0137 5.55035 11.3082C5.73735 11.5622 6.39185 11.6197 6.97685 10.8532C7.28767 10.4574 7.57164 10.0411 7.82685 9.60725C7.82685 9.60725 8.71885 9.36275 8.99635 9.29575C9.27385 9.22875 9.60935 9.17575 9.60935 9.17575C9.60935 9.17575 10.4238 9.99525 11.2093 9.96625C11.9948 9.93725 11.9568 9.49675 11.9518 9.44875" fill="#DD2025"/>
    <path d="M10.9766 0.0380859V2.97459H13.7931L10.9766 0.0380859Z" fill="#909090"/>
    <path d="M11.0156 0V2.9365H13.8321L11.0156 0Z" fill="#F4F4F4"/>
    <path d="M3.48748 1.22827H2.83398V3.62827H3.34998V2.81927L3.46398 2.82577C3.57427 2.82388 3.68352 2.80412 3.78748 2.76727C3.87863 2.73591 3.96248 2.68642 4.03398 2.62177C4.10619 2.56002 4.16302 2.4823 4.19998 2.39477C4.25013 2.24902 4.26804 2.09412 4.25248 1.94077C4.24936 1.83123 4.23016 1.72274 4.19548 1.61877C4.16392 1.54373 4.11708 1.47607 4.05794 1.42012C3.9988 1.36417 3.92866 1.32114 3.85198 1.29377C3.78538 1.26954 3.71655 1.25195 3.64648 1.24127C3.5937 1.23313 3.54039 1.22878 3.48698 1.22827M3.39248 2.37527H3.34798V1.63527H3.44498C3.48757 1.6322 3.53031 1.63874 3.57003 1.65441C3.60976 1.67007 3.64545 1.69446 3.67448 1.72577C3.73464 1.80628 3.76678 1.90428 3.76598 2.00477C3.76598 2.12777 3.76598 2.23927 3.65498 2.31777C3.57502 2.36176 3.484 2.38156 3.39298 2.37477M5.22798 1.22177C5.17248 1.22177 5.11848 1.22577 5.08048 1.22727L4.96298 1.23027H4.57298V3.63027H5.03198C5.2074 3.63508 5.38204 3.60535 5.54598 3.54277C5.67794 3.49044 5.79479 3.40606 5.88598 3.29727C5.97467 3.1875 6.03831 3.05969 6.07248 2.92277C6.11177 2.76771 6.13092 2.60823 6.12948 2.44827C6.13918 2.25935 6.12456 2.06997 6.08598 1.88477C6.04938 1.74846 5.98082 1.62282 5.88598 1.51827C5.81158 1.43386 5.7205 1.36576 5.61848 1.31827C5.53087 1.27773 5.43872 1.24785 5.34398 1.22927C5.30631 1.22305 5.26816 1.22021 5.22998 1.22077M5.13898 3.18927H5.08898V1.65727H5.09548C5.19856 1.64541 5.30286 1.66401 5.39548 1.71077C5.46332 1.76494 5.51859 1.83317 5.55748 1.91077C5.59946 1.99244 5.62366 2.08208 5.62848 2.17377C5.63298 2.28377 5.62848 2.37377 5.62848 2.44827C5.63052 2.53409 5.625 2.61992 5.61198 2.70477C5.59657 2.79189 5.56809 2.87617 5.52748 2.95477C5.48153 3.02785 5.41944 3.08943 5.34598 3.13477C5.2843 3.17467 5.21124 3.19329 5.13798 3.18777M7.67648 1.23027H6.46148V3.63027H6.97548V2.67827H7.62548V2.23227H6.97548V1.67627H7.67548V1.23027" fill="white"/>
</svg>
