<svg width="226" height="24" viewBox="0 0 226 24" fill="none" xmlns="http://www.w3.org/2000/svg">
<path fill-rule="evenodd" clip-rule="evenodd" d="M11.2135 22.5223C10.6745 22.5373 10.1505 22.4923 9.61157 22.4172C8.15938 22.207 6.79702 21.7416 5.53945 20.9759C2.75484 19.2944 0.973289 16.8473 0.239709 13.6344C0.0750278 12.9138 0.000172736 12.1781 0.000172736 11.4425C-0.0147983 8.49987 0.943347 5.91758 2.88958 3.72564C4.5813 1.83397 6.67725 0.677942 9.14747 0.197516C9.83613 0.0623966 10.5248 -0.0126699 11.2135 0.0173567C11.2135 1.14335 11.2135 2.25434 11.2135 3.38033C11.1835 3.39535 11.1536 3.41036 11.1236 3.44039C10.7194 3.72564 10.3152 4.02591 9.92596 4.34119C9.04267 5.06182 8.20429 5.8275 7.50065 6.74331C6.55748 7.95939 5.9287 9.29557 5.83887 10.872C5.79396 11.6226 5.88378 12.3583 6.12332 13.0639C6.70719 14.8205 8.51868 16.6371 11.0638 16.6821C11.2135 16.6821 11.2434 16.7121 11.2434 16.8773C11.2284 17.643 11.2284 19.1743 11.2284 19.1743C11.2284 19.1743 11.2284 19.2644 11.2284 19.3094C11.2135 20.3754 11.2135 21.4413 11.2135 22.5223Z" fill="#0099FF"/>
<path fill-rule="evenodd" clip-rule="evenodd" d="M11.2132 3.36528C11.2132 3.36528 11.2132 1.1283 11.2132 0.00229919C11.827 -0.0127141 12.4258 0.0473391 13.0247 0.137419C14.1475 0.317578 15.2254 0.647871 16.2434 1.17334C18.3543 2.26931 20.0161 3.83069 21.139 5.96258C21.7827 7.19367 22.2019 8.49982 22.3666 9.86603C22.5612 11.4725 22.4115 13.0639 21.9324 14.6102C21.3785 16.3668 20.4503 17.9132 19.1478 19.2193C17.5609 20.7957 15.6745 21.8166 13.4888 22.282C12.7402 22.4322 11.9767 22.5222 11.2132 22.5072C11.2132 21.4263 11.2132 20.3603 11.2132 19.2794C11.2132 19.2343 11.2132 19.1593 11.2132 19.1593C11.2132 19.1593 11.2581 19.1292 11.2731 19.1142C12.4408 18.2885 13.5486 17.3877 14.5068 16.3067C15.1356 15.6011 15.6745 14.8504 16.0488 13.9797C16.5728 12.7486 16.7824 11.4875 16.5129 10.1513C16.0338 7.71913 13.863 5.90252 11.3629 5.84247C11.1982 5.84247 11.2132 5.70735 11.2132 5.70735V3.36528Z" fill="#0561E2"/>
<path d="M36.9044 14.7624C36.9044 15.3826 36.8027 15.9733 36.614 16.5492C36.4253 17.1251 36.1204 17.6272 35.743 18.0702C35.351 18.5132 34.8719 18.8528 34.2912 19.1186C33.7106 19.3697 33.0282 19.5026 32.2733 19.5026C31.0539 19.5026 30.0522 19.2072 29.2828 18.6313C28.4988 18.0554 27.9907 17.1399 27.7439 15.8847L30.3135 15.2645C30.4006 15.7813 30.6038 16.1948 30.9377 16.5049C31.2571 16.815 31.6636 16.9627 32.1427 16.9627C32.9266 16.9627 33.4638 16.6969 33.7396 16.1505C34.0154 15.6189 34.1606 14.8658 34.1606 13.9207V3.42141H36.9044V14.7624Z" fill="#1C1C1C"/>
<path d="M52.0309 13.3448C52.0309 14.2899 51.8712 15.1463 51.5518 15.8995C51.2324 16.6673 50.7969 17.3023 50.2453 17.8339C49.6936 18.3655 49.0403 18.779 48.2854 19.0596C47.5305 19.3549 46.703 19.4878 45.8175 19.4878C44.9319 19.4878 44.1044 19.3401 43.364 19.0596C42.6091 18.779 41.9559 18.3655 41.3897 17.8339C40.8235 17.3023 40.388 16.6526 40.0831 15.8995C39.7637 15.1463 39.6186 14.2899 39.6186 13.3448V3.42141H42.3624V13.2562C42.3624 13.6401 42.4204 14.0388 42.5366 14.4671C42.6527 14.8805 42.8414 15.2792 43.1173 15.6337C43.3786 15.9881 43.7415 16.2834 44.1915 16.5049C44.6271 16.7412 45.1787 16.8445 45.832 16.8445C46.4853 16.8445 47.0369 16.7264 47.4725 16.5049C47.908 16.2834 48.2709 15.9881 48.5467 15.6337C48.808 15.2792 49.0113 14.8953 49.1274 14.4671C49.2436 14.0388 49.3016 13.6401 49.3016 13.2562V3.42141H52.0454V13.3448H52.0309Z" fill="#1C1C1C"/>
<path d="M62.4255 6.78824C62.1351 6.36 61.7431 6.04989 61.2641 5.84315C60.7705 5.63642 60.2624 5.54782 59.7252 5.54782C59.4059 5.54782 59.101 5.59212 58.7961 5.66595C58.4913 5.73979 58.2299 5.85792 57.9977 6.02036C57.7509 6.18279 57.5622 6.38953 57.417 6.65533C57.2718 6.92114 57.1992 7.21648 57.1992 7.57088C57.1992 8.10249 57.3734 8.51597 57.7509 8.78177C58.1138 9.06234 58.5638 9.31338 59.101 9.50535C59.6381 9.71209 60.2188 9.91882 60.8576 10.1108C61.4963 10.3028 62.077 10.5686 62.6287 10.9082C63.1658 11.2478 63.6159 11.7056 63.9788 12.252C64.3417 12.8131 64.5305 13.5662 64.5305 14.4818C64.5305 15.3235 64.3853 16.0619 64.0804 16.6821C63.7756 17.317 63.3691 17.8339 62.8465 18.2474C62.3238 18.6608 61.7286 18.9709 61.0463 19.1777C60.364 19.3844 59.6381 19.4878 58.8977 19.4878C57.9396 19.4878 57.0105 19.3253 56.1395 19.0005C55.2539 18.6756 54.4845 18.1292 53.8457 17.3613L55.9217 15.3235C56.2556 15.8404 56.6911 16.2391 57.2428 16.5344C57.7944 16.8297 58.3606 16.9626 58.9703 16.9626C59.2897 16.9626 59.6091 16.9183 59.9285 16.8297C60.2479 16.7411 60.5382 16.6082 60.7995 16.431C61.0608 16.2538 61.2641 16.0323 61.4238 15.7518C61.5834 15.4859 61.6706 15.1611 61.6706 14.8067C61.6706 14.2308 61.4818 13.7878 61.1189 13.4776C60.756 13.1675 60.3059 12.9017 59.7688 12.695C59.2316 12.4883 58.6364 12.2815 57.9977 12.0896C57.3589 11.8976 56.7637 11.6318 56.2411 11.3069C55.7039 10.982 55.2539 10.539 54.891 9.97789C54.528 9.41675 54.3393 8.6784 54.3393 7.74809C54.3393 6.93591 54.499 6.24186 54.8329 5.65119C55.1523 5.06051 55.5878 4.5732 56.1249 4.17449C56.6476 3.79055 57.2573 3.49522 57.9396 3.30325C58.6219 3.11128 59.3187 3.02268 60.0301 3.02268C60.8431 3.02268 61.627 3.15558 62.3964 3.39185C63.1513 3.64289 63.8482 4.05636 64.4579 4.63227L62.4255 6.78824Z" fill="#1C1C1C"/>
<path d="M72.0072 3.42141C72.7476 3.42141 73.4589 3.49525 74.1558 3.64292C74.8381 3.79059 75.4478 4.04163 75.9704 4.38126C76.4931 4.73567 76.9141 5.19344 77.2189 5.76935C77.5238 6.36003 77.6835 7.08361 77.6835 7.95486C77.6835 8.94424 77.5093 9.74166 77.1754 10.3471C76.8415 10.9525 76.3914 11.4251 75.8253 11.75C75.2591 12.0748 74.6058 12.3111 73.8509 12.4292C73.096 12.5474 72.3266 12.6064 71.5136 12.6064H69.5538V19.1039H66.81V3.42141H72.0072ZM71.2233 10.229C71.6152 10.229 72.0217 10.2142 72.4427 10.1847C72.8637 10.1551 73.2557 10.0665 73.6041 9.91886C73.9525 9.77119 74.2429 9.54968 74.4751 9.25435C74.6929 8.95901 74.809 8.54553 74.809 8.01393C74.809 7.52662 74.7074 7.14268 74.5042 6.84734C74.3009 6.552 74.0396 6.3305 73.7202 6.18283C73.4009 6.02039 73.0379 5.93179 72.646 5.88749C72.254 5.84319 71.8765 5.81365 71.5136 5.81365H69.5538V10.229H71.2233Z" fill="#1C1C1C"/>
<path d="M82.9531 3.42141H85.3194L91.9683 19.1039H88.8326L87.3954 15.5155H80.7174L79.3237 19.1039H76.2461L82.9531 3.42141ZM86.4372 13.1233L84.0564 6.74397L81.6465 13.1233H86.4372Z" fill="#1C1C1C"/>
<path d="M95.3072 12.3997L89.5148 3.42141H92.9554L96.7444 9.66782L100.577 3.42141H103.843L98.0509 12.3997V19.1186H95.3072V12.3997Z" fill="#1C1C1C"/>
<path d="M110.472 19.3491V3.3457H112.436V10.1741L112.077 9.98382C112.358 9.26504 112.809 8.70834 113.428 8.31372C114.062 7.90501 114.801 7.70065 115.646 7.70065C116.463 7.70065 117.188 7.88387 117.821 8.2503C118.469 8.61674 118.976 9.12411 119.342 9.77242C119.722 10.4207 119.912 11.1536 119.912 11.971V19.3491H117.927V12.6052C117.927 11.971 117.807 11.4355 117.568 10.9986C117.342 10.5617 117.026 10.2234 116.617 9.98382C116.209 9.73014 115.737 9.60329 115.202 9.60329C114.682 9.60329 114.21 9.73014 113.788 9.98382C113.365 10.2234 113.034 10.5687 112.795 11.0197C112.556 11.4566 112.436 11.9851 112.436 12.6052V19.3491H110.472Z" fill="#7D7B86"/>
<path d="M122.495 24C122.241 24 121.988 23.9788 121.735 23.9366C121.481 23.8943 121.242 23.8238 121.017 23.7251V21.9705C121.171 21.9987 121.362 22.0269 121.587 22.0551C121.826 22.0973 122.058 22.1185 122.284 22.1185C122.945 22.1185 123.445 21.9705 123.783 21.6745C124.135 21.3926 124.466 20.8994 124.776 20.1947L125.494 18.4823L125.451 20.1947L120.594 7.95433H122.727L126.507 17.679H125.874L129.633 7.95433H131.808L126.676 20.7021C126.437 21.3081 126.127 21.8577 125.747 22.351C125.381 22.8584 124.931 23.2601 124.396 23.556C123.861 23.852 123.227 24 122.495 24Z" fill="#7D7B86"/>
<path d="M132.922 23.5772V7.95433H134.844V10.4066L134.59 9.9204C135.012 9.2439 135.59 8.70834 136.322 8.31372C137.054 7.90501 137.892 7.70065 138.835 7.70065C139.905 7.70065 140.862 7.96138 141.707 8.48285C142.566 9.00431 143.242 9.71604 143.734 10.618C144.227 11.5059 144.474 12.5207 144.474 13.6623C144.474 14.7757 144.227 15.7834 143.734 16.6854C143.242 17.5874 142.566 18.2991 141.707 18.8206C140.862 19.342 139.898 19.6028 138.814 19.6028C137.899 19.6028 137.061 19.3984 136.301 18.9897C135.555 18.581 134.977 18.0031 134.569 17.2562L134.886 16.9179V23.5772H132.922ZM138.666 17.7001C139.384 17.7001 140.025 17.5239 140.588 17.1716C141.151 16.8193 141.587 16.3401 141.897 15.734C142.221 15.1139 142.383 14.4233 142.383 13.6623C142.383 12.873 142.221 12.1824 141.897 11.5905C141.587 10.9845 141.151 10.5053 140.588 10.1529C140.025 9.78651 139.384 9.60329 138.666 9.60329C137.948 9.60329 137.3 9.77946 136.723 10.1318C136.16 10.4841 135.709 10.9704 135.371 11.5905C135.048 12.1965 134.886 12.8871 134.886 13.6623C134.886 14.4233 135.048 15.1139 135.371 15.734C135.709 16.3401 136.16 16.8193 136.723 17.1716C137.3 17.5239 137.948 17.7001 138.666 17.7001Z" fill="#7D7B86"/>
<path d="M151.653 19.6028C150.554 19.6028 149.576 19.342 148.717 18.8206C147.858 18.2991 147.183 17.5874 146.69 16.6854C146.197 15.7693 145.951 14.7475 145.951 13.62C145.951 12.4784 146.19 11.4637 146.669 10.5758C147.161 9.68785 147.823 8.99022 148.654 8.48285C149.499 7.96138 150.442 7.70065 151.484 7.70065C152.328 7.70065 153.075 7.85568 153.722 8.16574C154.384 8.46171 154.94 8.87042 155.391 9.39189C155.855 9.89926 156.207 10.4841 156.446 11.1465C156.7 11.7949 156.827 12.4714 156.827 13.176C156.827 13.3311 156.813 13.5072 156.784 13.7046C156.77 13.8878 156.749 14.0639 156.721 14.2331H147.387V12.5418H155.581L154.651 13.3029C154.778 12.57 154.708 11.9147 154.44 11.3368C154.173 10.759 153.779 10.3009 153.258 9.96268C152.737 9.62443 152.145 9.45531 151.484 9.45531C150.822 9.45531 150.217 9.62443 149.667 9.96268C149.118 10.3009 148.689 10.7872 148.379 11.4214C148.084 12.0415 147.964 12.7814 148.02 13.6411C147.964 14.4727 148.091 15.2055 148.4 15.8397C148.724 16.4599 149.175 16.9461 149.752 17.2984C150.343 17.6367 150.984 17.8058 151.674 17.8058C152.434 17.8058 153.075 17.6296 153.595 17.2773C154.116 16.925 154.539 16.474 154.863 15.9243L156.51 16.7699C156.285 17.2914 155.933 17.7706 155.454 18.2075C154.989 18.6303 154.433 18.9685 153.786 19.2222C153.152 19.4759 152.441 19.6028 151.653 19.6028Z" fill="#7D7B86"/>
<path d="M158.754 19.3491V7.95433H160.676V10.0472L160.464 9.75128C160.732 9.10297 161.14 8.62378 161.689 8.31372C162.238 7.98957 162.907 7.82749 163.696 7.82749H164.392V9.68785H163.4C162.597 9.68785 161.95 9.94154 161.457 10.4489C160.964 10.9422 160.718 11.6469 160.718 12.563V19.3491H158.754Z" fill="#7D7B86"/>
<path d="M169.579 19.6028C168.439 19.6028 167.446 19.3209 166.602 18.7571C165.757 18.1934 165.159 17.4323 164.807 16.474L166.369 15.7129C166.693 16.3894 167.137 16.925 167.7 17.3196C168.263 17.7142 168.889 17.9115 169.579 17.9115C170.199 17.9115 170.713 17.7635 171.121 17.4676C171.529 17.1716 171.733 16.784 171.733 16.3048C171.733 15.9666 171.635 15.6988 171.438 15.5015C171.255 15.2901 171.029 15.128 170.762 15.0153C170.494 14.8884 170.248 14.7968 170.023 14.7404L168.312 14.2542C167.284 13.9582 166.531 13.5354 166.053 12.9858C165.588 12.4361 165.356 11.7949 165.356 11.062C165.356 10.3855 165.525 9.8006 165.862 9.30733C166.214 8.79995 166.686 8.40533 167.277 8.12346C167.883 7.84158 168.559 7.70065 169.305 7.70065C170.304 7.70065 171.198 7.95433 171.987 8.4617C172.789 8.96908 173.359 9.68081 173.697 10.5969L172.092 11.3368C171.839 10.7449 171.459 10.2798 170.952 9.94154C170.445 9.5892 169.875 9.41303 169.241 9.41303C168.664 9.41303 168.207 9.56101 167.869 9.85698C167.531 10.1389 167.362 10.4982 167.362 10.9351C167.362 11.2593 167.446 11.5271 167.615 11.7385C167.784 11.9358 167.988 12.0908 168.228 12.2036C168.467 12.3022 168.699 12.3868 168.925 12.4573L170.783 13.0069C171.712 13.2747 172.43 13.6905 172.937 14.2542C173.458 14.818 173.719 15.4944 173.719 16.2837C173.719 16.9179 173.543 17.4887 173.191 17.9961C172.839 18.5034 172.353 18.8981 171.733 19.1799C171.114 19.4618 170.396 19.6028 169.579 19.6028Z" fill="#7D7B86"/>
<path d="M178.068 19.3491L174.161 7.95433H176.337L179.441 17.4887L178.681 17.4676L181.722 7.95433H183.58L186.621 17.4676L185.861 17.4887L188.987 7.95433H191.141L187.234 19.3491H185.354L182.355 9.83584H182.947L179.948 19.3491H178.068Z" fill="#7D7B86"/>
<path d="M192.264 19.3491V7.95433H194.228V19.3491H192.264ZM192.264 6.13625V3.59939H194.228V6.13625H192.264Z" fill="#7D7B86"/>
<path d="M201.266 19.4759C200.154 19.4759 199.295 19.1588 198.69 18.5246C198.099 17.8904 197.803 16.9954 197.803 15.8397V9.83584H195.733V7.95433H196.156C196.663 7.95433 197.064 7.7993 197.36 7.48924C197.655 7.17918 197.803 6.77047 197.803 6.26309V5.33291H199.767V7.95433H202.322V9.83584H199.767V15.7763C199.767 16.1568 199.823 16.488 199.936 16.7699C200.063 17.0518 200.267 17.2773 200.548 17.4464C200.83 17.6015 201.203 17.679 201.668 17.679C201.766 17.679 201.886 17.6719 202.027 17.6578C202.182 17.6437 202.322 17.6296 202.449 17.6155V19.3491C202.266 19.3913 202.062 19.4195 201.837 19.4336C201.611 19.4618 201.421 19.4759 201.266 19.4759Z" fill="#7D7B86"/>
<path d="M209.351 19.6028C208.239 19.6028 207.247 19.342 206.374 18.8206C205.515 18.2991 204.839 17.5874 204.346 16.6854C203.854 15.7834 203.607 14.7686 203.607 13.6411C203.607 12.4995 203.854 11.4848 204.346 10.5969C204.839 9.709 205.515 9.00431 206.374 8.48285C207.247 7.96138 208.239 7.70065 209.351 7.70065C210.098 7.70065 210.794 7.83454 211.442 8.10232C212.09 8.3701 212.66 8.72949 213.153 9.18048C213.645 9.63148 214.004 10.16 214.23 10.766L212.477 11.6116C212.209 11.0197 211.801 10.5405 211.252 10.1741C210.703 9.79356 210.069 9.60329 209.351 9.60329C208.661 9.60329 208.035 9.77946 207.472 10.1318C206.923 10.4841 206.486 10.9633 206.162 11.5694C205.839 12.1754 205.677 12.873 205.677 13.6623C205.677 14.4233 205.839 15.1139 206.162 15.734C206.486 16.3401 206.923 16.8193 207.472 17.1716C208.035 17.5239 208.661 17.7001 209.351 17.7001C210.069 17.7001 210.703 17.5169 211.252 17.1505C211.801 16.7699 212.209 16.2696 212.477 15.6495L214.23 16.5374C214.004 17.1293 213.645 17.6578 213.153 18.1229C212.66 18.5739 212.09 18.9333 211.442 19.2011C210.794 19.4689 210.098 19.6028 209.351 19.6028Z" fill="#7D7B86"/>
<path d="M216.163 19.3491V3.3457H218.127V10.1741L217.768 9.98382C218.049 9.26504 218.5 8.70834 219.119 8.31372C219.753 7.90501 220.492 7.70065 221.337 7.70065C222.153 7.70065 222.878 7.88387 223.512 8.2503C224.16 8.61674 224.666 9.12411 225.033 9.77242C225.413 10.4207 225.603 11.1536 225.603 11.971V19.3491H223.618V12.6052C223.618 11.971 223.498 11.4355 223.259 10.9986C223.033 10.5617 222.717 10.2234 222.308 9.98382C221.9 9.73014 221.428 9.60329 220.893 9.60329C220.372 9.60329 219.901 9.73014 219.478 9.98382C219.056 10.2234 218.725 10.5687 218.486 11.0197C218.247 11.4566 218.127 11.9851 218.127 12.6052V19.3491H216.163Z" fill="#7D7B86"/>
</svg>
