<svg width="20" height="20" viewBox="0 0 20 20" fill="none" xmlns="http://www.w3.org/2000/svg">
<path d="M18.62 4.63578L15.8347 2.98526L13.0494 1.33473C11.1926 0.30315 8.81997 1.6442 8.81997 3.81052V4.22315C8.81997 4.42947 8.92313 4.63578 9.12945 4.73894L10.4705 5.46105C10.8831 5.66736 11.2958 5.35789 11.2958 4.94526V4.11999C11.2958 3.70736 11.7084 3.39789 12.121 3.6042L14.7 5.04841L17.1758 6.59578C17.5884 6.8021 17.5884 7.31789 17.1758 7.5242L14.5968 8.96841L12.0179 10.6189C11.6052 10.8253 11.1926 10.5158 11.1926 10.1032V9.69052C11.1926 7.5242 8.81997 6.18315 6.96313 7.21473L4.17786 8.86526L1.3926 10.5158C-0.464241 11.5474 -0.464241 14.3326 1.3926 15.3642L4.17786 17.0147L6.96313 18.6653C8.81997 19.6968 11.1926 18.3558 11.1926 16.1895V15.7768C11.1926 15.5705 11.0894 15.3642 10.8831 15.261L9.54208 14.5389C9.12945 14.3326 8.71681 14.6421 8.71681 15.0547V15.88C8.71681 16.2926 8.30418 16.6021 7.89155 16.3958L5.3126 14.9516L2.73365 13.4042C2.32102 13.1979 2.32102 12.6821 2.73365 12.4758L5.3126 11.0316L7.89155 9.58736C8.30418 9.38105 8.71681 9.69052 8.71681 10.1032V10.5158C8.71681 12.6821 11.0894 14.0232 12.9463 12.9916L15.7316 11.341L18.5168 9.69052C20.4768 8.45262 20.4768 5.77052 18.62 4.63578Z" fill="black"/>
</svg>
