<svg width="24" height="16" viewBox="0 0 24 16" fill="none" xmlns="http://www.w3.org/2000/svg">
<rect width="24" height="14.4" transform="translate(0 0.800003)" fill="white"/>
<path d="M0 2C0 1.33726 0.537258 0.800003 1.2 0.800003H22.8C23.4627 0.800003 24 1.33726 24 2V14C24 14.6627 23.4627 15.2 22.8 15.2H1.2C0.537259 15.2 0 14.6627 0 14V2Z" fill="white"/>
<path fill-rule="evenodd" clip-rule="evenodd" d="M22.8 1.4H1.2C0.868629 1.4 0.6 1.66863 0.6 2V14C0.6 14.3314 0.868629 14.6 1.2 14.6H22.8C23.1314 14.6 23.4 14.3314 23.4 14V2C23.4 1.66863 23.1314 1.4 22.8 1.4ZM1.2 0.800003C0.537258 0.800003 0 1.33726 0 2V14C0 14.6627 0.537259 15.2 1.2 15.2H22.8C23.4627 15.2 24 14.6627 24 14V2C24 1.33726 23.4627 0.800003 22.8 0.800003H1.2Z" fill="black"/>
<path d="M6.18123 5.33981C6.38236 5.09093 6.51885 4.75675 6.48285 4.41527C6.18842 4.42975 5.82912 4.60743 5.62111 4.85651C5.43433 5.06981 5.26902 5.41797 5.31211 5.74514C5.64263 5.77351 5.97284 5.58171 6.18123 5.33981Z" fill="black"/>
<path d="M6.47915 5.80904C5.99916 5.78076 5.59105 6.07854 5.36183 6.07854C5.13248 6.07854 4.78148 5.82329 4.40183 5.83017C3.9077 5.83735 3.4492 6.11375 3.19845 6.55334C2.68269 7.43275 3.06234 8.73722 3.56388 9.45345C3.80744 9.80779 4.10097 10.1979 4.48775 10.1839C4.85318 10.1697 4.99642 9.94984 5.44062 9.94984C5.8845 9.94984 6.01352 10.1839 6.40036 10.1768C6.80152 10.1697 7.05231 9.82233 7.29587 9.46764C7.57528 9.06371 7.68966 8.67368 7.69685 8.65227C7.68966 8.64518 6.92331 8.35433 6.9162 7.48223C6.90897 6.75201 7.51787 6.40468 7.54653 6.38314C7.20268 5.88002 6.66541 5.82329 6.47915 5.80904Z" fill="black"/>
<path d="M11.6697 4.82081C12.7129 4.82081 13.4394 5.53223 13.4394 6.568C13.4394 7.60747 12.698 8.32258 11.6435 8.32258H10.4884V10.1398H9.65388V4.82081L11.6697 4.82081ZM10.4884 7.62958H11.446C12.1726 7.62958 12.5861 7.24259 12.5861 6.5717C12.5861 5.90088 12.1726 5.51751 11.4497 5.51751H10.4884V7.62958Z" fill="black"/>
<path d="M13.6575 9.03769C13.6575 8.35941 14.1828 7.94291 15.1144 7.89129L16.1874 7.82865V7.53011C16.1874 7.09882 15.893 6.8408 15.4013 6.8408C14.9354 6.8408 14.6448 7.06192 14.5741 7.40846H13.814C13.8587 6.70806 14.4623 6.19202 15.431 6.19202C16.3812 6.19202 16.9884 6.68964 16.9884 7.4674V10.1398H16.2171V9.50211H16.1986C15.9714 9.9334 15.4758 10.2061 14.9616 10.2061C14.194 10.2061 13.6575 9.73432 13.6575 9.03769ZM16.1874 8.68753V8.38159L15.2223 8.44053C14.7417 8.47374 14.4697 8.68383 14.4697 9.01558C14.4697 9.35465 14.7529 9.57584 15.1851 9.57584C15.7477 9.57584 16.1874 9.19247 16.1874 8.68753Z" fill="black"/>
<path d="M17.7166 11.5663V10.9212C17.7761 10.936 17.9102 10.936 17.9773 10.936C18.3499 10.936 18.5511 10.7812 18.674 10.3831C18.674 10.3757 18.7449 10.1472 18.7449 10.1435L17.329 6.26204H18.2008L19.192 9.41735H19.2068L20.198 6.26204H21.0475L19.5794 10.3425C19.2442 11.2825 18.8567 11.5847 18.0444 11.5847C17.9773 11.5847 17.7761 11.5773 17.7166 11.5663Z" fill="black"/>
</svg>
