<svg width="40" height="40" viewBox="0 0 40 40" fill="none" xmlns="http://www.w3.org/2000/svg">
<rect x="0.5" y="0.5" width="39" height="39" rx="3.5" fill="#FAFAFA"/>
<rect x="0.5" y="0.5" width="39" height="39" rx="3.5" stroke="#E6E6E6"/>
<path fill-rule="evenodd" clip-rule="evenodd" d="M24.0917 9.29665C27.0743 10.1316 28.6765 12.0785 28.6726 14.8634C28.6698 16.8707 27.7915 18.3845 26.1129 19.2751L25.4556 19.6237L26.0743 19.8478C28.4697 20.7152 29.9097 22.5841 29.9053 24.8198C29.8992 28.0305 27.8103 30.1961 24.0947 30.8441C23.3634 30.9716 22.0917 31 17.1005 31H11V29.4073V27.8146H12.2844H13.5689V20.0052V12.1959H12.2844H11V10.5979V9L17.1396 9.03463C23.1084 9.06823 23.3018 9.07552 24.0917 9.29665ZM17.0511 14.9703C17.0449 16.4962 17.0347 17.8486 17.0286 17.9758L17.0174 18.207L19.5318 18.2061C22.2124 18.2052 22.7471 18.1371 23.6581 17.6807C24.738 17.1397 25.2563 16.1849 25.155 14.9233C25.0713 13.8806 24.6004 13.2002 23.6142 12.6971C22.8405 12.3023 21.9835 12.1996 19.4516 12.1976L17.0625 12.1959L17.0511 14.9703ZM17.0397 24.5868L17.0682 27.8326L20.1737 27.7896C23.496 27.7437 23.7656 27.7067 24.8784 27.1432C26.1329 26.508 26.6889 25.0811 26.2534 23.6146C26.0493 22.9271 25.4799 22.3472 24.6086 21.9395C23.5747 21.4557 22.6887 21.3487 19.6828 21.3445L17.0112 21.3409L17.0397 24.5868Z" fill="#030303"/>
</svg>
