<svg width="40" height="40" viewBox="0 0 40 40" fill="none" xmlns="http://www.w3.org/2000/svg">
<rect x="0.5" y="0.5" width="39" height="39" rx="3.5" fill="#FAFAFA"/>
<rect x="0.5" y="0.5" width="39" height="39" rx="3.5" stroke="#E6E6E6"/>
<path d="M16.875 8.81773L16.363 6.0911C16.3515 6.03037 16.3766 6 16.4384 6H16.853C16.9043 6 16.9347 6.02513 16.9441 6.07539L17.3855 8.53972C17.3874 8.55048 17.3916 8.5607 17.3978 8.56971C17.404 8.57871 17.4121 8.58629 17.4215 8.59193C17.4308 8.59758 17.4413 8.60117 17.4521 8.60246C17.463 8.60375 17.474 8.60271 17.4844 8.59941L18.7331 8.20675C18.7802 8.19104 18.7996 8.15858 18.7912 8.10937L18.408 6.08953C18.3964 6.02984 18.4211 6 18.4818 6H19.5388C19.6006 6 19.6372 6.03037 19.6488 6.0911L19.966 7.88006C19.9707 7.90791 19.9856 7.93297 20.0078 7.95017C20.0299 7.96737 20.0577 7.97543 20.0854 7.97272C22.2073 7.78425 24.2288 7.88634 26.2737 8.50203C26.5439 8.5837 26.8135 8.72192 27.0826 8.91668C27.0988 8.92809 27.1103 8.94488 27.1152 8.96405C27.1201 8.98321 27.1181 9.0035 27.1094 9.02127C27.1007 9.03904 27.0859 9.05313 27.0678 9.06102C27.0496 9.06891 27.0293 9.07008 27.0104 9.06432C24.7916 8.42768 22.5581 8.29994 20.31 8.68108C12.6908 9.97529 11.8945 17.029 12.416 23.3461C12.4202 23.3954 12.4181 23.3954 12.4097 23.3461C11.5207 18.6421 11.7045 11.4297 16.8248 8.91668C16.8429 8.90773 16.8576 8.89322 16.8667 8.87536C16.8757 8.8575 16.8787 8.83726 16.875 8.81773Z" fill="#00A1E3"/>
<path d="M21.7503 32.2155L22.0566 33.8961C22.067 33.9548 22.0424 33.9851 21.9827 33.9872L21.6278 33.9998C21.5597 34.0029 21.5194 33.9705 21.5068 33.9024C21.4011 33.3244 21.2969 32.7464 21.1943 32.1684C21.1877 32.1321 21.1691 32.099 21.1414 32.0746C21.1138 32.0501 21.0788 32.0355 21.0419 32.0333C13.5343 31.6108 12.6594 23.5864 13.5641 17.9086C14.2128 13.8359 16.2955 10.9538 20.6084 10.1795C23.0586 9.73969 25.4937 9.93811 27.9135 10.7747C27.9343 10.7821 27.9519 10.7965 27.9634 10.8154C27.9748 10.8343 27.9794 10.8565 27.9763 10.8784L27.5365 14.0464C27.5282 14.1082 27.4941 14.1296 27.4344 14.1108C25.7172 13.5652 23.9068 13.3893 22.0032 13.583C19.0645 13.883 17.9164 15.7599 17.563 18.4614C17.3546 20.0666 17.3211 21.6755 17.4624 23.288C17.6745 25.7209 18.4975 27.9355 21.177 28.4947C23.2325 28.9229 25.324 28.679 27.4517 27.7628C27.5187 27.7334 27.5569 27.7549 27.5664 27.8272L27.9747 30.8412C27.9821 30.8894 27.9632 30.9234 27.9182 30.9433C26.8324 31.4333 25.7005 31.7752 24.5225 31.9689C24.5059 31.9716 24.49 31.9776 24.4757 31.9864C24.4615 31.9953 24.4492 32.0068 24.4395 32.0205C24.4298 32.0341 24.423 32.0495 24.4195 32.0657C24.4159 32.0819 24.4157 32.0987 24.4188 32.115L24.7408 33.86C24.7433 33.8738 24.7428 33.888 24.7392 33.9016C24.7357 33.9152 24.7291 33.9278 24.7202 33.9386C24.7112 33.9494 24.6999 33.9581 24.6872 33.964C24.6745 33.97 24.6606 33.9731 24.6466 33.9731L23.6335 33.9668C23.6039 33.9669 23.5753 33.9565 23.5526 33.9376C23.5299 33.9186 23.5146 33.8922 23.5094 33.8631L23.2157 32.2202C23.2073 32.17 23.178 32.1449 23.1277 32.1449L21.8178 32.1354C21.7623 32.1344 21.7398 32.1611 21.7503 32.2155Z" fill="#00A1E3"/>
<path d="M19.5278 26.3241C21.8618 27.1031 24.4298 26.8345 26.69 25.8686C26.7381 25.8476 26.7769 25.8586 26.8062 25.9016L27.2036 26.4638C27.235 26.5078 27.2255 26.5408 27.1753 26.5628C25.0502 27.4706 21.3451 28.0235 19.5027 26.3665C19.4441 26.3131 19.4525 26.2989 19.5278 26.3241Z" fill="#00A1E3"/>
</svg>
