<svg width="40" height="40" viewBox="0 0 40 40" fill="none" xmlns="http://www.w3.org/2000/svg">
<rect x="0.5" y="0.5" width="39" height="39" rx="3.5" fill="#FAFAFA"/>
<rect x="0.5" y="0.5" width="39" height="39" rx="3.5" stroke="#E6E6E6"/>
<path d="M16.2859 14.5415C16.744 14.0284 17.2073 13.3662 17.8093 13.1123C19.1181 12.5626 20.5289 14.1462 19.9164 15.3555C19.5788 16.0256 17.9978 17.7715 17.4298 18.2453C16.1289 19.3263 15.0217 17.4626 14.0611 17.1878C10.4986 16.1722 7.8811 20.1011 10.2683 22.9594C11.5509 24.4933 14.0951 24.6556 15.5295 23.0798C17.6043 20.7956 19.6852 18.5157 21.7723 16.2402C22.5261 15.4183 23.2067 14.8425 23.8139 14.5127C26.6094 12.9998 29.884 13.5835 32.0591 15.845C36.7 20.6691 32.3654 28.3306 25.9367 27.4406C25.2117 27.3385 24.4971 26.9852 23.7982 26.6658C23.711 26.6257 23.6359 26.6414 23.5731 26.7129C23.0077 27.3542 22.3219 28.3489 21.5733 28.5975C20.4164 28.9771 19.1155 27.7495 19.4662 26.6056C19.564 26.2863 19.8641 25.8396 20.3667 25.2654C21.4398 24.0378 22.9083 21.559 24.8531 23.284C27.201 25.3675 30.664 23.5143 30.5881 20.5251C30.5095 17.3815 26.7691 15.7063 24.5782 18.117C22.7983 20.0749 21.0141 22.0267 19.2254 23.9724C17.9428 25.3684 16.9368 26.2618 16.2074 26.6527C10.4436 29.7571 3.90509 23.8965 6.64301 17.7348C8.26849 14.0703 12.4984 12.6228 16.0687 14.5807C16.1507 14.6244 16.2231 14.6113 16.2859 14.5415Z" fill="#4286F5"/>
</svg>
