<svg width="40" height="40" viewBox="0 0 40 40" fill="none" xmlns="http://www.w3.org/2000/svg">
<rect x="0.5" y="0.5" width="39" height="39" rx="3.5" fill="#FAFAFA"/>
<rect x="0.5" y="0.5" width="39" height="39" rx="3.5" stroke="#E6E6E6"/>
<path d="M17.473 16.0763V8.11131C17.473 8.0371 17.5101 8 17.5843 8H21.6447C21.7204 8 21.7583 8.03859 21.7583 8.11576C21.7568 14.2509 21.7583 20.3853 21.7627 26.519C21.7642 27.3515 22.1864 27.7604 23.0294 27.7455C23.108 27.7441 23.1473 27.7826 23.1473 27.8613L23.154 30.3946C23.154 30.4629 23.1214 30.5059 23.0561 30.5237C21.1394 31.0268 18.1787 30.9244 18.3679 28.1974C18.3686 28.1767 18.3624 28.1564 18.3503 28.1396C18.3381 28.1228 18.3208 28.1105 18.3009 28.1046C18.281 28.0988 18.2598 28.0997 18.2405 28.1072C18.2212 28.1147 18.2049 28.1285 18.1943 28.1462C17.1814 29.9716 15.6431 30.8309 13.5417 30.8465C4.87993 30.9088 4.66845 15.6912 13.8133 15.3751C15.0911 15.3328 16.1974 15.7134 17.3283 16.1743C17.4248 16.2128 17.473 16.1802 17.473 16.0763ZM17.5086 19.7828C15.2736 18.6296 12.3819 18.6519 11.4469 21.4501C10.906 23.0707 11.1865 25.6797 12.8516 26.6303C15.0532 27.8902 17.5687 26.2296 17.5799 23.8053C17.5873 22.4875 17.588 21.1867 17.5821 19.903C17.582 19.8781 17.5751 19.8538 17.5622 19.8326C17.5492 19.8114 17.5307 19.7942 17.5086 19.7828Z" fill="#1D1D1B"/>
<path d="M32.931 19.8006H28.8394C28.8013 19.8006 28.7704 19.8315 28.7704 19.8696V24.0146C28.7704 24.0527 28.8013 24.0836 28.8394 24.0836H32.931C32.9691 24.0836 33 24.0527 33 24.0146V19.8696C33 19.8315 32.9691 19.8006 32.931 19.8006Z" fill="#482683"/>
</svg>
