<svg
  width="36"
  height="24"
  viewBox="0 0 36 24"
  fill="none"
  xmlns="http://www.w3.org/2000/svg"
>
  <mask
    id="mask0_263_118"
    style="mask-type: luminance"
    maskUnits="userSpaceOnUse"
    x="0"
    y="0"
    width="36"
    height="24"
  >
    <path d="M36 0.298096H0V23.6637H36V0.298096Z" fill="white" />
  </mask>
  <g mask="url(#mask0_263_118)">
    <path
      d="M26.8483 12.2442H24.3679C24.092 12.2442 23.8675 12.0244 23.8675 11.7492C23.8675 11.4741 24.092 11.2318 24.3679 11.2318H28.1441V9.36905H24.3679C23.0499 9.36905 21.9775 10.4435 21.9775 11.7583C21.9775 13.073 23.0499 14.1475 24.3679 14.1475H26.8146C27.0905 14.1475 27.3149 14.3664 27.3149 14.6415C27.3149 14.9167 27.0904 15.1193 26.8146 15.1193H21.5679C21.1225 15.9697 20.6894 16.6986 19.8101 17.0631H26.8483C28.1441 17.0444 29.2041 15.9478 29.2041 14.6447C29.2041 13.3417 28.1441 12.2629 26.8483 12.2442Z"
      fill="#71706F"
    />
  </g>
  <mask
    id="mask1_263_118"
    style="mask-type: luminance"
    maskUnits="userSpaceOnUse"
    x="0"
    y="0"
    width="36"
    height="24"
  >
    <path d="M36 0.298096H0V23.6637H36V0.298096Z" fill="white" />
  </mask>
  <g mask="url(#mask1_263_118)">
    <path
      d="M17.3398 9.36905C15.2375 9.36905 13.5253 11.0915 13.5253 13.208V13.289V21.1936H15.4285V17.0631H17.3358C19.4381 17.0631 21.1443 15.3177 21.1443 13.2012C21.1443 11.0848 19.4421 9.36905 17.3398 9.36905ZM17.3398 15.1193H15.4285V13.2012C15.4285 12.1294 16.2819 11.2574 17.3398 11.2574C18.3977 11.2574 19.2583 12.1294 19.2583 13.2012C19.2583 14.2731 18.3977 15.1193 17.3398 15.1193Z"
      fill="#71706F"
    />
  </g>
  <mask
    id="mask2_263_118"
    style="mask-type: luminance"
    maskUnits="userSpaceOnUse"
    x="0"
    y="0"
    width="36"
    height="24"
  >
    <path d="M36 0.298096H0V23.6637H36V0.298096Z" fill="white" />
  </mask>
  <g mask="url(#mask2_263_118)">
    <path
      d="M7.49982 17.0631C5.70023 17.0631 4.18726 15.7807 3.77785 14.1055C3.77785 14.1055 3.65957 13.5516 3.65957 13.1868C3.65957 12.8221 3.77154 12.2625 3.77154 12.2625C4.1839 10.5914 5.69501 9.34694 7.49164 9.34694C9.60471 9.34694 11.3386 11.0647 11.3386 13.1777V14.107H5.72461C6.05614 14.7549 6.72661 15.1193 7.49982 15.1193H12.5465L12.5535 9.6396C12.5535 8.82261 11.8851 8.15421 11.0681 8.15421H3.91517C3.09819 8.15421 2.42974 8.80237 2.42974 9.61935V16.7723C2.42974 17.5893 3.09819 18.2779 3.91517 18.2779H11.0681C11.8013 18.2779 12.4129 17.7515 12.531 17.0631H7.49982Z"
      fill="#C8036F"
    />
  </g>
  <mask
    id="mask3_263_118"
    style="mask-type: luminance"
    maskUnits="userSpaceOnUse"
    x="0"
    y="0"
    width="36"
    height="24"
  >
    <path d="M36 0.298096H0V23.6637H36V0.298096Z" fill="white" />
  </mask>
  <g mask="url(#mask3_263_118)">
    <path
      d="M7.49151 11.1651C6.7213 11.1651 6.05147 11.6366 5.7186 12.244H9.2645C8.93163 11.6366 8.26185 11.1651 7.49151 11.1651Z"
      fill="#C8036F"
    />
  </g>
  <mask
    id="mask4_263_118"
    style="mask-type: luminance"
    maskUnits="userSpaceOnUse"
    x="0"
    y="0"
    width="36"
    height="24"
  >
    <path d="M36 0.298096H0V23.6637H36V0.298096Z" fill="white" />
  </mask>
  <g mask="url(#mask4_263_118)">
    <path
      d="M10.7311 5.82796C10.7311 4.08218 9.28027 2.66696 7.4906 2.66696C5.73057 2.66696 4.29911 4.03589 4.2521 5.74166C4.25133 5.74887 4.25194 5.75588 4.25194 5.76329V6.71322C4.25194 6.82684 4.34447 6.93918 4.46093 6.93918H5.65314C5.76961 6.93918 5.87173 6.82684 5.87173 6.71322V5.82796C5.87173 4.95618 6.59781 4.24691 7.49153 4.24691C8.38525 4.24691 9.11133 4.95618 9.11133 5.82796V6.71322C9.11133 6.82684 9.2058 6.93918 9.32227 6.93918H10.5145C10.631 6.93918 10.7311 6.82684 10.7311 6.71322V5.82796Z"
      fill="#C8036F"
    />
  </g>
  <mask
    id="mask5_263_118"
    style="mask-type: luminance"
    maskUnits="userSpaceOnUse"
    x="0"
    y="0"
    width="36"
    height="24"
  >
    <path d="M36 0.298096H0V23.6637H36V0.298096Z" fill="white" />
  </mask>
  <g mask="url(#mask5_263_118)">
    <path
      d="M19.4751 19.5331L19.3028 20.509C19.2166 21.0022 18.8934 21.2281 18.4553 21.2281C18.0843 21.2281 17.797 20.9863 17.8808 20.5098L18.0531 19.5332H18.3189L18.1465 20.509C18.0938 20.8132 18.2302 20.9863 18.4888 20.9863C18.7545 20.9863 18.982 20.8283 19.0369 20.5098L19.2093 19.5332H19.4751V19.5331ZM18.4313 19.2276C18.4313 19.309 18.4936 19.3472 18.5606 19.3472C18.6444 19.3472 18.7354 19.2874 18.7354 19.1749C18.7354 19.0959 18.6827 19.0553 18.6132 19.0553C18.5272 19.0553 18.4313 19.1103 18.4313 19.2276ZM19.0059 19.2252C19.0059 19.3089 19.0706 19.3472 19.14 19.3472C19.2142 19.3472 19.3124 19.2874 19.3124 19.1773C19.3124 19.0984 19.2549 19.0553 19.1903 19.0553C19.1041 19.0553 19.0059 19.1103 19.0059 19.2252Z"
      fill="#71706F"
    />
  </g>
  <mask
    id="mask6_263_118"
    style="mask-type: luminance"
    maskUnits="userSpaceOnUse"
    x="0"
    y="0"
    width="36"
    height="24"
  >
    <path d="M36 0.298096H0V23.6637H36V0.298096Z" fill="white" />
  </mask>
  <g mask="url(#mask6_263_118)">
    <path
      d="M20.1173 19.5332L19.9976 20.2075C20.1005 20.0687 20.3064 19.9953 20.45 19.9953C20.7469 19.9953 20.9527 20.1693 20.9527 20.4923C20.9527 20.9496 20.6344 21.2245 20.2275 21.2245C20.0695 21.2245 19.9353 21.1658 19.854 21.0174L19.8085 21.1935H19.5763L19.8708 19.5332H20.1173ZM19.9306 20.6712C19.9211 20.8674 20.0479 20.9943 20.2322 20.9943C20.4644 20.9943 20.6894 20.8147 20.7038 20.5419C20.7134 20.3432 20.5842 20.2258 20.4045 20.2258C20.1747 20.2258 19.9449 20.4102 19.9306 20.6712Z"
      fill="#71706F"
    />
  </g>
  <mask
    id="mask7_263_118"
    style="mask-type: luminance"
    maskUnits="userSpaceOnUse"
    x="0"
    y="0"
    width="36"
    height="24"
  >
    <path d="M36 0.298096H0V23.6637H36V0.298096Z" fill="white" />
  </mask>
  <g mask="url(#mask7_263_118)">
    <path
      d="M21.4369 20.7076C21.4274 20.8696 21.5542 21.0018 21.7697 21.0018C21.8894 21.0018 22.0473 20.9551 22.1335 20.8737L22.2676 21.0286C22.1216 21.1626 21.9061 21.2293 21.7242 21.2293C21.3843 21.2293 21.1856 21.0257 21.1856 20.7145C21.1856 20.3003 21.5111 19.9917 21.9276 19.9917C22.3083 19.9917 22.5238 20.2217 22.3945 20.7076H21.4369ZM22.1934 20.5051C22.2125 20.3027 22.0929 20.2202 21.8941 20.2202C21.7146 20.2202 21.5495 20.3027 21.4776 20.5051H22.1934Z"
      fill="#71706F"
    />
  </g>
  <mask
    id="mask8_263_118"
    style="mask-type: luminance"
    maskUnits="userSpaceOnUse"
    x="0"
    y="0"
    width="36"
    height="24"
  >
    <path d="M36 0.298096H0V23.6637H36V0.298096Z" fill="white" />
  </mask>
  <g mask="url(#mask8_263_118)">
    <path
      d="M23.053 20.0191L23.041 20.1752C23.156 20.0242 23.2948 19.9935 23.4216 19.9935C23.5365 19.9935 23.6394 20.0343 23.6945 20.094L23.5461 20.3095C23.4934 20.2618 23.4407 20.2378 23.3497 20.2378C23.1798 20.2378 23.0123 20.3398 22.9739 20.5576L22.8615 21.1935H22.6149L22.8232 20.0191H23.053Z"
      fill="#71706F"
    />
  </g>
  <mask
    id="mask9_263_118"
    style="mask-type: luminance"
    maskUnits="userSpaceOnUse"
    x="0"
    y="0"
    width="36"
    height="24"
  >
    <path d="M36 0.298096H0V23.6637H36V0.298096Z" fill="white" />
  </mask>
  <g mask="url(#mask9_263_118)">
    <path
      d="M24.8823 20.0192L25.0068 20.9479L25.4568 20.0192H25.7321L25.1145 21.1935H24.8249L24.7076 20.4188L24.5185 20.8037L24.3126 21.1935H24.0253L23.817 20.0192H24.0948L24.2168 20.9479L24.6693 20.0192H24.8823Z"
      fill="#71706F"
    />
  </g>
  <mask
    id="mask10_263_118"
    style="mask-type: luminance"
    maskUnits="userSpaceOnUse"
    x="0"
    y="0"
    width="36"
    height="24"
  >
    <path d="M36 0.298096H0V23.6637H36V0.298096Z" fill="white" />
  </mask>
  <g mask="url(#mask10_263_118)">
    <path
      d="M26.0488 20.7076C26.0392 20.8696 26.1661 21.0018 26.3815 21.0018C26.5012 21.0018 26.6592 20.9551 26.7453 20.8737L26.8794 21.0286C26.7335 21.1626 26.518 21.2293 26.3361 21.2293C25.9961 21.2293 25.7974 21.0257 25.7974 20.7145C25.7974 20.3003 26.123 19.9917 26.5395 19.9917C26.9201 19.9917 27.1356 20.2217 27.0063 20.7076H26.0488ZM26.8052 20.5051C26.8243 20.3027 26.7047 20.2202 26.5059 20.2202C26.3265 20.2202 26.1613 20.3027 26.0894 20.5051H26.8052Z"
      fill="#71706F"
    />
  </g>
  <mask
    id="mask11_263_118"
    style="mask-type: luminance"
    maskUnits="userSpaceOnUse"
    x="0"
    y="0"
    width="36"
    height="24"
  >
    <path d="M36 0.298096H0V23.6637H36V0.298096Z" fill="white" />
  </mask>
  <g mask="url(#mask11_263_118)">
    <path
      d="M27.6818 20.019L27.4736 21.1934H27.227L27.4353 20.019H27.6818ZM27.464 19.6991C27.464 19.7829 27.5263 19.8262 27.5933 19.8262C27.689 19.8262 27.7776 19.7638 27.7776 19.6466C27.7776 19.5675 27.7177 19.522 27.6531 19.522C27.5645 19.522 27.464 19.5795 27.464 19.6991Z"
      fill="#71706F"
    />
  </g>
  <mask
    id="mask12_263_118"
    style="mask-type: luminance"
    maskUnits="userSpaceOnUse"
    x="0"
    y="0"
    width="36"
    height="24"
  >
    <path d="M36 0.298096H0V23.6637H36V0.298096Z" fill="white" />
  </mask>
  <g mask="url(#mask12_263_118)">
    <path
      d="M28.7759 20.3096C28.6992 20.2234 28.6012 20.1995 28.4839 20.1995C28.321 20.1995 28.2062 20.2546 28.2062 20.3575C28.2062 20.4436 28.2995 20.4797 28.4384 20.4916C28.6538 20.5107 28.9291 20.5826 28.8716 20.8866C28.831 21.1068 28.6107 21.2361 28.3043 21.2361C28.1128 21.2361 27.9285 21.1929 27.804 21.0182L27.9643 20.8435C28.0529 20.9655 28.2085 21.0158 28.3473 21.0182C28.4646 21.0182 28.6035 20.9751 28.625 20.865C28.6466 20.7597 28.5532 20.7191 28.3809 20.7022C28.1798 20.6831 27.9596 20.6089 27.9596 20.3863C27.9596 20.0918 28.2779 19.9889 28.5173 19.9889C28.6992 19.9889 28.8333 20.0295 28.9434 20.1469L28.7759 20.3096Z"
      fill="#71706F"
    />
  </g>
  <mask
    id="mask13_263_118"
    style="mask-type: luminance"
    maskUnits="userSpaceOnUse"
    x="0"
    y="0"
    width="36"
    height="24"
  >
    <path d="M36 0.298096H0V23.6637H36V0.298096Z" fill="white" />
  </mask>
  <g mask="url(#mask13_263_118)">
    <path
      d="M29.5543 20.0192L29.4419 20.6516C29.4059 20.8527 29.4969 20.9917 29.7027 20.9917C29.8966 20.9917 30.0618 20.831 30.0952 20.6348L30.203 20.0192H30.4495L30.2414 21.1935H30.0187L30.0354 21.0234C29.8966 21.155 29.7601 21.2171 29.595 21.2171C29.3054 21.2171 29.133 21.0095 29.1952 20.6529L29.3077 20.0192H29.5543Z"
      fill="#71706F"
    />
  </g>
  <mask
    id="mask14_263_118"
    style="mask-type: luminance"
    maskUnits="userSpaceOnUse"
    x="0"
    y="0"
    width="36"
    height="24"
  >
    <path d="M36 0.298096H0V23.6637H36V0.298096Z" fill="white" />
  </mask>
  <g mask="url(#mask14_263_118)">
    <path
      d="M31.532 21.1934L31.6445 20.5648C31.6803 20.3614 31.611 20.2265 31.3859 20.2265C31.1897 20.2265 31.0244 20.3844 30.9909 20.5783L30.8832 21.1934H30.6367L30.845 20.019H31.07L31.0533 20.1907C31.1897 20.0638 31.3309 20.0012 31.4841 20.0012C31.7714 20.0012 31.9581 20.2011 31.8935 20.5626L31.7809 21.1934H31.532Z"
      fill="#71706F"
    />
  </g>
  <mask
    id="mask15_263_118"
    style="mask-type: luminance"
    maskUnits="userSpaceOnUse"
    x="0"
    y="0"
    width="36"
    height="24"
  >
    <path d="M36 0.298096H0V23.6637H36V0.298096Z" fill="white" />
  </mask>
  <g mask="url(#mask15_263_118)">
    <path
      d="M32.3678 21.3554C32.3511 21.5174 32.4755 21.5829 32.6839 21.5829C32.8658 21.5829 33.0622 21.4813 33.1076 21.2229L33.1435 21.0212C33.0358 21.172 32.8395 21.2315 32.6935 21.2315C32.3919 21.2315 32.1812 21.0519 32.1812 20.7262C32.1812 20.2619 32.5259 19.9937 32.9161 19.9937C33.0813 19.9937 33.2297 20.0722 33.2824 20.2062L33.3232 20.0191H33.5625L33.3566 21.2283C33.28 21.676 32.9473 21.8149 32.6433 21.8149C32.2794 21.8149 32.0784 21.6388 32.1286 21.3554H32.3678V21.3554ZM32.4372 20.6784C32.4372 20.8793 32.5689 21.0015 32.7582 21.0015C33.2679 21.0015 33.4044 20.2187 32.8945 20.2187C32.6527 20.2187 32.4372 20.3982 32.4372 20.6784Z"
      fill="#71706F"
    />
  </g>
</svg>
