<svg width="40" height="40" viewBox="0 0 40 40" fill="none" xmlns="http://www.w3.org/2000/svg">
<rect x="0.5" y="0.5" width="39" height="39" rx="3.5" fill="#FAFAFA"/>
<rect x="0.5" y="0.5" width="39" height="39" rx="3.5" stroke="#E6E6E6"/>
<g clip-path="url(#clip0_993_720)">
<mask id="mask0_993_720" style="mask-type:luminance" maskUnits="userSpaceOnUse" x="-34" y="-356" width="404" height="523">
<path d="M-33.1998 166.508H369.813V-355.037H-33.1998V166.508Z" fill="white"/>
</mask>
<g mask="url(#mask0_993_720)">
<path d="M32.9622 17.041C32.9622 17.1418 32.8845 17.2188 32.7844 17.2188C32.683 17.2188 32.606 17.1418 32.606 17.041C32.606 16.9396 32.683 16.8632 32.7844 16.8632C32.8845 16.8632 32.9622 16.9396 32.9622 17.041ZM32.9965 17.041C32.9965 16.9198 32.9036 16.829 32.7844 16.829C32.6633 16.829 32.5717 16.9198 32.5717 17.041C32.5717 17.1615 32.6633 17.2531 32.7844 17.2531C32.9036 17.2531 32.9965 17.1615 32.9965 17.041ZM32.8806 16.991C32.8806 16.9429 32.8463 16.9212 32.8048 16.9212H32.7034V17.153H32.7429V17.0634H32.7871L32.8325 17.153H32.8792L32.8325 17.0594C32.8615 17.0502 32.8806 17.0278 32.8806 16.991ZM32.8411 16.9923C32.8411 17.0147 32.8252 17.0252 32.8035 17.0252H32.7429V16.9587H32.8035C32.8252 16.9587 32.8411 16.9705 32.8411 16.9923Z" fill="#FF6600"/>
</g>
<path d="M34 25.1512H32.2128V26.939H34V25.1512Z" fill="#FF6600"/>
<path d="M28.5861 17.1908L29.6509 25.1813L30.7138 17.1908H32.3726L30.8211 26.9388H28.4623L26.9273 17.1908H28.5861Z" fill="#FF6600"/>
<mask id="mask1_993_720" style="mask-type:luminance" maskUnits="userSpaceOnUse" x="-34" y="-356" width="404" height="523">
<path d="M-33.1998 166.508H369.813V-355.037H-33.1998V166.508Z" fill="white"/>
</mask>
<g mask="url(#mask1_993_720)">
<path d="M6.91995 17.1908H6V18.4861H6.91995V26.9388H8.53661V18.4861H9.67256V17.1908H8.53661V15.2093C8.53661 14.9202 8.59654 14.699 8.73614 14.5475C8.87641 14.3974 9.09043 14.3262 9.38083 14.3262H9.6719V13H9.08713C8.36869 13 7.67659 13.1521 7.34733 13.4649C7.01807 13.7777 6.91995 14.263 6.91995 14.9545V17.1908Z" fill="#FF6600"/>
</g>
<path d="M10.1774 26.9384H11.798V17.1904H10.1774V26.9384Z" fill="#FF6600"/>
<mask id="mask2_993_720" style="mask-type:luminance" maskUnits="userSpaceOnUse" x="-34" y="-356" width="404" height="523">
<path d="M-33.1998 166.508H369.813V-355.037H-33.1998V166.508Z" fill="white"/>
</mask>
<g mask="url(#mask2_993_720)">
<path d="M19.2805 22.6165H22.6587V19.6123C22.6548 17.8152 21.7908 17.0784 20.1537 17.0784C18.4514 17.0784 17.6533 17.8133 17.6533 19.6242V24.5611C17.6586 26.208 18.6556 27.0602 20.1531 27.0602C21.6499 27.0602 22.6548 26.3588 22.6587 24.5611V23.7801H21.0934L21.0954 24.7053C21.0954 25.3651 20.8485 25.8215 20.186 25.8215C19.5222 25.8215 19.2805 25.3612 19.2805 24.7046V22.6165ZM19.2805 19.289C19.2805 18.7391 19.4234 18.1695 20.1814 18.1695C20.9387 18.1695 21.0921 18.7306 21.0921 19.2883V21.3027H19.2805V19.289Z" fill="#FF6600"/>
<path d="M15.4418 21.3968C14.2124 20.3294 14.1169 20.1746 14.1169 19.3791C14.1169 18.7015 14.1755 18.2893 14.7846 18.2893C15.3931 18.2893 15.4721 18.6963 15.4721 19.387V20.2872H17.0341V18.8187C17.0288 17.6657 16.1418 17.0796 14.7484 17.0796C13.378 17.0796 12.4844 17.536 12.4765 19.3791C12.4752 19.6926 12.4772 19.6926 12.4765 19.5714C12.4791 20.1509 12.4818 21.0696 13.914 22.2983L14.325 22.65C15.3806 23.5403 15.4958 23.6476 15.4912 24.7065C15.4905 25.3591 15.4504 25.8537 14.7655 25.8537C14.0806 25.8537 14.0378 25.3552 14.0378 25.0477V23.8004H12.3981V25.0872C12.3981 26.6709 13.4287 27.0627 14.7635 27.0627C16.0997 27.0627 17.1316 26.6669 17.1316 24.6295V24.4603C17.1283 23.0365 16.8708 22.6546 15.4418 21.3968Z" fill="#FF6600"/>
<path d="M24.8281 18.1942V17.1906H23.351V26.938H24.9446V20.1447C24.944 19.6199 25.1152 19.2742 25.4128 19.07C25.6947 18.8758 26.0417 18.8099 26.4836 18.8033V17.0787C25.638 17.0965 25.2732 17.2631 24.8445 18.1586L24.8281 18.1942Z" fill="#FF6600"/>
</g>
</g>
<defs>
<clipPath id="clip0_993_720">
<rect width="28" height="14.0627" fill="white" transform="translate(6 13)"/>
</clipPath>
</defs>
</svg>
