<svg
  width="33"
  height="15"
  viewBox="0 0 33 15"
  fill="none"
  xmlns="http://www.w3.org/2000/svg"
>
  <path
    fill-rule="evenodd"
    clip-rule="evenodd"
    d="M0.846848 3.06182C0.846848 1.69181 1.96324 0.581024 3.33967 0.581024H30.5072C31.8842 0.581024 33 1.69181 33 3.06182V11.9273C33 13.2965 31.8842 14.4075 30.5072 14.4075H3.33967C1.96324 14.4075 0.846848 13.2965 0.846848 11.9273V3.06182Z"
    fill="#000268"
  />
  <path
    fill-rule="evenodd"
    clip-rule="evenodd"
    d="M1.87003 3.1468V11.8433C1.87003 12.6993 2.56785 13.3935 3.42861 13.3935H17.6619V1.59662H3.42861C2.56785 1.59662 1.87003 2.29083 1.87003 3.1468ZM21.3396 7.45162C21.3396 8.00532 21.0657 8.38586 20.6123 8.38586C20.2118 8.38586 19.8778 8.00532 19.8778 7.49826C19.8778 6.9778 20.1715 6.59086 20.6123 6.59086C21.0797 6.59086 21.3396 6.99122 21.3396 7.45162ZM18.6774 10.6272H19.8778V8.73896H19.8913C20.1187 9.15273 20.5727 9.30607 20.9928 9.30607C22.0268 9.30607 22.5805 8.45231 22.5805 7.4248C22.5805 6.58445 22.0536 5.66984 21.0925 5.66984C20.5459 5.66984 20.0388 5.89024 19.798 6.37746H19.7846V5.75051H18.6774V10.6272ZM24.2201 8.12522C24.2201 7.79192 24.54 7.66561 24.9475 7.66561C25.1275 7.66561 25.3013 7.67823 25.4546 7.68543C25.4546 8.09219 25.1677 8.50595 24.7137 8.50595C24.4335 8.50595 24.2201 8.36604 24.2201 8.12522ZM26.6417 9.2262C26.5886 8.95296 26.5752 8.67891 26.5752 8.40567V7.11132C26.5752 6.05058 25.8083 5.66984 24.9207 5.66984C24.4073 5.66984 23.9603 5.7433 23.5331 5.91706L23.5535 6.73138C23.886 6.54421 24.2737 6.47075 24.6607 6.47075C25.0937 6.47075 25.4474 6.59787 25.4546 7.07169C25.3013 7.04486 25.0873 7.02444 24.8939 7.02444C24.2539 7.02444 23.0995 7.15156 23.0995 8.2121C23.0995 8.96637 23.7131 9.30607 24.4003 9.30607C24.8939 9.30607 25.2278 9.1133 25.5012 8.67891H25.5147C25.5147 8.85968 25.5343 9.03903 25.5415 9.2262H26.6417ZM27.1819 10.6272C27.4289 10.6809 27.6756 10.7079 27.929 10.7079C29.03 10.7079 29.2898 9.86036 29.6301 8.98618L30.9048 5.75051H29.7036L28.9897 8.01873H28.9763L28.229 5.75051H26.9353L28.3428 9.30607C28.2559 9.61314 28.0293 9.7869 27.7354 9.7869C27.5681 9.7869 27.4219 9.76647 27.2616 9.71343L27.1819 10.6272Z"
    fill="white"
  />
  <path
    fill-rule="evenodd"
    clip-rule="evenodd"
    d="M4.80286 7.45851C4.80286 6.98469 5.03666 6.59074 5.48366 6.59074C6.02395 6.59074 6.25055 7.02432 6.25055 7.41126C6.25055 7.94515 5.91024 8.30526 5.48366 8.30526C5.12354 8.30526 4.80286 7.99879 4.80286 7.45851ZM7.41158 5.75039H6.32401V6.37734H6.3114C6.05717 5.95017 5.6432 5.66972 5.12995 5.66972C4.04938 5.66972 3.56216 6.4444 3.56216 7.47832C3.56216 8.50583 4.15608 9.22608 5.10933 9.22608C5.59035 9.22608 5.99071 9.03891 6.27737 8.63216H6.29078V8.81931C6.29078 9.49952 5.91725 9.82642 5.22383 9.82642C4.72318 9.82642 4.41591 9.71972 4.04938 9.53976L3.98933 10.4874C4.26899 10.5877 4.74281 10.7078 5.31712 10.7078C6.71816 10.7078 7.41158 10.2472 7.41158 8.81931V5.75039ZM9.44117 4.3027H8.24011V5.18329H9.44117V4.3027ZM8.24072 9.22608H9.44117V5.75039H8.24072V9.22608ZM12.785 5.70996C12.6648 5.69033 12.5179 5.66972 12.3782 5.66972C11.8577 5.66972 11.5577 5.95017 11.3507 6.39076H11.3373V5.75039H10.2433V9.22608H11.444V7.75877C11.444 7.07797 11.758 6.67121 12.3181 6.67121C12.4587 6.67121 12.5914 6.67121 12.7249 6.71064L12.785 5.70996ZM14.8526 8.4656C14.2989 8.4656 14.0723 8.0052 14.0723 7.49173C14.0723 6.97128 14.2989 6.51087 14.8526 6.51087C15.4069 6.51087 15.6337 6.97128 15.6337 7.49173C15.6337 8.0052 15.4069 8.4656 14.8526 8.4656ZM14.8526 9.30595C16.0002 9.30595 16.8744 8.63936 16.8744 7.49173C16.8744 6.33711 16.0002 5.66972 14.8526 5.66972C13.7052 5.66972 12.8316 6.33711 12.8316 7.49173C12.8316 8.63936 13.7052 9.30595 14.8526 9.30595Z"
    fill="#FF0007"
  />
</svg>
