<svg width="40" height="40" viewBox="0 0 40 40" fill="none" xmlns="http://www.w3.org/2000/svg">
<rect x="0.5" y="0.5" width="39" height="39" rx="3.5" fill="#FAFAFA"/>
<rect x="0.5" y="0.5" width="39" height="39" rx="3.5" stroke="#E6E6E6"/>
<path d="M21.0284 12.8446C22.3202 13.7514 21.9857 15.9115 21.6451 17.2524C21.6329 17.2995 21.6022 17.3235 21.5531 17.3245C20.8305 17.3353 19.327 17.6237 19.4328 16.6894C19.6384 14.8606 19.712 14.3973 17.7329 14.2224C16.0023 14.0705 13.5706 13.9661 12.0118 14.5246C10.9256 14.9128 10.5758 16.5344 10.3549 17.5884C10.0174 19.2034 9.71103 20.8251 9.43589 22.4534C9.28707 23.3294 8.96642 25.373 9.66142 26.0435C9.68344 26.0648 9.71087 26.0798 9.74076 26.0868C9.77065 26.0937 9.80187 26.0924 9.83106 26.0829C9.86026 26.0735 9.88631 26.0562 9.90643 26.033C9.92655 26.0099 9.93997 25.9816 9.94525 25.9514L10.562 22.4779C10.5712 22.4207 10.605 22.392 10.6633 22.392H20.7538C20.7977 22.392 20.8162 22.414 20.809 22.458C20.4306 24.7562 20.1053 26.5589 19.8332 27.8661C19.777 28.1351 19.6302 28.3616 19.3929 28.5458C19.3551 28.5756 19.3082 28.5923 19.2594 28.5933C16.6503 28.6271 14.0431 28.6455 11.438 28.6485C9.40981 28.6501 7.10389 28.0103 7.01491 25.5832C6.97297 24.4305 7.01951 23.4036 7.15452 22.5025C7.54216 19.9025 7.94515 17.8068 8.36348 16.2153C8.85289 14.3589 10.022 12.9444 11.8998 12.4626C14.4773 11.8014 17.466 11.9226 20.068 12.366C20.3114 12.4069 20.6315 12.5664 21.0284 12.8446ZM13.6166 23.1298C13.6165 23.1078 13.612 23.0861 13.6035 23.0658C13.595 23.0456 13.5826 23.0272 13.567 23.0118C13.5514 22.9963 13.5329 22.9841 13.5125 22.9758C13.4922 22.9675 13.4704 22.9633 13.4485 22.9634L11.3558 22.9744C11.3115 22.9746 11.269 22.9924 11.2379 23.024C11.2067 23.0555 11.1893 23.0981 11.1895 23.1425L11.1895 23.1517C11.1897 23.1736 11.1941 23.1954 11.2026 23.2156C11.2111 23.2359 11.2235 23.2542 11.2391 23.2697C11.2547 23.2851 11.2732 23.2973 11.2936 23.3056C11.3139 23.3139 11.3357 23.3181 11.3576 23.318L13.4503 23.3071C13.4946 23.3068 13.5371 23.289 13.5683 23.2575C13.5995 23.226 13.6168 23.1833 13.6166 23.139L13.6166 23.1298ZM12.9613 23.6744C12.9611 23.6378 12.9464 23.6028 12.9204 23.577C12.8943 23.5513 12.8591 23.5369 12.8225 23.5371L11.2669 23.5452C11.2487 23.5453 11.2308 23.549 11.2141 23.556C11.1973 23.563 11.1822 23.5733 11.1694 23.5862C11.1567 23.5991 11.1466 23.6144 11.1397 23.6311C11.1329 23.6479 11.1294 23.6659 11.1295 23.684L11.1298 23.7515C11.13 23.7882 11.1448 23.8232 11.1708 23.849C11.1968 23.8747 11.232 23.8891 11.2686 23.8889L12.8243 23.8807C12.8425 23.8806 12.8604 23.877 12.8771 23.87C12.8938 23.8629 12.909 23.8527 12.9217 23.8398C12.9345 23.8269 12.9446 23.8116 12.9514 23.7948C12.9583 23.778 12.9618 23.7601 12.9617 23.7419L12.9613 23.6744ZM13.1114 24.1572C13.1114 24.152 13.1103 24.1468 13.1083 24.142C13.1063 24.1371 13.1033 24.1328 13.0996 24.1291C13.0959 24.1254 13.0915 24.1225 13.0866 24.1205C13.0818 24.1185 13.0766 24.1175 13.0714 24.1175L11.0094 24.1247C11.0042 24.1247 10.999 24.1258 10.9942 24.1278C10.9893 24.1298 10.9849 24.1328 10.9812 24.1365C10.9776 24.1402 10.9746 24.1446 10.9726 24.1494C10.9707 24.1543 10.9696 24.1595 10.9697 24.1647L10.9706 24.4255C10.9706 24.4308 10.9716 24.436 10.9737 24.4408C10.9757 24.4456 10.9786 24.45 10.9823 24.4537C10.9861 24.4574 10.9905 24.4603 10.9953 24.4623C11.0002 24.4643 11.0054 24.4653 11.0106 24.4653L13.0726 24.4581C13.0778 24.4581 13.083 24.457 13.0878 24.455C13.0926 24.453 13.097 24.45 13.1007 24.4463C13.1044 24.4426 13.1073 24.4382 13.1093 24.4333C13.1113 24.4285 13.1123 24.4233 13.1123 24.418L13.1114 24.1572Z" fill="#4A7BBC"/>
<path d="M27.8909 12.389C30.4101 12.3782 32.9768 13.2067 32.9998 16.2076C33.0228 19.2392 30.7415 21.6372 27.8602 22.2386C26.6282 22.4948 24.8823 22.435 23.4248 22.4718C23.3737 22.4728 23.344 22.4984 23.3358 22.5485L22.3048 28.4967C22.2915 28.5693 22.2481 28.6056 22.1744 28.6056H20.4055C20.395 28.6055 20.3847 28.6032 20.3752 28.5987C20.3658 28.5942 20.3574 28.5878 20.3507 28.5797C20.3439 28.5717 20.3391 28.5623 20.3363 28.5522C20.3336 28.5421 20.3331 28.5315 20.3349 28.5212L23.1717 12.4596C23.1809 12.4125 23.2095 12.388 23.2576 12.3859C24.7964 12.3184 26.349 12.3967 27.8909 12.389ZM30.9056 16.8228C31.1818 13.5642 26.9412 13.9278 24.936 14.0628C24.8818 14.0659 24.8501 14.0945 24.8409 14.1487L23.6856 20.6753C23.6764 20.7305 23.6994 20.7596 23.7547 20.7627C26.8047 20.9269 30.5666 20.8072 30.9056 16.8228Z" fill="#2B9E40"/>
<path d="M21.3337 17.9229C21.6421 18.4338 21.4166 19.3497 21.2647 19.9189C21.2504 19.9741 21.2146 20.0017 21.1573 20.0017L11.2018 20.0493C11.1796 20.0495 11.1575 20.045 11.1372 20.0358C11.1169 20.0267 11.0989 20.0133 11.0843 19.9965C11.0697 19.9798 11.0589 19.96 11.0527 19.9387C11.0465 19.9173 11.045 19.8948 11.0484 19.8729C11.1619 19.0659 11.2417 17.7771 12.3187 17.7787C14.98 17.7858 17.6398 17.7899 20.2981 17.7909C20.6039 17.7909 20.9087 17.8093 21.2125 17.8462C21.2657 17.8523 21.3061 17.8779 21.3337 17.9229Z" fill="#4A7BBC"/>
</svg>
