<svg width="28" height="16" viewBox="0 0 28 16" fill="none" xmlns="http://www.w3.org/2000/svg">
<rect x="0.25" y="0.711533" width="27.5" height="14.5769" rx="7.28846" fill="white"/>
<g clip-path="url(#clip0_8_54)">
<path d="M13.4468 8.41642V10.8003H12.6913V4.91563H14.6951C15.1785 4.90624 15.643 5.08926 15.995 5.42714C16.347 5.74155 16.5441 6.19675 16.5347 6.66602C16.5441 7.13999 16.347 7.59518 15.995 7.91429C15.643 8.24748 15.2113 8.41642 14.6998 8.41642H13.4468ZM13.4468 5.63831V7.69373H14.7139C14.9954 7.70312 15.2676 7.59049 15.46 7.3887C15.8589 7.0039 15.8636 6.37038 15.4788 5.97149L15.46 5.95272C15.2676 5.74624 14.9954 5.63362 14.7139 5.643L13.4468 5.63831ZM18.2757 6.64256C18.8341 6.64256 19.2752 6.79273 19.599 7.08837C19.9228 7.3887 20.0824 7.79697 20.0824 8.31787V10.7956H19.3597V10.2372H19.3268C19.0124 10.6971 18.5995 10.927 18.0786 10.927C17.6375 10.927 17.262 10.7956 16.9664 10.5328C16.6754 10.2888 16.5112 9.92748 16.5206 9.54737C16.5206 9.12971 16.6801 8.80122 16.9946 8.5525C17.309 8.30379 17.7313 8.18178 18.2569 8.18178C18.7074 8.18178 19.0734 8.26625 19.3644 8.4258V8.25217C19.3644 7.99407 19.2518 7.75005 19.0547 7.5858C18.8529 7.40747 18.5948 7.30893 18.3273 7.30893C17.9049 7.30893 17.5718 7.48725 17.323 7.8439L16.6567 7.42625C17.018 6.90535 17.5577 6.64256 18.2757 6.64256ZM17.2996 9.56614C17.2996 9.76323 17.3934 9.94625 17.5483 10.0589C17.7172 10.1903 17.9237 10.2607 18.1349 10.256C18.454 10.256 18.759 10.1293 18.9843 9.90402C19.233 9.66938 19.3597 9.39251 19.3597 9.0734C19.1251 8.88569 18.7966 8.79183 18.3742 8.79183C18.0692 8.79183 17.8111 8.86692 17.6046 9.01239C17.4028 9.16256 17.2996 9.34558 17.2996 9.56614ZM24.2308 6.77395L21.7061 12.5742H20.9271L21.8656 10.5469L20.2044 6.77865H21.0256L22.2223 9.66938H22.241L23.4095 6.77865L24.2308 6.77395Z" fill="#3B4043"/>
<path d="M10.3919 7.90021C10.3919 7.67027 10.3731 7.44032 10.3356 7.21507H7.14918V8.51496H8.97466C8.89957 8.93262 8.65555 9.30804 8.2989 9.54267V10.3874H9.38762C10.0258 9.80078 10.3919 8.93262 10.3919 7.90021Z" fill="#4285F4"/>
<path d="M7.14918 11.2039C8.05957 11.2039 8.82918 10.9036 9.38762 10.3874L8.2989 9.54268C7.99387 9.74916 7.60437 9.86648 7.14918 9.86648C6.26694 9.86648 5.52079 9.2705 5.25331 8.47273H4.13174V9.34558C4.70426 10.4812 5.87275 11.2039 7.14918 11.2039Z" fill="#34A852"/>
<path d="M5.25331 8.47273C5.11252 8.05507 5.11252 7.59988 5.25331 7.17753V6.30937H4.13174C3.89343 6.7791 3.76923 7.2984 3.76923 7.82513C3.76923 8.35185 3.89343 8.87116 4.13174 9.34089L5.25331 8.47273Z" fill="#F9BA05"/>
<path d="M7.14918 5.78379C7.63253 5.7744 8.09711 5.95742 8.44437 6.2906L9.40639 5.32859C8.79633 4.75138 7.98918 4.43697 7.14918 4.44636C5.87275 4.44636 4.70426 5.16904 4.13174 6.30938L5.25331 7.18223C5.52079 6.37977 6.26694 5.78379 7.14918 5.78379Z" fill="#E94235"/>
</g>
<rect x="0.25" y="0.711533" width="27.5" height="14.5769" rx="7.28846" stroke="#3B4043" stroke-width="0.5"/>
<defs>
<clipPath id="clip0_8_54">
<rect width="20.4615" height="8.12804" fill="white" transform="translate(3.76923 4.44615)"/>
</clipPath>
</defs>
</svg>
