<svg
  width="28"
  height="24"
  viewBox="0 0 28 24"
  fill="none"
  xmlns="http://www.w3.org/2000/svg"
>
  <path
    d="M0.317337 0.0195618V24H14.2982C23.5208 24 27.5202 18.8352 27.5202 11.9863C27.5202 5.16406 23.5208 0.0195618 14.2982 0.0195618H0.317337Z"
    fill="white"
  />
  <path
    d="M1.82847 1.53207H14.3001C22.765 1.53207 26.0096 6.15466 26.0096 11.9859C26.0096 18.9782 21.4787 22.4867 14.3001 22.4867H1.82847V1.53207ZM3.03753 2.74113V21.2784H14.3001C21.0998 21.2784 24.7994 18.1099 24.7994 11.9859C24.7994 5.69225 20.789 2.74076 14.3001 2.74076H3.03753V2.74113Z"
    fill="black"
  />
  <path d="M4.54851 13.3491H8.15387V19.7659H4.54851V13.3491Z" fill="black" />
  <path
    d="M6.35085 12.3567C7.58835 12.3567 8.59155 11.3535 8.59155 10.116C8.59155 8.8785 7.58835 7.87531 6.35085 7.87531C5.11335 7.87531 4.11016 8.8785 4.11016 10.116C4.11016 11.3535 5.11335 12.3567 6.35085 12.3567Z"
    fill="black"
  />
  <path
    d="M15.7147 11.1643V12.2033H13.1458V8.03389H15.6327V9.07255H14.1845V9.55528H15.5539V10.5943H14.1845V11.1646L15.7147 11.1643ZM16.1642 12.204L17.4213 8.03241H18.8991L20.1558 12.204H19.0746L18.8388 11.3971H17.4801L17.2439 12.204H16.1642ZM17.7846 10.3592H18.5365L18.1916 9.18085H18.1288L17.7846 10.3592ZM20.6781 8.03278H21.7175V11.1646H23.2559C22.8338 5.48197 18.3642 4.25406 14.3005 4.25406H9.96957V8.035H10.6105C11.7793 8.035 12.5049 8.82748 12.5049 10.1027C12.5049 11.4186 11.7967 12.204 10.6105 12.204H9.96957V19.7689H14.3009C20.9047 19.7689 23.2045 16.7017 23.2858 12.2033H20.6781V8.03278ZM9.96883 9.07365V11.1646H10.6105C11.0552 11.1646 11.4662 11.036 11.4662 10.1023C11.4662 9.19046 11.009 9.07365 10.6105 9.07365H9.96883Z"
    fill="#D50072"
  />
</svg>
