<svg width="40" height="40" viewBox="0 0 40 40" fill="none" xmlns="http://www.w3.org/2000/svg">
<rect x="0.5" y="0.5" width="39" height="39" rx="3.5" fill="#FAFAFA"/>
<rect x="0.5" y="0.5" width="39" height="39" rx="3.5" stroke="#E6E6E6"/>
<path d="M17.1529 15.3764L14.7238 31.0422C14.5838 32.1057 15.1027 31.9526 16.6182 31.9526C19.2499 32.0638 19.0844 32.1374 19.3797 30.2475C20.2648 24.5829 19.9123 24.8771 22.204 25.119C30.3023 25.9735 31.698 17.9576 29.755 15.3764C28.0807 13.152 23.2101 13.5954 20.2648 13.649C17.127 13.7061 17.4445 13.6092 17.1529 15.3764Z" fill="#009EE3"/>
<path d="M12.8355 10.0807L10.0254 28.204C9.86335 29.4344 10.4637 29.2572 12.2169 29.2572C15.2615 29.3859 15.07 29.471 15.4116 27.2847C16.4355 20.7314 16.0278 21.0719 18.679 21.3516C28.0477 22.3402 29.6623 13.0669 27.4146 10.0807C25.4776 7.50736 19.8429 8.02028 16.4355 8.08231C12.8056 8.14839 13.1728 8.0363 12.8355 10.0807Z" fill="#113984"/>
<path d="M28.2759 14.2534C26.3887 13.5881 23.7504 13.6692 21.6475 13.7339C21.2672 13.7456 20.9043 13.7568 20.5666 13.7629C18.7398 13.7959 18.0762 13.7774 17.7847 14.0977C17.572 14.3312 17.5573 14.745 17.4335 15.4903L16.4667 21.6832C16.5364 21.5914 16.6139 21.5221 16.7019 21.471C17.0755 21.2539 17.639 21.3637 18.6101 21.4655C25.1413 22.15 27.9297 17.9149 28.2759 14.2534Z" fill="#172C70"/>
</svg>
