<svg width="40" height="40" viewBox="0 0 40 40" fill="none" xmlns="http://www.w3.org/2000/svg">
<rect x="0.5" y="0.5" width="39" height="39" rx="3.5" fill="#FAFAFA"/>
<rect x="0.5" y="0.5" width="39" height="39" rx="3.5" stroke="#E6E6E6"/>
<g clip-path="url(#clip0_993_722)">
<path d="M31.9409 15.9266L30.2732 15.926C30.0913 15.926 29.9438 16.0735 29.9437 16.2554L29.9436 16.488H30.0593C30.8123 16.488 31.0924 16.6123 31.0924 17.2982V18.2733L31.94 18.2736C32.1219 18.2736 32.2694 18.1263 32.2695 17.9444L32.27 16.2561C32.27 16.0742 32.1227 15.9267 31.9409 15.9266ZM22.8392 18.5478C22.7622 18.4512 22.6167 18.4378 22.4708 18.4378H22.3614C21.9979 18.4378 21.8553 18.55 21.7748 18.8988L20.7647 23.0975C20.6386 23.6135 20.4615 23.7078 20.1584 23.7078C19.7872 23.7078 19.6386 23.6192 19.4906 23.0955L18.3465 18.8967C18.2518 18.5451 18.1121 18.4378 17.7485 18.4378H17.6511C17.5043 18.4378 17.3582 18.4514 17.2831 18.5493C17.208 18.6472 17.2334 18.7935 17.2721 18.9373L18.4283 23.1724C18.6452 23.9829 18.903 24.6539 19.8663 24.6539C20.0461 24.6539 20.2124 24.6289 20.3507 24.5822C20.0585 25.5011 19.7613 25.9063 18.8849 25.9963C18.707 26.0112 18.5915 26.0366 18.5271 26.123C18.4602 26.2125 18.4754 26.3408 18.4993 26.4553L18.5234 26.564C18.5757 26.8151 18.6648 26.9708 18.9467 26.9708C18.9764 26.9708 19.0082 26.9692 19.0424 26.9663C20.3511 26.8806 21.0523 26.176 21.4626 24.5344L22.8627 18.9343C22.8959 18.7906 22.9159 18.6443 22.8392 18.5478ZM15.7969 21.7737V22.6213C15.7969 23.3122 15.5407 23.7123 14.2312 23.7123C13.3661 23.7123 12.9456 23.3992 12.9456 22.7552C12.9456 22.0489 13.3675 21.7737 14.4503 21.7737H15.7969ZM14.2312 18.2596C13.5173 18.2596 13.07 18.3492 12.9003 18.3831C12.5998 18.4484 12.4742 18.5309 12.4742 18.8725V18.9699C12.4742 19.1038 12.494 19.1966 12.5365 19.2618C12.586 19.3378 12.6658 19.3763 12.7736 19.3763C12.8262 19.3763 12.8872 19.3675 12.9599 19.3493C13.1315 19.3064 13.68 19.2178 14.2799 19.2178C15.3574 19.2178 15.7969 19.5162 15.7969 20.2478V20.9007H14.4381C12.6914 20.9007 11.8778 21.4899 11.8778 22.7552C11.8778 23.9824 12.718 24.6582 14.2434 24.6582C16.0562 24.6582 16.8646 24.0413 16.8646 22.6578V20.2478C16.8646 18.91 16.0033 18.2596 14.2312 18.2596ZM10.807 19.0713C10.807 20.0788 10.5498 20.6248 9.19264 20.6248H7.10363V18.0246C7.10363 17.664 7.23771 17.5299 7.59824 17.5299H9.19264C10.2151 17.5299 10.807 17.7822 10.807 19.0713ZM9.19264 16.4866H7.39126C6.42865 16.4866 5.99939 16.9159 5.99939 17.8786V24.0615C5.99939 24.4333 6.11876 24.5527 6.49071 24.5527H6.6124C6.98426 24.5527 7.10363 24.4333 7.10363 24.0615V21.656H9.19264C11.0474 21.656 11.9112 20.8346 11.9112 19.0713C11.9112 17.3078 11.0474 16.4866 9.19264 16.4866ZM32.1032 14.1842L31.262 14.1839C31.1702 14.1838 31.0959 14.1095 31.0959 14.0177L31.0962 13.166C31.0963 13.0743 31.1707 13 31.2624 13L32.1036 13.0003C32.1954 13.0003 32.2697 13.0747 32.2697 13.1664L32.2695 14.0181C32.2694 14.1099 32.195 14.1842 32.1032 14.1842ZM33.7537 15.9277L32.5151 15.9272C32.38 15.9272 32.2705 15.8176 32.2706 15.6826L32.271 14.4287C32.2711 14.2935 32.3807 14.184 32.5157 14.184L33.7543 14.1845C33.8894 14.1845 33.9989 14.2941 33.9989 14.4291L33.9984 15.6832C33.9984 15.8182 33.8888 15.9277 33.7537 15.9277ZM30.2723 18.2731C30.0904 18.2731 29.9431 18.1256 29.9432 17.9437L29.9436 16.488H29.8222C29.0692 16.488 28.7892 16.6124 28.7892 17.2983V18.9033C28.7891 18.9067 28.7887 18.9101 28.7887 18.9135V19.2653C28.7885 19.2775 28.7877 19.2888 28.7877 19.3014V21.5441C28.7877 21.8179 28.7349 22.0361 28.626 22.2055C28.4207 22.5219 28.0142 22.6656 27.3638 22.6665C26.7137 22.6656 26.3073 22.522 26.1019 22.2059C25.9927 22.0363 25.9399 21.8181 25.9399 21.5441V19.3014C25.9399 19.2888 25.9392 19.2775 25.939 19.2653V18.9135C25.939 18.9101 25.9386 18.9067 25.9385 18.9033V17.2983C25.9385 16.6124 25.6584 16.488 24.9054 16.488H24.6683C23.9152 16.488 23.6353 16.6124 23.6353 17.2983V21.5441C23.6353 22.2271 23.7893 22.8053 24.0869 23.2715C24.6617 24.1747 25.7751 24.6558 27.358 24.6558C27.3599 24.6558 27.3619 24.6557 27.3638 24.6557C27.3658 24.6557 27.3677 24.6558 27.3697 24.6558C28.9526 24.6558 30.066 24.1747 30.6408 23.2715C30.9384 22.8053 31.0924 22.2271 31.0924 21.5441V18.2733L30.2723 18.2731Z" fill="#A6C307"/>
</g>
<defs>
<clipPath id="clip0_993_722">
<rect width="28" height="13.971" fill="white" transform="translate(6 13)"/>
</clipPath>
</defs>
</svg>
