<svg width="40" height="40" viewBox="0 0 40 40" fill="none" xmlns="http://www.w3.org/2000/svg">
<rect x="0.5" y="0.5" width="39" height="39" rx="3.5" fill="#FAFAFA"/>
<rect x="0.5" y="0.5" width="39" height="39" rx="3.5" stroke="#E6E6E6"/>
<g clip-path="url(#clip0_993_698)">
<path d="M10.6607 22.7476C10.4224 22.7476 10.1842 22.7448 9.94606 22.7493C9.87606 22.7506 9.84089 22.7267 9.81569 22.6633C9.69719 22.366 9.57517 22.07 9.45443 21.7735C9.28962 21.3687 9.12459 20.964 8.96006 20.5591C8.81754 20.2084 8.67564 19.8575 8.53317 19.5068C8.50876 19.4466 8.48233 19.3873 8.4578 19.3272C8.42482 19.2464 8.43058 19.2373 8.51654 19.2372C8.82404 19.2368 9.13159 19.2383 9.43909 19.2363C9.5577 19.2355 9.67698 19.2484 9.79474 19.2184C10.1155 19.1371 10.3262 18.9295 10.4548 18.6345C10.5309 18.4599 10.5673 18.2773 10.5271 18.0838C10.4592 17.7567 10.2503 17.5704 9.91671 17.5666C9.43819 17.5611 8.9595 17.5655 8.48093 17.5644C8.4377 17.5643 8.41921 17.5807 8.4121 17.6223C8.34132 18.036 8.26975 18.4495 8.19757 18.8629C8.15775 19.0909 8.11569 19.3185 8.07593 19.5466C8.04625 19.7171 8.01993 19.8882 7.98992 20.0586C7.93185 20.3886 7.87103 20.7182 7.81363 21.0484C7.75326 21.3958 7.69581 21.7438 7.6365 22.0914C7.60268 22.2896 7.56684 22.4876 7.53363 22.6859C7.52607 22.7311 7.503 22.7479 7.45887 22.7478C6.99328 22.7472 6.52764 22.7471 6.06206 22.7477C6.00931 22.7478 5.99329 22.725 6.00242 22.6749C6.05192 22.4025 6.10126 22.1301 6.1488 21.8574C6.18856 21.6295 6.22485 21.4009 6.26422 21.1729C6.3102 20.9065 6.35847 20.6405 6.4045 20.3741C6.44868 20.1184 6.4899 19.8622 6.53487 19.6067C6.59148 19.2853 6.65197 18.9645 6.70825 18.643C6.75153 18.3958 6.78922 18.1477 6.83245 17.9005C6.88907 17.5767 6.94961 17.2536 7.00656 16.9299C7.04889 16.6893 7.08966 16.4483 7.12774 16.2069C7.13653 16.1512 7.15877 16.1294 7.21589 16.1295C8.23374 16.131 9.25165 16.1241 10.2694 16.1344C10.7789 16.1395 11.2255 16.3254 11.5836 16.6956C11.8353 16.9558 11.9865 17.2694 12.056 17.6254C12.1279 17.9941 12.0945 18.3554 11.9802 18.7079C11.8555 19.0924 11.6406 19.4259 11.3588 19.7158C11.1305 19.9506 10.8708 20.143 10.5773 20.2882C10.5249 20.3141 10.5215 20.3437 10.5409 20.3915C10.7668 20.9466 10.9917 21.5021 11.2168 22.0574C11.3013 22.2657 11.3857 22.4741 11.4701 22.6824C11.4906 22.7331 11.4798 22.7471 11.4143 22.7472C11.163 22.7479 10.9118 22.7475 10.6607 22.7476Z" fill="black"/>
<path d="M31.4054 22.7476C31.0027 22.7476 30.5999 22.7449 30.1972 22.7484C29.8684 22.7512 29.5553 22.6879 29.2652 22.5322C28.977 22.3775 28.7476 22.1575 28.5819 21.8744C28.2971 21.388 28.2323 20.8641 28.3165 20.3139C28.4152 19.6697 28.6926 19.1124 29.1326 18.636C29.4566 18.2853 29.8438 18.0257 30.2969 17.8696C30.5423 17.7851 30.7963 17.7462 31.0554 17.7451C31.43 17.7434 31.8046 17.7435 32.1791 17.7458C32.2428 17.7462 32.2698 17.7277 32.2804 17.6616C32.3275 17.3691 32.3801 17.0774 32.4314 16.7856C32.4741 16.543 32.5184 16.3006 32.5602 16.0577C32.5691 16.0055 32.6015 15.9998 32.6443 16C32.8782 16.0007 33.112 16.0003 33.3458 16.0003C33.5364 16.0003 33.7269 16.0001 33.9174 16.0004C34.0032 16.0006 34.0081 16.0074 33.9938 16.0891C33.9053 16.5941 33.817 17.0991 33.7289 17.6041C33.6631 17.9812 33.5981 18.3584 33.5324 18.7355C33.4466 19.2276 33.3605 19.7196 33.2747 20.2117C33.209 20.5889 33.144 20.9662 33.0781 21.3433C33.0009 21.7841 32.9223 22.2246 32.8467 22.6657C32.8364 22.7258 32.8133 22.7492 32.7499 22.7488C32.3018 22.7464 31.8536 22.7476 31.4054 22.7476ZM31.0377 21.3826C31.2386 21.3826 31.4031 21.382 31.5676 21.383C31.6093 21.3832 31.64 21.3739 31.6459 21.3261C31.6585 21.2252 31.6791 21.1257 31.6974 21.0258C31.7472 20.7536 31.7902 20.4801 31.8371 20.2074C31.8961 19.8643 31.9554 19.5212 32.0172 19.1787C32.0271 19.124 32.0107 19.1092 31.9591 19.1102C31.6238 19.1164 31.2882 19.0994 30.953 19.1207C30.6585 19.1394 30.4004 19.2484 30.1875 19.4492C29.8434 19.7736 29.7048 20.1797 29.7531 20.6472C29.7944 21.0467 30.0855 21.3262 30.4837 21.3701C30.6807 21.3917 30.8774 21.3748 31.0377 21.3826Z" fill="black"/>
<path d="M19.8214 17.8835C20.2328 17.8835 20.6441 17.8847 21.0555 17.8832C21.5511 17.8815 21.9809 18.0493 22.3359 18.3932C22.5583 18.6087 22.7075 18.8728 22.8054 19.1681C22.8834 19.4035 22.9143 19.6447 22.9151 19.8895C22.9159 20.1497 22.8809 20.4058 22.8113 20.6585C22.7296 20.9554 22.6087 21.2334 22.4471 21.4938C22.1957 21.8988 21.8724 22.2331 21.4673 22.4881C21.2119 22.6488 20.9393 22.7657 20.645 22.8297C20.482 22.8651 20.3167 22.8811 20.1488 22.8793C19.7722 22.8754 19.3954 22.8794 19.0187 22.8768C18.9518 22.8764 18.9261 22.8954 18.9151 22.9651C18.8717 23.2428 18.8198 23.5192 18.772 23.7963C18.7289 24.0456 18.6854 24.2948 18.6458 24.5448C18.6358 24.6082 18.6104 24.633 18.5448 24.6327C18.1226 24.6306 17.7004 24.6317 17.2782 24.6314C17.2015 24.6313 17.1963 24.626 17.2094 24.5485C17.2572 24.267 17.3065 23.9857 17.3546 23.7043C17.3994 23.4421 17.4426 23.1796 17.4882 22.9175C17.5664 22.4681 17.6465 22.0189 17.7249 21.5694C17.781 21.2477 17.8352 20.9256 17.8911 20.6038C17.9775 20.1053 18.0646 19.607 18.1514 19.1086C18.216 18.7378 18.2807 18.3671 18.3451 17.9963C18.3643 17.8859 18.3666 17.8834 18.4768 17.8834C18.9251 17.8835 19.3732 17.8835 19.8214 17.8835ZM19.7488 21.5122V21.512C19.896 21.512 20.0433 21.5141 20.1905 21.5115C20.4802 21.5065 20.7394 21.4103 20.96 21.2251C21.3221 20.9213 21.4717 20.5199 21.4577 20.0565C21.4516 19.8538 21.3825 19.6678 21.2397 19.514C21.0586 19.3188 20.8231 19.2528 20.5719 19.2439C20.2604 19.2329 19.9483 19.2421 19.6366 19.2401C19.5846 19.2397 19.5639 19.2595 19.5553 19.3087C19.4966 19.6454 19.4352 19.9816 19.3762 20.3182C19.3106 20.693 19.2475 21.0684 19.1807 21.4431C19.1705 21.5004 19.1874 21.5141 19.2421 21.5132C19.411 21.5105 19.58 21.5122 19.7488 21.5122Z" fill="black"/>
<path d="M15.1122 22.8778C14.6814 22.8778 14.2503 22.8859 13.8197 22.8757C13.2524 22.8623 12.7863 22.6303 12.437 22.1805C12.1814 21.8513 12.0603 21.4703 12.0266 21.0574C11.9904 20.6145 12.0681 20.189 12.2301 19.7805C12.4893 19.1272 12.9152 18.608 13.5195 18.2417C13.917 18.0008 14.3462 17.8785 14.8144 17.8818C15.6544 17.8877 16.4945 17.8835 17.3345 17.8835C17.441 17.8835 17.439 17.8845 17.42 17.9898C17.3721 18.2559 17.3278 18.5226 17.2808 18.7889C17.2394 19.023 17.1951 19.2566 17.1545 19.4908C17.108 19.7592 17.0648 20.0282 17.0191 20.2968C16.9716 20.5761 16.9239 20.8553 16.8744 21.1341C16.8177 21.4535 16.7578 21.7722 16.7014 22.0915C16.6597 22.3278 16.6191 22.5643 16.5829 22.8015C16.5735 22.8631 16.5467 22.8791 16.4892 22.8789C16.0302 22.8773 15.5713 22.878 15.1123 22.878C15.1123 22.878 15.1122 22.8779 15.1122 22.8778ZM14.747 21.5123C14.9501 21.5123 15.1169 21.5087 15.2835 21.5139C15.3549 21.5162 15.3807 21.4843 15.3892 21.4225C15.4033 21.3197 15.4225 21.2178 15.4408 21.1156C15.5173 20.6898 15.5876 20.263 15.661 19.8366C15.6906 19.664 15.7225 19.4918 15.753 19.3194C15.7604 19.278 15.764 19.2399 15.7021 19.2409C15.3623 19.2463 15.022 19.2247 14.6829 19.2518C14.2922 19.283 13.9778 19.4606 13.7462 19.7773C13.574 20.0129 13.4892 20.2826 13.4766 20.5712C13.455 21.069 13.7097 21.4251 14.2189 21.5031C14.405 21.5316 14.5952 21.5076 14.747 21.5123Z" fill="black"/>
<path d="M25.5809 20.848C25.7257 20.5469 25.8633 20.2604 26.0012 19.974C26.1972 19.5667 26.3934 19.1594 26.5894 18.752C26.699 18.524 26.8096 18.2965 26.9165 18.0672C26.9382 18.0206 26.9654 18.0031 27.0154 18.0032C27.4724 18.0044 27.9294 18.0037 28.3863 18.0041C28.467 18.0042 28.4749 18.019 28.4365 18.0917C28.209 18.5221 27.9808 18.9522 27.7542 19.383C27.4782 19.9077 27.204 20.4332 26.9283 20.9581C26.6447 21.4981 26.3605 22.0378 26.0761 22.5774C25.8534 23.0002 25.5993 23.4019 25.2691 23.7502C24.9312 24.1068 24.5359 24.376 24.0605 24.5159C23.74 24.6103 23.4118 24.6434 23.0783 24.6312C23.0092 24.6287 23.0157 24.5832 23.0229 24.5401C23.0494 24.3801 23.0785 24.2205 23.1064 24.0606C23.1471 23.8284 23.19 23.5965 23.2266 23.3636C23.2364 23.3012 23.2605 23.279 23.3222 23.2783C23.5157 23.276 23.7055 23.2525 23.8878 23.1808C24.1215 23.089 24.2853 22.9194 24.4274 22.7199C24.516 22.5956 24.5532 22.4795 24.5078 22.3184C24.3916 21.9062 24.2999 21.4872 24.1995 21.0706C24.1084 20.692 24.0198 20.3128 23.9281 19.9344C23.8533 19.6253 23.7749 19.3171 23.6996 19.008C23.6249 18.7012 23.5517 18.3939 23.4789 18.0866C23.4617 18.0137 23.4706 18.0041 23.548 18.0041C24.0049 18.0037 24.4619 18.0039 24.9188 18.0039C25.0417 18.0039 25.0408 18.0063 25.0625 18.126C25.1369 18.5346 25.2137 18.9427 25.2896 19.351C25.3363 19.602 25.3823 19.8531 25.4297 20.1039C25.4736 20.3355 25.5189 20.5668 25.5639 20.7981C25.5661 20.8102 25.5717 20.8217 25.5809 20.848Z" fill="black"/>
</g>
<defs>
<clipPath id="clip0_993_698">
<rect width="28" height="8.63361" fill="white" transform="translate(6 16)"/>
</clipPath>
</defs>
</svg>
