<svg width="40" height="40" viewBox="0 0 40 40" fill="none" xmlns="http://www.w3.org/2000/svg">
<rect x="0.5" y="0.5" width="39" height="39" rx="3.5" fill="#FAFAFA"/>
<rect x="0.5" y="0.5" width="39" height="39" rx="3.5" stroke="#E6E6E6"/>
<path d="M7.00041 14.6937L7.53256 12.0177C7.53353 12.0128 7.53621 12.0083 7.54013 12.005C7.54404 12.0018 7.54896 12 7.55404 12H19.9606C19.9638 12 19.967 12.0007 19.9699 12.0021C19.9728 12.0035 19.9754 12.0055 19.9775 12.008C19.9795 12.0105 19.981 12.0134 19.9818 12.0166C19.9826 12.0197 19.9827 12.023 19.982 12.0262L19.4518 14.7026C19.4508 14.7076 19.4481 14.7121 19.4442 14.7153C19.4403 14.7185 19.4354 14.7203 19.4303 14.7203H14.8468C14.8418 14.7203 14.8368 14.7221 14.8329 14.7253C14.829 14.7286 14.8263 14.7331 14.8254 14.7381L12.3222 27.3818C12.3212 27.3868 12.3185 27.3913 12.3146 27.3946C12.3107 27.3978 12.3058 27.3996 12.3007 27.3996H9.15191C9.14868 27.3996 9.14548 27.3988 9.14256 27.3975C9.13964 27.3961 9.13706 27.3941 9.13501 27.3916C9.13296 27.3891 9.13148 27.3861 9.13069 27.383C9.1299 27.3799 9.12981 27.3766 9.13043 27.3734L11.6322 14.7476C11.6328 14.7445 11.6327 14.7412 11.6319 14.7381C11.6311 14.7349 11.6297 14.732 11.6276 14.7295C11.6256 14.727 11.623 14.725 11.6201 14.7236C11.6171 14.7222 11.6139 14.7215 11.6107 14.7215L7.02189 14.7199C7.01865 14.7198 7.01546 14.7191 7.01254 14.7177C7.00962 14.7163 7.00704 14.7143 7.00499 14.7118C7.00294 14.7093 7.00146 14.7064 7.00067 14.7033C6.99988 14.7001 6.99979 14.6969 7.00041 14.6937Z" fill="#00A5F8"/>
<path d="M32.1655 12.9825C32.9496 13.7239 33.0676 14.8106 32.9716 15.8338C32.8928 16.6732 32.7151 17.4783 32.4385 18.2492C31.9608 19.5811 31.079 20.6877 29.7474 21.2301C28.6828 21.6635 27.5286 21.7657 26.3891 21.7678C25.3313 21.7699 24.2765 21.7701 23.2244 21.7685C23.2157 21.7685 23.2105 21.7728 23.2088 21.7814L22.0994 27.378C22.0977 27.3866 22.0925 27.3909 22.0838 27.3909H18.924C18.9159 27.3909 18.9126 27.3869 18.9142 27.3789L21.9603 12.0177C21.9613 12.0119 21.9648 12.009 21.9708 12.009C24.0026 12.0086 26.0343 12.0086 28.0661 12.0093C28.6167 12.0095 29.1641 12.0331 29.7123 12.0851C30.5574 12.1652 31.5311 12.3829 32.1655 12.9825ZM29.406 15.0822C29.0863 14.8048 28.5383 14.7296 28.1229 14.6962C27.7582 14.667 27.3883 14.6542 26.9976 14.6537C26.2104 14.6528 25.4225 14.6528 24.6339 14.6537C24.6258 14.6537 24.6209 14.6577 24.6194 14.6656L23.7386 19.1176C23.7369 19.1257 23.7402 19.1297 23.7484 19.1297C24.5635 19.1322 25.3786 19.1317 26.1937 19.1283C26.5939 19.1265 26.9921 19.1008 27.3883 19.0513C28.4626 18.917 29.1031 18.4719 29.4387 17.4205C29.5791 16.9806 29.6695 16.5385 29.7098 16.0942C29.7427 15.7283 29.7004 15.3376 29.406 15.0822Z" fill="black"/>
</svg>
