<svg width="29" height="18" viewBox="0 0 29 18" fill="none" xmlns="http://www.w3.org/2000/svg">
<g clip-path="url(#clip0_58_128)">
<path d="M5.66877 6.10352e-05H12.8937C13.9022 6.10352e-05 14.5295 0.816434 14.2942 1.82133L10.9305 16.1635C10.6931 17.1649 9.68335 17.9819 8.67412 17.9819H1.4499C0.44278 17.9819 -0.185903 17.1649 0.0493689 16.1635L3.41449 1.82133C3.64976 0.816434 4.659 6.10352e-05 5.66877 6.10352e-05Z" fill="#E21836"/>
<path d="M12.2925 7.62939e-05H20.601C21.6094 7.62939e-05 21.1547 0.816449 20.9174 1.82135L17.5543 16.1635C17.3183 17.1649 17.3919 17.982 16.3814 17.982H8.07295C7.06248 17.982 6.43715 17.1649 6.67453 16.1635L10.0375 1.82135C10.2763 0.816449 11.2835 7.62939e-05 12.2925 7.62939e-05Z" fill="#00447C"/>
<path d="M20.2714 7.62939e-05H27.4963C28.5063 7.62939e-05 29.1336 0.816449 28.8964 1.82135L25.5332 16.1635C25.2958 17.1649 24.2853 17.982 23.2755 17.982H16.054C15.0435 17.982 14.4168 17.1649 14.6534 16.1635L18.0172 1.82135C18.2524 0.816449 19.261 7.62939e-05 20.2714 7.62939e-05Z" fill="#007B84"/>
<path d="M7.55567 4.59632C6.81269 4.60384 6.59327 4.59631 6.52318 4.57988C6.49624 4.70702 5.99488 7.00381 5.99347 7.00573C5.88552 7.47041 5.80698 7.80164 5.54018 8.01553C5.38874 8.13988 5.21193 8.19986 5.00695 8.19986C4.67746 8.19986 4.48551 8.03739 4.45329 7.72924L4.44712 7.62343C4.44712 7.62343 4.5475 7.00101 4.5475 6.99751C4.5475 6.99751 5.07369 4.90447 5.16791 4.62779C5.17284 4.61205 5.17425 4.60384 5.17548 4.59632C4.15127 4.60523 3.96971 4.59631 3.95721 4.57988C3.95034 4.60244 3.92498 4.7322 3.92498 4.7322L3.3877 7.09125L3.34156 7.29132L3.25227 7.94575C3.25227 8.13988 3.29066 8.29832 3.36709 8.43229C3.61187 8.85709 4.31012 8.92075 4.70511 8.92075C5.21404 8.92075 5.69146 8.81337 6.01407 8.61732C6.57408 8.2887 6.72059 7.77506 6.85126 7.31861L6.91184 7.08443C6.91184 7.08443 7.45388 4.91059 7.54598 4.62779C7.5495 4.61205 7.55091 4.60384 7.55567 4.59632ZM9.39993 6.34998C9.26926 6.34998 9.03046 6.38146 8.81597 6.48586C8.73814 6.52556 8.66452 6.57138 8.58686 6.61703L8.65695 6.36572L8.61856 6.32339C8.16369 6.41486 8.06191 6.4271 7.64173 6.48586L7.60651 6.50912C7.55773 6.91084 7.51441 7.21287 7.33355 8.00248C7.26469 8.2935 7.1932 8.58731 7.12152 8.87762L7.14089 8.91452C7.57146 8.89196 7.70213 8.89196 8.07635 8.89808L8.10664 8.86538C8.15418 8.62351 8.16035 8.56685 8.26565 8.07699C8.31514 7.84474 8.41833 7.33442 8.46923 7.15271C8.56274 7.10969 8.65502 7.06736 8.74307 7.06736C8.9528 7.06736 8.92727 7.24907 8.91917 7.32147C8.91019 7.44302 8.83376 7.84001 8.75539 8.18087L8.70309 8.40088C8.66664 8.56335 8.62666 8.72127 8.59021 8.88234L8.60606 8.91452C9.03046 8.89196 9.1599 8.89196 9.52232 8.89808L9.56493 8.86538C9.63044 8.48762 9.64964 8.38654 9.76586 7.83652L9.82433 7.58381C9.93792 7.08922 9.99497 6.83844 9.90903 6.63417C9.81817 6.40524 9.60015 6.34998 9.39993 6.34998ZM11.4602 6.8678C11.2346 6.91082 11.0907 6.9395 10.9477 6.95804C10.806 6.9806 10.6677 7.00106 10.4497 7.03114L10.4324 7.04671L10.4166 7.05913C10.3939 7.22037 10.378 7.35976 10.3479 7.52363C10.3224 7.69309 10.2831 7.88564 10.2192 8.16231C10.1697 8.3741 10.1442 8.4479 10.116 8.52241C10.0885 8.59691 10.0582 8.66931 10.0026 8.8776L10.0156 8.89684L10.0265 8.9145C10.2303 8.90488 10.3636 8.89806 10.5006 8.89684C10.6374 8.89194 10.7792 8.89684 10.9986 8.89806L11.0178 8.8825L11.0384 8.86536C11.0701 8.67753 11.0749 8.62699 11.0942 8.53535C11.1134 8.43706 11.1465 8.301 11.2277 7.93758C11.2661 7.76689 11.3089 7.59673 11.3487 7.42254C11.3901 7.24905 11.4334 7.07819 11.4746 6.9075L11.4684 6.88686L11.4602 6.8678ZM11.465 6.16962C11.26 6.04947 10.9002 6.08759 10.6581 6.25356C10.4166 6.41621 10.3892 6.64706 10.5935 6.76878C10.7949 6.8856 11.1561 6.8508 11.3961 6.68343C11.637 6.51729 11.6671 6.28854 11.465 6.16962ZM12.7046 8.95216C13.1194 8.95216 13.5445 8.83865 13.8644 8.50182C14.1106 8.22865 14.2235 7.82221 14.2626 7.65484C14.3899 7.1001 14.2908 6.84109 14.1663 6.68335C13.9772 6.44288 13.6429 6.36575 13.2962 6.36575C13.0877 6.36575 12.5911 6.38621 12.2031 6.74141C11.9245 6.99762 11.7958 7.34529 11.7181 7.67863C11.6398 8.01826 11.5496 8.62966 12.1158 8.85719C12.2905 8.93169 12.5423 8.95216 12.7046 8.95216ZM12.6722 7.70399C12.7679 7.28391 12.8807 6.93134 13.1688 6.93134C13.3946 6.93134 13.411 7.19367 13.3106 7.61514C13.2926 7.70871 13.2102 8.05656 13.0988 8.20469C13.0209 8.31399 12.9288 8.38028 12.827 8.38028C12.7967 8.38028 12.6166 8.38028 12.6138 8.11462C12.6124 7.98346 12.6393 7.84949 12.6722 7.70399ZM15.2993 8.89813L15.3317 8.86543C15.3777 8.62356 15.3853 8.56672 15.4871 8.07704C15.5379 7.84479 15.6433 7.33447 15.6927 7.15276C15.7864 7.10956 15.8771 7.06724 15.968 7.06724C16.1763 7.06724 16.151 7.24895 16.1427 7.32135C16.1351 7.44307 16.0587 7.83989 15.9789 8.18075L15.9294 8.40075C15.8916 8.5634 15.8503 8.72115 15.8139 8.88239L15.8297 8.91457C16.2556 8.89201 16.3801 8.89201 16.7446 8.89813L16.7886 8.86543C16.8525 8.4875 16.8698 8.38641 16.9895 7.83657L17.0466 7.58368C17.1607 7.0891 17.2185 6.83849 17.134 6.63422C17.0404 6.40529 16.821 6.35003 16.6236 6.35003C16.4928 6.35003 16.2527 6.38133 16.0395 6.48592C15.9632 6.52562 15.8868 6.57126 15.8118 6.61708L15.8771 6.36577L15.8421 6.32327C15.3874 6.41491 15.2835 6.42715 14.8638 6.48592L14.8316 6.50918C14.7807 6.91089 14.7393 7.21275 14.5585 8.00254C14.4896 8.29355 14.4181 8.58736 14.3466 8.87767L14.3658 8.91457C14.7971 8.89201 14.9258 8.89201 15.2993 8.89813ZM18.4279 8.91449C18.4546 8.78472 18.6136 8.01557 18.6151 8.01557C18.6151 8.01557 18.7505 7.45121 18.7588 7.43074C18.7588 7.43074 18.8014 7.37198 18.844 7.34872H18.9067C19.4982 7.34872 20.1662 7.34872 20.6897 6.96624C21.046 6.70391 21.2895 6.31654 21.3982 5.84574C21.4263 5.73032 21.4471 5.59303 21.4471 5.45574C21.4471 5.27544 21.4107 5.09705 21.3054 4.95767C21.0384 4.58673 20.5067 4.57991 19.893 4.57711C19.8911 4.57711 19.5905 4.57991 19.5905 4.57991C18.8049 4.58953 18.4898 4.58673 18.3604 4.57099C18.3495 4.62783 18.3289 4.72891 18.3289 4.72891C18.3289 4.72891 18.0475 6.02413 18.0475 6.02623C18.0475 6.02623 17.3741 8.78 17.3424 8.90976C18.0283 8.90154 18.3095 8.90154 18.4279 8.91449ZM18.9493 6.61367C18.9493 6.61367 19.2485 5.32108 19.2471 5.32598L19.2568 5.2597L19.261 5.20915L19.3806 5.2214C19.3806 5.2214 19.9976 5.27404 20.0121 5.27544C20.2556 5.369 20.356 5.61017 20.2859 5.92497C20.222 6.21266 20.0341 6.45452 19.7926 6.57135C19.5938 6.67034 19.3503 6.67856 19.0993 6.67856H18.937L18.9493 6.61367ZM20.8122 7.72793C20.7331 8.06266 20.6422 8.67407 21.2056 8.89198C21.3852 8.96788 21.5462 8.99044 21.7098 8.98222C21.8825 8.97295 22.0426 8.88691 22.1909 8.76309C22.1775 8.81398 22.1641 8.86487 22.1507 8.91594L22.1762 8.94864C22.5815 8.93168 22.7072 8.93168 23.1462 8.935L23.186 8.90492C23.2501 8.53066 23.3105 8.16725 23.4771 7.45126C23.5583 7.1083 23.6393 6.76867 23.7226 6.42712L23.7096 6.38952C23.2563 6.47294 23.1351 6.49078 22.6991 6.55216L22.666 6.57892C22.6616 6.61372 22.657 6.64713 22.6528 6.68053C22.585 6.57175 22.4867 6.47889 22.3351 6.421C22.1412 6.34527 21.6858 6.44286 21.2943 6.79683C21.0193 7.04954 20.8872 7.39582 20.8122 7.72793ZM21.7642 7.74839C21.8612 7.33583 21.9727 6.98676 22.2615 6.98676C22.4441 6.98676 22.5403 7.15413 22.5207 7.43954C22.5052 7.51072 22.4885 7.58575 22.4686 7.67057C22.4397 7.79316 22.4084 7.91471 22.3779 8.03643C22.3469 8.11968 22.3108 8.1982 22.2712 8.25049C22.1969 8.35507 22.02 8.41996 21.9183 8.41996C21.8894 8.41996 21.7112 8.41996 21.705 8.15903C21.7036 8.02909 21.7305 7.8953 21.7642 7.74839ZM26.7356 6.38618L26.7006 6.34648C26.252 6.43672 26.1708 6.45106 25.7588 6.50633L25.7285 6.53641C25.7271 6.5413 25.7258 6.54882 25.7237 6.55564L25.7223 6.54882C25.4155 7.25169 25.4245 7.10007 25.1748 7.65341C25.1734 7.62823 25.1734 7.61249 25.172 7.58573L25.1095 6.38618L25.0702 6.34648C24.6004 6.43672 24.5893 6.45106 24.1554 6.50633L24.1216 6.53641C24.1168 6.55075 24.1168 6.56649 24.114 6.58363L24.1168 6.58975C24.171 6.86502 24.158 6.80363 24.2124 7.23805C24.2378 7.45124 24.2716 7.66565 24.297 7.87622C24.3397 8.22861 24.3637 8.4021 24.416 8.93988C24.123 9.42012 24.0536 9.60183 23.7715 10.0233L23.7734 10.0275L23.5748 10.3395C23.552 10.3724 23.5314 10.3949 23.5026 10.4046C23.4709 10.4201 23.4297 10.4229 23.3724 10.4229H23.2624L23.0988 10.9633L23.66 10.9729C23.9895 10.9715 24.1966 10.8185 24.308 10.6128L24.661 10.0123H24.6553L24.6925 9.96996C24.9299 9.46244 26.7356 6.38618 26.7356 6.38618ZM20.8121 13.4835H20.5741L21.4553 10.589H21.7476L21.8404 10.2908L21.8494 10.6224C21.8385 10.8273 22.0008 11.0091 22.4274 10.979H22.9206L23.0904 10.4216H22.9048C22.798 10.4216 22.7486 10.3949 22.7547 10.3375L22.7457 10.0001H21.8323V10.0019C21.537 10.008 20.6551 10.03 20.4765 10.0773C20.2604 10.1325 20.0327 10.2952 20.0327 10.2952L20.1222 9.99663H19.2677L19.0897 10.589L18.1967 13.5278H18.0234L17.8535 14.0811H19.5553L19.4983 14.2656H20.3369L20.3925 14.0811H20.6278L20.8121 13.4835ZM20.1139 11.1771C19.9771 11.2147 19.7224 11.3287 19.7224 11.3287L19.9489 10.589H20.6278L20.464 11.128C20.464 11.128 20.2543 11.1402 20.1139 11.1771ZM20.1269 12.234C20.1269 12.234 19.9137 12.2605 19.7733 12.292C19.6351 12.3336 19.3759 12.4648 19.3759 12.4648L19.6097 11.695H20.2921L20.1269 12.234ZM19.7466 13.4904H19.0656L19.263 12.8406H19.9419L19.7466 13.4904ZM21.3865 11.695H22.3681L22.2271 12.1486H21.2324L21.0831 12.6446H21.9534L21.2944 13.5661C21.2483 13.6338 21.2069 13.6577 21.1609 13.6768C21.1148 13.7 21.0542 13.7273 20.9841 13.7273H20.7427L20.5768 14.2705H21.2083C21.5366 14.2705 21.7304 14.1222 21.8736 13.9276L22.3255 13.3134L22.4225 13.937C22.4431 14.0538 22.5277 14.1222 22.5849 14.1488C22.6481 14.1803 22.7134 14.2343 22.8057 14.2424C22.9047 14.2466 22.9762 14.2499 23.0237 14.2499H23.334L23.5203 13.642H23.398C23.3277 13.642 23.2067 13.6303 23.1861 13.6084C23.1655 13.5818 23.1655 13.5409 23.1544 13.4786L23.056 12.8536H22.6529L22.8297 12.6446H23.8224L23.975 12.1486H23.056L23.1991 11.695H24.1154L24.2853 11.1355H21.5536L21.3865 11.695ZM13.096 13.6167L13.3251 12.8598H14.2667L14.4388 12.2968H13.4963L13.6401 11.8309H14.5611L14.7318 11.2858H12.4273L12.2602 11.8309H12.7838L12.6441 12.2968H12.1191L11.9452 12.8694H12.4685L12.1632 13.8708C12.122 14.0033 12.1825 14.0539 12.2209 14.1155C12.2602 14.1754 12.3 14.2151 12.3895 14.2377C12.4817 14.2582 12.545 14.2704 12.6309 14.2704H13.6924L13.8816 13.6468L13.411 13.7109C13.3202 13.7109 13.0685 13.7001 13.096 13.6167ZM13.204 9.99322L12.9654 10.4215C12.9143 10.5151 12.8683 10.5731 12.8269 10.5999C12.7905 10.6225 12.7183 10.6319 12.6137 10.6319H12.4892L12.3228 11.1798H12.7363C12.9351 11.1798 13.0878 11.1074 13.1607 11.0712C13.239 11.0296 13.2596 11.0534 13.3202 10.9953L13.4599 10.8752H14.751L14.9224 10.3047H13.9772L14.1423 9.99322H13.204ZM15.1102 13.6277C15.0882 13.5962 15.104 13.5408 15.1376 13.4253L15.4906 12.2653H16.746C16.929 12.2627 17.061 12.2606 17.147 12.2545C17.2392 12.2448 17.3396 12.2121 17.449 12.1534C17.5619 12.0918 17.6196 12.0269 17.6684 11.9524C17.7228 11.8781 17.8102 11.7155 17.8852 11.4647L18.3288 9.99667L17.026 10.0042C17.026 10.0042 16.6248 10.063 16.4482 10.1278C16.27 10.2002 16.0153 10.4024 16.0153 10.4024L16.133 9.99999H15.3282L14.2015 13.7109C14.1615 13.855 14.1347 13.9596 14.1286 14.0224C14.1265 14.0901 14.2145 14.1571 14.2716 14.2076C14.339 14.2581 14.4387 14.2499 14.5343 14.2581C14.6349 14.2657 14.7779 14.2704 14.9753 14.2704H15.5938L15.7836 13.6338L15.2299 13.6857C15.1708 13.6857 15.128 13.6543 15.1102 13.6277ZM15.7183 11.4818H17.0369L16.9531 11.7427C16.9413 11.7489 16.9131 11.7298 16.7789 11.7455H15.6371L15.7183 11.4818ZM15.9824 10.6067H17.3121L17.2165 10.9209C17.2165 10.9209 16.5898 10.9148 16.4894 10.9332C16.0477 11.0091 15.7898 11.2434 15.7898 11.2434L15.9824 10.6067ZM16.9826 12.6165C16.9717 12.6555 16.9544 12.6793 16.9303 12.6972C16.9035 12.7143 16.8602 12.7204 16.7956 12.7204H16.6077L16.6188 12.4026H15.8372L15.8055 13.9562C15.8043 14.0683 15.8152 14.1331 15.8978 14.1851C15.9804 14.25 16.2349 14.2582 16.5774 14.2582H17.0671L17.2439 13.6767L16.8176 13.7L16.6758 13.7082C16.6565 13.7 16.638 13.6924 16.6174 13.672C16.5994 13.6543 16.5691 13.6652 16.574 13.553L16.5774 13.1548L17.0245 13.1365C17.2659 13.1365 17.3691 13.0585 17.4572 12.9841C17.5412 12.913 17.5687 12.8311 17.6004 12.7204L17.6754 12.3678H17.061L16.9826 12.6165Z" fill="#FEFEFE"/>
</g>
<defs>
<clipPath id="clip0_58_128">
<rect width="29" height="18" fill="white"/>
</clipPath>
</defs>
</svg>
