<svg width="132" height="72" viewBox="0 0 132 72" fill="none" xmlns="http://www.w3.org/2000/svg">
<path d="M36 54C41 54 45.25 52.25 48.75 48.75C52.25 45.25 54 41 54 36C54 31 52.25 26.75 48.75 23.25C45.25 19.75 41 18 36 18C31 18 26.75 19.75 23.25 23.25C19.75 26.75 18 31 18 36C18 41 19.75 45.25 23.25 48.75C26.75 52.25 31 54 36 54ZM36 72C26 72 17.5 68.5 10.5 61.5C3.5 54.5 0 46 0 36C0 26 3.5 17.5 10.5 10.5C17.5 3.5 26 0 36 0C44.1 0 51.175 2.3 57.225 6.9C63.275 11.5 67.5 17.2 69.9 24H120.15L132 35.85L111 59.85L96 48L84 60L72 48H69.9C67.4 55.2 63.05 61 56.85 65.4C50.65 69.8 43.7 72 36 72Z" fill="#006DF9"/>
</svg>
