<svg width="180" height="180" viewBox="0 0 180 180" fill="none" xmlns="http://www.w3.org/2000/svg">
<g clip-path="url(#clip0_9591_14647)">
<mask id="mask0_9591_14647" style="mask-type:alpha" maskUnits="userSpaceOnUse" x="0" y="0" width="180" height="180">
<rect width="180" height="180" fill="#D9D9D9"/>
</mask>
<g mask="url(#mask0_9591_14647)">
<path d="M32.3078 146.25C28.5193 146.25 25.3125 144.937 22.6875 142.312C20.0625 139.687 18.75 136.48 18.75 132.692V47.3078C18.75 43.5193 20.0625 40.3125 22.6875 37.6875C25.3125 35.0625 28.5193 33.75 32.3078 33.75H147.692C151.48 33.75 154.687 35.0625 157.312 37.6875C159.937 40.3125 161.25 43.5193 161.25 47.3078V132.692C161.25 136.48 159.937 139.687 157.312 142.312C154.687 144.937 151.48 146.25 147.692 146.25H32.3078ZM89.9998 94.1822L150 55.8169L148.846 44.9998L89.9998 82.4998L31.1537 44.9998L29.9998 55.8169L89.9998 94.1822Z" fill="#006DF9"/>
</g>
</g>
<defs>
<clipPath id="clip0_9591_14647">
<rect width="180" height="180" fill="white"/>
</clipPath>
</defs>
</svg>
