<svg width="100" height="100" viewBox="0 0 100 100" fill="none" xmlns="http://www.w3.org/2000/svg">
<path d="M11.4014 72.0959H8.17578V23.4287C8.17578 22.2813 8.62422 21.2037 9.4377 20.3928C10.2348 19.5857 11.3146 19.1357 12.4688 19.1357H87.5293C88.6773 19.1357 89.7582 19.5838 90.5707 20.3963C91.3822 21.2088 91.8303 22.2857 91.8303 23.4283V27.1973H88.6047V23.4283C88.6047 23.1463 88.4916 22.8799 88.2887 22.6764C88.0861 22.4734 87.8166 22.3613 87.5291 22.3613H12.4688C12.1848 22.3613 11.9203 22.4709 11.7238 22.6693C11.5123 22.8799 11.4014 23.1459 11.4014 23.4289V72.0959Z" fill="#A0BFED"/>
<path d="M66.0527 30.9137C66.0527 28.8723 67.7297 27.1982 69.7668 27.1982H16.2412V72.0963H66.0527V30.9137Z" fill="#D4E5FB" fill-opacity="0.6"/>
<path d="M69.7619 80.8639H5.19199C3.80898 80.8639 2.50606 80.3264 1.52305 79.3498C0.540039 78.3668 0 77.0629 0 75.6738V70.4834H66.0526V73.709H3.22598V75.674C3.22598 76.2016 3.42949 76.6939 3.79941 77.0645C4.17148 77.433 4.66582 77.6379 5.19199 77.6379H69.7619V80.8639Z" fill="#A0BFED"/>
<path d="M87.0568 71.3184H77.3799V74.5439H87.0568V71.3184Z" fill="#A0BFED"/>
<path d="M94.6722 81.1094H69.7626C66.8286 81.1094 64.4401 78.7225 64.4401 75.7869V65.4709H67.6657V75.7869C67.6657 76.9433 68.6062 77.8834 69.7622 77.8834H94.6718C95.8308 77.8834 96.7743 76.943 96.7743 75.7869V31.1619C96.7743 30.002 95.8308 29.0584 94.6718 29.0584H69.762C68.6265 29.0584 67.6655 30.0215 67.6655 31.1619V40.9545H64.4399V31.1619C64.4399 28.2234 66.828 25.833 69.7624 25.833H94.672C97.6095 25.833 99.9999 28.2234 99.9999 31.1619V75.7869C100 78.7219 97.6097 81.1094 94.6722 81.1094Z" fill="#A0BFED"/>
<path d="M93.8714 32.5488H70.5698V67.3889H93.8714V32.5488Z" fill="#D4E5FB" fill-opacity="0.6"/>
<path d="M75.6881 59.823H60.2451C57.7457 59.823 55.3967 58.8496 53.6291 57.082C51.8631 55.315 50.8896 52.9666 50.8896 50.4686V43.457H54.1156V50.4686C54.1156 52.1041 54.7531 53.6436 55.9111 54.8021C57.0686 55.9596 58.6082 56.5977 60.2451 56.5977H75.6881V59.823Z" fill="#006DF9"/>
<path d="M55.878 49.1133L52.5026 45.7383L49.127 49.1133L46.8462 46.8322L52.5026 41.1758L58.1587 46.8322L55.878 49.1133Z" fill="#006DF9"/>
</svg>
