<svg width="272" height="160" viewBox="0 0 272 160" fill="none" xmlns="http://www.w3.org/2000/svg">
<path opacity="0.31" d="M60.8543 144.318L253.739 141.028C253.739 141.028 294.826 98.2823 253.739 69.0862C212.652 39.8901 218.552 0.434503 178.365 7.90826C143.653 14.3685 157.732 48.8666 135.003 46.9345C118.08 45.4967 102.561 29.5357 83.9775 49.7553C75.6831 58.7817 80.8377 80.3692 70.4135 80.8385C59.9893 81.3078 45.6505 87.8929 42.1757 100.119C37.4461 116.754 40.7258 127.738 49.1252 137.738C57.8145 148.077 60.8543 144.318 60.8543 144.318Z" fill="#BCD2F3"/>
<path d="M268 54.9844H180V113.984H268V54.9844Z" fill="#FBFDFF" stroke="#A0BFED" stroke-miterlimit="10"/>
<path d="M218 72.9844H188V102.984H218V72.9844Z" fill="#FBFDFF" stroke="#A0BFED" stroke-miterlimit="10"/>
<path d="M201.36 76.248H192.389V85.2194H201.36V76.248Z" fill="#D4E5FB"/>
<path d="M214.817 76.248H205.846V85.2194H214.817V76.248Z" fill="#D4E5FB"/>
<path d="M201.36 89.7051H192.389V98.6764H201.36V89.7051Z" fill="#D4E5FB"/>
<path d="M214.817 89.7051H205.846V98.6764H214.817V89.7051Z" fill="#D4E5FB"/>
<path d="M230.646 78.2539C228.523 80.9802 227.257 84.4043 227.257 88.1274C227.257 97.004 234.454 104.201 243.331 104.201C247.861 104.201 251.953 102.327 254.874 99.3116L230.646 78.2539Z" fill="#D4E5FB"/>
<path d="M253.996 73.459C257.37 76.0806 259.788 79.9632 260.475 84.5386C261.193 89.3333 259.877 93.9535 257.176 97.5221L247.223 88.9595L253.996 73.459Z" fill="#D4E5FB"/>
<path d="M244.731 86.7315L251.544 72.2079C249.142 70.7775 246.336 69.9551 243.336 69.9551C238.182 69.9551 234.25 72.7511 232.151 75.5472L244.731 86.7315Z" fill="#BCD5F5"/>
<path d="M147 20.9844H107V64.9844H147V20.9844Z" fill="#FBFDFF" stroke="#A0BFED" stroke-miterlimit="10"/>
<path d="M117 26.9844H112V57.9844H117V26.9844Z" fill="#D4E5FB" stroke="#A0BFED" stroke-miterlimit="10"/>
<path d="M127 31.9844H122V57.9844H127V31.9844Z" fill="#D4E5FB" stroke="#A0BFED" stroke-miterlimit="10"/>
<path d="M138 38.9844H133V57.9844H138V38.9844Z" fill="#D4E5FB" stroke="#A0BFED" stroke-miterlimit="10"/>
<path d="M149 45.9844H144V57.9844H149V45.9844Z" fill="#D4E5FB" stroke="#A0BFED" stroke-miterlimit="10"/>
<path d="M118 51.9844H23V128.984H118V51.9844Z" fill="#FBFDFF" stroke="#A0BFED" stroke-miterlimit="10"/>
<path d="M108 64.9844H71V78.9844H108V64.9844Z" fill="#D4E5FB"/>
<path d="M108 101.984H71V115.984H108V101.984Z" fill="#D4E5FB"/>
<path d="M108 82.9844H71V96.9844H108V82.9844Z" fill="#D4E5FB"/>
<path d="M197 90.9844H97V158.984H197V90.9844Z" fill="#F9FBFF" stroke="#A0BFED" stroke-miterlimit="10"/>
<g opacity="0.54">
<path opacity="0.35" d="M39.8761 124.594C40.7019 124.594 41.3713 123.925 41.3713 123.099C41.3713 122.273 40.7019 121.604 39.8761 121.604C39.0503 121.604 38.3809 122.273 38.3809 123.099C38.3809 123.925 39.0503 124.594 39.8761 124.594Z" fill="#AACEF9"/>
<path opacity="0.35" d="M44.3614 124.594C45.1872 124.594 45.8567 123.925 45.8567 123.099C45.8567 122.273 45.1872 121.604 44.3614 121.604C43.5356 121.604 42.8662 122.273 42.8662 123.099C42.8662 123.925 43.5356 124.594 44.3614 124.594Z" fill="#AACEF9"/>
<path opacity="0.35" d="M48.8478 124.594C49.6736 124.594 50.343 123.925 50.343 123.099C50.343 122.273 49.6736 121.604 48.8478 121.604C48.022 121.604 47.3525 122.273 47.3525 123.099C47.3525 123.925 48.022 124.594 48.8478 124.594Z" fill="#AACEF9"/>
<path opacity="0.35" d="M39.8761 129.08C40.7019 129.08 41.3713 128.411 41.3713 127.585C41.3713 126.759 40.7019 126.09 39.8761 126.09C39.0503 126.09 38.3809 126.759 38.3809 127.585C38.3809 128.411 39.0503 129.08 39.8761 129.08Z" fill="#AACEF9"/>
<path opacity="0.35" d="M44.3614 129.08C45.1872 129.08 45.8567 128.411 45.8567 127.585C45.8567 126.759 45.1872 126.09 44.3614 126.09C43.5356 126.09 42.8662 126.759 42.8662 127.585C42.8662 128.411 43.5356 129.08 44.3614 129.08Z" fill="#AACEF9"/>
<path opacity="0.35" d="M48.8478 129.08C49.6736 129.08 50.343 128.411 50.343 127.585C50.343 126.759 49.6736 126.09 48.8478 126.09C48.022 126.09 47.3525 126.759 47.3525 127.585C47.3525 128.411 48.022 129.08 48.8478 129.08Z" fill="#AACEF9"/>
<path opacity="0.35" d="M39.8761 115.623C40.7019 115.623 41.3713 114.954 41.3713 114.128C41.3713 113.302 40.7019 112.633 39.8761 112.633C39.0503 112.633 38.3809 113.302 38.3809 114.128C38.3809 114.954 39.0503 115.623 39.8761 115.623Z" fill="#AACEF9"/>
<path opacity="0.35" d="M44.3614 115.623C45.1872 115.623 45.8567 114.954 45.8567 114.128C45.8567 113.302 45.1872 112.633 44.3614 112.633C43.5356 112.633 42.8662 113.302 42.8662 114.128C42.8662 114.954 43.5356 115.623 44.3614 115.623Z" fill="#AACEF9"/>
<path opacity="0.35" d="M48.8478 115.623C49.6736 115.623 50.343 114.954 50.343 114.128C50.343 113.302 49.6736 112.633 48.8478 112.633C48.022 112.633 47.3525 113.302 47.3525 114.128C47.3525 114.954 48.022 115.623 48.8478 115.623Z" fill="#AACEF9"/>
<path opacity="0.35" d="M39.8761 120.11C40.7019 120.11 41.3713 119.44 41.3713 118.614C41.3713 117.789 40.7019 117.119 39.8761 117.119C39.0503 117.119 38.3809 117.789 38.3809 118.614C38.3809 119.44 39.0503 120.11 39.8761 120.11Z" fill="#AACEF9"/>
<path opacity="0.35" d="M44.3614 120.11C45.1872 120.11 45.8567 119.44 45.8567 118.614C45.8567 117.789 45.1872 117.119 44.3614 117.119C43.5356 117.119 42.8662 117.789 42.8662 118.614C42.8662 119.44 43.5356 120.11 44.3614 120.11Z" fill="#AACEF9"/>
<path opacity="0.35" d="M48.8478 120.11C49.6736 120.11 50.343 119.44 50.343 118.614C50.343 117.789 49.6736 117.119 48.8478 117.119C48.022 117.119 47.3525 117.789 47.3525 118.614C47.3525 119.44 48.022 120.11 48.8478 120.11Z" fill="#AACEF9"/>
<path opacity="0.35" d="M39.8761 142.537C40.7019 142.537 41.3713 141.868 41.3713 141.042C41.3713 140.216 40.7019 139.547 39.8761 139.547C39.0503 139.547 38.3809 140.216 38.3809 141.042C38.3809 141.868 39.0503 142.537 39.8761 142.537Z" fill="#AACEF9"/>
<path opacity="0.35" d="M44.3614 142.537C45.1872 142.537 45.8567 141.868 45.8567 141.042C45.8567 140.216 45.1872 139.547 44.3614 139.547C43.5356 139.547 42.8662 140.216 42.8662 141.042C42.8662 141.868 43.5356 142.537 44.3614 142.537Z" fill="#AACEF9"/>
<path opacity="0.35" d="M48.8478 142.537C49.6736 142.537 50.343 141.868 50.343 141.042C50.343 140.216 49.6736 139.547 48.8478 139.547C48.022 139.547 47.3525 140.216 47.3525 141.042C47.3525 141.868 48.022 142.537 48.8478 142.537Z" fill="#AACEF9"/>
<path opacity="0.35" d="M39.8761 147.024C40.7019 147.024 41.3713 146.354 41.3713 145.528C41.3713 144.703 40.7019 144.033 39.8761 144.033C39.0503 144.033 38.3809 144.703 38.3809 145.528C38.3809 146.354 39.0503 147.024 39.8761 147.024Z" fill="#AACEF9"/>
<path opacity="0.35" d="M44.3614 147.024C45.1872 147.024 45.8567 146.354 45.8567 145.528C45.8567 144.703 45.1872 144.033 44.3614 144.033C43.5356 144.033 42.8662 144.703 42.8662 145.528C42.8662 146.354 43.5356 147.024 44.3614 147.024Z" fill="#AACEF9"/>
<path opacity="0.35" d="M48.8478 147.024C49.6736 147.024 50.343 146.354 50.343 145.528C50.343 144.703 49.6736 144.033 48.8478 144.033C48.022 144.033 47.3525 144.703 47.3525 145.528C47.3525 146.354 48.022 147.024 48.8478 147.024Z" fill="#AACEF9"/>
<path opacity="0.35" d="M39.8761 133.567C40.7019 133.567 41.3713 132.897 41.3713 132.071C41.3713 131.246 40.7019 130.576 39.8761 130.576C39.0503 130.576 38.3809 131.246 38.3809 132.071C38.3809 132.897 39.0503 133.567 39.8761 133.567Z" fill="#AACEF9"/>
<path opacity="0.35" d="M44.3614 133.567C45.1872 133.567 45.8567 132.897 45.8567 132.071C45.8567 131.246 45.1872 130.576 44.3614 130.576C43.5356 130.576 42.8662 131.246 42.8662 132.071C42.8662 132.897 43.5356 133.567 44.3614 133.567Z" fill="#AACEF9"/>
<path opacity="0.35" d="M48.8478 133.567C49.6736 133.567 50.343 132.897 50.343 132.071C50.343 131.246 49.6736 130.576 48.8478 130.576C48.022 130.576 47.3525 131.246 47.3525 132.071C47.3525 132.897 48.022 133.567 48.8478 133.567Z" fill="#AACEF9"/>
<path opacity="0.35" d="M39.8761 138.051C40.7019 138.051 41.3713 137.382 41.3713 136.556C41.3713 135.73 40.7019 135.061 39.8761 135.061C39.0503 135.061 38.3809 135.73 38.3809 136.556C38.3809 137.382 39.0503 138.051 39.8761 138.051Z" fill="#AACEF9"/>
<path opacity="0.35" d="M44.3614 138.051C45.1872 138.051 45.8567 137.382 45.8567 136.556C45.8567 135.73 45.1872 135.061 44.3614 135.061C43.5356 135.061 42.8662 135.73 42.8662 136.556C42.8662 137.382 43.5356 138.051 44.3614 138.051Z" fill="#AACEF9"/>
<path opacity="0.35" d="M48.8478 138.051C49.6736 138.051 50.343 137.382 50.343 136.556C50.343 135.73 49.6736 135.061 48.8478 135.061C48.022 135.061 47.3525 135.73 47.3525 136.556C47.3525 137.382 48.022 138.051 48.8478 138.051Z" fill="#AACEF9"/>
<path opacity="0.35" d="M35.8888 124.594C36.7146 124.594 37.384 123.925 37.384 123.099C37.384 122.273 36.7146 121.604 35.8888 121.604C35.063 121.604 34.3936 122.273 34.3936 123.099C34.3936 123.925 35.063 124.594 35.8888 124.594Z" fill="#AACEF9"/>
<path opacity="0.35" d="M35.8888 129.08C36.7146 129.08 37.384 128.411 37.384 127.585C37.384 126.759 36.7146 126.09 35.8888 126.09C35.063 126.09 34.3936 126.759 34.3936 127.585C34.3936 128.411 35.063 129.08 35.8888 129.08Z" fill="#AACEF9"/>
<path opacity="0.35" d="M35.8888 115.623C36.7146 115.623 37.384 114.954 37.384 114.128C37.384 113.302 36.7146 112.633 35.8888 112.633C35.063 112.633 34.3936 113.302 34.3936 114.128C34.3936 114.954 35.063 115.623 35.8888 115.623Z" fill="#AACEF9"/>
<path opacity="0.35" d="M35.8888 120.11C36.7146 120.11 37.384 119.44 37.384 118.614C37.384 117.789 36.7146 117.119 35.8888 117.119C35.063 117.119 34.3936 117.789 34.3936 118.614C34.3936 119.44 35.063 120.11 35.8888 120.11Z" fill="#AACEF9"/>
<path opacity="0.35" d="M35.8888 142.537C36.7146 142.537 37.384 141.868 37.384 141.042C37.384 140.216 36.7146 139.547 35.8888 139.547C35.063 139.547 34.3936 140.216 34.3936 141.042C34.3936 141.868 35.063 142.537 35.8888 142.537Z" fill="#AACEF9"/>
<path opacity="0.35" d="M35.8888 147.024C36.7146 147.024 37.384 146.354 37.384 145.528C37.384 144.703 36.7146 144.033 35.8888 144.033C35.063 144.033 34.3936 144.703 34.3936 145.528C34.3936 146.354 35.063 147.024 35.8888 147.024Z" fill="#AACEF9"/>
<path opacity="0.35" d="M35.8888 133.567C36.7146 133.567 37.384 132.897 37.384 132.071C37.384 131.246 36.7146 130.576 35.8888 130.576C35.063 130.576 34.3936 131.246 34.3936 132.071C34.3936 132.897 35.063 133.567 35.8888 133.567Z" fill="#AACEF9"/>
<path opacity="0.35" d="M35.8888 138.051C36.7146 138.051 37.384 137.382 37.384 136.556C37.384 135.73 36.7146 135.061 35.8888 135.061C35.063 135.061 34.3936 135.73 34.3936 136.556C34.3936 137.382 35.063 138.051 35.8888 138.051Z" fill="#AACEF9"/>
</g>
<g opacity="0.54">
<path opacity="0.35" d="M224.785 24.9123C225.611 24.9123 226.28 24.2429 226.28 23.4171C226.28 22.5913 225.611 21.9219 224.785 21.9219C223.959 21.9219 223.29 22.5913 223.29 23.4171C223.29 24.2429 223.959 24.9123 224.785 24.9123Z" fill="#AACEF9"/>
<path opacity="0.35" d="M224.785 29.3987C225.611 29.3987 226.28 28.7292 226.28 27.9034C226.28 27.0776 225.611 26.4082 224.785 26.4082C223.959 26.4082 223.29 27.0776 223.29 27.9034C223.29 28.7292 223.959 29.3987 224.785 29.3987Z" fill="#AACEF9"/>
<path opacity="0.35" d="M224.785 33.885C225.611 33.885 226.28 33.2155 226.28 32.3898C226.28 31.564 225.611 30.8945 224.785 30.8945C223.959 30.8945 223.29 31.564 223.29 32.3898C223.29 33.2155 223.959 33.885 224.785 33.885Z" fill="#AACEF9"/>
<path opacity="0.35" d="M220.299 24.9123C221.125 24.9123 221.794 24.2429 221.794 23.4171C221.794 22.5913 221.125 21.9219 220.299 21.9219C219.473 21.9219 218.804 22.5913 218.804 23.4171C218.804 24.2429 219.473 24.9123 220.299 24.9123Z" fill="#AACEF9"/>
<path opacity="0.35" d="M220.299 29.3987C221.125 29.3987 221.794 28.7292 221.794 27.9034C221.794 27.0776 221.125 26.4082 220.299 26.4082C219.473 26.4082 218.804 27.0776 218.804 27.9034C218.804 28.7292 219.473 29.3987 220.299 29.3987Z" fill="#AACEF9"/>
<path opacity="0.35" d="M220.299 33.885C221.125 33.885 221.794 33.2155 221.794 32.3898C221.794 31.564 221.125 30.8945 220.299 30.8945C219.473 30.8945 218.804 31.564 218.804 32.3898C218.804 33.2155 219.473 33.885 220.299 33.885Z" fill="#AACEF9"/>
<path opacity="0.35" d="M233.756 24.9123C234.582 24.9123 235.251 24.2429 235.251 23.4171C235.251 22.5913 234.582 21.9219 233.756 21.9219C232.93 21.9219 232.261 22.5913 232.261 23.4171C232.261 24.2429 232.93 24.9123 233.756 24.9123Z" fill="#AACEF9"/>
<path opacity="0.35" d="M233.756 29.3987C234.582 29.3987 235.251 28.7292 235.251 27.9034C235.251 27.0776 234.582 26.4082 233.756 26.4082C232.93 26.4082 232.261 27.0776 232.261 27.9034C232.261 28.7292 232.93 29.3987 233.756 29.3987Z" fill="#AACEF9"/>
<path opacity="0.35" d="M233.756 33.885C234.582 33.885 235.251 33.2155 235.251 32.3898C235.251 31.564 234.582 30.8945 233.756 30.8945C232.93 30.8945 232.261 31.564 232.261 32.3898C232.261 33.2155 232.93 33.885 233.756 33.885Z" fill="#AACEF9"/>
<path opacity="0.35" d="M229.271 24.9123C230.096 24.9123 230.766 24.2429 230.766 23.4171C230.766 22.5913 230.096 21.9219 229.271 21.9219C228.445 21.9219 227.775 22.5913 227.775 23.4171C227.775 24.2429 228.445 24.9123 229.271 24.9123Z" fill="#AACEF9"/>
<path opacity="0.35" d="M229.271 29.3987C230.096 29.3987 230.766 28.7292 230.766 27.9034C230.766 27.0776 230.096 26.4082 229.271 26.4082C228.445 26.4082 227.775 27.0776 227.775 27.9034C227.775 28.7292 228.445 29.3987 229.271 29.3987Z" fill="#AACEF9"/>
<path opacity="0.35" d="M229.271 33.885C230.096 33.885 230.766 33.2155 230.766 32.3898C230.766 31.564 230.096 30.8945 229.271 30.8945C228.445 30.8945 227.775 31.564 227.775 32.3898C227.775 33.2155 228.445 33.885 229.271 33.885Z" fill="#AACEF9"/>
<path opacity="0.35" d="M206.842 24.9123C207.668 24.9123 208.337 24.2429 208.337 23.4171C208.337 22.5913 207.668 21.9219 206.842 21.9219C206.016 21.9219 205.347 22.5913 205.347 23.4171C205.347 24.2429 206.016 24.9123 206.842 24.9123Z" fill="#AACEF9"/>
<path opacity="0.35" d="M206.842 29.3987C207.668 29.3987 208.337 28.7292 208.337 27.9034C208.337 27.0776 207.668 26.4082 206.842 26.4082C206.016 26.4082 205.347 27.0776 205.347 27.9034C205.347 28.7292 206.016 29.3987 206.842 29.3987Z" fill="#AACEF9"/>
<path opacity="0.35" d="M206.842 33.885C207.668 33.885 208.337 33.2155 208.337 32.3898C208.337 31.564 207.668 30.8945 206.842 30.8945C206.016 30.8945 205.347 31.564 205.347 32.3898C205.347 33.2155 206.016 33.885 206.842 33.885Z" fill="#AACEF9"/>
<path opacity="0.35" d="M202.357 24.9123C203.182 24.9123 203.852 24.2429 203.852 23.4171C203.852 22.5913 203.182 21.9219 202.357 21.9219C201.531 21.9219 200.861 22.5913 200.861 23.4171C200.861 24.2429 201.531 24.9123 202.357 24.9123Z" fill="#AACEF9"/>
<path opacity="0.35" d="M202.357 29.3987C203.182 29.3987 203.852 28.7292 203.852 27.9034C203.852 27.0776 203.182 26.4082 202.357 26.4082C201.531 26.4082 200.861 27.0776 200.861 27.9034C200.861 28.7292 201.531 29.3987 202.357 29.3987Z" fill="#AACEF9"/>
<path opacity="0.35" d="M202.357 33.885C203.182 33.885 203.852 33.2155 203.852 32.3898C203.852 31.564 203.182 30.8945 202.357 30.8945C201.531 30.8945 200.861 31.564 200.861 32.3898C200.861 33.2155 201.531 33.885 202.357 33.885Z" fill="#AACEF9"/>
<path opacity="0.35" d="M215.814 24.9123C216.639 24.9123 217.309 24.2429 217.309 23.4171C217.309 22.5913 216.639 21.9219 215.814 21.9219C214.988 21.9219 214.318 22.5913 214.318 23.4171C214.318 24.2429 214.988 24.9123 215.814 24.9123Z" fill="#AACEF9"/>
<path opacity="0.35" d="M215.814 29.3987C216.639 29.3987 217.309 28.7292 217.309 27.9034C217.309 27.0776 216.639 26.4082 215.814 26.4082C214.988 26.4082 214.318 27.0776 214.318 27.9034C214.318 28.7292 214.988 29.3987 215.814 29.3987Z" fill="#AACEF9"/>
<path opacity="0.35" d="M215.814 33.885C216.639 33.885 217.309 33.2155 217.309 32.3898C217.309 31.564 216.639 30.8945 215.814 30.8945C214.988 30.8945 214.318 31.564 214.318 32.3898C214.318 33.2155 214.988 33.885 215.814 33.885Z" fill="#AACEF9"/>
<path opacity="0.35" d="M211.328 24.9123C212.154 24.9123 212.823 24.2429 212.823 23.4171C212.823 22.5913 212.154 21.9219 211.328 21.9219C210.502 21.9219 209.833 22.5913 209.833 23.4171C209.833 24.2429 210.502 24.9123 211.328 24.9123Z" fill="#AACEF9"/>
<path opacity="0.35" d="M211.328 29.3987C212.154 29.3987 212.823 28.7292 212.823 27.9034C212.823 27.0776 212.154 26.4082 211.328 26.4082C210.502 26.4082 209.833 27.0776 209.833 27.9034C209.833 28.7292 210.502 29.3987 211.328 29.3987Z" fill="#AACEF9"/>
<path opacity="0.35" d="M211.328 33.885C212.154 33.885 212.823 33.2155 212.823 32.3898C212.823 31.564 212.154 30.8945 211.328 30.8945C210.502 30.8945 209.833 31.564 209.833 32.3898C209.833 33.2155 210.502 33.885 211.328 33.885Z" fill="#AACEF9"/>
<path opacity="0.35" d="M224.785 20.926C225.611 20.926 226.28 20.2566 226.28 19.4308C226.28 18.605 225.611 17.9355 224.785 17.9355C223.959 17.9355 223.29 18.605 223.29 19.4308C223.29 20.2566 223.959 20.926 224.785 20.926Z" fill="#AACEF9"/>
<path opacity="0.35" d="M220.299 20.926C221.125 20.926 221.794 20.2566 221.794 19.4308C221.794 18.605 221.125 17.9355 220.299 17.9355C219.473 17.9355 218.804 18.605 218.804 19.4308C218.804 20.2566 219.473 20.926 220.299 20.926Z" fill="#AACEF9"/>
<path opacity="0.35" d="M233.756 20.926C234.582 20.926 235.251 20.2566 235.251 19.4308C235.251 18.605 234.582 17.9355 233.756 17.9355C232.93 17.9355 232.261 18.605 232.261 19.4308C232.261 20.2566 232.93 20.926 233.756 20.926Z" fill="#AACEF9"/>
<path opacity="0.35" d="M229.271 20.926C230.096 20.926 230.766 20.2566 230.766 19.4308C230.766 18.605 230.096 17.9355 229.271 17.9355C228.445 17.9355 227.775 18.605 227.775 19.4308C227.775 20.2566 228.445 20.926 229.271 20.926Z" fill="#AACEF9"/>
<path opacity="0.35" d="M206.842 20.926C207.668 20.926 208.337 20.2566 208.337 19.4308C208.337 18.605 207.668 17.9355 206.842 17.9355C206.016 17.9355 205.347 18.605 205.347 19.4308C205.347 20.2566 206.016 20.926 206.842 20.926Z" fill="#AACEF9"/>
<path opacity="0.35" d="M202.357 20.926C203.182 20.926 203.852 20.2566 203.852 19.4308C203.852 18.605 203.182 17.9355 202.357 17.9355C201.531 17.9355 200.861 18.605 200.861 19.4308C200.861 20.2566 201.531 20.926 202.357 20.926Z" fill="#AACEF9"/>
<path opacity="0.35" d="M215.814 20.926C216.639 20.926 217.309 20.2566 217.309 19.4308C217.309 18.605 216.639 17.9355 215.814 17.9355C214.988 17.9355 214.318 18.605 214.318 19.4308C214.318 20.2566 214.988 20.926 215.814 20.926Z" fill="#AACEF9"/>
<path opacity="0.35" d="M211.328 20.926C212.154 20.926 212.823 20.2566 212.823 19.4308C212.823 18.605 212.154 17.9355 211.328 17.9355C210.502 17.9355 209.833 18.605 209.833 19.4308C209.833 20.2566 210.502 20.926 211.328 20.926Z" fill="#AACEF9"/>
</g>
<path d="M74 68.9844H88" stroke="#FBFDFF" stroke-width="1.5" stroke-miterlimit="10"/>
<path d="M74 71.9844H101" stroke="#FBFDFF" stroke-width="1.5" stroke-miterlimit="10"/>
<path d="M74 74.9844H101" stroke="#FBFDFF" stroke-width="1.5" stroke-miterlimit="10"/>
<path d="M74 87.9844H101" stroke="#FBFDFF" stroke-width="1.5" stroke-miterlimit="10"/>
<path d="M74 90.9844H93" stroke="#FBFDFF" stroke-width="1.5" stroke-miterlimit="10"/>
<path d="M74 106.984H93" stroke="#FBFDFF" stroke-width="1.5" stroke-miterlimit="10"/>
<path d="M74 110.984H93" stroke="#FBFDFF" stroke-width="1.5" stroke-miterlimit="10"/>
<path d="M36.3866 102.664C45.195 102.664 52.3356 95.5231 52.3356 86.7147C52.3356 77.9063 45.195 70.7656 36.3866 70.7656C27.5781 70.7656 20.4375 77.9063 20.4375 86.7147C20.4375 95.5231 27.5781 102.664 36.3866 102.664Z" fill="#FBFDFF"/>
<path d="M36.3869 98.178C42.4426 98.178 47.3518 93.2688 47.3518 87.213C47.3518 81.1572 42.4426 76.248 36.3869 76.248C30.3311 76.248 25.4219 81.1572 25.4219 87.213C25.4219 93.2688 30.3311 98.178 36.3869 98.178Z" fill="#D4E5FB"/>
<path d="M36.1381 64.7852C23.8873 64.7852 13.959 74.7134 13.959 86.9643C13.959 99.2152 23.8873 109.143 36.1381 109.143C48.389 109.143 58.3173 99.2152 58.3173 86.9643C58.3173 74.7134 48.389 64.7852 36.1381 64.7852ZM36.1381 102.45C27.5855 102.45 20.6526 95.517 20.6526 86.9643C20.6526 78.4116 27.5855 71.4788 36.1381 71.4788C44.6908 71.4788 51.6237 78.4116 51.6237 86.9643C51.6237 95.517 44.6908 102.45 36.1381 102.45Z" fill="#D4E5FB" stroke="#A0BFED" stroke-miterlimit="10"/>
<path d="M32.9085 64.9688C27.6254 65.7513 22.6065 68.4377 18.9681 72.9034C11.2328 82.4031 12.6632 96.3735 22.1629 104.104L26.3894 98.9103C20.1892 93.4976 18.7587 83.7587 24.1565 77.1249C26.7682 73.9202 30.3218 72.0561 34.0798 71.5826L32.9085 64.9688Z" fill="#FBFDFF" stroke="#A0BFED" stroke-miterlimit="10"/>
<path d="M49.8887 98.9707L60.0612 109.143H66.7897" stroke="#A0BFED" stroke-miterlimit="10"/>
<path d="M25.6159 72.9191L14.955 56.8105H2.99316" stroke="#A0BFED" stroke-miterlimit="10"/>
<path d="M2.99363 58.8037C4.09468 58.8037 4.98726 57.9111 4.98726 56.81C4.98726 55.709 4.09468 54.8164 2.99363 54.8164C1.89258 54.8164 1 55.709 1 56.81C1 57.9111 1.89258 58.8037 2.99363 58.8037Z" fill="#D4E5FB" stroke="#A0BFED" stroke-miterlimit="10"/>
<path d="M68.2846 111.136C69.3857 111.136 70.2783 110.243 70.2783 109.142C70.2783 108.041 69.3857 107.148 68.2846 107.148C67.1836 107.148 66.291 108.041 66.291 109.142C66.291 110.243 67.1836 111.136 68.2846 111.136Z" fill="#D4E5FB" stroke="#A0BFED" stroke-miterlimit="10"/>
<path d="M248.211 95.6875H208.338V144.531H248.211V95.6875Z" fill="#D4E5FB" stroke="#A0BFED" stroke-miterlimit="10"/>
<path d="M217.514 120.274C219.003 120.274 220.21 119.066 220.21 117.577C220.21 116.088 219.003 114.881 217.514 114.881C216.025 114.881 214.817 116.088 214.817 117.577C214.817 119.066 216.025 120.274 217.514 120.274Z" fill="#FBFDFF" stroke="#A0BFED" stroke-width="1.5" stroke-miterlimit="10"/>
<path d="M228.299 120.274C229.788 120.274 230.995 119.066 230.995 117.577C230.995 116.088 229.788 114.881 228.299 114.881C226.81 114.881 225.603 116.088 225.603 117.577C225.603 119.066 226.81 120.274 228.299 120.274Z" fill="#FBFDFF" stroke="#A0BFED" stroke-miterlimit="10"/>
<path d="M239.533 120.274C241.022 120.274 242.23 119.066 242.23 117.577C242.23 116.088 241.022 114.881 239.533 114.881C238.044 114.881 236.837 116.088 236.837 117.577C236.837 119.066 238.044 120.274 239.533 120.274Z" fill="#FBFDFF" stroke="#A0BFED" stroke-miterlimit="10"/>
<path d="M217.514 130.156C219.003 130.156 220.21 128.949 220.21 127.46C220.21 125.971 219.003 124.764 217.514 124.764C216.025 124.764 214.817 125.971 214.817 127.46C214.817 128.949 216.025 130.156 217.514 130.156Z" fill="#FBFDFF" stroke="#A0BFED" stroke-width="1.5" stroke-miterlimit="10"/>
<path d="M228.299 130.156C229.788 130.156 230.995 128.949 230.995 127.46C230.995 125.971 229.788 124.764 228.299 124.764C226.81 124.764 225.603 125.971 225.603 127.46C225.603 128.949 226.81 130.156 228.299 130.156Z" fill="#FBFDFF" stroke="#A0BFED" stroke-miterlimit="10"/>
<path d="M217.514 140.045C219.003 140.045 220.21 138.838 220.21 137.349C220.21 135.86 219.003 134.652 217.514 134.652C216.025 134.652 214.817 135.86 214.817 137.349C214.817 138.838 216.025 140.045 217.514 140.045Z" fill="#FBFDFF" stroke="#A0BFED" stroke-width="1.5" stroke-miterlimit="10"/>
<path d="M228.299 140.045C229.788 140.045 230.995 138.838 230.995 137.349C230.995 135.86 229.788 134.652 228.299 134.652C226.81 134.652 225.603 135.86 225.603 137.349C225.603 138.838 226.81 140.045 228.299 140.045Z" fill="#FBFDFF" stroke="#A0BFED" stroke-miterlimit="10"/>
<path d="M239.757 140.045C238.392 140.045 237.285 138.938 237.285 137.573V127.236C237.285 125.87 238.392 124.764 239.757 124.764C241.123 124.764 242.229 125.87 242.229 127.236V137.573C242.229 138.938 241.123 140.045 239.757 140.045Z" fill="#FBFDFF" stroke="#A0BFED" stroke-miterlimit="10"/>
<path d="M243.725 100.672H213.322V109.643H243.725V100.672Z" fill="#FBFDFF" stroke="#A0BFED" stroke-miterlimit="10"/>
<path d="M95 59.9844C96.1046 59.9844 97 59.3128 97 58.4844C97 57.6559 96.1046 56.9844 95 56.9844C93.8954 56.9844 93 57.6559 93 58.4844C93 59.3128 93.8954 59.9844 95 59.9844Z" fill="#FBFDFF" stroke="#A0BFED" stroke-miterlimit="10"/>
<path d="M86.5 59.9844C87.3284 59.9844 88 59.3128 88 58.4844C88 57.6559 87.3284 56.9844 86.5 56.9844C85.6716 56.9844 85 57.6559 85 58.4844C85 59.3128 85.6716 59.9844 86.5 59.9844Z" fill="#FBFDFF" stroke="#A0BFED" stroke-miterlimit="10"/>
<path d="M104.5 59.9844C105.328 59.9844 106 59.3128 106 58.4844C106 57.6559 105.328 56.9844 104.5 56.9844C103.672 56.9844 103 57.6559 103 58.4844C103 59.3128 103.672 59.9844 104.5 59.9844Z" fill="#FBFDFF" stroke="#A0BFED" stroke-miterlimit="10"/>
<path d="M259.5 63.9844C260.328 63.9844 261 63.3128 261 62.4844C261 61.6559 260.328 60.9844 259.5 60.9844C258.672 60.9844 258 61.6559 258 62.4844C258 63.3128 258.672 63.9844 259.5 63.9844Z" fill="#FBFDFF" stroke="#A0BFED" stroke-miterlimit="10"/>
<path d="M191 97.9844C192.105 97.9844 193 97.0889 193 95.9844C193 94.8798 192.105 93.9844 191 93.9844C189.895 93.9844 189 94.8798 189 95.9844C189 97.0889 189.895 97.9844 191 97.9844Z" fill="#FBFDFF" stroke="#A0BFED" stroke-miterlimit="10"/>
<path d="M189 135.984H106V152.984H189V135.984Z" fill="#FBFDFF" stroke="#A0BFED" stroke-miterlimit="10"/>
<path d="M108.196 127.328C108.196 127.328 106.748 112.316 111.717 113.602C116.685 114.888 114.188 124.707 117.933 124.216C121.678 123.725 120.57 104.088 124.12 105.069C127.67 106.051 128.714 123.067 130.686 122.414C132.658 121.761 138.246 109.488 141.446 111.942C144.647 114.397 146.145 120.779 148.142 119.797C150.14 118.816 156.062 110.961 159.342 115.379C162.623 119.797 164.121 107.033 167.117 109.979C170.113 112.924 169.229 98.2798 173.168 101.432C177.108 104.583 175.605 119.307 180.099 116.852C184.593 114.397 186.485 108.015 187.534 111.697C188.583 115.379 187.534 129.984 187.534 129.984H108.196V127.328Z" fill="#BCD5F5"/>
<path d="M214.702 148.08H169.522C168.111 148.08 166.965 146.939 166.965 145.523V120.608C166.965 119.197 168.106 118.051 169.522 118.051H214.702C216.113 118.051 217.259 119.192 217.259 120.608V145.528C217.259 146.939 216.113 148.08 214.702 148.08Z" fill="#FBFDFF" stroke="#A0BFED" stroke-miterlimit="10"/>
<path d="M217.259 124.062H166.97V129.316H217.259V124.062Z" fill="#D4E5FB" stroke="#A0BFED" stroke-miterlimit="10"/>
<path opacity="0.5" d="M203.747 142.826C205.82 142.826 207.5 141.146 207.5 139.073C207.5 137.001 205.82 135.32 203.747 135.32C201.674 135.32 199.994 137.001 199.994 139.073C199.994 141.146 201.674 142.826 203.747 142.826Z" fill="#9EC6FB"/>
<path opacity="0.5" d="M207.5 142.826C209.573 142.826 211.253 141.146 211.253 139.073C211.253 137.001 209.573 135.32 207.5 135.32C205.427 135.32 203.747 137.001 203.747 139.073C203.747 141.146 205.427 142.826 207.5 142.826Z" fill="#9EC6FB"/>
<path d="M171.476 133.82H189.488" stroke="#A0BFED" stroke-width="1.5" stroke-miterlimit="10"/>
<path d="M171.476 136.82H189.488" stroke="#A0BFED" stroke-width="1.5" stroke-miterlimit="10"/>
<path d="M196.994 140.574H171.476V142.827H196.994V140.574Z" fill="#D4E5FB"/>
<path d="M217.822 143.793H172.642C171.231 143.793 170.085 142.651 170.085 141.236V116.321C170.085 114.91 171.226 113.764 172.642 113.764H217.822C219.233 113.764 220.379 114.905 220.379 116.321V141.236C220.374 142.646 219.233 143.793 217.822 143.793Z" fill="#FBFDFF" stroke="#A0BFED" stroke-miterlimit="10"/>
<path d="M220.379 119.775H170.09V125.029H220.379V119.775Z" fill="#D4E5FB" stroke="#A0BFED" stroke-miterlimit="10"/>
<path opacity="0.5" d="M206.867 138.539C208.94 138.539 210.62 136.859 210.62 134.786C210.62 132.713 208.94 131.033 206.867 131.033C204.795 131.033 203.114 132.713 203.114 134.786C203.114 136.859 204.795 138.539 206.867 138.539Z" fill="#9EC6FB"/>
<path opacity="0.5" d="M210.62 138.539C212.693 138.539 214.373 136.859 214.373 134.786C214.373 132.713 212.693 131.033 210.62 131.033C208.547 131.033 206.867 132.713 206.867 134.786C206.867 136.859 208.547 138.539 210.62 138.539Z" fill="#9EC6FB"/>
<path d="M174.591 129.533H192.603" stroke="#A0BFED" stroke-width="1.5" stroke-miterlimit="10"/>
<path d="M174.591 132.533H192.603" stroke="#A0BFED" stroke-width="1.5" stroke-miterlimit="10"/>
<path d="M200.109 136.287H174.591V138.54H200.109V136.287Z" fill="#D4E5FB"/>
<path d="M111 140.984H150" stroke="#D4E5FB" stroke-width="2" stroke-miterlimit="10"/>
<path d="M111 143.984H150" stroke="#D4E5FB" stroke-width="2" stroke-miterlimit="10"/>
<path d="M111 147.984H162" stroke="#D4E5FB" stroke-width="2" stroke-miterlimit="10"/>
<path d="M111.5 113.984C111.776 113.984 112 113.761 112 113.484C112 113.208 111.776 112.984 111.5 112.984C111.224 112.984 111 113.208 111 113.484C111 113.761 111.224 113.984 111.5 113.984Z" fill="#A0BFED" stroke="#FBFDFF" stroke-width="1.5" stroke-miterlimit="10"/>
<path d="M118 123.984C118 123.984 117.776 123.984 117.5 123.984C117.224 123.984 117 123.984 117 123.984C117 123.984 117.224 123.984 117.5 123.984C117.776 123.984 118 123.984 118 123.984Z" stroke="#FBFDFF" stroke-width="1.5" stroke-miterlimit="10"/>
<path d="M131 122.484C131 122.761 131 122.984 131 122.984C131 122.984 131 122.761 131 122.484C131 122.208 131 121.984 131 121.984C131 121.984 131 122.208 131 122.484Z" stroke="#FBFDFF" stroke-width="1.5" stroke-miterlimit="10"/>
<path d="M148 119.484C148 119.761 148 119.984 148 119.984C148 119.984 148 119.761 148 119.484C148 119.208 148 118.984 148 118.984C148 118.984 148 119.208 148 119.484Z" stroke="#FBFDFF" stroke-width="1.5" stroke-miterlimit="10"/>
<path d="M141 111.484C141 111.761 141 111.984 141 111.984C141 111.984 141 111.761 141 111.484C141 111.208 141 110.984 141 110.984C141 110.984 141 111.208 141 111.484Z" stroke="#FBFDFF" stroke-width="1.5" stroke-miterlimit="10"/>
<path d="M171.5 100.984C171.776 100.984 172 100.761 172 100.484C172 100.208 171.776 99.9844 171.5 99.9844C171.224 99.9844 171 100.208 171 100.484C171 100.761 171.224 100.984 171.5 100.984Z" fill="#A0BFED" stroke="#FBFDFF" stroke-width="1.5" stroke-miterlimit="10"/>
<path d="M165.5 109.984C165.776 109.984 166 109.761 166 109.484C166 109.208 165.776 108.984 165.5 108.984C165.224 108.984 165 109.208 165 109.484C165 109.761 165.224 109.984 165.5 109.984Z" fill="#A0BFED" stroke="#FBFDFF" stroke-width="1.5" stroke-miterlimit="10"/>
<path d="M187 110.984C187 110.984 186.776 110.984 186.5 110.984C186.224 110.984 186 110.984 186 110.984C186 110.984 186.224 110.984 186.5 110.984C186.776 110.984 187 110.984 187 110.984Z" stroke="#FBFDFF" stroke-width="1.5" stroke-miterlimit="10"/>
<path d="M158 113.984C158 113.984 157.776 113.984 157.5 113.984C157.224 113.984 157 113.984 157 113.984C157 113.984 157.224 113.984 157.5 113.984C157.776 113.984 158 113.984 158 113.984Z" stroke="#FBFDFF" stroke-width="1.5" stroke-miterlimit="10"/>
<path d="M160.5 116.984C160.776 116.984 161 116.761 161 116.484C161 116.208 160.776 115.984 160.5 115.984C160.224 115.984 160 116.208 160 116.484C160 116.761 160.224 116.984 160.5 116.984Z" fill="#A0BFED" stroke="#FBFDFF" stroke-width="1.5" stroke-miterlimit="10"/>
<path d="M121 94.9844H102V96.9844H121V94.9844Z" stroke="#A0BFED" stroke-miterlimit="10"/>
<path d="M246 59.9844H188V63.9844H246V59.9844Z" fill="#FBFDFF" stroke="#A0BFED" stroke-miterlimit="10"/>
<g opacity="0.77">
<path opacity="0.77" d="M216.346 45.7377C219.477 43.453 221.449 40.8258 220.751 39.8696C220.054 38.9135 216.95 39.9905 213.819 42.2752C210.688 44.56 208.716 47.1872 209.414 48.1434C210.112 49.0995 213.215 48.0225 216.346 45.7377Z" fill="#7FAEEA"/>
<path opacity="0.77" d="M208.033 46.2599L209.409 48.1489L220.748 39.8753L219.367 37.9863" fill="#7FAEEA"/>
<path opacity="0.77" d="M214.97 43.8451C218.101 41.5604 220.073 38.9332 219.375 37.977C218.678 37.0209 215.574 38.0979 212.443 40.3827C209.312 42.6674 207.34 45.2946 208.038 46.2508C208.736 47.2069 211.839 46.1299 214.97 43.8451Z" fill="#D8E7FF"/>
</g>
<g opacity="0.77">
<path opacity="0.77" d="M183.741 13.9805C184.697 13.2827 183.62 10.1791 181.336 7.04828C179.051 3.91748 176.424 1.94511 175.468 2.64286C174.511 3.34061 175.588 6.44426 177.873 9.57506C180.158 12.7059 182.785 14.6782 183.741 13.9805Z" fill="#7FAEEA"/>
<path opacity="0.77" d="M177.352 1.27344L175.463 2.64904L183.731 13.9878L185.625 12.6072" fill="#7FAEEA"/>
<path opacity="0.77" d="M185.629 12.6016C186.585 11.9038 185.508 8.80016 183.223 5.66937C180.939 2.53857 178.311 0.566198 177.355 1.26395C176.399 1.9617 177.476 5.06536 179.761 8.19615C182.046 11.3269 184.673 13.2993 185.629 12.6016Z" fill="#D8E7FF"/>
</g>
<g opacity="0.77">
<path opacity="0.77" d="M192.932 37.6008C196.807 37.6008 199.949 36.6412 199.949 35.4576C199.949 34.274 196.807 33.3145 192.932 33.3145C189.056 33.3145 185.914 34.274 185.914 35.4576C185.914 36.6412 189.056 37.6008 192.932 37.6008Z" fill="#7FAEEA"/>
<path opacity="0.77" d="M185.914 33.1152V35.4578H199.949V33.1152" fill="#7FAEEA"/>
<path opacity="0.77" d="M192.932 35.259C196.807 35.259 199.949 34.2994 199.949 33.1158C199.949 31.9322 196.807 30.9727 192.932 30.9727C189.056 30.9727 185.914 31.9322 185.914 33.1158C185.914 34.2994 189.056 35.259 192.932 35.259Z" fill="#D8E7FF"/>
</g>
<g opacity="0.77">
<path opacity="0.77" d="M187.947 31.4211C191.823 31.4211 194.965 30.4615 194.965 29.2779C194.965 28.0943 191.823 27.1348 187.947 27.1348C184.072 27.1348 180.93 28.0943 180.93 29.2779C180.93 30.4615 184.072 31.4211 187.947 31.4211Z" fill="#7FAEEA"/>
<path opacity="0.77" d="M180.93 26.9395V29.277H194.965V26.9395" fill="#7FAEEA"/>
<path opacity="0.77" d="M187.947 29.0832C191.823 29.0832 194.965 28.1237 194.965 26.94C194.965 25.7564 191.823 24.7969 187.947 24.7969C184.072 24.7969 180.93 25.7564 180.93 26.94C180.93 28.1237 184.072 29.0832 187.947 29.0832Z" fill="#D8E7FF"/>
</g>
<path d="M108 17.2413V13.9844L122.4 25.2244L134.615 27.6447L153 43.9844" stroke="#A0BFED" stroke-miterlimit="10"/>
<path d="M111 13.9844H108" stroke="#A0BFED" stroke-width="1.5" stroke-miterlimit="10"/>
</svg>
