<svg width="12" height="12" viewBox="0 0 16 16" fill="#635bff" xmlns="http://www.w3.org/2000/svg" class="InlineSVG" focusable="false"><path fill-rule="evenodd" clip-rule="evenodd" d="M15 3L8 0L1 3L1.4274 7.70142C1.77524 11.5276 4.35515 14.7851 8 16C11.7091 14.7889 14.3265 11.4666 14.6359 7.57703L15 3ZM12.4975 4.99521C12.107 4.60468 11.4738 4.60468 11.0833 4.99521L7 9.08579L5.20711 7.29289C4.81658 6.90237 4.18342 6.90237 3.79289 7.29289C3.40237 7.68342 3.40237 8.31658 3.79289 8.70711L6.29289 11.2071C6.68342 11.5976 7.31658 11.5976 7.70711 11.2071L12.4975 6.40942C12.888 6.0189 12.888 5.38573 12.4975 4.99521Z" fill="black"></path><mask id="mask0" mask-type="alpha" maskUnits="userSpaceOnUse" x="1" y="0" width="14" height="16"><path fill-rule="evenodd" clip-rule="evenodd" d="M15 3L8 0L1 3L1.4274 7.70142C1.77524 11.5276 4.35515 14.7851 8 16C11.7091 14.7889 14.3265 11.4666 14.6359 7.57703L15 3ZM12.4975 4.99521C12.107 4.60468 11.4738 4.60468 11.0833 4.99521L7 9.08579L5.20711 7.29289C4.81658 6.90237 4.18342 6.90237 3.79289 7.29289C3.40237 7.68342 3.40237 8.31658 3.79289 8.70711L6.29289 11.2071C6.68342 11.5976 7.31658 11.5976 7.70711 11.2071L12.4975 6.40942C12.888 6.0189 12.888 5.38573 12.4975 4.99521Z" fill="white"></path></mask><g mask="url(#mask0)"><rect width="16" height="16" fill="#5469D4"></rect></g></svg>