<svg width="20" height="20" viewBox="0 0 13 9" fill="none" xmlns="http://www.w3.org/2000/svg">
<path d="M2.75086 5L2.64231 5.48807L2.69593 5.5H2.75086V5ZM12.3536 5.35355C12.5488 5.15829 12.5488 4.84171 12.3536 4.64645L9.17157 1.46447C8.97631 1.2692 8.65973 1.2692 8.46447 1.46447C8.2692 1.65973 8.2692 1.97631 8.46447 2.17157L11.2929 5L8.46447 7.82843C8.2692 8.02369 8.2692 8.34027 8.46447 8.53553C8.65973 8.7308 8.97631 8.7308 9.17157 8.53553L12.3536 5.35355ZM0.730395 0.85644C0.543801 1.47896 0.397585 2.45394 0.591963 3.36182C0.690414 3.82166 0.880781 4.2846 1.21775 4.67133C1.55935 5.06337 2.0301 5.35191 2.64231 5.48807L2.85942 4.51193C2.44395 4.41952 2.16535 4.23663 1.97169 4.01439C1.77341 3.78683 1.64263 3.49263 1.5698 3.15247C1.42162 2.46035 1.53232 1.6639 1.68829 1.14356L0.730395 0.85644ZM2.75086 5.5H12V4.5H2.75086V5.5Z" fill="#006DF9"/>
</svg>
