<svg width="620" height="520" viewBox="0 0 620 520" fill="none" xmlns="http://www.w3.org/2000/svg">
<path opacity="0.09" d="M309.844 103.458L363.266 79.2656L600.139 217.362L552.079 248.237L309.844 103.458Z" fill="#191919" stroke="white" stroke-width="0.5" stroke-miterlimit="10"/>
<path d="M309.844 89.3483L360.242 65.1562L600.139 203.252L552.079 234.127L309.844 89.3483Z" fill="white" stroke="#191919" stroke-width="0.5" stroke-miterlimit="10"/>
<path d="M349.156 276.841L451.445 217.43C453.834 215.595 455.225 212.752 455.225 209.739V149.047" stroke="#191919" stroke-width="0.5" stroke-miterlimit="10"/>
<g opacity="0.3">
<path d="M349.156 276.841L451.445 217.43C453.834 215.595 455.225 212.752 455.225 209.739V149.047" stroke="#3E3F3D" stroke-width="0.5" stroke-miterlimit="10"/>
</g>
<path d="M366.289 287.925L494.17 213.353C495.541 212.194 497.486 212.022 499.038 212.919L528.511 229.965C531.344 231.608 534.882 229.561 534.882 226.285V205.672" stroke="#191919" stroke-width="0.5" stroke-miterlimit="10"/>
<g opacity="0.3">
<path d="M366.289 287.925L494.17 213.353C495.541 212.194 497.486 212.022 499.038 212.919L528.511 229.965C531.344 231.608 534.882 229.561 534.882 226.285V205.672" stroke="#3E3F3D" stroke-width="0.5" stroke-miterlimit="10"/>
</g>
<path d="M71.4609 270.283L90.3603 259.295C92.0739 258.297 94.1906 258.297 95.9042 259.295L380.837 423.71C382.197 424.506 382.167 426.482 380.796 427.238L362.764 437.61" stroke="#191919" stroke-width="0.5" stroke-miterlimit="10"/>
<path d="M132.234 304.654L152.605 291.953" stroke="#191919" stroke-width="0.5" stroke-miterlimit="10"/>
<path d="M188.891 337.315L210.058 325.219" stroke="#191919" stroke-width="0.5" stroke-miterlimit="10"/>
<path d="M246.133 370.177L266.504 357.477" stroke="#191919" stroke-width="0.5" stroke-miterlimit="10"/>
<path d="M307.828 405.862L328.995 393.766" stroke="#191919" stroke-width="0.5" stroke-miterlimit="10"/>
<path d="M239.289 342.356L304.817 303.276L349.158 276.836" stroke="#191919" stroke-width="0.5" stroke-miterlimit="10"/>
<path d="M371.566 106.203L370.286 169.122C370.245 170.897 371.153 172.57 372.654 173.507L425.704 204.05C428.738 205.945 428.889 210.309 425.996 212.416L333.031 266.767L366.476 287.754" stroke="#191919" stroke-width="0.5" stroke-miterlimit="10"/>
<g opacity="0.3">
<path d="M371.566 106.203L370.286 169.122C370.245 170.897 371.153 172.57 372.654 173.507L425.704 204.05C428.738 205.945 428.889 210.309 425.996 212.416L333.031 266.767L366.476 287.754" stroke="#3E3F3D" stroke-width="0.5" stroke-miterlimit="10"/>
</g>
<path d="M534.621 217.868C536.013 217.868 537.141 216.74 537.141 215.348C537.141 213.956 536.013 212.828 534.621 212.828C533.23 212.828 532.102 213.956 532.102 215.348C532.102 216.74 533.23 217.868 534.621 217.868Z" fill="#005BFF"/>
<path d="M447.934 221.899C449.326 221.899 450.454 220.771 450.454 219.379C450.454 217.988 449.326 216.859 447.934 216.859C446.542 216.859 445.414 217.988 445.414 219.379C445.414 220.771 446.542 221.899 447.934 221.899Z" fill="#005BFF"/>
<path d="M151.598 294.477C152.99 294.477 154.118 293.349 154.118 291.957C154.118 290.566 152.99 289.438 151.598 289.438C150.206 289.438 149.078 290.566 149.078 291.957C149.078 293.349 150.206 294.477 151.598 294.477Z" fill="#005BFF"/>
<path d="M262.473 330.767C263.865 330.767 264.993 329.638 264.993 328.247C264.993 326.855 263.865 325.727 262.473 325.727C261.081 325.727 259.953 326.855 259.953 328.247C259.953 329.638 261.081 330.767 262.473 330.767Z" fill="#005BFF"/>
<path d="M310.856 385.196C312.248 385.196 313.376 384.068 313.376 382.676C313.376 381.284 312.248 380.156 310.856 380.156C309.464 380.156 308.336 381.284 308.336 382.676C308.336 384.068 309.464 385.196 310.856 385.196Z" fill="#005BFF"/>
<path d="M216.101 178.555L215.758 211.153L339.103 282.943" stroke="#191919" stroke-width="0.5" stroke-miterlimit="10"/>
<path d="M256.426 237.024C257.818 237.024 258.946 235.896 258.946 234.504C258.946 233.113 257.818 231.984 256.426 231.984C255.034 231.984 253.906 233.113 253.906 234.504C253.906 235.896 255.034 237.024 256.426 237.024Z" fill="#005BFF"/>
<path fill-rule="evenodd" clip-rule="evenodd" d="M357.773 38.94L362.733 37.3877C363.509 37.0449 364.396 37.0752 365.152 37.4481L390.301 51.3787C391.399 51.9331 392.095 53.052 392.095 54.2817V111.314C392.095 112.121 391.772 112.887 391.208 113.461L386.39 116.778L385.664 52.8101L357.773 38.94Z" fill="white" stroke="#191919" stroke-width="0.5" stroke-miterlimit="10" stroke-linecap="round" stroke-linejoin="round"/>
<path fill-rule="evenodd" clip-rule="evenodd" d="M356.945 98.956V40.4315C356.945 39.0102 358.518 38.1534 359.707 38.9397L386.741 53.2633C387.245 53.596 387.547 54.1504 387.547 54.7552L387.779 114.993C387.789 116.394 386.257 117.261 385.058 116.525L357.802 100.478C357.278 100.156 356.945 99.5809 356.945 98.956Z" fill="white"/>
<path d="M356.945 98.956V40.4315C356.945 39.0102 358.518 38.1534 359.707 38.9397L386.741 53.2633C387.245 53.596 387.547 54.1504 387.547 54.7552L387.779 114.993C387.789 116.394 386.257 117.261 385.058 116.525L357.802 100.478C357.278 100.156 356.945 99.5809 356.945 98.956Z" stroke="#191919" stroke-width="0.5" stroke-miterlimit="10"/>
<g opacity="0.16">
<path fill-rule="evenodd" clip-rule="evenodd" d="M356.945 98.956V40.4315C356.945 39.0102 358.518 38.1534 359.707 38.9397L386.741 53.2633C387.245 53.596 387.547 54.1504 387.547 54.7552L387.779 114.993C387.789 116.394 386.257 117.261 385.058 116.525L357.802 100.478C357.278 100.156 356.945 99.5809 356.945 98.956Z" fill="#3E3F3D"/>
<path d="M356.945 98.956V40.4315C356.945 39.0102 358.518 38.1534 359.707 38.9397L386.741 53.2633C387.245 53.596 387.547 54.1504 387.547 54.7552L387.779 114.993C387.789 116.394 386.257 117.261 385.058 116.525L357.802 100.478C357.278 100.156 356.945 99.5809 356.945 98.956Z" stroke="#3E3F3D" stroke-width="0.5" stroke-miterlimit="10"/>
</g>
<path fill-rule="evenodd" clip-rule="evenodd" d="M385.482 55.8632C385.482 55.3088 385.23 54.7947 384.827 54.4923L376.521 50.2184V53.0508C376.521 53.5246 376.007 53.8169 375.604 53.575L368.76 49.5934C368.568 49.4825 368.457 49.2809 368.457 49.0692V46.0755L361.774 42.6382C360.817 41.9225 359.547 42.7088 359.547 44.0091V97.7758C359.547 98.3503 359.809 98.8846 360.232 99.1769L383.466 112.614C384.424 113.279 385.653 112.483 385.653 111.202L385.482 55.8632Z" fill="white" stroke="#191919" stroke-width="0.5" stroke-miterlimit="10"/>
<path d="M372.336 84.3125L381.408 89.3525" stroke="#191919" stroke-width="0.5" stroke-miterlimit="10"/>
<path fill-rule="evenodd" clip-rule="evenodd" d="M363.266 78.6328V84.1062L368.185 86.8279V81.3342L363.266 78.6328Z" fill="#005BFF"/>
<path fill-rule="evenodd" clip-rule="evenodd" d="M364.906 77V82.4634L369.815 85.185V79.6914L364.906 77Z" stroke="#191919" stroke-width="0.5" stroke-miterlimit="10"/>
<path d="M372.336 70.1953L381.408 75.2353" stroke="#191919" stroke-width="0.5" stroke-miterlimit="10"/>
<path fill-rule="evenodd" clip-rule="evenodd" d="M363.266 64.5234V69.9969L368.185 72.7185V67.2249L363.266 64.5234Z" fill="#005BFF"/>
<path fill-rule="evenodd" clip-rule="evenodd" d="M364.906 62.8906V68.354L369.815 71.0756V65.582L364.906 62.8906Z" stroke="#191919" stroke-width="0.5" stroke-miterlimit="10"/>
<path fill-rule="evenodd" clip-rule="evenodd" d="M518.047 134.698L523.006 133.145C523.782 132.803 524.669 132.833 525.425 133.206L550.574 147.137C551.673 147.691 552.368 148.81 552.368 150.04V207.072C552.368 207.879 552.046 208.645 551.481 209.219L546.663 212.536L545.937 148.568L518.047 134.698Z" fill="white" stroke="#191919" stroke-width="0.5" stroke-miterlimit="10" stroke-linecap="round" stroke-linejoin="round"/>
<path fill-rule="evenodd" clip-rule="evenodd" d="M517.219 194.714V136.189C517.219 134.768 518.791 133.911 519.981 134.697L547.014 149.021C547.518 149.354 547.821 149.908 547.821 150.513L548.052 210.751C548.063 212.152 546.53 213.019 545.331 212.283L518.075 196.236C517.551 195.913 517.219 195.339 517.219 194.714Z" fill="white"/>
<path d="M517.219 194.714V136.189C517.219 134.768 518.791 133.911 519.981 134.697L547.014 149.021C547.518 149.354 547.821 149.908 547.821 150.513L548.052 210.751C548.063 212.152 546.53 213.019 545.331 212.283L518.075 196.236C517.551 195.913 517.219 195.339 517.219 194.714Z" stroke="#191919" stroke-width="0.5" stroke-miterlimit="10"/>
<g opacity="0.16">
<path fill-rule="evenodd" clip-rule="evenodd" d="M517.219 194.714V136.189C517.219 134.768 518.791 133.911 519.981 134.697L547.014 149.021C547.518 149.354 547.821 149.908 547.821 150.513L548.052 210.751C548.063 212.152 546.53 213.019 545.331 212.283L518.075 196.236C517.551 195.913 517.219 195.339 517.219 194.714Z" fill="#3E3F3D"/>
<path d="M517.219 194.714V136.189C517.219 134.768 518.791 133.911 519.981 134.697L547.014 149.021C547.518 149.354 547.821 149.908 547.821 150.513L548.052 210.751C548.063 212.152 546.53 213.019 545.331 212.283L518.075 196.236C517.551 195.913 517.219 195.339 517.219 194.714Z" stroke="#3E3F3D" stroke-width="0.5" stroke-miterlimit="10"/>
</g>
<path fill-rule="evenodd" clip-rule="evenodd" d="M545.755 151.621C545.755 151.067 545.503 150.552 545.1 150.25L536.794 145.976V148.809C536.794 149.282 536.28 149.575 535.877 149.333L529.033 145.351C528.842 145.24 528.731 145.039 528.731 144.827V141.833L522.048 138.396C521.09 137.68 519.82 138.467 519.82 139.767V193.534C519.82 194.108 520.082 194.642 520.506 194.935L543.739 208.371C544.697 209.037 545.927 208.24 545.927 206.96L545.755 151.621Z" fill="white" stroke="#191919" stroke-width="0.5" stroke-miterlimit="10"/>
<path d="M532.109 181.578L541.181 186.618" stroke="#191919" stroke-width="0.5" stroke-miterlimit="10"/>
<path fill-rule="evenodd" clip-rule="evenodd" d="M523.031 175.906V181.38L527.95 184.101V178.608L523.031 175.906Z" fill="#005BFF"/>
<path fill-rule="evenodd" clip-rule="evenodd" d="M524.68 174.273V179.737L529.589 182.458V176.965L524.68 174.273Z" stroke="#191919" stroke-width="0.5" stroke-miterlimit="10"/>
<path d="M532.109 167.469L541.181 172.509" stroke="#191919" stroke-width="0.5" stroke-miterlimit="10"/>
<path fill-rule="evenodd" clip-rule="evenodd" d="M524.68 160.156V165.62L529.589 168.341V162.848L524.68 160.156Z" stroke="#191919" stroke-width="0.5" stroke-miterlimit="10"/>
<path fill-rule="evenodd" clip-rule="evenodd" d="M503.42 160.231L509.498 156.955C511.03 156.129 511.978 154.556 511.978 152.832V75.4483C511.978 72.8275 510.577 70.4083 508.278 69.0778L422.692 19.6959C421.119 18.7887 419.184 18.7685 417.591 19.6354L409.266 23.6573L503.42 160.231Z" fill="white" stroke="#191919" stroke-width="0.5" stroke-miterlimit="10"/>
<path fill-rule="evenodd" clip-rule="evenodd" d="M408.93 24.8562V105.113C408.93 105.688 409.232 106.222 409.726 106.514L501.753 160.372C502.832 161.007 504.193 160.221 504.193 158.971V77.3932C504.193 76.8085 503.88 76.2743 503.376 75.992L411.349 23.4551C410.27 22.8301 408.93 23.6063 408.93 24.8562Z" fill="#191919"/>
<g opacity="0.06">
<path fill-rule="evenodd" clip-rule="evenodd" d="M408.93 24.8562V105.113C408.93 105.688 409.232 106.222 409.726 106.514L501.753 160.372C502.832 161.007 504.193 160.221 504.193 158.971V77.3932C504.193 76.8085 503.88 76.2743 503.376 75.992L411.349 23.4551C410.27 22.8301 408.93 23.6063 408.93 24.8562Z" fill="#232323"/>
</g>
<path fill-rule="evenodd" clip-rule="evenodd" d="M411.953 29.5754V103.462C411.953 103.986 412.235 104.48 412.689 104.752L499.878 155.344C500.866 155.928 502.106 155.213 502.106 154.053V78.9472C502.106 78.413 501.824 77.919 501.36 77.657L414.171 28.275C413.183 27.7106 411.953 28.4263 411.953 29.5754Z" fill="white" stroke="#191919" stroke-width="0.5" stroke-miterlimit="10"/>
<path fill-rule="evenodd" clip-rule="evenodd" d="M446.656 148.035V128.117L456.565 133.913V154.335L446.656 148.035Z" fill="white" stroke="#191919" stroke-width="0.5" stroke-miterlimit="10"/>
<path fill-rule="evenodd" clip-rule="evenodd" d="M456.562 133.914V154.336L462.832 150.385V137.593L456.562 133.914Z" fill="white" stroke="#191919" stroke-width="0.5" stroke-miterlimit="10"/>
<path opacity="0.18" d="M403.086 87.8367L403.288 33.5156L483.915 78.4724V134.275L403.288 87.7561" fill="#005BFF"/>
<path d="M439.375 72.7188L488.846 102.908" stroke="#191919" stroke-width="0.5" stroke-miterlimit="10"/>
<path d="M438.867 84.3125L488.338 114.502" stroke="#191919" stroke-width="0.5" stroke-miterlimit="10"/>
<path fill-rule="evenodd" clip-rule="evenodd" d="M428.789 62.6328V69.3562L434.837 72.7128V65.9491L428.789 62.6328Z" fill="white" stroke="#191919" stroke-width="0.5" stroke-miterlimit="10"/>
<path fill-rule="evenodd" clip-rule="evenodd" d="M426.773 77.7578V84.4812L432.821 87.8378V81.0741L426.773 77.7578Z" fill="#005BFF"/>
<path fill-rule="evenodd" clip-rule="evenodd" d="M428.789 75.7422V82.4655L434.837 85.8222V79.0585L428.789 75.7422Z" stroke="#191919" stroke-width="0.5" stroke-miterlimit="10"/>
<path fill-rule="evenodd" clip-rule="evenodd" d="M258.26 226.007L261.516 224.626C262.977 223.839 263.884 222.328 263.884 220.684V167.956C263.884 165.456 262.544 163.138 260.357 161.868L178.61 114.703C177.109 113.836 175.264 113.816 173.742 114.653L168.359 116.588L258.26 226.007Z" fill="#191919"/>
<path fill-rule="evenodd" clip-rule="evenodd" d="M168.008 117.927V173.397C168.008 173.941 168.3 174.456 168.774 174.728L256.669 226.166C257.697 226.771 258.997 226.025 258.997 224.835V168.105C258.997 167.551 258.705 167.037 258.221 166.764L170.326 116.586C169.288 116.002 168.008 116.748 168.008 117.927Z" fill="white"/>
<path d="M168.008 117.927V173.397C168.008 173.941 168.3 174.456 168.774 174.728L256.669 226.166C257.697 226.771 258.997 226.025 258.997 224.835V168.105C258.997 167.551 258.705 167.037 258.221 166.764L170.326 116.586C169.288 116.002 168.008 116.748 168.008 117.927Z" stroke="#191919" stroke-width="0.5" stroke-miterlimit="10"/>
<g opacity="0.06">
<path d="M168.008 117.927V173.397C168.008 173.941 168.3 174.456 168.774 174.728L256.669 226.166C257.697 226.771 258.997 226.025 258.997 224.835V168.105C258.997 167.551 258.705 167.037 258.221 166.764L170.326 116.586C169.288 116.002 168.008 116.748 168.008 117.927Z" stroke="#232323" stroke-width="0.5" stroke-miterlimit="10"/>
</g>
<path fill-rule="evenodd" clip-rule="evenodd" d="M247.627 168.67C247.627 169.557 247.002 169.96 246.236 169.547C245.46 169.134 244.855 168.075 244.875 167.188C244.896 166.311 245.521 165.948 246.277 166.352C247.022 166.765 247.627 167.793 247.627 168.67Z" fill="white" stroke="#191919" stroke-width="0.5" stroke-miterlimit="10"/>
<path fill-rule="evenodd" clip-rule="evenodd" d="M253.869 171.975C253.869 172.862 253.244 173.265 252.478 172.852C251.702 172.438 251.098 171.38 251.118 170.493C251.138 169.616 251.763 169.253 252.519 169.656C253.265 170.07 253.869 171.098 253.869 171.975Z" fill="white" stroke="#191919" stroke-width="0.5" stroke-miterlimit="10"/>
<path fill-rule="evenodd" clip-rule="evenodd" d="M241.276 164.873C241.276 165.76 240.651 166.163 239.885 165.75C239.109 165.337 238.504 164.278 238.524 163.391C238.544 162.514 239.169 162.152 239.925 162.555C240.671 162.968 241.276 163.996 241.276 164.873Z" fill="white" stroke="#191919" stroke-width="0.5" stroke-miterlimit="10"/>
<path d="M168.008 127.07L258.997 180.807" stroke="#191919" stroke-width="0.5" stroke-miterlimit="10"/>
<path d="M205.977 159.949V163.608C205.977 163.8 206.077 163.981 206.249 164.082L210.079 166.32C210.442 166.532 210.906 166.27 210.906 165.846V162.086C210.906 161.885 210.795 161.703 210.623 161.613L206.793 159.476C206.42 159.274 205.977 159.536 205.977 159.949Z" fill="white" stroke="#191919" stroke-width="0.5" stroke-miterlimit="10"/>
<path d="M212.445 163.547V167.206C212.445 167.398 212.546 167.579 212.717 167.68L216.548 169.918C216.911 170.13 217.374 169.867 217.374 169.444V165.684C217.374 165.483 217.263 165.301 217.092 165.21L213.262 163.074C212.889 162.862 212.445 163.134 212.445 163.547Z" fill="white" stroke="#191919" stroke-width="0.5" stroke-miterlimit="10"/>
<path d="M219.352 167.648L237.324 177.436" stroke="#191919" stroke-width="0.5" stroke-miterlimit="10"/>
<path d="M219.352 169.75L237.324 179.528" stroke="#191919" stroke-width="0.5" stroke-miterlimit="10"/>
<path d="M205.238 170.752L204.876 187.031C204.855 187.958 205.339 188.835 206.146 189.299L241.646 209.832C242.594 210.386 243.793 209.691 243.793 208.592V191.254C243.793 190.327 243.289 189.47 242.483 189.027L207.365 169.542C206.418 169.018 205.269 169.683 205.238 170.752Z" fill="white" stroke="#191919" stroke-width="0.5" stroke-miterlimit="10"/>
<path d="M206.844 186.456C206.844 186.456 208.406 183.815 211.753 185.59C215.099 187.374 216.016 191.033 218.768 191.033C221.52 191.033 225.32 186.023 229.836 188.533C234.351 191.033 234.351 197.454 238.02 197.454C241.689 197.454 242.969 199.621 242.969 199.621" fill="white"/>
<path d="M206.844 186.456C206.844 186.456 208.406 183.815 211.753 185.59C215.099 187.374 216.016 191.033 218.768 191.033C221.52 191.033 225.32 186.023 229.836 188.533C234.351 191.033 234.351 197.454 238.02 197.454C241.689 197.454 242.969 199.621 242.969 199.621" stroke="#191919" stroke-width="0.5" stroke-miterlimit="10"/>
<path d="M193.296 163.11L183.327 157.001C180.535 155.288 178.277 151.236 178.297 147.939C178.317 144.633 180.615 143.383 183.428 145.137L193.457 151.407C196.188 153.121 198.356 157.112 198.305 160.328C198.245 163.533 196.017 164.773 193.296 163.11Z" fill="#005BFF" stroke="#191919" stroke-width="0.5" stroke-miterlimit="10"/>
<path d="M197.361 159.8C197.321 162.512 195.426 163.57 193.128 162.159C190.819 160.737 188.954 157.361 188.985 154.619C189.015 151.867 190.93 150.809 193.259 152.26C195.567 153.702 197.401 157.078 197.361 159.8Z" fill="white" stroke="#191919" stroke-width="0.5" stroke-miterlimit="10"/>
<path d="M193.667 177.715L183.779 171.808C181.017 170.155 178.779 166.194 178.789 162.948C178.809 159.702 181.087 158.442 183.869 160.136L193.818 166.204C196.529 167.857 198.666 171.768 198.616 174.923C198.576 178.078 196.358 179.328 193.667 177.715Z" fill="white" stroke="#191919" stroke-width="0.5" stroke-miterlimit="10"/>
<path d="M188.055 168.534C188.025 171.245 186.12 172.303 183.792 170.912C181.453 169.511 179.558 166.155 179.578 163.413C179.598 160.671 181.524 159.603 183.872 161.034C186.221 162.465 188.086 165.822 188.055 168.534Z" fill="#005BFF"/>
<path fill-rule="evenodd" clip-rule="evenodd" d="M155.711 153.695V174.611C155.711 175.316 156.084 175.962 156.689 176.314L177.796 188.632C179.116 189.398 180.769 188.451 180.769 186.929V166.315C180.769 165.619 180.406 164.974 179.811 164.621L158.705 152.001C157.384 151.215 155.711 152.163 155.711 153.695Z" fill="#FCF5E3" stroke="#FBEDCA" stroke-miterlimit="10"/>
<path d="M147.312 173.644L157.453 169.259C157.866 169.078 158.34 169.239 158.572 169.622L160.557 172.999C160.779 173.372 161.233 173.533 161.646 173.372L177.38 167.273" stroke="#F2A900" stroke-miterlimit="10"/>
<path fill-rule="evenodd" clip-rule="evenodd" d="M265.969 204.95C265.969 212.933 260.405 216.522 253.51 212.853C246.595 209.173 241.112 199.648 241.293 191.705C241.475 183.883 247.089 180.576 253.833 184.225C260.546 187.864 265.969 197.087 265.969 204.95Z" fill="#EDF6EA" stroke="#DEF0D7" stroke-miterlimit="10"/>
<path d="M252.459 198.486L253.992 199.343C254.627 199.706 255.151 200.523 255.141 201.168C255.131 201.813 254.606 202.034 253.971 201.662L251.26 200.079C250.968 199.908 250.736 200.019 250.736 200.321C250.736 200.623 250.968 201.006 251.26 201.178L252.661 202.014L252.651 203.103C252.651 203.405 252.893 203.809 253.185 203.99C253.488 204.171 253.74 204.071 253.74 203.768L253.75 202.67L253.971 202.801C255.231 203.546 256.28 203.123 256.29 201.833C256.3 200.543 255.262 198.91 254.002 198.214L252.47 197.367C251.855 197.025 251.371 196.249 251.371 195.614C251.371 194.978 251.865 194.727 252.48 195.059L255.221 196.511C255.534 196.682 255.796 196.551 255.796 196.239C255.796 195.926 255.544 195.523 255.231 195.362L253.8 194.616L253.81 193.527C253.81 193.215 253.568 192.831 253.266 192.68C252.963 192.529 252.722 192.66 252.711 192.963L252.701 194.051L252.48 193.94C251.28 193.315 250.323 193.819 250.312 195.049C250.323 196.289 251.27 197.821 252.459 198.486Z" fill="#71B44B"/>
<path d="M253.165 207.297C258.205 210.533 262.731 209.061 262.812 203.699C262.892 198.286 258.407 191.693 253.286 189.284C248.619 187.087 245.102 189.214 245.102 193.83C245.102 198.417 248.559 204.344 253.165 207.297ZM253.286 190.413C257.742 192.56 261.602 198.286 261.542 202.983C261.481 207.64 257.57 208.971 253.185 206.189C249.123 203.628 246.049 198.407 246.059 194.355C246.049 190.272 249.174 188.438 253.286 190.413Z" fill="#71B44B"/>
<path opacity="0.09" fill-rule="evenodd" clip-rule="evenodd" d="M323.728 345.175L260.841 308.494C257.203 305.863 254.179 298.807 261.234 295.783L326.752 257.479C329.292 256.36 336.378 256.219 338.848 257.479L407.39 296.791C414.244 300.278 413.357 304.643 406.382 307.879L340.864 345.175C336.832 348.199 330.784 350.215 323.728 345.175Z" fill="#191919" stroke="white" stroke-width="0.5" stroke-miterlimit="10"/>
<g opacity="0.81">
<path fill-rule="evenodd" clip-rule="evenodd" d="M256.695 249.859L256.705 287.669C256.705 287.669 256.655 293.193 260.566 295.098C264.477 297.004 309.392 322.909 324.965 333.292C331.013 337.324 335.579 336.658 339.077 334.3C342.574 331.941 405.693 298.203 405.693 298.203C405.693 298.203 411.439 296.157 411.035 289.02L411.65 251.644L256.695 249.859Z" fill="white" stroke="#191919" stroke-width="0.5" stroke-miterlimit="10"/>
<path fill-rule="evenodd" clip-rule="evenodd" d="M323.455 293.472L260.568 256.791C256.929 254.16 253.905 247.104 260.961 244.08L326.479 205.776C329.019 204.657 336.105 204.516 338.574 205.776L407.116 245.088C413.971 248.575 413.084 252.94 406.108 256.176L340.59 293.472C336.559 296.496 330.511 298.512 323.455 293.472Z" fill="white" stroke="#191919" stroke-width="0.5" stroke-miterlimit="10"/>
</g>
<path d="M256.695 249.859L256.705 287.669C256.705 287.669 256.655 293.193 260.566 295.098C264.477 297.004 309.392 322.909 324.965 333.292C331.013 337.324 335.579 336.658 339.077 334.3C342.574 331.941 405.693 298.203 405.693 298.203C405.693 298.203 411.439 296.157 411.035 289.02L411.65 251.644" stroke="#191919" stroke-width="0.5" stroke-miterlimit="10"/>
<path fill-rule="evenodd" clip-rule="evenodd" d="M323.455 293.472L260.568 256.791C256.929 254.16 253.905 247.104 260.961 244.08L326.479 205.776C329.019 204.657 336.105 204.516 338.574 205.776L407.116 245.088C413.971 248.575 413.084 252.94 406.108 256.176L340.59 293.472C336.559 296.496 330.511 298.512 323.455 293.472Z" stroke="#191919" stroke-width="0.5" stroke-miterlimit="10"/>
<g opacity="0.5">
<path d="M357.413 249.317L330.742 233.754C323.677 229.631 312.609 229.359 306.067 233.159C299.526 236.969 300.03 243.38 307.156 247.463L334.049 262.885C341.004 266.877 351.819 267.068 358.24 263.339C364.661 259.609 364.308 253.339 357.413 249.317Z" fill="#006DF9"/>
<path d="M350.71 254.602C348.462 253.302 344.945 253.231 342.858 254.441C340.772 255.65 340.903 257.697 343.15 258.997C345.388 260.287 348.906 260.358 350.992 259.148C353.069 257.938 352.948 255.902 350.71 254.602Z" fill="white"/>
<path d="M321.914 238.504C321.954 238.363 321.732 238.232 321.49 238.262L310.715 239.381C310.453 239.411 310.372 239.593 310.574 239.714L319.444 244.834C319.646 244.945 319.968 244.905 320.009 244.754L321.914 238.504Z" fill="white"/>
<path d="M339.423 248.371L333.023 244.652C332.69 244.46 332.166 244.45 331.853 244.621L325.917 248.069C325.604 248.25 325.624 248.553 325.967 248.744L332.388 252.454C332.72 252.645 333.244 252.655 333.557 252.474L339.474 249.036C339.776 248.865 339.756 248.563 339.423 248.371Z" fill="white"/>
</g>
<path fill-rule="evenodd" clip-rule="evenodd" d="M15.7891 465.773L15.7991 480.974C15.7991 480.974 15.779 483.192 17.3514 483.958C18.9238 484.724 36.9866 495.136 43.2461 499.31C45.6753 500.932 47.5098 500.66 48.921 499.713C50.3321 498.765 75.7128 485.198 75.7128 485.198C75.7128 485.198 78.021 484.381 77.8597 481.508L78.1016 466.479L15.7891 465.773Z" fill="#191919"/>
<path fill-rule="evenodd" clip-rule="evenodd" d="M42.6276 483.314L17.3478 468.567C15.8862 467.509 14.6666 464.666 17.499 463.457L43.8473 448.055C44.8653 447.601 47.7178 447.551 48.7157 448.055L76.2736 463.86C79.0253 465.261 78.6725 467.015 75.8704 468.315L49.5221 483.314C47.8993 484.524 45.46 485.341 42.6276 483.314Z" fill="#005BFF" stroke="#191919" stroke-width="0.5" stroke-miterlimit="10"/>
<path d="M50.1084 465.825L55.2894 468.718C55.7732 468.991 56.0252 469.283 56.0454 469.595C56.0655 469.908 55.8438 470.17 55.3801 470.382C54.9164 470.593 54.3822 470.684 53.7774 470.644C53.1727 470.603 52.6284 470.452 52.1445 470.19L47.0039 467.337L41.9137 469.817C41.4601 470.039 40.9359 470.14 40.3513 470.109C39.7566 470.089 39.2325 469.948 38.7587 469.686C38.3152 469.444 38.0935 469.162 38.0834 468.839C38.0733 468.517 38.2749 468.245 38.6982 468.043L43.7482 465.523L38.5067 462.62C38.0128 462.348 37.7407 462.045 37.7004 461.713C37.66 461.38 37.8616 461.098 38.3051 460.866C38.7184 460.644 39.2425 460.554 39.8776 460.584C40.5126 460.614 41.067 460.765 41.5508 461.037L46.8325 463.991L52.1849 461.31C52.6888 461.058 53.2634 460.937 53.8984 460.947C54.5334 460.957 55.0979 461.108 55.5918 461.39C56.0857 461.672 56.3175 461.975 56.3074 462.318C56.2873 462.66 56.0353 462.953 55.5313 463.194L50.1084 465.825Z" fill="#FBFBFB"/>
<path fill-rule="evenodd" clip-rule="evenodd" d="M96.4297 448.641L96.4398 463.841C96.4398 463.841 96.4196 466.059 97.992 466.825C99.5645 467.591 117.627 478.004 123.887 482.177C126.316 483.8 128.15 483.528 129.562 482.58C130.973 481.633 156.353 468.065 156.353 468.065C156.353 468.065 158.662 467.248 158.5 464.376L158.742 449.346L96.4297 448.641Z" fill="white" stroke="#191919" stroke-width="0.5" stroke-miterlimit="10"/>
<path fill-rule="evenodd" clip-rule="evenodd" d="M123.268 466.182L97.9884 451.435C96.5268 450.376 95.3072 447.534 98.1396 446.324L124.488 430.922C125.506 430.468 128.358 430.418 129.356 430.922L156.914 446.727C159.666 448.128 159.313 449.882 156.511 451.183L130.163 466.182C128.54 467.391 126.101 468.208 123.268 466.182Z" fill="white" stroke="#191919" stroke-width="0.5" stroke-miterlimit="10"/>
<path d="M127.473 432.125L155.867 449.08L127.473 465.621L99.0781 449.08L127.473 432.125Z" fill="white"/>
<path d="M137.34 450.04C137.602 449.92 137.854 449.788 138.106 449.647C140.152 448.448 140.172 446.492 138.136 445.293L131.968 441.634C131.574 441.402 130.96 441.372 130.516 441.563L114.731 448.216C114.167 448.458 114.106 448.932 114.6 449.224L116.868 450.555C117.261 450.786 117.876 450.817 118.32 450.625C118.32 450.625 118.35 450.615 118.39 450.595L116.223 451.512C115.729 451.724 115.669 452.147 116.102 452.399L118.078 453.558C118.42 453.76 118.955 453.78 119.348 453.619L123.218 451.996C123.884 451.714 124.801 451.764 125.385 452.107L125.9 452.409C128.702 454.062 133.248 454.062 136.06 452.409C137.138 451.754 137.572 450.877 137.34 450.04Z" fill="#002985"/>
<path d="M137.338 450.044C134.112 451.525 129.455 451.394 126.492 449.65L124.768 448.632C124.375 448.401 123.791 448.36 123.317 448.511L116.201 451.505C115.707 451.717 115.646 452.14 116.08 452.392L118.055 453.551C118.398 453.753 118.932 453.773 119.325 453.612L123.196 451.989C123.861 451.707 124.778 451.757 125.363 452.1L125.877 452.402C128.679 454.055 133.225 454.055 136.037 452.402C137.136 451.757 137.57 450.88 137.338 450.044Z" fill="#0482CA"/>
<path d="M124.772 448.637L126.495 449.655C129.459 451.399 134.116 451.53 137.341 450.048C137.19 449.514 136.777 449 136.071 448.587L131.586 445.936C131.072 445.633 130.265 445.593 129.681 445.845L123.32 448.516C123.794 448.355 124.389 448.405 124.772 448.637Z" fill="#00186A"/>
<path d="M182.337 457.772L130.93 424.508L76.5 463.82L124.882 490.028L182.337 457.772Z" fill="url(#paint0_linear_5670_51469)"/>
<path fill-rule="evenodd" clip-rule="evenodd" d="M37.9688 414.375L37.9788 429.576C37.9788 429.576 37.9587 431.793 39.5311 432.559C41.1035 433.325 59.1663 443.738 65.4258 447.911C67.855 449.534 69.6895 449.262 71.1007 448.314C72.5118 447.367 97.8924 433.799 97.8924 433.799C97.8924 433.799 100.201 432.983 100.039 430.11L100.281 415.081L37.9688 414.375Z" fill="white" stroke="#191919" stroke-width="0.5" stroke-miterlimit="10"/>
<path fill-rule="evenodd" clip-rule="evenodd" d="M64.8073 431.916L39.5275 417.169C38.0659 416.111 36.8463 413.268 39.6787 412.058L66.0269 396.656C67.045 396.203 69.8975 396.152 70.8954 396.656L98.4533 412.462C101.205 413.863 100.852 415.617 98.0501 416.917L71.7018 431.916C70.079 433.126 67.6397 433.942 64.8073 431.916Z" fill="white" stroke="#191919" stroke-width="0.5" stroke-miterlimit="10"/>
<path d="M55.5469 410.275L61.3125 413.702L74.2447 406.263L63.1974 405.961L55.5469 410.275Z" fill="#007CD4"/>
<path d="M75.6079 406.297L70.2656 409.381L83.5204 417.345L83.1878 410.883L75.6079 406.297Z" fill="#007CD4"/>
<path d="M83.5575 418.149L77.9935 414.812L65.1016 422.504L76.29 422.574L83.5575 418.149Z" fill="#007CD4"/>
<path d="M63.6845 422.492L69.2182 419.206L55.5703 411.102L55.7215 417.795L63.6845 422.492Z" fill="#007CD4"/>
<path d="M13 420.483L52.3108 445.683L105.733 411.411L70.4542 388.227L13 420.483Z" fill="url(#paint1_linear_5670_51469)"/>
<path fill-rule="evenodd" clip-rule="evenodd" d="M148.844 413.359L148.854 428.56C148.854 428.56 148.834 430.778 150.406 431.544C151.979 432.31 170.041 442.722 176.301 446.896C178.73 448.518 180.565 448.246 181.976 447.299C183.387 446.351 208.767 432.784 208.767 432.784C208.767 432.784 211.076 431.967 210.914 429.094L211.156 414.065L148.844 413.359Z" fill="white" stroke="#191919" stroke-width="0.5" stroke-miterlimit="10"/>
<path fill-rule="evenodd" clip-rule="evenodd" d="M175.682 430.9L150.402 416.153C148.941 415.095 147.721 412.252 150.554 411.043L176.902 395.641C177.92 395.187 180.773 395.137 181.77 395.641L209.328 411.446C212.08 412.847 211.727 414.601 208.925 415.901L182.577 430.9C180.954 432.11 178.515 432.926 175.682 430.9Z" fill="#6772E3" stroke="#191919" stroke-width="0.5" stroke-miterlimit="10"/>
<path d="M178.911 398.07L207.174 413.362L179.999 428.482L153.57 413.362L178.911 398.07Z" fill="#6772E3"/>
<path fill-rule="evenodd" clip-rule="evenodd" d="M181.781 411.021C182.456 410.628 183.313 410.799 184.28 411.333C185.681 412.11 187.042 413.319 187.728 414.509L191.911 412.12C190.953 410.93 189.653 409.963 188.111 409.116C184.361 407.059 180.037 406.787 176.973 408.592C172.255 411.374 179.855 414.75 177.809 415.94C177.023 416.394 176.045 416.142 175.037 415.577C173.546 414.74 172.235 413.339 171.509 412.039L167.508 414.398C168.486 415.718 169.856 416.827 171.388 417.694C175.098 419.801 179.442 420.244 182.547 418.48C187.748 415.496 179.835 412.15 181.781 411.021Z" fill="white"/>
<path fill-rule="evenodd" clip-rule="evenodd" d="M208.312 447.633L208.323 462.833C208.323 462.833 208.302 465.051 209.875 465.817C211.447 466.583 229.51 476.996 235.77 481.169C238.199 482.792 240.033 482.52 241.444 481.572C242.856 480.625 268.236 467.057 268.236 467.057C268.236 467.057 270.544 466.241 270.383 463.368L270.625 448.338L208.312 447.633Z" fill="white" stroke="#191919" stroke-width="0.5" stroke-miterlimit="10"/>
<path fill-rule="evenodd" clip-rule="evenodd" d="M235.151 465.174L209.871 450.427C208.41 449.368 207.19 446.526 210.022 445.316L236.371 429.914C237.389 429.46 240.241 429.41 241.239 429.914L268.797 445.719C271.549 447.121 271.196 448.874 268.394 450.175L242.046 465.174C240.423 466.383 237.983 467.2 235.151 465.174Z" fill="#35B254" stroke="#191919" stroke-width="0.5" stroke-miterlimit="10"/>
<path d="M239.246 433.469L264.143 447.631L238.742 462.62L214.359 447.631L239.246 433.469Z" fill="#35B254"/>
<path d="M248.981 446.173L239.335 440.578L236.21 442.372L242.5 446.062C242.913 446.304 242.843 446.666 242.49 446.868L236.936 450.094L235.565 449.277C235.152 449.035 235.233 448.662 235.585 448.461L239.587 446.142L236.916 444.57C236.593 444.378 236.21 444.227 235.787 444.126C235.364 444.026 234.91 443.975 234.446 443.975C233.983 443.975 233.529 444.026 233.106 444.136C232.682 444.237 232.289 444.388 231.957 444.58L229.155 446.193C227.743 446.999 227.693 448.299 229.044 449.106L238.871 455.033L248.981 449.116C250.382 448.289 250.382 446.979 248.981 446.173Z" fill="#F5F5F5"/>
<path d="M292.204 454.748L240.797 421.484L186.367 460.796L234.75 487.004L292.204 454.748Z" fill="url(#paint2_linear_5670_51469)"/>
<path fill-rule="evenodd" clip-rule="evenodd" d="M90.3828 377.07L90.3929 392.271C90.3929 392.271 90.3727 394.489 91.9452 395.255C93.5176 396.021 111.58 406.433 117.84 410.606C120.269 412.229 122.104 411.957 123.515 411.01C124.926 410.062 150.307 396.494 150.307 396.494C150.307 396.494 152.615 395.678 152.453 392.805L152.695 377.776L90.3828 377.07Z" fill="white" stroke="#191919" stroke-width="0.5" stroke-miterlimit="10"/>
<path fill-rule="evenodd" clip-rule="evenodd" d="M117.221 394.611L91.9415 379.864C90.48 378.806 89.2603 375.963 92.0927 374.754L118.441 359.352C119.459 358.898 122.312 358.848 123.309 359.352L150.867 375.157C153.619 376.558 153.266 378.312 150.464 379.612L124.116 394.611C122.493 395.821 120.054 396.637 117.221 394.611Z" fill="white" stroke="#191919" stroke-width="0.5" stroke-miterlimit="10"/>
<path d="M116.955 370.669C116.35 370.7 115.665 370.599 115.282 370.357C115.675 370.095 116.36 369.964 116.905 369.944C117.509 369.913 118.225 370.034 118.618 370.226C118.195 370.488 117.56 370.629 116.955 370.669ZM116.693 371.214C116.118 370.861 115.181 370.78 114.889 370.629C114.596 370.468 114.506 370.054 114.022 369.792C113.397 369.46 112.449 369.339 111.532 369.48C109.687 369.742 108.347 370.911 107.964 371.758C107.762 372.181 107.581 372.665 108.075 372.927C108.548 373.179 109.042 373.119 109.587 373.441C110.141 373.764 109.97 374.026 110.474 374.308C110.988 374.601 111.804 374.53 112.631 374.449C113.558 374.359 114.264 374.157 114.304 374.147C114.304 374.137 113.729 373.371 114.939 372.726C115.947 372.191 117.227 372.383 117.298 372.383C117.54 371.768 116.915 371.355 116.693 371.214ZM121.713 372.474L114.193 376.405L115.302 377.04L117.912 375.669L119.475 376.546C120.926 377.362 122.983 377.393 124.464 376.596C125.936 375.81 125.916 374.721 124.464 373.945L121.713 372.474ZM121.874 373.582L123.184 374.298C124.182 374.842 124.222 375.437 123.265 375.941C122.307 376.455 121.188 376.425 120.19 375.871L118.89 375.145L121.874 373.582ZM121.39 380.618C122.136 381.052 123.214 381.243 124.152 381.092L124.172 381.102L123.235 381.616L124.353 382.261L128.234 380.134C129.343 379.53 129.141 378.633 127.75 377.877C126.48 377.181 124.827 377.05 123.809 377.564L124.878 378.159C125.432 377.957 126.188 378.028 126.793 378.36C127.529 378.764 127.609 379.187 126.984 379.53L126.561 379.762L124.968 378.965C123.507 378.239 122.206 378.129 121.219 378.653C120.211 379.197 120.301 379.983 121.39 380.618ZM122.64 380.306C122.005 379.943 121.914 379.55 122.388 379.298C122.872 379.036 123.537 379.106 124.333 379.499L125.754 380.205L125.321 380.447C124.585 380.84 123.446 380.769 122.64 380.306ZM123.718 384.328C124.928 385.043 125.956 385.114 127.861 384.63L136.126 382.534L134.806 381.808L128.688 383.552L128.657 383.542L131.782 380.165L130.482 379.449L126.914 383.763L126.45 383.894C125.664 384.116 125.13 384.066 124.585 383.743C124.484 383.683 124.313 383.572 124.243 383.521L123.285 384.046C123.335 384.096 123.628 384.277 123.718 384.328Z" fill="black"/>
<path fill-rule="evenodd" clip-rule="evenodd" d="M35.9531 345.828L35.9632 361.029C35.9632 361.029 35.943 363.246 37.5155 364.012C39.0879 364.779 57.1507 375.191 63.4102 379.364C65.8394 380.987 67.6739 380.715 69.085 379.767C70.4962 378.82 95.8768 365.252 95.8768 365.252C95.8768 365.252 98.1851 364.436 98.0238 361.563L98.2657 346.534L35.9531 345.828Z" fill="white" stroke="#191919" stroke-width="0.5" stroke-miterlimit="10"/>
<path fill-rule="evenodd" clip-rule="evenodd" d="M62.7917 363.369L37.5118 348.622C36.0503 347.564 34.8306 344.721 37.663 343.512L64.0113 328.109C65.0294 327.656 67.8819 327.605 68.8798 328.109L96.4376 343.915C99.1894 345.316 98.8366 347.07 96.0345 348.37L69.6862 363.369C68.0633 364.579 65.6241 365.395 62.7917 363.369Z" fill="white" stroke="#191919" stroke-width="0.5" stroke-miterlimit="10"/>
<path d="M67.1108 330.328L95.0516 345.831L65.619 361.072L39.4219 345.7L67.1108 330.328Z" fill="white"/>
<path d="M78.1072 346.923C77.4924 345.452 74.791 344.595 72.0796 344.998L65.3262 346.016C63.3909 346.308 63.8243 347.034 64.157 347.931L64.9936 349.967C65.2758 350.653 66.5257 351.066 67.7957 350.885L74.7709 349.877C77.1497 349.534 78.6414 348.214 78.1072 346.923Z" fill="#E84336"/>
<path d="M73.5674 346.38L72.7106 344.323C72.2066 343.204 71.5514 342.781 70.1503 342.962L60.6452 344.424C58.0245 344.827 56.4017 346.319 56.9863 347.75C57.5003 349 59.7683 349.746 62.0564 349.404L71.7732 347.962C73.0533 347.791 73.8597 347.075 73.5674 346.38Z" fill="#F9BA08"/>
<path d="M77.2601 344.899L76.6553 343.448C75.99 341.845 73.0568 340.928 70.1237 341.382L61.4854 342.722C60.2254 342.914 59.4392 343.639 59.7214 344.325L60.3766 345.918C60.6992 346.704 62.1204 347.167 63.5618 346.946L73.4802 345.454C75.5667 345.141 77.6431 345.797 78.1168 346.936L77.2601 344.899Z" fill="#35A653"/>
<path d="M68.9379 342.507L68.2928 340.955C68.0005 340.269 66.7506 339.866 65.4906 340.068L59.6646 340.985C56.8221 341.428 55.0582 343.061 55.7033 344.614L56.1871 345.773L56.7717 347.184L57.0237 347.799C56.6911 346.65 58.0417 345.491 60.1383 345.178L61.6402 344.946L67.184 344.1C68.4238 343.908 69.2201 343.192 68.9379 342.507Z" fill="#4383F2"/>
<path d="M14.0078 350.928L53.3186 376.128L106.741 341.856L71.462 318.672L14.0078 350.928Z" fill="url(#paint3_linear_5670_51469)"/>
<path fill-rule="evenodd" clip-rule="evenodd" d="M35.9531 277.281L35.9632 292.482C35.9632 292.482 35.943 294.699 37.5155 295.466C39.0879 296.232 57.1507 306.644 63.4102 310.817C65.8394 312.44 67.6739 312.168 69.085 311.221C70.4962 310.273 95.8768 296.705 95.8768 296.705C95.8768 296.705 98.1851 295.889 98.0238 293.016L98.2657 277.987L35.9531 277.281Z" fill="white" stroke="#191919" stroke-width="0.5" stroke-miterlimit="10"/>
<path fill-rule="evenodd" clip-rule="evenodd" d="M62.7917 294.822L37.5118 280.075C36.0503 279.017 34.8306 276.174 37.663 274.965L64.0113 259.562C65.0294 259.109 67.8819 259.058 68.8798 259.562L96.4376 275.368C99.1894 276.769 98.8366 278.523 96.0345 279.823L69.6862 294.822C68.0633 296.032 65.6241 296.848 62.7917 294.822Z" fill="white" stroke="#191919" stroke-width="0.5" stroke-miterlimit="10"/>
<path d="M64.9832 283.195L57.625 279.233L69.0554 272.812L76.1212 276.895L64.9832 283.195Z" fill="#FC5F00"/>
<path d="M63.8138 276.272C66.1221 274.971 69.408 274.528 72.6134 274.881C72.1799 273.489 70.9502 272.159 69.0956 271.08C64.4488 268.369 57.2217 267.976 53.0689 270.284C48.8959 272.602 49.5813 276.665 54.4901 279.285C56.4355 280.324 58.8546 281.009 61.3443 281.251C60.7093 279.427 61.5056 277.572 63.8138 276.272Z" fill="#E8031B"/>
<path d="M79.7873 285.179C76.0074 287.336 69.4052 287.215 64.95 284.836C63.1054 283.848 61.8253 282.578 61.3516 281.228C64.6073 281.53 67.853 281.056 70.1209 279.776C72.3787 278.496 73.1952 276.682 72.6307 274.867C75.0297 275.129 77.2875 275.835 79.0414 276.863C83.2547 279.343 83.5571 283.032 79.7873 285.179Z" fill="#F49B1E"/>
<path d="M15.0156 284.397L54.3264 309.597L107.749 275.325L72.4698 252.141L15.0156 284.397Z" fill="url(#paint4_linear_5670_51469)"/>
<path fill-rule="evenodd" clip-rule="evenodd" d="M88.3672 309.539L88.3773 324.74C88.3773 324.74 88.3571 326.957 89.9295 327.723C91.502 328.489 109.565 338.902 115.824 343.075C118.253 344.698 120.088 344.426 121.499 343.478C122.91 342.531 148.291 328.963 148.291 328.963C148.291 328.963 150.599 328.147 150.438 325.274L150.68 310.245L88.3672 309.539Z" fill="white" stroke="#191919" stroke-width="0.5" stroke-miterlimit="10"/>
<path fill-rule="evenodd" clip-rule="evenodd" d="M115.206 327.08L89.9259 312.333C88.4643 311.275 87.2447 308.432 90.0771 307.223L116.425 291.82C117.443 291.367 120.296 291.316 121.294 291.82L148.852 307.626C151.603 309.027 151.251 310.781 148.449 312.081L122.1 327.08C120.477 328.29 118.038 329.106 115.206 327.08Z" fill="#0E4593" stroke="#191919" stroke-width="0.5" stroke-miterlimit="10"/>
<path d="M111.156 309.37L119.27 306.094L121.196 307.162L113.031 310.438L111.156 309.37Z" fill="white"/>
<path d="M126.837 310.488C126.474 310.065 125.99 309.672 125.385 309.339C123.46 308.271 121.152 308.059 119.771 308.825C118.753 309.389 119.146 310.246 119.539 310.841C119.942 311.456 119.972 311.718 119.66 311.889C119.186 312.151 118.38 311.94 117.835 311.627C117.069 311.194 116.777 310.901 116.414 310.407L116.283 310.206L114.469 310.932C114.721 311.295 115.366 311.849 116.202 312.343C118.198 313.482 120.456 313.704 121.938 312.897C122.754 312.454 122.855 311.819 122.24 310.911C121.887 310.347 121.696 309.994 122.029 309.813C122.321 309.651 122.986 309.672 123.752 310.095C124.266 310.367 124.669 310.7 124.931 311.063L125.022 311.204L126.837 310.488Z" fill="white"/>
<path d="M132.082 313.237L130.55 312.38C130.076 312.118 129.592 311.987 128.917 312.128L119.492 314.114L121.508 315.263C121.508 315.263 122.718 314.971 122.98 314.91C123.202 315.041 125.187 316.17 125.469 316.331C125.278 316.503 124.633 317.057 124.633 317.057L126.447 318.095L132.082 313.237ZM125.006 314.436C125.58 314.305 127.788 313.771 127.788 313.771C127.758 313.771 128.362 313.63 128.735 313.539L128.241 313.952C128.241 313.952 126.901 315.112 126.619 315.354L125.006 314.436Z" fill="white"/>
<path d="M109.875 300.852L109.714 300.922C110.238 301.396 110.651 301.92 110.923 302.464L106.68 306.809L108.635 307.918L118.483 305.65L116.467 304.521L109.925 306.184L110.681 305.529C110.701 305.509 110.722 305.488 110.742 305.458L113.171 303.331C113.494 303.019 113.292 302.757 112.899 302.515L109.875 300.852Z" fill="white"/>
<path fill-rule="evenodd" clip-rule="evenodd" d="M142.797 339.773L142.807 354.974C142.807 354.974 142.787 357.192 144.359 357.958C145.932 358.724 163.994 369.136 170.254 373.31C172.683 374.932 174.518 374.66 175.929 373.713C177.34 372.765 202.721 359.198 202.721 359.198C202.721 359.198 205.029 358.381 204.868 355.508L205.109 340.479L142.797 339.773Z" fill="white" stroke="#191919" stroke-width="0.5" stroke-miterlimit="10"/>
<path fill-rule="evenodd" clip-rule="evenodd" d="M169.635 357.315L144.356 342.567C142.894 341.509 141.674 338.666 144.507 337.457L170.855 322.055C171.873 321.601 174.726 321.551 175.724 322.055L203.281 337.86C206.033 339.261 205.68 341.015 202.878 342.315L176.53 357.315C174.907 358.524 172.468 359.341 169.635 357.315Z" fill="#2557D4" stroke="#191919" stroke-width="0.5" stroke-miterlimit="10"/>
<path d="M173.89 323.375L202.093 340.118L173.951 355.964L145.688 340.118L173.89 323.375Z" fill="#2557D4"/>
<path d="M169.225 327.708L191.804 340.953C192.499 341.356 192.479 342.021 191.764 342.425L178.287 350.055C177.592 350.448 176.453 350.448 175.757 350.055L153.148 337.223C152.423 336.81 152.392 336.135 153.098 335.721L166.595 327.708C167.32 327.274 168.5 327.274 169.225 327.708Z" fill="#2557D4"/>
<path d="M160.336 331.439L161.727 332.246L162.745 332.004L163.451 332.407L163.057 333.002L165.779 334.574L166.323 334.251L166.021 334.715L167.432 335.532L168.228 335.35L167.684 335.673L174.357 339.533L175.516 338.858L175.647 338.929C175.738 338.979 175.748 338.999 175.607 339.08L174.599 339.664L178.016 341.64L178.288 341.489C178.419 341.731 178.721 342.053 179.276 342.376L180.707 343.202L181.715 342.971L182.39 343.364L181.977 343.938L184.709 345.511L185.384 345.128L185.122 345.743L187.299 347.003L191.744 344.493L189.597 343.243L189.073 343.545L189.295 343.071L187.077 341.781L186.553 342.084L186.805 341.62L183.791 339.866C183.287 339.574 182.773 339.352 182.219 339.251L182.481 339.1L180.384 337.88L180.122 338.031C180.092 337.779 179.84 337.568 179.487 337.356L171.736 332.84L170.053 333.213L170.668 332.225L168.198 330.784L167.674 331.096L167.926 330.623L165.809 329.383L162.695 330.068L160.336 331.439ZM169.7 336.106L168.873 335.632L171.373 334.171L167.704 334.957L166.999 334.544L168.329 332.397L165.829 333.868L164.186 332.911L164.59 332.306L162.896 331.328L161.868 331.57L160.981 331.056L165.638 330.008L166.847 330.713L165.204 333.294L168.228 331.51L169.549 332.276L168.44 334.161L171.575 333.455L172.915 334.231L169.7 336.106ZM164.963 331.762L165.678 330.683L163.854 331.117L164.963 331.762ZM172.966 337.991L170.295 336.449L173.49 334.584L176.161 336.136L175.496 336.519L173.631 335.431L173.057 335.763L174.881 336.822L174.226 337.205L172.401 336.146L171.766 336.519L173.631 337.598L172.966 337.991ZM179.034 338.808C178.52 339.1 177.905 339.05 177.623 338.979C177.733 339.12 177.764 339.271 177.744 339.362C177.693 339.513 177.572 339.614 177.29 339.775L176.665 340.138L175.869 339.674L176.272 339.443C176.463 339.332 176.756 339.181 176.766 339.009C176.766 338.878 176.615 338.757 176.322 338.596L175.466 338.102L174.306 338.777L173.51 338.314L176.705 336.459L178.53 337.527C178.933 337.759 179.225 337.941 179.336 338.173C179.447 338.394 179.387 338.606 179.034 338.808ZM177.562 338.505C177.391 338.475 177.26 338.404 177.109 338.314L176.141 337.749L176.846 337.336L177.824 337.9C177.965 337.981 178.096 338.072 178.147 338.152C178.207 338.243 178.167 338.334 178.026 338.414C177.885 338.505 177.713 338.535 177.562 338.505ZM177.965 340.884L177.159 340.42L180.354 338.586L181.161 339.06L177.965 340.884ZM187.229 346.247L186.13 345.612L187.047 343.404L184.658 344.765L183.076 343.848L183.479 343.263L181.856 342.326L180.848 342.557L179.931 342.023C179.548 341.801 179.145 341.479 179.145 341.156C179.135 340.844 179.356 340.551 179.941 340.209C180.415 339.937 180.929 339.735 181.614 339.735C182.128 339.735 182.642 339.896 183.187 340.219L183.943 340.662L183.257 341.055L182.511 340.622C182.229 340.451 182.017 340.38 181.715 340.38C181.443 340.38 181.1 340.471 180.767 340.662C180.425 340.854 180.253 341.035 180.233 341.217C180.233 341.358 180.415 341.509 180.616 341.63L180.969 341.832L184.588 341.035L185.757 341.721L184.064 344.21L187.077 342.497L188.267 343.182L187.41 345.239L189.638 343.979L190.434 344.442L187.229 346.247ZM183.872 342.729L184.608 341.69L182.793 342.104L183.872 342.729ZM184.144 350.228C183.691 350.269 183.187 350.138 182.693 349.855L181.201 348.998L181.876 348.615L183.368 349.472C183.519 349.553 183.64 349.603 183.761 349.603C183.872 349.603 183.983 349.583 184.053 349.543C184.144 349.492 184.184 349.432 184.164 349.371C184.154 349.311 184.094 349.25 183.963 349.18C183.257 348.746 182.31 348.253 183.308 347.688C183.761 347.426 184.547 347.325 185.364 347.799L186.906 348.686L187.541 348.333L186.11 347.507C185.676 347.255 185.263 347.134 184.88 347.093L185.142 346.942L183.015 345.712C182.673 345.521 182.189 345.329 181.826 345.319L182.088 345.168L178.258 342.961L177.996 343.112C177.905 342.809 177.431 342.487 177.189 342.356L174.639 340.884L174.377 341.035C174.357 340.763 173.853 340.43 173.52 340.239L170.647 338.586L169.307 338.596L169.367 337.85L165.033 335.35L160.618 337.941L164.872 340.37L166.233 340.36L166.192 341.126L168.783 342.608L169.821 342.013L170.073 342.154C170.416 342.356 170.829 342.578 171.333 342.698L170.143 343.384L172.27 344.594L173.419 343.938L173.52 343.999C173.651 344.069 173.661 344.079 173.53 344.16L172.512 344.745L178.913 348.404C179.316 348.636 179.84 348.817 180.253 348.847L179.971 349.009L181.977 350.158C182.39 350.4 182.854 350.591 183.308 350.692L184.144 350.228ZM173.177 342.003C172.301 342.507 171.434 342.215 170.738 341.822L169.75 341.257L168.692 341.872L167.14 340.985L167.2 339.816L165.134 339.836L161.949 338.011L165.114 336.157L168.349 338.021L168.299 339.191L170.355 339.17L172.895 340.632C173.52 340.995 174.054 341.499 173.177 342.003ZM165.396 339.211L163.42 338.082L164.045 337.709L165.809 338.717L166.454 338.344L164.69 337.336L165.265 337.003L167.281 338.162L167.23 339.201L165.396 339.211ZM168.198 341.237L168.259 339.785L170.728 339.765L168.198 341.237ZM171.414 341.459L170.385 340.874L171.192 340.41L172.23 341.005C172.512 341.166 172.603 341.348 172.331 341.509C172.049 341.66 171.716 341.63 171.414 341.459ZM178.207 343.696L180.818 345.198L180.163 345.571L178.328 344.523L177.754 344.856L179.538 345.884L178.893 346.247L177.109 345.218L176.484 345.581L178.308 346.63L177.653 347.003L175.042 345.511L178.207 343.696ZM175.506 344.079C175.617 344.21 175.647 344.362 175.627 344.452C175.586 344.604 175.455 344.694 175.183 344.856L174.558 345.208L173.772 344.755L174.165 344.533C174.357 344.422 174.659 344.271 174.659 344.11C174.659 343.979 174.508 343.868 174.226 343.696L173.379 343.213L172.23 343.878L171.434 343.424L174.589 341.6L176.413 342.648C176.816 342.88 177.088 343.051 177.209 343.283C177.31 343.505 177.27 343.706 176.907 343.918C176.403 344.21 175.788 344.16 175.506 344.079ZM175.455 343.596C175.294 343.565 175.153 343.495 175.002 343.414L174.044 342.86L174.75 342.446L175.718 343.001C175.859 343.082 176 343.162 176.04 343.253C176.09 343.344 176.05 343.434 175.919 343.505C175.788 343.596 175.617 343.626 175.455 343.596ZM182.32 347.769C182.32 347.94 182.209 348.101 181.886 348.283C181.211 348.666 180.455 348.595 179.669 348.152L178.147 347.285L178.822 346.902L180.334 347.769C180.485 347.849 180.606 347.9 180.727 347.91C180.828 347.91 180.939 347.89 181.03 347.849C181.12 347.799 181.15 347.728 181.14 347.678C181.13 347.618 181.07 347.557 180.929 347.476C180.223 347.043 179.266 346.549 180.263 345.974C180.727 345.712 181.503 345.612 182.32 346.075L183.882 346.972L183.207 347.355L181.785 346.539C181.644 346.458 181.544 346.408 181.413 346.388C181.271 346.368 181.171 346.398 181.07 346.448C180.949 346.519 180.939 346.599 181.009 346.68C181.06 346.741 181.14 346.801 181.282 346.872L181.685 347.114C182.098 347.355 182.31 347.567 182.32 347.769ZM186.231 349.049L184.819 348.242C184.678 348.162 184.578 348.111 184.447 348.091C184.315 348.071 184.205 348.101 184.104 348.152C183.983 348.222 183.973 348.303 184.033 348.384C184.084 348.444 184.164 348.505 184.295 348.575L184.699 348.817C185.112 349.069 185.323 349.271 185.323 349.462C185.334 349.492 185.323 349.523 185.313 349.543L186.231 349.049Z" fill="white"/>
<path fill-rule="evenodd" clip-rule="evenodd" d="M199.242 372.031L199.252 387.232C199.252 387.232 199.232 389.45 200.805 390.216C202.377 390.982 220.44 401.394 226.699 405.567C229.128 407.19 230.963 406.918 232.374 405.971C233.785 405.023 259.166 391.455 259.166 391.455C259.166 391.455 261.474 390.639 261.313 387.766L261.555 372.737L199.242 372.031Z" fill="white" stroke="#191919" stroke-width="0.5" stroke-miterlimit="10"/>
<path fill-rule="evenodd" clip-rule="evenodd" d="M226.081 389.572L200.801 374.825C199.339 373.767 198.12 370.924 200.952 369.715L227.3 354.312C228.318 353.859 231.171 353.808 232.169 354.312L259.727 370.118C262.478 371.519 262.126 373.273 259.324 374.573L232.975 389.572C231.352 390.782 228.913 391.598 226.081 389.572Z" fill="#FDB0C5" stroke="#191919" stroke-width="0.5" stroke-miterlimit="10"/>
<path d="M229.101 356.719L257.445 372.827L229.494 388.118L203.852 373.058L229.101 356.719Z" fill="#FDB0C5"/>
<path d="M230.978 365.99L217.955 373.993L214.961 372.249L227.833 364.195L230.978 365.99ZM238.88 370.515C235.977 372.219 232.238 373.156 228.347 373.227H227.974L226.553 379.003L222.823 376.826L224.305 370.526L226.371 370.687C229.718 370.939 233.034 370.294 235.534 368.882L235.775 368.741L238.88 370.515ZM232.369 378.579C232.812 378.842 233.064 379.184 233.064 379.547C233.064 379.91 232.822 380.253 232.379 380.495C231.935 380.747 231.34 380.878 230.726 380.868C230.111 380.858 229.516 380.716 229.072 380.454C228.629 380.202 228.387 379.86 228.377 379.497C228.367 379.144 228.609 378.801 229.042 378.549C229.476 378.297 230.07 378.156 230.695 378.166C231.32 378.176 231.925 378.327 232.369 378.579Z" fill="black"/>
<path fill-rule="evenodd" clip-rule="evenodd" d="M255.688 408.32L255.698 423.521C255.698 423.521 255.677 425.739 257.25 426.505C258.822 427.271 276.885 437.683 283.145 441.856C285.574 443.479 287.408 443.207 288.819 442.26C290.231 441.312 315.611 427.744 315.611 427.744C315.611 427.744 317.919 426.928 317.758 424.055L318 409.026L255.688 408.32Z" fill="white" stroke="#191919" stroke-width="0.5" stroke-miterlimit="10"/>
<path fill-rule="evenodd" clip-rule="evenodd" d="M282.526 425.861L257.246 411.114C255.785 410.056 254.565 407.213 257.397 406.004L283.746 390.602C284.764 390.148 287.616 390.098 288.614 390.602L316.172 406.407C318.924 407.808 318.571 409.562 315.769 410.862L289.421 425.861C287.798 427.071 285.358 427.887 282.526 425.861Z" fill="#B0FAE2" stroke="#191919" stroke-width="0.5" stroke-miterlimit="10"/>
<path d="M286.493 393.266L312.468 408.204L286.715 422.709L260.961 408.184L286.493 393.266Z" fill="#B0FAE2"/>
<path d="M298.476 409.86L297.438 407.723L296.38 405.546C295.684 404.104 292.529 403.6 290.695 404.659L290.393 404.83C290.221 404.931 290.161 405.072 290.231 405.203L290.725 406.211C290.856 406.493 291.471 406.584 291.824 406.382L292.55 405.969C292.912 405.757 293.527 405.858 293.668 406.14L294.626 408.126L295.584 410.092C295.725 410.374 295.271 410.636 294.777 410.555L291.33 410.011L287.873 409.467C287.379 409.386 287.207 409.033 287.57 408.832L287.933 408.63C289.747 407.592 288.881 405.788 286.361 405.394L282.561 404.79L278.811 404.195C276.281 403.792 274.013 405.112 274.739 406.554L275.817 408.691L276.906 410.848C277.622 412.269 280.746 412.763 282.54 411.735L282.843 411.563C283.014 411.463 283.075 411.332 283.004 411.19L282.5 410.193C282.359 409.91 281.754 409.82 281.401 410.021L280.686 410.434C280.333 410.636 279.718 410.545 279.567 410.263L278.589 408.287L277.601 406.322C277.46 406.04 277.904 405.778 278.408 405.858L281.865 406.402L285.333 406.947C285.826 407.027 285.998 407.38 285.645 407.592L285.282 407.794C283.468 408.832 284.345 410.626 286.855 411.019L290.634 411.624L294.364 412.219C296.874 412.592 299.172 411.291 298.476 409.86Z" fill="black"/>
<path fill-rule="evenodd" clip-rule="evenodd" d="M314.156 438.562L314.166 453.763C314.166 453.763 314.146 455.981 315.719 456.747C317.291 457.513 335.354 467.926 341.613 472.099C344.043 473.722 345.877 473.449 347.288 472.502C348.699 471.554 374.08 457.987 374.08 457.987C374.08 457.987 376.388 457.17 376.227 454.297L376.469 439.268L314.156 438.562Z" fill="white" stroke="#191919" stroke-width="0.5" stroke-miterlimit="10"/>
<path fill-rule="evenodd" clip-rule="evenodd" d="M340.995 456.104L315.715 441.356C314.253 440.298 313.034 437.456 315.866 436.246L342.214 420.844C343.232 420.39 346.085 420.34 347.083 420.844L374.641 436.649C377.393 438.05 377.04 439.804 374.238 441.104L347.889 456.104C346.266 457.313 343.827 458.13 340.995 456.104Z" fill="white" stroke="#191919" stroke-width="0.5" stroke-miterlimit="10"/>
<path d="M345.049 421.695L374.341 437.743L345.049 455.373L315.758 438.72L345.049 421.695Z" fill="white"/>
<path d="M329.082 438.608C329.596 437.248 330.725 435.988 332.368 434.949C334.001 433.911 336.067 433.145 338.365 432.712C340.653 432.288 343.082 432.218 345.401 432.51C347.719 432.802 349.836 433.458 351.529 434.395C353.233 435.332 354.442 436.532 355.047 437.863C355.652 439.193 355.611 440.604 354.936 441.945C354.261 443.296 352.96 444.525 351.186 445.503C349.412 446.481 347.215 447.176 344.836 447.499L347.507 449.001C350.199 448.426 352.608 447.459 354.493 446.209C356.377 444.959 357.698 443.457 358.313 441.864C358.928 440.272 358.827 438.619 358.03 437.086C357.234 435.554 355.773 434.173 353.787 433.064C351.801 431.966 349.352 431.19 346.661 430.796C343.979 430.403 341.147 430.413 338.426 430.817C335.704 431.22 333.184 432.016 331.088 433.115C328.991 434.224 327.398 435.615 326.461 437.147L329.082 438.608Z" fill="#4A4AF2"/>
<path d="M347.837 436.765C346.123 435.807 343.352 435.192 341.426 435.102L340.338 436.855C341.981 436.866 344.037 437.249 345.287 437.944C346.476 438.609 346.738 439.214 345.932 439.688C345.398 440.011 344.652 439.94 343.755 439.527C340.388 437.964 337.022 437.198 334.643 438.599C332.748 439.718 332.949 441.15 335.177 442.41C335.842 442.793 336.689 443.055 337.606 443.176C338.523 443.297 339.501 443.276 340.418 443.115L338.785 444.083L341.578 445.655L348.401 441.603C351.204 439.94 350.377 438.176 347.837 436.765ZM338.15 441.553C337.253 441.049 337.142 440.535 337.788 440.162C339.118 439.376 341.043 440.091 343.15 441.271C341.759 442.097 339.552 442.339 338.15 441.553Z" fill="#060809"/>
<path d="M393.007 447.633L342.125 416.445L294.227 449.588L338.345 478.941L393.007 447.633Z" fill="url(#paint5_linear_5670_51469)"/>
<defs>
<linearGradient id="paint0_linear_5670_51469" x1="151.467" y1="479.223" x2="98.9999" y2="435.375" gradientUnits="userSpaceOnUse">
<stop stop-color="#F9F9F9"/>
<stop offset="1" stop-color="#F9F9F9" stop-opacity="0"/>
</linearGradient>
<linearGradient id="paint1_linear_5670_51469" x1="40.7388" y1="400.377" x2="85.0683" y2="437.425" gradientUnits="userSpaceOnUse">
<stop stop-color="#F9F9F9"/>
<stop offset="1" stop-color="#F9F9F9" stop-opacity="0"/>
</linearGradient>
<linearGradient id="paint2_linear_5670_51469" x1="261.334" y1="476.2" x2="208.867" y2="432.352" gradientUnits="userSpaceOnUse">
<stop stop-color="#F9F9F9"/>
<stop offset="1" stop-color="#F9F9F9" stop-opacity="0"/>
</linearGradient>
<linearGradient id="paint3_linear_5670_51469" x1="41.7466" y1="330.823" x2="86.076" y2="367.87" gradientUnits="userSpaceOnUse">
<stop stop-color="#F9F9F9"/>
<stop offset="1" stop-color="#F9F9F9" stop-opacity="0"/>
</linearGradient>
<linearGradient id="paint4_linear_5670_51469" x1="42.7544" y1="264.291" x2="87.0839" y2="301.339" gradientUnits="userSpaceOnUse">
<stop stop-color="#F9F9F9"/>
<stop offset="1" stop-color="#F9F9F9" stop-opacity="0"/>
</linearGradient>
<linearGradient id="paint5_linear_5670_51469" x1="364.87" y1="466.372" x2="314.296" y2="424.106" gradientUnits="userSpaceOnUse">
<stop stop-color="#F9F9F9"/>
<stop offset="1" stop-color="#F9F9F9" stop-opacity="0"/>
</linearGradient>
</defs>
</svg>
