<svg width="24" height="24" viewBox="0 0 36 36" fill="none" xmlns="http://www.w3.org/2000/svg">
<rect x="0.5" y="0.5" width="35" height="35" rx="4.5" stroke="#BFBFBF"/>
<path d="M12.1225 11.1818V25H9.20099V11.1818H12.1225ZM21.1346 25H16.2362V11.1818H21.1751C22.565 11.1818 23.7615 11.4585 24.7646 12.0117C25.7677 12.5605 26.5391 13.3499 27.0789 14.38C27.6231 15.41 27.8953 16.6425 27.8953 18.0774C27.8953 19.5168 27.6231 20.7538 27.0789 21.7884C26.5391 22.8229 25.7632 23.6168 24.7511 24.1701C23.7435 24.7234 22.538 25 21.1346 25ZM19.1577 22.4968H21.0132C21.8768 22.4968 22.6033 22.3439 23.1925 22.038C23.7863 21.7276 24.2316 21.2486 24.5284 20.6009C24.8298 19.9486 24.9805 19.1075 24.9805 18.0774C24.9805 17.0563 24.8298 16.2219 24.5284 15.5742C24.2316 14.9265 23.7885 14.4497 23.1993 14.1438C22.61 13.8379 21.8836 13.685 21.0199 13.685H19.1577V22.4968Z" fill="#878686"/>
</svg>
