<svg
  width="20"
  height="20"
  viewBox="0 0 20 20"
  fill="none"
  xmlns="http://www.w3.org/2000/svg"
>
  <g opacity="0.2">
    <path
      d="M16 2.625V13.875C16 14.0408 15.9473 14.1997 15.8536 14.3169C15.7598 14.4342 15.6326 14.5 15.5 14.5C15.3674 14.5 15.2402 14.4342 15.1464 14.3169C15.0527 14.1997 15 14.0408 15 13.875V3.25H6.5C6.36739 3.25 6.24021 3.18415 6.14645 3.06694C6.05268 2.94973 6 2.79076 6 2.625C6 2.45924 6.05268 2.30027 6.14645 2.18306C6.24021 2.06585 6.36739 2 6.5 2H15.5C15.6326 2 15.7598 2.06585 15.8536 2.18306C15.9473 2.30027 16 2.45924 16 2.625ZM13.5 4.5H4.5C4.36739 4.5 4.24021 4.56585 4.14645 4.68306C4.05268 4.80027 4 4.95924 4 5.125V16.375C4 16.5408 4.05268 16.6997 4.14645 16.8169C4.24021 16.9342 4.36739 17 4.5 17H13.5C13.6326 17 13.7598 16.9342 13.8536 16.8169C13.9473 16.6997 14 16.5408 14 16.375V5.125C14 4.95924 13.9473 4.80027 13.8536 4.68306C13.7598 4.56585 13.6326 4.5 13.5 4.5Z"
      fill="#151A1F"
    />
  </g>
</svg>
