<svg width="25" height="25" viewBox="0 0 36 36" fill="none" xmlns="http://www.w3.org/2000/svg">
<rect x="0.5" y="0.5" width="35" height="35" rx="4.5" fill="white" stroke="#8E8E8E"/>
<path d="M13.1225 11.1818V25H10.201V11.1818H13.1225ZM22.1346 25H17.2362V11.1818H22.1751C23.565 11.1818 24.7615 11.4585 25.7646 12.0117C26.7677 12.5605 27.5391 13.3499 28.0789 14.38C28.6231 15.41 28.8953 16.6425 28.8953 18.0774C28.8953 19.5168 28.6231 20.7538 28.0789 21.7884C27.5391 22.8229 26.7632 23.6168 25.7511 24.1701C24.7435 24.7234 23.538 25 22.1346 25ZM20.1577 22.4968H22.0132C22.8768 22.4968 23.6033 22.3439 24.1925 22.038C24.7863 21.7276 25.2316 21.2486 25.5284 20.6009C25.8298 19.9486 25.9805 19.1075 25.9805 18.0774C25.9805 17.0563 25.8298 16.2219 25.5284 15.5742C25.2316 14.9265 24.7885 14.4497 24.1993 14.1438C23.61 13.8379 22.8836 13.685 22.0199 13.685H20.1577V22.4968Z" fill="#8E8E8E"/>
</svg>
