<svg width="353" height="256" viewBox="0 0 353 256" fill="none" xmlns="http://www.w3.org/2000/svg">
<rect x="0.5" width="352" height="256" rx="24" fill="#D5E8FF"/>
<path d="M257.062 58.2273C257.482 57.7013 258.25 57.6145 258.767 58.0454C264.872 63.135 269.867 69.4314 273.434 76.5442C277.184 84.0203 279.267 92.2207 279.542 100.58C279.816 108.939 278.274 117.258 275.023 124.964C271.929 132.296 267.358 138.906 261.599 144.384C261.112 144.848 260.34 144.812 259.887 144.315C259.433 143.818 259.47 143.048 259.957 142.583C265.455 137.342 269.821 131.023 272.777 124.017C275.892 116.636 277.368 108.667 277.106 100.66C276.843 92.6528 274.847 84.798 271.256 77.6368C267.846 70.839 263.076 64.8198 257.246 59.9504C256.729 59.519 256.642 58.7532 257.062 58.2273Z" fill="#0561E2"/>
<path d="M181.702 145.084C181.244 145.578 180.472 145.609 179.988 145.141C173.004 138.398 167.83 130.005 164.941 120.737C164.741 120.095 165.115 119.418 165.762 119.232C166.409 119.045 167.083 119.419 167.284 120.061C170.048 128.903 174.986 136.911 181.644 143.352C182.128 143.82 182.159 144.59 181.702 145.084Z" fill="#0561E2"/>
<path d="M270.269 91.1145C271.2 90.893 272.137 91.4676 272.327 92.405C274.526 103.227 273.237 114.484 268.62 124.548C263.761 135.138 255.498 143.796 245.147 149.144C234.796 154.491 222.953 156.22 211.505 154.054C200.057 151.889 189.664 145.954 181.981 137.195C174.298 128.436 169.769 117.357 169.114 105.725C168.46 94.0921 171.718 82.5753 178.369 73.0098C185.021 63.4442 194.683 56.3803 205.815 52.9441C216.395 49.6784 227.725 49.8677 238.167 53.459C239.072 53.77 239.52 54.7739 239.179 55.6677C238.838 56.5614 237.838 57.0064 236.932 56.6974C227.213 53.3807 216.678 53.2165 206.837 56.254C196.443 59.4621 187.423 66.0569 181.213 74.9874C175.004 83.9178 171.962 94.6699 172.573 105.53C173.184 116.39 177.413 126.733 184.585 134.91C191.758 143.088 201.461 148.629 212.149 150.651C222.836 152.673 233.893 151.059 243.557 146.066C253.221 141.074 260.936 132.99 265.471 123.104C269.766 113.743 270.977 103.276 268.955 93.2075C268.767 92.2696 269.339 91.336 270.269 91.1145Z" fill="#9BC0F3"/>
<circle cx="291.43" cy="100.318" r="3.34892" transform="rotate(-1.92955 291.43 100.318)" fill="#A189FF"/>
<circle cx="219.087" cy="159.993" r="1.72627" transform="rotate(-1.92955 219.087 159.993)" fill="#69A0EE"/>
<circle cx="170.831" cy="112.707" r="2.21218" transform="rotate(-1.92955 170.831 112.707)" fill="#0561E2"/>
<circle cx="222.166" cy="61.7552" r="1.72627" transform="rotate(-1.92955 222.166 61.7552)" fill="#69A0EE"/>
<g filter="url(#filter0_d_31899_25394)">
<g clip-path="url(#clip0_31899_25394)">
<rect x="83.7153" y="72.7652" width="169.677" height="114.544" rx="4.19746" fill="white"/>
<rect x="107.57" y="78.1147" width="55.6356" height="45.1881" rx="3.71312" fill="white" stroke="#F2F2F3" stroke-width="0.629619"/>
<path d="M108.009 173.679L113.972 167.549C114.117 167.4 114.287 167.276 114.474 167.184L135.032 157.057C135.394 156.879 135.686 156.586 135.864 156.224L143.598 140.492C144.167 139.336 145.72 139.115 146.588 140.067L153.161 147.276C153.605 147.762 154.276 147.972 154.918 147.826L166.589 145.159C166.801 145.111 167.02 145.1 167.236 145.129L182.39 147.13C182.795 147.183 183.206 147.1 183.557 146.892L190.214 142.967C190.872 142.579 191.702 142.641 192.295 143.123L195.287 145.555C195.995 146.131 197.02 146.095 197.687 145.472L208.111 135.727C208.751 135.128 209.727 135.069 210.435 135.586L224.625 145.933C225.157 146.321 225.856 146.392 226.455 146.121L246.946 136.852" stroke="#5EA41B" stroke-width="0.913514" stroke-linecap="round" stroke-linejoin="round"/>
<path opacity="0.3" d="M113.997 167.523L108.526 173.147C108.195 173.488 108.009 173.945 108.009 174.421V177.173C108.009 178.182 108.827 179 109.836 179H245.775C246.789 179 247.609 178.176 247.602 177.162L247.368 139.517C247.36 138.196 245.995 137.32 244.79 137.863L226.454 146.124C225.855 146.393 225.158 146.321 224.627 145.934L210.435 135.586C209.727 135.069 208.751 135.128 208.111 135.727L197.664 145.494C197.007 146.108 196.001 146.153 195.292 145.6L192.27 143.242C191.678 142.78 190.863 142.727 190.216 143.11L183.448 147.113C183.106 147.316 182.706 147.401 182.31 147.356L167.767 145.691C167.577 145.669 167.385 145.677 167.198 145.715L155.612 148.053C155.003 148.176 154.372 147.981 153.939 147.534L146.622 139.985C145.733 139.067 144.2 139.323 143.657 140.479L136.417 155.89C136.232 156.284 135.912 156.599 135.514 156.778L124.472 161.756L114.437 167.19C114.274 167.278 114.126 167.391 113.997 167.523Z" fill="url(#paint0_linear_31899_25394)"/>
<rect x="75.0295" y="68.2336" width="26.8109" height="132.922" fill="#0561E2"/>
<circle cx="92.7784" cy="85.478" r="2.26571" fill="white"/>
<circle cx="92.7784" cy="96.3047" r="2.26571" fill="#67A6FE"/>
<circle cx="92.7784" cy="107.13" r="2.26571" fill="#67A6FE"/>
<rect x="108.073" y="127.585" width="138.838" height="53.2442" rx="3.58738" stroke="#F2F2F3" stroke-width="0.881111"/>
<rect x="112.677" y="132.999" width="15.2306" height="3.2727" rx="1.63635" fill="#E5E5E7"/>
<rect x="174.171" y="83.2593" width="15.2306" height="3.2727" rx="1.63635" fill="#E5E5E7"/>
<rect x="112.413" y="85.8556" width="17.9998" height="3.2727" rx="1.63635" fill="#69A0EE"/>
<rect x="112.413" y="92.7785" width="34.9927" height="3.2727" rx="1.63635" fill="#CDDFF9"/>
<rect x="112.667" y="99.452" width="34.7409" height="3.2727" rx="1.63635" fill="#CDDFF9"/>
<rect x="168.995" y="78.2405" width="77.5377" height="44.9366" rx="3.58738" stroke="#F2F2F3" stroke-width="0.881111"/>
<path opacity="0.3" d="M175.856 99.7054L170.172 97.6382C169.569 97.419 168.931 97.8655 168.931 98.5069V113.809C168.931 114.319 169.345 114.733 169.856 114.733H240.752C241.24 114.733 241.644 114.354 241.674 113.867L241.925 109.895C241.945 109.574 241.798 109.267 241.536 109.081L231.626 102.087C231.393 101.922 231.095 101.874 230.822 101.958L223.605 104.179C223.277 104.28 222.92 104.191 222.678 103.948L217.435 98.6804C217.213 98.4567 216.891 98.3621 216.583 98.4295L213.993 98.9962C213.759 99.0473 213.515 99.0058 213.311 98.8804L205.929 94.3377C205.632 94.1549 205.257 94.1549 204.96 94.3377L197.765 98.7655C197.458 98.9547 197.068 98.9476 196.768 98.7474L192.225 95.719C191.859 95.4746 191.37 95.5229 191.059 95.8345L184.465 102.428C184.207 102.687 183.821 102.769 183.48 102.637L175.856 99.7054Z" fill="url(#paint1_linear_31899_25394)"/>
<path d="M168.931 97.1873L182.872 102.642C183.202 102.771 183.576 102.701 183.836 102.461L191.06 95.792C191.374 95.5025 191.845 95.4654 192.2 95.7021L196.768 98.7474C197.068 98.9476 197.458 98.9547 197.765 98.7655L204.96 94.3377C205.257 94.1549 205.632 94.1549 205.929 94.3377L213.311 98.8804C213.515 99.0058 213.759 99.0473 213.993 98.9962L216.573 98.4316C216.887 98.363 217.213 98.462 217.436 98.6932L222.839 104.3C223.097 104.568 223.49 104.655 223.837 104.522L230.983 101.773C231.273 101.661 231.601 101.704 231.854 101.885L241.958 109.148" stroke="#EA7E8A" stroke-width="0.755238" stroke-linecap="round" stroke-linejoin="round"/>
</g>
</g>
<g filter="url(#filter1_d_31899_25394)">
<rect x="41.5" y="102.827" width="33.474" height="33.474" rx="16.5304" fill="#0561E2"/>
</g>
<path d="M64.5085 122.367C64.4509 122.304 64.3944 122.24 64.339 122.179C63.5762 121.333 63.1148 120.823 63.1148 118.43C63.1148 117.191 62.7913 116.175 62.1537 115.413C61.6836 114.849 61.0481 114.422 60.2105 114.106C60.1997 114.101 60.1901 114.094 60.182 114.085C59.8807 113.161 59.0563 112.541 58.1264 112.541C57.1966 112.541 56.3725 113.161 56.0712 114.084C56.0632 114.092 56.0537 114.099 56.0431 114.105C54.0884 114.842 53.1385 116.257 53.1385 118.429C53.1385 120.823 52.6777 121.333 51.9143 122.178C51.8588 122.239 51.8023 122.301 51.7447 122.366C51.5961 122.53 51.5019 122.73 51.4733 122.942C51.4447 123.154 51.483 123.369 51.5835 123.561C51.7974 123.974 52.2534 124.23 52.7737 124.23H63.483C64.0009 124.23 64.4537 123.974 64.6683 123.563C64.7693 123.371 64.8079 123.156 64.7796 122.944C64.7512 122.732 64.6572 122.532 64.5085 122.367Z" fill="white"/>
<path d="M58.1329 126.773C58.6339 126.773 59.1255 126.648 59.5554 126.413C59.9854 126.177 60.3377 125.839 60.5751 125.435C60.5863 125.416 60.5918 125.394 60.5911 125.372C60.5905 125.35 60.5836 125.329 60.5713 125.31C60.5589 125.291 60.5415 125.276 60.5206 125.265C60.4998 125.254 60.4763 125.249 60.4524 125.249H55.8142C55.7903 125.249 55.7667 125.254 55.7458 125.265C55.7249 125.276 55.7075 125.291 55.6951 125.31C55.6827 125.329 55.6758 125.35 55.6751 125.372C55.6744 125.394 55.6799 125.416 55.6911 125.435C55.9285 125.839 56.2808 126.177 56.7106 126.413C57.1405 126.648 57.632 126.773 58.1329 126.773Z" fill="white"/>
<g filter="url(#filter2_d_31899_25394)">
<rect x="210.575" y="165.725" width="85.8428" height="34.1137" rx="3.22881" fill="white" shape-rendering="crispEdges"/>
<path d="M234.679 172.062C240.599 173.648 244.112 179.733 242.526 185.654C240.94 191.574 234.854 195.087 228.934 193.501C223.014 191.915 219.5 185.829 221.087 179.909C222.673 173.989 228.758 170.475 234.679 172.062ZM229.833 190.146C233.9 191.235 238.081 188.822 239.17 184.755C240.26 180.687 237.847 176.507 233.78 175.417C229.712 174.327 225.532 176.741 224.442 180.808C223.352 184.875 225.766 189.056 229.833 190.146Z" fill="#E0D8FF"/>
<path d="M242.133 186.849C241.561 188.301 240.688 189.617 239.572 190.709C238.457 191.802 237.123 192.646 235.659 193.188C234.194 193.73 232.632 193.957 231.074 193.853C229.516 193.75 227.997 193.319 226.617 192.589C225.237 191.858 224.026 190.845 223.065 189.615C222.103 188.385 221.412 186.965 221.036 185.45C220.661 183.934 220.609 182.356 220.885 180.82C221.161 179.283 221.758 177.821 222.637 176.531L225.508 178.487C224.904 179.373 224.493 180.377 224.304 181.433C224.115 182.489 224.15 183.573 224.408 184.614C224.666 185.655 225.141 186.63 225.802 187.475C226.462 188.32 227.294 189.017 228.242 189.518C229.19 190.02 230.233 190.316 231.304 190.387C232.374 190.458 233.447 190.302 234.453 189.93C235.459 189.558 236.375 188.978 237.142 188.227C237.908 187.477 238.508 186.573 238.901 185.575L242.133 186.849Z" fill="#A189FF"/>
<rect x="246.851" y="175.41" width="41.9287" height="5.62249" rx="2.81125" fill="#E5E5E7"/>
<rect x="246.851" y="184.53" width="33.255" height="5.62249" rx="2.81125" fill="#E5E5E7"/>
</g>
<defs>
<filter id="filter0_d_31899_25394" x="75.6115" y="69.4597" width="185.884" height="130.752" filterUnits="userSpaceOnUse" color-interpolation-filters="sRGB">
<feFlood flood-opacity="0" result="BackgroundImageFix"/>
<feColorMatrix in="SourceAlpha" type="matrix" values="0 0 0 0 0 0 0 0 0 0 0 0 0 0 0 0 0 0 127 0" result="hardAlpha"/>
<feOffset dy="4.79833"/>
<feGaussianBlur stdDeviation="4.05192"/>
<feComposite in2="hardAlpha" operator="out"/>
<feColorMatrix type="matrix" values="0 0 0 0 0.541176 0 0 0 0 0.713726 0 0 0 0 0.960784 0 0 0 0.15 0"/>
<feBlend mode="normal" in2="BackgroundImageFix" result="effect1_dropShadow_31899_25394"/>
<feBlend mode="normal" in="SourceGraphic" in2="effect1_dropShadow_31899_25394" result="shape"/>
</filter>
<filter id="filter1_d_31899_25394" x="36.5524" y="100.809" width="43.3693" height="43.3692" filterUnits="userSpaceOnUse" color-interpolation-filters="sRGB">
<feFlood flood-opacity="0" result="BackgroundImageFix"/>
<feColorMatrix in="SourceAlpha" type="matrix" values="0 0 0 0 0 0 0 0 0 0 0 0 0 0 0 0 0 0 127 0" result="hardAlpha"/>
<feOffset dy="2.92948"/>
<feGaussianBlur stdDeviation="2.47378"/>
<feComposite in2="hardAlpha" operator="out"/>
<feColorMatrix type="matrix" values="0 0 0 0 0.541176 0 0 0 0 0.713726 0 0 0 0 0.960784 0 0 0 0.15 0"/>
<feBlend mode="normal" in2="BackgroundImageFix" result="effect1_dropShadow_31899_25394"/>
<feBlend mode="normal" in="SourceGraphic" in2="effect1_dropShadow_31899_25394" result="shape"/>
</filter>
<filter id="filter2_d_31899_25394" x="204.342" y="163.182" width="98.3102" height="46.5811" filterUnits="userSpaceOnUse" color-interpolation-filters="sRGB">
<feFlood flood-opacity="0" result="BackgroundImageFix"/>
<feColorMatrix in="SourceAlpha" type="matrix" values="0 0 0 0 0 0 0 0 0 0 0 0 0 0 0 0 0 0 127 0" result="hardAlpha"/>
<feOffset dy="3.69102"/>
<feGaussianBlur stdDeviation="3.11686"/>
<feComposite in2="hardAlpha" operator="out"/>
<feColorMatrix type="matrix" values="0 0 0 0 0.541176 0 0 0 0 0.713726 0 0 0 0 0.960784 0 0 0 0.15 0"/>
<feBlend mode="normal" in2="BackgroundImageFix" result="effect1_dropShadow_31899_25394"/>
<feBlend mode="normal" in="SourceGraphic" in2="effect1_dropShadow_31899_25394" result="shape"/>
</filter>
<linearGradient id="paint0_linear_31899_25394" x1="177.868" y1="134.695" x2="174.901" y2="179" gradientUnits="userSpaceOnUse">
<stop stop-color="#5EA41B"/>
<stop offset="1" stop-color="#5EA41B" stop-opacity="0"/>
</linearGradient>
<linearGradient id="paint1_linear_31899_25394" x1="205.435" y1="94.0396" x2="205.435" y2="114.683" gradientUnits="userSpaceOnUse">
<stop stop-color="#EE4747"/>
<stop offset="1" stop-color="#A41B1B" stop-opacity="0"/>
</linearGradient>
<clipPath id="clip0_31899_25394">
<rect x="83.7153" y="72.7652" width="169.677" height="114.544" rx="4.19746" fill="white"/>
</clipPath>
</defs>
</svg>
