<svg width="1288" height="695" viewBox="0 0 1288 695" fill="none" xmlns="http://www.w3.org/2000/svg">
<g clip-path="url(#clip0_414_308)">
<g clip-path="url(#clip1_414_308)">
<rect x="-83.5" y="-187" width="1457" height="1060" rx="94.6349" fill="#D5E8FF"/>
<rect x="386.5" y="94" width="516.004" height="477.757" rx="23.7325" fill="white"/>
<rect x="422.734" y="120.84" width="442.864" height="423.405" rx="23.7325" fill="#E6EFFC"/>
<g filter="url(#filter0_d_414_308)">
<rect x="-396.5" y="57" width="556.249" height="550" rx="27" fill="white"/>
</g>
<rect opacity="0.6" x="-374.081" y="205.852" width="489.81" height="115.996" rx="16.6503" fill="#E8E8E8" stroke="white" stroke-width="1.63425"/>
<g filter="url(#filter1_d_414_308)">
<rect x="1165.5" y="57" width="264" height="550" rx="27" fill="white"/>
</g>
<g filter="url(#filter2_d_414_308)">
<rect x="-62.5" y="370" width="354" height="128.172" rx="27" fill="white"/>
</g>
<path d="M37.0849 409.086C33.9935 407.831 30.5061 407.831 27.4147 409.086C26.0982 409.62 24.7787 410.572 23.5449 411.644C22.2757 412.747 20.9389 414.117 19.5914 415.646C16.8946 418.706 14.0386 422.535 11.4471 426.461C8.85578 430.387 6.48832 434.471 4.78898 438.053C3.94012 439.842 3.23806 441.547 2.76074 443.071C2.30016 444.541 1.97767 446.06 2.07358 447.393C2.32214 450.847 4.11786 454.035 7.0061 456.123C8.17781 456.97 9.79124 457.549 11.431 457.98C13.1376 458.429 15.1582 458.787 17.3497 459.067C21.7377 459.629 27.0134 459.904 32.2498 459.904C37.4862 459.904 42.7619 459.629 47.1499 459.067C49.3414 458.787 51.362 458.429 53.0686 457.98C54.7084 457.549 56.3221 456.97 57.4938 456.123C60.382 454.035 62.1773 450.847 62.426 447.393C62.5219 446.06 62.1994 444.541 61.7388 443.071C61.2615 441.547 60.5594 439.842 59.7105 438.053C58.0112 434.471 55.6437 430.387 53.0524 426.461C50.4609 422.535 47.6049 418.706 44.9081 415.646C43.5606 414.117 42.2239 412.747 40.9546 411.644C39.7208 410.572 38.4014 409.62 37.0849 409.086ZM34.9639 445.35C34.9639 446.779 33.7488 447.938 32.2499 447.938C30.751 447.938 29.5359 446.779 29.5359 445.35C29.5359 443.921 30.751 442.759 32.2499 442.759C33.7488 442.759 34.9639 443.921 34.9639 445.35ZM34.9639 436.613C34.9639 438.042 33.7488 439.201 32.2499 439.201C30.751 439.201 29.5359 438.042 29.5359 436.613V426.261C29.5359 424.831 30.751 423.673 32.2499 423.673C33.7488 423.673 34.9639 424.831 34.9639 426.261V436.613Z" fill="#DD373D"/>
<path d="M81.9448 455.025V417.123H106.62V422.465H87.9482V433.861H104.585V439.203H87.9482V455.025H81.9448ZM117.029 455.636C115.163 455.636 113.518 455.314 112.094 454.669C110.703 453.991 109.618 453.075 108.838 451.922C108.057 450.735 107.667 449.344 107.667 447.75C107.667 446.258 107.99 444.918 108.634 443.731C109.312 442.544 110.347 441.543 111.737 440.729C113.128 439.915 114.875 439.339 116.978 438.999L126.542 437.422V441.95L118.097 443.426C116.571 443.697 115.451 444.189 114.739 444.901C114.027 445.579 113.671 446.461 113.671 447.547C113.671 448.598 114.061 449.463 114.841 450.141C115.655 450.786 116.689 451.108 117.944 451.108C119.505 451.108 120.861 450.769 122.014 450.09C123.202 449.412 124.117 448.513 124.762 447.394C125.406 446.241 125.728 444.969 125.728 443.578V436.507C125.728 435.15 125.22 434.048 124.202 433.2C123.218 432.318 121.896 431.877 120.234 431.877C118.707 431.877 117.368 432.284 116.215 433.098C115.095 433.878 114.264 434.895 113.722 436.15L108.939 433.759C109.448 432.403 110.279 431.215 111.432 430.198C112.585 429.146 113.925 428.332 115.451 427.756C117.012 427.179 118.657 426.891 120.386 426.891C122.557 426.891 124.473 427.298 126.135 428.112C127.831 428.926 129.137 430.062 130.053 431.521C131.002 432.945 131.477 434.607 131.477 436.507V455.025H125.983V450.04L127.153 450.192C126.508 451.311 125.677 452.278 124.66 453.092C123.676 453.906 122.54 454.534 121.251 454.975C119.996 455.415 118.589 455.636 117.029 455.636ZM137.182 455.025V427.501H142.931V455.025H137.182ZM137.182 423.737V417.123H142.931V423.737H137.182ZM148.635 455.025V416.512H154.384V455.025H148.635ZM173.01 455.636C170.263 455.636 167.821 455.008 165.684 453.753C163.581 452.465 161.936 450.735 160.749 448.564C159.562 446.36 158.969 443.901 158.969 441.187C158.969 438.406 159.562 435.947 160.749 433.81C161.97 431.673 163.598 429.994 165.633 428.773C167.668 427.518 169.975 426.891 172.553 426.891C174.621 426.891 176.47 427.247 178.098 427.959C179.726 428.672 181.1 429.655 182.219 430.91C183.338 432.131 184.186 433.539 184.763 435.133C185.373 436.727 185.679 438.423 185.679 440.22C185.679 440.661 185.662 441.119 185.628 441.594C185.594 442.069 185.526 442.51 185.424 442.917H163.497V438.338H182.168L179.421 440.424C179.76 438.762 179.641 437.287 179.065 435.998C178.522 434.675 177.674 433.641 176.521 432.894C175.402 432.114 174.079 431.724 172.553 431.724C171.026 431.724 169.67 432.114 168.482 432.894C167.295 433.641 166.38 434.726 165.735 436.15C165.091 437.541 164.836 439.237 164.972 441.238C164.802 443.103 165.057 444.731 165.735 446.122C166.447 447.513 167.431 448.598 168.686 449.378C169.975 450.158 171.433 450.548 173.061 450.548C174.723 450.548 176.131 450.175 177.284 449.429C178.471 448.683 179.404 447.716 180.082 446.529L184.763 448.819C184.22 450.107 183.372 451.278 182.219 452.329C181.1 453.346 179.743 454.16 178.149 454.771C176.589 455.348 174.876 455.636 173.01 455.636ZM202.991 455.636C200.345 455.636 197.971 455.008 195.868 453.753C193.799 452.465 192.154 450.735 190.933 448.564C189.746 446.393 189.152 443.951 189.152 441.238C189.152 438.525 189.763 436.083 190.984 433.912C192.205 431.741 193.85 430.028 195.919 428.773C197.988 427.518 200.328 426.891 202.94 426.891C205.144 426.891 207.095 427.332 208.791 428.214C210.486 429.096 211.826 430.317 212.81 431.877L211.945 433.2V416.512H217.643V455.025H212.199V449.429L212.861 450.497C211.911 452.159 210.554 453.431 208.791 454.313C207.027 455.195 205.094 455.636 202.991 455.636ZM203.55 450.294C205.144 450.294 206.569 449.904 207.824 449.124C209.113 448.344 210.113 447.275 210.826 445.919C211.572 444.528 211.945 442.968 211.945 441.238C211.945 439.508 211.572 437.965 210.826 436.608C210.113 435.252 209.113 434.183 207.824 433.403C206.569 432.623 205.144 432.233 203.55 432.233C201.956 432.233 200.515 432.623 199.226 433.403C197.937 434.183 196.936 435.252 196.224 436.608C195.512 437.965 195.156 439.508 195.156 441.238C195.156 442.968 195.512 444.528 196.224 445.919C196.936 447.275 197.92 448.344 199.175 449.124C200.464 449.904 201.922 450.294 203.55 450.294Z" fill="#E35363"/>
<g filter="url(#filter3_d_414_308)">
<rect x="973.5" y="155.014" width="355" height="128.534" rx="25.046" fill="white"/>
</g>
<path fill-rule="evenodd" clip-rule="evenodd" d="M1006.03 217.214C1006.03 202.554 1018.08 190.67 1032.94 190.67C1047.8 190.67 1059.84 202.554 1059.84 217.214C1059.84 231.874 1047.8 243.759 1032.94 243.759C1018.08 243.759 1006.03 231.874 1006.03 217.214ZM1043.71 213.741C1044.92 212.927 1045.23 211.299 1044.4 210.107C1043.58 208.914 1041.93 208.607 1040.72 209.422L1040.45 209.603C1036.1 212.533 1032.35 216.232 1029.39 220.503L1025.53 216.704C1024.5 215.683 1022.82 215.684 1021.78 216.706C1020.75 217.728 1020.75 219.383 1021.78 220.404L1027.99 226.52C1028.57 227.096 1029.4 227.37 1030.22 227.262C1031.03 227.154 1031.75 226.676 1032.16 225.968C1034.95 221.163 1038.81 217.044 1043.44 213.922L1043.71 213.741Z" fill="#57D083"/>
<path d="M1090.77 237.791C1088.53 237.791 1086.45 237.375 1084.53 236.543C1082.61 235.679 1080.98 234.51 1079.64 233.038C1078.29 231.566 1077.3 229.87 1076.66 227.949L1081.46 225.933C1082.32 228.142 1083.59 229.838 1085.25 231.022C1086.92 232.206 1088.84 232.798 1091.01 232.798C1092.29 232.798 1093.41 232.606 1094.37 232.222C1095.33 231.806 1096.07 231.23 1096.58 230.494C1097.13 229.758 1097.4 228.91 1097.4 227.949C1097.4 226.637 1097.03 225.597 1096.29 224.829C1095.56 224.061 1094.47 223.453 1093.03 223.005L1086.31 220.892C1083.62 220.06 1081.57 218.796 1080.16 217.1C1078.76 215.372 1078.05 213.355 1078.05 211.051C1078.05 209.035 1078.55 207.274 1079.54 205.77C1080.53 204.234 1081.89 203.034 1083.62 202.17C1085.38 201.306 1087.38 200.874 1089.62 200.874C1091.77 200.874 1093.72 201.258 1095.48 202.026C1097.24 202.762 1098.74 203.786 1099.99 205.098C1101.27 206.41 1102.2 207.931 1102.77 209.659L1098.07 211.723C1097.37 209.835 1096.26 208.379 1094.76 207.355C1093.29 206.33 1091.57 205.818 1089.62 205.818C1088.44 205.818 1087.4 206.026 1086.5 206.442C1085.6 206.826 1084.9 207.403 1084.39 208.171C1083.91 208.907 1083.67 209.771 1083.67 210.763C1083.67 211.915 1084.04 212.939 1084.77 213.835C1085.51 214.732 1086.63 215.404 1088.13 215.852L1094.37 217.82C1097.22 218.684 1099.37 219.932 1100.81 221.565C1102.25 223.165 1102.97 225.165 1102.97 227.565C1102.97 229.55 1102.44 231.31 1101.38 232.846C1100.36 234.382 1098.93 235.599 1097.11 236.495C1095.29 237.359 1093.17 237.791 1090.77 237.791ZM1117.1 237.791C1115.15 237.791 1113.44 237.359 1111.97 236.495C1110.49 235.599 1109.34 234.366 1108.51 232.798C1107.71 231.198 1107.31 229.358 1107.31 227.277V211.243H1112.73V226.797C1112.73 227.982 1112.97 229.022 1113.45 229.918C1113.93 230.814 1114.61 231.518 1115.47 232.03C1116.34 232.51 1117.33 232.75 1118.45 232.75C1119.6 232.75 1120.61 232.494 1121.47 231.982C1122.34 231.47 1123.01 230.75 1123.49 229.822C1124 228.894 1124.26 227.805 1124.26 226.557V211.243H1129.63V237.215H1124.5V232.126L1125.07 232.798C1124.46 234.398 1123.46 235.631 1122.05 236.495C1120.64 237.359 1118.99 237.791 1117.1 237.791ZM1147.34 237.791C1144.75 237.791 1142.45 237.199 1140.43 236.015C1138.45 234.798 1136.86 233.166 1135.68 231.118C1134.53 229.07 1133.95 226.749 1133.95 224.157C1133.95 221.597 1134.53 219.292 1135.68 217.244C1136.83 215.196 1138.42 213.595 1140.43 212.443C1142.45 211.259 1144.75 210.667 1147.34 210.667C1149.1 210.667 1150.75 210.987 1152.29 211.627C1153.83 212.235 1155.15 213.083 1156.27 214.171C1157.43 215.26 1158.27 216.524 1158.82 217.964L1154.07 220.172C1153.52 218.828 1152.64 217.756 1151.43 216.956C1150.24 216.124 1148.88 215.708 1147.34 215.708C1145.87 215.708 1144.54 216.076 1143.36 216.812C1142.21 217.516 1141.3 218.524 1140.62 219.836C1139.95 221.117 1139.62 222.573 1139.62 224.205C1139.62 225.837 1139.95 227.309 1140.62 228.622C1141.3 229.902 1142.21 230.91 1143.36 231.646C1144.54 232.382 1145.87 232.75 1147.34 232.75C1148.91 232.75 1150.27 232.35 1151.43 231.55C1152.61 230.718 1153.49 229.614 1154.07 228.238L1158.82 230.494C1158.31 231.87 1157.47 233.118 1156.32 234.238C1155.2 235.327 1153.87 236.191 1152.34 236.831C1150.8 237.471 1149.14 237.791 1147.34 237.791ZM1175.5 237.791C1172.91 237.791 1170.6 237.199 1168.59 236.015C1166.6 234.798 1165.02 233.166 1163.83 231.118C1162.68 229.07 1162.1 226.749 1162.1 224.157C1162.1 221.597 1162.68 219.292 1163.83 217.244C1164.98 215.196 1166.57 213.595 1168.59 212.443C1170.6 211.259 1172.91 210.667 1175.5 210.667C1177.26 210.667 1178.91 210.987 1180.44 211.627C1181.98 212.235 1183.31 213.083 1184.43 214.171C1185.58 215.26 1186.43 216.524 1186.97 217.964L1182.22 220.172C1181.67 218.828 1180.79 217.756 1179.58 216.956C1178.39 216.124 1177.03 215.708 1175.5 215.708C1174.03 215.708 1172.7 216.076 1171.51 216.812C1170.36 217.516 1169.45 218.524 1168.78 219.836C1168.1 221.117 1167.77 222.573 1167.77 224.205C1167.77 225.837 1168.1 227.309 1168.78 228.622C1169.45 229.902 1170.36 230.91 1171.51 231.646C1172.7 232.382 1174.03 232.75 1175.5 232.75C1177.07 232.75 1178.43 232.35 1179.58 231.55C1180.76 230.718 1181.64 229.614 1182.22 228.238L1186.97 230.494C1186.46 231.87 1185.63 233.118 1184.48 234.238C1183.36 235.327 1182.03 236.191 1180.49 236.831C1178.95 237.471 1177.29 237.791 1175.5 237.791ZM1203.51 237.791C1200.92 237.791 1198.61 237.199 1196.59 236.015C1194.61 234.798 1193.06 233.166 1191.94 231.118C1190.82 229.038 1190.26 226.717 1190.26 224.157C1190.26 221.533 1190.82 219.212 1191.94 217.196C1193.09 215.18 1194.63 213.595 1196.55 212.443C1198.47 211.259 1200.64 210.667 1203.08 210.667C1205.03 210.667 1206.77 211.003 1208.31 211.675C1209.84 212.347 1211.14 213.275 1212.2 214.46C1213.25 215.612 1214.05 216.94 1214.6 218.444C1215.17 219.948 1215.46 221.549 1215.46 223.245C1215.46 223.661 1215.45 224.093 1215.41 224.541C1215.38 224.989 1215.32 225.405 1215.22 225.789H1194.53V221.469H1212.15L1209.56 223.437C1209.88 221.869 1209.76 220.476 1209.22 219.26C1208.71 218.012 1207.91 217.036 1206.82 216.332C1205.76 215.596 1204.52 215.228 1203.08 215.228C1201.64 215.228 1200.36 215.596 1199.23 216.332C1198.11 217.036 1197.25 218.06 1196.64 219.404C1196.03 220.716 1195.79 222.317 1195.92 224.205C1195.76 225.965 1196 227.501 1196.64 228.814C1197.31 230.126 1198.24 231.15 1199.43 231.886C1200.64 232.622 1202.02 232.99 1203.56 232.99C1205.12 232.99 1206.45 232.638 1207.54 231.934C1208.66 231.23 1209.54 230.318 1210.18 229.198L1214.6 231.358C1214.09 232.574 1213.28 233.678 1212.2 234.67C1211.14 235.631 1209.86 236.399 1208.36 236.975C1206.88 237.519 1205.27 237.791 1203.51 237.791ZM1229.4 237.791C1226.74 237.791 1224.4 237.135 1222.39 235.823C1220.4 234.51 1219.01 232.75 1218.21 230.542L1222.39 228.574C1223.09 230.046 1224.05 231.214 1225.27 232.078C1226.52 232.942 1227.89 233.374 1229.4 233.374C1230.68 233.374 1231.72 233.086 1232.52 232.51C1233.32 231.934 1233.72 231.15 1233.72 230.158C1233.72 229.518 1233.54 229.006 1233.19 228.622C1232.84 228.206 1232.39 227.869 1231.85 227.613C1231.33 227.357 1230.8 227.165 1230.26 227.037L1226.18 225.885C1223.94 225.245 1222.26 224.285 1221.14 223.005C1220.05 221.693 1219.51 220.172 1219.51 218.444C1219.51 216.876 1219.91 215.516 1220.71 214.364C1221.51 213.179 1222.61 212.267 1224.02 211.627C1225.43 210.987 1227.01 210.667 1228.77 210.667C1231.14 210.667 1233.25 211.259 1235.11 212.443C1236.97 213.595 1238.28 215.212 1239.05 217.292L1234.87 219.26C1234.36 218.012 1233.54 217.02 1232.42 216.284C1231.33 215.548 1230.1 215.18 1228.72 215.18C1227.54 215.18 1226.6 215.468 1225.89 216.044C1225.19 216.588 1224.84 217.308 1224.84 218.204C1224.84 218.812 1225 219.324 1225.32 219.74C1225.64 220.124 1226.05 220.444 1226.56 220.7C1227.08 220.924 1227.6 221.117 1228.15 221.277L1232.37 222.525C1234.52 223.133 1236.17 224.093 1237.32 225.405C1238.47 226.685 1239.05 228.222 1239.05 230.014C1239.05 231.55 1238.63 232.91 1237.8 234.094C1237 235.247 1235.88 236.159 1234.44 236.831C1233 237.471 1231.32 237.791 1229.4 237.791ZM1253 237.791C1250.35 237.791 1248.01 237.135 1245.99 235.823C1244.01 234.51 1242.62 232.75 1241.82 230.542L1245.99 228.574C1246.7 230.046 1247.66 231.214 1248.87 232.078C1250.12 232.942 1251.5 233.374 1253 233.374C1254.28 233.374 1255.32 233.086 1256.12 232.51C1256.92 231.934 1257.32 231.15 1257.32 230.158C1257.32 229.518 1257.15 229.006 1256.8 228.622C1256.44 228.206 1256 227.869 1255.45 227.613C1254.94 227.357 1254.41 227.165 1253.87 227.037L1249.79 225.885C1247.55 225.245 1245.87 224.285 1244.75 223.005C1243.66 221.693 1243.11 220.172 1243.11 218.444C1243.11 216.876 1243.51 215.516 1244.31 214.364C1245.11 213.179 1246.22 212.267 1247.63 211.627C1249.03 210.987 1250.62 210.667 1252.38 210.667C1254.75 210.667 1256.86 211.259 1258.72 212.443C1260.57 213.595 1261.88 215.212 1262.65 217.292L1258.48 219.26C1257.96 218.012 1257.15 217.02 1256.03 216.284C1254.94 215.548 1253.71 215.18 1252.33 215.18C1251.15 215.18 1250.2 215.468 1249.5 216.044C1248.79 216.588 1248.44 217.308 1248.44 218.204C1248.44 218.812 1248.6 219.324 1248.92 219.74C1249.24 220.124 1249.66 220.444 1250.17 220.7C1250.68 220.924 1251.21 221.117 1251.75 221.277L1255.98 222.525C1258.12 223.133 1259.77 224.093 1260.92 225.405C1262.08 226.685 1262.65 228.222 1262.65 230.014C1262.65 231.55 1262.24 232.91 1261.4 234.094C1260.6 235.247 1259.48 236.159 1258.04 236.831C1256.6 237.471 1254.92 237.791 1253 237.791Z" fill="#2BC062"/>
<path d="M291.5 444.333C373.361 463.307 462.239 453.812 637.018 337.385C811.797 220.957 845.924 216.708 973.5 228.352" stroke="#9BC0F3" stroke-width="10"/>
<path d="M479.272 427.198C480.45 425.669 479.489 423.441 477.568 423.249L446.66 420.157C444.794 419.97 443.413 421.857 444.156 423.58L456.111 451.281C456.854 453.003 459.174 453.293 460.319 451.807L479.272 427.198Z" fill="#9BC0F3"/>
<path d="M831.272 232.198C832.45 230.669 831.489 228.441 829.568 228.249L798.66 225.157C796.794 224.97 795.413 226.857 796.156 228.58L808.111 256.281C808.854 258.003 811.174 258.293 812.319 256.807L831.272 232.198Z" fill="#9BC0F3"/>
<g filter="url(#filter4_d_414_308)">
<circle cx="644.684" cy="343.184" r="142.184" fill="white"/>
</g>
<path fill-rule="evenodd" clip-rule="evenodd" d="M644.201 422.911C640.37 423.018 636.646 422.698 632.815 422.165C622.494 420.673 612.811 417.368 603.872 411.932C584.08 399.993 571.418 382.617 566.204 359.805C565.033 354.689 564.501 349.465 564.501 344.242C564.395 323.349 571.205 305.014 585.038 289.451C597.062 276.019 611.959 267.811 629.517 264.4C634.411 263.441 639.306 262.908 644.201 263.121C644.201 271.116 644.201 279.004 644.201 286.999C643.988 287.105 643.775 287.212 643.563 287.425C640.69 289.451 637.817 291.583 635.05 293.821C628.772 298.938 622.813 304.374 617.812 310.877C611.108 319.511 606.639 328.998 606 340.191C605.681 345.521 606.32 350.744 608.022 355.755C612.172 368.226 625.048 381.125 643.137 381.445C644.201 381.445 644.414 381.658 644.414 382.83C644.307 388.267 644.307 399.14 644.307 399.14C644.307 399.14 644.307 399.779 644.307 400.099C644.201 407.668 644.201 415.236 644.201 422.911Z" fill="#0099FF"/>
<path fill-rule="evenodd" clip-rule="evenodd" d="M644.209 286.894C644.209 286.894 644.209 271.011 644.209 263.016C648.571 262.91 652.828 263.336 657.084 263.976C665.065 265.255 672.726 267.6 679.962 271.331C694.965 279.113 706.777 290.199 714.757 305.336C719.333 314.077 722.312 323.351 723.483 333.051C724.866 344.457 723.802 355.757 720.397 366.736C716.46 379.208 709.862 390.188 700.605 399.462C689.326 410.654 675.918 417.903 660.383 421.208C655.062 422.274 649.635 422.913 644.209 422.807C644.209 415.132 644.209 407.563 644.209 399.888C644.209 399.568 644.209 399.035 644.209 399.035C644.209 399.035 644.528 398.822 644.634 398.715C652.934 392.853 660.808 386.457 667.618 378.782C672.088 373.772 675.918 368.442 678.578 362.259C682.303 353.518 683.792 344.564 681.877 335.077C678.472 317.808 663.043 304.909 645.273 304.483C644.102 304.483 644.209 303.524 644.209 303.524V286.894Z" fill="#0561E2"/>
</g>
</g>
<defs>
<filter id="filter0_d_414_308" x="-464.799" y="14.3129" width="692.848" height="686.599" filterUnits="userSpaceOnUse" color-interpolation-filters="sRGB">
<feFlood flood-opacity="0" result="BackgroundImageFix"/>
<feColorMatrix in="SourceAlpha" type="matrix" values="0 0 0 0 0 0 0 0 0 0 0 0 0 0 0 0 0 0 127 0" result="hardAlpha"/>
<feOffset dy="25.6123"/>
<feGaussianBlur stdDeviation="34.1497"/>
<feComposite in2="hardAlpha" operator="out"/>
<feColorMatrix type="matrix" values="0 0 0 0 0.27451 0 0 0 0 0.27451 0 0 0 0 0.27451 0 0 0 0.08 0"/>
<feBlend mode="normal" in2="BackgroundImageFix" result="effect1_dropShadow_414_308"/>
<feBlend mode="normal" in="SourceGraphic" in2="effect1_dropShadow_414_308" result="shape"/>
</filter>
<filter id="filter1_d_414_308" x="1097.2" y="14.3129" width="400.599" height="686.599" filterUnits="userSpaceOnUse" color-interpolation-filters="sRGB">
<feFlood flood-opacity="0" result="BackgroundImageFix"/>
<feColorMatrix in="SourceAlpha" type="matrix" values="0 0 0 0 0 0 0 0 0 0 0 0 0 0 0 0 0 0 127 0" result="hardAlpha"/>
<feOffset dy="25.6123"/>
<feGaussianBlur stdDeviation="34.1497"/>
<feComposite in2="hardAlpha" operator="out"/>
<feColorMatrix type="matrix" values="0 0 0 0 0.27451 0 0 0 0 0.27451 0 0 0 0 0.27451 0 0 0 0.08 0"/>
<feBlend mode="normal" in2="BackgroundImageFix" result="effect1_dropShadow_414_308"/>
<feBlend mode="normal" in="SourceGraphic" in2="effect1_dropShadow_414_308" result="shape"/>
</filter>
<filter id="filter2_d_414_308" x="-130.799" y="327.313" width="490.599" height="264.771" filterUnits="userSpaceOnUse" color-interpolation-filters="sRGB">
<feFlood flood-opacity="0" result="BackgroundImageFix"/>
<feColorMatrix in="SourceAlpha" type="matrix" values="0 0 0 0 0 0 0 0 0 0 0 0 0 0 0 0 0 0 127 0" result="hardAlpha"/>
<feOffset dy="25.6123"/>
<feGaussianBlur stdDeviation="34.1497"/>
<feComposite in2="hardAlpha" operator="out"/>
<feColorMatrix type="matrix" values="0 0 0 0 0.27451 0 0 0 0 0.27451 0 0 0 0 0.27451 0 0 0 0.08 0"/>
<feBlend mode="normal" in2="BackgroundImageFix" result="effect1_dropShadow_414_308"/>
<feBlend mode="normal" in="SourceGraphic" in2="effect1_dropShadow_414_308" result="shape"/>
</filter>
<filter id="filter3_d_414_308" x="910.143" y="115.416" width="481.713" height="255.248" filterUnits="userSpaceOnUse" color-interpolation-filters="sRGB">
<feFlood flood-opacity="0" result="BackgroundImageFix"/>
<feColorMatrix in="SourceAlpha" type="matrix" values="0 0 0 0 0 0 0 0 0 0 0 0 0 0 0 0 0 0 127 0" result="hardAlpha"/>
<feOffset dy="23.7587"/>
<feGaussianBlur stdDeviation="31.6783"/>
<feComposite in2="hardAlpha" operator="out"/>
<feColorMatrix type="matrix" values="0 0 0 0 0.27451 0 0 0 0 0.27451 0 0 0 0 0.27451 0 0 0 0.08 0"/>
<feBlend mode="normal" in2="BackgroundImageFix" result="effect1_dropShadow_414_308"/>
<feBlend mode="normal" in="SourceGraphic" in2="effect1_dropShadow_414_308" result="shape"/>
</filter>
<filter id="filter4_d_414_308" x="472.538" y="188.778" width="344.292" height="344.292" filterUnits="userSpaceOnUse" color-interpolation-filters="sRGB">
<feFlood flood-opacity="0" result="BackgroundImageFix"/>
<feColorMatrix in="SourceAlpha" type="matrix" values="0 0 0 0 0 0 0 0 0 0 0 0 0 0 0 0 0 0 127 0" result="hardAlpha"/>
<feOffset dy="17.741"/>
<feGaussianBlur stdDeviation="14.9812"/>
<feComposite in2="hardAlpha" operator="out"/>
<feColorMatrix type="matrix" values="0 0 0 0 0.541176 0 0 0 0 0.713726 0 0 0 0 0.960784 0 0 0 0.15 0"/>
<feBlend mode="normal" in2="BackgroundImageFix" result="effect1_dropShadow_414_308"/>
<feBlend mode="normal" in="SourceGraphic" in2="effect1_dropShadow_414_308" result="shape"/>
</filter>
<clipPath id="clip0_414_308">
<rect x="0.5" width="1287" height="695" rx="35.1251" fill="white"/>
</clipPath>
<clipPath id="clip1_414_308">
<rect x="-83.5" y="-187" width="1457" height="1060" rx="94.6349" fill="white"/>
</clipPath>
</defs>
</svg>
