<svg width="44" height="44" viewBox="0 0 44 44" fill="none" xmlns="http://www.w3.org/2000/svg">
<g opacity="0.28">
<path d="M35.8078 12.0404H7.13996C6.19836 12.0404 5.43506 12.8037 5.43506 13.7453V32.6798C5.43506 33.6214 6.19836 34.3847 7.13996 34.3847H35.8078C36.7494 34.3847 37.5127 33.6214 37.5127 32.6798V13.7453C37.5127 12.8037 36.7494 12.0404 35.8078 12.0404Z" fill="#ED8CC7"/>
</g>
<g opacity="0.73">
<path d="M37.612 9.0277H9.50345C8.84085 9.0277 8.30371 9.56485 8.30371 10.2275V30.1271C8.30371 30.7897 8.84085 31.3269 9.50345 31.3269H37.612C38.2746 31.3269 38.8117 30.7897 38.8117 30.1271V10.2275C38.8117 9.56485 38.2746 9.0277 37.612 9.0277Z" fill="#ED8CC7"/>
</g>
<g style="mix-blend-mode:multiply" opacity="0.62">
<path d="M9.55733 9.0277H37.6208C38.2702 9.0277 38.8025 9.55992 38.8025 10.2094V12.0316H8.29443V10.2816C8.29443 9.58699 8.85373 9.0277 9.54832 9.0277H9.55733Z" fill="#ED8CC7"/>
</g>
<g opacity="0.86">
<path d="M30.2963 17.877L24.081 14.8731C23.6931 14.6836 23.2331 14.6927 22.8542 14.9001L16.7743 18.1747C16.5217 18.31 16.5307 18.6708 16.7923 18.7881L23.0166 21.792C23.4045 21.9814 23.8645 21.9724 24.2434 21.7649L30.3143 18.4904C30.5669 18.3551 30.5579 17.9852 30.2963 17.8679V17.877Z" fill="white"/>
<path d="M28.6362 20.5287L30.2689 21.3225C30.6297 21.4579 30.5035 21.8728 30.3772 21.936L24.3152 25.2014C23.8913 25.427 23.3771 25.445 22.9441 25.2285L16.792 22.2517C16.5484 22.1344 16.5394 21.7916 16.783 21.6653L18.0639 20.9798L18.3977 20.7903L22.9621 23.1267C23.332 23.3161 23.774 23.3071 24.1348 23.0996L28.6271 20.5377L28.6362 20.5287Z" fill="white"/>
<path d="M28.6362 23.9659L30.2689 24.7597C30.6297 24.895 30.5035 25.31 30.3772 25.3731L24.3152 28.6386C23.8913 28.8641 23.3771 28.8822 22.9441 28.6657L16.792 25.6889C16.5484 25.5716 16.5394 25.2288 16.783 25.1025L18.0639 24.4169L18.3977 24.2275L23.0524 26.5278C23.3681 26.6811 23.7469 26.6811 24.0536 26.5007L28.6362 23.9659Z" fill="white"/>
</g>
</svg>
