<svg width="1288" height="695" viewBox="0 0 1288 695" fill="none" xmlns="http://www.w3.org/2000/svg">
<g clip-path="url(#clip0_414_503)">
<g filter="url(#filter0_d_414_503)">
<rect x="279.5" y="72" width="654" height="552.37" rx="27.4388" fill="white"/>
<rect x="310.539" y="103.035" width="512.029" height="489.53" rx="27.4388" fill="#E6EFFC"/>
<g filter="url(#filter1_d_414_503)">
<path d="M380.1 339.058C373.013 346.203 378.074 358.352 388.137 358.352H742.035C752.422 358.352 757.326 345.532 749.59 338.6C747.514 336.739 744.823 335.71 742.035 335.71H388.137C385.119 335.71 382.226 336.916 380.1 339.058Z" fill="white"/>
</g>
<g filter="url(#filter2_d_414_503)">
<path d="M466.31 504.296C468.955 514.006 482.006 515.697 487.037 506.982L663.986 200.498C669.18 191.502 660.53 180.846 650.658 184.079C648.009 184.947 645.772 186.762 644.378 189.177L467.429 495.661C465.92 498.275 465.517 501.383 466.31 504.296Z" fill="white"/>
</g>
<g filter="url(#filter3_d_414_503)">
<path d="M557.547 531.855C564.714 538.866 576.784 533.788 576.784 523.763L576.784 174.994C576.784 164.646 564.045 159.722 557.085 167.381C555.192 169.464 554.143 172.179 554.143 174.994L554.143 523.763C554.143 526.808 555.37 529.726 557.547 531.855Z" fill="white"/>
</g>
<g filter="url(#filter4_d_414_503)">
<path d="M730.494 448.986C740.205 446.342 741.897 433.29 733.181 428.258L426.627 251.269C417.631 246.075 406.975 254.727 410.209 264.598C411.077 267.247 412.892 269.483 415.307 270.877L721.861 447.866C724.474 449.375 727.582 449.778 730.494 448.986Z" fill="white"/>
</g>
<g filter="url(#filter5_d_414_503)">
<path d="M666.283 504.296C663.639 514.006 650.588 515.697 645.556 506.982L468.608 200.498C463.414 191.502 472.064 180.846 481.935 184.079C484.585 184.947 486.821 186.762 488.216 189.177L665.164 495.661C666.673 498.275 667.076 501.383 666.283 504.296Z" fill="white"/>
</g>
<g filter="url(#filter6_d_414_503)">
<path d="M734.493 259.563C737.178 249.803 726.684 241.695 717.918 246.756L404.497 427.71C395.45 432.933 397.702 446.578 407.948 448.617C410.642 449.153 413.439 448.691 415.818 447.318L729.238 266.364C731.816 264.876 733.704 262.433 734.493 259.563Z" fill="white"/>
</g>
<g filter="url(#filter7_d_414_503)">
<circle cx="566.419" cy="347.271" r="143.661" fill="white"/>
</g>
<path fill-rule="evenodd" clip-rule="evenodd" d="M565.878 410.024C562.927 410.106 560.059 409.86 557.109 409.449C549.159 408.3 541.702 405.755 534.818 401.568C519.574 392.373 509.822 378.991 505.806 361.422C504.905 357.481 504.495 353.458 504.495 349.435C504.413 333.344 509.658 319.223 520.312 307.236C529.573 296.892 541.046 290.57 554.568 287.943C558.338 287.204 562.108 286.794 565.878 286.958C565.878 293.115 565.878 299.191 565.878 305.348C565.714 305.43 565.55 305.512 565.386 305.676C563.173 307.236 560.961 308.878 558.83 310.602C553.995 314.543 549.405 318.73 545.553 323.738C540.39 330.388 536.948 337.695 536.457 346.315C536.211 350.42 536.703 354.443 538.014 358.302C541.21 367.907 551.126 377.841 565.058 378.088C565.878 378.088 566.042 378.252 566.042 379.155C565.96 383.342 565.96 391.716 565.96 391.716C565.96 391.716 565.96 392.209 565.96 392.455C565.878 398.284 565.878 404.113 565.878 410.024Z" fill="#0099FF"/>
<path fill-rule="evenodd" clip-rule="evenodd" d="M565.874 305.27C565.874 305.27 565.874 293.037 565.874 286.88C569.234 286.798 572.512 287.126 575.79 287.619C581.937 288.604 587.837 290.41 593.41 293.283C604.965 299.277 614.062 307.815 620.209 319.473C623.733 326.205 626.027 333.348 626.929 340.819C627.994 349.603 627.175 358.306 624.552 366.762C621.52 376.368 616.439 384.824 609.309 391.966C600.622 400.587 590.296 406.169 578.331 408.715C574.233 409.535 570.054 410.028 565.874 409.946C565.874 404.035 565.874 398.206 565.874 392.295C565.874 392.048 565.874 391.638 565.874 391.638C565.874 391.638 566.12 391.474 566.202 391.392C572.594 386.876 578.659 381.95 583.904 376.039C587.346 372.181 590.296 368.076 592.345 363.314C595.213 356.582 596.36 349.685 594.885 342.379C592.263 329.079 580.38 319.145 566.694 318.816C565.792 318.816 565.874 318.077 565.874 318.077V305.27Z" fill="#0561E2"/>
<g filter="url(#filter8_d_414_503)">
<circle cx="562.834" cy="344.463" r="96.358" fill="white"/>
<circle cx="562.834" cy="344.463" r="95.14" stroke="url(#paint0_linear_414_503)" stroke-width="2.43609"/>
</g>
<rect opacity="0.4" x="485.079" y="315.059" width="118.618" height="118.295" rx="59.1474" transform="rotate(-22.4248 485.079 315.059)" stroke="url(#paint1_linear_414_503)" stroke-width="3.59451"/>
<path fill-rule="evenodd" clip-rule="evenodd" d="M562.409 404.459C559.647 404.535 556.962 404.306 554.201 403.923C546.76 402.852 539.78 400.481 533.337 396.581C519.07 388.017 509.943 375.553 506.186 359.191C505.342 355.521 504.959 351.774 504.959 348.028C504.884 333.042 509.794 319.891 519.767 308.729C528.436 299.095 539.175 293.209 551.832 290.763C555.361 290.075 558.889 289.693 562.418 289.847C562.417 295.581 562.417 301.239 562.416 306.974C562.263 307.05 562.109 307.126 561.956 307.279C559.885 308.732 557.814 310.261 555.819 311.866C551.293 315.536 546.997 319.435 543.391 324.099C538.558 330.292 535.336 337.096 534.875 345.125C534.645 348.947 535.105 352.694 536.332 356.288C539.323 365.234 548.604 374.486 561.644 374.716C562.411 374.716 562.564 374.869 562.564 375.71C562.487 379.61 562.487 387.409 562.487 387.409C562.487 387.409 562.487 387.867 562.487 388.097C562.409 393.525 562.409 398.954 562.409 404.459Z" fill="url(#paint2_linear_414_503)"/>
<path fill-rule="evenodd" clip-rule="evenodd" d="M562.422 306.9C562.422 306.9 562.423 295.508 562.424 289.773C565.569 289.697 568.637 290.003 571.705 290.462C577.458 291.38 582.981 293.063 588.197 295.739C599.012 301.322 607.526 309.274 613.278 320.132C616.576 326.402 618.724 333.054 619.567 340.012C620.563 348.193 619.796 356.298 617.34 364.173C614.501 373.118 609.745 380.993 603.071 387.645C594.939 395.672 585.274 400.871 574.074 403.24C570.239 404.004 566.327 404.463 562.415 404.386C562.415 398.881 562.415 393.452 562.416 387.947C562.416 387.718 562.416 387.335 562.416 387.335C562.416 387.335 562.646 387.183 562.723 387.106C568.706 382.901 574.383 378.314 579.293 372.81C582.515 369.216 585.277 365.393 587.195 360.959C589.88 354.69 590.954 348.267 589.574 341.462C587.12 329.075 575.999 319.823 563.188 319.516C562.345 319.516 562.421 318.828 562.421 318.828L562.422 306.9Z" fill="url(#paint3_linear_414_503)"/>
</g>
<g filter="url(#filter9_d_414_503)">
<path d="M865.962 485.854C872.656 491.223 882.587 486.457 882.587 477.876L882.587 222.234C882.587 213.374 872.088 208.706 865.509 214.641C863.36 216.58 862.134 219.339 862.134 222.234L862.134 477.876C862.134 480.979 863.542 483.913 865.962 485.854Z" fill="white"/>
</g>
<g clip-path="url(#clip1_414_503)">
<rect x="0.5" y="-147" width="1363.53" height="992" rx="88.5639" fill="#D5E8FF"/>
<g filter="url(#filter10_d_414_503)">
<rect x="339.277" y="59.8242" width="684.564" height="578.185" rx="28.7212" fill="white"/>
<rect x="371.76" y="92.3086" width="535.958" height="512.408" rx="28.7212" fill="#E6EFFC"/>
<path d="M444.58 339.36C437.162 346.839 442.459 359.555 452.993 359.555H823.43C834.303 359.555 839.435 346.136 831.338 338.88C829.165 336.932 826.349 335.855 823.43 335.855H452.993C449.834 335.855 446.805 337.117 444.58 339.36Z" fill="white"/>
<path d="M534.81 512.32C537.577 522.484 551.239 524.255 556.505 515.132L741.724 194.324C747.16 184.908 738.106 173.754 727.773 177.138C725 178.047 722.659 179.947 721.199 182.475L535.981 503.282C534.401 506.018 533.98 509.272 534.81 512.32Z" fill="white"/>
<path d="M630.318 541.167C637.82 548.505 650.454 543.19 650.454 532.696L650.454 167.629C650.454 156.797 637.12 151.643 629.835 159.659C627.853 161.84 626.755 164.682 626.755 167.629L626.755 532.696C626.755 535.885 628.039 538.938 630.318 541.167Z" fill="white"/>
<path d="M811.344 454.429C821.508 451.662 823.28 438 814.156 432.733L493.276 247.472C483.859 242.035 472.705 251.091 476.09 261.424C476.999 264.197 478.899 266.537 481.426 267.996L802.307 453.257C805.042 454.836 808.296 455.258 811.344 454.429Z" fill="white"/>
<path d="M744.142 512.32C741.375 522.484 727.714 524.255 722.447 515.132L537.228 194.324C531.792 184.908 540.846 173.754 551.179 177.138C553.953 178.047 556.293 179.947 557.753 182.475L742.971 503.282C744.551 506.018 744.972 509.272 744.142 512.32Z" fill="white"/>
<path d="M815.546 256.154C818.356 245.938 807.371 237.451 798.195 242.748L470.127 432.159C460.658 437.626 463.015 451.909 473.74 454.043C476.56 454.604 479.487 454.121 481.977 452.683L810.045 263.273C812.743 261.715 814.719 259.158 815.546 256.154Z" fill="white"/>
<g filter="url(#filter11_d_414_503)">
<circle cx="639.597" cy="347.957" r="150.375" fill="white"/>
</g>
<path fill-rule="evenodd" clip-rule="evenodd" d="M639.03 413.645C635.942 413.731 632.939 413.473 629.851 413.044C621.53 411.84 613.724 409.176 606.518 404.794C590.562 395.169 580.354 381.161 576.151 362.771C575.207 358.646 574.778 354.435 574.778 350.224C574.693 333.381 580.183 318.6 591.335 306.053C601.028 295.225 613.038 288.608 627.192 285.858C631.138 285.084 635.084 284.655 639.03 284.827C639.03 291.272 639.03 297.631 639.03 304.076C638.858 304.162 638.687 304.248 638.515 304.42C636.199 306.053 633.883 307.772 631.653 309.576C626.591 313.701 621.788 318.084 617.756 323.326C612.351 330.287 608.749 337.935 608.234 346.959C607.976 351.255 608.491 355.466 609.864 359.505C613.209 369.56 623.589 379.958 638.172 380.216C639.03 380.216 639.202 380.388 639.202 381.333C639.116 385.716 639.116 394.481 639.116 394.481C639.116 394.481 639.116 394.997 639.116 395.255C639.03 401.356 639.03 407.458 639.03 413.645Z" fill="#0099FF"/>
<path fill-rule="evenodd" clip-rule="evenodd" d="M639.026 303.993C639.026 303.993 639.026 291.189 639.026 284.744C642.544 284.658 645.975 285.001 649.406 285.517C655.84 286.548 662.016 288.439 667.85 291.447C679.945 297.72 689.467 306.657 695.901 318.86C699.589 325.907 701.991 333.384 702.935 341.204C704.05 350.399 703.192 359.508 700.447 368.36C697.273 378.414 691.955 387.266 684.492 394.742C675.399 403.765 664.59 409.609 652.065 412.273C647.776 413.132 643.401 413.648 639.026 413.562C639.026 407.375 639.026 401.273 639.026 395.086C639.026 394.828 639.026 394.398 639.026 394.398C639.026 394.398 639.284 394.226 639.37 394.14C646.061 389.414 652.409 384.258 657.899 378.07C661.502 374.031 664.59 369.735 666.734 364.75C669.737 357.704 670.938 350.485 669.394 342.837C666.649 328.915 654.21 318.517 639.884 318.173C638.941 318.173 639.026 317.399 639.026 317.399V303.993Z" fill="#0561E2"/>
<g filter="url(#filter12_d_414_503)">
<circle cx="635.841" cy="345.021" r="100.861" fill="white"/>
<circle cx="635.841" cy="345.021" r="99.5863" stroke="url(#paint4_linear_414_503)" stroke-width="2.54994"/>
</g>
<rect opacity="0.4" x="554.449" y="314.24" width="124.163" height="123.824" rx="61.912" transform="rotate(-22.4248 554.449 314.24)" stroke="url(#paint5_linear_414_503)" stroke-width="3.7625"/>
<path fill-rule="evenodd" clip-rule="evenodd" d="M635.405 407.822C632.515 407.902 629.704 407.661 626.814 407.261C619.026 406.14 611.719 403.658 604.975 399.576C590.041 390.611 580.487 377.565 576.554 360.438C575.671 356.596 575.27 352.674 575.271 348.753C575.191 333.066 580.331 319.301 590.77 307.617C599.844 297.533 611.086 291.372 624.334 288.812C628.028 288.092 631.721 287.692 635.415 287.852C635.414 293.855 635.414 299.777 635.413 305.78C635.253 305.86 635.092 305.94 634.931 306.1C632.763 307.62 630.595 309.221 628.508 310.901C623.77 314.742 619.273 318.824 615.499 323.706C610.44 330.188 607.067 337.31 606.585 345.714C606.344 349.716 606.825 353.637 608.11 357.399C611.24 366.763 620.955 376.448 634.605 376.689C635.408 376.689 635.568 376.849 635.568 377.729C635.487 381.811 635.487 389.974 635.487 389.974C635.487 389.974 635.487 390.455 635.487 390.695C635.406 396.377 635.406 402.059 635.405 407.822Z" fill="url(#paint6_linear_414_503)"/>
<path fill-rule="evenodd" clip-rule="evenodd" d="M635.411 305.701C635.411 305.701 635.412 293.776 635.412 287.774C638.704 287.694 641.916 288.015 645.127 288.495C651.149 289.456 656.93 291.217 662.39 294.019C673.711 299.862 682.623 308.186 688.644 319.551C692.096 326.114 694.343 333.077 695.226 340.36C696.269 348.924 695.466 357.408 692.896 365.651C689.924 375.014 684.945 383.257 677.959 390.22C669.447 398.622 659.33 404.064 647.607 406.544C643.592 407.344 639.497 407.824 635.403 407.744C635.403 401.981 635.403 396.299 635.404 390.536C635.404 390.296 635.404 389.896 635.404 389.896C635.404 389.896 635.645 389.736 635.725 389.656C641.988 385.255 647.93 380.453 653.07 374.691C656.442 370.93 659.333 366.929 661.341 362.287C664.151 355.724 665.276 349.002 663.831 341.879C661.263 328.913 649.621 319.228 636.213 318.907C635.329 318.907 635.41 318.187 635.41 318.187L635.411 305.701Z" fill="url(#paint7_linear_414_503)"/>
</g>
<g filter="url(#filter13_d_414_503)">
<path d="M953.142 493.016C960.149 498.636 970.544 493.647 970.544 484.665L970.544 217.076C970.544 207.802 959.554 202.916 952.668 209.128C950.419 211.158 949.135 214.046 949.135 217.076L949.135 484.665C949.135 487.913 950.609 490.984 953.142 493.016Z" fill="white"/>
</g>
<path d="M164 328V107.613C164 98.99 157.01 92 148.387 92H-197" stroke="url(#paint8_linear_414_503)" stroke-width="21.5245"/>
<path d="M339.453 331.251H88.395M-145.163 331.251H88.395M88.395 331.251V531.618C88.395 540.24 81.405 547.23 72.7823 547.23H-145.163" stroke="url(#paint9_linear_414_503)" stroke-width="21.5245"/>
<path d="M259.831 331.219L259.831 552.466L259.831 726.553C259.831 735.176 252.841 742.166 244.218 742.166L-1.37111 742.166" stroke="url(#paint10_linear_414_503)" stroke-width="21.5245"/>
<path d="M1112.29 352.867L1112.29 82.0949C1112.29 73.4723 1119.28 66.4822 1127.9 66.4822L1282.15 66.4822C1290.77 66.4822 1297.76 59.4922 1297.76 50.8695L1297.76 -258.369" stroke="url(#paint11_linear_414_503)" stroke-width="21.5245"/>
<path d="M1217.08 64.4822C1217.69 64.9557 1217.69 65.8743 1217.08 66.3479L1188.95 88.2786C1188.17 88.884 1187.04 88.3305 1187.04 87.3457L1187.04 43.4841C1187.04 42.4993 1188.17 41.9458 1188.95 42.5513L1217.08 64.4822Z" fill="#B4D0F6"/>
<path d="M1183.24 352.713V583.52C1183.24 592.143 1190.23 599.133 1198.85 599.133H1541.12" stroke="url(#paint12_linear_414_503)" stroke-width="21.5245"/>
<path d="M1023.38 352.713H1233.45M1491.67 352.713H1233.45M1233.45 352.713V204.523C1233.45 195.9 1240.44 188.91 1249.07 188.91H1448.35" stroke="url(#paint13_linear_414_503)" stroke-width="21.5245"/>
<path d="M260.662 498.944C260.189 499.551 259.27 499.551 258.797 498.944L236.866 470.809C236.261 470.033 236.814 468.899 237.799 468.899L281.66 468.899C282.645 468.899 283.199 470.033 282.593 470.809L260.662 498.944Z" fill="#B4D0F6"/>
</g>
</g>
<defs>
<filter id="filter0_d_414_503" x="251.636" y="60.6345" width="709.728" height="608.099" filterUnits="userSpaceOnUse" color-interpolation-filters="sRGB">
<feFlood flood-opacity="0" result="BackgroundImageFix"/>
<feColorMatrix in="SourceAlpha" type="matrix" values="0 0 0 0 0 0 0 0 0 0 0 0 0 0 0 0 0 0 127 0" result="hardAlpha"/>
<feOffset dy="16.4983"/>
<feGaussianBlur stdDeviation="13.9319"/>
<feComposite in2="hardAlpha" operator="out"/>
<feColorMatrix type="matrix" values="0 0 0 0 0.541176 0 0 0 0 0.713726 0 0 0 0 0.960784 0 0 0 0.15 0"/>
<feBlend mode="normal" in2="BackgroundImageFix" result="effect1_dropShadow_414_503"/>
<feBlend mode="normal" in="SourceGraphic" in2="effect1_dropShadow_414_503" result="shape"/>
</filter>
<filter id="filter1_d_414_503" x="371.7" y="319.645" width="414.987" height="61.0428" filterUnits="userSpaceOnUse" color-interpolation-filters="sRGB">
<feFlood flood-opacity="0" result="BackgroundImageFix"/>
<feColorMatrix in="SourceAlpha" type="matrix" values="0 0 0 0 0 0 0 0 0 0 0 0 0 0 0 0 0 0 127 0" result="hardAlpha"/>
<feOffset dx="14.1069" dy="3.13487"/>
<feGaussianBlur stdDeviation="9.60054"/>
<feComposite in2="hardAlpha" operator="out"/>
<feColorMatrix type="matrix" values="0 0 0 0 0.541176 0 0 0 0 0.713726 0 0 0 0 0.960784 0 0 0 0.36 0"/>
<feBlend mode="normal" in2="BackgroundImageFix" result="effect1_dropShadow_414_503"/>
<feBlend mode="normal" in="SourceGraphic" in2="effect1_dropShadow_414_503" result="shape"/>
</filter>
<filter id="filter2_d_414_503" x="435.651" y="171.145" width="260.154" height="389.68" filterUnits="userSpaceOnUse" color-interpolation-filters="sRGB">
<feFlood flood-opacity="0" result="BackgroundImageFix"/>
<feColorMatrix in="SourceAlpha" type="matrix" values="0 0 0 0 0 0 0 0 0 0 0 0 0 0 0 0 0 0 127 0" result="hardAlpha"/>
<feOffset dy="17.9181"/>
<feGaussianBlur stdDeviation="15.1309"/>
<feComposite in2="hardAlpha" operator="out"/>
<feColorMatrix type="matrix" values="0 0 0 0 0.541176 0 0 0 0 0.713726 0 0 0 0 0.960784 0 0 0 0.35 0"/>
<feBlend mode="normal" in2="BackgroundImageFix" result="effect1_dropShadow_414_503"/>
<feBlend mode="normal" in="SourceGraphic" in2="effect1_dropShadow_414_503" result="shape"/>
</filter>
<filter id="filter3_d_414_503" x="523.881" y="151.309" width="83.1651" height="431.977" filterUnits="userSpaceOnUse" color-interpolation-filters="sRGB">
<feFlood flood-opacity="0" result="BackgroundImageFix"/>
<feColorMatrix in="SourceAlpha" type="matrix" values="0 0 0 0 0 0 0 0 0 0 0 0 0 0 0 0 0 0 127 0" result="hardAlpha"/>
<feOffset dy="17.9181"/>
<feGaussianBlur stdDeviation="15.1309"/>
<feComposite in2="hardAlpha" operator="out"/>
<feColorMatrix type="matrix" values="0 0 0 0 0.541176 0 0 0 0 0.713726 0 0 0 0 0.960784 0 0 0 0.35 0"/>
<feBlend mode="normal" in2="BackgroundImageFix" result="effect1_dropShadow_414_503"/>
<feBlend mode="normal" in="SourceGraphic" in2="effect1_dropShadow_414_503" result="shape"/>
</filter>
<filter id="filter4_d_414_503" x="379.355" y="237.367" width="389.751" height="260.195" filterUnits="userSpaceOnUse" color-interpolation-filters="sRGB">
<feFlood flood-opacity="0" result="BackgroundImageFix"/>
<feColorMatrix in="SourceAlpha" type="matrix" values="0 0 0 0 0 0 0 0 0 0 0 0 0 0 0 0 0 0 127 0" result="hardAlpha"/>
<feOffset dy="17.9181"/>
<feGaussianBlur stdDeviation="15.1309"/>
<feComposite in2="hardAlpha" operator="out"/>
<feColorMatrix type="matrix" values="0 0 0 0 0.541176 0 0 0 0 0.713726 0 0 0 0 0.960784 0 0 0 0.35 0"/>
<feBlend mode="normal" in2="BackgroundImageFix" result="effect1_dropShadow_414_503"/>
<feBlend mode="normal" in="SourceGraphic" in2="effect1_dropShadow_414_503" result="shape"/>
</filter>
<filter id="filter5_d_414_503" x="436.788" y="171.145" width="260.154" height="389.68" filterUnits="userSpaceOnUse" color-interpolation-filters="sRGB">
<feFlood flood-opacity="0" result="BackgroundImageFix"/>
<feColorMatrix in="SourceAlpha" type="matrix" values="0 0 0 0 0 0 0 0 0 0 0 0 0 0 0 0 0 0 127 0" result="hardAlpha"/>
<feOffset dy="17.9181"/>
<feGaussianBlur stdDeviation="15.1309"/>
<feComposite in2="hardAlpha" operator="out"/>
<feColorMatrix type="matrix" values="0 0 0 0 0.541176 0 0 0 0 0.713726 0 0 0 0 0.960784 0 0 0 0.35 0"/>
<feBlend mode="normal" in2="BackgroundImageFix" result="effect1_dropShadow_414_503"/>
<feBlend mode="normal" in="SourceGraphic" in2="effect1_dropShadow_414_503" result="shape"/>
</filter>
<filter id="filter6_d_414_503" x="368.569" y="232.86" width="396.613" height="264.156" filterUnits="userSpaceOnUse" color-interpolation-filters="sRGB">
<feFlood flood-opacity="0" result="BackgroundImageFix"/>
<feColorMatrix in="SourceAlpha" type="matrix" values="0 0 0 0 0 0 0 0 0 0 0 0 0 0 0 0 0 0 127 0" result="hardAlpha"/>
<feOffset dy="17.9181"/>
<feGaussianBlur stdDeviation="15.1309"/>
<feComposite in2="hardAlpha" operator="out"/>
<feColorMatrix type="matrix" values="0 0 0 0 0.541176 0 0 0 0 0.713726 0 0 0 0 0.960784 0 0 0 0.35 0"/>
<feBlend mode="normal" in2="BackgroundImageFix" result="effect1_dropShadow_414_503"/>
<feBlend mode="normal" in="SourceGraphic" in2="effect1_dropShadow_414_503" result="shape"/>
</filter>
<filter id="filter7_d_414_503" x="399.251" y="183.982" width="331.234" height="331.235" filterUnits="userSpaceOnUse" color-interpolation-filters="sRGB">
<feFlood flood-opacity="0" result="BackgroundImageFix"/>
<feColorMatrix in="SourceAlpha" type="matrix" values="0 0 0 0 0 0 0 0 0 0 0 0 0 0 0 0 0 0 127 0" result="hardAlpha"/>
<feMorphology radius="9.30961" operator="dilate" in="SourceAlpha" result="effect1_dropShadow_414_503"/>
<feOffset dx="-1.5516" dy="2.3274"/>
<feGaussianBlur stdDeviation="6.32278"/>
<feComposite in2="hardAlpha" operator="out"/>
<feColorMatrix type="matrix" values="0 0 0 0 0.541176 0 0 0 0 0.713726 0 0 0 0 0.960784 0 0 0 0.15 0"/>
<feBlend mode="normal" in2="BackgroundImageFix" result="effect1_dropShadow_414_503"/>
<feBlend mode="normal" in="SourceGraphic" in2="effect1_dropShadow_414_503" result="shape"/>
</filter>
<filter id="filter8_d_414_503" x="419.593" y="215.874" width="286.481" height="286.48" filterUnits="userSpaceOnUse" color-interpolation-filters="sRGB">
<feFlood flood-opacity="0" result="BackgroundImageFix"/>
<feColorMatrix in="SourceAlpha" type="matrix" values="0 0 0 0 0 0 0 0 0 0 0 0 0 0 0 0 0 0 127 0" result="hardAlpha"/>
<feOffset dy="14.6508"/>
<feGaussianBlur stdDeviation="23.4412"/>
<feComposite in2="hardAlpha" operator="out"/>
<feColorMatrix type="matrix" values="0 0 0 0 0.800812 0 0 0 0 0.865865 0 0 0 0 0.959831 0 0 0 1 0"/>
<feBlend mode="normal" in2="BackgroundImageFix" result="effect1_dropShadow_414_503"/>
<feBlend mode="normal" in="SourceGraphic" in2="effect1_dropShadow_414_503" result="shape"/>
</filter>
<filter id="filter9_d_414_503" x="847.116" y="207.831" width="55.1442" height="310.824" filterUnits="userSpaceOnUse" color-interpolation-filters="sRGB">
<feFlood flood-opacity="0" result="BackgroundImageFix"/>
<feColorMatrix in="SourceAlpha" type="matrix" values="0 0 0 0 0 0 0 0 0 0 0 0 0 0 0 0 0 0 127 0" result="hardAlpha"/>
<feOffset dx="2.3274" dy="13.1886"/>
<feGaussianBlur stdDeviation="8.67276"/>
<feComposite in2="hardAlpha" operator="out"/>
<feColorMatrix type="matrix" values="0 0 0 0 0.541176 0 0 0 0 0.713726 0 0 0 0 0.960784 0 0 0 0.36 0"/>
<feBlend mode="normal" in2="BackgroundImageFix" result="effect1_dropShadow_414_503"/>
<feBlend mode="normal" in="SourceGraphic" in2="effect1_dropShadow_414_503" result="shape"/>
</filter>
<filter id="filter10_d_414_503" x="310.111" y="47.9276" width="742.896" height="636.516" filterUnits="userSpaceOnUse" color-interpolation-filters="sRGB">
<feFlood flood-opacity="0" result="BackgroundImageFix"/>
<feColorMatrix in="SourceAlpha" type="matrix" values="0 0 0 0 0 0 0 0 0 0 0 0 0 0 0 0 0 0 127 0" result="hardAlpha"/>
<feOffset dy="17.2694"/>
<feGaussianBlur stdDeviation="14.583"/>
<feComposite in2="hardAlpha" operator="out"/>
<feColorMatrix type="matrix" values="0 0 0 0 0.541176 0 0 0 0 0.713726 0 0 0 0 0.960784 0 0 0 0.15 0"/>
<feBlend mode="normal" in2="BackgroundImageFix" result="effect1_dropShadow_414_503"/>
<feBlend mode="normal" in="SourceGraphic" in2="effect1_dropShadow_414_503" result="shape"/>
</filter>
<filter id="filter11_d_414_503" x="464.616" y="177.037" width="346.713" height="346.712" filterUnits="userSpaceOnUse" color-interpolation-filters="sRGB">
<feFlood flood-opacity="0" result="BackgroundImageFix"/>
<feColorMatrix in="SourceAlpha" type="matrix" values="0 0 0 0 0 0 0 0 0 0 0 0 0 0 0 0 0 0 127 0" result="hardAlpha"/>
<feMorphology radius="9.74469" operator="dilate" in="SourceAlpha" result="effect1_dropShadow_414_503"/>
<feOffset dx="-1.62411" dy="2.43617"/>
<feGaussianBlur stdDeviation="6.61827"/>
<feComposite in2="hardAlpha" operator="out"/>
<feColorMatrix type="matrix" values="0 0 0 0 0.541176 0 0 0 0 0.713726 0 0 0 0 0.960784 0 0 0 0.15 0"/>
<feBlend mode="normal" in2="BackgroundImageFix" result="effect1_dropShadow_414_503"/>
<feBlend mode="normal" in="SourceGraphic" in2="effect1_dropShadow_414_503" result="shape"/>
</filter>
<filter id="filter12_d_414_503" x="485.906" y="210.422" width="299.87" height="299.87" filterUnits="userSpaceOnUse" color-interpolation-filters="sRGB">
<feFlood flood-opacity="0" result="BackgroundImageFix"/>
<feColorMatrix in="SourceAlpha" type="matrix" values="0 0 0 0 0 0 0 0 0 0 0 0 0 0 0 0 0 0 127 0" result="hardAlpha"/>
<feOffset dy="15.3355"/>
<feGaussianBlur stdDeviation="24.5367"/>
<feComposite in2="hardAlpha" operator="out"/>
<feColorMatrix type="matrix" values="0 0 0 0 0.800812 0 0 0 0 0.865865 0 0 0 0 0.959831 0 0 0 1 0"/>
<feBlend mode="normal" in2="BackgroundImageFix" result="effect1_dropShadow_414_503"/>
<feBlend mode="normal" in="SourceGraphic" in2="effect1_dropShadow_414_503" result="shape"/>
</filter>
<filter id="filter13_d_414_503" x="933.415" y="202" width="57.7215" height="325.351" filterUnits="userSpaceOnUse" color-interpolation-filters="sRGB">
<feFlood flood-opacity="0" result="BackgroundImageFix"/>
<feColorMatrix in="SourceAlpha" type="matrix" values="0 0 0 0 0 0 0 0 0 0 0 0 0 0 0 0 0 0 127 0" result="hardAlpha"/>
<feOffset dx="2.43617" dy="13.805"/>
<feGaussianBlur stdDeviation="9.07807"/>
<feComposite in2="hardAlpha" operator="out"/>
<feColorMatrix type="matrix" values="0 0 0 0 0.541176 0 0 0 0 0.713726 0 0 0 0 0.960784 0 0 0 0.36 0"/>
<feBlend mode="normal" in2="BackgroundImageFix" result="effect1_dropShadow_414_503"/>
<feBlend mode="normal" in="SourceGraphic" in2="effect1_dropShadow_414_503" result="shape"/>
</filter>
<linearGradient id="paint0_linear_414_503" x1="565.748" y1="245.389" x2="563.312" y2="534.674" gradientUnits="userSpaceOnUse">
<stop stop-color="white"/>
<stop offset="1" stop-color="white" stop-opacity="0"/>
</linearGradient>
<linearGradient id="paint1_linear_414_503" x1="548.532" y1="289.076" x2="544.938" y2="430.735" gradientUnits="userSpaceOnUse">
<stop stop-color="#999999"/>
<stop offset="1" stop-color="white"/>
</linearGradient>
<linearGradient id="paint2_linear_414_503" x1="523.808" y1="280.372" x2="560.713" y2="395.857" gradientUnits="userSpaceOnUse">
<stop stop-color="#2298E7"/>
<stop offset="1" stop-color="#0561E2"/>
</linearGradient>
<linearGradient id="paint3_linear_414_503" x1="581.255" y1="280.327" x2="618.162" y2="395.777" gradientUnits="userSpaceOnUse">
<stop stop-color="#0561E2"/>
<stop offset="1" stop-color="#2298E7"/>
</linearGradient>
<linearGradient id="paint4_linear_414_503" x1="638.891" y1="241.317" x2="636.342" y2="544.122" gradientUnits="userSpaceOnUse">
<stop stop-color="white"/>
<stop offset="1" stop-color="white" stop-opacity="0"/>
</linearGradient>
<linearGradient id="paint5_linear_414_503" x1="620.868" y1="287.043" x2="617.105" y2="435.323" gradientUnits="userSpaceOnUse">
<stop stop-color="#999999"/>
<stop offset="1" stop-color="white"/>
</linearGradient>
<linearGradient id="paint6_linear_414_503" x1="595" y1="277.935" x2="633.63" y2="398.818" gradientUnits="userSpaceOnUse">
<stop stop-color="#2298E7"/>
<stop offset="1" stop-color="#0561E2"/>
</linearGradient>
<linearGradient id="paint7_linear_414_503" x1="655.124" y1="277.886" x2="693.756" y2="398.732" gradientUnits="userSpaceOnUse">
<stop stop-color="#0561E2"/>
<stop offset="1" stop-color="#2298E7"/>
</linearGradient>
<linearGradient id="paint8_linear_414_503" x1="64.8653" y1="338.073" x2="-55.4691" y2="26.8162" gradientUnits="userSpaceOnUse">
<stop stop-color="#9BC0F3"/>
<stop offset="1" stop-color="#B4D0F6" stop-opacity="0"/>
</linearGradient>
<linearGradient id="paint9_linear_414_503" x1="186.697" y1="331.103" x2="-52.35" y2="331.103" gradientUnits="userSpaceOnUse">
<stop stop-color="#B4D0F6"/>
<stop offset="1" stop-color="#D5E6FB" stop-opacity="0"/>
</linearGradient>
<linearGradient id="paint10_linear_414_503" x1="258.665" y1="440.805" x2="43.0392" y2="632.951" gradientUnits="userSpaceOnUse">
<stop stop-color="#B4D0F6"/>
<stop offset="1" stop-color="#D5E6FB" stop-opacity="0"/>
</linearGradient>
<linearGradient id="paint11_linear_414_503" x1="1112.18" y1="153.482" x2="1112.18" y2="-158.533" gradientUnits="userSpaceOnUse">
<stop stop-color="#B4D0F6"/>
<stop offset="1" stop-color="#D5E6FB" stop-opacity="0"/>
</linearGradient>
<linearGradient id="paint12_linear_414_503" x1="1362.18" y1="599.133" x2="1362.18" y2="352.713" gradientUnits="userSpaceOnUse">
<stop stop-color="#B4D0F6" stop-opacity="0.2"/>
<stop offset="1" stop-color="#B4D0F6"/>
</linearGradient>
<linearGradient id="paint13_linear_414_503" x1="1257.53" y1="148.91" x2="1257.53" y2="352.713" gradientUnits="userSpaceOnUse">
<stop stop-color="#B4D0F6" stop-opacity="0.2"/>
<stop offset="1" stop-color="#B4D0F6"/>
</linearGradient>
<clipPath id="clip0_414_503">
<rect x="0.5" width="1287" height="695" rx="35.1251" fill="white"/>
</clipPath>
<clipPath id="clip1_414_503">
<rect x="0.5" y="-147" width="1363.53" height="992" rx="88.5639" fill="white"/>
</clipPath>
</defs>
</svg>
