<svg width="720" height="327" viewBox="0 0 720 327" fill="none" xmlns="http://www.w3.org/2000/svg">
<g clip-path="url(#clip0_3171_19052)">
<path d="M384 160H866" stroke="#006DF9" stroke-width="2" stroke-miterlimit="10"/>
<path d="M87.4081 174.495H97.6981C98.6755 174.495 99.6122 174.107 100.302 173.417L107.578 166.145C108.268 165.455 108.656 164.519 108.656 163.542V153.257C108.656 152.28 108.268 151.344 107.578 150.655L100.302 143.382C99.6122 142.693 98.6755 142.305 97.6981 142.305H87.4081C86.4307 142.305 85.494 142.693 84.8044 143.382L77.5281 150.655C76.8384 151.344 76.4502 152.28 76.4502 153.257V163.542C76.4502 164.519 76.8384 165.455 77.5281 166.145L84.8044 173.417C85.494 174.107 86.4307 174.495 87.4081 174.495Z" fill="#32AA52"/>
<path d="M99.4384 165.222H99.0719C95.564 165.222 92.0589 165.225 88.5511 165.222C87.7176 165.222 86.9899 164.937 86.417 164.316C86.0342 163.903 85.8089 163.417 85.722 162.856C85.6731 162.533 85.6704 162.212 85.6704 161.889C85.6704 161.132 85.6704 160.378 85.6704 159.621C85.6704 159.143 85.7383 158.676 85.9338 158.24C86.2134 157.615 86.6723 157.154 87.294 156.872C87.7393 156.668 88.2144 156.592 88.7085 156.598C89.4986 156.611 90.2887 156.6 91.0788 156.6H91.3883C91.4942 156.706 91.4562 156.82 91.4562 156.923C91.4562 158.231 91.4589 159.537 91.4562 160.845C91.4562 161.056 91.5023 161.244 91.6191 161.423C91.7358 161.602 91.9069 161.705 92.0996 161.71C92.6264 161.729 93.1558 161.716 93.7015 161.716C93.7097 161.621 93.7232 161.55 93.7232 161.477C93.7232 159.567 93.7232 157.653 93.7287 155.743C93.7287 155.496 93.6554 155.303 93.4707 155.143C93.3513 155.04 93.2237 154.972 93.0608 154.978C92.963 154.98 92.8653 154.978 92.7675 154.978C90.6254 154.978 88.4805 154.978 86.3383 154.978H85.9935C85.9745 154.956 85.9663 154.948 85.9582 154.94C85.9528 154.932 85.9392 154.923 85.9392 154.915C85.9338 153.835 85.9283 152.755 85.9256 151.678C85.9256 151.626 85.9365 151.575 85.9419 151.504C86.0342 151.496 86.1184 151.482 86.1998 151.482C89.686 151.482 93.1694 151.474 96.6555 151.485C98.0537 151.491 99.1832 152.489 99.3787 153.781C99.4085 153.971 99.4357 154.164 99.4357 154.356C99.4384 157.854 99.4357 161.355 99.4357 164.853V165.219L99.4384 165.222Z" fill="#FBFDFE"/>
<path d="M89.4919 42.8533L76.6867 55.6522C74.9966 57.3415 74.9966 60.0804 76.6867 61.7696L89.4919 74.5686C91.182 76.2578 93.9222 76.2578 95.6123 74.5686L108.418 61.7696C110.108 60.0804 110.108 57.3415 108.418 55.6522L95.6123 42.8533C93.9222 41.1641 91.182 41.1641 89.4919 42.8533Z" fill="#0759A6"/>
<path d="M101.586 61.9438C101.119 62.4322 100.649 62.918 100.182 63.4064C99.6988 63.9139 99.2156 64.4214 98.7323 64.9288C98.2436 65.4417 97.7576 65.9546 97.2689 66.4648C97.0625 66.6819 96.8589 66.9017 96.6498 67.1161C96.6064 67.1622 96.5575 67.2002 96.4924 67.2599C96.4734 67.1975 96.4543 67.1595 96.4516 67.1215C96.4462 67.0699 96.4516 67.0184 96.4516 66.9695C96.4516 63.2545 96.4516 59.5394 96.4516 55.8244C96.4516 55.7999 96.4516 55.7728 96.4516 55.7484C96.4516 55.4933 96.4652 55.4824 96.7259 55.4824C98.0155 55.4824 99.3051 55.4824 100.598 55.4824C100.763 55.4824 100.929 55.4987 101.092 55.5231C101.265 55.5476 101.39 55.6588 101.493 55.7972C101.529 55.8433 101.556 55.8922 101.588 55.941V61.9465L101.586 61.9438Z" fill="#FBFDFE"/>
<path d="M95.797 49.7051C96.1527 50.0416 96.5111 50.3754 96.8667 50.7146C97.5184 51.3333 98.1645 51.9575 98.8162 52.5762C99.2913 53.0294 99.7691 53.4771 100.247 53.9276C100.502 54.1691 100.757 54.4079 101.01 54.6522C101.053 54.6929 101.091 54.7417 101.162 54.8177C101.059 54.8231 100.999 54.8313 100.939 54.8313C97.16 54.8313 93.3806 54.8313 89.6013 54.8313C89.3624 54.8313 89.3569 54.8231 89.3569 54.5816C89.3569 53.2193 89.3678 51.8543 89.3488 50.4921C89.3434 50.1067 89.4791 49.857 89.8212 49.7051H95.8025H95.797Z" fill="#FBFDFE"/>
<path d="M84.0029 62.5933H95.5147C95.5527 62.5933 95.5907 62.5933 95.6287 62.5933C95.7536 62.5852 95.8025 62.6503 95.7943 62.767C95.7943 62.805 95.7943 62.843 95.7943 62.881C95.7943 64.2134 95.7943 65.5458 95.7943 66.8783C95.7943 66.9597 95.7943 67.0438 95.778 67.1252C95.7102 67.5051 95.4631 67.7195 95.0748 67.7195C93.215 67.7195 91.3579 67.7195 89.4981 67.7195C89.3895 67.7195 89.3054 67.6897 89.2239 67.611C88.6863 67.0954 88.1433 66.5825 87.603 66.0696C87.0817 65.573 86.5577 65.0791 86.0337 64.5825C85.5532 64.1266 85.0699 63.6707 84.5893 63.2175C84.4264 63.0655 84.2608 62.9135 84.0979 62.7616C84.0572 62.7236 84.0219 62.6802 83.9839 62.6367C83.9893 62.6205 83.9947 62.6042 84.0002 62.5879L84.0029 62.5933Z" fill="#FBFDFE"/>
<path d="M88.6675 50.1772V50.3834C88.6675 54.1284 88.6675 57.876 88.6675 61.6209C88.6675 61.6643 88.6675 61.7104 88.6675 61.7539C88.6675 61.8543 88.624 61.9085 88.5182 61.9058C88.4747 61.9058 88.4286 61.9058 88.3851 61.9058C87.0059 61.9058 85.6266 61.895 84.2474 61.914C83.8021 61.9194 83.5198 61.5938 83.5225 61.1921C83.5361 59.3902 83.5333 57.5856 83.5225 55.7837C83.5225 55.5585 83.5985 55.3957 83.7451 55.2437C83.9976 54.9832 84.2447 54.7172 84.4972 54.4567C84.8909 54.0469 85.2873 53.6426 85.6809 53.2328C86.2104 52.6819 86.7371 52.1284 87.2638 51.5748C87.6765 51.1406 88.0865 50.7037 88.4992 50.2695C88.5372 50.2288 88.5806 50.1962 88.624 50.1582L88.6702 50.1772H88.6675Z" fill="#FBFDFE"/>
<path d="M100.853 245.336H84.2533C80.2512 245.336 77.0068 248.579 77.0068 252.579V269.17C77.0068 273.171 80.2512 276.413 84.2533 276.413H100.853C104.855 276.413 108.1 273.171 108.1 269.17V252.579C108.1 248.579 104.855 245.336 100.853 245.336Z" fill="#6772E5"/>
<path d="M96.2863 260.606C95.7324 260.156 95.0971 259.852 94.4346 259.605C93.8101 259.371 93.1802 259.16 92.5585 258.926C92.2571 258.812 91.9639 258.674 91.7358 258.43C91.5431 258.223 91.4861 257.982 91.5512 257.711C91.6408 257.336 91.9286 257.195 92.2653 257.122C92.7051 257.024 93.1531 257.051 93.5956 257.1C94.6952 257.219 95.746 257.518 96.7342 258.017C96.7723 258.036 96.813 258.047 96.8754 258.074V257.895C96.8754 256.761 96.8754 255.626 96.8781 254.492C96.8781 254.348 96.8293 254.286 96.6989 254.24C95.2898 253.716 93.8319 253.504 92.3332 253.591C91.5295 253.637 90.7503 253.792 90.0145 254.126C88.7466 254.698 87.8968 255.629 87.5764 257.002C87.5139 257.271 87.4868 257.55 87.4434 257.825V258.381C87.4515 258.424 87.4651 258.465 87.4678 258.508C87.5438 259.472 87.9619 260.256 88.7004 260.872C89.2733 261.347 89.9358 261.662 90.6227 261.928C91.2417 262.169 91.8689 262.394 92.4879 262.641C92.792 262.764 93.0798 262.924 93.3106 263.165C93.7233 263.602 93.6065 264.272 93.0689 264.533C92.9603 264.584 92.8409 264.628 92.7241 264.652C92.1703 264.766 91.6137 264.728 91.0598 264.639C89.9249 264.454 88.8552 264.066 87.8343 263.545C87.7746 263.515 87.7149 263.491 87.6334 263.455C87.628 263.526 87.6226 263.575 87.6226 263.621C87.6226 264.78 87.6226 265.939 87.6198 267.097C87.6198 267.225 87.666 267.287 87.7827 267.333C89.3765 267.982 91.0272 268.278 92.7486 268.156C93.5658 268.096 94.3559 267.928 95.1052 267.588C96.0283 267.171 96.7695 266.546 97.2257 265.624C97.6003 264.864 97.7171 264.055 97.6438 263.214C97.5515 262.158 97.1171 261.282 96.289 260.609L96.2863 260.606Z" fill="white"/>
<path d="M153.145 191.105L139.947 198.723C139.295 199.1 138.891 199.794 138.891 200.549V215.784C138.891 216.538 139.292 217.233 139.947 217.61L153.145 225.227C153.796 225.604 154.603 225.604 155.254 225.227L168.452 217.61C169.104 217.233 169.508 216.538 169.508 215.784V200.549C169.508 199.794 169.106 199.1 168.452 198.723L155.254 191.105C154.603 190.728 153.796 190.728 153.145 191.105Z" fill="#FFB3C7"/>
<path d="M161.122 215.596C161.027 215.604 160.932 215.618 160.837 215.618C159.596 215.618 158.358 215.615 157.117 215.623C156.911 215.623 156.772 215.558 156.653 215.392C154.988 213.097 153.319 210.804 151.652 208.51C151.622 208.467 151.6 208.418 151.557 208.337C151.684 208.234 151.806 208.136 151.931 208.033C152.594 207.49 153.302 206.993 153.913 206.394C155.23 205.099 156.017 203.512 156.305 201.685C156.368 201.278 156.389 200.866 156.433 200.459C156.441 200.386 156.455 200.312 156.474 200.185C157.614 200.182 158.749 200.185 159.935 200.185C159.971 201.848 159.65 203.403 159.047 204.904C158.442 206.415 157.554 207.745 156.4 208.934C157.999 211.135 159.59 213.325 161.181 215.515C161.162 215.542 161.143 215.571 161.127 215.599L161.122 215.596Z" fill="black"/>
<path d="M147.693 200.201H151.206C151.217 200.364 151.239 200.521 151.239 200.679C151.239 204.676 151.239 208.671 151.239 212.668C151.239 213.504 151.239 214.34 151.239 215.175C151.239 215.303 151.222 215.43 151.214 215.544C150.94 215.637 148.011 215.648 147.693 215.569C147.598 215.306 147.595 200.513 147.693 200.201Z" fill="black"/>
<path d="M153.424 91.3093C144.79 91.7164 138.149 99.1492 138.149 107.787V116.281C138.149 119.198 140.517 121.564 143.436 121.564H164.963C167.882 121.564 170.249 119.198 170.249 116.281V107.334C170.249 98.2157 162.639 90.8751 153.422 91.3093H153.424Z" fill="#D6E8FC"/>
<path d="M160.296 104.327C160.28 104.433 160.261 104.541 160.239 104.653C159.503 108.425 156.989 109.73 153.777 109.73H152.143C151.749 109.73 151.418 110.015 151.358 110.403L150.522 115.711L150.286 117.214C150.245 117.469 150.443 117.697 150.698 117.697H153.598C153.943 117.697 154.233 117.448 154.288 117.108L154.317 116.962L154.863 113.497L154.898 113.307C154.953 112.967 155.243 112.718 155.588 112.718H156.022C158.833 112.718 161.034 111.578 161.675 108.275C161.944 106.897 161.806 105.746 161.094 104.935C160.88 104.691 160.611 104.487 160.301 104.324L160.296 104.327Z" fill="#179BD7"/>
<path d="M159.528 104.02C159.416 103.987 159.3 103.957 159.18 103.93C159.061 103.903 158.939 103.881 158.811 103.86C158.371 103.789 157.888 103.754 157.369 103.754H153.001C152.892 103.754 152.792 103.778 152.699 103.822C152.498 103.919 152.349 104.109 152.311 104.343L151.383 110.226L151.355 110.397C151.418 110.009 151.746 109.724 152.14 109.724H153.775C156.986 109.724 159.503 108.421 160.236 104.647C160.258 104.535 160.277 104.427 160.293 104.321C160.106 104.223 159.905 104.139 159.688 104.066C159.634 104.047 159.579 104.031 159.522 104.014L159.528 104.02Z" fill="#222D65"/>
<path d="M152.314 104.345C152.349 104.112 152.501 103.922 152.702 103.824C152.794 103.781 152.895 103.756 153.003 103.756H157.372C157.89 103.756 158.374 103.789 158.813 103.862C158.938 103.881 159.063 103.906 159.183 103.933C159.302 103.96 159.416 103.99 159.53 104.022C159.587 104.039 159.641 104.055 159.696 104.074C159.913 104.144 160.114 104.231 160.301 104.329C160.521 102.934 160.301 101.984 159.546 101.127C158.716 100.18 157.214 99.7754 155.295 99.7754H149.721C149.33 99.7754 148.993 100.06 148.933 100.448L146.612 115.159C146.566 115.45 146.791 115.713 147.084 115.713H150.527L151.39 110.234L152.319 104.351L152.314 104.345Z" fill="#253B80"/>
<path d="M1.25993 98.9007L13.9772 118.638C14.7265 119.799 16.4262 119.799 17.1728 118.638L29.8873 98.9007C30.7019 97.6362 29.795 95.9727 28.2882 95.9727H2.85637C1.35224 95.9727 0.442697 97.6362 1.25721 98.9007H1.25993Z" fill="#026DF8"/>
<path d="M13.0548 297.86L2.51881 308.391C1.12771 309.781 1.12771 312.035 2.51881 313.426L13.0548 323.957C14.4459 325.347 16.7013 325.347 18.0924 323.957L28.6284 313.426C30.0195 312.035 30.0195 309.781 28.6284 308.391L18.0924 297.86C16.7013 296.469 14.4459 296.469 13.0548 297.86Z" fill="#48BF89"/>
<path d="M16.5239 223.536L28.4158 216.673C29.005 216.334 29.3661 215.707 29.3661 215.029V201.303C29.3661 200.624 29.005 199.998 28.4158 199.658L16.5239 192.795C15.9348 192.456 15.2099 192.456 14.6234 192.795L2.73152 199.658C2.14235 199.998 1.78125 200.624 1.78125 201.303V215.029C1.78125 215.707 2.14235 216.334 2.73152 216.673L14.6234 223.536C15.2126 223.875 15.9375 223.875 16.5239 223.536Z" fill="#F97C7D"/>
<path d="M17.4766 26.918L28.5919 18.8447C29.6155 18.1011 30.1124 16.8311 29.8653 15.591L27.3376 2.95596C27.0335 1.44171 25.7059 0.353516 24.161 0.353516H6.98563C5.44077 0.353516 4.1104 1.44442 3.80903 2.95596L1.28132 15.591C1.03426 16.8311 1.53111 18.1011 2.55468 18.8447L13.6701 26.918C14.805 27.7429 16.3444 27.7429 17.4793 26.918H17.4766Z" fill="#FFB82E"/>
<path opacity="0.2" d="M38.3037 310.366C80.7561 310.366 80.7561 311.451 123.211 311.451C168.498 311.451 211.545 292.542 243.569 260.537C280.04 224.084 280.809 224.852 317.277 188.398" stroke="#B2B5C1" stroke-width="2" stroke-miterlimit="10"/>
<path opacity="0.2" d="M38.3037 7.69531C80.7561 7.69531 80.7561 8.78079 123.211 8.78079C168.498 8.78079 212.314 25.8364 244.338 57.8419C280.809 94.2951 280.04 95.063 316.512 131.514" stroke="#B2B5C1" stroke-width="2" stroke-miterlimit="10"/>
<path opacity="0.2" d="M174.781 207.367C200.878 207.367 200.878 208.452 226.975 208.452C247.625 208.452 267.728 202.477 286.068 192.989C293.686 189.049 294.186 190.013 301.804 186.072" stroke="#B2B5C1" stroke-width="2" stroke-miterlimit="10"/>
<path opacity="0.2" d="M174.781 110.691C200.878 110.691 200.878 111.777 226.975 111.777C247.625 111.777 268.227 115.704 286.567 125.191C294.186 129.131 293.686 130.094 301.305 134.035" stroke="#B2B5C1" stroke-width="2" stroke-miterlimit="10"/>
<path opacity="0.2" d="M115.229 157.807C200.006 157.807 200.006 158.892 284.783 158.892" stroke="#B2B5C1" stroke-width="2" stroke-miterlimit="10"/>
<path opacity="0.2" d="M109.685 58.168C133.7 58.168 133.7 59.2535 157.717 59.2535C189.654 59.2535 221.108 68.225 247.115 86.7487C277.871 108.656 277.241 109.541 307.997 131.449" stroke="#B2B5C1" stroke-width="2" stroke-miterlimit="10"/>
<path opacity="0.2" d="M109.685 260.33C128.411 260.33 128.411 261.416 147.139 261.416C185.956 261.416 223.489 248.33 255.1 225.814C282.791 206.091 283.421 206.973 311.111 187.25" stroke="#B2B5C1" stroke-width="2" stroke-miterlimit="10"/>
<path d="M372.944 131.007H313.362C297.579 131.007 284.784 143.796 284.784 159.571C284.784 175.347 297.579 188.136 313.362 188.136H372.944C388.727 188.136 401.522 175.347 401.522 159.571C401.522 143.796 388.727 131.007 372.944 131.007Z" fill="#006DF9"/>
<path d="M321.393 166.618L311.94 151.943C311.728 151.612 311.245 151.612 311.03 151.943L301.576 166.618C301.345 166.977 301.603 167.451 302.03 167.451H320.94C321.366 167.451 321.627 166.979 321.393 166.618Z" fill="white"/>
<path d="M350.491 151.231H336.041C335.422 151.231 334.92 151.733 334.92 152.352V166.795C334.92 167.414 335.422 167.915 336.041 167.915H350.491C351.11 167.915 351.612 167.414 351.612 166.795V152.352C351.612 151.733 351.11 151.231 350.491 151.231Z" fill="white"/>
<path d="M375.249 168.61C380.242 168.61 384.29 164.565 384.29 159.574C384.29 154.583 380.242 150.537 375.249 150.537C370.256 150.537 366.208 154.583 366.208 159.574C366.208 164.565 370.256 168.61 375.249 168.61Z" fill="white"/>
</g>
<defs>
<clipPath id="clip0_3171_19052">
<rect width="720" height="326.474" fill="white"/>
</clipPath>
</defs>
</svg>