<svg width="25" height="25" viewBox="0 0 33 6" fill="none" xmlns="http://www.w3.org/2000/svg">
<path d="M0.333333 3C0.333333 4.47276 1.52724 5.66667 3 5.66667C4.47276 5.66667 5.66667 4.47276 5.66667 3C5.66667 1.52724 4.47276 0.333333 3 0.333333C1.52724 0.333333 0.333333 1.52724 0.333333 3ZM26.8333 3C26.8333 4.47276 28.0272 5.66667 29.5 5.66667C30.9728 5.66667 32.1667 4.47276 32.1667 3C32.1667 1.52724 30.9728 0.333333 29.5 0.333333C28.0272 0.333333 26.8333 1.52724 26.8333 3ZM3 3.5H29.5V2.5H3V3.5Z" fill="#006DF9"/>
</svg>
