<svg xmlns="http://www.w3.org/2000/svg" version="1.1" viewBox="0.00 0.00 180.00 100.00">
    <path fill="#033fff" stroke="" d="   M 33.58 51.18   C 33.71 54.45 34.91 59.33 33.57 61.78   C 32.07 64.50 26.86 65.29 26.70 61.49   Q 26.04 45.22 26.47 27.64   A 3.50 3.50 0.0 0 1 29.91 24.23   L 30.76 24.22   A 2.90 2.89 -1.7 0 1 33.71 26.99   L 34.33 41.45   A 2.59 2.59 0.0 0 0 35.75 43.64   C 37.68 44.61 39.30 45.84 40.77 47.58   Q 48.45 56.70 56.03 66.90   A 2.64 2.64 0.0 0 1 55.38 70.66   L 54.55 71.21   Q 51.55 73.22 49.45 70.50   L 34.30 50.92   A 0.40 0.40 0.0 0 0 33.58 51.18   Z"/>
    <rect fill="#033fff" x="-3.57" y="-7.92" transform="translate(44.71,36.63) rotate(35.7)" width="7.14" height="15.84" rx="3.42"/>
    <path fill="#033fff" d="   M 74.41 40.96   A 0.79 0.79 0.0 0 0 74.35 39.57   C 70.69 37.83 67.73 38.59 64.50 40.47   C 53.60 46.81 65.50 61.78 73.66 55.62   C 75.95 53.89 80.58 49.33 83.40 52.07   C 84.52 53.16 84.46 55.16 83.62 56.54   C 78.57 64.85 67.05 66.52 59.49 60.54   C 39.29 44.54 69.54 18.95 83.11 38.89   Q 85.60 42.56 81.92 44.64   Q 76.62 47.64 71.26 50.52   Q 69.50 51.47 68.57 51.51   C 66.24 51.62 64.19 49.33 65.02 46.98   C 65.89 44.54 71.91 42.45 74.41 40.96   Z"/>
    <path fill="#033fff" d="   M 121.44 47.94   A 16.33 16.33 0.0 0 1 105.11 64.27   A 16.33 16.33 0.0 0 1 88.78 47.94   A 16.33 16.33 0.0 0 1 105.11 31.61   A 16.33 16.33 0.0 0 1 121.44 47.94   Z   M 114.4654 47.0220   A 9.46 9.07 -4.9 0 0 104.2653 38.7931   A 9.46 9.07 -4.9 0 0 95.6146 48.6380   A 9.46 9.07 -4.9 0 0 105.8147 56.8669   A 9.46 9.07 -4.9 0 0 114.4654 47.0220   Z"/>
    <path fill="#033fff" d="   M 140.93 38.49   C 137.96 38.55 132.53 38.26 132.86 41.89   Q 133.08 44.26 135.99 44.15   Q 138.57 44.05 145.49 44.50   C 159.67 45.42 158.23 64.70 143.69 64.16   C 139.81 64.02 136.50 63.45 137.88 58.42   A 1.12 1.10 6.1 0 1 138.90 57.61   C 141.57 57.51 145.70 57.58 147.82 55.64   Q 148.13 55.35 148.16 54.93   Q 148.38 51.66 145.26 51.67   C 137.11 51.67 127.69 52.20 126.02 43.04   C 125.16 38.37 129.02 33.81 133.02 32.55   Q 136.45 31.48 142.25 32.19   A 2.33 2.33 0.0 0 1 144.29 34.70   L 144.23 35.40   Q 143.97 38.43 140.93 38.49   Z"/>
    <circle fill="#033fff" cx="151.77" cy="38.36" r="3.67"/>
    <ellipse fill="transparent" cx="0.00" cy="0.00" transform="translate(105.04,47.83) rotate(-4.9)" rx="9.46" ry="9.07"/>
    <rect fill="#033fff" x="-3.31" y="-2.92" transform="translate(129.72,57.32) rotate(9.7)" width="6.62" height="5.84" rx="2.61"/>
</svg>