<svg width="444" height="318" viewBox="0 0 444 318" fill="none" xmlns="http://www.w3.org/2000/svg">
<rect x="0.5" y="0.5" width="443" height="317" rx="11.5" fill="#FCFCFD"/>
<rect x="0.5" y="0.5" width="443" height="317" rx="11.5" stroke="#ECEFF3"/>
<path d="M185.236 52.1641C184.325 52.1641 183.511 51.9476 182.796 51.5146C182.085 51.0771 181.522 50.4665 181.107 49.6826C180.697 48.8942 180.492 47.9714 180.492 46.9141C180.492 45.8522 180.697 44.9271 181.107 44.1387C181.522 43.3503 182.085 42.7396 182.796 42.3066C183.511 41.8691 184.325 41.6504 185.236 41.6504C186.143 41.6504 186.954 41.8691 187.67 42.3066C188.385 42.7396 188.948 43.3503 189.358 44.1387C189.773 44.9271 189.98 45.8522 189.98 46.9141C189.98 47.9714 189.773 48.8942 189.358 49.6826C188.948 50.471 188.385 51.0817 187.67 51.5146C186.954 51.9476 186.143 52.1641 185.236 52.1641ZM185.236 50.5439C185.792 50.5439 186.289 50.4027 186.727 50.1201C187.169 49.8376 187.517 49.4274 187.772 48.8896C188.028 48.3473 188.155 47.6888 188.155 46.9141C188.155 46.1348 188.028 45.474 187.772 44.9316C187.517 44.3893 187.169 43.9769 186.727 43.6943C186.289 43.4118 185.792 43.2705 185.236 43.2705C184.68 43.2705 184.181 43.4118 183.739 43.6943C183.302 43.9769 182.953 44.3893 182.693 44.9316C182.438 45.474 182.311 46.1348 182.311 46.9141C182.311 47.6888 182.438 48.3473 182.693 48.8896C182.953 49.4274 183.302 49.8376 183.739 50.1201C184.181 50.4027 184.68 50.5439 185.236 50.5439ZM191.238 52V44.7812H192.899V45.9775H192.92C193.052 45.5674 193.259 45.2552 193.542 45.041C193.829 44.8223 194.205 44.7129 194.67 44.7129C194.788 44.7129 194.893 44.7174 194.984 44.7266C195.08 44.7311 195.162 44.7357 195.23 44.7402V46.2715C195.167 46.2624 195.057 46.251 194.902 46.2373C194.747 46.2236 194.586 46.2168 194.417 46.2168C194.007 46.2168 193.66 46.3581 193.378 46.6406C193.1 46.9232 192.961 47.347 192.961 47.9121V52H191.238ZM199.407 54.9531C198.455 54.9531 197.698 54.748 197.138 54.3379C196.577 53.9277 196.249 53.3717 196.153 52.6699H197.842C197.924 52.9798 198.104 53.2145 198.382 53.374C198.66 53.5381 199.002 53.6201 199.407 53.6201C199.945 53.6201 200.362 53.4743 200.658 53.1826C200.959 52.891 201.109 52.4694 201.109 51.918V50.8174H201.103C200.87 51.2412 200.567 51.5534 200.193 51.7539C199.82 51.9499 199.396 52.0479 198.922 52.0479C198.293 52.0479 197.744 51.8906 197.274 51.5762C196.805 51.2617 196.44 50.8288 196.181 50.2773C195.925 49.7214 195.798 49.0811 195.798 48.3564C195.798 47.6273 195.928 46.9824 196.188 46.4219C196.447 45.8613 196.812 45.4238 197.281 45.1094C197.751 44.7949 198.293 44.6377 198.908 44.6377C199.378 44.6377 199.801 44.738 200.18 44.9385C200.562 45.1344 200.872 45.4398 201.109 45.8545H201.116V44.7812H202.818V51.8154C202.818 52.5583 202.67 53.1598 202.374 53.6201C202.078 54.085 201.672 54.4222 201.157 54.6318C200.642 54.846 200.059 54.9531 199.407 54.9531ZM199.325 50.626C199.89 50.626 200.341 50.4186 200.679 50.0039C201.021 49.5846 201.191 49.0286 201.191 48.3359C201.191 47.6432 201.021 47.0895 200.679 46.6748C200.341 46.2555 199.89 46.0459 199.325 46.0459C198.792 46.0459 198.361 46.2441 198.033 46.6406C197.705 47.0371 197.541 47.6022 197.541 48.3359C197.541 49.0742 197.705 49.6416 198.033 50.0381C198.361 50.43 198.792 50.626 199.325 50.626ZM206.551 52.1162C205.831 52.1162 205.234 51.9362 204.76 51.5762C204.29 51.2116 204.056 50.6693 204.056 49.9492C204.056 49.4023 204.188 48.9808 204.452 48.6846C204.721 48.3838 205.07 48.165 205.498 48.0283C205.931 47.8916 206.396 47.7982 206.893 47.748C207.562 47.6706 208.03 47.6022 208.294 47.543C208.558 47.4837 208.69 47.3311 208.69 47.085V47.0303C208.69 46.7204 208.572 46.4674 208.335 46.2715C208.103 46.0755 207.781 45.9775 207.371 45.9775C206.952 45.9775 206.61 46.0755 206.346 46.2715C206.086 46.4674 205.945 46.7181 205.922 47.0234H204.261C204.302 46.3079 204.6 45.7314 205.156 45.2939C205.712 44.8564 206.462 44.6377 207.405 44.6377C208.344 44.6377 209.078 44.8564 209.606 45.2939C210.135 45.7314 210.399 46.3262 210.399 47.0781V52H208.704V50.9814H208.677C208.504 51.3005 208.253 51.5693 207.925 51.7881C207.597 52.0068 207.139 52.1162 206.551 52.1162ZM206.975 50.8379C207.54 50.8379 207.968 50.6921 208.26 50.4004C208.551 50.1042 208.697 49.7464 208.697 49.3271V48.5479C208.592 48.6162 208.39 48.68 208.089 48.7393C207.788 48.7939 207.46 48.8486 207.104 48.9033C206.735 48.958 206.414 49.0628 206.141 49.2178C205.872 49.3682 205.737 49.6074 205.737 49.9355C205.737 50.2181 205.849 50.4391 206.072 50.5986C206.296 50.7581 206.596 50.8379 206.975 50.8379ZM213.646 47.9189V52H211.924V44.7812H213.619V45.8887C214.12 45.0547 214.859 44.6377 215.834 44.6377C216.59 44.6377 217.208 44.8815 217.687 45.3691C218.17 45.8568 218.411 46.5632 218.411 47.4883V52H216.682V47.7617C216.682 47.2331 216.554 46.832 216.299 46.5586C216.044 46.2852 215.686 46.1484 215.226 46.1484C214.774 46.1484 214.398 46.2897 214.098 46.5723C213.797 46.8548 213.646 47.3037 213.646 47.9189ZM219.949 52V44.7812H221.672V52H219.949ZM220.811 43.708C220.514 43.708 220.268 43.6146 220.072 43.4277C219.876 43.2363 219.778 43.0016 219.778 42.7236C219.778 42.4456 219.876 42.2132 220.072 42.0264C220.268 41.8395 220.514 41.7461 220.811 41.7461C221.102 41.7461 221.346 41.8395 221.542 42.0264C221.738 42.2132 221.836 42.4456 221.836 42.7236C221.836 43.0016 221.738 43.2363 221.542 43.4277C221.346 43.6146 221.102 43.708 220.811 43.708ZM223.087 52V50.8037L226.792 46.2168V46.1963H223.087V44.7812H228.856V46.0459L225.213 50.5713V50.5918H228.897V52H223.087ZM232.514 52.1162C231.794 52.1162 231.197 51.9362 230.723 51.5762C230.253 51.2116 230.019 50.6693 230.019 49.9492C230.019 49.4023 230.151 48.9808 230.415 48.6846C230.684 48.3838 231.033 48.165 231.461 48.0283C231.894 47.8916 232.359 47.7982 232.855 47.748C233.525 47.6706 233.993 47.6022 234.257 47.543C234.521 47.4837 234.653 47.3311 234.653 47.085V47.0303C234.653 46.7204 234.535 46.4674 234.298 46.2715C234.065 46.0755 233.744 45.9775 233.334 45.9775C232.915 45.9775 232.573 46.0755 232.309 46.2715C232.049 46.4674 231.908 46.7181 231.885 47.0234H230.224C230.265 46.3079 230.563 45.7314 231.119 45.2939C231.675 44.8564 232.425 44.6377 233.368 44.6377C234.307 44.6377 235.041 44.8564 235.569 45.2939C236.098 45.7314 236.362 46.3262 236.362 47.0781V52H234.667V50.9814H234.64C234.466 51.3005 234.216 51.5693 233.888 51.7881C233.56 52.0068 233.102 52.1162 232.514 52.1162ZM232.938 50.8379C233.503 50.8379 233.931 50.6921 234.223 50.4004C234.514 50.1042 234.66 49.7464 234.66 49.3271V48.5479C234.555 48.6162 234.353 48.68 234.052 48.7393C233.751 48.7939 233.423 48.8486 233.067 48.9033C232.698 48.958 232.377 49.0628 232.104 49.2178C231.835 49.3682 231.7 49.6074 231.7 49.9355C231.7 50.2181 231.812 50.4391 232.035 50.5986C232.258 50.7581 232.559 50.8379 232.938 50.8379ZM241.694 44.7812V46.1689H240.225V49.9287C240.225 50.1885 240.277 50.3685 240.382 50.4688C240.487 50.5645 240.678 50.6123 240.956 50.6123H241.694V52H240.655C239.922 52 239.377 51.8519 239.021 51.5557C238.671 51.2594 238.495 50.8014 238.495 50.1816V46.1689H237.237V44.7812H238.495V42.8125H240.225V44.7812H241.694ZM242.781 52V44.7812H244.504V52H242.781ZM243.643 43.708C243.346 43.708 243.1 43.6146 242.904 43.4277C242.708 43.2363 242.61 43.0016 242.61 42.7236C242.61 42.4456 242.708 42.2132 242.904 42.0264C243.1 41.8395 243.346 41.7461 243.643 41.7461C243.934 41.7461 244.178 41.8395 244.374 42.0264C244.57 42.2132 244.668 42.4456 244.668 42.7236C244.668 43.0016 244.57 43.2363 244.374 43.4277C244.178 43.6146 243.934 43.708 243.643 43.708ZM249.262 52.1641C248.551 52.1641 247.929 52.0068 247.396 51.6924C246.862 51.3734 246.445 50.9313 246.145 50.3662C245.848 49.8011 245.7 49.1449 245.7 48.3975C245.7 47.6501 245.848 46.9938 246.145 46.4287C246.445 45.859 246.862 45.4147 247.396 45.0957C247.929 44.7767 248.551 44.6172 249.262 44.6172C249.968 44.6172 250.588 44.7767 251.121 45.0957C251.659 45.4147 252.076 45.859 252.372 46.4287C252.673 46.9938 252.823 47.6501 252.823 48.3975C252.823 49.1449 252.673 49.8011 252.372 50.3662C252.076 50.9313 251.659 51.3734 251.121 51.6924C250.588 52.0068 249.968 52.1641 249.262 52.1641ZM249.262 50.7217C249.813 50.7217 250.253 50.5143 250.581 50.0996C250.909 49.6849 251.073 49.1175 251.073 48.3975C251.073 47.6774 250.909 47.1077 250.581 46.6885C250.253 46.2692 249.813 46.0596 249.262 46.0596C248.706 46.0596 248.264 46.2692 247.936 46.6885C247.607 47.1032 247.443 47.6729 247.443 48.3975C247.443 49.1175 247.607 49.6849 247.936 50.0996C248.264 50.5143 248.706 50.7217 249.262 50.7217ZM255.742 47.9189V52H254.02V44.7812H255.715V45.8887C256.216 45.0547 256.954 44.6377 257.93 44.6377C258.686 44.6377 259.304 44.8815 259.782 45.3691C260.265 45.8568 260.507 46.5632 260.507 47.4883V52H258.777V47.7617C258.777 47.2331 258.65 46.832 258.395 46.5586C258.139 46.2852 257.782 46.1484 257.321 46.1484C256.87 46.1484 256.494 46.2897 256.193 46.5723C255.893 46.8548 255.742 47.3037 255.742 47.9189Z" fill="#525866"/>
<g clip-path="url(#clip0_5302_38219)">
<g filter="url(#filter0_d_5302_38219)">
<rect x="117" y="68" width="208" height="38" rx="8" fill="#F5F7FA"/>
<rect x="117.334" y="68.3344" width="207.331" height="37.3313" rx="7.66564" stroke="#1C6DEA" stroke-width="0.668712"/>
<path d="M157.409 83.5001H159.159M157.409 85.8334H159.159M157.409 88.1667H159.159M157.409 90.5001H159.159M163.242 88.1667H163.825M163.242 90.5001H163.825M160.559 92.8334C160.885 92.8334 161.049 92.8334 161.173 92.7698C161.283 92.7139 161.372 92.6247 161.428 92.5149C161.492 92.3901 161.492 92.2268 161.492 91.9001V85.8334M160.559 92.8334H164.642C164.969 92.8334 165.132 92.8334 165.257 92.7698C165.366 92.7139 165.456 92.6247 165.512 92.5149C165.575 92.3901 165.575 92.2268 165.575 91.9001V87.7001C165.575 87.0467 165.575 86.72 165.448 86.4704C165.336 86.2509 165.158 86.0724 164.938 85.9606C164.689 85.8334 164.362 85.8334 163.709 85.8334H161.492M160.559 92.8334H156.009C155.682 92.8334 155.518 92.8334 155.394 92.7698C155.284 92.7139 155.195 92.6247 155.139 92.5149C155.075 92.3901 155.075 92.2268 155.075 91.9001V83.0334C155.075 82.38 155.075 82.0533 155.202 81.8038C155.314 81.5842 155.493 81.4058 155.712 81.2939C155.962 81.1667 156.288 81.1667 156.942 81.1667H159.625C160.279 81.1667 160.605 81.1667 160.855 81.2939C161.074 81.4058 161.253 81.5842 161.365 81.8038C161.492 82.0533 161.492 82.38 161.492 83.0334V85.8334" stroke="#1C6DEA" stroke-width="1.2" stroke-linecap="round" stroke-linejoin="round"/>
<path d="M173.581 91V82.2695H176.815C177.749 82.2695 178.489 82.5137 179.036 83.002C179.583 83.4902 179.856 84.1523 179.856 84.9883C179.856 85.5469 179.729 86.0312 179.476 86.4414C179.222 86.8477 178.864 87.1621 178.403 87.3848C177.942 87.6035 177.399 87.7129 176.774 87.7129H174.882V91H173.581ZM174.882 86.5879H176.751C177.313 86.5879 177.757 86.4453 178.081 86.1602C178.409 85.8711 178.573 85.4805 178.573 84.9883C178.573 84.4961 178.409 84.1094 178.081 83.8281C177.757 83.543 177.313 83.4004 176.751 83.4004H174.882V86.5879ZM182.136 82.2695V91H180.899V82.2695H182.136ZM185.423 91.0996C184.806 91.0996 184.294 90.9434 183.888 90.6309C183.481 90.3145 183.278 89.8477 183.278 89.2305C183.278 88.7617 183.394 88.4023 183.624 88.1523C183.858 87.8984 184.161 87.7168 184.532 87.6074C184.907 87.498 185.304 87.418 185.722 87.3672C186.108 87.3203 186.415 87.2812 186.642 87.25C186.868 87.2188 187.028 87.1719 187.122 87.1094C187.22 87.0469 187.269 86.9395 187.269 86.7871V86.7344C187.269 86.4336 187.159 86.1875 186.94 85.9961C186.722 85.8008 186.415 85.7031 186.021 85.7031C185.626 85.7031 185.304 85.7988 185.054 85.9902C184.804 86.1777 184.667 86.4141 184.644 86.6992H183.431C183.458 86.1094 183.706 85.627 184.175 85.252C184.644 84.877 185.265 84.6895 186.038 84.6895C186.8 84.6895 187.399 84.877 187.837 85.252C188.274 85.627 188.493 86.1289 188.493 86.7578V91H187.274V90.1211H187.251C187.122 90.3711 186.917 90.5977 186.636 90.8008C186.358 91 185.954 91.0996 185.423 91.0996ZM185.675 90.1035C186.222 90.1035 186.624 89.9629 186.882 89.6816C187.144 89.3965 187.274 89.0645 187.274 88.6855V87.959C187.192 88.0254 187.007 88.0859 186.718 88.1406C186.429 88.1914 186.12 88.2402 185.792 88.2871C185.452 88.3379 185.153 88.4336 184.896 88.5742C184.638 88.7148 184.509 88.9414 184.509 89.2539C184.509 89.5195 184.612 89.7285 184.819 89.8809C185.03 90.0293 185.315 90.1035 185.675 90.1035ZM192.87 84.8125V85.832H191.616V89.3652C191.616 89.5957 191.663 89.7559 191.757 89.8457C191.851 89.9355 192.021 89.9805 192.267 89.9805H192.87V91H192.091C190.946 91 190.374 90.5078 190.374 89.5234V85.832H189.284V84.8125H190.374V83.125H191.616V84.8125H192.87ZM196.614 84.8125V85.832H195.354V91H194.118V85.832H193.011V84.8125H194.118V83.8105C194.118 83.3223 194.271 82.9434 194.575 82.6738C194.884 82.4043 195.317 82.2695 195.876 82.2695H196.614V83.2891H196.069C195.808 83.2891 195.622 83.3438 195.513 83.4531C195.407 83.5625 195.354 83.748 195.354 84.0098V84.8125H196.614ZM200.095 91.1406C199.505 91.1406 198.987 91.0039 198.542 90.7305C198.097 90.457 197.749 90.0781 197.499 89.5938C197.253 89.1094 197.13 88.5508 197.13 87.918C197.13 87.2773 197.253 86.7148 197.499 86.2305C197.749 85.7422 198.097 85.3613 198.542 85.0879C198.987 84.8105 199.505 84.6719 200.095 84.6719C200.685 84.6719 201.2 84.8105 201.642 85.0879C202.087 85.3613 202.433 85.7422 202.679 86.2305C202.929 86.7148 203.054 87.2773 203.054 87.918C203.054 88.5508 202.929 89.1094 202.679 89.5938C202.433 90.0781 202.087 90.457 201.642 90.7305C201.2 91.0039 200.685 91.1406 200.095 91.1406ZM200.095 90.0742C200.626 90.0742 201.044 89.8789 201.349 89.4883C201.653 89.0977 201.806 88.5742 201.806 87.918C201.806 87.2539 201.651 86.7246 201.343 86.3301C201.038 85.9355 200.622 85.7383 200.095 85.7383C199.567 85.7383 199.149 85.9355 198.841 86.3301C198.536 86.7207 198.384 87.25 198.384 87.918C198.384 88.5781 198.536 89.1035 198.841 89.4941C199.146 89.8809 199.563 90.0742 200.095 90.0742ZM204.149 91V84.8125H205.333V85.8145H205.356C205.47 85.4746 205.647 85.2109 205.89 85.0234C206.136 84.832 206.456 84.7363 206.851 84.7363C206.944 84.7363 207.03 84.7402 207.108 84.748C207.187 84.7559 207.251 84.7617 207.302 84.7656V85.9199C207.255 85.9082 207.171 85.8965 207.05 85.8848C206.929 85.8691 206.796 85.8613 206.651 85.8613C206.304 85.8613 206.005 85.9824 205.755 86.2246C205.509 86.4668 205.386 86.8398 205.386 87.3438V91H204.149ZM208.263 91V84.8125H209.464V85.8496C209.655 85.4668 209.915 85.1777 210.243 84.9824C210.571 84.7871 210.927 84.6895 211.31 84.6895C211.731 84.6895 212.101 84.7969 212.417 85.0117C212.737 85.2266 212.962 85.5 213.091 85.832C213.259 85.4961 213.513 85.2227 213.853 85.0117C214.196 84.7969 214.597 84.6895 215.054 84.6895C215.437 84.6895 215.784 84.7734 216.097 84.9414C216.409 85.1094 216.657 85.3594 216.841 85.6914C217.024 86.0195 217.116 86.4316 217.116 86.9277V91H215.874V87.0332C215.874 86.5918 215.751 86.2715 215.505 86.0723C215.259 85.873 214.968 85.7734 214.632 85.7734C214.218 85.7734 213.892 85.9023 213.653 86.1602C213.415 86.4141 213.296 86.7383 213.296 87.1328V91H212.077V86.9512C212.077 86.5957 211.962 86.3105 211.731 86.0957C211.505 85.8809 211.216 85.7734 210.864 85.7734C210.505 85.7734 210.187 85.9004 209.909 86.1543C209.636 86.4082 209.499 86.7793 209.499 87.2676V91H208.263ZM225.167 91.1406C224.394 91.1406 223.704 90.9512 223.099 90.5723C222.493 90.1934 222.017 89.666 221.669 88.9902C221.325 88.3145 221.153 87.5312 221.153 86.6406C221.153 85.7461 221.325 84.9609 221.669 84.2852C222.017 83.6055 222.493 83.0762 223.099 82.6973C223.704 82.3184 224.394 82.1289 225.167 82.1289C225.944 82.1289 226.636 82.3184 227.241 82.6973C227.847 83.0762 228.321 83.6055 228.665 84.2852C229.013 84.9609 229.187 85.7461 229.187 86.6406C229.187 87.5312 229.013 88.3145 228.665 88.9902C228.321 89.666 227.847 90.1934 227.241 90.5723C226.636 90.9512 225.944 91.1406 225.167 91.1406ZM225.167 89.9512C225.671 89.9512 226.128 89.8242 226.538 89.5703C226.948 89.3125 227.274 88.9375 227.517 88.4453C227.759 87.9492 227.88 87.3477 227.88 86.6406C227.88 85.9297 227.759 85.3262 227.517 84.8301C227.274 84.334 226.948 83.959 226.538 83.7051C226.128 83.4473 225.671 83.3184 225.167 83.3184C224.667 83.3184 224.212 83.4473 223.802 83.7051C223.392 83.959 223.065 84.334 222.823 84.8301C222.581 85.3262 222.46 85.9297 222.46 86.6406C222.46 87.3477 222.581 87.9492 222.823 88.4453C223.065 88.9375 223.392 89.3125 223.802 89.5703C224.212 89.8242 224.667 89.9512 225.167 89.9512ZM230.364 91V84.8125H231.548V85.8145H231.571C231.685 85.4746 231.862 85.2109 232.104 85.0234C232.351 84.832 232.671 84.7363 233.065 84.7363C233.159 84.7363 233.245 84.7402 233.323 84.748C233.401 84.7559 233.466 84.7617 233.517 84.7656V85.9199C233.47 85.9082 233.386 85.8965 233.265 85.8848C233.144 85.8691 233.011 85.8613 232.866 85.8613C232.519 85.8613 232.22 85.9824 231.97 86.2246C231.724 86.4668 231.601 86.8398 231.601 87.3438V91H230.364ZM237.05 93.5312C236.292 93.5312 235.673 93.3633 235.192 93.0273C234.712 92.6914 234.431 92.2207 234.349 91.6152H235.585C235.663 91.916 235.833 92.1426 236.095 92.2949C236.356 92.4473 236.675 92.5234 237.05 92.5234C237.55 92.5234 237.94 92.3887 238.222 92.1191C238.503 91.8496 238.644 91.4648 238.644 90.9648V90.0273H238.638C238.423 90.3867 238.151 90.6523 237.823 90.8242C237.499 90.9961 237.134 91.082 236.728 91.082C236.188 91.082 235.718 90.9473 235.315 90.6777C234.913 90.4043 234.601 90.0293 234.378 89.5527C234.155 89.0723 234.044 88.5176 234.044 87.8887C234.044 87.2598 234.155 86.7051 234.378 86.2246C234.604 85.7441 234.919 85.3691 235.321 85.0996C235.724 84.8262 236.19 84.6895 236.722 84.6895C237.124 84.6895 237.493 84.7754 237.829 84.9473C238.165 85.1191 238.437 85.3887 238.644 85.7559H238.649V84.8125H239.868V90.918C239.868 91.543 239.741 92.0469 239.487 92.4297C239.233 92.8125 238.894 93.0918 238.468 93.2676C238.042 93.4434 237.569 93.5312 237.05 93.5312ZM236.979 90.0215C237.507 90.0215 237.927 89.8281 238.239 89.4414C238.556 89.0508 238.714 88.5312 238.714 87.8828C238.714 87.2344 238.556 86.7168 238.239 86.3301C237.927 85.9395 237.507 85.7441 236.979 85.7441C236.479 85.7441 236.073 85.9277 235.761 86.2949C235.452 86.6582 235.298 87.1875 235.298 87.8828C235.298 88.5781 235.452 89.1094 235.761 89.4766C236.073 89.8398 236.479 90.0215 236.979 90.0215ZM243.149 91.0996C242.532 91.0996 242.021 90.9434 241.614 90.6309C241.208 90.3145 241.005 89.8477 241.005 89.2305C241.005 88.7617 241.12 88.4023 241.351 88.1523C241.585 87.8984 241.888 87.7168 242.259 87.6074C242.634 87.498 243.03 87.418 243.448 87.3672C243.835 87.3203 244.142 87.2812 244.368 87.25C244.595 87.2188 244.755 87.1719 244.849 87.1094C244.946 87.0469 244.995 86.9395 244.995 86.7871V86.7344C244.995 86.4336 244.886 86.1875 244.667 85.9961C244.448 85.8008 244.142 85.7031 243.747 85.7031C243.353 85.7031 243.03 85.7988 242.78 85.9902C242.53 86.1777 242.394 86.4141 242.37 86.6992H241.157C241.185 86.1094 241.433 85.627 241.901 85.252C242.37 84.877 242.991 84.6895 243.765 84.6895C244.526 84.6895 245.126 84.877 245.563 85.252C246.001 85.627 246.22 86.1289 246.22 86.7578V91H245.001V90.1211H244.978C244.849 90.3711 244.644 90.5977 244.362 90.8008C244.085 91 243.681 91.0996 243.149 91.0996ZM243.401 90.1035C243.948 90.1035 244.351 89.9629 244.608 89.6816C244.87 89.3965 245.001 89.0645 245.001 88.6855V87.959C244.919 88.0254 244.733 88.0859 244.444 88.1406C244.155 88.1914 243.847 88.2402 243.519 88.2871C243.179 88.3379 242.88 88.4336 242.622 88.5742C242.364 88.7148 242.235 88.9414 242.235 89.2539C242.235 89.5195 242.339 89.7285 242.546 89.8809C242.757 90.0293 243.042 90.1035 243.401 90.1035ZM248.851 87.4375V91H247.614V84.8125H248.827V85.7441C249.249 85.041 249.872 84.6895 250.696 84.6895C251.122 84.6895 251.503 84.7832 251.839 84.9707C252.179 85.1543 252.446 85.4277 252.642 85.791C252.837 86.1543 252.935 86.6055 252.935 87.1445V91H251.698V87.2969C251.698 86.8008 251.579 86.4277 251.341 86.1777C251.103 85.9238 250.771 85.7969 250.345 85.7969C249.923 85.7969 249.567 85.9277 249.278 86.1895C248.993 86.4473 248.851 86.8633 248.851 87.4375ZM254.329 91V84.8125H255.565V91H254.329ZM254.944 83.7461C254.726 83.7461 254.54 83.6738 254.388 83.5293C254.239 83.3809 254.165 83.2012 254.165 82.9902C254.165 82.7754 254.239 82.5957 254.388 82.4512C254.54 82.3027 254.726 82.2285 254.944 82.2285C255.163 82.2285 255.349 82.3027 255.501 82.4512C255.653 82.5957 255.729 82.7754 255.729 82.9902C255.729 83.2012 255.653 83.3809 255.501 83.5293C255.349 83.6738 255.163 83.7461 254.944 83.7461ZM256.825 91V90.1035L260.106 85.8848V85.8613H256.825V84.8125H261.601V85.75L258.366 89.9277V89.9512H261.636V91H256.825ZM264.771 91.0996C264.153 91.0996 263.642 90.9434 263.235 90.6309C262.829 90.3145 262.626 89.8477 262.626 89.2305C262.626 88.7617 262.741 88.4023 262.972 88.1523C263.206 87.8984 263.509 87.7168 263.88 87.6074C264.255 87.498 264.651 87.418 265.069 87.3672C265.456 87.3203 265.763 87.2812 265.989 87.25C266.216 87.2188 266.376 87.1719 266.47 87.1094C266.567 87.0469 266.616 86.9395 266.616 86.7871V86.7344C266.616 86.4336 266.507 86.1875 266.288 85.9961C266.069 85.8008 265.763 85.7031 265.368 85.7031C264.974 85.7031 264.651 85.7988 264.401 85.9902C264.151 86.1777 264.015 86.4141 263.991 86.6992H262.778C262.806 86.1094 263.054 85.627 263.522 85.252C263.991 84.877 264.612 84.6895 265.386 84.6895C266.147 84.6895 266.747 84.877 267.185 85.252C267.622 85.627 267.841 86.1289 267.841 86.7578V91H266.622V90.1211H266.599C266.47 90.3711 266.265 90.5977 265.983 90.8008C265.706 91 265.302 91.0996 264.771 91.0996ZM265.022 90.1035C265.569 90.1035 265.972 89.9629 266.229 89.6816C266.491 89.3965 266.622 89.0645 266.622 88.6855V87.959C266.54 88.0254 266.354 88.0859 266.065 88.1406C265.776 88.1914 265.468 88.2402 265.14 88.2871C264.8 88.3379 264.501 88.4336 264.243 88.5742C263.985 88.7148 263.856 88.9414 263.856 89.2539C263.856 89.5195 263.96 89.7285 264.167 89.8809C264.378 90.0293 264.663 90.1035 265.022 90.1035ZM272.218 84.8125V85.832H270.964V89.3652C270.964 89.5957 271.011 89.7559 271.104 89.8457C271.198 89.9355 271.368 89.9805 271.614 89.9805H272.218V91H271.438C270.294 91 269.722 90.5078 269.722 89.5234V85.832H268.632V84.8125H269.722V83.125H270.964V84.8125H272.218ZM273.196 91V84.8125H274.433V91H273.196ZM273.812 83.7461C273.593 83.7461 273.407 83.6738 273.255 83.5293C273.106 83.3809 273.032 83.2012 273.032 82.9902C273.032 82.7754 273.106 82.5957 273.255 82.4512C273.407 82.3027 273.593 82.2285 273.812 82.2285C274.03 82.2285 274.216 82.3027 274.368 82.4512C274.521 82.5957 274.597 82.7754 274.597 82.9902C274.597 83.2012 274.521 83.3809 274.368 83.5293C274.216 83.6738 274.03 83.7461 273.812 83.7461ZM278.493 91.1406C277.903 91.1406 277.386 91.0039 276.94 90.7305C276.495 90.457 276.147 90.0781 275.897 89.5938C275.651 89.1094 275.528 88.5508 275.528 87.918C275.528 87.2773 275.651 86.7148 275.897 86.2305C276.147 85.7422 276.495 85.3613 276.94 85.0879C277.386 84.8105 277.903 84.6719 278.493 84.6719C279.083 84.6719 279.599 84.8105 280.04 85.0879C280.485 85.3613 280.831 85.7422 281.077 86.2305C281.327 86.7148 281.452 87.2773 281.452 87.918C281.452 88.5508 281.327 89.1094 281.077 89.5938C280.831 90.0781 280.485 90.457 280.04 90.7305C279.599 91.0039 279.083 91.1406 278.493 91.1406ZM278.493 90.0742C279.024 90.0742 279.442 89.8789 279.747 89.4883C280.052 89.0977 280.204 88.5742 280.204 87.918C280.204 87.2539 280.05 86.7246 279.741 86.3301C279.437 85.9355 279.021 85.7383 278.493 85.7383C277.966 85.7383 277.548 85.9355 277.239 86.3301C276.935 86.7207 276.782 87.25 276.782 87.918C276.782 88.5781 276.935 89.1035 277.239 89.4941C277.544 89.8809 277.962 90.0742 278.493 90.0742ZM283.784 87.4375V91H282.548V84.8125H283.761V85.7441C284.183 85.041 284.806 84.6895 285.63 84.6895C286.056 84.6895 286.437 84.7832 286.772 84.9707C287.112 85.1543 287.38 85.4277 287.575 85.791C287.771 86.1543 287.868 86.6055 287.868 87.1445V91H286.632V87.2969C286.632 86.8008 286.513 86.4277 286.274 86.1777C286.036 85.9238 285.704 85.7969 285.278 85.7969C284.856 85.7969 284.501 85.9277 284.212 86.1895C283.927 86.4473 283.784 86.8633 283.784 87.4375Z" fill="#1C6DEA"/>
</g>
</g>
<path d="M188.848 167V156.814H191.445L193.428 162.167C193.523 162.45 193.644 162.819 193.79 163.274C193.936 163.726 194.068 164.149 194.187 164.546C194.305 164.149 194.435 163.726 194.576 163.274C194.722 162.819 194.843 162.45 194.938 162.167L196.887 156.814H199.498V167H197.721V161.805C197.721 161.445 197.728 161.003 197.741 160.479C197.755 159.954 197.769 159.433 197.782 158.913C197.6 159.487 197.427 160.036 197.263 160.561C197.099 161.08 196.962 161.495 196.853 161.805L194.911 167H193.435L191.479 161.805C191.375 161.508 191.24 161.114 191.076 160.622C190.917 160.125 190.748 159.604 190.57 159.057C190.584 159.558 190.595 160.057 190.604 160.554C190.618 161.046 190.625 161.463 190.625 161.805V167H188.848ZM204.297 167.164C203.577 167.164 202.952 167.002 202.424 166.679C201.895 166.355 201.487 165.911 201.2 165.346C200.918 164.776 200.776 164.127 200.776 163.397C200.776 162.664 200.922 162.014 201.214 161.449C201.51 160.88 201.918 160.433 202.438 160.109C202.957 159.781 203.554 159.617 204.229 159.617C204.921 159.617 205.527 159.777 206.047 160.096C206.566 160.415 206.97 160.857 207.257 161.422C207.544 161.982 207.688 162.632 207.688 163.37V163.842H202.465C202.488 164.43 202.661 164.904 202.984 165.264C203.308 165.624 203.759 165.804 204.338 165.804C204.771 165.804 205.129 165.71 205.411 165.523C205.694 165.332 205.885 165.081 205.985 164.771H207.599C207.507 165.241 207.307 165.656 206.997 166.016C206.692 166.376 206.307 166.658 205.842 166.863C205.377 167.064 204.862 167.164 204.297 167.164ZM202.479 162.652H206.033C205.979 162.137 205.792 161.732 205.473 161.436C205.158 161.135 204.753 160.984 204.256 160.984C203.755 160.984 203.347 161.135 203.032 161.436C202.722 161.732 202.538 162.137 202.479 162.652ZM208.863 167V159.781H210.524V160.978H210.545C210.677 160.567 210.884 160.255 211.167 160.041C211.454 159.822 211.83 159.713 212.295 159.713C212.413 159.713 212.518 159.717 212.609 159.727C212.705 159.731 212.787 159.736 212.855 159.74V161.271C212.792 161.262 212.682 161.251 212.527 161.237C212.372 161.224 212.211 161.217 212.042 161.217C211.632 161.217 211.285 161.358 211.003 161.641C210.725 161.923 210.586 162.347 210.586 162.912V167H208.863ZM216.95 167.164C216.248 167.164 215.631 167.005 215.098 166.686C214.569 166.367 214.157 165.924 213.86 165.359C213.569 164.794 213.423 164.14 213.423 163.397C213.423 162.655 213.569 162.001 213.86 161.436C214.157 160.866 214.569 160.422 215.098 160.103C215.631 159.779 216.248 159.617 216.95 159.617C217.556 159.617 218.096 159.736 218.57 159.973C219.044 160.205 219.425 160.529 219.712 160.943C220.004 161.354 220.174 161.827 220.225 162.365H218.536C218.472 161.978 218.306 161.663 218.037 161.422C217.773 161.176 217.417 161.053 216.971 161.053C216.406 161.053 215.964 161.265 215.645 161.688C215.326 162.112 215.166 162.682 215.166 163.397C215.166 164.108 215.326 164.676 215.645 165.1C215.964 165.519 216.406 165.729 216.971 165.729C217.422 165.729 217.773 165.61 218.023 165.373C218.274 165.132 218.44 164.81 218.522 164.409H220.225C220.184 164.938 220.017 165.41 219.726 165.824C219.438 166.239 219.056 166.567 218.577 166.809C218.103 167.046 217.561 167.164 216.95 167.164ZM223.109 162.919V167H221.387V156.814H223.109V160.841C223.611 160.039 224.34 159.638 225.297 159.638C226.053 159.638 226.671 159.882 227.149 160.369C227.632 160.857 227.874 161.563 227.874 162.488V167H226.145V162.762C226.145 162.233 226.017 161.832 225.762 161.559C225.507 161.285 225.149 161.148 224.688 161.148C224.237 161.148 223.861 161.29 223.561 161.572C223.26 161.855 223.109 162.304 223.109 162.919ZM231.613 167.116C230.893 167.116 230.296 166.936 229.822 166.576C229.353 166.212 229.118 165.669 229.118 164.949C229.118 164.402 229.25 163.981 229.515 163.685C229.784 163.384 230.132 163.165 230.561 163.028C230.993 162.892 231.458 162.798 231.955 162.748C232.625 162.671 233.092 162.602 233.356 162.543C233.621 162.484 233.753 162.331 233.753 162.085V162.03C233.753 161.72 233.634 161.467 233.397 161.271C233.165 161.076 232.844 160.978 232.434 160.978C232.014 160.978 231.673 161.076 231.408 161.271C231.148 161.467 231.007 161.718 230.984 162.023H229.323C229.364 161.308 229.663 160.731 230.219 160.294C230.775 159.856 231.524 159.638 232.468 159.638C233.407 159.638 234.14 159.856 234.669 160.294C235.198 160.731 235.462 161.326 235.462 162.078V167H233.767V165.981H233.739C233.566 166.3 233.315 166.569 232.987 166.788C232.659 167.007 232.201 167.116 231.613 167.116ZM232.037 165.838C232.602 165.838 233.031 165.692 233.322 165.4C233.614 165.104 233.76 164.746 233.76 164.327V163.548C233.655 163.616 233.452 163.68 233.151 163.739C232.851 163.794 232.522 163.849 232.167 163.903C231.798 163.958 231.477 164.063 231.203 164.218C230.934 164.368 230.8 164.607 230.8 164.936C230.8 165.218 230.911 165.439 231.135 165.599C231.358 165.758 231.659 165.838 232.037 165.838ZM238.709 162.919V167H236.986V159.781H238.682V160.889C239.183 160.055 239.921 159.638 240.896 159.638C241.653 159.638 242.271 159.882 242.749 160.369C243.232 160.857 243.474 161.563 243.474 162.488V167H241.744V162.762C241.744 162.233 241.617 161.832 241.361 161.559C241.106 161.285 240.748 161.148 240.288 161.148C239.837 161.148 239.461 161.29 239.16 161.572C238.859 161.855 238.709 162.304 238.709 162.919ZM248.819 159.781V161.169H247.35V164.929C247.35 165.188 247.402 165.368 247.507 165.469C247.612 165.564 247.803 165.612 248.081 165.612H248.819V167H247.78C247.047 167 246.502 166.852 246.146 166.556C245.796 166.259 245.62 165.801 245.62 165.182V161.169H244.362V159.781H245.62V157.812H247.35V159.781H248.819ZM252.613 167.171C251.734 167.171 250.998 166.966 250.405 166.556C249.817 166.141 249.496 165.546 249.441 164.771H251.144C251.18 165.122 251.321 165.396 251.567 165.592C251.813 165.783 252.153 165.879 252.586 165.879C253.001 165.879 253.326 165.797 253.563 165.633C253.805 165.469 253.926 165.259 253.926 165.004C253.926 164.785 253.837 164.61 253.659 164.478C253.481 164.345 253.242 164.247 252.941 164.184L251.711 163.931C250.307 163.639 249.605 162.944 249.605 161.846C249.605 161.18 249.87 160.645 250.398 160.239C250.927 159.829 251.631 159.624 252.511 159.624C253.386 159.624 254.097 159.84 254.644 160.273C255.195 160.702 255.48 161.287 255.498 162.03H253.878C253.869 161.707 253.743 161.44 253.502 161.23C253.26 161.021 252.944 160.916 252.552 160.916C252.174 160.916 251.875 161 251.656 161.169C251.438 161.338 251.328 161.545 251.328 161.791C251.328 162.005 251.412 162.181 251.581 162.317C251.75 162.45 251.984 162.55 252.285 162.618L253.584 162.885C254.299 163.035 254.826 163.272 255.163 163.596C255.505 163.919 255.676 164.345 255.676 164.874C255.676 165.343 255.544 165.751 255.279 166.098C255.02 166.439 254.66 166.704 254.199 166.891C253.739 167.077 253.21 167.171 252.613 167.171Z" fill="#525866"/>
<g clip-path="url(#clip1_5302_38219)">
<g filter="url(#filter1_d_5302_38219)">
<rect x="24" y="240" width="190" height="38" rx="8" fill="#F5F7FA"/>
<rect x="24.3344" y="240.334" width="189.331" height="37.3313" rx="7.66564" stroke="#1C6DEA" stroke-width="0.668712"/>
<path d="M45.1584 256.083C45.1584 257.372 44.1138 258.417 42.8251 258.417C41.5364 258.417 40.4918 257.372 40.4918 256.083C40.4918 254.795 41.5364 253.75 42.8251 253.75C44.1138 253.75 45.1584 254.795 45.1584 256.083Z" stroke="#1C6DEA" stroke-width="1.2" stroke-linecap="round" stroke-linejoin="round"/>
<path d="M39.2469 264.25H46.4033C47.0045 264.25 47.4918 263.763 47.4918 263.162C47.4918 261.363 45.7772 260.059 44.0436 260.539L43.6377 260.652C43.106 260.799 42.5442 260.799 42.0126 260.652L41.6066 260.539C39.873 260.059 38.1584 261.363 38.1584 263.162C38.1584 263.763 38.6458 264.25 39.2469 264.25Z" stroke="#1C6DEA" stroke-width="1.2" stroke-linecap="round" stroke-linejoin="round"/>
<path d="M56.1533 263V254.27H59.3877C60.3213 254.27 61.0615 254.514 61.6084 255.002C62.1553 255.49 62.4287 256.152 62.4287 256.988C62.4287 257.547 62.3018 258.031 62.0479 258.441C61.7939 258.848 61.4365 259.162 60.9756 259.385C60.5146 259.604 59.9717 259.713 59.3467 259.713H57.4541V263H56.1533ZM57.4541 258.588H59.3232C59.8857 258.588 60.3291 258.445 60.6533 258.16C60.9814 257.871 61.1455 257.48 61.1455 256.988C61.1455 256.496 60.9814 256.109 60.6533 255.828C60.3291 255.543 59.8857 255.4 59.3232 255.4H57.4541V258.588ZM64.708 254.27V263H63.4717V254.27H64.708ZM67.9951 263.1C67.3779 263.1 66.8662 262.943 66.46 262.631C66.0537 262.314 65.8506 261.848 65.8506 261.23C65.8506 260.762 65.9658 260.402 66.1963 260.152C66.4307 259.898 66.7334 259.717 67.1045 259.607C67.4795 259.498 67.876 259.418 68.2939 259.367C68.6807 259.32 68.9873 259.281 69.2139 259.25C69.4404 259.219 69.6006 259.172 69.6943 259.109C69.792 259.047 69.8408 258.939 69.8408 258.787V258.734C69.8408 258.434 69.7314 258.188 69.5127 257.996C69.2939 257.801 68.9873 257.703 68.5928 257.703C68.1982 257.703 67.876 257.799 67.626 257.99C67.376 258.178 67.2393 258.414 67.2158 258.699H66.0029C66.0303 258.109 66.2783 257.627 66.7471 257.252C67.2158 256.877 67.8369 256.689 68.6104 256.689C69.3721 256.689 69.9717 256.877 70.4092 257.252C70.8467 257.627 71.0654 258.129 71.0654 258.758V263H69.8467V262.121H69.8232C69.6943 262.371 69.4893 262.598 69.208 262.801C68.9307 263 68.5264 263.1 67.9951 263.1ZM68.2471 262.104C68.7939 262.104 69.1963 261.963 69.4541 261.682C69.7158 261.396 69.8467 261.064 69.8467 260.686V259.959C69.7646 260.025 69.5791 260.086 69.29 260.141C69.001 260.191 68.6924 260.24 68.3643 260.287C68.0244 260.338 67.7256 260.434 67.4678 260.574C67.21 260.715 67.0811 260.941 67.0811 261.254C67.0811 261.52 67.1846 261.729 67.3916 261.881C67.6025 262.029 67.8877 262.104 68.2471 262.104ZM75.4424 256.812V257.832H74.1885V261.365C74.1885 261.596 74.2354 261.756 74.3291 261.846C74.4229 261.936 74.5928 261.98 74.8389 261.98H75.4424V263H74.6631C73.5186 263 72.9463 262.508 72.9463 261.523V257.832H71.8564V256.812H72.9463V255.125H74.1885V256.812H75.4424ZM79.1865 256.812V257.832H77.9268V263H76.6904V257.832H75.583V256.812H76.6904V255.811C76.6904 255.322 76.8428 254.943 77.1475 254.674C77.4561 254.404 77.8896 254.27 78.4482 254.27H79.1865V255.289H78.6416C78.3799 255.289 78.1943 255.344 78.085 255.453C77.9795 255.562 77.9268 255.748 77.9268 256.01V256.812H79.1865ZM82.667 263.141C82.0771 263.141 81.5596 263.004 81.1143 262.73C80.6689 262.457 80.3213 262.078 80.0713 261.594C79.8252 261.109 79.7021 260.551 79.7021 259.918C79.7021 259.277 79.8252 258.715 80.0713 258.23C80.3213 257.742 80.6689 257.361 81.1143 257.088C81.5596 256.811 82.0771 256.672 82.667 256.672C83.2568 256.672 83.7725 256.811 84.2139 257.088C84.6592 257.361 85.0049 257.742 85.251 258.23C85.501 258.715 85.626 259.277 85.626 259.918C85.626 260.551 85.501 261.109 85.251 261.594C85.0049 262.078 84.6592 262.457 84.2139 262.73C83.7725 263.004 83.2568 263.141 82.667 263.141ZM82.667 262.074C83.1982 262.074 83.6162 261.879 83.9209 261.488C84.2256 261.098 84.3779 260.574 84.3779 259.918C84.3779 259.254 84.2236 258.725 83.915 258.33C83.6104 257.936 83.1943 257.738 82.667 257.738C82.1396 257.738 81.7217 257.936 81.4131 258.33C81.1084 258.721 80.9561 259.25 80.9561 259.918C80.9561 260.578 81.1084 261.104 81.4131 261.494C81.7178 261.881 82.1357 262.074 82.667 262.074ZM86.7217 263V256.812H87.9053V257.814H87.9287C88.042 257.475 88.2197 257.211 88.4619 257.023C88.708 256.832 89.0283 256.736 89.4229 256.736C89.5166 256.736 89.6025 256.74 89.6807 256.748C89.7588 256.756 89.8232 256.762 89.874 256.766V257.92C89.8271 257.908 89.7432 257.896 89.6221 257.885C89.501 257.869 89.3682 257.861 89.2236 257.861C88.876 257.861 88.5771 257.982 88.3271 258.225C88.0811 258.467 87.958 258.84 87.958 259.344V263H86.7217ZM90.835 263V256.812H92.0361V257.85C92.2275 257.467 92.4873 257.178 92.8154 256.982C93.1436 256.787 93.499 256.689 93.8818 256.689C94.3037 256.689 94.6729 256.797 94.9893 257.012C95.3096 257.227 95.5342 257.5 95.6631 257.832C95.8311 257.496 96.085 257.223 96.4248 257.012C96.7686 256.797 97.1689 256.689 97.626 256.689C98.0088 256.689 98.3564 256.773 98.6689 256.941C98.9814 257.109 99.2295 257.359 99.4131 257.691C99.5967 258.02 99.6885 258.432 99.6885 258.928V263H98.4463V259.033C98.4463 258.592 98.3232 258.271 98.0771 258.072C97.8311 257.873 97.54 257.773 97.2041 257.773C96.79 257.773 96.4639 257.902 96.2256 258.16C95.9873 258.414 95.8682 258.738 95.8682 259.133V263H94.6494V258.951C94.6494 258.596 94.5342 258.311 94.3037 258.096C94.0771 257.881 93.7881 257.773 93.4365 257.773C93.0771 257.773 92.7588 257.9 92.4814 258.154C92.208 258.408 92.0713 258.779 92.0713 259.268V263H90.835ZM104.048 263V254.27H105.882L107.839 259.385C107.917 259.607 108.019 259.9 108.144 260.264C108.269 260.623 108.382 260.955 108.483 261.26C108.581 260.955 108.692 260.623 108.817 260.264C108.942 259.9 109.044 259.607 109.122 259.385L111.05 254.27H112.89V263H111.612V258.242C111.612 257.93 111.616 257.566 111.624 257.152C111.632 256.734 111.642 256.318 111.653 255.904C111.493 256.377 111.341 256.822 111.196 257.24C111.056 257.658 110.938 257.992 110.845 258.242L109.005 263H107.938L106.081 258.242C105.991 258.004 105.876 257.689 105.735 257.299C105.599 256.904 105.45 256.48 105.29 256.027C105.302 256.426 105.312 256.82 105.319 257.211C105.327 257.602 105.331 257.945 105.331 258.242V263H104.048ZM117.032 263.141C116.419 263.141 115.892 263.002 115.45 262.725C115.013 262.447 114.675 262.066 114.437 261.582C114.202 261.094 114.085 260.539 114.085 259.918C114.085 259.289 114.208 258.73 114.454 258.242C114.7 257.754 115.04 257.371 115.474 257.094C115.907 256.812 116.405 256.672 116.968 256.672C117.554 256.672 118.062 256.809 118.491 257.082C118.925 257.355 119.261 257.736 119.499 258.225C119.737 258.709 119.856 259.27 119.856 259.906V260.24H115.304C115.327 260.799 115.487 261.25 115.784 261.594C116.085 261.938 116.507 262.109 117.05 262.109C117.456 262.109 117.79 262.018 118.052 261.834C118.313 261.65 118.487 261.412 118.573 261.119H119.763C119.688 261.518 119.522 261.869 119.265 262.174C119.011 262.479 118.69 262.717 118.304 262.889C117.921 263.057 117.497 263.141 117.032 263.141ZM115.315 259.303H118.649C118.599 258.811 118.425 258.422 118.128 258.137C117.831 257.848 117.448 257.703 116.979 257.703C116.511 257.703 116.128 257.848 115.831 258.137C115.538 258.422 115.366 258.811 115.315 259.303ZM120.929 263V256.812H122.112V257.814H122.136C122.249 257.475 122.427 257.211 122.669 257.023C122.915 256.832 123.235 256.736 123.63 256.736C123.724 256.736 123.81 256.74 123.888 256.748C123.966 256.756 124.03 256.762 124.081 256.766V257.92C124.034 257.908 123.95 257.896 123.829 257.885C123.708 257.869 123.575 257.861 123.431 257.861C123.083 257.861 122.784 257.982 122.534 258.225C122.288 258.467 122.165 258.84 122.165 259.344V263H120.929ZM127.562 263.141C126.972 263.141 126.454 263.004 126.009 262.73C125.567 262.457 125.224 262.078 124.978 261.594C124.731 261.105 124.608 260.547 124.608 259.918C124.608 259.281 124.731 258.719 124.978 258.23C125.228 257.742 125.573 257.361 126.015 257.088C126.456 256.811 126.972 256.672 127.562 256.672C128.054 256.672 128.493 256.77 128.88 256.965C129.271 257.156 129.587 257.422 129.829 257.762C130.071 258.102 130.218 258.49 130.269 258.928H129.038C128.976 258.58 128.819 258.295 128.569 258.072C128.319 257.85 127.985 257.738 127.567 257.738C127.032 257.738 126.614 257.936 126.313 258.33C126.013 258.725 125.862 259.254 125.862 259.918C125.862 260.574 126.013 261.098 126.313 261.488C126.614 261.879 127.032 262.074 127.567 262.074C127.993 262.074 128.321 261.967 128.552 261.752C128.782 261.533 128.938 261.242 129.021 260.879H130.269C130.222 261.309 130.077 261.695 129.835 262.039C129.593 262.379 129.276 262.648 128.886 262.848C128.495 263.043 128.054 263.141 127.562 263.141ZM132.56 259.438V263H131.323V254.27H132.56V257.703C132.985 257.027 133.601 256.689 134.405 256.689C134.831 256.689 135.212 256.783 135.548 256.971C135.888 257.154 136.155 257.428 136.351 257.791C136.546 258.154 136.644 258.605 136.644 259.145V263H135.407V259.297C135.407 258.801 135.288 258.428 135.05 258.178C134.812 257.924 134.479 257.797 134.054 257.797C133.632 257.797 133.276 257.928 132.987 258.189C132.702 258.447 132.56 258.863 132.56 259.438ZM139.925 263.1C139.308 263.1 138.796 262.943 138.39 262.631C137.983 262.314 137.78 261.848 137.78 261.23C137.78 260.762 137.896 260.402 138.126 260.152C138.36 259.898 138.663 259.717 139.034 259.607C139.409 259.498 139.806 259.418 140.224 259.367C140.61 259.32 140.917 259.281 141.144 259.25C141.37 259.219 141.53 259.172 141.624 259.109C141.722 259.047 141.771 258.939 141.771 258.787V258.734C141.771 258.434 141.661 258.188 141.442 257.996C141.224 257.801 140.917 257.703 140.522 257.703C140.128 257.703 139.806 257.799 139.556 257.99C139.306 258.178 139.169 258.414 139.146 258.699H137.933C137.96 258.109 138.208 257.627 138.677 257.252C139.146 256.877 139.767 256.689 140.54 256.689C141.302 256.689 141.901 256.877 142.339 257.252C142.776 257.627 142.995 258.129 142.995 258.758V263H141.776V262.121H141.753C141.624 262.371 141.419 262.598 141.138 262.801C140.86 263 140.456 263.1 139.925 263.1ZM140.177 262.104C140.724 262.104 141.126 261.963 141.384 261.682C141.646 261.396 141.776 261.064 141.776 260.686V259.959C141.694 260.025 141.509 260.086 141.22 260.141C140.931 260.191 140.622 260.24 140.294 260.287C139.954 260.338 139.655 260.434 139.397 260.574C139.14 260.715 139.011 260.941 139.011 261.254C139.011 261.52 139.114 261.729 139.321 261.881C139.532 262.029 139.817 262.104 140.177 262.104ZM145.626 259.438V263H144.39V256.812H145.603V257.744C146.024 257.041 146.647 256.689 147.472 256.689C147.897 256.689 148.278 256.783 148.614 256.971C148.954 257.154 149.222 257.428 149.417 257.791C149.612 258.154 149.71 258.605 149.71 259.145V263H148.474V259.297C148.474 258.801 148.354 258.428 148.116 258.178C147.878 257.924 147.546 257.797 147.12 257.797C146.698 257.797 146.343 257.928 146.054 258.189C145.769 258.447 145.626 258.863 145.626 259.438ZM154.087 256.812V257.832H152.833V261.365C152.833 261.596 152.88 261.756 152.974 261.846C153.067 261.936 153.237 261.98 153.483 261.98H154.087V263H153.308C152.163 263 151.591 262.508 151.591 261.523V257.832H150.501V256.812H151.591V255.125H152.833V256.812H154.087ZM157.321 263L160.491 254.27H162.062L165.208 263H163.796L163.022 260.732H159.501L158.704 263H157.321ZM159.894 259.625H162.642L162.114 258.078C161.997 257.719 161.872 257.334 161.739 256.924C161.606 256.514 161.454 256.025 161.282 255.459C161.106 256.025 160.952 256.514 160.819 256.924C160.687 257.334 160.56 257.719 160.438 258.078L159.894 259.625ZM168.413 263.141C167.823 263.141 167.306 263.004 166.86 262.73C166.419 262.457 166.075 262.078 165.829 261.594C165.583 261.105 165.46 260.547 165.46 259.918C165.46 259.281 165.583 258.719 165.829 258.23C166.079 257.742 166.425 257.361 166.866 257.088C167.308 256.811 167.823 256.672 168.413 256.672C168.905 256.672 169.345 256.77 169.731 256.965C170.122 257.156 170.438 257.422 170.681 257.762C170.923 258.102 171.069 258.49 171.12 258.928H169.89C169.827 258.58 169.671 258.295 169.421 258.072C169.171 257.85 168.837 257.738 168.419 257.738C167.884 257.738 167.466 257.936 167.165 258.33C166.864 258.725 166.714 259.254 166.714 259.918C166.714 260.574 166.864 261.098 167.165 261.488C167.466 261.879 167.884 262.074 168.419 262.074C168.845 262.074 169.173 261.967 169.403 261.752C169.634 261.533 169.79 261.242 169.872 260.879H171.12C171.073 261.309 170.929 261.695 170.687 262.039C170.444 262.379 170.128 262.648 169.737 262.848C169.347 263.043 168.905 263.141 168.413 263.141ZM174.823 263.141C174.233 263.141 173.716 263.004 173.271 262.73C172.829 262.457 172.485 262.078 172.239 261.594C171.993 261.105 171.87 260.547 171.87 259.918C171.87 259.281 171.993 258.719 172.239 258.23C172.489 257.742 172.835 257.361 173.276 257.088C173.718 256.811 174.233 256.672 174.823 256.672C175.315 256.672 175.755 256.77 176.142 256.965C176.532 257.156 176.849 257.422 177.091 257.762C177.333 258.102 177.479 258.49 177.53 258.928H176.3C176.237 258.58 176.081 258.295 175.831 258.072C175.581 257.85 175.247 257.738 174.829 257.738C174.294 257.738 173.876 257.936 173.575 258.33C173.274 258.725 173.124 259.254 173.124 259.918C173.124 260.574 173.274 261.098 173.575 261.488C173.876 261.879 174.294 262.074 174.829 262.074C175.255 262.074 175.583 261.967 175.813 261.752C176.044 261.533 176.2 261.242 176.282 260.879H177.53C177.483 261.309 177.339 261.695 177.097 262.039C176.854 262.379 176.538 262.648 176.147 262.848C175.757 263.043 175.315 263.141 174.823 263.141ZM181.245 263.141C180.655 263.141 180.138 263.004 179.692 262.73C179.247 262.457 178.899 262.078 178.649 261.594C178.403 261.109 178.28 260.551 178.28 259.918C178.28 259.277 178.403 258.715 178.649 258.23C178.899 257.742 179.247 257.361 179.692 257.088C180.138 256.811 180.655 256.672 181.245 256.672C181.835 256.672 182.351 256.811 182.792 257.088C183.237 257.361 183.583 257.742 183.829 258.23C184.079 258.715 184.204 259.277 184.204 259.918C184.204 260.551 184.079 261.109 183.829 261.594C183.583 262.078 183.237 262.457 182.792 262.73C182.351 263.004 181.835 263.141 181.245 263.141ZM181.245 262.074C181.776 262.074 182.194 261.879 182.499 261.488C182.804 261.098 182.956 260.574 182.956 259.918C182.956 259.254 182.802 258.725 182.493 258.33C182.188 257.936 181.772 257.738 181.245 257.738C180.718 257.738 180.3 257.936 179.991 258.33C179.687 258.721 179.534 259.25 179.534 259.918C179.534 260.578 179.687 261.104 179.991 261.494C180.296 261.881 180.714 262.074 181.245 262.074ZM187.538 263.123C187.116 263.123 186.735 263.031 186.396 262.848C186.06 262.66 185.792 262.385 185.593 262.021C185.397 261.658 185.3 261.207 185.3 260.668V256.812H186.536V260.516C186.536 261.012 186.655 261.387 186.894 261.641C187.132 261.891 187.466 262.016 187.896 262.016C188.313 262.016 188.665 261.887 188.95 261.629C189.239 261.367 189.384 260.949 189.384 260.375V256.812H190.62V263H189.407V262.068C188.985 262.771 188.362 263.123 187.538 263.123ZM193.251 259.438V263H192.015V256.812H193.228V257.744C193.649 257.041 194.272 256.689 195.097 256.689C195.522 256.689 195.903 256.783 196.239 256.971C196.579 257.154 196.847 257.428 197.042 257.791C197.237 258.154 197.335 258.605 197.335 259.145V263H196.099V259.297C196.099 258.801 195.979 258.428 195.741 258.178C195.503 257.924 195.171 257.797 194.745 257.797C194.323 257.797 193.968 257.928 193.679 258.189C193.394 258.447 193.251 258.863 193.251 259.438ZM201.712 256.812V257.832H200.458V261.365C200.458 261.596 200.505 261.756 200.599 261.846C200.692 261.936 200.862 261.98 201.108 261.98H201.712V263H200.933C199.788 263 199.216 262.508 199.216 261.523V257.832H198.126V256.812H199.216V255.125H200.458V256.812H201.712Z" fill="#1C6DEA"/>
</g>
</g>
<g clip-path="url(#clip2_5302_38219)">
<rect x="230" y="240" width="190" height="38" rx="8" fill="white"/>
<g filter="url(#filter2_d_5302_38219)">
<rect x="230" y="240" width="190" height="38" rx="8" fill="white"/>
<path d="M265.795 258.134C265.068 257.739 264.575 256.969 264.575 256.083C264.575 255.198 265.068 254.427 265.795 254.032M264.592 260.993C263.889 261.357 263.408 262.091 263.408 262.937C263.408 263.542 263.817 264.051 264.374 264.203M275.277 264.203C275.833 264.051 276.242 263.542 276.242 262.937C276.242 262.091 275.761 261.357 275.058 260.993M273.855 258.134C274.582 257.739 275.075 256.969 275.075 256.083C275.075 255.198 274.582 254.427 273.855 254.032M272.158 256.083C272.158 257.372 271.114 258.417 269.825 258.417C268.536 258.417 267.492 257.372 267.492 256.083C267.492 254.795 268.536 253.75 269.825 253.75C271.114 253.75 272.158 254.795 272.158 256.083ZM267.638 264.25H272.013C272.737 264.25 273.325 263.662 273.325 262.937C273.325 261.729 272.346 260.75 271.138 260.75H268.513C267.304 260.75 266.325 261.729 266.325 262.937C266.325 263.662 266.913 264.25 267.638 264.25Z" stroke="#717784" stroke-width="1.2" stroke-linecap="round" stroke-linejoin="round"/>
<path d="M283.212 263V254.27H285.046L287.003 259.385C287.081 259.607 287.183 259.9 287.308 260.264C287.433 260.623 287.546 260.955 287.647 261.26C287.745 260.955 287.856 260.623 287.981 260.264C288.106 259.9 288.208 259.607 288.286 259.385L290.214 254.27H292.054V263H290.776V258.242C290.776 257.93 290.78 257.566 290.788 257.152C290.796 256.734 290.806 256.318 290.817 255.904C290.657 256.377 290.505 256.822 290.36 257.24C290.22 257.658 290.103 257.992 290.009 258.242L288.169 263H287.103L285.245 258.242C285.155 258.004 285.04 257.689 284.899 257.299C284.763 256.904 284.614 256.48 284.454 256.027C284.466 256.426 284.476 256.82 284.483 257.211C284.491 257.602 284.495 257.945 284.495 258.242V263H283.212ZM296.196 263.141C295.583 263.141 295.056 263.002 294.614 262.725C294.177 262.447 293.839 262.066 293.601 261.582C293.366 261.094 293.249 260.539 293.249 259.918C293.249 259.289 293.372 258.73 293.618 258.242C293.864 257.754 294.204 257.371 294.638 257.094C295.071 256.812 295.569 256.672 296.132 256.672C296.718 256.672 297.226 256.809 297.655 257.082C298.089 257.355 298.425 257.736 298.663 258.225C298.901 258.709 299.021 259.27 299.021 259.906V260.24H294.468C294.491 260.799 294.651 261.25 294.948 261.594C295.249 261.938 295.671 262.109 296.214 262.109C296.62 262.109 296.954 262.018 297.216 261.834C297.478 261.65 297.651 261.412 297.737 261.119H298.927C298.853 261.518 298.687 261.869 298.429 262.174C298.175 262.479 297.854 262.717 297.468 262.889C297.085 263.057 296.661 263.141 296.196 263.141ZM294.479 259.303H297.813C297.763 258.811 297.589 258.422 297.292 258.137C296.995 257.848 296.612 257.703 296.144 257.703C295.675 257.703 295.292 257.848 294.995 258.137C294.702 258.422 294.53 258.811 294.479 259.303ZM300.093 263V256.812H301.276V257.814H301.3C301.413 257.475 301.591 257.211 301.833 257.023C302.079 256.832 302.399 256.736 302.794 256.736C302.888 256.736 302.974 256.74 303.052 256.748C303.13 256.756 303.194 256.762 303.245 256.766V257.92C303.198 257.908 303.114 257.896 302.993 257.885C302.872 257.869 302.739 257.861 302.595 257.861C302.247 257.861 301.948 257.982 301.698 258.225C301.452 258.467 301.329 258.84 301.329 259.344V263H300.093ZM306.726 263.141C306.136 263.141 305.618 263.004 305.173 262.73C304.731 262.457 304.388 262.078 304.142 261.594C303.896 261.105 303.772 260.547 303.772 259.918C303.772 259.281 303.896 258.719 304.142 258.23C304.392 257.742 304.737 257.361 305.179 257.088C305.62 256.811 306.136 256.672 306.726 256.672C307.218 256.672 307.657 256.77 308.044 256.965C308.435 257.156 308.751 257.422 308.993 257.762C309.235 258.102 309.382 258.49 309.433 258.928H308.202C308.14 258.58 307.983 258.295 307.733 258.072C307.483 257.85 307.149 257.738 306.731 257.738C306.196 257.738 305.778 257.936 305.478 258.33C305.177 258.725 305.026 259.254 305.026 259.918C305.026 260.574 305.177 261.098 305.478 261.488C305.778 261.879 306.196 262.074 306.731 262.074C307.157 262.074 307.485 261.967 307.716 261.752C307.946 261.533 308.103 261.242 308.185 260.879H309.433C309.386 261.309 309.241 261.695 308.999 262.039C308.757 262.379 308.44 262.648 308.05 262.848C307.659 263.043 307.218 263.141 306.726 263.141ZM311.724 259.438V263H310.487V254.27H311.724V257.703C312.149 257.027 312.765 256.689 313.569 256.689C313.995 256.689 314.376 256.783 314.712 256.971C315.052 257.154 315.319 257.428 315.515 257.791C315.71 258.154 315.808 258.605 315.808 259.145V263H314.571V259.297C314.571 258.801 314.452 258.428 314.214 258.178C313.976 257.924 313.644 257.797 313.218 257.797C312.796 257.797 312.44 257.928 312.151 258.189C311.866 258.447 311.724 258.863 311.724 259.438ZM319.089 263.1C318.472 263.1 317.96 262.943 317.554 262.631C317.147 262.314 316.944 261.848 316.944 261.23C316.944 260.762 317.06 260.402 317.29 260.152C317.524 259.898 317.827 259.717 318.198 259.607C318.573 259.498 318.97 259.418 319.388 259.367C319.774 259.32 320.081 259.281 320.308 259.25C320.534 259.219 320.694 259.172 320.788 259.109C320.886 259.047 320.935 258.939 320.935 258.787V258.734C320.935 258.434 320.825 258.188 320.606 257.996C320.388 257.801 320.081 257.703 319.687 257.703C319.292 257.703 318.97 257.799 318.72 257.99C318.47 258.178 318.333 258.414 318.31 258.699H317.097C317.124 258.109 317.372 257.627 317.841 257.252C318.31 256.877 318.931 256.689 319.704 256.689C320.466 256.689 321.065 256.877 321.503 257.252C321.94 257.627 322.159 258.129 322.159 258.758V263H320.94V262.121H320.917C320.788 262.371 320.583 262.598 320.302 262.801C320.024 263 319.62 263.1 319.089 263.1ZM319.341 262.104C319.888 262.104 320.29 261.963 320.548 261.682C320.81 261.396 320.94 261.064 320.94 260.686V259.959C320.858 260.025 320.673 260.086 320.384 260.141C320.095 260.191 319.786 260.24 319.458 260.287C319.118 260.338 318.819 260.434 318.562 260.574C318.304 260.715 318.175 260.941 318.175 261.254C318.175 261.52 318.278 261.729 318.485 261.881C318.696 262.029 318.981 262.104 319.341 262.104ZM324.79 259.438V263H323.554V256.812H324.767V257.744C325.188 257.041 325.812 256.689 326.636 256.689C327.062 256.689 327.442 256.783 327.778 256.971C328.118 257.154 328.386 257.428 328.581 257.791C328.776 258.154 328.874 258.605 328.874 259.145V263H327.638V259.297C327.638 258.801 327.519 258.428 327.28 258.178C327.042 257.924 326.71 257.797 326.284 257.797C325.862 257.797 325.507 257.928 325.218 258.189C324.933 258.447 324.79 258.863 324.79 259.438ZM333.251 256.812V257.832H331.997V261.365C331.997 261.596 332.044 261.756 332.138 261.846C332.231 261.936 332.401 261.98 332.647 261.98H333.251V263H332.472C331.327 263 330.755 262.508 330.755 261.523V257.832H329.665V256.812H330.755V255.125H331.997V256.812H333.251ZM336.485 263L339.655 254.27H341.226L344.372 263H342.96L342.187 260.732H338.665L337.868 263H336.485ZM339.058 259.625H341.806L341.278 258.078C341.161 257.719 341.036 257.334 340.903 256.924C340.771 256.514 340.618 256.025 340.446 255.459C340.271 256.025 340.116 256.514 339.983 256.924C339.851 257.334 339.724 257.719 339.603 258.078L339.058 259.625ZM347.577 263.141C346.987 263.141 346.47 263.004 346.024 262.73C345.583 262.457 345.239 262.078 344.993 261.594C344.747 261.105 344.624 260.547 344.624 259.918C344.624 259.281 344.747 258.719 344.993 258.23C345.243 257.742 345.589 257.361 346.03 257.088C346.472 256.811 346.987 256.672 347.577 256.672C348.069 256.672 348.509 256.77 348.896 256.965C349.286 257.156 349.603 257.422 349.845 257.762C350.087 258.102 350.233 258.49 350.284 258.928H349.054C348.991 258.58 348.835 258.295 348.585 258.072C348.335 257.85 348.001 257.738 347.583 257.738C347.048 257.738 346.63 257.936 346.329 258.33C346.028 258.725 345.878 259.254 345.878 259.918C345.878 260.574 346.028 261.098 346.329 261.488C346.63 261.879 347.048 262.074 347.583 262.074C348.009 262.074 348.337 261.967 348.567 261.752C348.798 261.533 348.954 261.242 349.036 260.879H350.284C350.237 261.309 350.093 261.695 349.851 262.039C349.608 262.379 349.292 262.648 348.901 262.848C348.511 263.043 348.069 263.141 347.577 263.141ZM353.987 263.141C353.397 263.141 352.88 263.004 352.435 262.73C351.993 262.457 351.649 262.078 351.403 261.594C351.157 261.105 351.034 260.547 351.034 259.918C351.034 259.281 351.157 258.719 351.403 258.23C351.653 257.742 351.999 257.361 352.44 257.088C352.882 256.811 353.397 256.672 353.987 256.672C354.479 256.672 354.919 256.77 355.306 256.965C355.696 257.156 356.013 257.422 356.255 257.762C356.497 258.102 356.644 258.49 356.694 258.928H355.464C355.401 258.58 355.245 258.295 354.995 258.072C354.745 257.85 354.411 257.738 353.993 257.738C353.458 257.738 353.04 257.936 352.739 258.33C352.438 258.725 352.288 259.254 352.288 259.918C352.288 260.574 352.438 261.098 352.739 261.488C353.04 261.879 353.458 262.074 353.993 262.074C354.419 262.074 354.747 261.967 354.978 261.752C355.208 261.533 355.364 261.242 355.446 260.879H356.694C356.647 261.309 356.503 261.695 356.261 262.039C356.019 262.379 355.702 262.648 355.312 262.848C354.921 263.043 354.479 263.141 353.987 263.141ZM360.409 263.141C359.819 263.141 359.302 263.004 358.856 262.73C358.411 262.457 358.063 262.078 357.813 261.594C357.567 261.109 357.444 260.551 357.444 259.918C357.444 259.277 357.567 258.715 357.813 258.23C358.063 257.742 358.411 257.361 358.856 257.088C359.302 256.811 359.819 256.672 360.409 256.672C360.999 256.672 361.515 256.811 361.956 257.088C362.401 257.361 362.747 257.742 362.993 258.23C363.243 258.715 363.368 259.277 363.368 259.918C363.368 260.551 363.243 261.109 362.993 261.594C362.747 262.078 362.401 262.457 361.956 262.73C361.515 263.004 360.999 263.141 360.409 263.141ZM360.409 262.074C360.94 262.074 361.358 261.879 361.663 261.488C361.968 261.098 362.12 260.574 362.12 259.918C362.12 259.254 361.966 258.725 361.657 258.33C361.353 257.936 360.937 257.738 360.409 257.738C359.882 257.738 359.464 257.936 359.155 258.33C358.851 258.721 358.698 259.25 358.698 259.918C358.698 260.578 358.851 261.104 359.155 261.494C359.46 261.881 359.878 262.074 360.409 262.074ZM366.702 263.123C366.28 263.123 365.899 263.031 365.56 262.848C365.224 262.66 364.956 262.385 364.757 262.021C364.562 261.658 364.464 261.207 364.464 260.668V256.812H365.7V260.516C365.7 261.012 365.819 261.387 366.058 261.641C366.296 261.891 366.63 262.016 367.06 262.016C367.478 262.016 367.829 261.887 368.114 261.629C368.403 261.367 368.548 260.949 368.548 260.375V256.812H369.784V263H368.571V262.068C368.149 262.771 367.526 263.123 366.702 263.123ZM372.415 259.438V263H371.179V256.812H372.392V257.744C372.813 257.041 373.437 256.689 374.261 256.689C374.687 256.689 375.067 256.783 375.403 256.971C375.743 257.154 376.011 257.428 376.206 257.791C376.401 258.154 376.499 258.605 376.499 259.145V263H375.263V259.297C375.263 258.801 375.144 258.428 374.905 258.178C374.667 257.924 374.335 257.797 373.909 257.797C373.487 257.797 373.132 257.928 372.843 258.189C372.558 258.447 372.415 258.863 372.415 259.438ZM380.876 256.812V257.832H379.622V261.365C379.622 261.596 379.669 261.756 379.763 261.846C379.856 261.936 380.026 261.98 380.272 261.98H380.876V263H380.097C378.952 263 378.38 262.508 378.38 261.523V257.832H377.29V256.812H378.38V255.125H379.622V256.812H380.876ZM384.04 263.146C383.567 263.146 383.142 263.07 382.763 262.918C382.384 262.766 382.077 262.539 381.843 262.238C381.612 261.938 381.483 261.564 381.456 261.119H382.675C382.745 261.814 383.192 262.162 384.017 262.162C384.407 262.162 384.716 262.082 384.942 261.922C385.173 261.762 385.288 261.559 385.288 261.312C385.288 261.102 385.206 260.934 385.042 260.809C384.878 260.68 384.663 260.586 384.397 260.527L383.372 260.299C382.188 260.041 381.597 259.451 381.597 258.529C381.597 257.982 381.813 257.537 382.247 257.193C382.685 256.85 383.257 256.678 383.964 256.678C384.663 256.678 385.237 256.859 385.687 257.223C386.14 257.582 386.374 258.074 386.39 258.699H385.206C385.202 258.398 385.089 258.15 384.866 257.955C384.644 257.756 384.349 257.656 383.981 257.656C383.63 257.656 383.351 257.738 383.144 257.902C382.937 258.066 382.833 258.268 382.833 258.506C382.833 258.717 382.911 258.887 383.067 259.016C383.228 259.145 383.446 259.24 383.724 259.303L384.778 259.537C385.38 259.67 385.823 259.875 386.108 260.152C386.394 260.43 386.536 260.793 386.536 261.242C386.536 261.637 386.427 261.977 386.208 262.262C385.993 262.543 385.698 262.762 385.323 262.918C384.948 263.07 384.521 263.146 384.04 263.146Z" fill="#717784"/>
</g>
</g>
<rect x="229.65" y="239.65" width="190.7" height="38.7" rx="8.35" stroke="#E1E4EA" stroke-width="0.7"/>
<path d="M220 106L220 144" stroke="#1C6DEA"/>
<path d="M221 181V202.984C221 207.402 224.582 210.984 229 210.984H312C316.418 210.984 320 214.565 320 218.984V240" stroke="#E1E4EA"/>
<path d="M221 181V202.475C221 206.894 217.418 210.475 213 210.475H123C118.582 210.475 115 214.057 115 218.475V239" stroke="#1C6DEA"/>
<defs>
<filter id="filter0_d_5302_38219" x="115.663" y="67.3313" width="210.675" height="40.6748" filterUnits="userSpaceOnUse" color-interpolation-filters="sRGB">
<feFlood flood-opacity="0" result="BackgroundImageFix"/>
<feColorMatrix in="SourceAlpha" type="matrix" values="0 0 0 0 0 0 0 0 0 0 0 0 0 0 0 0 0 0 127 0" result="hardAlpha"/>
<feOffset dy="0.668712"/>
<feGaussianBlur stdDeviation="0.668712"/>
<feColorMatrix type="matrix" values="0 0 0 0 0 0 0 0 0 0 0 0 0 0 0 0 0 0 0.04 0"/>
<feBlend mode="normal" in2="BackgroundImageFix" result="effect1_dropShadow_5302_38219"/>
<feBlend mode="normal" in="SourceGraphic" in2="effect1_dropShadow_5302_38219" result="shape"/>
</filter>
<filter id="filter1_d_5302_38219" x="22.6626" y="239.331" width="192.675" height="40.6748" filterUnits="userSpaceOnUse" color-interpolation-filters="sRGB">
<feFlood flood-opacity="0" result="BackgroundImageFix"/>
<feColorMatrix in="SourceAlpha" type="matrix" values="0 0 0 0 0 0 0 0 0 0 0 0 0 0 0 0 0 0 127 0" result="hardAlpha"/>
<feOffset dy="0.668712"/>
<feGaussianBlur stdDeviation="0.668712"/>
<feColorMatrix type="matrix" values="0 0 0 0 0 0 0 0 0 0 0 0 0 0 0 0 0 0 0.04 0"/>
<feBlend mode="normal" in2="BackgroundImageFix" result="effect1_dropShadow_5302_38219"/>
<feBlend mode="normal" in="SourceGraphic" in2="effect1_dropShadow_5302_38219" result="shape"/>
</filter>
<filter id="filter2_d_5302_38219" x="228.663" y="239.331" width="192.675" height="40.6748" filterUnits="userSpaceOnUse" color-interpolation-filters="sRGB">
<feFlood flood-opacity="0" result="BackgroundImageFix"/>
<feColorMatrix in="SourceAlpha" type="matrix" values="0 0 0 0 0 0 0 0 0 0 0 0 0 0 0 0 0 0 127 0" result="hardAlpha"/>
<feOffset dy="0.668712"/>
<feGaussianBlur stdDeviation="0.668712"/>
<feColorMatrix type="matrix" values="0 0 0 0 0 0 0 0 0 0 0 0 0 0 0 0 0 0 0.04 0"/>
<feBlend mode="normal" in2="BackgroundImageFix" result="effect1_dropShadow_5302_38219"/>
<feBlend mode="normal" in="SourceGraphic" in2="effect1_dropShadow_5302_38219" result="shape"/>
</filter>
<clipPath id="clip0_5302_38219">
<rect x="117" y="68" width="208" height="38" rx="5.34969" fill="white"/>
</clipPath>
<clipPath id="clip1_5302_38219">
<rect x="24" y="240" width="190" height="38" rx="5.34969" fill="white"/>
</clipPath>
<clipPath id="clip2_5302_38219">
<rect x="230" y="240" width="190" height="38" rx="8" fill="white"/>
</clipPath>
</defs>
</svg>
