<svg width="848" height="318" viewBox="0 0 848 318" fill="none" xmlns="http://www.w3.org/2000/svg">
<rect x="0.5" y="0.5" width="847" height="317" rx="11.5" fill="#F5F7FA"/>
<rect x="0.5" y="0.5" width="847" height="317" rx="11.5" stroke="#ECEFF3"/>
<path d="M387.236 52.1641C386.325 52.1641 385.511 51.9476 384.796 51.5146C384.085 51.0771 383.522 50.4665 383.107 49.6826C382.697 48.8942 382.492 47.9714 382.492 46.9141C382.492 45.8522 382.697 44.9271 383.107 44.1387C383.522 43.3503 384.085 42.7396 384.796 42.3066C385.511 41.8691 386.325 41.6504 387.236 41.6504C388.143 41.6504 388.954 41.8691 389.67 42.3066C390.385 42.7396 390.948 43.3503 391.358 44.1387C391.773 44.9271 391.98 45.8522 391.98 46.9141C391.98 47.9714 391.773 48.8942 391.358 49.6826C390.948 50.471 390.385 51.0817 389.67 51.5146C388.954 51.9476 388.143 52.1641 387.236 52.1641ZM387.236 50.5439C387.792 50.5439 388.289 50.4027 388.727 50.1201C389.169 49.8376 389.517 49.4274 389.772 48.8896C390.028 48.3473 390.155 47.6888 390.155 46.9141C390.155 46.1348 390.028 45.474 389.772 44.9316C389.517 44.3893 389.169 43.9769 388.727 43.6943C388.289 43.4118 387.792 43.2705 387.236 43.2705C386.68 43.2705 386.181 43.4118 385.739 43.6943C385.302 43.9769 384.953 44.3893 384.693 44.9316C384.438 45.474 384.311 46.1348 384.311 46.9141C384.311 47.6888 384.438 48.3473 384.693 48.8896C384.953 49.4274 385.302 49.8376 385.739 50.1201C386.181 50.4027 386.68 50.5439 387.236 50.5439ZM393.238 52V44.7812H394.899V45.9775H394.92C395.052 45.5674 395.259 45.2552 395.542 45.041C395.829 44.8223 396.205 44.7129 396.67 44.7129C396.788 44.7129 396.893 44.7174 396.984 44.7266C397.08 44.7311 397.162 44.7357 397.23 44.7402V46.2715C397.167 46.2624 397.057 46.251 396.902 46.2373C396.747 46.2236 396.586 46.2168 396.417 46.2168C396.007 46.2168 395.66 46.3581 395.378 46.6406C395.1 46.9232 394.961 47.347 394.961 47.9121V52H393.238ZM401.407 54.9531C400.455 54.9531 399.698 54.748 399.138 54.3379C398.577 53.9277 398.249 53.3717 398.153 52.6699H399.842C399.924 52.9798 400.104 53.2145 400.382 53.374C400.66 53.5381 401.002 53.6201 401.407 53.6201C401.945 53.6201 402.362 53.4743 402.658 53.1826C402.959 52.891 403.109 52.4694 403.109 51.918V50.8174H403.103C402.87 51.2412 402.567 51.5534 402.193 51.7539C401.82 51.9499 401.396 52.0479 400.922 52.0479C400.293 52.0479 399.744 51.8906 399.274 51.5762C398.805 51.2617 398.44 50.8288 398.181 50.2773C397.925 49.7214 397.798 49.0811 397.798 48.3564C397.798 47.6273 397.928 46.9824 398.188 46.4219C398.447 45.8613 398.812 45.4238 399.281 45.1094C399.751 44.7949 400.293 44.6377 400.908 44.6377C401.378 44.6377 401.801 44.738 402.18 44.9385C402.562 45.1344 402.872 45.4398 403.109 45.8545H403.116V44.7812H404.818V51.8154C404.818 52.5583 404.67 53.1598 404.374 53.6201C404.078 54.085 403.672 54.4222 403.157 54.6318C402.642 54.846 402.059 54.9531 401.407 54.9531ZM401.325 50.626C401.89 50.626 402.341 50.4186 402.679 50.0039C403.021 49.5846 403.191 49.0286 403.191 48.3359C403.191 47.6432 403.021 47.0895 402.679 46.6748C402.341 46.2555 401.89 46.0459 401.325 46.0459C400.792 46.0459 400.361 46.2441 400.033 46.6406C399.705 47.0371 399.541 47.6022 399.541 48.3359C399.541 49.0742 399.705 49.6416 400.033 50.0381C400.361 50.43 400.792 50.626 401.325 50.626ZM408.551 52.1162C407.831 52.1162 407.234 51.9362 406.76 51.5762C406.29 51.2116 406.056 50.6693 406.056 49.9492C406.056 49.4023 406.188 48.9808 406.452 48.6846C406.721 48.3838 407.07 48.165 407.498 48.0283C407.931 47.8916 408.396 47.7982 408.893 47.748C409.562 47.6706 410.03 47.6022 410.294 47.543C410.558 47.4837 410.69 47.3311 410.69 47.085V47.0303C410.69 46.7204 410.572 46.4674 410.335 46.2715C410.103 46.0755 409.781 45.9775 409.371 45.9775C408.952 45.9775 408.61 46.0755 408.346 46.2715C408.086 46.4674 407.945 46.7181 407.922 47.0234H406.261C406.302 46.3079 406.6 45.7314 407.156 45.2939C407.712 44.8564 408.462 44.6377 409.405 44.6377C410.344 44.6377 411.078 44.8564 411.606 45.2939C412.135 45.7314 412.399 46.3262 412.399 47.0781V52H410.704V50.9814H410.677C410.504 51.3005 410.253 51.5693 409.925 51.7881C409.597 52.0068 409.139 52.1162 408.551 52.1162ZM408.975 50.8379C409.54 50.8379 409.968 50.6921 410.26 50.4004C410.551 50.1042 410.697 49.7464 410.697 49.3271V48.5479C410.592 48.6162 410.39 48.68 410.089 48.7393C409.788 48.7939 409.46 48.8486 409.104 48.9033C408.735 48.958 408.414 49.0628 408.141 49.2178C407.872 49.3682 407.737 49.6074 407.737 49.9355C407.737 50.2181 407.849 50.4391 408.072 50.5986C408.296 50.7581 408.596 50.8379 408.975 50.8379ZM415.646 47.9189V52H413.924V44.7812H415.619V45.8887C416.12 45.0547 416.859 44.6377 417.834 44.6377C418.59 44.6377 419.208 44.8815 419.687 45.3691C420.17 45.8568 420.411 46.5632 420.411 47.4883V52H418.682V47.7617C418.682 47.2331 418.554 46.832 418.299 46.5586C418.044 46.2852 417.686 46.1484 417.226 46.1484C416.774 46.1484 416.398 46.2897 416.098 46.5723C415.797 46.8548 415.646 47.3037 415.646 47.9189ZM421.949 52V44.7812H423.672V52H421.949ZM422.811 43.708C422.514 43.708 422.268 43.6146 422.072 43.4277C421.876 43.2363 421.778 43.0016 421.778 42.7236C421.778 42.4456 421.876 42.2132 422.072 42.0264C422.268 41.8395 422.514 41.7461 422.811 41.7461C423.102 41.7461 423.346 41.8395 423.542 42.0264C423.738 42.2132 423.836 42.4456 423.836 42.7236C423.836 43.0016 423.738 43.2363 423.542 43.4277C423.346 43.6146 423.102 43.708 422.811 43.708ZM425.087 52V50.8037L428.792 46.2168V46.1963H425.087V44.7812H430.856V46.0459L427.213 50.5713V50.5918H430.897V52H425.087ZM434.514 52.1162C433.794 52.1162 433.197 51.9362 432.723 51.5762C432.253 51.2116 432.019 50.6693 432.019 49.9492C432.019 49.4023 432.151 48.9808 432.415 48.6846C432.684 48.3838 433.033 48.165 433.461 48.0283C433.894 47.8916 434.359 47.7982 434.855 47.748C435.525 47.6706 435.993 47.6022 436.257 47.543C436.521 47.4837 436.653 47.3311 436.653 47.085V47.0303C436.653 46.7204 436.535 46.4674 436.298 46.2715C436.065 46.0755 435.744 45.9775 435.334 45.9775C434.915 45.9775 434.573 46.0755 434.309 46.2715C434.049 46.4674 433.908 46.7181 433.885 47.0234H432.224C432.265 46.3079 432.563 45.7314 433.119 45.2939C433.675 44.8564 434.425 44.6377 435.368 44.6377C436.307 44.6377 437.041 44.8564 437.569 45.2939C438.098 45.7314 438.362 46.3262 438.362 47.0781V52H436.667V50.9814H436.64C436.466 51.3005 436.216 51.5693 435.888 51.7881C435.56 52.0068 435.102 52.1162 434.514 52.1162ZM434.938 50.8379C435.503 50.8379 435.931 50.6921 436.223 50.4004C436.514 50.1042 436.66 49.7464 436.66 49.3271V48.5479C436.555 48.6162 436.353 48.68 436.052 48.7393C435.751 48.7939 435.423 48.8486 435.067 48.9033C434.698 48.958 434.377 49.0628 434.104 49.2178C433.835 49.3682 433.7 49.6074 433.7 49.9355C433.7 50.2181 433.812 50.4391 434.035 50.5986C434.258 50.7581 434.559 50.8379 434.938 50.8379ZM443.694 44.7812V46.1689H442.225V49.9287C442.225 50.1885 442.277 50.3685 442.382 50.4688C442.487 50.5645 442.678 50.6123 442.956 50.6123H443.694V52H442.655C441.922 52 441.377 51.8519 441.021 51.5557C440.671 51.2594 440.495 50.8014 440.495 50.1816V46.1689H439.237V44.7812H440.495V42.8125H442.225V44.7812H443.694ZM444.781 52V44.7812H446.504V52H444.781ZM445.643 43.708C445.346 43.708 445.1 43.6146 444.904 43.4277C444.708 43.2363 444.61 43.0016 444.61 42.7236C444.61 42.4456 444.708 42.2132 444.904 42.0264C445.1 41.8395 445.346 41.7461 445.643 41.7461C445.934 41.7461 446.178 41.8395 446.374 42.0264C446.57 42.2132 446.668 42.4456 446.668 42.7236C446.668 43.0016 446.57 43.2363 446.374 43.4277C446.178 43.6146 445.934 43.708 445.643 43.708ZM451.262 52.1641C450.551 52.1641 449.929 52.0068 449.396 51.6924C448.862 51.3734 448.445 50.9313 448.145 50.3662C447.848 49.8011 447.7 49.1449 447.7 48.3975C447.7 47.6501 447.848 46.9938 448.145 46.4287C448.445 45.859 448.862 45.4147 449.396 45.0957C449.929 44.7767 450.551 44.6172 451.262 44.6172C451.968 44.6172 452.588 44.7767 453.121 45.0957C453.659 45.4147 454.076 45.859 454.372 46.4287C454.673 46.9938 454.823 47.6501 454.823 48.3975C454.823 49.1449 454.673 49.8011 454.372 50.3662C454.076 50.9313 453.659 51.3734 453.121 51.6924C452.588 52.0068 451.968 52.1641 451.262 52.1641ZM451.262 50.7217C451.813 50.7217 452.253 50.5143 452.581 50.0996C452.909 49.6849 453.073 49.1175 453.073 48.3975C453.073 47.6774 452.909 47.1077 452.581 46.6885C452.253 46.2692 451.813 46.0596 451.262 46.0596C450.706 46.0596 450.264 46.2692 449.936 46.6885C449.607 47.1032 449.443 47.6729 449.443 48.3975C449.443 49.1175 449.607 49.6849 449.936 50.0996C450.264 50.5143 450.706 50.7217 451.262 50.7217ZM457.742 47.9189V52H456.02V44.7812H457.715V45.8887C458.216 45.0547 458.954 44.6377 459.93 44.6377C460.686 44.6377 461.304 44.8815 461.782 45.3691C462.265 45.8568 462.507 46.5632 462.507 47.4883V52H460.777V47.7617C460.777 47.2331 460.65 46.832 460.395 46.5586C460.139 46.2852 459.782 46.1484 459.321 46.1484C458.87 46.1484 458.494 46.2897 458.193 46.5723C457.893 46.8548 457.742 47.3037 457.742 47.9189Z" fill="#525866"/>
<g filter="url(#filter0_d_6682_8900)">
<g clip-path="url(#clip0_6682_8900)">
<g filter="url(#filter1_d_6682_8900)">
<rect x="319" y="68" width="208" height="38" rx="19" fill="white"/>
<path d="M364.659 88.1667C364.659 87.8445 364.92 87.5834 365.242 87.5834H365.826C366.148 87.5834 366.409 87.8445 366.409 88.1667C366.409 88.4889 366.148 88.75 365.826 88.75H365.242C364.92 88.75 364.659 88.4889 364.659 88.1667Z" fill="#1C6DEA"/>
<path d="M365.242 89.9167C364.92 89.9167 364.659 90.1779 364.659 90.5C364.659 90.8222 364.92 91.0834 365.242 91.0834H365.826C366.148 91.0834 366.409 90.8222 366.409 90.5C366.409 90.1779 366.148 89.9167 365.826 89.9167H365.242Z" fill="#1C6DEA"/>
<path fill-rule="evenodd" clip-rule="evenodd" d="M358.92 80.5834C358.612 80.5834 358.347 80.5834 358.128 80.6012C357.898 80.6201 357.668 80.6617 357.448 80.7741C357.118 80.9419 356.851 81.2096 356.683 81.5389C356.57 81.7596 356.529 81.989 356.51 82.2196C356.492 82.4381 356.492 82.7034 356.492 83.0109L356.492 91.9186C356.492 92.0659 356.492 92.2092 356.502 92.3307C356.513 92.464 356.539 92.6214 356.619 92.7797C356.731 92.9992 356.91 93.1777 357.129 93.2895C357.288 93.3702 357.445 93.3959 357.578 93.4068C357.7 93.4167 357.843 93.4167 357.99 93.4167C360.887 93.4167 363.768 93.4167 366.661 93.4167C366.808 93.4167 366.951 93.4167 367.073 93.4068C367.206 93.3959 367.364 93.3702 367.522 93.2895C367.741 93.1777 367.92 92.9992 368.032 92.7797C368.112 92.6214 368.138 92.464 368.149 92.3307C368.159 92.2092 368.159 92.0659 368.159 91.9186L368.159 87.6776C368.159 87.3701 368.159 87.1048 368.141 86.8863C368.122 86.6557 368.081 86.4263 367.968 86.2056C367.8 85.8763 367.533 85.6086 367.203 85.4408C366.983 85.3283 366.753 85.2867 366.523 85.2679C366.304 85.25 366.039 85.25 365.731 85.25L364.076 85.25V83.0109C364.076 82.7034 364.076 82.4381 364.058 82.2196C364.039 81.989 363.997 81.7596 363.885 81.5389C363.717 81.2096 363.449 80.9419 363.12 80.7741C362.899 80.6617 362.67 80.6201 362.439 80.6012C362.221 80.5834 361.956 80.5834 361.648 80.5834H358.92ZM366.642 92.25H364.071C364.076 92.1478 364.076 92.0344 364.076 91.9187L364.076 86.4167H365.709C366.045 86.4167 366.262 86.4172 366.428 86.4307C366.586 86.4436 366.645 86.4656 366.674 86.4803C366.783 86.5362 366.873 86.6255 366.929 86.7352C366.943 86.7641 366.965 86.8228 366.978 86.9813C366.992 87.1466 366.992 87.3637 366.992 87.7V91.9C366.992 92.073 366.992 92.1677 366.986 92.2357L366.986 92.2434L366.978 92.244C366.91 92.2496 366.815 92.25 366.642 92.25ZM358.68 83.5C358.68 83.1779 358.941 82.9167 359.263 82.9167H361.305C361.627 82.9167 361.888 83.1779 361.888 83.5C361.888 83.8222 361.627 84.0834 361.305 84.0834H359.263C358.941 84.0834 358.68 83.8222 358.68 83.5ZM358.68 85.8334C358.68 85.5112 358.941 85.25 359.263 85.25H361.305C361.627 85.25 361.888 85.5112 361.888 85.8334C361.888 86.1555 361.627 86.4167 361.305 86.4167H359.263C358.941 86.4167 358.68 86.1555 358.68 85.8334ZM359.263 87.5834C358.941 87.5834 358.68 87.8445 358.68 88.1667C358.68 88.4889 358.941 88.75 359.263 88.75H361.305C361.627 88.75 361.888 88.4889 361.888 88.1667C361.888 87.8445 361.627 87.5834 361.305 87.5834H359.263ZM358.68 90.5C358.68 90.1779 358.941 89.9167 359.263 89.9167H361.305C361.627 89.9167 361.888 90.1779 361.888 90.5C361.888 90.8222 361.627 91.0834 361.305 91.0834H359.263C358.941 91.0834 358.68 90.8222 358.68 90.5Z" fill="#1C6DEA"/>
<path d="M375.581 91V82.2695H378.815C379.749 82.2695 380.489 82.5137 381.036 83.002C381.583 83.4902 381.856 84.1523 381.856 84.9883C381.856 85.5469 381.729 86.0312 381.476 86.4414C381.222 86.8477 380.864 87.1621 380.403 87.3848C379.942 87.6035 379.399 87.7129 378.774 87.7129H376.882V91H375.581ZM376.882 86.5879H378.751C379.313 86.5879 379.757 86.4453 380.081 86.1602C380.409 85.8711 380.573 85.4805 380.573 84.9883C380.573 84.4961 380.409 84.1094 380.081 83.8281C379.757 83.543 379.313 83.4004 378.751 83.4004H376.882V86.5879ZM384.136 82.2695V91H382.899V82.2695H384.136ZM387.423 91.0996C386.806 91.0996 386.294 90.9434 385.888 90.6309C385.481 90.3145 385.278 89.8477 385.278 89.2305C385.278 88.7617 385.394 88.4023 385.624 88.1523C385.858 87.8984 386.161 87.7168 386.532 87.6074C386.907 87.498 387.304 87.418 387.722 87.3672C388.108 87.3203 388.415 87.2812 388.642 87.25C388.868 87.2188 389.028 87.1719 389.122 87.1094C389.22 87.0469 389.269 86.9395 389.269 86.7871V86.7344C389.269 86.4336 389.159 86.1875 388.94 85.9961C388.722 85.8008 388.415 85.7031 388.021 85.7031C387.626 85.7031 387.304 85.7988 387.054 85.9902C386.804 86.1777 386.667 86.4141 386.644 86.6992H385.431C385.458 86.1094 385.706 85.627 386.175 85.252C386.644 84.877 387.265 84.6895 388.038 84.6895C388.8 84.6895 389.399 84.877 389.837 85.252C390.274 85.627 390.493 86.1289 390.493 86.7578V91H389.274V90.1211H389.251C389.122 90.3711 388.917 90.5977 388.636 90.8008C388.358 91 387.954 91.0996 387.423 91.0996ZM387.675 90.1035C388.222 90.1035 388.624 89.9629 388.882 89.6816C389.144 89.3965 389.274 89.0645 389.274 88.6855V87.959C389.192 88.0254 389.007 88.0859 388.718 88.1406C388.429 88.1914 388.12 88.2402 387.792 88.2871C387.452 88.3379 387.153 88.4336 386.896 88.5742C386.638 88.7148 386.509 88.9414 386.509 89.2539C386.509 89.5195 386.612 89.7285 386.819 89.8809C387.03 90.0293 387.315 90.1035 387.675 90.1035ZM394.87 84.8125V85.832H393.616V89.3652C393.616 89.5957 393.663 89.7559 393.757 89.8457C393.851 89.9355 394.021 89.9805 394.267 89.9805H394.87V91H394.091C392.946 91 392.374 90.5078 392.374 89.5234V85.832H391.284V84.8125H392.374V83.125H393.616V84.8125H394.87ZM398.614 84.8125V85.832H397.354V91H396.118V85.832H395.011V84.8125H396.118V83.8105C396.118 83.3223 396.271 82.9434 396.575 82.6738C396.884 82.4043 397.317 82.2695 397.876 82.2695H398.614V83.2891H398.069C397.808 83.2891 397.622 83.3438 397.513 83.4531C397.407 83.5625 397.354 83.748 397.354 84.0098V84.8125H398.614ZM402.095 91.1406C401.505 91.1406 400.987 91.0039 400.542 90.7305C400.097 90.457 399.749 90.0781 399.499 89.5938C399.253 89.1094 399.13 88.5508 399.13 87.918C399.13 87.2773 399.253 86.7148 399.499 86.2305C399.749 85.7422 400.097 85.3613 400.542 85.0879C400.987 84.8105 401.505 84.6719 402.095 84.6719C402.685 84.6719 403.2 84.8105 403.642 85.0879C404.087 85.3613 404.433 85.7422 404.679 86.2305C404.929 86.7148 405.054 87.2773 405.054 87.918C405.054 88.5508 404.929 89.1094 404.679 89.5938C404.433 90.0781 404.087 90.457 403.642 90.7305C403.2 91.0039 402.685 91.1406 402.095 91.1406ZM402.095 90.0742C402.626 90.0742 403.044 89.8789 403.349 89.4883C403.653 89.0977 403.806 88.5742 403.806 87.918C403.806 87.2539 403.651 86.7246 403.343 86.3301C403.038 85.9355 402.622 85.7383 402.095 85.7383C401.567 85.7383 401.149 85.9355 400.841 86.3301C400.536 86.7207 400.384 87.25 400.384 87.918C400.384 88.5781 400.536 89.1035 400.841 89.4941C401.146 89.8809 401.563 90.0742 402.095 90.0742ZM406.149 91V84.8125H407.333V85.8145H407.356C407.47 85.4746 407.647 85.2109 407.89 85.0234C408.136 84.832 408.456 84.7363 408.851 84.7363C408.944 84.7363 409.03 84.7402 409.108 84.748C409.187 84.7559 409.251 84.7617 409.302 84.7656V85.9199C409.255 85.9082 409.171 85.8965 409.05 85.8848C408.929 85.8691 408.796 85.8613 408.651 85.8613C408.304 85.8613 408.005 85.9824 407.755 86.2246C407.509 86.4668 407.386 86.8398 407.386 87.3438V91H406.149ZM410.263 91V84.8125H411.464V85.8496C411.655 85.4668 411.915 85.1777 412.243 84.9824C412.571 84.7871 412.927 84.6895 413.31 84.6895C413.731 84.6895 414.101 84.7969 414.417 85.0117C414.737 85.2266 414.962 85.5 415.091 85.832C415.259 85.4961 415.513 85.2227 415.853 85.0117C416.196 84.7969 416.597 84.6895 417.054 84.6895C417.437 84.6895 417.784 84.7734 418.097 84.9414C418.409 85.1094 418.657 85.3594 418.841 85.6914C419.024 86.0195 419.116 86.4316 419.116 86.9277V91H417.874V87.0332C417.874 86.5918 417.751 86.2715 417.505 86.0723C417.259 85.873 416.968 85.7734 416.632 85.7734C416.218 85.7734 415.892 85.9023 415.653 86.1602C415.415 86.4141 415.296 86.7383 415.296 87.1328V91H414.077V86.9512C414.077 86.5957 413.962 86.3105 413.731 86.0957C413.505 85.8809 413.216 85.7734 412.864 85.7734C412.505 85.7734 412.187 85.9004 411.909 86.1543C411.636 86.4082 411.499 86.7793 411.499 87.2676V91H410.263ZM427.167 91.1406C426.394 91.1406 425.704 90.9512 425.099 90.5723C424.493 90.1934 424.017 89.666 423.669 88.9902C423.325 88.3145 423.153 87.5312 423.153 86.6406C423.153 85.7461 423.325 84.9609 423.669 84.2852C424.017 83.6055 424.493 83.0762 425.099 82.6973C425.704 82.3184 426.394 82.1289 427.167 82.1289C427.944 82.1289 428.636 82.3184 429.241 82.6973C429.847 83.0762 430.321 83.6055 430.665 84.2852C431.013 84.9609 431.187 85.7461 431.187 86.6406C431.187 87.5312 431.013 88.3145 430.665 88.9902C430.321 89.666 429.847 90.1934 429.241 90.5723C428.636 90.9512 427.944 91.1406 427.167 91.1406ZM427.167 89.9512C427.671 89.9512 428.128 89.8242 428.538 89.5703C428.948 89.3125 429.274 88.9375 429.517 88.4453C429.759 87.9492 429.88 87.3477 429.88 86.6406C429.88 85.9297 429.759 85.3262 429.517 84.8301C429.274 84.334 428.948 83.959 428.538 83.7051C428.128 83.4473 427.671 83.3184 427.167 83.3184C426.667 83.3184 426.212 83.4473 425.802 83.7051C425.392 83.959 425.065 84.334 424.823 84.8301C424.581 85.3262 424.46 85.9297 424.46 86.6406C424.46 87.3477 424.581 87.9492 424.823 88.4453C425.065 88.9375 425.392 89.3125 425.802 89.5703C426.212 89.8242 426.667 89.9512 427.167 89.9512ZM432.364 91V84.8125H433.548V85.8145H433.571C433.685 85.4746 433.862 85.2109 434.104 85.0234C434.351 84.832 434.671 84.7363 435.065 84.7363C435.159 84.7363 435.245 84.7402 435.323 84.748C435.401 84.7559 435.466 84.7617 435.517 84.7656V85.9199C435.47 85.9082 435.386 85.8965 435.265 85.8848C435.144 85.8691 435.011 85.8613 434.866 85.8613C434.519 85.8613 434.22 85.9824 433.97 86.2246C433.724 86.4668 433.601 86.8398 433.601 87.3438V91H432.364ZM439.05 93.5312C438.292 93.5312 437.673 93.3633 437.192 93.0273C436.712 92.6914 436.431 92.2207 436.349 91.6152H437.585C437.663 91.916 437.833 92.1426 438.095 92.2949C438.356 92.4473 438.675 92.5234 439.05 92.5234C439.55 92.5234 439.94 92.3887 440.222 92.1191C440.503 91.8496 440.644 91.4648 440.644 90.9648V90.0273H440.638C440.423 90.3867 440.151 90.6523 439.823 90.8242C439.499 90.9961 439.134 91.082 438.728 91.082C438.188 91.082 437.718 90.9473 437.315 90.6777C436.913 90.4043 436.601 90.0293 436.378 89.5527C436.155 89.0723 436.044 88.5176 436.044 87.8887C436.044 87.2598 436.155 86.7051 436.378 86.2246C436.604 85.7441 436.919 85.3691 437.321 85.0996C437.724 84.8262 438.19 84.6895 438.722 84.6895C439.124 84.6895 439.493 84.7754 439.829 84.9473C440.165 85.1191 440.437 85.3887 440.644 85.7559H440.649V84.8125H441.868V90.918C441.868 91.543 441.741 92.0469 441.487 92.4297C441.233 92.8125 440.894 93.0918 440.468 93.2676C440.042 93.4434 439.569 93.5312 439.05 93.5312ZM438.979 90.0215C439.507 90.0215 439.927 89.8281 440.239 89.4414C440.556 89.0508 440.714 88.5312 440.714 87.8828C440.714 87.2344 440.556 86.7168 440.239 86.3301C439.927 85.9395 439.507 85.7441 438.979 85.7441C438.479 85.7441 438.073 85.9277 437.761 86.2949C437.452 86.6582 437.298 87.1875 437.298 87.8828C437.298 88.5781 437.452 89.1094 437.761 89.4766C438.073 89.8398 438.479 90.0215 438.979 90.0215ZM445.149 91.0996C444.532 91.0996 444.021 90.9434 443.614 90.6309C443.208 90.3145 443.005 89.8477 443.005 89.2305C443.005 88.7617 443.12 88.4023 443.351 88.1523C443.585 87.8984 443.888 87.7168 444.259 87.6074C444.634 87.498 445.03 87.418 445.448 87.3672C445.835 87.3203 446.142 87.2812 446.368 87.25C446.595 87.2188 446.755 87.1719 446.849 87.1094C446.946 87.0469 446.995 86.9395 446.995 86.7871V86.7344C446.995 86.4336 446.886 86.1875 446.667 85.9961C446.448 85.8008 446.142 85.7031 445.747 85.7031C445.353 85.7031 445.03 85.7988 444.78 85.9902C444.53 86.1777 444.394 86.4141 444.37 86.6992H443.157C443.185 86.1094 443.433 85.627 443.901 85.252C444.37 84.877 444.991 84.6895 445.765 84.6895C446.526 84.6895 447.126 84.877 447.563 85.252C448.001 85.627 448.22 86.1289 448.22 86.7578V91H447.001V90.1211H446.978C446.849 90.3711 446.644 90.5977 446.362 90.8008C446.085 91 445.681 91.0996 445.149 91.0996ZM445.401 90.1035C445.948 90.1035 446.351 89.9629 446.608 89.6816C446.87 89.3965 447.001 89.0645 447.001 88.6855V87.959C446.919 88.0254 446.733 88.0859 446.444 88.1406C446.155 88.1914 445.847 88.2402 445.519 88.2871C445.179 88.3379 444.88 88.4336 444.622 88.5742C444.364 88.7148 444.235 88.9414 444.235 89.2539C444.235 89.5195 444.339 89.7285 444.546 89.8809C444.757 90.0293 445.042 90.1035 445.401 90.1035ZM450.851 87.4375V91H449.614V84.8125H450.827V85.7441C451.249 85.041 451.872 84.6895 452.696 84.6895C453.122 84.6895 453.503 84.7832 453.839 84.9707C454.179 85.1543 454.446 85.4277 454.642 85.791C454.837 86.1543 454.935 86.6055 454.935 87.1445V91H453.698V87.2969C453.698 86.8008 453.579 86.4277 453.341 86.1777C453.103 85.9238 452.771 85.7969 452.345 85.7969C451.923 85.7969 451.567 85.9277 451.278 86.1895C450.993 86.4473 450.851 86.8633 450.851 87.4375ZM456.329 91V84.8125H457.565V91H456.329ZM456.944 83.7461C456.726 83.7461 456.54 83.6738 456.388 83.5293C456.239 83.3809 456.165 83.2012 456.165 82.9902C456.165 82.7754 456.239 82.5957 456.388 82.4512C456.54 82.3027 456.726 82.2285 456.944 82.2285C457.163 82.2285 457.349 82.3027 457.501 82.4512C457.653 82.5957 457.729 82.7754 457.729 82.9902C457.729 83.2012 457.653 83.3809 457.501 83.5293C457.349 83.6738 457.163 83.7461 456.944 83.7461ZM458.825 91V90.1035L462.106 85.8848V85.8613H458.825V84.8125H463.601V85.75L460.366 89.9277V89.9512H463.636V91H458.825ZM466.771 91.0996C466.153 91.0996 465.642 90.9434 465.235 90.6309C464.829 90.3145 464.626 89.8477 464.626 89.2305C464.626 88.7617 464.741 88.4023 464.972 88.1523C465.206 87.8984 465.509 87.7168 465.88 87.6074C466.255 87.498 466.651 87.418 467.069 87.3672C467.456 87.3203 467.763 87.2812 467.989 87.25C468.216 87.2188 468.376 87.1719 468.47 87.1094C468.567 87.0469 468.616 86.9395 468.616 86.7871V86.7344C468.616 86.4336 468.507 86.1875 468.288 85.9961C468.069 85.8008 467.763 85.7031 467.368 85.7031C466.974 85.7031 466.651 85.7988 466.401 85.9902C466.151 86.1777 466.015 86.4141 465.991 86.6992H464.778C464.806 86.1094 465.054 85.627 465.522 85.252C465.991 84.877 466.612 84.6895 467.386 84.6895C468.147 84.6895 468.747 84.877 469.185 85.252C469.622 85.627 469.841 86.1289 469.841 86.7578V91H468.622V90.1211H468.599C468.47 90.3711 468.265 90.5977 467.983 90.8008C467.706 91 467.302 91.0996 466.771 91.0996ZM467.022 90.1035C467.569 90.1035 467.972 89.9629 468.229 89.6816C468.491 89.3965 468.622 89.0645 468.622 88.6855V87.959C468.54 88.0254 468.354 88.0859 468.065 88.1406C467.776 88.1914 467.468 88.2402 467.14 88.2871C466.8 88.3379 466.501 88.4336 466.243 88.5742C465.985 88.7148 465.856 88.9414 465.856 89.2539C465.856 89.5195 465.96 89.7285 466.167 89.8809C466.378 90.0293 466.663 90.1035 467.022 90.1035ZM474.218 84.8125V85.832H472.964V89.3652C472.964 89.5957 473.011 89.7559 473.104 89.8457C473.198 89.9355 473.368 89.9805 473.614 89.9805H474.218V91H473.438C472.294 91 471.722 90.5078 471.722 89.5234V85.832H470.632V84.8125H471.722V83.125H472.964V84.8125H474.218ZM475.196 91V84.8125H476.433V91H475.196ZM475.812 83.7461C475.593 83.7461 475.407 83.6738 475.255 83.5293C475.106 83.3809 475.032 83.2012 475.032 82.9902C475.032 82.7754 475.106 82.5957 475.255 82.4512C475.407 82.3027 475.593 82.2285 475.812 82.2285C476.03 82.2285 476.216 82.3027 476.368 82.4512C476.521 82.5957 476.597 82.7754 476.597 82.9902C476.597 83.2012 476.521 83.3809 476.368 83.5293C476.216 83.6738 476.03 83.7461 475.812 83.7461ZM480.493 91.1406C479.903 91.1406 479.386 91.0039 478.94 90.7305C478.495 90.457 478.147 90.0781 477.897 89.5938C477.651 89.1094 477.528 88.5508 477.528 87.918C477.528 87.2773 477.651 86.7148 477.897 86.2305C478.147 85.7422 478.495 85.3613 478.94 85.0879C479.386 84.8105 479.903 84.6719 480.493 84.6719C481.083 84.6719 481.599 84.8105 482.04 85.0879C482.485 85.3613 482.831 85.7422 483.077 86.2305C483.327 86.7148 483.452 87.2773 483.452 87.918C483.452 88.5508 483.327 89.1094 483.077 89.5938C482.831 90.0781 482.485 90.457 482.04 90.7305C481.599 91.0039 481.083 91.1406 480.493 91.1406ZM480.493 90.0742C481.024 90.0742 481.442 89.8789 481.747 89.4883C482.052 89.0977 482.204 88.5742 482.204 87.918C482.204 87.2539 482.05 86.7246 481.741 86.3301C481.437 85.9355 481.021 85.7383 480.493 85.7383C479.966 85.7383 479.548 85.9355 479.239 86.3301C478.935 86.7207 478.782 87.25 478.782 87.918C478.782 88.5781 478.935 89.1035 479.239 89.4941C479.544 89.8809 479.962 90.0742 480.493 90.0742ZM485.784 87.4375V91H484.548V84.8125H485.761V85.7441C486.183 85.041 486.806 84.6895 487.63 84.6895C488.056 84.6895 488.437 84.7832 488.772 84.9707C489.112 85.1543 489.38 85.4277 489.575 85.791C489.771 86.1543 489.868 86.6055 489.868 87.1445V91H488.632V87.2969C488.632 86.8008 488.513 86.4277 488.274 86.1777C488.036 85.9238 487.704 85.7969 487.278 85.7969C486.856 85.7969 486.501 85.9277 486.212 86.1895C485.927 86.4473 485.784 86.8633 485.784 87.4375Z" fill="#1C6DEA"/>
</g>
</g>
</g>
<path d="M390.848 167V156.814H393.445L395.428 162.167C395.523 162.45 395.644 162.819 395.79 163.274C395.936 163.726 396.068 164.149 396.187 164.546C396.305 164.149 396.435 163.726 396.576 163.274C396.722 162.819 396.843 162.45 396.938 162.167L398.887 156.814H401.498V167H399.721V161.805C399.721 161.445 399.728 161.003 399.741 160.479C399.755 159.954 399.769 159.433 399.782 158.913C399.6 159.487 399.427 160.036 399.263 160.561C399.099 161.08 398.962 161.495 398.853 161.805L396.911 167H395.435L393.479 161.805C393.375 161.508 393.24 161.114 393.076 160.622C392.917 160.125 392.748 159.604 392.57 159.057C392.584 159.558 392.595 160.057 392.604 160.554C392.618 161.046 392.625 161.463 392.625 161.805V167H390.848ZM406.297 167.164C405.577 167.164 404.952 167.002 404.424 166.679C403.895 166.355 403.487 165.911 403.2 165.346C402.918 164.776 402.776 164.127 402.776 163.397C402.776 162.664 402.922 162.014 403.214 161.449C403.51 160.88 403.918 160.433 404.438 160.109C404.957 159.781 405.554 159.617 406.229 159.617C406.921 159.617 407.527 159.777 408.047 160.096C408.566 160.415 408.97 160.857 409.257 161.422C409.544 161.982 409.688 162.632 409.688 163.37V163.842H404.465C404.488 164.43 404.661 164.904 404.984 165.264C405.308 165.624 405.759 165.804 406.338 165.804C406.771 165.804 407.129 165.71 407.411 165.523C407.694 165.332 407.885 165.081 407.985 164.771H409.599C409.507 165.241 409.307 165.656 408.997 166.016C408.692 166.376 408.307 166.658 407.842 166.863C407.377 167.064 406.862 167.164 406.297 167.164ZM404.479 162.652H408.033C407.979 162.137 407.792 161.732 407.473 161.436C407.158 161.135 406.753 160.984 406.256 160.984C405.755 160.984 405.347 161.135 405.032 161.436C404.722 161.732 404.538 162.137 404.479 162.652ZM410.863 167V159.781H412.524V160.978H412.545C412.677 160.567 412.884 160.255 413.167 160.041C413.454 159.822 413.83 159.713 414.295 159.713C414.413 159.713 414.518 159.717 414.609 159.727C414.705 159.731 414.787 159.736 414.855 159.74V161.271C414.792 161.262 414.682 161.251 414.527 161.237C414.372 161.224 414.211 161.217 414.042 161.217C413.632 161.217 413.285 161.358 413.003 161.641C412.725 161.923 412.586 162.347 412.586 162.912V167H410.863ZM418.95 167.164C418.248 167.164 417.631 167.005 417.098 166.686C416.569 166.367 416.157 165.924 415.86 165.359C415.569 164.794 415.423 164.14 415.423 163.397C415.423 162.655 415.569 162.001 415.86 161.436C416.157 160.866 416.569 160.422 417.098 160.103C417.631 159.779 418.248 159.617 418.95 159.617C419.556 159.617 420.096 159.736 420.57 159.973C421.044 160.205 421.425 160.529 421.712 160.943C422.004 161.354 422.174 161.827 422.225 162.365H420.536C420.472 161.978 420.306 161.663 420.037 161.422C419.773 161.176 419.417 161.053 418.971 161.053C418.406 161.053 417.964 161.265 417.645 161.688C417.326 162.112 417.166 162.682 417.166 163.397C417.166 164.108 417.326 164.676 417.645 165.1C417.964 165.519 418.406 165.729 418.971 165.729C419.422 165.729 419.773 165.61 420.023 165.373C420.274 165.132 420.44 164.81 420.522 164.409H422.225C422.184 164.938 422.017 165.41 421.726 165.824C421.438 166.239 421.056 166.567 420.577 166.809C420.103 167.046 419.561 167.164 418.95 167.164ZM425.109 162.919V167H423.387V156.814H425.109V160.841C425.611 160.039 426.34 159.638 427.297 159.638C428.053 159.638 428.671 159.882 429.149 160.369C429.632 160.857 429.874 161.563 429.874 162.488V167H428.145V162.762C428.145 162.233 428.017 161.832 427.762 161.559C427.507 161.285 427.149 161.148 426.688 161.148C426.237 161.148 425.861 161.29 425.561 161.572C425.26 161.855 425.109 162.304 425.109 162.919ZM433.613 167.116C432.893 167.116 432.296 166.936 431.822 166.576C431.353 166.212 431.118 165.669 431.118 164.949C431.118 164.402 431.25 163.981 431.515 163.685C431.784 163.384 432.132 163.165 432.561 163.028C432.993 162.892 433.458 162.798 433.955 162.748C434.625 162.671 435.092 162.602 435.356 162.543C435.621 162.484 435.753 162.331 435.753 162.085V162.03C435.753 161.72 435.634 161.467 435.397 161.271C435.165 161.076 434.844 160.978 434.434 160.978C434.014 160.978 433.673 161.076 433.408 161.271C433.148 161.467 433.007 161.718 432.984 162.023H431.323C431.364 161.308 431.663 160.731 432.219 160.294C432.775 159.856 433.524 159.638 434.468 159.638C435.407 159.638 436.14 159.856 436.669 160.294C437.198 160.731 437.462 161.326 437.462 162.078V167H435.767V165.981H435.739C435.566 166.3 435.315 166.569 434.987 166.788C434.659 167.007 434.201 167.116 433.613 167.116ZM434.037 165.838C434.602 165.838 435.031 165.692 435.322 165.4C435.614 165.104 435.76 164.746 435.76 164.327V163.548C435.655 163.616 435.452 163.68 435.151 163.739C434.851 163.794 434.522 163.849 434.167 163.903C433.798 163.958 433.477 164.063 433.203 164.218C432.934 164.368 432.8 164.607 432.8 164.936C432.8 165.218 432.911 165.439 433.135 165.599C433.358 165.758 433.659 165.838 434.037 165.838ZM440.709 162.919V167H438.986V159.781H440.682V160.889C441.183 160.055 441.921 159.638 442.896 159.638C443.653 159.638 444.271 159.882 444.749 160.369C445.232 160.857 445.474 161.563 445.474 162.488V167H443.744V162.762C443.744 162.233 443.617 161.832 443.361 161.559C443.106 161.285 442.748 161.148 442.288 161.148C441.837 161.148 441.461 161.29 441.16 161.572C440.859 161.855 440.709 162.304 440.709 162.919ZM450.819 159.781V161.169H449.35V164.929C449.35 165.188 449.402 165.368 449.507 165.469C449.612 165.564 449.803 165.612 450.081 165.612H450.819V167H449.78C449.047 167 448.502 166.852 448.146 166.556C447.796 166.259 447.62 165.801 447.62 165.182V161.169H446.362V159.781H447.62V157.812H449.35V159.781H450.819ZM454.613 167.171C453.734 167.171 452.998 166.966 452.405 166.556C451.817 166.141 451.496 165.546 451.441 164.771H453.144C453.18 165.122 453.321 165.396 453.567 165.592C453.813 165.783 454.153 165.879 454.586 165.879C455.001 165.879 455.326 165.797 455.563 165.633C455.805 165.469 455.926 165.259 455.926 165.004C455.926 164.785 455.837 164.61 455.659 164.478C455.481 164.345 455.242 164.247 454.941 164.184L453.711 163.931C452.307 163.639 451.605 162.944 451.605 161.846C451.605 161.18 451.87 160.645 452.398 160.239C452.927 159.829 453.631 159.624 454.511 159.624C455.386 159.624 456.097 159.84 456.644 160.273C457.195 160.702 457.48 161.287 457.498 162.03H455.878C455.869 161.707 455.743 161.44 455.502 161.23C455.26 161.021 454.944 160.916 454.552 160.916C454.174 160.916 453.875 161 453.656 161.169C453.438 161.338 453.328 161.545 453.328 161.791C453.328 162.005 453.412 162.181 453.581 162.317C453.75 162.45 453.984 162.55 454.285 162.618L455.584 162.885C456.299 163.035 456.826 163.272 457.163 163.596C457.505 163.919 457.676 164.345 457.676 164.874C457.676 165.343 457.544 165.751 457.279 166.098C457.02 166.439 456.66 166.704 456.199 166.891C455.739 167.077 455.21 167.171 454.613 167.171Z" fill="#525866"/>
<g filter="url(#filter2_d_6682_8900)">
<g clip-path="url(#clip1_6682_8900)">
<rect x="226" y="240" width="190" height="38" rx="19" fill="white"/>
<g filter="url(#filter3_d_6682_8900)">
<rect x="226" y="240" width="190" height="38" rx="19" fill="white"/>
<path d="M244.825 253.312C243.295 253.312 242.054 254.553 242.054 256.083C242.054 257.614 243.295 258.854 244.825 258.854C246.355 258.854 247.596 257.614 247.596 256.083C247.596 254.553 246.355 253.312 244.825 253.312Z" fill="#1C6DEA"/>
<path d="M243.723 260.118C241.711 259.56 239.721 261.073 239.721 263.162C239.721 264.004 240.404 264.688 241.247 264.688H248.403C249.246 264.688 249.929 264.004 249.929 263.162C249.929 261.073 247.939 259.56 245.927 260.118L245.521 260.23C245.065 260.356 244.584 260.356 244.129 260.23L243.723 260.118Z" fill="#1C6DEA"/>
<path d="M258.153 263V254.27H261.388C262.321 254.27 263.062 254.514 263.608 255.002C264.155 255.49 264.429 256.152 264.429 256.988C264.429 257.547 264.302 258.031 264.048 258.441C263.794 258.848 263.437 259.162 262.976 259.385C262.515 259.604 261.972 259.713 261.347 259.713H259.454V263H258.153ZM259.454 258.588H261.323C261.886 258.588 262.329 258.445 262.653 258.16C262.981 257.871 263.146 257.48 263.146 256.988C263.146 256.496 262.981 256.109 262.653 255.828C262.329 255.543 261.886 255.4 261.323 255.4H259.454V258.588ZM266.708 254.27V263H265.472V254.27H266.708ZM269.995 263.1C269.378 263.1 268.866 262.943 268.46 262.631C268.054 262.314 267.851 261.848 267.851 261.23C267.851 260.762 267.966 260.402 268.196 260.152C268.431 259.898 268.733 259.717 269.104 259.607C269.479 259.498 269.876 259.418 270.294 259.367C270.681 259.32 270.987 259.281 271.214 259.25C271.44 259.219 271.601 259.172 271.694 259.109C271.792 259.047 271.841 258.939 271.841 258.787V258.734C271.841 258.434 271.731 258.188 271.513 257.996C271.294 257.801 270.987 257.703 270.593 257.703C270.198 257.703 269.876 257.799 269.626 257.99C269.376 258.178 269.239 258.414 269.216 258.699H268.003C268.03 258.109 268.278 257.627 268.747 257.252C269.216 256.877 269.837 256.689 270.61 256.689C271.372 256.689 271.972 256.877 272.409 257.252C272.847 257.627 273.065 258.129 273.065 258.758V263H271.847V262.121H271.823C271.694 262.371 271.489 262.598 271.208 262.801C270.931 263 270.526 263.1 269.995 263.1ZM270.247 262.104C270.794 262.104 271.196 261.963 271.454 261.682C271.716 261.396 271.847 261.064 271.847 260.686V259.959C271.765 260.025 271.579 260.086 271.29 260.141C271.001 260.191 270.692 260.24 270.364 260.287C270.024 260.338 269.726 260.434 269.468 260.574C269.21 260.715 269.081 260.941 269.081 261.254C269.081 261.52 269.185 261.729 269.392 261.881C269.603 262.029 269.888 262.104 270.247 262.104ZM277.442 256.812V257.832H276.188V261.365C276.188 261.596 276.235 261.756 276.329 261.846C276.423 261.936 276.593 261.98 276.839 261.98H277.442V263H276.663C275.519 263 274.946 262.508 274.946 261.523V257.832H273.856V256.812H274.946V255.125H276.188V256.812H277.442ZM281.187 256.812V257.832H279.927V263H278.69V257.832H277.583V256.812H278.69V255.811C278.69 255.322 278.843 254.943 279.147 254.674C279.456 254.404 279.89 254.27 280.448 254.27H281.187V255.289H280.642C280.38 255.289 280.194 255.344 280.085 255.453C279.979 255.562 279.927 255.748 279.927 256.01V256.812H281.187ZM284.667 263.141C284.077 263.141 283.56 263.004 283.114 262.73C282.669 262.457 282.321 262.078 282.071 261.594C281.825 261.109 281.702 260.551 281.702 259.918C281.702 259.277 281.825 258.715 282.071 258.23C282.321 257.742 282.669 257.361 283.114 257.088C283.56 256.811 284.077 256.672 284.667 256.672C285.257 256.672 285.772 256.811 286.214 257.088C286.659 257.361 287.005 257.742 287.251 258.23C287.501 258.715 287.626 259.277 287.626 259.918C287.626 260.551 287.501 261.109 287.251 261.594C287.005 262.078 286.659 262.457 286.214 262.73C285.772 263.004 285.257 263.141 284.667 263.141ZM284.667 262.074C285.198 262.074 285.616 261.879 285.921 261.488C286.226 261.098 286.378 260.574 286.378 259.918C286.378 259.254 286.224 258.725 285.915 258.33C285.61 257.936 285.194 257.738 284.667 257.738C284.14 257.738 283.722 257.936 283.413 258.33C283.108 258.721 282.956 259.25 282.956 259.918C282.956 260.578 283.108 261.104 283.413 261.494C283.718 261.881 284.136 262.074 284.667 262.074ZM288.722 263V256.812H289.905V257.814H289.929C290.042 257.475 290.22 257.211 290.462 257.023C290.708 256.832 291.028 256.736 291.423 256.736C291.517 256.736 291.603 256.74 291.681 256.748C291.759 256.756 291.823 256.762 291.874 256.766V257.92C291.827 257.908 291.743 257.896 291.622 257.885C291.501 257.869 291.368 257.861 291.224 257.861C290.876 257.861 290.577 257.982 290.327 258.225C290.081 258.467 289.958 258.84 289.958 259.344V263H288.722ZM292.835 263V256.812H294.036V257.85C294.228 257.467 294.487 257.178 294.815 256.982C295.144 256.787 295.499 256.689 295.882 256.689C296.304 256.689 296.673 256.797 296.989 257.012C297.31 257.227 297.534 257.5 297.663 257.832C297.831 257.496 298.085 257.223 298.425 257.012C298.769 256.797 299.169 256.689 299.626 256.689C300.009 256.689 300.356 256.773 300.669 256.941C300.981 257.109 301.229 257.359 301.413 257.691C301.597 258.02 301.688 258.432 301.688 258.928V263H300.446V259.033C300.446 258.592 300.323 258.271 300.077 258.072C299.831 257.873 299.54 257.773 299.204 257.773C298.79 257.773 298.464 257.902 298.226 258.16C297.987 258.414 297.868 258.738 297.868 259.133V263H296.649V258.951C296.649 258.596 296.534 258.311 296.304 258.096C296.077 257.881 295.788 257.773 295.437 257.773C295.077 257.773 294.759 257.9 294.481 258.154C294.208 258.408 294.071 258.779 294.071 259.268V263H292.835ZM306.048 263V254.27H307.882L309.839 259.385C309.917 259.607 310.019 259.9 310.144 260.264C310.269 260.623 310.382 260.955 310.483 261.26C310.581 260.955 310.692 260.623 310.817 260.264C310.942 259.9 311.044 259.607 311.122 259.385L313.05 254.27H314.89V263H313.612V258.242C313.612 257.93 313.616 257.566 313.624 257.152C313.632 256.734 313.642 256.318 313.653 255.904C313.493 256.377 313.341 256.822 313.196 257.24C313.056 257.658 312.938 257.992 312.845 258.242L311.005 263H309.938L308.081 258.242C307.991 258.004 307.876 257.689 307.735 257.299C307.599 256.904 307.45 256.48 307.29 256.027C307.302 256.426 307.312 256.82 307.319 257.211C307.327 257.602 307.331 257.945 307.331 258.242V263H306.048ZM319.032 263.141C318.419 263.141 317.892 263.002 317.45 262.725C317.013 262.447 316.675 262.066 316.437 261.582C316.202 261.094 316.085 260.539 316.085 259.918C316.085 259.289 316.208 258.73 316.454 258.242C316.7 257.754 317.04 257.371 317.474 257.094C317.907 256.812 318.405 256.672 318.968 256.672C319.554 256.672 320.062 256.809 320.491 257.082C320.925 257.355 321.261 257.736 321.499 258.225C321.737 258.709 321.856 259.27 321.856 259.906V260.24H317.304C317.327 260.799 317.487 261.25 317.784 261.594C318.085 261.938 318.507 262.109 319.05 262.109C319.456 262.109 319.79 262.018 320.052 261.834C320.313 261.65 320.487 261.412 320.573 261.119H321.763C321.688 261.518 321.522 261.869 321.265 262.174C321.011 262.479 320.69 262.717 320.304 262.889C319.921 263.057 319.497 263.141 319.032 263.141ZM317.315 259.303H320.649C320.599 258.811 320.425 258.422 320.128 258.137C319.831 257.848 319.448 257.703 318.979 257.703C318.511 257.703 318.128 257.848 317.831 258.137C317.538 258.422 317.366 258.811 317.315 259.303ZM322.929 263V256.812H324.112V257.814H324.136C324.249 257.475 324.427 257.211 324.669 257.023C324.915 256.832 325.235 256.736 325.63 256.736C325.724 256.736 325.81 256.74 325.888 256.748C325.966 256.756 326.03 256.762 326.081 256.766V257.92C326.034 257.908 325.95 257.896 325.829 257.885C325.708 257.869 325.575 257.861 325.431 257.861C325.083 257.861 324.784 257.982 324.534 258.225C324.288 258.467 324.165 258.84 324.165 259.344V263H322.929ZM329.562 263.141C328.972 263.141 328.454 263.004 328.009 262.73C327.567 262.457 327.224 262.078 326.978 261.594C326.731 261.105 326.608 260.547 326.608 259.918C326.608 259.281 326.731 258.719 326.978 258.23C327.228 257.742 327.573 257.361 328.015 257.088C328.456 256.811 328.972 256.672 329.562 256.672C330.054 256.672 330.493 256.77 330.88 256.965C331.271 257.156 331.587 257.422 331.829 257.762C332.071 258.102 332.218 258.49 332.269 258.928H331.038C330.976 258.58 330.819 258.295 330.569 258.072C330.319 257.85 329.985 257.738 329.567 257.738C329.032 257.738 328.614 257.936 328.313 258.33C328.013 258.725 327.862 259.254 327.862 259.918C327.862 260.574 328.013 261.098 328.313 261.488C328.614 261.879 329.032 262.074 329.567 262.074C329.993 262.074 330.321 261.967 330.552 261.752C330.782 261.533 330.938 261.242 331.021 260.879H332.269C332.222 261.309 332.077 261.695 331.835 262.039C331.593 262.379 331.276 262.648 330.886 262.848C330.495 263.043 330.054 263.141 329.562 263.141ZM334.56 259.438V263H333.323V254.27H334.56V257.703C334.985 257.027 335.601 256.689 336.405 256.689C336.831 256.689 337.212 256.783 337.548 256.971C337.888 257.154 338.155 257.428 338.351 257.791C338.546 258.154 338.644 258.605 338.644 259.145V263H337.407V259.297C337.407 258.801 337.288 258.428 337.05 258.178C336.812 257.924 336.479 257.797 336.054 257.797C335.632 257.797 335.276 257.928 334.987 258.189C334.702 258.447 334.56 258.863 334.56 259.438ZM341.925 263.1C341.308 263.1 340.796 262.943 340.39 262.631C339.983 262.314 339.78 261.848 339.78 261.23C339.78 260.762 339.896 260.402 340.126 260.152C340.36 259.898 340.663 259.717 341.034 259.607C341.409 259.498 341.806 259.418 342.224 259.367C342.61 259.32 342.917 259.281 343.144 259.25C343.37 259.219 343.53 259.172 343.624 259.109C343.722 259.047 343.771 258.939 343.771 258.787V258.734C343.771 258.434 343.661 258.188 343.442 257.996C343.224 257.801 342.917 257.703 342.522 257.703C342.128 257.703 341.806 257.799 341.556 257.99C341.306 258.178 341.169 258.414 341.146 258.699H339.933C339.96 258.109 340.208 257.627 340.677 257.252C341.146 256.877 341.767 256.689 342.54 256.689C343.302 256.689 343.901 256.877 344.339 257.252C344.776 257.627 344.995 258.129 344.995 258.758V263H343.776V262.121H343.753C343.624 262.371 343.419 262.598 343.138 262.801C342.86 263 342.456 263.1 341.925 263.1ZM342.177 262.104C342.724 262.104 343.126 261.963 343.384 261.682C343.646 261.396 343.776 261.064 343.776 260.686V259.959C343.694 260.025 343.509 260.086 343.22 260.141C342.931 260.191 342.622 260.24 342.294 260.287C341.954 260.338 341.655 260.434 341.397 260.574C341.14 260.715 341.011 260.941 341.011 261.254C341.011 261.52 341.114 261.729 341.321 261.881C341.532 262.029 341.817 262.104 342.177 262.104ZM347.626 259.438V263H346.39V256.812H347.603V257.744C348.024 257.041 348.647 256.689 349.472 256.689C349.897 256.689 350.278 256.783 350.614 256.971C350.954 257.154 351.222 257.428 351.417 257.791C351.612 258.154 351.71 258.605 351.71 259.145V263H350.474V259.297C350.474 258.801 350.354 258.428 350.116 258.178C349.878 257.924 349.546 257.797 349.12 257.797C348.698 257.797 348.343 257.928 348.054 258.189C347.769 258.447 347.626 258.863 347.626 259.438ZM356.087 256.812V257.832H354.833V261.365C354.833 261.596 354.88 261.756 354.974 261.846C355.067 261.936 355.237 261.98 355.483 261.98H356.087V263H355.308C354.163 263 353.591 262.508 353.591 261.523V257.832H352.501V256.812H353.591V255.125H354.833V256.812H356.087ZM359.321 263L362.491 254.27H364.062L367.208 263H365.796L365.022 260.732H361.501L360.704 263H359.321ZM361.894 259.625H364.642L364.114 258.078C363.997 257.719 363.872 257.334 363.739 256.924C363.606 256.514 363.454 256.025 363.282 255.459C363.106 256.025 362.952 256.514 362.819 256.924C362.687 257.334 362.56 257.719 362.438 258.078L361.894 259.625ZM370.413 263.141C369.823 263.141 369.306 263.004 368.86 262.73C368.419 262.457 368.075 262.078 367.829 261.594C367.583 261.105 367.46 260.547 367.46 259.918C367.46 259.281 367.583 258.719 367.829 258.23C368.079 257.742 368.425 257.361 368.866 257.088C369.308 256.811 369.823 256.672 370.413 256.672C370.905 256.672 371.345 256.77 371.731 256.965C372.122 257.156 372.438 257.422 372.681 257.762C372.923 258.102 373.069 258.49 373.12 258.928H371.89C371.827 258.58 371.671 258.295 371.421 258.072C371.171 257.85 370.837 257.738 370.419 257.738C369.884 257.738 369.466 257.936 369.165 258.33C368.864 258.725 368.714 259.254 368.714 259.918C368.714 260.574 368.864 261.098 369.165 261.488C369.466 261.879 369.884 262.074 370.419 262.074C370.845 262.074 371.173 261.967 371.403 261.752C371.634 261.533 371.79 261.242 371.872 260.879H373.12C373.073 261.309 372.929 261.695 372.687 262.039C372.444 262.379 372.128 262.648 371.737 262.848C371.347 263.043 370.905 263.141 370.413 263.141ZM376.823 263.141C376.233 263.141 375.716 263.004 375.271 262.73C374.829 262.457 374.485 262.078 374.239 261.594C373.993 261.105 373.87 260.547 373.87 259.918C373.87 259.281 373.993 258.719 374.239 258.23C374.489 257.742 374.835 257.361 375.276 257.088C375.718 256.811 376.233 256.672 376.823 256.672C377.315 256.672 377.755 256.77 378.142 256.965C378.532 257.156 378.849 257.422 379.091 257.762C379.333 258.102 379.479 258.49 379.53 258.928H378.3C378.237 258.58 378.081 258.295 377.831 258.072C377.581 257.85 377.247 257.738 376.829 257.738C376.294 257.738 375.876 257.936 375.575 258.33C375.274 258.725 375.124 259.254 375.124 259.918C375.124 260.574 375.274 261.098 375.575 261.488C375.876 261.879 376.294 262.074 376.829 262.074C377.255 262.074 377.583 261.967 377.813 261.752C378.044 261.533 378.2 261.242 378.282 260.879H379.53C379.483 261.309 379.339 261.695 379.097 262.039C378.854 262.379 378.538 262.648 378.147 262.848C377.757 263.043 377.315 263.141 376.823 263.141ZM383.245 263.141C382.655 263.141 382.138 263.004 381.692 262.73C381.247 262.457 380.899 262.078 380.649 261.594C380.403 261.109 380.28 260.551 380.28 259.918C380.28 259.277 380.403 258.715 380.649 258.23C380.899 257.742 381.247 257.361 381.692 257.088C382.138 256.811 382.655 256.672 383.245 256.672C383.835 256.672 384.351 256.811 384.792 257.088C385.237 257.361 385.583 257.742 385.829 258.23C386.079 258.715 386.204 259.277 386.204 259.918C386.204 260.551 386.079 261.109 385.829 261.594C385.583 262.078 385.237 262.457 384.792 262.73C384.351 263.004 383.835 263.141 383.245 263.141ZM383.245 262.074C383.776 262.074 384.194 261.879 384.499 261.488C384.804 261.098 384.956 260.574 384.956 259.918C384.956 259.254 384.802 258.725 384.493 258.33C384.188 257.936 383.772 257.738 383.245 257.738C382.718 257.738 382.3 257.936 381.991 258.33C381.687 258.721 381.534 259.25 381.534 259.918C381.534 260.578 381.687 261.104 381.991 261.494C382.296 261.881 382.714 262.074 383.245 262.074ZM389.538 263.123C389.116 263.123 388.735 263.031 388.396 262.848C388.06 262.66 387.792 262.385 387.593 262.021C387.397 261.658 387.3 261.207 387.3 260.668V256.812H388.536V260.516C388.536 261.012 388.655 261.387 388.894 261.641C389.132 261.891 389.466 262.016 389.896 262.016C390.313 262.016 390.665 261.887 390.95 261.629C391.239 261.367 391.384 260.949 391.384 260.375V256.812H392.62V263H391.407V262.068C390.985 262.771 390.362 263.123 389.538 263.123ZM395.251 259.438V263H394.015V256.812H395.228V257.744C395.649 257.041 396.272 256.689 397.097 256.689C397.522 256.689 397.903 256.783 398.239 256.971C398.579 257.154 398.847 257.428 399.042 257.791C399.237 258.154 399.335 258.605 399.335 259.145V263H398.099V259.297C398.099 258.801 397.979 258.428 397.741 258.178C397.503 257.924 397.171 257.797 396.745 257.797C396.323 257.797 395.968 257.928 395.679 258.189C395.394 258.447 395.251 258.863 395.251 259.438ZM403.712 256.812V257.832H402.458V261.365C402.458 261.596 402.505 261.756 402.599 261.846C402.692 261.936 402.862 261.98 403.108 261.98H403.712V263H402.933C401.788 263 401.216 262.508 401.216 261.523V257.832H400.126V256.812H401.216V255.125H402.458V256.812H403.712Z" fill="#1C6DEA"/>
</g>
</g>
</g>
<g filter="url(#filter4_d_6682_8900)">
<g clip-path="url(#clip2_6682_8900)">
<rect x="432" y="240" width="190" height="38" rx="19" fill="white"/>
<g filter="url(#filter5_d_6682_8900)">
<rect x="432" y="240" width="190" height="38" rx="19" fill="white" shape-rendering="crispEdges"/>
<path d="M468.909 256.083C468.909 254.472 470.214 253.167 471.825 253.167C473.436 253.167 474.742 254.472 474.742 256.083C474.742 257.694 473.436 259 471.825 259C470.214 259 468.909 257.694 468.909 256.083Z" fill="#717784"/>
<path d="M467.742 262.937C467.742 261.407 468.982 260.167 470.513 260.167H473.138C474.668 260.167 475.909 261.407 475.909 262.937C475.909 263.985 475.06 264.833 474.013 264.833H469.638C468.591 264.833 467.742 263.985 467.742 262.937Z" fill="#717784"/>
<path d="M468.315 254.297C468.431 254.069 468.386 253.793 468.202 253.614C468.019 253.436 467.741 253.397 467.517 253.52C466.61 254.013 465.992 254.976 465.992 256.083C465.992 257.191 466.61 258.154 467.517 258.647C467.741 258.769 468.019 258.731 468.202 258.552C468.386 258.374 468.431 258.097 468.315 257.869C468.042 257.334 467.888 256.728 467.888 256.083C467.888 255.439 468.042 254.833 468.315 254.297Z" fill="#717784"/>
<path d="M476.134 253.52C475.909 253.397 475.631 253.436 475.448 253.614C475.265 253.793 475.219 254.069 475.335 254.297C475.608 254.833 475.763 255.439 475.763 256.083C475.763 256.728 475.608 257.334 475.335 257.869C475.219 258.097 475.265 258.374 475.448 258.552C475.631 258.731 475.909 258.769 476.134 258.647C477.041 258.154 477.659 257.191 477.659 256.083C477.659 254.976 477.041 254.013 476.134 253.52Z" fill="#717784"/>
<path d="M467.115 261.253C467.227 261.027 467.181 260.754 467.001 260.578C466.822 260.401 466.548 260.359 466.324 260.475C465.435 260.935 464.825 261.865 464.825 262.937C464.825 263.812 465.416 264.546 466.22 264.766C466.432 264.824 466.659 264.758 466.807 264.594C466.954 264.431 466.997 264.198 466.917 263.992C466.791 263.666 466.721 263.311 466.721 262.937C466.721 262.331 466.863 261.76 467.115 261.253Z" fill="#717784"/>
<path d="M477.326 260.475C477.102 260.359 476.829 260.401 476.649 260.578C476.469 260.754 476.423 261.027 476.536 261.253C476.787 261.76 476.929 262.331 476.929 262.937C476.929 263.311 476.86 263.666 476.733 263.992C476.653 264.198 476.696 264.431 476.844 264.594C476.991 264.758 477.218 264.824 477.431 264.766C478.234 264.546 478.825 263.812 478.825 262.937C478.825 261.865 478.215 260.935 477.326 260.475Z" fill="#717784"/>
<path d="M485.212 263V254.27H487.046L489.003 259.385C489.081 259.607 489.183 259.9 489.308 260.264C489.433 260.623 489.546 260.955 489.647 261.26C489.745 260.955 489.856 260.623 489.981 260.264C490.106 259.9 490.208 259.607 490.286 259.385L492.214 254.27H494.054V263H492.776V258.242C492.776 257.93 492.78 257.566 492.788 257.152C492.796 256.734 492.806 256.318 492.817 255.904C492.657 256.377 492.505 256.822 492.36 257.24C492.22 257.658 492.103 257.992 492.009 258.242L490.169 263H489.103L487.245 258.242C487.155 258.004 487.04 257.689 486.899 257.299C486.763 256.904 486.614 256.48 486.454 256.027C486.466 256.426 486.476 256.82 486.483 257.211C486.491 257.602 486.495 257.945 486.495 258.242V263H485.212ZM498.196 263.141C497.583 263.141 497.056 263.002 496.614 262.725C496.177 262.447 495.839 262.066 495.601 261.582C495.366 261.094 495.249 260.539 495.249 259.918C495.249 259.289 495.372 258.73 495.618 258.242C495.864 257.754 496.204 257.371 496.638 257.094C497.071 256.812 497.569 256.672 498.132 256.672C498.718 256.672 499.226 256.809 499.655 257.082C500.089 257.355 500.425 257.736 500.663 258.225C500.901 258.709 501.021 259.27 501.021 259.906V260.24H496.468C496.491 260.799 496.651 261.25 496.948 261.594C497.249 261.938 497.671 262.109 498.214 262.109C498.62 262.109 498.954 262.018 499.216 261.834C499.478 261.65 499.651 261.412 499.737 261.119H500.927C500.853 261.518 500.687 261.869 500.429 262.174C500.175 262.479 499.854 262.717 499.468 262.889C499.085 263.057 498.661 263.141 498.196 263.141ZM496.479 259.303H499.813C499.763 258.811 499.589 258.422 499.292 258.137C498.995 257.848 498.612 257.703 498.144 257.703C497.675 257.703 497.292 257.848 496.995 258.137C496.702 258.422 496.53 258.811 496.479 259.303ZM502.093 263V256.812H503.276V257.814H503.3C503.413 257.475 503.591 257.211 503.833 257.023C504.079 256.832 504.399 256.736 504.794 256.736C504.888 256.736 504.974 256.74 505.052 256.748C505.13 256.756 505.194 256.762 505.245 256.766V257.92C505.198 257.908 505.114 257.896 504.993 257.885C504.872 257.869 504.739 257.861 504.595 257.861C504.247 257.861 503.948 257.982 503.698 258.225C503.452 258.467 503.329 258.84 503.329 259.344V263H502.093ZM508.726 263.141C508.136 263.141 507.618 263.004 507.173 262.73C506.731 262.457 506.388 262.078 506.142 261.594C505.896 261.105 505.772 260.547 505.772 259.918C505.772 259.281 505.896 258.719 506.142 258.23C506.392 257.742 506.737 257.361 507.179 257.088C507.62 256.811 508.136 256.672 508.726 256.672C509.218 256.672 509.657 256.77 510.044 256.965C510.435 257.156 510.751 257.422 510.993 257.762C511.235 258.102 511.382 258.49 511.433 258.928H510.202C510.14 258.58 509.983 258.295 509.733 258.072C509.483 257.85 509.149 257.738 508.731 257.738C508.196 257.738 507.778 257.936 507.478 258.33C507.177 258.725 507.026 259.254 507.026 259.918C507.026 260.574 507.177 261.098 507.478 261.488C507.778 261.879 508.196 262.074 508.731 262.074C509.157 262.074 509.485 261.967 509.716 261.752C509.946 261.533 510.103 261.242 510.185 260.879H511.433C511.386 261.309 511.241 261.695 510.999 262.039C510.757 262.379 510.44 262.648 510.05 262.848C509.659 263.043 509.218 263.141 508.726 263.141ZM513.724 259.438V263H512.487V254.27H513.724V257.703C514.149 257.027 514.765 256.689 515.569 256.689C515.995 256.689 516.376 256.783 516.712 256.971C517.052 257.154 517.319 257.428 517.515 257.791C517.71 258.154 517.808 258.605 517.808 259.145V263H516.571V259.297C516.571 258.801 516.452 258.428 516.214 258.178C515.976 257.924 515.644 257.797 515.218 257.797C514.796 257.797 514.44 257.928 514.151 258.189C513.866 258.447 513.724 258.863 513.724 259.438ZM521.089 263.1C520.472 263.1 519.96 262.943 519.554 262.631C519.147 262.314 518.944 261.848 518.944 261.23C518.944 260.762 519.06 260.402 519.29 260.152C519.524 259.898 519.827 259.717 520.198 259.607C520.573 259.498 520.97 259.418 521.388 259.367C521.774 259.32 522.081 259.281 522.308 259.25C522.534 259.219 522.694 259.172 522.788 259.109C522.886 259.047 522.935 258.939 522.935 258.787V258.734C522.935 258.434 522.825 258.188 522.606 257.996C522.388 257.801 522.081 257.703 521.687 257.703C521.292 257.703 520.97 257.799 520.72 257.99C520.47 258.178 520.333 258.414 520.31 258.699H519.097C519.124 258.109 519.372 257.627 519.841 257.252C520.31 256.877 520.931 256.689 521.704 256.689C522.466 256.689 523.065 256.877 523.503 257.252C523.94 257.627 524.159 258.129 524.159 258.758V263H522.94V262.121H522.917C522.788 262.371 522.583 262.598 522.302 262.801C522.024 263 521.62 263.1 521.089 263.1ZM521.341 262.104C521.888 262.104 522.29 261.963 522.548 261.682C522.81 261.396 522.94 261.064 522.94 260.686V259.959C522.858 260.025 522.673 260.086 522.384 260.141C522.095 260.191 521.786 260.24 521.458 260.287C521.118 260.338 520.819 260.434 520.562 260.574C520.304 260.715 520.175 260.941 520.175 261.254C520.175 261.52 520.278 261.729 520.485 261.881C520.696 262.029 520.981 262.104 521.341 262.104ZM526.79 259.438V263H525.554V256.812H526.767V257.744C527.188 257.041 527.812 256.689 528.636 256.689C529.062 256.689 529.442 256.783 529.778 256.971C530.118 257.154 530.386 257.428 530.581 257.791C530.776 258.154 530.874 258.605 530.874 259.145V263H529.638V259.297C529.638 258.801 529.519 258.428 529.28 258.178C529.042 257.924 528.71 257.797 528.284 257.797C527.862 257.797 527.507 257.928 527.218 258.189C526.933 258.447 526.79 258.863 526.79 259.438ZM535.251 256.812V257.832H533.997V261.365C533.997 261.596 534.044 261.756 534.138 261.846C534.231 261.936 534.401 261.98 534.647 261.98H535.251V263H534.472C533.327 263 532.755 262.508 532.755 261.523V257.832H531.665V256.812H532.755V255.125H533.997V256.812H535.251ZM538.485 263L541.655 254.27H543.226L546.372 263H544.96L544.187 260.732H540.665L539.868 263H538.485ZM541.058 259.625H543.806L543.278 258.078C543.161 257.719 543.036 257.334 542.903 256.924C542.771 256.514 542.618 256.025 542.446 255.459C542.271 256.025 542.116 256.514 541.983 256.924C541.851 257.334 541.724 257.719 541.603 258.078L541.058 259.625ZM549.577 263.141C548.987 263.141 548.47 263.004 548.024 262.73C547.583 262.457 547.239 262.078 546.993 261.594C546.747 261.105 546.624 260.547 546.624 259.918C546.624 259.281 546.747 258.719 546.993 258.23C547.243 257.742 547.589 257.361 548.03 257.088C548.472 256.811 548.987 256.672 549.577 256.672C550.069 256.672 550.509 256.77 550.896 256.965C551.286 257.156 551.603 257.422 551.845 257.762C552.087 258.102 552.233 258.49 552.284 258.928H551.054C550.991 258.58 550.835 258.295 550.585 258.072C550.335 257.85 550.001 257.738 549.583 257.738C549.048 257.738 548.63 257.936 548.329 258.33C548.028 258.725 547.878 259.254 547.878 259.918C547.878 260.574 548.028 261.098 548.329 261.488C548.63 261.879 549.048 262.074 549.583 262.074C550.009 262.074 550.337 261.967 550.567 261.752C550.798 261.533 550.954 261.242 551.036 260.879H552.284C552.237 261.309 552.093 261.695 551.851 262.039C551.608 262.379 551.292 262.648 550.901 262.848C550.511 263.043 550.069 263.141 549.577 263.141ZM555.987 263.141C555.397 263.141 554.88 263.004 554.435 262.73C553.993 262.457 553.649 262.078 553.403 261.594C553.157 261.105 553.034 260.547 553.034 259.918C553.034 259.281 553.157 258.719 553.403 258.23C553.653 257.742 553.999 257.361 554.44 257.088C554.882 256.811 555.397 256.672 555.987 256.672C556.479 256.672 556.919 256.77 557.306 256.965C557.696 257.156 558.013 257.422 558.255 257.762C558.497 258.102 558.644 258.49 558.694 258.928H557.464C557.401 258.58 557.245 258.295 556.995 258.072C556.745 257.85 556.411 257.738 555.993 257.738C555.458 257.738 555.04 257.936 554.739 258.33C554.438 258.725 554.288 259.254 554.288 259.918C554.288 260.574 554.438 261.098 554.739 261.488C555.04 261.879 555.458 262.074 555.993 262.074C556.419 262.074 556.747 261.967 556.978 261.752C557.208 261.533 557.364 261.242 557.446 260.879H558.694C558.647 261.309 558.503 261.695 558.261 262.039C558.019 262.379 557.702 262.648 557.312 262.848C556.921 263.043 556.479 263.141 555.987 263.141ZM562.409 263.141C561.819 263.141 561.302 263.004 560.856 262.73C560.411 262.457 560.063 262.078 559.813 261.594C559.567 261.109 559.444 260.551 559.444 259.918C559.444 259.277 559.567 258.715 559.813 258.23C560.063 257.742 560.411 257.361 560.856 257.088C561.302 256.811 561.819 256.672 562.409 256.672C562.999 256.672 563.515 256.811 563.956 257.088C564.401 257.361 564.747 257.742 564.993 258.23C565.243 258.715 565.368 259.277 565.368 259.918C565.368 260.551 565.243 261.109 564.993 261.594C564.747 262.078 564.401 262.457 563.956 262.73C563.515 263.004 562.999 263.141 562.409 263.141ZM562.409 262.074C562.94 262.074 563.358 261.879 563.663 261.488C563.968 261.098 564.12 260.574 564.12 259.918C564.12 259.254 563.966 258.725 563.657 258.33C563.353 257.936 562.937 257.738 562.409 257.738C561.882 257.738 561.464 257.936 561.155 258.33C560.851 258.721 560.698 259.25 560.698 259.918C560.698 260.578 560.851 261.104 561.155 261.494C561.46 261.881 561.878 262.074 562.409 262.074ZM568.702 263.123C568.28 263.123 567.899 263.031 567.56 262.848C567.224 262.66 566.956 262.385 566.757 262.021C566.562 261.658 566.464 261.207 566.464 260.668V256.812H567.7V260.516C567.7 261.012 567.819 261.387 568.058 261.641C568.296 261.891 568.63 262.016 569.06 262.016C569.478 262.016 569.829 261.887 570.114 261.629C570.403 261.367 570.548 260.949 570.548 260.375V256.812H571.784V263H570.571V262.068C570.149 262.771 569.526 263.123 568.702 263.123ZM574.415 259.438V263H573.179V256.812H574.392V257.744C574.813 257.041 575.437 256.689 576.261 256.689C576.687 256.689 577.067 256.783 577.403 256.971C577.743 257.154 578.011 257.428 578.206 257.791C578.401 258.154 578.499 258.605 578.499 259.145V263H577.263V259.297C577.263 258.801 577.144 258.428 576.905 258.178C576.667 257.924 576.335 257.797 575.909 257.797C575.487 257.797 575.132 257.928 574.843 258.189C574.558 258.447 574.415 258.863 574.415 259.438ZM582.876 256.812V257.832H581.622V261.365C581.622 261.596 581.669 261.756 581.763 261.846C581.856 261.936 582.026 261.98 582.272 261.98H582.876V263H582.097C580.952 263 580.38 262.508 580.38 261.523V257.832H579.29V256.812H580.38V255.125H581.622V256.812H582.876ZM586.04 263.146C585.567 263.146 585.142 263.07 584.763 262.918C584.384 262.766 584.077 262.539 583.843 262.238C583.612 261.938 583.483 261.564 583.456 261.119H584.675C584.745 261.814 585.192 262.162 586.017 262.162C586.407 262.162 586.716 262.082 586.942 261.922C587.173 261.762 587.288 261.559 587.288 261.312C587.288 261.102 587.206 260.934 587.042 260.809C586.878 260.68 586.663 260.586 586.397 260.527L585.372 260.299C584.188 260.041 583.597 259.451 583.597 258.529C583.597 257.982 583.813 257.537 584.247 257.193C584.685 256.85 585.257 256.678 585.964 256.678C586.663 256.678 587.237 256.859 587.687 257.223C588.14 257.582 588.374 258.074 588.39 258.699H587.206C587.202 258.398 587.089 258.15 586.866 257.955C586.644 257.756 586.349 257.656 585.981 257.656C585.63 257.656 585.351 257.738 585.144 257.902C584.937 258.066 584.833 258.268 584.833 258.506C584.833 258.717 584.911 258.887 585.067 259.016C585.228 259.145 585.446 259.24 585.724 259.303L586.778 259.537C587.38 259.67 587.823 259.875 588.108 260.152C588.394 260.43 588.536 260.793 588.536 261.242C588.536 261.637 588.427 261.977 588.208 262.262C587.993 262.543 587.698 262.762 587.323 262.918C586.948 263.07 586.521 263.146 586.04 263.146Z" fill="#717784"/>
</g>
</g>
<rect x="431.65" y="239.65" width="190.7" height="38.7" rx="19.35" stroke="#E1E4EA" stroke-width="0.7"/>
</g>
<path d="M422 106L422 148" stroke="url(#paint0_linear_6682_8900)" stroke-width="2"/>
<path d="M423 176V200.525C423 204.943 426.582 208.525 431 208.525H514C518.418 208.525 522 212.106 522 216.525V240" stroke="url(#paint1_linear_6682_8900)" stroke-width="2"/>
<path d="M423 176V200.016C423 204.435 419.418 208.016 415 208.016H325C320.582 208.016 317 211.598 317 216.016V239" stroke="url(#paint2_linear_6682_8900)" stroke-width="2"/>
<defs>
<filter id="filter0_d_6682_8900" x="306.1" y="63.1" width="233.8" height="63.8" filterUnits="userSpaceOnUse" color-interpolation-filters="sRGB">
<feFlood flood-opacity="0" result="BackgroundImageFix"/>
<feColorMatrix in="SourceAlpha" type="matrix" values="0 0 0 0 0 0 0 0 0 0 0 0 0 0 0 0 0 0 127 0" result="hardAlpha"/>
<feOffset dy="8"/>
<feGaussianBlur stdDeviation="6.45"/>
<feComposite in2="hardAlpha" operator="out"/>
<feColorMatrix type="matrix" values="0 0 0 0 0.12575 0 0 0 0 0.26643 0 0 0 0 0.48353 0 0 0 0.1 0"/>
<feBlend mode="normal" in2="BackgroundImageFix" result="effect1_dropShadow_6682_8900"/>
<feBlend mode="normal" in="SourceGraphic" in2="effect1_dropShadow_6682_8900" result="shape"/>
</filter>
<filter id="filter1_d_6682_8900" x="317.663" y="67.3313" width="210.675" height="40.6748" filterUnits="userSpaceOnUse" color-interpolation-filters="sRGB">
<feFlood flood-opacity="0" result="BackgroundImageFix"/>
<feColorMatrix in="SourceAlpha" type="matrix" values="0 0 0 0 0 0 0 0 0 0 0 0 0 0 0 0 0 0 127 0" result="hardAlpha"/>
<feOffset dy="0.668712"/>
<feGaussianBlur stdDeviation="0.668712"/>
<feColorMatrix type="matrix" values="0 0 0 0 0 0 0 0 0 0 0 0 0 0 0 0 0 0 0.04 0"/>
<feBlend mode="normal" in2="BackgroundImageFix" result="effect1_dropShadow_6682_8900"/>
<feBlend mode="normal" in="SourceGraphic" in2="effect1_dropShadow_6682_8900" result="shape"/>
</filter>
<filter id="filter2_d_6682_8900" x="213.1" y="235.1" width="215.8" height="63.8" filterUnits="userSpaceOnUse" color-interpolation-filters="sRGB">
<feFlood flood-opacity="0" result="BackgroundImageFix"/>
<feColorMatrix in="SourceAlpha" type="matrix" values="0 0 0 0 0 0 0 0 0 0 0 0 0 0 0 0 0 0 127 0" result="hardAlpha"/>
<feOffset dy="8"/>
<feGaussianBlur stdDeviation="6.45"/>
<feComposite in2="hardAlpha" operator="out"/>
<feColorMatrix type="matrix" values="0 0 0 0 0.12575 0 0 0 0 0.26643 0 0 0 0 0.48353 0 0 0 0.1 0"/>
<feBlend mode="normal" in2="BackgroundImageFix" result="effect1_dropShadow_6682_8900"/>
<feBlend mode="normal" in="SourceGraphic" in2="effect1_dropShadow_6682_8900" result="shape"/>
</filter>
<filter id="filter3_d_6682_8900" x="224.663" y="239.331" width="192.675" height="40.6748" filterUnits="userSpaceOnUse" color-interpolation-filters="sRGB">
<feFlood flood-opacity="0" result="BackgroundImageFix"/>
<feColorMatrix in="SourceAlpha" type="matrix" values="0 0 0 0 0 0 0 0 0 0 0 0 0 0 0 0 0 0 127 0" result="hardAlpha"/>
<feOffset dy="0.668712"/>
<feGaussianBlur stdDeviation="0.668712"/>
<feColorMatrix type="matrix" values="0 0 0 0 0 0 0 0 0 0 0 0 0 0 0 0 0 0 0.04 0"/>
<feBlend mode="normal" in2="BackgroundImageFix" result="effect1_dropShadow_6682_8900"/>
<feBlend mode="normal" in="SourceGraphic" in2="effect1_dropShadow_6682_8900" result="shape"/>
</filter>
<filter id="filter4_d_6682_8900" x="418.4" y="234.4" width="217.2" height="65.1999" filterUnits="userSpaceOnUse" color-interpolation-filters="sRGB">
<feFlood flood-opacity="0" result="BackgroundImageFix"/>
<feColorMatrix in="SourceAlpha" type="matrix" values="0 0 0 0 0 0 0 0 0 0 0 0 0 0 0 0 0 0 127 0" result="hardAlpha"/>
<feOffset dy="8"/>
<feGaussianBlur stdDeviation="6.45"/>
<feComposite in2="hardAlpha" operator="out"/>
<feColorMatrix type="matrix" values="0 0 0 0 0.12575 0 0 0 0 0.26643 0 0 0 0 0.48353 0 0 0 0.1 0"/>
<feBlend mode="normal" in2="BackgroundImageFix" result="effect1_dropShadow_6682_8900"/>
<feBlend mode="normal" in="SourceGraphic" in2="effect1_dropShadow_6682_8900" result="shape"/>
</filter>
<filter id="filter5_d_6682_8900" x="419.1" y="238.1" width="215.8" height="63.8" filterUnits="userSpaceOnUse" color-interpolation-filters="sRGB">
<feFlood flood-opacity="0" result="BackgroundImageFix"/>
<feColorMatrix in="SourceAlpha" type="matrix" values="0 0 0 0 0 0 0 0 0 0 0 0 0 0 0 0 0 0 127 0" result="hardAlpha"/>
<feOffset dy="11"/>
<feGaussianBlur stdDeviation="6.45"/>
<feComposite in2="hardAlpha" operator="out"/>
<feColorMatrix type="matrix" values="0 0 0 0 0 0 0 0 0 0 0 0 0 0 0 0 0 0 0.25 0"/>
<feBlend mode="normal" in2="BackgroundImageFix" result="effect1_dropShadow_6682_8900"/>
<feBlend mode="normal" in="SourceGraphic" in2="effect1_dropShadow_6682_8900" result="shape"/>
</filter>
<linearGradient id="paint0_linear_6682_8900" x1="422.5" y1="106" x2="422.5" y2="148" gradientUnits="userSpaceOnUse">
<stop stop-color="#7EB9FF"/>
<stop offset="1" stop-color="#7EB9FF" stop-opacity="0"/>
</linearGradient>
<linearGradient id="paint1_linear_6682_8900" x1="472.5" y1="176" x2="472.5" y2="240" gradientUnits="userSpaceOnUse">
<stop stop-color="#E1E4EA" stop-opacity="0"/>
<stop offset="1" stop-color="#E1E4EA"/>
</linearGradient>
<linearGradient id="paint2_linear_6682_8900" x1="370" y1="176" x2="370" y2="239" gradientUnits="userSpaceOnUse">
<stop stop-color="#7EB9FF" stop-opacity="0"/>
<stop offset="1" stop-color="#7EB9FF"/>
</linearGradient>
<clipPath id="clip0_6682_8900">
<rect x="319" y="68" width="208" height="38" rx="19" fill="white"/>
</clipPath>
<clipPath id="clip1_6682_8900">
<rect x="226" y="240" width="190" height="38" rx="19" fill="white"/>
</clipPath>
<clipPath id="clip2_6682_8900">
<rect x="432" y="240" width="190" height="38" rx="19" fill="white"/>
</clipPath>
</defs>
</svg>
