<svg width="80" height="36" viewBox="0 0 80 36" fill="none" xmlns="http://www.w3.org/2000/svg">
<path d="M43.5304 17.3691C38.3894 17.3691 34.2148 21.5504 34.2148 26.6847C34.2148 31.819 38.3961 36.0003 43.5304 36.0003C48.6647 36.0003 52.846 31.819 52.846 26.6847C52.846 21.5504 48.6647 17.3691 43.5304 17.3691Z" fill="#006DF9"/>
<path d="M22.5003 13.1805C22.1906 12.6924 21.4773 12.6924 21.1676 13.1805L7.25832 34.7796C6.92045 35.3053 7.29587 35.9999 7.92469 35.9999H35.7338C36.3626 35.9999 36.738 35.3053 36.4002 34.7796L22.4909 13.1805H22.5003Z" fill="#006DF9"/>
<path d="M73.5698 6.1614C73.4476 5.96964 73.1663 5.96964 73.0442 6.1614L67.5589 14.6467C67.4256 14.8532 67.5737 15.1261 67.8217 15.1261H78.7886C79.0366 15.1261 79.1847 14.8532 79.0514 14.6467L73.5661 6.1614H73.5698Z" fill="#006DF9"/>
<path d="M21.2872 8.13306L9.91651 0.703197C9.32215 0.314833 8.52536 0.482036 8.13682 1.07666L0.703613 12.4525C0.315075 13.0471 0.481923 13.844 1.07628 14.2323L12.447 21.6622C13.0413 22.0506 13.8381 21.8834 14.2267 21.2887L21.6599 9.91292C22.0484 9.31829 21.8816 8.52143 21.2872 8.13306Z" fill="#006DF9"/>
<path d="M72.1704 16.541H55.8083C54.9531 16.541 54.2598 17.2343 54.2598 18.0896V34.4516C54.2598 35.3069 54.9531 36.0002 55.8083 36.0002H72.1704C73.0256 36.0002 73.719 35.3069 73.719 34.4516V18.0896C73.719 17.2343 73.0256 16.541 72.1704 16.541Z" fill="#006DF9"/>
</svg>
