<svg width="52" height="73" viewBox="0 0 52 73" fill="none" xmlns="http://www.w3.org/2000/svg">
<path d="M1.48772 33.9642C2.44158 30.5915 5.51997 28.2629 9.02502 28.2629L38.7628 28.2629C44.8379 28.2629 49.7628 33.1878 49.7628 39.2629V60.015C49.7628 64.341 46.2559 67.8479 41.9299 67.8479H10.6986C6.776 67.8479 3.45822 64.9463 2.93554 61.0587L0.216612 40.8358C0.0737264 39.773 0.150573 38.6922 0.442393 37.6604L1.48772 33.9642Z" fill="url(#paint0_linear_1_848)"/>
<path d="M34.4094 27.3231C34.4094 28.3783 34.2515 29.3974 33.9578 30.3567C33.7564 31.0146 33.4911 31.6441 33.1697 32.2393C31.4168 35.481 27.9846 37.6831 24.0374 37.6831C20.4345 37.6831 17.2604 35.8476 15.4014 33.0618C17.2737 34.9033 19.8436 36.0405 22.6789 36.0405C26.626 36.0405 30.0583 33.8384 31.8112 30.5967C32.1325 30.0016 32.3979 29.3721 32.5993 28.7142C32.8929 27.7548 33.0509 26.7358 33.0509 25.6806C33.0509 23.558 32.4117 21.5844 31.3149 19.9419C33.2252 21.8208 34.4094 24.4342 34.4094 27.3231Z" fill="#F9B132"/>
<path d="M34.3259 27.5144C34.3259 21.7866 29.6826 17.1433 23.9548 17.1433C18.227 17.1433 13.5837 21.7866 13.5837 27.5144C13.5837 33.2422 18.227 37.8855 23.9548 37.8855C29.6826 37.8855 34.3259 33.2422 34.3259 27.5144Z" fill="#FFD064"/>
<path fill-rule="evenodd" clip-rule="evenodd" d="M23.5176 17.1522C29.0425 17.3814 33.4514 21.933 33.4514 27.5143C33.4514 33.0956 29.0425 37.6471 23.5176 37.8764C23.6626 37.8824 23.8084 37.8854 23.9549 37.8854C29.6826 37.8854 34.326 33.2421 34.326 27.5143C34.326 21.7865 29.6826 17.1432 23.9549 17.1432C23.8083 17.1432 23.6626 17.1461 23.5176 17.1522Z" fill="#F5B829"/>
<path d="M30.3304 31.4494C32.5063 27.9283 31.4157 23.3099 27.8946 21.134C24.3735 18.9581 19.7551 20.0487 17.5792 23.5698C15.4033 27.091 16.4939 31.7093 20.015 33.8852C23.5361 36.0611 28.1545 34.9706 30.3304 31.4494Z" fill="#FFC338"/>
<path fill-rule="evenodd" clip-rule="evenodd" d="M17.3539 27.5143C17.3539 23.5251 20.4705 20.2639 24.4016 20.0328C24.2538 20.0241 24.1047 20.0197 23.9548 20.0197C19.8155 20.0197 16.46 23.3752 16.46 27.5145C16.46 31.6536 19.8155 35.0092 23.9548 35.0092C24.1048 35.0092 24.2538 35.0047 24.4016 34.9961C20.4705 34.7648 17.3539 31.5034 17.3539 27.5143Z" fill="#F5B829"/>
<path fill-rule="evenodd" clip-rule="evenodd" d="M26.9942 24.888C27.1871 25.348 26.9707 25.8774 26.5107 26.0704C26.0507 26.2633 25.5214 26.0469 25.3284 25.5869C25.1413 25.141 24.7861 24.8839 24.3962 24.7849C24.1401 24.72 23.873 24.7158 23.6253 24.7657C23.3883 24.8134 23.1716 24.9088 23.0038 25.0452C22.81 25.2029 22.6869 25.4293 22.7004 25.709C22.7123 25.9532 22.8425 26.1224 23.0243 26.2411C23.311 26.4283 23.7171 26.534 24.1063 26.5978C24.7173 26.6981 25.3861 26.8666 25.9516 27.208C26.6223 27.6129 27.1284 28.2231 27.2425 29.1627C27.2508 29.2319 27.2562 29.3178 27.2586 29.4196C27.2793 30.2869 26.885 30.9323 26.2923 31.3819C25.8781 31.6962 25.3698 31.9012 24.8583 32.0086V32.2568C24.8583 32.7558 24.4538 33.1603 23.9548 33.1603C23.4559 33.1603 23.0513 32.7558 23.0513 32.2568V31.9903C22.6469 31.8938 22.2623 31.7328 21.9233 31.507C21.3264 31.1095 20.8689 30.5224 20.6752 29.7456C20.5563 29.2622 20.8519 28.774 21.3352 28.6551C21.8186 28.5362 22.3068 28.8317 22.4258 29.3151C22.5008 29.616 22.6816 29.8458 22.9185 30.0036C23.2266 30.2088 23.6252 30.3066 24.0315 30.2969C24.096 30.2954 24.1799 30.2884 24.2826 30.276C24.629 30.234 24.9703 30.1275 25.2052 29.9491C25.3601 29.8316 25.4635 29.6701 25.4585 29.462C25.4583 29.452 25.4552 29.4232 25.4493 29.3746C25.4143 29.0858 25.2453 28.8901 25.0197 28.754C24.6889 28.5542 24.24 28.4463 23.8168 28.3768C23.2235 28.2793 22.5772 28.1006 22.0431 27.7519C21.4042 27.3348 20.9452 26.7167 20.9004 25.7939C20.8562 24.882 21.2485 24.151 21.8673 23.6479C22.2062 23.3723 22.6142 23.1711 23.0512 23.0532V22.7718C23.0512 22.2728 23.4558 21.8683 23.9547 21.8683C24.4537 21.8683 24.8582 22.2728 24.8582 22.7718V23.041C25.7536 23.2746 26.566 23.8679 26.9942 24.888Z" fill="#FFE177"/>
<mask id="mask0_1_848" style="mask-type:alpha" maskUnits="userSpaceOnUse" x="10" y="0" width="28" height="13">
<rect x="10.2461" width="27.4177" height="12.1232" fill="#D9D9D9"/>
</mask>
<g mask="url(#mask0_1_848)">
<path d="M34.5078 1.56077C34.5078 2.61601 34.3498 3.63506 34.0562 4.59442C33.8548 5.25228 33.5895 5.88181 33.2681 6.47696C31.5152 9.71863 28.083 11.9208 24.1358 11.9208C20.5329 11.9208 17.3588 10.0853 15.4998 7.29944C17.372 9.14097 19.942 10.2782 22.7773 10.2782C26.7244 10.2782 30.1567 8.07609 31.9095 4.83441C32.2309 4.23926 32.4963 3.60974 32.6977 2.95187C32.9913 1.99251 33.1493 0.973461 33.1493 -0.0817728C33.1493 -2.2043 32.5101 -4.17789 31.4133 -5.82043C33.3236 -3.94152 34.5078 -1.32815 34.5078 1.56077Z" fill="#F9B132"/>
<path d="M34.4243 1.75205C34.4243 -3.97576 29.781 -8.61907 24.0532 -8.61907C18.3254 -8.61907 13.6821 -3.97576 13.6821 1.75205C13.6821 7.47986 18.3254 12.1232 24.0532 12.1232C29.781 12.1232 34.4243 7.47986 34.4243 1.75205Z" fill="#FFD064"/>
<path fill-rule="evenodd" clip-rule="evenodd" d="M23.616 -8.6101C29.1409 -8.38095 33.5498 -3.82931 33.5498 1.75198C33.5498 7.33327 29.1409 11.8848 23.616 12.1141C23.761 12.12 23.9068 12.1231 24.0533 12.1231C29.781 12.1231 34.4244 7.47976 34.4244 1.75198C34.4244 -3.9758 29.781 -8.61914 24.0533 -8.61914C23.9067 -8.61914 23.761 -8.6162 23.616 -8.6101Z" fill="#F5B829"/>
<path d="M30.4288 5.68712C32.6047 2.16597 31.5141 -2.4524 27.993 -4.6283C24.4718 -6.8042 19.8535 -5.71365 17.6776 -2.1925C15.5017 1.32865 16.5922 5.94702 20.1134 8.12291C23.6345 10.2988 28.2529 9.20827 30.4288 5.68712Z" fill="#FFC338"/>
<path fill-rule="evenodd" clip-rule="evenodd" d="M17.4525 1.75214C17.4525 -2.23706 20.5691 -5.49827 24.5003 -5.72945C24.3524 -5.73815 24.2034 -5.74255 24.0534 -5.74255C19.9141 -5.74255 16.5586 -2.38705 16.5586 1.75225C16.5586 5.89144 19.9141 9.24695 24.0534 9.24695C24.2035 9.24695 24.3524 9.24254 24.5003 9.23384C20.5691 9.00255 17.4525 5.74123 17.4525 1.75214Z" fill="#F5B829"/>
<path fill-rule="evenodd" clip-rule="evenodd" d="M27.0926 -0.8743C27.2855 -0.414303 27.0691 0.115038 26.6091 0.308049C26.1491 0.500948 25.6198 0.284561 25.4268 -0.175436C25.2396 -0.621316 24.8845 -0.878478 24.4946 -0.977412C24.2384 -1.04235 23.9713 -1.04653 23.7237 -0.99661C23.4867 -0.94895 23.27 -0.85352 23.1022 -0.71709C22.9084 -0.559429 22.7853 -0.332986 22.7988 -0.0533509C22.8107 0.190822 22.9409 0.360116 23.1227 0.478815C23.4094 0.665953 23.8155 0.771662 24.2047 0.835473C24.8157 0.935761 25.4845 1.10427 26.05 1.44568C26.7207 1.85056 27.2268 2.46077 27.3409 3.40041C27.3492 3.46953 27.3546 3.55547 27.357 3.65723C27.3777 4.5246 26.9834 5.16993 26.3907 5.61953C25.9764 5.93384 25.4682 6.13882 24.9567 6.24623V6.49447C24.9567 6.99343 24.5522 7.39797 24.0532 7.39797C23.5543 7.39797 23.1497 6.99343 23.1497 6.49447V6.22793C22.7453 6.13148 22.3607 5.97043 22.0217 5.74467C21.4248 5.34713 20.9673 4.76008 20.7736 3.98329C20.6547 3.49991 20.9503 3.01168 21.4336 2.89276C21.917 2.77383 22.4052 3.06939 22.5242 3.55277C22.5991 3.85363 22.78 4.08346 23.0169 4.24124C23.325 4.44645 23.7236 4.54425 24.1299 4.53454C24.1944 4.53307 24.2783 4.52607 24.381 4.51364C24.7274 4.47163 25.0687 4.36513 25.3036 4.1868C25.4585 4.06923 25.5619 3.90773 25.5569 3.6997C25.5567 3.68965 25.5536 3.66085 25.5477 3.61229C25.5127 3.3235 25.3437 3.12778 25.1181 2.99169C24.7873 2.7919 24.3384 2.68393 23.9152 2.61448C23.3218 2.51701 22.6756 2.33823 22.1415 1.98959C21.5026 1.57251 21.0435 0.954395 20.9988 0.0315769C20.9545 -0.880286 21.3469 -1.61133 21.9657 -2.11447C22.3046 -2.39004 22.7125 -2.59119 23.1496 -2.70909V-2.99054C23.1496 -3.4895 23.5542 -3.89404 24.0531 -3.89404C24.5521 -3.89404 24.9566 -3.4895 24.9566 -2.99054V-2.72129C25.852 -2.48774 26.6644 -1.89447 27.0926 -0.8743Z" fill="#FFE177"/>
</g>
<rect x="0.126709" y="32.4341" width="45.9145" height="39.5849" rx="7.83293" fill="url(#paint1_linear_1_848)"/>
<g filter="url(#filter0_d_1_848)">
<path d="M33.1348 50.0234C33.1348 46.8472 35.7095 44.2725 38.8857 44.2725H42.6281H43.9336H49.0594V55.7743H38.8857C35.7095 55.7743 33.1348 53.1995 33.1348 50.0234Z" fill="#F2FFD2"/>
</g>
<circle cx="1.50731" cy="1.50731" r="1.50731" transform="matrix(-1 0 0 1 39.0728 48.5161)" fill="#A8CE9F"/>
<defs>
<filter id="filter0_d_1_848" x="30.6718" y="44.2725" width="20.8505" height="16.4278" filterUnits="userSpaceOnUse" color-interpolation-filters="sRGB">
<feFlood flood-opacity="0" result="BackgroundImageFix"/>
<feColorMatrix in="SourceAlpha" type="matrix" values="0 0 0 0 0 0 0 0 0 0 0 0 0 0 0 0 0 0 127 0" result="hardAlpha"/>
<feOffset dy="2.46296"/>
<feGaussianBlur stdDeviation="1.23148"/>
<feComposite in2="hardAlpha" operator="out"/>
<feColorMatrix type="matrix" values="0 0 0 0 0 0 0 0 0 0.267857 0 0 0 0 1 0 0 0 0.09 0"/>
<feBlend mode="normal" in2="BackgroundImageFix" result="effect1_dropShadow_1_848"/>
<feBlend mode="normal" in="SourceGraphic" in2="effect1_dropShadow_1_848" result="shape"/>
</filter>
<linearGradient id="paint0_linear_1_848" x1="26.0573" y1="29.9098" x2="26.0573" y2="69.4948" gradientUnits="userSpaceOnUse">
<stop stop-color="#BDCF74"/>
<stop offset="1" stop-color="#9EC588"/>
</linearGradient>
<linearGradient id="paint1_linear_1_848" x1="23.0839" y1="32.4341" x2="23.0839" y2="72.019" gradientUnits="userSpaceOnUse">
<stop stop-color="#DAEA99"/>
<stop offset="1" stop-color="#B9D6A8"/>
</linearGradient>
</defs>
</svg>
