<svg width="45" height="44" viewBox="0 0 45 44" fill="none" xmlns="http://www.w3.org/2000/svg">
<g style="mix-blend-mode:multiply" opacity="0.34">
<path d="M31.7482 6.93555H10.4374C9.91968 6.93555 9.5 7.35523 9.5 7.87293V31.9627C9.5 32.4803 9.91968 32.9 10.4374 32.9H31.7482C32.2659 32.9 32.6855 32.4803 32.6855 31.9627V7.87293C32.6855 7.35523 32.2659 6.93555 31.7482 6.93555Z" fill="#F6BE5A"/>
</g>
<path d="M34.1707 19.3374H14.7181C14.2004 19.3374 13.7808 19.7571 13.7808 20.2748V25.8741C13.7808 26.3918 14.2004 26.8115 14.7181 26.8115H34.1707C34.6884 26.8115 35.1081 26.3918 35.1081 25.8741V20.2748C35.1081 19.7571 34.6884 19.3374 34.1707 19.3374Z" fill="#F6BE5A"/>
<g style="mix-blend-mode:multiply" opacity="0.78">
<path d="M26.8291 23.9081H18.0029C17.5466 23.9081 17.1733 23.5348 17.1733 23.0786C17.1733 22.6223 17.5466 22.249 18.0029 22.249H26.8291C27.2854 22.249 27.6587 22.6223 27.6587 23.0786C27.6587 23.5348 27.2854 23.9081 26.8291 23.9081Z" fill="#F6BE5A"/>
</g>
<g style="mix-blend-mode:multiply" opacity="0.78">
<path d="M30.8854 23.9081H29.6992C29.2429 23.9081 28.8696 23.5348 28.8696 23.0786C28.8696 22.6223 29.2429 22.249 29.6992 22.249H30.8854C31.3416 22.249 31.7149 22.6223 31.7149 23.0786C31.7149 23.5348 31.3416 23.9081 30.8854 23.9081Z" fill="#F6BE5A"/>
</g>
<path d="M34.1707 10.4609H14.7181C14.2004 10.4609 13.7808 10.8806 13.7808 11.3983V16.9977C13.7808 17.5154 14.2004 17.9351 14.7181 17.9351H34.1707C34.6884 17.9351 35.1081 17.5154 35.1081 16.9977V11.3983C35.1081 10.8806 34.6884 10.4609 34.1707 10.4609Z" fill="#F6BE5A"/>
<g style="mix-blend-mode:multiply" opacity="0.78">
<path d="M26.8291 15.0233H18.0029C17.5466 15.0233 17.1733 14.65 17.1733 14.1938C17.1733 13.7375 17.5466 13.3643 18.0029 13.3643H26.8291C27.2854 13.3643 27.6587 13.7375 27.6587 14.1938C27.6587 14.65 27.2854 15.0233 26.8291 15.0233Z" fill="#F6BE5A"/>
</g>
<g style="mix-blend-mode:multiply" opacity="0.78">
<path d="M30.8854 15.0233H29.6992C29.2429 15.0233 28.8696 14.65 28.8696 14.1938C28.8696 13.7375 29.2429 13.3643 29.6992 13.3643H30.8854C31.3416 13.3643 31.7149 13.7375 31.7149 14.1938C31.7149 14.65 31.3416 15.0233 30.8854 15.0233Z" fill="#F6BE5A"/>
</g>
<path d="M34.1127 28.2212H14.7762C14.2264 28.2212 13.7808 28.6669 13.7808 29.2166V34.6999C13.7808 35.2496 14.2264 35.6953 14.7762 35.6953H34.1127C34.6624 35.6953 35.1081 35.2496 35.1081 34.6999V29.2166C35.1081 28.6669 34.6624 28.2212 34.1127 28.2212Z" fill="#F6BE5A"/>
<g style="mix-blend-mode:multiply" opacity="0.78">
<path d="M26.8291 32.7836H18.0029C17.5466 32.7836 17.1733 32.4103 17.1733 31.954C17.1733 31.4978 17.5466 31.1245 18.0029 31.1245H26.8291C27.2854 31.1245 27.6587 31.4978 27.6587 31.954C27.6587 32.4103 27.2854 32.7836 26.8291 32.7836Z" fill="#F6BE5A"/>
</g>
<g style="mix-blend-mode:multiply" opacity="0.78">
<path d="M30.8854 32.7836H29.6992C29.2429 32.7836 28.8696 32.4103 28.8696 31.954C28.8696 31.4978 29.2429 31.1245 29.6992 31.1245H30.8854C31.3416 31.1245 31.7149 31.4978 31.7149 31.954C31.7149 32.4103 31.3416 32.7836 30.8854 32.7836Z" fill="#F6BE5A"/>
</g>
</svg>
