<svg width="44" height="44" viewBox="0 0 44 44" fill="none" xmlns="http://www.w3.org/2000/svg">
<g opacity="0.36">
<path d="M24.96 9.00391H12.1974C11.5361 9.00391 11 9.53999 11 10.2013V33.1838C11 33.8451 11.5361 34.3812 12.1974 34.3812H24.96C25.6213 34.3812 26.1574 33.8451 26.1574 33.1838V10.2013C26.1574 9.53999 25.6213 9.00391 24.96 9.00391Z" fill="#92B5F9"/>
<g style="mix-blend-mode:multiply" opacity="0.83">
<path d="M23.8962 10.1587H13.2607C12.7434 10.1587 12.324 10.5781 12.324 11.0955V32.289C12.324 32.8064 12.7434 33.2258 13.2607 33.2258H23.8962C24.4136 33.2258 24.833 32.8064 24.833 32.289V11.0955C24.833 10.5781 24.4136 10.1587 23.8962 10.1587Z" fill="#92B5F9"/>
</g>
<g opacity="0.98">
<path d="M15.0219 10.1587H22.4386V10.6729C22.4386 10.9264 22.2344 11.1377 21.9738 11.1377H15.4798C15.2262 11.1377 15.0149 10.9335 15.0149 10.6729V10.1587H15.0219Z" fill="white"/>
</g>
</g>
<g style="mix-blend-mode:multiply">
<path d="M27.918 22.2314H15.0709C14.7208 22.2314 14.437 22.5153 14.437 22.8654V25.7602C14.437 26.1103 14.7208 26.3941 15.0709 26.3941H27.918C28.2681 26.3941 28.5519 26.1103 28.5519 25.7602V22.8654C28.5519 22.5153 28.2681 22.2314 27.918 22.2314Z" fill="#88B6FF"/>
</g>
<g style="mix-blend-mode:multiply">
<path d="M26.6573 14.8921H15.0709C14.7208 14.8921 14.437 15.1759 14.437 15.526V20.2239C14.437 20.574 14.7208 20.8578 15.0709 20.8578H26.6573C27.0074 20.8578 27.2912 20.574 27.2912 20.2239V15.526C27.2912 15.1759 27.0074 14.8921 26.6573 14.8921Z" fill="#88B6FF"/>
</g>
<g style="mix-blend-mode:multiply">
<path d="M29.0167 31.0639L26.4107 24.6052C26.3261 24.3938 26.5304 24.1825 26.7417 24.26L33.3484 26.535C33.5949 26.6196 33.5808 26.9647 33.3343 27.0351L30.4324 27.8733C30.3409 27.9015 30.2704 27.9719 30.2493 28.0634L29.5097 31.0287C29.4464 31.2752 29.1083 31.3034 29.0097 31.0639H29.0167Z" fill="#88B6FF"/>
</g>
</svg>
