<svg width="33" height="32" viewBox="0 0 33 32" fill="none" xmlns="http://www.w3.org/2000/svg">
<rect x="0.660156" y="0.5" width="31" height="31" rx="3.5" fill="#FAFAFA"/>
<rect x="0.660156" y="0.5" width="31" height="31" rx="3.5" stroke="#E6E6E6"/>
<g clip-path="url(#clip0_2124_1941)">
<path d="M9.3682 24.8204L4.56878 16.5072C4.38425 16.1876 4.28711 15.8251 4.28711 15.456C4.28711 15.087 4.38425 14.7244 4.56878 14.4048L9.3682 6.09183C9.55276 5.77217 9.8182 5.50673 10.1379 5.32219C10.4575 5.13765 10.8201 5.0405 11.1892 5.04053H20.7881C21.1572 5.04054 21.5197 5.13769 21.8394 5.32224C22.159 5.50678 22.4244 5.7722 22.6089 6.09183L27.4084 14.4048C27.5929 14.7244 27.6901 15.087 27.6901 15.4561C27.6901 15.8252 27.5929 16.1878 27.4084 16.5074L22.6089 24.8204C22.4244 25.14 22.159 25.4054 21.8393 25.5899C21.5197 25.7744 21.1571 25.8715 20.7881 25.8715H11.1892C10.8201 25.8715 10.4575 25.7744 10.1379 25.5899C9.81819 25.4053 9.55274 25.14 9.3682 24.8204Z" fill="url(#paint0_linear_2124_1941)"/>
<path opacity="0.07" d="M26.0856 19.5663L19.0274 12.5078L15.9878 11.6943L13.2575 12.7091L12.2031 15.4562L13.0509 18.5148L20.5358 25.9997L22.1241 25.9292L26.0856 19.5663Z" fill="black"/>
<path d="M15.9889 11.2151C13.6468 11.2151 11.748 13.1138 11.748 15.4561C11.748 17.7983 13.6468 19.697 15.9889 19.697C18.331 19.697 20.2296 17.7983 20.2296 15.4561C20.2296 13.1138 18.3308 11.2151 15.9889 11.2151ZM15.9889 18.6738C14.2118 18.6738 12.771 17.2331 12.771 15.4559C12.771 13.6788 14.2118 12.2382 15.9889 12.2382C17.7661 12.2382 19.2068 13.679 19.2068 15.4561C19.2068 17.2333 17.7661 18.6738 15.9889 18.6738Z" fill="white"/>
<path d="M13.9766 15.2924V16.6107C14.1716 16.9455 14.4468 17.2267 14.7774 17.4289V15.2924H13.9766ZM15.5645 14.1812V17.7302C15.7007 17.7552 15.84 17.7704 15.9832 17.7704C16.1137 17.7704 16.241 17.7567 16.3659 17.7358V14.1812H15.5645ZM17.2266 15.8402V17.4056C17.5625 17.1921 17.8383 16.8963 18.0278 16.5463V15.8404L17.2266 15.8402ZM19.0413 18.0684L18.6019 18.5081C18.5647 18.5454 18.5438 18.596 18.5438 18.6486C18.5438 18.7013 18.5647 18.7519 18.6019 18.7891L20.2685 20.4551C20.3058 20.4924 20.3563 20.5133 20.409 20.5133C20.4617 20.5133 20.5122 20.4924 20.5495 20.4551L20.9888 20.016C21.0258 19.9786 21.0466 19.9281 21.0466 19.8756C21.0466 19.823 21.0258 19.7725 20.9888 19.7351L19.3221 18.0684C19.2848 18.0313 19.2343 18.0105 19.1817 18.0105C19.1291 18.0105 19.0786 18.0313 19.0413 18.0684Z" fill="white"/>
</g>
<defs>
<linearGradient id="paint0_linear_2124_1941" x1="15.9887" y1="5.04071" x2="15.9887" y2="25.8391" gradientUnits="userSpaceOnUse">
<stop stop-color="#4387FD"/>
<stop offset="1" stop-color="#4683EA"/>
</linearGradient>
<clipPath id="clip0_2124_1941">
<rect width="24" height="24" fill="white" transform="translate(3.98828 3.52002)"/>
</clipPath>
</defs>
</svg>
