<svg width="33" height="32" viewBox="0 0 33 32" fill="none" xmlns="http://www.w3.org/2000/svg">
<rect x="0.660156" y="0.5" width="31" height="31" rx="3.5" fill="#FAFAFA"/>
<rect x="0.660156" y="0.5" width="31" height="31" rx="3.5" stroke="#E6E6E6"/>
<path d="M21.2365 10.52H10.2188C7.29986 10.52 4.93359 12.8862 4.93359 15.805C4.93359 18.7238 7.29986 21.09 10.2188 21.09H21.2365C24.1554 21.09 26.5217 18.7238 26.5217 15.805C26.5217 12.8862 24.1554 10.52 21.2365 10.52Z" fill="#016DF9"/>
<path d="M11.704 17.107L9.95565 14.3916C9.91628 14.3307 9.82716 14.3307 9.78778 14.3916L8.03945 17.107C7.99676 17.1733 8.04442 17.2608 8.12359 17.2608H11.6207C11.6998 17.2608 11.7475 17.1733 11.7048 17.107H11.704Z" fill="white"/>
<path d="M17.129 14.2622H14.3639C14.2751 14.2622 14.2031 14.3342 14.2031 14.423V17.1881C14.2031 17.2769 14.2751 17.3489 14.3639 17.3489H17.129C17.2179 17.3489 17.2899 17.2769 17.2899 17.1881V14.423C17.2899 14.3342 17.2179 14.2622 17.129 14.2622Z" fill="white"/>
<path d="M21.6638 17.4776C22.5871 17.4776 23.3355 16.7292 23.3355 15.8059C23.3355 14.8827 22.5871 14.1343 21.6638 14.1343C20.7406 14.1343 19.9922 14.8827 19.9922 15.8059C19.9922 16.7292 20.7406 17.4776 21.6638 17.4776Z" fill="white"/>
</svg>
