<svg width="32" height="33" viewBox="0 0 32 33" fill="none" xmlns="http://www.w3.org/2000/svg">
<rect x="0.399998" y="0.899998" width="31.2" height="31.2" rx="5.99997" fill="white"/>
<rect x="0.399998" y="0.899998" width="31.2" height="31.2" rx="5.99997" stroke="#E1E4EA" stroke-width="0.799996"/>
<path d="M22.6666 15.6665C22.6666 14.2858 21.5473 13.1665 20.1666 13.1665L19.6666 13.1665C19.3569 13.1665 19.2021 13.1665 19.0725 13.146C18.3594 13.033 17.8001 12.4737 17.6871 11.7606C17.6666 11.631 17.6666 11.4762 17.6666 11.1665V10.6665C17.6666 9.28579 16.5473 8.1665 15.1666 8.1665M12.6666 17.3332H19.3333M12.6666 20.6665H16.8333M22.6666 14.8332V21.4998C22.6666 23.3408 21.1742 24.8332 19.3333 24.8332H12.6666C10.8256 24.8332 9.33325 23.3408 9.33325 21.4998V11.4998C9.33325 9.65889 10.8256 8.1665 12.6666 8.1665H15.9999C19.6818 8.1665 22.6666 11.1513 22.6666 14.8332Z" stroke="#525866" stroke-width="1.66667" stroke-linecap="round" stroke-linejoin="round"/>
</svg>
