<svg width="24" height="24" viewBox="0 0 24 24" fill="none" xmlns="http://www.w3.org/2000/svg">
<rect width="24" height="24" fill="#32AA52"/>
<path d="M15.9909 4H7.32727L3 11.5L7.32727 19H15.9909L20.3182 11.5L15.9909 4Z" fill="#32AA52"/>
<path d="M14.4357 14.3019H14.2915C12.9079 14.3019 11.5226 14.3019 10.139 14.3019C9.81028 14.3019 9.52182 14.1895 9.29541 13.9447C9.14447 13.782 9.05559 13.5891 9.02205 13.3678C9.00024 13.2403 9.00024 13.1128 9.00024 12.9854C9.00024 12.6869 9.00024 12.3883 9.00024 12.0898C9.00024 11.9003 9.02708 11.7175 9.10422 11.5448C9.21491 11.2982 9.39604 11.1171 9.64089 11.0047C9.81699 10.9242 10.0048 10.894 10.1994 10.8974C10.5113 10.9024 10.8232 10.8974 11.1352 10.8974H11.2576C11.2995 10.9393 11.2844 10.9846 11.2844 11.0249C11.2844 11.5414 11.2844 12.0563 11.2844 12.5728C11.2844 12.6567 11.3029 12.7305 11.3499 12.8009C11.3968 12.8713 11.4639 12.9116 11.5394 12.9149C11.7473 12.9233 11.957 12.9183 12.1716 12.9183C12.175 12.8814 12.18 12.8529 12.18 12.8244C12.18 12.0697 12.18 11.315 12.18 10.5603C12.18 10.463 12.1498 10.3876 12.0777 10.3238C12.0308 10.2836 11.9804 10.2567 11.9167 10.2584C11.8781 10.2584 11.8396 10.2584 11.801 10.2584C10.9557 10.2584 10.1088 10.2584 9.26355 10.2584H9.1277C9.11932 10.25 9.11764 10.2467 9.11429 10.2433C9.11093 10.24 9.10758 10.2366 9.10758 10.2333C9.1059 9.80728 9.10422 9.3813 9.10255 8.95364C9.10255 8.93351 9.1059 8.91171 9.10926 8.88488C9.14615 8.88152 9.17802 8.87649 9.21156 8.87649C10.5868 8.87649 11.962 8.87314 13.3389 8.87649C13.8907 8.87817 14.3368 9.27229 14.4139 9.7838C14.4256 9.85927 14.4374 9.93474 14.4374 10.0102C14.4374 11.3921 14.4374 12.7741 14.4374 14.156V14.3002L14.4357 14.3019Z" fill="white"/>
</svg>
