<svg width="26" height="12" viewBox="0 0 26 12" fill="none" xmlns="http://www.w3.org/2000/svg">
<path fill-rule="evenodd" clip-rule="evenodd" d="M6.3011 4.70984C5.71009 4.8872 5.30675 5.47264 5.22296 6.27474L5.17418 6.74109H4.84619H4.51813V7.2304V7.71971H4.85545H5.19277L5.21302 9.39467L5.23327 11.0696H5.8355H6.43774L6.45799 9.39467L6.47823 7.71971H7.37872H8.27921L8.29945 9.39467L8.3197 11.0696H8.92194H9.52417L9.54442 9.39467L9.56466 7.71971H10.1278H10.691V7.2304V6.74109H10.1264H9.5618V6.43621C9.5618 5.73853 9.89514 5.50328 10.6111 5.69569C10.7271 5.72694 10.9811 5.28113 11.012 4.99199C11.0355 4.77165 10.6704 4.64269 10.0135 4.63916C8.97433 4.63366 8.4254 5.1649 8.30781 6.28987L8.26061 6.74109H7.36803H6.47537V6.43621C6.47537 6.09211 6.63534 5.72859 6.81752 5.65866C7.00225 5.58782 7.29591 5.60257 7.4613 5.6911C7.59319 5.76171 7.63008 5.72498 7.80021 5.35333C7.90514 5.12403 7.97064 4.90331 7.94564 4.86288C7.82317 4.66467 6.77611 4.56726 6.3011 4.70984ZM15.7347 6.66009C15.3887 6.72822 15.0994 6.92417 14.9111 7.21813L14.7586 7.45624L14.7573 7.09866L14.756 6.74109H14.1914H13.6269V8.92719V11.1134L14.2479 11.0915L14.869 11.0696L14.9066 9.75224C14.95 8.23583 15.0052 8.05975 15.5094 7.83241C15.7674 7.71603 15.8727 7.70534 16.1179 7.77083C16.3906 7.84362 16.4173 7.83715 16.4503 7.69073C16.6052 7.00487 16.6362 6.78513 16.5846 6.73815C16.4857 6.6482 16.0149 6.60499 15.7347 6.66009ZM1.16438 6.80869C0.803645 6.94043 0.461954 7.10529 0.239505 7.25494C0.158731 7.30929 0.178981 7.40234 0.342713 7.72815C0.454803 7.95127 0.555376 8.14391 0.566216 8.15626C0.577056 8.16868 0.714364 8.09174 0.871245 7.98522C1.58323 7.50208 2.65678 7.47897 2.71512 7.94555C2.76315 8.3291 2.67319 8.38172 1.69321 8.54341C1.02263 8.65407 0.395484 8.96392 0.172583 9.2947C-0.0433917 9.61516 -0.0588989 10.204 0.138708 10.5815C0.523081 11.3158 1.91303 11.3856 2.59392 10.7047L2.77851 10.5201L2.80147 10.7949L2.82435 11.0696L3.41175 11.0917L3.99923 11.1137L3.97634 9.43554C3.9497 7.47739 3.90603 7.32119 3.27535 6.92929C2.94947 6.72671 2.84144 6.70172 2.2283 6.68666C1.71828 6.67409 1.44803 6.70511 1.16438 6.80869ZM18.8964 6.82194C18.7515 6.90753 18.5569 7.06833 18.4639 7.17921L18.2949 7.38096L18.2945 7.05786L18.2941 6.73477L17.7107 6.75675L17.1273 6.77873V8.92418V11.0696L17.7484 11.0915L18.3694 11.1134L18.3711 9.81171C18.3733 8.08918 18.5229 7.71971 19.2185 7.71971C19.3837 7.71971 19.5264 7.7761 19.6187 7.87795C19.7467 8.01925 19.7661 8.19841 19.7997 9.5529L19.8374 11.0696H20.4396H21.0418L21.0795 9.67696C21.1175 8.26857 21.1313 8.19307 21.4049 7.88909C21.6537 7.61274 22.2509 7.67884 22.4062 7.9999C22.4419 8.07352 22.4881 8.79432 22.5092 9.60168L22.5474 11.0696H23.1496H23.7519L23.7747 9.67696C23.8018 8.02128 23.7592 7.5821 23.5399 7.25991C23.255 6.84151 23.009 6.71105 22.4443 6.67914C21.8755 6.64699 21.4995 6.78453 21.1593 7.1491L20.9755 7.34588L20.7076 7.08564C20.3694 6.75712 20.1255 6.66574 19.5878 6.66611C19.2908 6.66626 19.0792 6.71399 18.8964 6.82194ZM11.3862 8.90536L11.4061 11.0696H12.0084H12.6106L12.6305 8.90536L12.6506 6.74109H12.0084H11.3662L11.3862 8.90536ZM2.71113 9.31939C2.71046 9.7484 2.14398 10.2784 1.68554 10.2789C1.41054 10.2793 1.26232 10.1317 1.26232 9.85763C1.26232 9.58798 1.50163 9.37404 1.93298 9.25811C2.51052 9.10289 2.71151 9.1187 2.71113 9.31939Z" fill="black"/>
<path fill-rule="evenodd" clip-rule="evenodd" d="M17.3451 0.870782C14.7509 1.33969 12.5007 3.17017 11.5976 5.54604C11.513 5.76857 11.4438 5.97604 11.4438 6.00713C11.4438 6.03822 11.7087 6.06359 12.0324 6.06359H12.621L12.8615 5.51782C13.5473 3.96143 15.0284 2.71059 16.8638 2.1378C17.3511 1.98574 17.583 1.96172 18.5576 1.96255C19.8472 1.96353 20.2688 2.0513 21.3021 2.53407C23.1318 3.38886 24.3755 5.00223 24.7978 7.06909C24.9569 7.84784 24.958 9.46792 24.8 10.2538C24.7347 10.5783 24.6754 10.8946 24.6682 10.9567C24.6577 11.0482 24.7621 11.0696 25.218 11.0696H25.7808L25.8877 10.6556C25.962 10.3676 25.9959 9.77182 25.9993 8.69834C26.0038 7.2472 25.992 7.11034 25.8002 6.40407C25.0822 3.76081 23.1663 1.79249 20.5901 1.05168C20.0362 0.892386 19.7137 0.85181 18.8211 0.829076C18.2207 0.813795 17.5566 0.832616 17.3451 0.870782Z" fill="#4A49EB"/>
</svg>
