<svg width="247" height="48" xmlns="http://www.w3.org/2000/svg">
  <rect width="247" height="48" fill="white" />

  <g transform="translate(18,6) scale(0.85)" fill="#010000" fill-rule="evenodd">

    <g transform="scale(0.75) translate(0,5)">
    <path d="M97.706 37.19c-9.142 6.79-22.423 10.378-33.807 10.378-15.997 0-30.4-5.924-41.31-15.784-.862-.778-.085-1.816.95-1.254C35.31 37.406 49.841 41.514 64.89 41.514c10.133 0 21.259-2.119 31.521-6.486 1.51-.649 2.846 1.038 1.294 2.162z M101.544 32.822c-1.165-1.513-7.719-.692-10.694-.346-.906.087-1.035-.692-.216-1.254 5.218-3.676 13.799-2.638 14.79-1.384.992 1.254-.258 9.86-5.174 13.968-.776.649-1.466.303-1.121-.562 1.12-2.724 3.579-8.908 2.415-10.422z M90.934 5.05V1.405c0-.57.431-.922.905-.922h15.981c.517 0 .905.395.905.922v3.118c0 .527-.431 1.185-1.206 2.283L99.248 18.88c3.058-.088 6.332.395 9.132 1.976.646.351.819.878.862 1.405v3.864c0 .527-.56 1.142-1.163.834-4.911-2.634-11.459-2.898-16.886.044-.56.308-1.12-.307-1.12-.834v-3.688c0-.571 0-1.581.603-2.503l9.606-14.051h-8.357c-.56 0-.99-.352-.99-.878z M32.566 27.75h-4.868a.93.93 0 0 1-.861-.834V1.45c0-.527.43-.922.947-.922h4.523c.474.044.862.395.905.834v3.337h.086C34.461 1.493 36.701 0 39.716 0c3.059 0 4.954 1.493 6.333 4.698C47.212 1.493 49.926 0 52.769 0c2.024 0 4.264.878 5.643 2.766 1.55 2.152 1.206 5.27 1.206 7.992v16.07c0 .528-.431.923-.948.923h-4.868c-.473-.044-.861-.44-.861-.922v-13.48c0-1.054.086-3.733-.13-4.787-.344-1.712-1.464-2.195-2.842-2.195-1.163 0-2.413.79-2.93 2.108-.517 1.273-.473 3.424-.473 4.873v13.48c0 .528-.431.923-.948.923H40.75c-.474-.044-.861-.44-.861-.922v-13.48c0-2.855.474-7.026-3.016-7.026-3.489 0-3.36 4.084-3.36 7.025v13.48c0 .528-.43.923-.947.923z M122.51 0c7.236 0 11.113 6.323 11.113 14.358 0 7.772-4.308 13.92-11.114 13.92-7.107 0-10.941-6.323-10.941-14.183 0-7.948 3.92-14.095 10.941-14.095zm.042 5.181c-3.575 0-3.833 4.962-3.833 8.08 0 3.117-.044 9.747 3.79 9.747 3.791 0 3.963-5.356 3.963-8.606 0-2.151-.086-4.698-.732-6.762-.517-1.756-1.637-2.459-3.188-2.459z M143.014 27.75h-4.868c-.474-.043-.862-.438-.862-.921V1.36c.044-.483.431-.834.948-.834h4.523c.43.044.776.307.862.702v3.908h.086C145.08 1.67 146.977 0 150.337 0c2.196 0 4.307.79 5.686 2.986 1.292 2.02 1.292 5.445 1.292 7.947V26.96c-.043.44-.43.79-.948.79H151.5c-.431-.043-.819-.35-.862-.79V13.13c0-2.766.302-6.85-3.058-6.85-1.163 0-2.283.79-2.8 2.02-.69 1.537-.776 3.117-.776 4.83v13.7a.995.995 0 0 1-.99.922z M78.184 15.851c0 1.932.043 3.557-.905 5.27-.775 1.404-2.025 2.239-3.36 2.239-1.852 0-2.972-1.45-2.972-3.6 0-4.216 3.704-5.006 7.237-5.006v1.097zm4.91 12.075c-.301.308-.775.308-1.163.132-1.637-1.361-1.895-2.02-2.8-3.293-2.67 2.766-4.566 3.6-8.012 3.6-4.092 0-7.28-2.59-7.28-7.728 0-4.04 2.154-6.762 5.17-8.123 2.627-1.185 6.332-1.405 9.132-1.712v-.659c0-1.185.086-2.59-.604-3.6-.603-.923-1.723-1.274-2.713-1.274-1.853 0-3.49.966-3.92 2.986-.086.439-.388.878-.862.922l-4.738-.527c-.388-.088-.862-.439-.732-1.054C65.648 1.756 70.818 0 75.47 0c2.369 0 5.47.659 7.323 2.459 2.369 2.24 2.154 5.269 2.154 8.518v7.728c0 2.328.947 3.337 1.852 4.61.301.44.388 1.01 0 1.318-.948.878-2.714 2.415-3.705 3.293z M14.388 15.851c0 1.932.043 3.557-.905 5.27-.775 1.404-2.025 2.239-3.36 2.239-1.852 0-2.972-1.45-2.972-3.6 0-4.216 3.704-5.006 7.237-5.006v1.097zm4.91 12.075c-.301.308-.775.308-1.163.132-1.637-1.361-1.895-2.02-2.8-3.293-2.67 2.766-4.566 3.6-8.012 3.6-4.092 0-7.28-2.59-7.28-7.728 0-4.04 2.154-6.762 5.17-8.123 2.627-1.185 6.331-1.405 9.131-1.712v-.659c0-1.185.087-2.59-.603-3.6-.603-.923-1.723-1.274-2.713-1.274-1.853 0-3.49.966-3.92 2.986-.087.439-.388.878-.862.922L1.551 8.65c-.388-.088-.862-.439-.733-1.054C1.895 1.756 7.065 0 11.717 0c2.369 0 5.47.659 7.323 2.459 2.369 2.24 2.154 5.269 2.154 8.518v7.728c0 2.328.947 3.337 1.852 4.61.301.44.388 1.01 0 1.318-.99.878-2.757 2.415-3.748 3.293z"/>
    </g>
    
    <g transform="scale(0.75) translate(5,5)">
      <path d="M175.081 3.383c1.3-1.113 2.686-1.97 4.16-2.527C180.712.3 182.23 0 183.745 0c1.646 0 3.12.3 4.462.9a8.86 8.86 0 0 1 3.38 2.654 12.014 12.014 0 0 1 2.122 4.197c.477 1.627.737 3.511.737 5.566 0 2.099-.26 3.983-.78 5.696-.52 1.713-1.256 3.126-2.253 4.325-.953 1.199-2.123 2.098-3.509 2.783a10.7 10.7 0 0 1-4.549.985c-3.076 0-5.719-.985-7.971-2.998V35.97c0 .685-.347 1.028-1.04 1.028h-3.033c-.693 0-1.04-.343-1.04-1.028V1.841c0-.685.347-1.027 1.04-1.027h2.253c.693 0 1.083.342 1.17 1.027l.346 1.542zm7.235.642c-2.426 0-4.722.771-6.888 2.313v14.13c2.21 1.628 4.462 2.441 6.758 2.441 4.723 0 7.062-3.126 7.062-9.42.043-6.295-2.296-9.464-6.932-9.464z M200.788 5.202a1.994 1.994 0 0 1-.388.13c-.172.043-.302.087-.43.087-.432 0-.647-.304-.647-.91V3.12c0-.477.086-.823.215-.997.13-.173.388-.347.819-.52 1.077-.477 2.412-.867 4.05-1.17a25.48 25.48 0 0 1 4.78-.434c3.231 0 5.6.65 7.151 1.994 1.551 1.344 2.283 3.425 2.283 6.2V25.75c0 .694-.344 1.04-1.034 1.04h-2.196c-.647 0-1.034-.346-1.12-.953l-.259-1.691a14.957 14.957 0 0 1-4.05 2.471c-1.464.564-2.971.867-4.393.867-2.455 0-4.394-.694-5.815-2.08-1.422-1.388-2.154-3.252-2.154-5.593 0-2.514.905-4.508 2.67-5.982 1.767-1.474 4.136-2.255 7.151-2.255 1.896 0 4.05.304 6.419.867v-3.38c0-1.865-.388-3.165-1.206-3.902-.819-.737-2.24-1.127-4.265-1.127-2.455 0-4.954.39-7.581 1.17zm5.944 18.38c1.12 0 2.283-.216 3.532-.65a12.959 12.959 0 0 0 3.533-1.95v-5.246c-.862-.217-1.723-.347-2.671-.477a19.842 19.842 0 0 0-2.714-.173c-3.834 0-5.772 1.474-5.772 4.465 0 1.3.345 2.297 1.077 2.991.69.694 1.723 1.04 3.015 1.04z M235.24 31.457c-.918 2.329-2.011 4.054-3.235 5.045-1.225 1.035-2.842 1.553-4.81 1.553a12.49 12.49 0 0 1-2.972-.345c-.394-.086-.656-.259-.831-.475-.175-.215-.262-.56-.262-1.034v-1.337c0-.647.262-.992.787-.992.175 0 .437.043.787.086.35.087.83.087 1.399.087 1.311 0 2.317-.302 3.06-.906.743-.604 1.399-1.725 1.967-3.363l1.006-2.588-10.012-24.32c-.262-.56-.35-.992-.35-1.207 0-.388.263-.604.744-.604h3.104c.568 0 .918.086 1.136.259.219.172.394.56.612 1.12l7.258 19.837 6.995-19.836c.218-.56.393-.949.612-1.121.218-.173.568-.259 1.136-.259h2.886c.48 0 .743.216.743.604 0 .258-.131.647-.35 1.207l-11.41 28.59z"/>
    </g>
  </g>
</svg>