<svg width="40" height="24" viewBox="0 0 40 24" fill="none" xmlns="http://www.w3.org/2000/svg">
<rect width="40" height="24" rx="2" fill="#016FD0"/>
<g clip-path="url(#clip0_8_108)">
<path fill-rule="evenodd" clip-rule="evenodd" d="M7.76489 19.593V13.245H14.4142L15.1276 14.1849L15.8647 13.245H40V19.1552C40 19.1552 39.3689 19.5867 38.6389 19.593H25.2744L24.4702 18.5923V19.593H21.8344V17.8849C21.8344 17.8849 21.4744 18.1232 20.696 18.1232H19.7989V19.593H15.8082L15.0958 18.6329L14.3724 19.593H7.76489Z" fill="white"/>
<path fill-rule="evenodd" clip-rule="evenodd" d="M0 8.46022L1.49956 4.92645H4.09244L4.94356 6.90595V4.92645H8.16689L8.67356 6.35716L9.16467 4.92645H23.6349V5.64573C23.6349 5.64573 24.3956 4.92645 25.6458 4.92645L30.3409 4.94307L31.1771 6.89652V4.92645H33.8747L34.6171 6.04874V4.92645H37.3396V11.2747H34.6171L33.9056 10.149V11.2747H29.9422L29.5436 10.2739H28.4782L28.0862 11.2747H25.3982C24.3224 11.2747 23.6349 10.57 23.6349 10.57V11.2747H19.5824L18.778 10.2739V11.2747H3.70844L3.31 10.2739H2.248L1.85267 11.2747H0V8.46022Z" fill="white"/>
<path fill-rule="evenodd" clip-rule="evenodd" d="M2.03023 5.70908L0.00778198 10.4624H1.32445L1.69756 9.51063H3.86689L4.23823 10.4624H5.58401L3.56334 5.70908H2.03023ZM2.77845 6.81542L3.43956 8.47864H2.11512L2.77845 6.81542Z" fill="#016FD0"/>
<path fill-rule="evenodd" clip-rule="evenodd" d="M5.72311 10.4615V5.70841L7.59423 5.71538L8.68245 8.78011L9.74467 5.70841H11.6009V10.4617H10.4253V6.95919L9.17911 10.4617H8.14823L6.89867 6.95919V10.4617L5.72311 10.4615Z" fill="#016FD0"/>
<path fill-rule="evenodd" clip-rule="evenodd" d="M12.4053 10.4615V5.70841H16.2413V6.77162H13.5931V7.58459H16.1793V8.58535H13.5931V9.42976H16.2413V10.4615H12.4053Z" fill="#016FD0"/>
<path fill-rule="evenodd" clip-rule="evenodd" d="M16.9218 5.70908V10.4624H18.0973V8.77381H18.5924L20.0018 10.4624H21.4384L19.8918 8.71114C20.5264 8.657 21.1813 8.10619 21.1813 7.25122C21.1813 6.25091 20.4047 5.70908 19.5378 5.70908H16.9218ZM18.0973 6.77229H19.4411C19.7636 6.77229 19.998 7.02726 19.998 7.27279C19.998 7.5884 19.6942 7.77305 19.4587 7.77305H18.0973V6.77229Z" fill="#016FD0"/>
<path fill-rule="evenodd" clip-rule="evenodd" d="M21.6611 10.4617H22.8616V5.70841H21.6611V10.4617Z" fill="#016FD0"/>
<path fill-rule="evenodd" clip-rule="evenodd" d="M25.7076 10.4615H25.4487C24.1949 10.4615 23.4338 9.46323 23.4338 8.1044C23.4338 6.71209 24.1864 5.70841 25.7696 5.70841H27.0689V6.83407H25.722C25.0793 6.83407 24.6249 7.34108 24.6249 8.1163C24.6249 9.03687 25.1447 9.42347 25.8933 9.42347H26.2027L25.7076 10.4615Z" fill="#016FD0"/>
<path fill-rule="evenodd" clip-rule="evenodd" d="M28.2655 5.70908L26.2431 10.4624H27.5598L27.9331 9.51063H30.1024L30.4738 10.4624H31.8193L29.7989 5.70908H28.2655ZM29.0138 6.81542L29.6751 8.47864H28.3507L29.0138 6.81542Z" fill="#016FD0"/>
<path fill-rule="evenodd" clip-rule="evenodd" d="M31.9567 10.4615V5.70841H33.4511L35.3596 8.69475V5.70841H36.5351V10.4615H35.0889L33.1322 7.39701V10.4615H31.9567Z" fill="#016FD0"/>
<path fill-rule="evenodd" clip-rule="evenodd" d="M8.56912 18.7801V14.0265H12.4053V15.09H9.75712V15.9029H12.3433V16.9037H9.75712V17.7481H12.4053V18.7801H8.56912Z" fill="#016FD0"/>
<path fill-rule="evenodd" clip-rule="evenodd" d="M27.3658 18.7801V14.0265H31.2018V15.09H28.5538V15.9029H31.1276V16.9037H28.5538V17.7481H31.2018V18.7801H27.3658Z" fill="#016FD0"/>
<path fill-rule="evenodd" clip-rule="evenodd" d="M12.554 18.7801L14.4218 16.4326L12.5098 14.0267H13.9907L15.1295 15.5141L16.2722 14.0267H17.6953L15.8082 16.4034L17.6793 18.7801H16.1984L15.0929 17.3161L14.0138 18.7801H12.554Z" fill="#016FD0"/>
<path fill-rule="evenodd" clip-rule="evenodd" d="M17.8191 14.0274V18.781H19.0256V17.2797H20.2629C21.31 17.2797 22.1036 16.7184 22.1036 15.6264C22.1036 14.7216 21.4811 14.0274 20.4158 14.0274H17.8191ZM19.0256 15.1025H20.3287C20.6669 15.1025 20.9087 15.3119 20.9087 15.6498C20.9087 15.9669 20.668 16.197 20.3249 16.197H19.0256V15.1025Z" fill="#016FD0"/>
<path fill-rule="evenodd" clip-rule="evenodd" d="M22.614 14.0265V18.7801H23.7896V17.0913H24.2847L25.694 18.7801H27.1307L25.5838 17.0288C26.2187 16.9747 26.8736 16.4239 26.8736 15.5687C26.8736 14.5686 26.0969 14.0267 25.23 14.0267L22.614 14.0265ZM23.7896 15.09H25.1333C25.4558 15.09 25.6902 15.3449 25.6902 15.5902C25.6902 15.9061 25.3865 16.0907 25.1507 16.0907H23.7896V15.09Z" fill="#016FD0"/>
<path fill-rule="evenodd" clip-rule="evenodd" d="M31.7462 18.7801V17.7481H34.0989C34.4471 17.7481 34.5978 17.5578 34.5978 17.3494C34.5978 17.1494 34.4476 16.9475 34.0989 16.9475H33.0358C32.1118 16.9475 31.5971 16.3782 31.5971 15.524C31.5971 14.7618 32.0684 14.0267 33.4416 14.0267H35.7309L35.2358 15.0962H33.256C32.8775 15.0962 32.7609 15.2971 32.7609 15.4887C32.7609 15.6857 32.9049 15.9029 33.194 15.9029H34.3078C35.338 15.9029 35.7849 16.4937 35.7849 17.2674C35.7849 18.099 35.2869 18.7801 34.2518 18.7801H31.7462Z" fill="#016FD0"/>
<path fill-rule="evenodd" clip-rule="evenodd" d="M36.0609 18.7801V17.7481H38.314C38.662 17.7481 38.8129 17.5578 38.8129 17.3494C38.8129 17.1494 38.6624 16.9475 38.314 16.9475H37.3504C36.4262 16.9475 35.9116 16.3782 35.9116 15.524C35.9116 14.7618 36.3829 14.0267 37.7562 14.0267H40L39.5051 15.0962H37.5707C37.192 15.0962 37.0756 15.2971 37.0756 15.4887C37.0756 15.6857 37.2196 15.9029 37.5087 15.9029H38.5227C39.5529 15.9029 40 16.4937 40 17.2674C40 18.099 39.5018 18.7801 38.4667 18.7801H36.0609Z" fill="#016FD0"/>
</g>
<defs>
<clipPath id="clip0_8_108">
<rect width="40" height="14.6666" fill="white" transform="translate(0 4.92645)"/>
</clipPath>
</defs>
</svg>
