<svg width="40" height="40" viewBox="0 0 40 40" fill="none" xmlns="http://www.w3.org/2000/svg">
<rect x="0.5" y="0.5" width="39" height="39" rx="3.5" fill="#FAFAFA"/>
<rect x="0.5" y="0.5" width="39" height="39" rx="3.5" stroke="#E6E6E6"/>
<g clip-path="url(#clip0_993_724)">
<path d="M19.9561 28.3014C25.0074 23.982 32.1032 19.7827 36 18.2709C35.3986 17.887 34.4606 17.3351 33.4022 16.735C28.3748 18.3909 22.5058 22.0622 17.2619 26.2137C18.1518 26.8856 19.0901 27.5814 19.9561 28.3014Z" fill="#E31837"/>
<path d="M17.6468 16.5673C16.9011 16.2073 16.0832 15.8713 15.4579 15.5833C13.5577 16.5192 11.08 17.9349 7.953 20.1666C8.62665 20.5266 9.34818 20.9586 10.1178 21.3904C12.5232 19.6147 14.9528 17.9349 17.6468 16.5673Z" fill="#012169"/>
<path d="M22.1448 14.5034C21.2309 13.9995 18.0557 12.8238 15.8667 12.3198C15.2174 12.5598 14.3033 12.9198 13.678 13.1836C14.4717 13.3997 17.4303 14.1915 19.9561 15.4634C20.6054 15.1513 21.5195 14.7674 22.1448 14.5034Z" fill="#E31837"/>
<path d="M11.3929 14.1915C8.57836 15.4873 5.61979 17.263 4.00812 18.2949C4.58538 18.5589 5.16285 18.7748 5.95661 19.1587C9.51659 16.7592 12.3067 15.2953 13.4134 14.8154C12.6194 14.5275 11.8737 14.3355 11.3929 14.1915Z" fill="#012169"/>
<path d="M24.2617 13.7597C24.911 13.5436 25.6567 13.3516 26.3062 13.1597C24.43 12.3679 22.0728 11.528 19.9561 11C19.6193 11.096 18.609 11.36 17.9114 11.5759C18.6329 11.7918 21.0144 12.3437 24.2617 13.7597ZM12.4031 22.7822C13.1728 23.2382 13.9907 23.8621 14.7844 24.3899C20.0523 20.3107 25.2479 17.1671 30.9487 15.3913C30.1549 14.9835 29.4573 14.6235 28.5674 14.1915C25.1517 15.0553 19.3066 17.383 12.4031 22.7822Z" fill="#E31837"/>
</g>
<defs>
<clipPath id="clip0_993_724">
<rect width="32" height="17.316" fill="white" transform="translate(4 11)"/>
</clipPath>
</defs>
</svg>
