<svg width="40" height="40" viewBox="0 0 40 40" fill="none" xmlns="http://www.w3.org/2000/svg">
<rect x="0.5" y="0.5" width="39" height="39" rx="3.5" fill="#FAFAFA"/>
<rect x="0.5" y="0.5" width="39" height="39" rx="3.5" stroke="#E6E6E6"/>
<g clip-path="url(#clip0_993_728)">
<path d="M35.0001 17.4942H33.4406L32.5359 21.3029L32.4109 21.8277C32.326 21.8527 32.236 21.8777 32.151 21.8927C31.9911 21.9227 31.8261 21.9427 31.6512 21.9427C31.4512 21.9427 31.2963 21.9127 31.1763 21.8577C31.0664 21.8027 30.9764 21.7228 30.9314 21.6128C30.8814 21.5078 30.8664 21.3829 30.8764 21.2429C30.8864 21.098 30.9164 20.943 30.9564 20.7831L31.4313 18.8037L31.7412 17.4892H30.1517L29.4319 20.5282C29.3469 20.893 29.297 21.2429 29.282 21.5728C29.267 21.9077 29.322 22.1926 29.4319 22.4525C29.5419 22.7074 29.7418 22.9024 30.0117 23.0523C30.2816 23.2023 30.6715 23.2722 31.1613 23.2722C31.5012 23.2722 31.8011 23.2422 32.056 23.1873C32.066 23.1873 32.081 23.1773 32.086 23.1773C32.0161 23.4922 31.8711 23.7471 31.6512 23.947C31.4213 24.1469 31.0914 24.2469 30.6465 24.2469C30.4566 24.2469 30.2816 24.2369 30.1217 24.2169L29.8118 25.5065C30.0167 25.5315 30.2466 25.5465 30.5016 25.5465C30.9764 25.5465 31.3863 25.4915 31.7462 25.3865C32.101 25.2766 32.4059 25.1166 32.6658 24.8967C32.9208 24.6768 33.1307 24.3969 33.3056 24.072C33.4806 23.7371 33.6155 23.3522 33.7155 22.8924L34.7901 18.3639L35.0001 17.4942Z" fill="#2A3F90"/>
<path d="M28.4672 20.7481C28.3722 21.143 28.3422 21.5478 28.3822 21.9427C28.4222 22.3476 28.5821 22.9573 28.7321 23.2672H27.2276C27.0476 22.9573 27.0526 22.8074 27.0126 22.7124C26.8127 22.8724 26.6028 23.0073 26.3629 23.1073C26.1229 23.2073 25.863 23.2672 25.5631 23.2672C25.2132 23.2672 24.9133 23.2023 24.6684 23.0873C24.4235 22.9673 24.2186 22.8024 24.0586 22.5975C23.8987 22.3925 23.7887 22.1526 23.7187 21.8777C23.6488 21.6028 23.6138 21.3079 23.6138 20.993C23.6138 20.5082 23.6987 20.0583 23.8687 19.6285C24.0436 19.1986 24.2785 18.8287 24.5834 18.5138C24.8833 18.1989 25.6231 17.4942 26.8227 17.4942C27.3475 17.4942 28.0423 17.4942 29.2369 17.4942L28.4672 20.7481ZM27.3675 18.8087C26.6378 18.8087 26.5028 18.8087 26.2029 18.9587C25.988 19.0686 25.813 19.2336 25.6631 19.4235C25.5131 19.6135 25.3882 19.8334 25.2982 20.0883C25.2132 20.3432 25.1633 20.6031 25.1633 20.873C25.1633 21.2079 25.2182 21.4728 25.3282 21.6728C25.4382 21.8727 25.6431 21.9677 25.948 21.9677C26.1079 21.9677 26.2579 21.9377 26.3828 21.8727C26.5078 21.8077 26.6528 21.7078 26.7927 21.5578C26.8077 21.3829 26.8327 21.2029 26.8627 21.013C26.8927 20.8231 26.9327 20.6431 26.9677 20.4832L27.3675 18.8087Z" fill="#2A3F90"/>
<path d="M23.184 19.7834C23.184 20.2982 23.099 20.7631 22.929 21.1929C22.7641 21.6228 22.5242 21.9827 22.2243 22.2926C21.9244 22.6024 21.5645 22.8374 21.1496 23.0123C20.7298 23.1873 20.2799 23.2722 19.7851 23.2722C19.5452 23.2722 19.3102 23.2472 19.0653 23.2072L18.5905 25.1166H17.031L18.8454 17.5042C19.1053 17.5042 20.4998 17.5042 20.9297 17.5042C21.3246 17.5042 21.6645 17.5691 21.9444 17.6841C22.2293 17.8041 22.4592 17.969 22.6491 18.1739C22.8291 18.3789 22.964 18.6238 23.054 18.9037C23.144 19.1736 23.184 19.4685 23.184 19.7834ZM19.3602 21.9427C19.4802 21.9727 19.6301 21.9827 19.8051 21.9827C20.08 21.9827 20.3299 21.9327 20.5598 21.8327C20.7798 21.7277 20.9797 21.5878 21.1396 21.4029C21.2996 21.2229 21.4145 20.998 21.5095 20.7431C21.5945 20.4882 21.6445 20.2032 21.6445 19.8934C21.6445 19.5935 21.5795 19.3335 21.4445 19.1236C21.3096 18.9087 21.0797 18.7987 20.7498 18.7987C20.5198 18.7987 20.13 18.7987 20.13 18.7987L19.3602 21.9427Z" fill="#2A3F90"/>
<path d="M16.0812 21.9427C15.8813 21.9427 15.7264 21.9127 15.6064 21.8577C15.4964 21.8027 15.4065 21.7228 15.3615 21.6128C15.3115 21.5078 15.2965 21.3829 15.3065 21.2429C15.3165 21.098 15.3465 20.943 15.3865 20.7831L15.8613 18.8037H17.6357L17.9606 17.4892H16.1812L16.5911 15.8247L14.9266 16.0847L13.872 20.5332C13.787 20.898 13.737 21.2479 13.722 21.5778C13.707 21.9127 13.762 22.1976 13.872 22.4575C13.9819 22.7124 14.1819 22.9074 14.4518 23.0573C14.7217 23.2073 15.1116 23.2773 15.6014 23.2773C15.9413 23.2773 16.2412 23.2473 16.4961 23.1923C16.5211 23.1823 16.5611 23.1773 16.5811 23.1673L16.906 21.8127C16.796 21.8527 16.686 21.8777 16.5811 21.8927C16.4211 21.9277 16.2562 21.9427 16.0812 21.9427Z" fill="#2A3F90"/>
<path d="M12.1126 17.4942L10.733 23.2772H12.2925L13.6621 17.4942H12.1126Z" fill="#2A3F90"/>
<path d="M13.8321 16.8294L14.072 15.8247H12.5075L12.2676 16.8294H13.8321Z" fill="#2A3F90"/>
<path d="M8.65878 17.5042C8.99367 17.5042 9.28357 17.5691 9.52849 17.6841C9.77341 17.8041 9.97334 17.959 10.1383 18.1689C10.2982 18.3739 10.4132 18.6138 10.4932 18.8837C10.5731 19.1536 10.6131 19.4435 10.6131 19.7634C10.6131 20.2483 10.5282 20.6981 10.3432 21.133C10.1633 21.5628 9.92336 21.9427 9.61346 22.2576C9.30357 22.5725 8.93869 22.8274 8.51883 23.0123C8.09897 23.1923 7.64912 23.2872 7.15428 23.2872C7.0893 23.2872 6.97934 23.2872 6.81939 23.2772C6.65945 23.2772 6.47951 23.2622 6.27957 23.2273C6.07464 23.1973 5.85971 23.1573 5.63979 23.1023C5.40986 23.0473 5.19494 22.9673 5 22.8724L6.82439 15.2549L8.44885 15L7.80906 17.6991C7.95401 17.6341 8.07897 17.5891 8.21893 17.5541C8.35388 17.5192 8.50383 17.5042 8.65878 17.5042ZM7.29923 21.9827C7.54415 21.9827 7.77408 21.9277 7.989 21.8027C8.20393 21.6828 8.39387 21.5278 8.54882 21.3279C8.70876 21.128 8.83372 20.898 8.91869 20.6531C9.00366 20.3982 9.05365 20.1383 9.05365 19.8684C9.05365 19.5335 8.99867 19.2736 8.8887 19.0836C8.77874 18.8937 8.54882 18.8087 8.24892 18.8087C8.15395 18.8087 8.04898 18.8187 7.89403 18.8587C7.73409 18.8887 7.59913 18.9687 7.47417 19.0786L6.7944 21.9527C6.99933 21.9827 7.21926 21.9827 7.29923 21.9827Z" fill="#2A3F90"/>
</g>
<defs>
<clipPath id="clip0_993_728">
<rect width="30" height="10.5465" fill="white" transform="translate(5 15)"/>
</clipPath>
</defs>
</svg>
