<svg width="40" height="40" viewBox="0 0 40 40" fill="none" xmlns="http://www.w3.org/2000/svg">
<g clip-path="url(#clip0_1823_30685)">
<path d="M36 0.5H4C2.067 0.5 0.5 2.067 0.5 4V36C0.5 37.933 2.067 39.5 4 39.5H36C37.933 39.5 39.5 37.933 39.5 36V4C39.5 2.067 37.933 0.5 36 0.5Z" fill="#FAFAFA"/>
<path d="M36 0.5H4C2.067 0.5 0.5 2.067 0.5 4V36C0.5 37.933 2.067 39.5 4 39.5H36C37.933 39.5 39.5 37.933 39.5 36V4C39.5 2.067 37.933 0.5 36 0.5Z" stroke="#E6E6E6"/>
<path d="M13.7202 15.0509L22.2946 19.9982L27.4085 17.0444C27.9553 16.7244 28.142 16.0243 27.8286 15.4776C27.7286 15.3042 27.5819 15.1576 27.4085 15.0575L13.7202 7.15656C13.1735 6.83653 12.4734 7.02322 12.1534 7.56995C12.0533 7.7433 12 7.94333 12 8.15002V16.0443C12 15.4109 12.5134 14.8975 13.1468 14.8975C13.3468 14.8975 13.5468 14.9509 13.7202 15.0509Z" fill="#2365AE"/>
<path d="M27.4085 22.9519L22.2946 20.0049L13.7202 24.9522C13.1735 25.2722 12.4734 25.0789 12.1534 24.5322C12.0533 24.3588 12 24.1587 12 23.9587V31.853C12 32.4865 12.5134 32.9999 13.1468 32.9999C13.3468 32.9999 13.5468 32.9465 13.7202 32.8465L27.4085 24.9455C27.9553 24.6255 28.142 23.9254 27.8286 23.3787C27.7286 23.2053 27.5886 23.0586 27.4085 22.9519Z" fill="#2365AE"/>
<path d="M13.7202 24.952L22.2946 20.0047L13.7202 15.0575C13.1735 14.7374 12.4734 14.9241 12.1534 15.4708C12.0533 15.6442 12 15.8442 12 16.0509V23.9652C12 24.5986 12.5134 25.112 13.1468 25.112C13.3468 25.1054 13.5468 25.052 13.7202 24.952Z" fill="#064E9C"/>
</g>
<defs>
<clipPath id="clip0_1823_30685">
<rect width="40" height="40" fill="white"/>
</clipPath>
</defs>
</svg>
