<svg width="40" height="40" viewBox="0 0 40 40" fill="none" xmlns="http://www.w3.org/2000/svg">
<rect width="40" height="40" rx="20" fill="white"/>
<path fill-rule="evenodd" clip-rule="evenodd" d="M22.9774 11.2427C25.4177 11.9259 26.7286 13.5188 26.7254 15.7973C26.7231 17.4397 26.0045 18.6782 24.6311 19.4069L24.0933 19.6921L24.5995 19.8755C26.5593 20.5851 27.7375 22.1142 27.734 23.9435C27.729 26.5704 26.0199 28.3423 22.9798 28.8725C22.3815 28.9768 21.341 29 17.2573 29H12.266V27.6969V26.3938H13.3169H14.3678V20.0043V13.6148H13.3169H12.266V12.3074V11L17.2893 11.0283C22.1729 11.0558 22.3311 11.0618 22.9774 11.2427ZM17.2169 15.8848C17.2118 17.1332 17.2035 18.2398 17.1985 18.3439L17.1893 18.533L19.2466 18.5323C21.4398 18.5315 21.8773 18.4758 22.6226 18.1024C23.5062 17.6598 23.9302 16.8786 23.8473 15.8463C23.7789 14.9933 23.3936 14.4365 22.5867 14.0249C21.9537 13.7019 21.2525 13.6178 19.1809 13.6162L17.2262 13.6148L17.2169 15.8848ZM17.2076 23.7528L17.2309 26.4085L19.7718 26.3733C22.49 26.3358 22.7106 26.3055 23.621 25.8444C24.6475 25.3247 25.1024 24.1573 24.7461 22.9574C24.579 22.3949 24.1132 21.9205 23.4003 21.5869C22.5544 21.191 21.8294 21.1034 19.3701 21.1001L17.1842 21.0971L17.2076 23.7528Z" fill="#030303"/>
</svg>
