<svg width="24" height="24" viewBox="0 0 24 24" fill="none" xmlns="http://www.w3.org/2000/svg">
<g clip-path="url(#clip0_903_11)">
<rect width="24" height="24" fill="#1C1C1C"/>
<path d="M6.87012 18.435V16.515H8.38512V7.17H6.87012V5.25H12.9751C15.7651 5.25 17.4901 6.555 17.4901 8.805C17.4901 10.29 16.6201 11.19 15.5401 11.625C17.1151 12.06 18.2401 13.17 18.2401 14.685C18.2401 17.1 16.3801 18.435 13.3201 18.435H6.87012ZM10.4551 7.17V10.755H12.7201C14.4301 10.755 15.3151 10.11 15.3151 8.955C15.3151 7.785 14.4151 7.155 12.6901 7.155C12.6901 7.17 10.4551 7.17 10.4551 7.17ZM10.4551 16.485H13.0501C15.0601 16.485 16.0501 15.84 16.0501 14.565C16.0501 13.32 14.9701 12.645 12.8851 12.645H10.4551C10.4551 12.645 10.4551 16.485 10.4551 16.485Z" fill="#FBFBFB"/>
</g>
<defs>
<clipPath id="clip0_903_11">
<rect width="24" height="24" fill="white"/>
</clipPath>
</defs>
</svg>
