<svg width="40" height="40" viewBox="0 0 40 40" fill="none" xmlns="http://www.w3.org/2000/svg">
<g clip-path="url(#clip0_1823_30666)">
<path d="M36 0.5H4C2.067 0.5 0.5 2.067 0.5 4V36C0.5 37.933 2.067 39.5 4 39.5H36C37.933 39.5 39.5 37.933 39.5 36V4C39.5 2.067 37.933 0.5 36 0.5Z" fill="#FAFAFA"/>
<path d="M36 0.5H4C2.067 0.5 0.5 2.067 0.5 4V36C0.5 37.933 2.067 39.5 4 39.5H36C37.933 39.5 39.5 37.933 39.5 36V4C39.5 2.067 37.933 0.5 36 0.5Z" stroke="#E6E6E6"/>
<path d="M20 7C12.8196 7 7 12.8196 7 20C7 27.1804 12.8196 32.9999 20 32.9999C27.1803 32.9999 33 27.1804 33 20C33.0121 12.8196 27.1925 7 20 7ZM22.5028 29.4645L22.3327 29.5617C21.1906 30.1813 19.757 29.7439 19.1374 28.6018L12.0663 15.4682C11.4467 14.3262 11.8841 12.8925 13.0261 12.2729L13.1962 12.1757C14.3383 11.5561 15.7719 11.9813 16.3916 13.1355L23.4626 26.2691C24.07 27.4233 23.6449 28.8449 22.5028 29.4645ZM25.3579 25.8196L19.8664 15.6262C22.685 14.1075 26.1962 15.1645 27.7149 17.9831C29.2336 20.7897 28.1766 24.3009 25.3579 25.8196Z" fill="#59BEC9"/>
</g>
<defs>
<clipPath id="clip0_1823_30666">
<rect width="40" height="40" fill="white"/>
</clipPath>
</defs>
</svg>
