<svg width="40" height="40" viewBox="0 0 40 40" fill="none" xmlns="http://www.w3.org/2000/svg">
<rect width="40" height="40" rx="20" fill="white"/>
<path fill-rule="evenodd" clip-rule="evenodd" d="M15.5215 10.4902C14.0406 12.7093 9.70085 19.9752 9.76411 20.1298C9.84939 20.3382 14.9843 28.7037 15.5218 29.5098L15.8487 30H21.7085C25.4813 30 27.6643 29.9518 27.8379 29.8647C27.9862 29.7902 28.1074 29.6137 28.1074 29.4723C28.1074 29.331 26.8806 27.1741 25.3813 24.6793C23.882 22.1846 22.6822 20.0467 22.7151 19.9284C22.7481 19.8099 23.9749 17.7046 25.4412 15.2497C26.9077 12.7948 28.1074 10.68 28.1074 10.5501C28.1074 10.0077 28.0191 10 21.8109 10H15.8487L15.5215 10.4902ZM26.2959 11.2591C26.2959 11.3911 21.9143 18.6272 21.8342 18.6273C21.7738 18.6275 17.5438 11.6224 17.4012 11.286C17.3756 11.2258 19.3665 11.1765 21.8254 11.1765C24.2842 11.1765 26.2959 11.2136 26.2959 11.2591ZM18.6415 16.0213C20.6008 19.2961 20.9942 20.039 20.8847 20.2576C20.8115 20.4035 19.7191 22.2433 18.4569 24.3459L16.1619 28.1689L13.7393 24.2288C12.4068 22.0617 11.2959 20.2072 11.2707 20.1076C11.2455 20.0081 12.2745 18.2078 13.5576 16.1071C15.9416 12.2038 16.126 11.9191 16.2146 12.0022C16.2426 12.0285 17.3348 13.8371 18.6415 16.0213ZM24.0664 24.9877C25.2543 26.9759 26.2472 28.6523 26.2727 28.7131C26.2983 28.7739 24.3022 28.8235 21.837 28.8235C19.3717 28.8235 17.3756 28.7742 17.4012 28.714C17.5439 28.3775 21.7738 21.3725 21.8342 21.3727C21.874 21.3728 22.8785 22.9996 24.0664 24.9877Z" fill="black"/>
</svg>
