<svg width="40" height="40" viewBox="0 0 40 40" fill="none" xmlns="http://www.w3.org/2000/svg">
<rect x="0.5" y="0.5" width="39" height="39" rx="3.5" fill="#FAFAFA"/>
<rect x="0.5" y="0.5" width="39" height="39" rx="3.5" stroke="#E6E6E6"/>
<path d="M13.7109 21.6423C15.5125 28.2927 25.0065 27.9992 26.3358 21.1552C26.3457 21.1051 26.3761 21.08 26.4271 21.08H32.8394C32.8945 21.08 32.9192 21.1075 32.9134 21.1626C32.0601 29.0436 24.9646 34.3486 17.1723 32.6987C7.79919 30.7121 3.85189 19.3388 9.85608 11.8561C13.9205 6.79278 21.1554 5.50168 26.6897 8.87186C30.0895 10.9423 32.6828 14.7947 32.8925 18.8714C32.8931 18.8812 32.8918 18.8911 32.8884 18.9003C32.885 18.9095 32.8798 18.918 32.873 18.9252C32.8661 18.9324 32.8579 18.9381 32.8487 18.942C32.8396 18.9459 32.8297 18.9479 32.8197 18.9479L26.4246 18.9306C26.4059 18.9307 26.3877 18.9243 26.3731 18.9123C26.3585 18.9004 26.3484 18.8838 26.3445 18.8653C25.8109 16.3694 24.3879 14.7034 22.0753 13.8673C17.3154 12.1471 12.3717 16.7023 13.7109 21.6423Z" fill="#0051FF"/>
</svg>
