<svg width="24" height="24" viewBox="0 0 24 24" fill="none" xmlns="http://www.w3.org/2000/svg">
<path opacity="0.3" fill-rule="evenodd" clip-rule="evenodd" d="M5 6C3.89543 6 3 6.89543 3 8V8.37272H21V8C21 6.89543 20.1046 6 19 6H5ZM21 11.0727H3V16.2727C3 17.3773 3.89543 18.2727 5 18.2727H19C20.1046 18.2727 21 17.3773 21 16.2727V11.0727ZM4.875 15.8182C4.875 15.6111 5.04289 15.4432 5.25 15.4432H12C12.2071 15.4432 12.375 15.6111 12.375 15.8182C12.375 16.0253 12.2071 16.1932 12 16.1932H5.25C5.04289 16.1932 4.875 16.0253 4.875 15.8182ZM16.95 16.4727C17.6956 16.4727 18.3 15.8683 18.3 15.1227C18.3 14.3771 17.6956 13.7727 16.95 13.7727C16.2044 13.7727 15.6 14.3771 15.6 15.1227C15.6 15.8683 16.2044 16.4727 16.95 16.4727Z" fill="#979797"/>
</svg>
