<?xml version="1.0" encoding="UTF-8" standalone="no"?>
<!DOCTYPE svg PUBLIC "-//W3C//DTD SVG 1.1//EN" "http://www.w3.org/Graphics/SVG/1.1/DTD/svg11.dtd">
<svg xmlns="http://www.w3.org/2000/svg" version="1.1" width="40" height="40" viewBox="0 0 40 40">
<path fill="#000000" d="
  M 2.33 15.68
  C 2.18 19.68 6.23 20.02 9.19 19.59
  A 0.72 0.71 85.0 0 1 10.01 20.28
  L 10.03 21.02
  Q 10.04 21.60 9.47 21.67
  C 4.71 22.24 -0.46 20.73 0.34 14.99
  Q 0.91 10.90 5.46 10.05
  Q 5.99 9.95 5.99 10.48
  L 6.00 11.46
  Q 6.01 12.05 5.43 12.18
  Q 2.43 12.90 2.33 15.68
  Z"
/>
<circle fill="#00acb3" cx="8.35" cy="11.14" r="1.15"/>
<path fill="#000000" d="
  M 14.51 19.20
  Q 16.30 20.04 18.90 19.59
  Q 19.91 19.41 20.13 20.41
  L 20.21 20.74
  A 0.79 0.78 -9.1 0 1 19.52 21.69
  Q 15.77 22.06 14.00 21.26
  C 8.26 18.70 9.31 11.30 15.46 10.04
  Q 16.03 9.92 16.05 10.50
  L 16.08 11.47
  A 0.69 0.68 84.2 0 1 15.51 12.17
  C 11.83 12.82 11.12 17.62 14.51 19.20
  Z"
/>
<circle fill="#fbb700" cx="18.42" cy="11.15" r="1.15"/>
<path fill="#000000" d="
  M 31.74 16.14
  A 5.82 5.82 0.0 0 1 25.92 21.96
  A 5.82 5.82 0.0 0 1 20.10 16.14
  A 5.82 5.82 0.0 0 1 25.92 10.32
  A 5.82 5.82 0.0 0 1 31.74 16.14
  Z
  M 29.68 16.14
  A 3.75 3.75 0.0 0 0 25.93 12.39
  A 3.75 3.75 0.0 0 0 22.18 16.14
  A 3.75 3.75 0.0 0 0 25.93 19.89
  A 3.75 3.75 0.0 0 0 29.68 16.14
  Z"
/>
</svg>
