<?xml version="1.0" encoding="UTF-8"?>
<svg version="1.1" xmlns="http://www.w3.org/2000/svg" width="80" height="80">
  <path
    d="M0 0 C26.4 0 52.8 0 80 0 C80 26.4 80 52.8 80 80 C53.6 80 27.2 80 0 80 C0 53.6 0 27.2 0 0 Z "
    fill="#F8F8F8"
    transform="translate(0,0)"
  />
  <path
    d="M0 0 C4.79008966 3.1933931 9.0415523 7.99143987 11.109375 13.40625 C11.94043485 20.27048472 12.41145828 27.39840151 8.671875 33.46875 C4.11861649 39.03384373 -0.25205141 42.86633263 -7.5234375 43.9453125 C-14.16136916 44.19604948 -19.8463885 44.11755825 -25.24609375 39.96484375 C-30.24387191 35.22823214 -34.23170367 30.92159509 -35.26171875 23.86328125 C-35.44191304 16.68730874 -34.15955333 11.26576461 -29.890625 5.40625 C-21.36143484 -2.89939283 -10.91707188 -5.41982292 0 0 Z "
    fill="#050505"
    transform="translate(50.890625,18.59375)"
  />
  <path
    d="M0 0 C26.4 0 52.8 0 80 0 C80 26.4 80 52.8 80 80 C53.6 80 27.2 80 0 80 C0 53.6 0 27.2 0 0 Z M3.11206055 3.6100769 C1.63766015 6.77870255 1.61158413 9.24483022 1.59594727 12.74047852 C1.58908401 13.40924011 1.58222076 14.07800171 1.57514954 14.76702881 C1.55689051 16.97120561 1.56071638 19.17467027 1.56640625 21.37890625 C1.56184491 22.91300183 1.55653948 24.44709536 1.55052185 25.98118591 C1.54159326 29.19318963 1.54401193 32.40494466 1.55395508 35.61694336 C1.56546148 39.73542011 1.54520742 43.8530416 1.51603794 47.97140598 C1.49770636 51.13784747 1.49796194 54.30408267 1.50367546 57.47056389 C1.50382896 58.98923889 1.49776091 60.50792763 1.48538399 62.0265522 C1.47052699 64.14788948 1.48110793 66.26762923 1.49829102 68.38891602 C1.49845718 69.59596695 1.49862335 70.80301788 1.49879456 72.04664612 C1.74522281 75.02783529 1.74522281 75.02783529 3.6100769 76.88793945 C6.77870255 78.36233985 9.24483022 78.38841587 12.74047852 78.40405273 C13.74362091 78.41434761 13.74362091 78.41434761 14.76702881 78.42485046 C16.97120561 78.44310949 19.17467027 78.43928362 21.37890625 78.43359375 C22.91300183 78.43815509 24.44709536 78.44346052 25.98118591 78.44947815 C29.19318963 78.45840674 32.40494466 78.45598807 35.61694336 78.44604492 C39.73542011 78.43453852 43.8530416 78.45479258 47.97140598 78.48396206 C51.13784747 78.50229364 54.30408267 78.50203806 57.47056389 78.49632454 C58.98923889 78.49617104 60.50792763 78.50223909 62.0265522 78.51461601 C64.14788948 78.52947301 66.26762923 78.51889207 68.38891602 78.50170898 C69.59596695 78.50154282 70.80301788 78.50137665 72.04664612 78.50120544 C75.02783529 78.25477719 75.02783529 78.25477719 76.88793945 76.3899231 C78.36233985 73.22129745 78.38841587 70.75516978 78.40405273 67.25952148 C78.41434761 66.25637909 78.41434761 66.25637909 78.42485046 65.23297119 C78.44310949 63.02879439 78.43928362 60.82532973 78.43359375 58.62109375 C78.43815509 57.08699817 78.44346052 55.55290464 78.44947815 54.01881409 C78.45840674 50.80681037 78.45598807 47.59505534 78.44604492 44.38305664 C78.43453852 40.26457989 78.45479258 36.1469584 78.48396206 32.02859402 C78.50229364 28.86215253 78.50203806 25.69591733 78.49632454 22.52943611 C78.49617104 21.01076111 78.50223909 19.49207237 78.51461601 17.9734478 C78.52947301 15.85211052 78.51889207 13.73237077 78.50170898 11.61108398 C78.50154282 10.40403305 78.50137665 9.19698212 78.50120544 7.95335388 C78.25477719 4.97216471 78.25477719 4.97216471 76.3899231 3.11206055 C73.22129745 1.63766015 70.75516978 1.61158413 67.25952148 1.59594727 C66.25637909 1.58565239 66.25637909 1.58565239 65.23297119 1.57514954 C63.02879439 1.55689051 60.82532973 1.56071638 58.62109375 1.56640625 C57.08699817 1.56184491 55.55290464 1.55653948 54.01881409 1.55052185 C50.80681037 1.54159326 47.59505534 1.54401193 44.38305664 1.55395508 C40.26457989 1.56546148 36.1469584 1.54520742 32.02859402 1.51603794 C28.86215253 1.49770636 25.69591733 1.49796194 22.52943611 1.50367546 C21.01076111 1.50382896 19.49207237 1.49776091 17.9734478 1.48538399 C15.85211052 1.47052699 13.73237077 1.48110793 11.61108398 1.49829102 C10.40403305 1.49845718 9.19698212 1.49862335 7.95335388 1.49879456 C4.97216471 1.74522281 4.97216471 1.74522281 3.11206055 3.6100769 Z "
    fill="#DADADA"
    transform="translate(0,0)"
  />
  <path
    d="M0 0 C0.94875 0.04125 1.8975 0.0825 2.875 0.125 C2.875 0.785 2.875 1.445 2.875 2.125 C1.225 2.455 -0.425 2.785 -2.125 3.125 C-2.125 7.415 -2.125 11.705 -2.125 16.125 C3.74544191 16.96622592 3.74544191 16.96622592 8.80859375 14.56640625 C10.28276 12.80942634 11.62484202 11.04681148 12.875 9.125 C12.441875 8.64289062 12.00875 8.16078125 11.5625 7.6640625 C11.005625 7.03242187 10.44875 6.40078125 9.875 5.75 C9.318125 5.12351562 8.76125 4.49703125 8.1875 3.8515625 C6.875 2.125 6.875 2.125 6.875 0.125 C9.9375 -0.375 9.9375 -0.375 13.875 0.125 C16.58794856 2.51323271 18.73981726 5.21751712 20.875 8.125 C19.45708437 11.05946886 17.89167393 13.55832409 15.875 16.125 C16.535 16.455 17.195 16.785 17.875 17.125 C19.39799523 14.18779492 20.67600302 11.2081351 21.875 8.125 C21.05 7.17625 20.225 6.2275 19.375 5.25 C16.875 2.375 16.875 2.375 16.875 0.125 C17.535 0.125 18.195 0.125 18.875 0.125 C20.41796875 1.734375 20.41796875 1.734375 22.0625 3.875 C22.88814453 4.91914062 22.88814453 4.91914062 23.73046875 5.984375 C24.875 8.125 24.875 8.125 24.68359375 10.1875 C23.2905411 13.52544257 21.47938167 15.63385232 18.875 18.125 C15.0625 18.5 15.0625 18.5 11.875 18.125 C12.89389939 15.85207059 13.68402631 14.29475439 15.5625 12.625 C17.08078269 11.22201184 17.08078269 11.22201184 16.875 9.25 C15.46097216 6.24519083 13.29403456 4.35795498 10.875 2.125 C11.720625 3.0325 12.56625 3.94 13.4375 4.875 C14.87890625 6.421875 14.87890625 6.421875 15.875 8.125 C15.49231935 11.82183947 13.68766557 14.33844415 11.03515625 16.92578125 C6.48840378 19.44992774 0.90040542 18.69296427 -4.125 18.125 C-6.10619355 16.14380645 -5.31000411 12.39054936 -5.3125 9.6875 C-5.32474609 8.99333984 -5.33699219 8.29917969 -5.34960938 7.58398438 C-5.35489842 5.76279099 -5.24669207 3.9421308 -5.125 2.125 C-3.125 0.125 -3.125 0.125 0 0 Z "
    fill="#E6E6E6"
    transform="translate(30.125,29.875)"
  />
  <path
    d="M0 0 C0.94875 0.04125 1.8975 0.0825 2.875 0.125 C2.875 0.785 2.875 1.445 2.875 2.125 C1.225 2.455 -0.425 2.785 -2.125 3.125 C-2.125 7.415 -2.125 11.705 -2.125 16.125 C3.74544191 16.96622592 3.74544191 16.96622592 8.80859375 14.56640625 C10.28276 12.80942634 11.62484202 11.04681148 12.875 9.125 C12.215 8.465 11.555 7.805 10.875 7.125 C11.205 6.135 11.535 5.145 11.875 4.125 C13.9375 5.875 13.9375 5.875 15.875 8.125 C15.42047551 11.8208057 13.70021158 14.3262064 11.03515625 16.92578125 C6.48840378 19.44992774 0.90040542 18.69296427 -4.125 18.125 C-6.10619355 16.14380645 -5.31000411 12.39054936 -5.3125 9.6875 C-5.32474609 8.99333984 -5.33699219 8.29917969 -5.34960938 7.58398438 C-5.35489842 5.76279099 -5.24669207 3.9421308 -5.125 2.125 C-3.125 0.125 -3.125 0.125 0 0 Z "
    fill="#DDDDDD"
    transform="translate(30.125,29.875)"
  />
  <path
    d="M0 0 C3.33717549 1.3809002 5.22301036 2.8201238 7 6 C7 10.18179813 3.6188011 13.04545517 1 16 C3.31 16 5.62 16 8 16 C8 16.33 8 16.66 8 17 C5.36 17 2.72 17 0 17 C0.62724014 12.35842294 0.62724014 12.35842294 2.625 10.4375 C3.07875 9.963125 3.5325 9.48875 4 9 C3.78933572 5.6293716 2.35574591 4.25332217 0 2 C0 1.34 0 0.68 0 0 Z "
    fill="#333333"
    transform="translate(41,32)"
  />
  <path
    d="M0 0 C0.598125 0.763125 1.19625 1.52625 1.8125 2.3125 C3.46959332 4.3483575 5.10297674 6.1978279 7 8 C5.7508258 11.45925163 4.32472205 14.14693203 2 17 C1.01 16.67 0.02 16.34 -1 16 C0.65 14.02 2.3 12.04 4 10 C2.50163895 6.88801935 0.80066242 3.9465385 -1 1 C-0.67 0.67 -0.34 0.34 0 0 Z "
    fill="#282828"
    transform="translate(46,30)"
  />
  <path
    d="M0 0 C0.66 0 1.32 0 2 0 C3.2890625 1.53125 3.2890625 1.53125 4.625 3.5 C5.07101563 4.1496875 5.51703125 4.799375 5.9765625 5.46875 C6.31429687 5.9740625 6.65203125 6.479375 7 7 C6.01 7 5.02 7 4 7 C0 2.65714286 0 2.65714286 0 0 Z "
    fill="#DFDFDF"
    transform="translate(47,30)"
  />
</svg>
