<svg width="20" height="20" viewBox="0 0 20 20" fill="none" xmlns="http://www.w3.org/2000/svg">
<rect x="0.25" y="0.25" width="19.5" height="19.5" rx="1.75" fill="#FAFAFA"/>
<rect x="0.25" y="0.25" width="19.5" height="19.5" rx="1.75" stroke="#E6E6E6" stroke-width="0.5"/>
<path d="M8.95045 5.40323C9.31856 5.04268 9.50261 4.86241 9.71401 4.79469C9.90002 4.7351 10.1 4.7351 10.286 4.79469C10.4974 4.86241 10.6814 5.04268 11.0496 5.40323L11.2265 5.57659C11.3857 5.73247 11.4653 5.81042 11.5576 5.86646C11.6395 5.91616 11.7284 5.95302 11.8215 5.97576C11.9264 6.00141 12.0378 6.00256 12.2605 6.00488L12.5083 6.00745C13.0235 6.01279 13.2811 6.01547 13.4785 6.11706C13.6521 6.20646 13.7935 6.34786 13.8829 6.52151C13.9845 6.71888 13.9872 6.9765 13.9926 7.49174L13.9951 7.73947C13.9974 7.96224 13.9986 8.07363 14.0242 8.17853C14.047 8.27156 14.0838 8.36055 14.1335 8.4424C14.1896 8.53472 14.2675 8.6143 14.4234 8.77346L14.5968 8.95045C14.9573 9.31856 15.1376 9.50261 15.2053 9.71401C15.2649 9.90002 15.2649 10.1 15.2053 10.286C15.1376 10.4974 14.9573 10.6814 14.5968 11.0496L14.4234 11.2265C14.2675 11.3857 14.1896 11.4653 14.1335 11.5576C14.0838 11.6395 14.047 11.7284 14.0242 11.8215C13.9986 11.9264 13.9974 12.0378 13.9951 12.2605L13.9926 12.5083C13.9872 13.0235 13.9845 13.2811 13.8829 13.4785C13.7935 13.6521 13.6521 13.7935 13.4785 13.8829C13.2811 13.9845 13.0235 13.9872 12.5083 13.9926L12.2605 13.9951C12.0378 13.9974 11.9264 13.9986 11.8215 14.0242C11.7284 14.047 11.6395 14.0838 11.5576 14.1335C11.4653 14.1896 11.3857 14.2675 11.2265 14.4234L11.0496 14.5968C10.6814 14.9573 10.4974 15.1376 10.286 15.2053C10.1 15.2649 9.90002 15.2649 9.71401 15.2053C9.50261 15.1376 9.31856 14.9573 8.95045 14.5968L8.77346 14.4234C8.6143 14.2675 8.53472 14.1896 8.4424 14.1335C8.36055 14.0838 8.27156 14.047 8.17853 14.0242C8.07363 13.9986 7.96224 13.9974 7.73947 13.9951L7.49174 13.9926C6.9765 13.9872 6.71888 13.9845 6.52151 13.8829C6.34786 13.7935 6.20646 13.6521 6.11706 13.4785C6.01547 13.2811 6.01279 13.0235 6.00745 12.5083L6.00488 12.2605C6.00256 12.0378 6.00141 11.9264 5.97576 11.8215C5.95302 11.7284 5.91616 11.6395 5.86646 11.5576C5.81042 11.4653 5.73247 11.3857 5.57659 11.2265L5.40323 11.0496C5.04268 10.6814 4.86241 10.4974 4.79469 10.286C4.7351 10.1 4.7351 9.90002 4.79469 9.71401C4.86241 9.50261 5.04268 9.31856 5.40323 8.95045L5.57659 8.77346C5.73247 8.6143 5.81042 8.53472 5.86646 8.4424C5.91616 8.36055 5.95302 8.27156 5.97576 8.17853C6.00141 8.07363 6.00256 7.96224 6.00488 7.73947L6.00745 7.49174C6.01279 6.9765 6.01547 6.71888 6.11706 6.52151C6.20646 6.34786 6.34786 6.20646 6.52151 6.11706C6.71888 6.01547 6.9765 6.01279 7.49174 6.00745L7.73947 6.00488C7.96224 6.00256 8.07363 6.00141 8.17853 5.97576C8.27156 5.95302 8.36055 5.91616 8.4424 5.86646C8.53472 5.81042 8.6143 5.73247 8.77346 5.57659L8.95045 5.40323Z" stroke="#99A0AE" stroke-width="1.16667" stroke-linecap="round" stroke-linejoin="round"/>
<path d="M9.41143 10C9.41143 9.67785 9.67795 9.41668 10.0001 9.41668C10.3223 9.41668 10.5888 9.67785 10.5888 10C10.5888 10.3222 10.3223 10.5833 10.0001 10.5833C9.67795 10.5833 9.41143 10.3222 9.41143 10Z" stroke="#99A0AE" stroke-width="1.16667" stroke-linecap="round" stroke-linejoin="round"/>
</svg>
