<svg width="40" height="40" viewBox="0 0 40 40" fill="none" xmlns="http://www.w3.org/2000/svg">
<rect width="40" height="40" rx="20" fill="white"/>
<path fill-rule="evenodd" clip-rule="evenodd" d="M12.9647 25.4407C12.5706 25.8347 12.5103 26.5393 12.8315 26.9979C13.1311 27.4257 14.6423 28.531 15.5625 28.9955C16.6808 29.56 18.2297 29.9534 19.4784 29.9902C20.4962 30.0201 20.5644 30.0028 20.8837 29.6326C21.0684 29.4187 21.2193 29.1254 21.2193 28.9807C21.2193 28.5587 20.9354 28.0531 20.6149 27.9042C20.4517 27.8285 19.7608 27.6934 19.0795 27.6041C17.5654 27.4056 16.2529 26.8314 14.993 25.8166C13.9713 24.9936 13.4993 24.9061 12.9647 25.4407ZM25.5661 25.4289C25.2789 25.6761 25.1841 25.8832 25.1841 26.2639C25.1841 26.8623 25.5348 27.2735 26.1504 27.3966C26.4851 27.4635 26.6689 27.4028 27.0165 27.1105C27.3207 26.8543 27.4576 26.6176 27.4576 26.347C27.4576 25.7659 27.3293 25.5287 26.8931 25.3032C26.3418 25.018 26.007 25.0498 25.5661 25.4289ZM22.7894 27.2469C22.6278 27.3601 22.434 27.6296 22.3586 27.8459C22.0729 28.6656 22.845 29.5417 23.6707 29.3345C24.1613 29.2114 24.5464 28.7068 24.5464 28.187C24.5464 27.2811 23.5226 26.7334 22.7894 27.2469Z" fill="#222A42"/>
<path fill-rule="evenodd" clip-rule="evenodd" d="M11.0505 15.7363C10.6641 16.0945 10.5642 16.7161 10.817 17.1887C10.9988 17.5283 11.7116 17.8035 12.1348 17.6972C12.5851 17.5842 12.9468 17.0236 12.9308 16.4632C12.9154 15.9202 12.3627 15.3964 11.8052 15.3964C11.5856 15.3964 11.2581 15.5439 11.0505 15.7363ZM10.3309 19.2024C9.90985 19.6233 9.88892 20.2205 10.2779 20.7148C10.4992 20.9961 10.6875 21.0801 11.0973 21.0801C11.5213 21.0801 11.7023 20.9935 11.9883 20.6535C12.1857 20.419 12.3472 20.1787 12.3472 20.1197C12.3472 19.7976 12.0066 19.1152 11.7873 18.9978C11.3291 18.7527 10.6909 18.8422 10.3309 19.2024ZM11.3075 22.3492C10.8676 22.5897 10.6837 22.8997 10.6837 23.4003C10.6837 23.9945 11.2053 24.5458 11.7677 24.5458C12.2703 24.5458 12.8474 24.1067 12.9328 23.6595C13.0272 23.1656 12.6914 22.4849 12.2751 22.3266C11.8225 22.1546 11.6561 22.1585 11.3075 22.3492Z" fill="#F6C443"/>
<path fill-rule="evenodd" clip-rule="evenodd" d="M17.9617 10.1954C16.6528 10.484 15.604 10.9302 14.5019 11.6672C13.3185 12.4589 12.6245 13.1915 12.6245 13.6497C12.6245 13.8274 12.7539 14.1371 12.9119 14.338C13.1294 14.6145 13.3232 14.7033 13.71 14.7033C14.1121 14.7033 14.3826 14.5692 14.9822 14.0725C16.3388 12.9486 18.2436 12.208 19.777 12.208C20.2539 12.208 20.4801 12.1281 20.7405 11.8676C21.1907 11.4175 21.1996 10.7043 20.76 10.2913C20.5012 10.0483 20.2798 9.992 19.6163 10.0009C19.1637 10.007 18.4191 10.0944 17.9617 10.1954ZM22.6688 11.0234C22.2941 11.398 22.2274 11.9941 22.5174 12.3758C22.6165 12.5063 22.8641 12.6762 23.0675 12.7536C23.8359 13.0457 24.656 12.329 24.4784 11.5206C24.2946 10.6837 23.2855 10.4065 22.6688 11.0234ZM25.541 12.9446C25.1574 13.353 25.1459 14.055 25.5169 14.426C25.7 14.6091 25.9789 14.7033 26.3385 14.7033C26.7666 14.7033 26.9468 14.6223 27.1812 14.3242C27.3986 14.0478 27.4575 13.8318 27.3987 13.5271C27.3545 13.2972 27.1866 12.9999 27.026 12.8664C26.607 12.5186 25.9067 12.5555 25.541 12.9446Z" fill="#4875F4"/>
</svg>
