<svg width="40" height="40" viewBox="0 0 40 40" fill="none" xmlns="http://www.w3.org/2000/svg">
<rect x="0.5" y="0.5" width="39" height="39" rx="3.5" fill="#FAFAFA"/>
<rect x="0.5" y="0.5" width="39" height="39" rx="3.5" stroke="#E6E6E6"/>
<path fill-rule="evenodd" clip-rule="evenodd" d="M21.1322 7.20434L30.9933 12.9415C31.4619 13.214 31.7503 13.7178 31.75 14.2628V25.7371C31.7502 26.2822 31.4616 26.7859 30.993 27.0585L21.1319 32.7957C20.6635 33.0681 20.0865 33.0681 19.6181 32.7957L9.75697 27.0585C9.28857 26.786 9 26.2824 9 25.7371V14.2628C9 13.7178 9.28842 13.214 9.75697 12.9415L19.6184 7.20434C20.0868 6.93189 20.6638 6.93189 21.1322 7.20434ZM13.9107 23.7612V17.1314C13.9107 16.5863 14.1994 16.0826 14.6678 15.81L20.3754 12.4895V8.52572L10.5143 14.2628V25.7371L13.9107 23.7612ZM19.6181 18.6786C19.1496 18.9512 18.861 19.4549 18.8611 20V26.6065L15.4248 28.6057V17.1314L25.2859 11.3943V15.3813L19.6181 18.6786ZM20.3754 31.4743L30.2362 25.7371L30.2365 14.2628L20.3754 20V31.4743Z" fill="#2D2D48"/>
</svg>
