<svg width="141" height="41" viewBox="0 0 141 41" fill="none" xmlns="http://www.w3.org/2000/svg">
<path fill-rule="evenodd" clip-rule="evenodd" d="M113.962 20.6819L131.054 31.4441H123.746L110.075 22.8361L97.0663 31.4442H90.4161L106.668 20.6909L96.4523 14.2585C95.6345 13.7433 94.8457 13.3126 93.8591 13.3126C92.2584 13.3126 90.8877 14.369 90.8877 16.514V25.7398C90.8877 29.6543 89.0629 31.6624 85.7596 31.6624C83.7398 31.6624 82.0372 30.734 80.4133 28.9296L66.9121 13.9383C66.4697 13.4639 66.1292 13.3126 65.748 13.3126C65.0757 13.3126 64.5576 13.7433 64.5576 14.6805V26.6857C64.5576 29.9977 62.8318 31.6508 59.9534 31.6508C59.1611 31.6603 58.378 31.4804 57.6692 31.126C56.9605 30.7717 56.3467 30.2531 55.8789 29.6135L53.5184 26.482H42.5495V31.4441H38.6583V14.7328C38.6583 11.4267 40.4773 9.64262 43.3149 9.64262C44.5955 9.64262 46.0361 10.0966 47.5204 12.067L59.1851 27.5326C59.2678 27.6628 59.3804 27.7715 59.5135 27.8494C59.6467 27.9274 59.7965 27.9724 59.9505 27.9808C60.3638 27.9808 60.681 27.6723 60.681 27.0902V15.1287C60.681 11.45 62.9424 9.63098 65.6548 9.63098C67.5175 9.63098 69.1502 10.5972 70.3754 11.9593L84.0338 27.1193C84.6158 27.748 85.1426 27.9924 85.6257 27.9924C86.4173 27.9924 87.0169 27.4104 87.0169 26.3947V16.8952C87.0169 11.9709 89.7992 9.64262 93.9232 9.64262C95.5821 9.64262 97.3807 10.2422 99.0745 11.3073L110.554 18.5358L123.664 9.85808H130.311L113.962 20.6819ZM43.9203 13.7491L50.9143 23.0274H42.5495V14.1653C42.5495 13.56 42.8551 13.3126 43.1985 13.3126C43.3459 13.3185 43.4894 13.3616 43.6156 13.4379C43.7418 13.5143 43.8466 13.6213 43.9203 13.7491ZM13.408 27.7743V22.163H17.2934V18.7084H13.408V13.528H17.7241V9.85808H9.52271V31.4442H17.7241V27.7743H13.408ZM32.2654 19.9953C34.6599 20.9822 35.8557 22.7016 35.8557 24.9658C35.8557 28.528 33.3004 31.4442 28.7107 31.4442H20.7451V9.85808H28.6031C32.8871 9.85808 35.1572 12.1573 35.1572 15.3557C35.1572 17.3181 34.0555 18.9826 32.2654 19.9953ZM31.8568 24.8261C31.8568 26.4471 30.6752 27.7743 27.7067 27.7743H24.6304V22.1631H27.7067C30.6636 22.1631 31.8568 23.205 31.8568 24.8261ZM24.6304 18.6968V13.5164H27.8056C30.262 13.5164 31.3243 14.5263 31.3243 16.0077C31.3243 17.6113 29.904 18.6968 27.4418 18.6968H24.6304Z" fill="#020E2B"/>
</svg>