<?xml version="1.0" encoding="UTF-8"?> <!-- Generator: Adobe Illustrator 17.0.0, SVG Export Plug-In . SVG Version: 6.00 Build 0) --> <svg xmlns="http://www.w3.org/2000/svg" xmlns:xlink="http://www.w3.org/1999/xlink" version="1.1" id="Layer_1" x="0px" y="0px" width="123.196px" height="123.196px" viewBox="0 0 123.196 123.196" xml:space="preserve"> <g> <g> <path fill="#36262A" d="M42.048,104.439c0.117,0,0.219,0.045,0.304,0.136l0.848,0.92c-0.469,0.581-1.047,1.026-1.732,1.336 c-0.686,0.31-1.508,0.464-2.468,0.464c-0.858,0-1.63-0.146-2.316-0.439c-0.685-0.294-1.271-0.702-1.756-1.225 s-0.857-1.146-1.116-1.872c-0.258-0.725-0.388-1.517-0.388-2.376c0-0.869,0.144-1.665,0.432-2.388 c0.288-0.723,0.693-1.346,1.216-1.868c0.522-0.522,1.148-0.93,1.876-1.22c0.728-0.291,1.532-0.437,2.412-0.437 c0.858,0,1.609,0.138,2.252,0.412c0.643,0.275,1.193,0.639,1.652,1.092l-0.72,1c-0.043,0.064-0.098,0.12-0.164,0.168 c-0.067,0.049-0.159,0.072-0.276,0.072c-0.123,0-0.248-0.048-0.376-0.144c-0.128-0.097-0.291-0.2-0.488-0.313 c-0.197-0.111-0.447-0.216-0.748-0.312c-0.301-0.097-0.684-0.145-1.148-0.145c-0.544,0-1.044,0.095-1.5,0.284 s-0.848,0.46-1.176,0.813c-0.328,0.352-0.584,0.779-0.768,1.283c-0.184,0.504-0.276,1.071-0.276,1.7 c0,0.651,0.092,1.229,0.276,1.736c0.184,0.507,0.433,0.934,0.748,1.28c0.314,0.347,0.685,0.611,1.112,0.796 c0.427,0.184,0.885,0.275,1.376,0.275c0.293,0,0.559-0.016,0.796-0.048s0.456-0.082,0.656-0.152 c0.2-0.068,0.389-0.158,0.568-0.268s0.356-0.244,0.532-0.404c0.054-0.048,0.109-0.086,0.168-0.115 C41.915,104.454,41.979,104.439,42.048,104.439z"></path> <path fill="#36262A" d="M46.52,98.959v5.216c0,0.502,0.116,0.89,0.348,1.164s0.58,0.412,1.044,0.412 c0.341,0,0.662-0.076,0.96-0.228c0.299-0.152,0.582-0.361,0.848-0.629v-5.936h1.976v8.208h-1.208c-0.256,0-0.424-0.12-0.504-0.36 l-0.136-0.655c-0.17,0.17-0.347,0.326-0.528,0.468c-0.182,0.142-0.375,0.261-0.58,0.359c-0.206,0.1-0.427,0.177-0.664,0.232 s-0.492,0.084-0.764,0.084c-0.448,0-0.844-0.076-1.188-0.228c-0.344-0.152-0.633-0.367-0.868-0.645 c-0.235-0.277-0.412-0.606-0.532-0.988c-0.12-0.381-0.18-0.801-0.18-1.26v-5.216H46.52z"></path> <path fill="#36262A" d="M58.68,100.558c-0.054,0.086-0.109,0.146-0.168,0.181c-0.059,0.034-0.133,0.052-0.224,0.052 c-0.096,0-0.199-0.026-0.308-0.08c-0.109-0.053-0.236-0.113-0.38-0.18s-0.308-0.127-0.492-0.181 c-0.184-0.053-0.401-0.08-0.652-0.08c-0.39,0-0.696,0.083-0.92,0.248c-0.224,0.166-0.336,0.382-0.336,0.648 c0,0.176,0.057,0.324,0.172,0.444s0.267,0.225,0.456,0.315c0.189,0.091,0.404,0.172,0.644,0.244 c0.24,0.072,0.485,0.15,0.736,0.236c0.25,0.085,0.496,0.183,0.736,0.292c0.24,0.109,0.455,0.248,0.644,0.416 s0.341,0.369,0.456,0.604c0.115,0.235,0.172,0.518,0.172,0.849c0,0.395-0.072,0.759-0.216,1.092s-0.355,0.621-0.632,0.864 c-0.277,0.242-0.62,0.432-1.028,0.567c-0.408,0.136-0.876,0.204-1.404,0.204c-0.283,0-0.559-0.025-0.828-0.076 s-0.528-0.121-0.776-0.212s-0.478-0.197-0.688-0.32c-0.211-0.122-0.396-0.256-0.556-0.399l0.456-0.752 c0.059-0.091,0.128-0.16,0.208-0.208s0.181-0.072,0.304-0.072c0.123,0,0.238,0.035,0.348,0.104s0.236,0.144,0.38,0.224 c0.144,0.08,0.313,0.154,0.508,0.224s0.441,0.104,0.74,0.104c0.235,0,0.436-0.028,0.604-0.084c0.168-0.057,0.307-0.13,0.416-0.22 c0.109-0.091,0.189-0.196,0.24-0.316s0.076-0.244,0.076-0.372c0-0.192-0.058-0.35-0.172-0.472 c-0.115-0.123-0.267-0.229-0.456-0.32c-0.189-0.091-0.405-0.172-0.648-0.244s-0.491-0.15-0.744-0.235 c-0.253-0.086-0.501-0.186-0.744-0.301c-0.243-0.114-0.459-0.26-0.648-0.436c-0.189-0.176-0.341-0.393-0.456-0.648 s-0.172-0.565-0.172-0.928c0-0.336,0.066-0.656,0.2-0.96s0.33-0.569,0.588-0.796c0.259-0.227,0.582-0.408,0.968-0.544 s0.833-0.204,1.34-0.204c0.565,0,1.08,0.094,1.544,0.28c0.464,0.187,0.851,0.432,1.16,0.735L58.68,100.558z"></path> <path fill="#36262A" d="M63.497,107.295c-0.71,0-1.256-0.201-1.641-0.604c-0.384-0.403-0.576-0.959-0.576-1.668v-4.584h-0.832 c-0.107,0-0.199-0.035-0.276-0.104c-0.078-0.069-0.116-0.173-0.116-0.312v-0.784l1.32-0.216l0.416-2.24 c0.021-0.106,0.071-0.189,0.148-0.248c0.078-0.059,0.175-0.088,0.292-0.088h1.024v2.584h2.16v1.408h-2.16v4.447 c0,0.256,0.064,0.456,0.192,0.601c0.128,0.144,0.298,0.216,0.512,0.216c0.123,0,0.226-0.015,0.308-0.044 c0.083-0.029,0.155-0.061,0.217-0.092c0.061-0.032,0.115-0.063,0.163-0.093c0.049-0.029,0.097-0.044,0.145-0.044 c0.059,0,0.106,0.015,0.144,0.044c0.038,0.029,0.077,0.074,0.12,0.133l0.592,0.96c-0.287,0.239-0.618,0.421-0.991,0.544 C64.283,107.233,63.896,107.295,63.497,107.295z"></path> <path fill="#36262A" d="M70.496,98.831c0.613,0,1.17,0.099,1.668,0.296c0.499,0.197,0.924,0.478,1.276,0.84 c0.352,0.363,0.624,0.806,0.815,1.328c0.192,0.522,0.288,1.106,0.288,1.752c0,0.65-0.096,1.237-0.288,1.76 c-0.191,0.523-0.464,0.969-0.815,1.336c-0.353,0.368-0.777,0.651-1.276,0.849c-0.498,0.197-1.055,0.296-1.668,0.296 s-1.171-0.099-1.672-0.296s-0.93-0.48-1.284-0.849c-0.354-0.367-0.629-0.813-0.824-1.336c-0.194-0.522-0.292-1.109-0.292-1.76 c0-0.646,0.098-1.229,0.292-1.752c0.195-0.522,0.47-0.965,0.824-1.328c0.354-0.362,0.783-0.643,1.284-0.84 S69.882,98.831,70.496,98.831z M70.496,105.766c0.683,0,1.188-0.229,1.517-0.688c0.327-0.459,0.491-1.131,0.491-2.016 c0-0.886-0.164-1.561-0.491-2.024c-0.328-0.464-0.834-0.696-1.517-0.696c-0.693,0-1.205,0.233-1.536,0.7 c-0.33,0.467-0.496,1.14-0.496,2.021c0,0.88,0.166,1.55,0.496,2.012C69.29,105.536,69.802,105.766,70.496,105.766z"></path> <path fill="#36262A" d="M76.088,107.167v-8.208h1.208c0.256,0,0.424,0.12,0.504,0.36l0.128,0.607 c0.144-0.16,0.294-0.307,0.452-0.439c0.157-0.134,0.325-0.248,0.504-0.345c0.179-0.096,0.37-0.172,0.576-0.228 c0.205-0.056,0.43-0.084,0.676-0.084c0.517,0,0.942,0.14,1.275,0.42c0.334,0.28,0.583,0.652,0.748,1.116 c0.128-0.272,0.288-0.506,0.48-0.7c0.191-0.194,0.402-0.354,0.632-0.476c0.229-0.123,0.474-0.214,0.732-0.272 c0.258-0.059,0.519-0.088,0.779-0.088c0.453,0,0.856,0.069,1.208,0.208c0.353,0.139,0.648,0.341,0.889,0.608 c0.239,0.267,0.422,0.592,0.548,0.976c0.125,0.384,0.188,0.824,0.188,1.32v5.224H85.64v-5.224c0-0.523-0.115-0.916-0.344-1.181 c-0.229-0.264-0.565-0.396-1.009-0.396c-0.202,0-0.391,0.034-0.563,0.104c-0.174,0.069-0.325,0.17-0.456,0.3 c-0.131,0.131-0.233,0.295-0.308,0.492c-0.075,0.197-0.112,0.424-0.112,0.681v5.224h-1.984v-5.224c0-0.55-0.11-0.949-0.332-1.2 c-0.221-0.251-0.548-0.376-0.979-0.376c-0.283,0-0.548,0.07-0.796,0.212s-0.479,0.335-0.692,0.58v6.008H76.088z"></path> <path fill="#36262A" d="M25.788,109.567c0,0.17-0.035,0.33-0.104,0.479s-0.162,0.28-0.276,0.393 c-0.115,0.111-0.25,0.201-0.404,0.268s-0.32,0.1-0.496,0.1c-0.17,0-0.332-0.033-0.484-0.1c-0.152-0.066-0.284-0.156-0.396-0.268 c-0.112-0.112-0.201-0.243-0.268-0.393c-0.066-0.149-0.1-0.31-0.1-0.479c0-0.177,0.033-0.342,0.1-0.496 c0.067-0.155,0.156-0.288,0.268-0.4c0.112-0.112,0.244-0.201,0.396-0.268c0.152-0.067,0.313-0.101,0.484-0.101 c0.176,0,0.341,0.033,0.496,0.101c0.155,0.066,0.29,0.155,0.404,0.268c0.114,0.112,0.207,0.245,0.276,0.4 C25.753,109.225,25.788,109.39,25.788,109.567z M25.492,111.959v8.208h-1.976v-8.208H25.492z"></path> <path fill="#36262A" d="M27.724,120.167v-8.208h1.208c0.256,0,0.424,0.12,0.504,0.36l0.136,0.647 c0.166-0.171,0.34-0.325,0.524-0.464c0.184-0.139,0.378-0.259,0.584-0.36c0.205-0.101,0.425-0.178,0.66-0.231 s0.491-0.08,0.768-0.08c0.448,0,0.845,0.076,1.192,0.228c0.347,0.152,0.636,0.366,0.868,0.641s0.408,0.603,0.528,0.983 c0.12,0.382,0.18,0.802,0.18,1.261v5.224H32.9v-5.224c0-0.502-0.116-0.89-0.348-1.164c-0.232-0.275-0.58-0.412-1.044-0.412 c-0.341,0-0.661,0.077-0.96,0.231c-0.299,0.155-0.581,0.366-0.848,0.633v5.936H27.724z"></path> <path fill="#36262A" d="M39.516,120.295c-0.709,0-1.256-0.201-1.64-0.604c-0.384-0.403-0.576-0.959-0.576-1.668v-4.584h-0.832 c-0.107,0-0.199-0.035-0.276-0.104c-0.078-0.069-0.116-0.173-0.116-0.312v-0.784l1.32-0.216l0.416-2.24 c0.021-0.106,0.071-0.189,0.148-0.248c0.078-0.059,0.175-0.088,0.292-0.088h1.024v2.584h2.16v1.408h-2.16v4.447 c0,0.256,0.064,0.456,0.192,0.601c0.128,0.144,0.298,0.216,0.512,0.216c0.123,0,0.226-0.015,0.308-0.044s0.155-0.061,0.216-0.092 c0.061-0.032,0.116-0.063,0.164-0.093c0.048-0.029,0.096-0.044,0.144-0.044c0.059,0,0.107,0.015,0.144,0.044 c0.038,0.029,0.077,0.074,0.12,0.133l0.592,0.96c-0.288,0.239-0.619,0.421-0.992,0.544 C40.302,120.233,39.915,120.295,39.516,120.295z"></path> <path fill="#36262A" d="M46.404,111.831c0.517,0,0.993,0.083,1.428,0.248s0.809,0.406,1.124,0.724 c0.314,0.317,0.56,0.707,0.736,1.168c0.176,0.462,0.264,0.988,0.264,1.58c0,0.149-0.007,0.273-0.02,0.372 s-0.038,0.176-0.072,0.232c-0.035,0.056-0.082,0.096-0.14,0.12c-0.059,0.023-0.133,0.035-0.224,0.035h-5.072 c0.059,0.843,0.285,1.462,0.68,1.856s0.917,0.592,1.568,0.592c0.32,0,0.596-0.037,0.828-0.111 c0.232-0.075,0.435-0.158,0.608-0.248c0.173-0.091,0.326-0.174,0.456-0.248c0.131-0.075,0.257-0.112,0.38-0.112 c0.08,0,0.149,0.016,0.208,0.048c0.059,0.032,0.109,0.077,0.152,0.136l0.576,0.721c-0.219,0.256-0.464,0.471-0.736,0.644 c-0.272,0.174-0.556,0.313-0.852,0.416c-0.296,0.104-0.597,0.178-0.904,0.22c-0.307,0.043-0.604,0.064-0.892,0.064 c-0.571,0-1.102-0.095-1.592-0.284c-0.491-0.189-0.917-0.469-1.28-0.84s-0.648-0.829-0.856-1.376s-0.312-1.18-0.312-1.9 c0-0.56,0.091-1.086,0.272-1.58c0.181-0.493,0.441-0.922,0.78-1.288c0.338-0.365,0.752-0.654,1.24-0.867 C45.24,111.937,45.79,111.831,46.404,111.831z M46.444,113.247c-0.576,0-1.026,0.163-1.352,0.488 c-0.326,0.325-0.534,0.786-0.624,1.384h3.712c0-0.256-0.035-0.497-0.104-0.725c-0.069-0.227-0.176-0.425-0.32-0.596 s-0.325-0.305-0.544-0.404C46.993,113.296,46.737,113.247,46.444,113.247z"></path> <path fill="#36262A" d="M54.404,111.815c0.352,0,0.683,0.035,0.992,0.107c0.309,0.072,0.592,0.178,0.848,0.316h2.36v0.735 c0,0.123-0.032,0.219-0.096,0.288s-0.173,0.117-0.328,0.145l-0.736,0.136c0.053,0.139,0.095,0.285,0.124,0.44 c0.029,0.154,0.044,0.317,0.044,0.487c0,0.405-0.082,0.772-0.244,1.101s-0.387,0.606-0.672,0.836s-0.624,0.406-1.016,0.532 c-0.392,0.125-0.817,0.188-1.276,0.188c-0.31,0-0.611-0.029-0.904-0.088c-0.256,0.156-0.384,0.33-0.384,0.523 c0,0.167,0.076,0.289,0.228,0.367s0.352,0.133,0.6,0.165s0.529,0.048,0.844,0.048c0.315,0,0.638,0.014,0.968,0.041 c0.331,0.026,0.653,0.073,0.968,0.14c0.315,0.067,0.596,0.173,0.844,0.317s0.448,0.341,0.6,0.59 c0.152,0.249,0.228,0.568,0.228,0.959c0,0.364-0.089,0.717-0.268,1.06s-0.438,0.647-0.776,0.915 c-0.339,0.268-0.753,0.482-1.244,0.646c-0.491,0.163-1.051,0.244-1.68,0.244c-0.624,0-1.166-0.06-1.624-0.18 s-0.839-0.28-1.14-0.48c-0.301-0.199-0.526-0.431-0.676-0.691c-0.149-0.262-0.224-0.533-0.224-0.816 c0-0.384,0.117-0.706,0.352-0.968c0.235-0.261,0.56-0.469,0.976-0.624c-0.203-0.112-0.365-0.261-0.488-0.448 c-0.123-0.187-0.184-0.429-0.184-0.728c0-0.123,0.021-0.249,0.064-0.38c0.042-0.131,0.108-0.261,0.196-0.389 s0.199-0.249,0.332-0.363c0.133-0.115,0.291-0.218,0.472-0.309c-0.416-0.224-0.743-0.522-0.98-0.896s-0.356-0.811-0.356-1.313 c0-0.405,0.081-0.771,0.244-1.1s0.39-0.608,0.68-0.84c0.291-0.232,0.635-0.409,1.032-0.532 C53.501,111.876,53.934,111.815,54.404,111.815z M56.572,120.511c0-0.163-0.048-0.297-0.144-0.4 c-0.096-0.104-0.227-0.184-0.392-0.241c-0.165-0.057-0.358-0.099-0.58-0.126c-0.222-0.027-0.456-0.041-0.704-0.041 s-0.504,0-0.768,0s-0.519-0.029-0.764-0.088c-0.224,0.122-0.404,0.268-0.54,0.436c-0.136,0.168-0.204,0.361-0.204,0.58 c0,0.145,0.036,0.278,0.108,0.404c0.072,0.125,0.187,0.233,0.344,0.324c0.157,0.09,0.361,0.161,0.612,0.212 c0.25,0.051,0.557,0.076,0.92,0.076c0.368,0,0.685-0.029,0.952-0.086c0.267-0.058,0.487-0.137,0.66-0.237s0.3-0.221,0.38-0.359 S56.572,120.674,56.572,120.511z M54.404,115.863c0.245,0,0.458-0.033,0.64-0.101c0.181-0.066,0.332-0.158,0.452-0.275 c0.12-0.117,0.211-0.259,0.272-0.424c0.062-0.166,0.092-0.347,0.092-0.545c0-0.405-0.122-0.727-0.364-0.964 s-0.606-0.355-1.092-0.355s-0.85,0.118-1.092,0.355c-0.243,0.237-0.364,0.559-0.364,0.964c0,0.192,0.031,0.371,0.092,0.536 c0.061,0.166,0.152,0.309,0.272,0.429c0.12,0.119,0.272,0.213,0.456,0.279C53.952,115.83,54.163,115.863,54.404,115.863z"></path> <path fill="#36262A" d="M59.843,120.167v-8.208h1.16c0.203,0,0.344,0.037,0.424,0.112c0.08,0.074,0.133,0.202,0.16,0.384 l0.12,0.992c0.293-0.507,0.637-0.907,1.032-1.2s0.837-0.44,1.328-0.44c0.405,0,0.742,0.094,1.009,0.28l-0.256,1.48 c-0.017,0.096-0.051,0.164-0.104,0.203c-0.054,0.04-0.125,0.061-0.216,0.061c-0.08,0-0.189-0.019-0.328-0.056 c-0.139-0.038-0.323-0.057-0.552-0.057c-0.411,0-0.763,0.113-1.057,0.34c-0.293,0.228-0.541,0.56-0.744,0.996v5.112H59.843z"></path> <path fill="#36262A" d="M72.58,120.167h-0.888c-0.188,0-0.334-0.028-0.44-0.084s-0.187-0.169-0.24-0.34l-0.176-0.584 c-0.208,0.187-0.412,0.351-0.612,0.492c-0.199,0.141-0.406,0.26-0.619,0.355c-0.214,0.096-0.44,0.168-0.681,0.216 s-0.507,0.072-0.8,0.072c-0.347,0-0.667-0.047-0.96-0.141s-0.545-0.233-0.756-0.421s-0.375-0.42-0.492-0.698 s-0.176-0.603-0.176-0.972c0-0.311,0.081-0.616,0.244-0.919c0.162-0.303,0.433-0.575,0.812-0.818 c0.379-0.244,0.883-0.446,1.512-0.606c0.63-0.16,1.411-0.241,2.345-0.241v-0.483c0-0.554-0.116-0.963-0.349-1.229 c-0.231-0.266-0.569-0.398-1.012-0.398c-0.32,0-0.587,0.037-0.8,0.111c-0.214,0.075-0.398,0.159-0.556,0.253 c-0.158,0.093-0.304,0.177-0.437,0.252c-0.134,0.074-0.28,0.111-0.44,0.111c-0.133,0-0.247-0.034-0.344-0.104 c-0.096-0.069-0.173-0.155-0.231-0.256l-0.36-0.633c0.944-0.863,2.083-1.296,3.416-1.296c0.48,0,0.908,0.079,1.284,0.236 s0.694,0.376,0.956,0.656c0.261,0.279,0.46,0.614,0.596,1.004s0.204,0.815,0.204,1.28V120.167z M68.74,118.934 c0.202,0,0.389-0.018,0.56-0.055s0.332-0.092,0.484-0.165c0.152-0.074,0.299-0.164,0.439-0.272 c0.142-0.107,0.284-0.234,0.429-0.382v-1.374c-0.576,0-1.058,0.037-1.444,0.109s-0.697,0.165-0.932,0.278 c-0.235,0.112-0.401,0.244-0.5,0.395s-0.148,0.314-0.148,0.491c0,0.35,0.103,0.599,0.309,0.749 C68.141,118.86,68.409,118.934,68.74,118.934z"></path> <path fill="#36262A" d="M77.219,120.295c-0.709,0-1.256-0.201-1.64-0.604c-0.384-0.403-0.576-0.959-0.576-1.668v-4.584h-0.832 c-0.106,0-0.198-0.035-0.275-0.104c-0.078-0.069-0.116-0.173-0.116-0.312v-0.784l1.319-0.216l0.416-2.24 c0.021-0.106,0.071-0.189,0.148-0.248s0.175-0.088,0.292-0.088h1.024v2.584h2.159v1.408H76.98v4.447 c0,0.256,0.063,0.456,0.191,0.601c0.128,0.144,0.299,0.216,0.512,0.216c0.123,0,0.226-0.015,0.309-0.044 c0.082-0.029,0.154-0.061,0.216-0.092c0.062-0.032,0.116-0.063,0.164-0.093s0.096-0.044,0.144-0.044 c0.059,0,0.107,0.015,0.145,0.044s0.077,0.074,0.12,0.133l0.592,0.96c-0.288,0.239-0.619,0.421-0.992,0.544 C78.006,120.233,77.62,120.295,77.219,120.295z"></path> <path fill="#36262A" d="M83.116,109.567c0,0.17-0.035,0.33-0.104,0.479s-0.161,0.28-0.275,0.393 c-0.115,0.111-0.25,0.201-0.404,0.268c-0.155,0.066-0.32,0.1-0.496,0.1c-0.171,0-0.332-0.033-0.484-0.1 c-0.151-0.066-0.283-0.156-0.396-0.268c-0.112-0.112-0.201-0.243-0.269-0.393c-0.066-0.149-0.1-0.31-0.1-0.479 c0-0.177,0.033-0.342,0.1-0.496c0.067-0.155,0.156-0.288,0.269-0.4s0.244-0.201,0.396-0.268c0.152-0.067,0.313-0.101,0.484-0.101 c0.176,0,0.341,0.033,0.496,0.101c0.154,0.066,0.289,0.155,0.404,0.268c0.114,0.112,0.206,0.245,0.275,0.4 C83.08,109.225,83.116,109.39,83.116,109.567z M82.82,111.959v8.208h-1.977v-8.208H82.82z"></path> <path fill="#36262A" d="M88.555,111.831c0.613,0,1.17,0.099,1.668,0.296c0.499,0.197,0.924,0.478,1.276,0.84 c0.352,0.363,0.624,0.806,0.815,1.328c0.192,0.522,0.288,1.106,0.288,1.752c0,0.65-0.096,1.237-0.288,1.76 c-0.191,0.523-0.464,0.969-0.815,1.336c-0.353,0.368-0.777,0.651-1.276,0.849c-0.498,0.197-1.055,0.296-1.668,0.296 s-1.171-0.099-1.672-0.296s-0.93-0.48-1.284-0.849c-0.354-0.367-0.629-0.813-0.824-1.336c-0.194-0.522-0.292-1.109-0.292-1.76 c0-0.646,0.098-1.229,0.292-1.752c0.195-0.522,0.47-0.965,0.824-1.328c0.354-0.362,0.783-0.643,1.284-0.84 S87.942,111.831,88.555,111.831z M88.555,118.766c0.683,0,1.188-0.229,1.517-0.688c0.327-0.459,0.491-1.131,0.491-2.016 c0-0.886-0.164-1.561-0.491-2.024c-0.328-0.464-0.834-0.696-1.517-0.696c-0.693,0-1.205,0.233-1.536,0.7 c-0.33,0.467-0.496,1.14-0.496,2.021c0,0.88,0.166,1.55,0.496,2.012C87.35,118.536,87.862,118.766,88.555,118.766z"></path> <path fill="#36262A" d="M94.147,120.167v-8.208h1.208c0.256,0,0.424,0.12,0.504,0.36l0.136,0.647 c0.166-0.171,0.341-0.325,0.524-0.464s0.379-0.259,0.584-0.36c0.205-0.101,0.425-0.178,0.66-0.231 c0.234-0.054,0.49-0.08,0.768-0.08c0.448,0,0.846,0.076,1.192,0.228c0.347,0.152,0.636,0.366,0.868,0.641 c0.231,0.274,0.408,0.603,0.527,0.983c0.12,0.382,0.181,0.802,0.181,1.261v5.224h-1.977v-5.224c0-0.502-0.115-0.89-0.348-1.164 c-0.232-0.275-0.58-0.412-1.044-0.412c-0.342,0-0.661,0.077-0.96,0.231c-0.299,0.155-0.581,0.366-0.848,0.633v5.936H94.147z"></path> </g> </g> <g> <linearGradient id="SVGID_1_" gradientUnits="userSpaceOnUse" x1="62.2599" y1="69.9709" x2="62.2599" y2="21.4471"> <stop offset="0.0054" style="stop-color:#EE7623"></stop> <stop offset="1" style="stop-color:#FAAF19"></stop> </linearGradient> <path fill="url(#SVGID_1_)" d="M82.638,41.526c-0.597-0.13-1.072-0.579-1.236-1.167c-0.427-1.531-1.041-3.011-1.825-4.4 c-0.3-0.532-0.281-1.186,0.049-1.7l2.15-3.345l-4.721-4.722l-3.345,2.151c-0.514,0.33-1.168,0.349-1.7,0.049 c-1.389-0.784-2.869-1.398-4.4-1.824c-0.588-0.164-1.037-0.64-1.167-1.237l-0.844-3.884h-6.677l-0.844,3.884 c-0.13,0.597-0.579,1.073-1.167,1.237c-1.531,0.427-3.011,1.041-4.401,1.824c-0.531,0.3-1.186,0.282-1.7-0.049l-3.346-2.151 l-4.721,4.722l2.151,3.345c0.331,0.514,0.349,1.168,0.049,1.7c-0.784,1.389-1.398,2.869-1.824,4.4 c-0.164,0.588-0.64,1.037-1.237,1.167l-3.884,0.844v6.677l3.884,0.844c0.597,0.13,1.072,0.579,1.236,1.167 c0.427,1.531,1.041,3.011,1.825,4.4c0.3,0.532,0.281,1.186-0.049,1.7l-2.15,3.345l4.721,4.722l3.345-2.151 c0.514-0.33,1.168-0.349,1.7-0.049c1.389,0.784,2.869,1.398,4.4,1.824c0.588,0.164,1.037,0.64,1.167,1.237l0.844,3.884h6.677 l0.844-3.884c0.13-0.597,0.579-1.073,1.167-1.237c1.531-0.427,3.011-1.041,4.401-1.824c0.531-0.3,1.186-0.282,1.7,0.049 l3.346,2.151l4.721-4.722l-2.151-3.345c-0.331-0.514-0.349-1.168-0.049-1.7c0.784-1.389,1.398-2.869,1.824-4.4 c0.164-0.588,0.64-1.037,1.237-1.167l3.884-0.844v-6.677L82.638,41.526z M62.438,56.876c-5.983,0-10.833-4.85-10.833-10.833 c0-5.983,4.85-10.833,10.833-10.833s10.833,4.85,10.833,10.833C73.272,52.025,68.421,56.876,62.438,56.876z M69.828,46.042 c0,4.081-3.308,7.39-7.39,7.39c-4.081,0-7.39-3.308-7.39-7.39c0-4.081,3.308-7.39,7.39-7.39 C66.519,38.653,69.828,41.961,69.828,46.042z"></path> <linearGradient id="SVGID_2_" gradientUnits="userSpaceOnUse" x1="61.5981" y1="89.8342" x2="61.5981" y2="1.0838"> <stop offset="0.0054" style="stop-color:#EE7623"></stop> <stop offset="1" style="stop-color:#FAAF19"></stop> </linearGradient> <circle fill="none" stroke="url(#SVGID_2_)" stroke-width="6" stroke-miterlimit="10" cx="61.598" cy="45.459" r="41.375"></circle> </g> </svg> 