<svg width="40" height="40" viewBox="0 0 40 40" fill="none" xmlns="http://www.w3.org/2000/svg">
<rect x="0.5" y="0.5" width="39" height="39" rx="3.5" fill="#FAFAFA"/>
<rect x="0.5" y="0.5" width="39" height="39" rx="3.5" stroke="#E6E6E6"/>
<rect x="8" y="8" width="24" height="24" rx="4" fill="#082C47"/>
<path fill-rule="evenodd" clip-rule="evenodd" d="M15.3594 12L15.6108 12.2403C15.5527 12.2662 16.0366 12.8865 17.4957 14.7571C17.6842 14.9988 17.8889 15.2613 18.1109 15.5461C19.3236 17.1016 20.4025 18.5485 20.5028 18.7659C20.6701 19.1423 20.6785 19.2678 20.7036 23.3742C20.7203 25.6992 20.7036 27.6813 20.6868 27.7733C20.6283 28.0074 20.3439 28.0744 20.1432 27.9071C19.817 27.6227 15.7525 22.3204 15.5852 21.9524C15.4179 21.5844 15.4096 21.4589 15.3845 16.7838L15.3594 12Z" fill="#27DBBB"/>
<path d="M24.0991 12.0836C24.2162 12.1254 24.3751 12.2593 24.4587 12.3931C24.5925 12.5938 24.6092 12.8698 24.6343 14.9272C24.6678 17.4111 24.626 17.7289 24.258 18.0132C24.074 18.1638 23.9234 18.1889 23.2795 18.1889H22.5184L21.013 16.8424C19.2316 15.245 17.4837 13.7396 16.2793 12.7527C15.9093 12.4524 15.6482 12.2237 15.6108 12.2403L15.3594 12H19.6247C22.1337 12 23.9736 12.0335 24.0991 12.0836Z" fill="#27DBBB"/>
<path d="M24.0991 12.0836C24.2162 12.1254 24.3751 12.2593 24.4587 12.3931C24.5925 12.5938 24.6092 12.8698 24.6343 14.9272C24.6678 17.4111 24.626 17.7289 24.258 18.0132C24.074 18.1638 23.9234 18.1889 23.2795 18.1889H22.5184L21.013 16.8424C19.2316 15.245 17.4837 13.7396 16.2793 12.7527C15.9093 12.4524 15.6482 12.2237 15.6108 12.2403L15.3594 12H19.6247C22.1337 12 23.9736 12.0335 24.0991 12.0836Z" fill="white"/>
</svg>
