<svg xmlns="http://www.w3.org/2000/svg" viewBox="0 0 129 129">
  <path fill="#ffed36" d="M0 0h129v129H0z"/>
  <path fill="#0d121a" d="M85.842 31.847 66.58 51.079c-3.598 3.592-9.45 3.592-13.047 0s-3.598-9.435 0-13.027l19.262-19.233c3.598-3.592 9.45-3.592 13.048 0 3.599 3.556 3.599 9.435 0 13.028Z"/>
  <path fill="#0d121a" d="M85.66 69.84 66.943 88.528c-3.598 3.593-9.45 3.593-13.048 0-3.598-3.593-3.598-9.435 0-13.027l18.718-18.688c3.598-3.593 9.45-3.593 13.047 0 3.598 3.592 3.598 9.434 0 13.027Z"/>
  <path fill="#0d121a" d="M48.002 69.576c3.633-3.628 3.668-9.475.077-13.06-3.591-3.586-9.448-3.552-13.081.076-3.634 3.628-3.668 9.475-.077 13.06 3.59 3.586 9.447 3.552 13.08-.076Z"/>
  <path fill="#0d121a" d="M85.94 107.473c3.633-3.627 3.667-9.475.076-13.06-3.59-3.586-9.447-3.551-13.08.077-3.634 3.627-3.668 9.475-.077 13.06 3.59 3.586 9.447 3.551 13.08-.077Z"/>
</svg>