<svg
  width="40"
  height="40"
  viewBox="0 0 40 40"
  fill="none"
  xmlns="http://www.w3.org/2000/svg"
>
  <g clip-path="url(#clip0_461_4126)">
    <rect width="40" height="40" fill="white" />
    <path d="M36 25.8489H33.9556V27.8933H36V25.8489Z" fill="#FF6600" />
    <path
      d="M29.8131 16.7556L31.0312 25.8844L32.24 16.7556H34.1425L32.3644 27.8931H29.6712L27.92 16.7556H29.8131Z"
      fill="#FF6600"
    />
    <path
      d="M5.04875 16.7557H4V18.2401H5.04875V27.9026H6.8975V18.2313H8.195V16.747H6.8975V14.4895C6.8975 14.1607 6.96875 13.9026 7.12875 13.7338C7.28875 13.5651 7.5375 13.4851 7.86625 13.4851H8.195V11.9651H7.52875C6.71125 11.9651 5.92 12.1426 5.5375 12.4982C5.16438 12.8538 5.04875 13.4138 5.04875 14.2051V16.7557Z"
      fill="#FF6600"
    />
    <path
      d="M10.6219 16.7556H8.77313V27.8931H10.6219V16.7556Z"
      fill="#FF6600"
    />
    <path
      d="M19.1732 22.9513H23.0307V19.5201C23.0307 17.4669 22.0438 16.6226 20.1775 16.6226C18.2307 16.6226 17.3244 17.4582 17.3244 19.5294V25.1738C17.3332 27.0582 18.4713 28.0269 20.1775 28.0269C21.8838 28.0269 23.04 27.2269 23.04 25.1738V24.2851H21.2532V25.3426C21.2532 26.0982 20.9688 26.6226 20.2132 26.6226C19.4575 26.6226 19.1819 26.0982 19.1819 25.3426V22.9513H19.1732ZM19.1732 19.1557C19.1732 18.5244 19.3332 17.8757 20.2044 17.8757C21.0669 17.8757 21.2444 18.5157 21.2444 19.1557V21.4582H19.1732V19.1557Z"
      fill="#FF6600"
    />
    <path
      d="M14.7912 21.5644C13.3869 20.3469 13.28 20.1687 13.28 19.2619C13.28 18.4887 13.3512 18.0175 14.0444 18.0175C14.7375 18.0175 14.8269 18.48 14.8269 19.2706V20.3019H16.6137V18.6219C16.605 17.3062 15.5912 16.6306 14.0006 16.6306C12.4362 16.6306 11.4137 17.155 11.405 19.2619C11.405 19.6175 11.405 19.6175 11.405 19.4844C11.405 20.1512 11.4137 21.2 13.0494 22.6044L13.5206 23.0044C14.7294 24.0175 14.8631 24.1419 14.8537 25.3512C14.8537 26.0981 14.8094 26.6581 14.0269 26.6581C13.2444 26.6581 13.1912 26.0894 13.1912 25.7337V24.3112H11.3156V25.7781C11.3156 27.5912 12.4981 28.0356 14.0181 28.0356C15.5469 28.0356 16.7206 27.5825 16.7206 25.2531V25.0575C16.72 23.4312 16.4269 22.9956 14.7912 21.5644Z"
      fill="#FF6600"
    />
    <path
      d="M25.52 17.9026V16.7557H23.8312V27.8932H25.6537V20.1332C25.6537 19.5376 25.8494 19.1376 26.1869 18.9063C26.5069 18.6838 26.9069 18.6132 27.4137 18.6038V16.6213C26.445 16.6388 26.0269 16.8345 25.5381 17.857L25.52 17.9026Z"
      fill="#FF6600"
    />
  </g>
  <defs>
    <clipPath id="clip0_461_4126">
      <rect width="40" height="40" fill="white" />
    </clipPath>
  </defs>
</svg>
