<svg width="40" height="40" viewBox="0 0 40 40" fill="none" xmlns="http://www.w3.org/2000/svg">
<rect x="0.5" y="0.5" width="39" height="39" rx="3.5" fill="#FAFAFA"/>
<rect x="0.5" y="0.5" width="39" height="39" rx="3.5" stroke="#E6E6E6"/>
<path d="M13.8376 8.57608H9.00944C8.5799 8.57608 8.23169 8.92429 8.23169 9.35383V14.247C8.23169 14.6766 8.5799 15.0248 9.00944 15.0248H13.8376C14.2671 15.0248 14.6153 14.6766 14.6153 14.247V9.35383C14.6153 8.92429 14.2671 8.57608 13.8376 8.57608Z" fill="#EE3523"/>
<path d="M22.0967 8.5806H17.34C16.8861 8.5806 16.5181 8.94854 16.5181 9.40243V14.2117C16.5181 14.6656 16.8861 15.0335 17.34 15.0335H22.0967C22.5506 15.0335 22.9186 14.6656 22.9186 14.2117V9.40243C22.9186 8.94854 22.5506 8.5806 22.0967 8.5806Z" fill="#EE3523"/>
<path d="M30.4123 8.57746L25.6135 8.58584C25.1759 8.5866 24.8217 8.94201 24.8225 9.37966L24.831 14.2456C24.8317 14.6832 25.1872 15.0374 25.6248 15.0366L30.4236 15.0283C30.8612 15.0275 31.2154 14.6721 31.2146 14.2344L31.2061 9.36852C31.2054 8.93087 30.8499 8.5767 30.4123 8.57746Z" fill="#EE3523"/>
<path d="M22.1104 16.8724H17.3263C16.88 16.8724 16.5181 17.2342 16.5181 17.6806V22.5171C16.5181 22.9635 16.88 23.3253 17.3263 23.3253H22.1104C22.5567 23.3253 22.9186 22.9635 22.9186 22.5171V17.6806C22.9186 17.2342 22.5567 16.8724 22.1104 16.8724Z" fill="#EE3523"/>
<path d="M30.4498 16.8766L25.607 16.8682C25.1832 16.8674 24.8391 17.2103 24.8384 17.6341L24.8298 22.5525C24.8291 22.9762 25.172 23.3203 25.5957 23.3211L30.4385 23.3295C30.8623 23.3303 31.2064 22.9873 31.2071 22.5636L31.2157 17.6452C31.2165 17.2215 30.8735 16.8774 30.4498 16.8766Z" fill="#EE3523"/>
<path d="M30.4326 25.1674H25.6045C25.1749 25.1674 24.8267 25.5156 24.8267 25.9451V30.8383C24.8267 31.2679 25.1749 31.6161 25.6045 31.6161H30.4326C30.8622 31.6161 31.2104 31.2679 31.2104 30.8383V25.9451C31.2104 25.5156 30.8622 25.1674 30.4326 25.1674Z" fill="#EE3523"/>
</svg>
