<svg
  width="40"
  height="40"
  viewBox="0 0 40 40"
  fill="none"
  xmlns="http://www.w3.org/2000/svg"
>
  <g clip-path="url(#clip0_461_4093)">
    <rect width="40" height="40" fill="#003C71" />
    <path
      fill-rule="evenodd"
      clip-rule="evenodd"
      d="M27 9.91847C27 10.9785 26.1276 11.8376 25.0511 11.8376C23.9746 11.8376 23.1022 10.9785 23.1022 9.91847C23.1022 8.85843 23.9746 8 25.0511 8C26.1276 8 27 8.85843 27 9.91847ZM19.8271 18.4947C21.3472 18.4947 22.3613 17.5265 22.3613 16.0284C22.3613 14.5309 21.3176 13.5038 19.7376 13.5038C18.3063 13.5038 17.2929 14.5017 17.2929 16.0873C17.2929 17.614 18.2471 18.4947 19.8271 18.4947ZM16.5182 27.7137C16.5182 28.7116 17.6507 29.4173 19.559 29.4173C22.1531 29.4173 23.614 28.595 23.614 27.5083C23.614 26.6569 22.9283 26.3335 21.5273 26.2751L18.0982 26.0989C17.0249 26.5979 16.5182 27.0676 16.5182 27.7137ZM13.6554 22.9865C13.6554 21.8998 14.4602 20.8436 15.981 20.0797C14.5504 19.2288 13.8048 17.8486 13.8048 16.0575C13.8048 12.9161 16.1896 10.7149 19.7378 10.7149C21.1936 10.7149 22.6429 11.1771 23.7567 12.1135C24.4927 12.7316 25.0715 13.5419 25.3882 14.4434C25.6033 15.054 25.6708 15.7082 25.6708 16.3518C25.6708 19.317 23.4644 21.2551 19.8273 21.2551C19.1713 21.2551 18.6047 21.1961 18.1276 21.0781C17.4419 21.3426 17.1142 21.695 17.1142 22.1059C17.1142 22.9805 18.1507 23.0475 20.1131 23.1742L20.1144 23.1743C20.4576 23.1964 20.8292 23.2204 21.2283 23.2508C25.2536 23.5444 26.9528 24.3078 26.9528 27.2438C26.9528 30.268 24.4186 32 19.6187 32C15.2361 32 13 30.649 13 28.1536C13 26.7151 13.864 25.9226 15.7125 25.3354C14.3115 24.6609 13.6554 24.0433 13.6554 22.9865Z"
      fill="white"
    />
  </g>
  <defs>
    <clipPath id="clip0_461_4093">
      <rect width="40" height="40" fill="white" />
    </clipPath>
  </defs>
</svg>
