<svg width="48" height="48" viewBox="0 0 48 48" fill="none" xmlns="http://www.w3.org/2000/svg">
<g clip-path="url(#clip0_10960_48969)">
<path d="M28.9245 33.1319C24.1605 33.4271 20.0757 29.3951 17.8677 25.5143C16.6389 23.3527 15.9573 21.0871 15.8229 18.7175C15.6645 15.9575 17.1981 13.7423 20.2701 14.1743C21.9885 14.4159 23.8413 15.1159 25.8285 16.2743C28.3949 17.7719 30.9357 19.2919 33.4509 20.8343C33.462 20.8404 33.4748 20.843 33.4875 20.8417C33.5002 20.8404 33.5122 20.8351 33.5215 20.8268C33.5309 20.8185 33.5373 20.8076 33.5397 20.7955C33.5421 20.7835 33.5404 20.771 33.5349 20.7599L28.9053 11.2943C28.8873 11.2584 28.8613 11.227 28.8293 11.2025C28.7973 11.178 28.7601 11.1609 28.7205 11.1527C26.9189 10.7799 25.1605 10.6527 23.4453 10.7711C12.4365 11.5295 7.87892 24.5279 14.3661 32.5247C18.0597 37.0799 24.1797 38.6423 29.5269 35.9471C34.9197 33.2279 37.3533 27.1943 36.3573 21.3431C36.3445 21.2743 36.3029 21.2399 36.2325 21.2399H23.8965C23.7717 21.2399 23.7509 21.2863 23.8341 21.3791L32.8269 31.2383C32.8797 31.2975 32.8813 31.3583 32.8317 31.4207C31.9173 32.5943 30.3405 33.0455 28.9245 33.1319Z" stroke="#878634" stroke-width="2"/>
<path d="M0 0H48V48H0V0ZM28.9248 33.132C24.1608 33.4272 20.076 29.3952 17.868 25.5144C16.6392 23.3528 15.9576 21.0872 15.8232 18.7176C15.6648 15.9576 17.1984 13.7424 20.2704 14.1744C21.9888 14.416 23.8416 15.116 25.8288 16.2744C28.3952 17.772 30.936 19.292 33.4512 20.8344C33.4623 20.8405 33.4751 20.8431 33.4878 20.8418C33.5005 20.8405 33.5124 20.8353 33.5218 20.827C33.5312 20.8187 33.5375 20.8077 33.54 20.7956C33.5424 20.7836 33.5407 20.7711 33.5352 20.76L28.9056 11.2944C28.8876 11.2585 28.8616 11.2271 28.8296 11.2026C28.7976 11.1781 28.7604 11.1611 28.7208 11.1528C26.9192 10.78 25.1608 10.6528 23.4456 10.7712C12.4368 11.5296 7.8792 24.528 14.3664 32.5248C18.06 37.08 24.18 38.6424 29.5272 35.9472C34.92 33.228 37.3536 27.1944 36.3576 21.3432C36.3448 21.2744 36.3032 21.24 36.2328 21.24H23.8968C23.772 21.24 23.7512 21.2864 23.8344 21.3792L32.8272 31.2384C32.88 31.2976 32.8816 31.3584 32.832 31.4208C31.9176 32.5944 30.3408 33.0456 28.9248 33.132Z" fill="#F1F151"/>
<path d="M28.9245 33.1319C30.3405 33.0455 31.9173 32.5943 32.8317 31.4207C32.8813 31.3583 32.8797 31.2975 32.8269 31.2383L23.8341 21.3791C23.7509 21.2863 23.7717 21.2399 23.8965 21.2399H36.2325C36.3029 21.2399 36.3445 21.2743 36.3573 21.3431C37.3533 27.1943 34.9197 33.2279 29.5269 35.9471C24.1797 38.6423 18.0597 37.0799 14.3661 32.5247C7.87892 24.5279 12.4365 11.5295 23.4453 10.7711C25.1605 10.6527 26.9189 10.7799 28.7205 11.1527C28.7601 11.1609 28.7973 11.178 28.8293 11.2025C28.8613 11.227 28.8873 11.2584 28.9053 11.2943L33.5349 20.7599C33.5404 20.771 33.5421 20.7835 33.5397 20.7955C33.5373 20.8076 33.5309 20.8185 33.5215 20.8268C33.5122 20.8351 33.5002 20.8404 33.4875 20.8417C33.4748 20.843 33.462 20.8404 33.4509 20.8343C30.9357 19.2919 28.3949 17.7719 25.8285 16.2743C23.8413 15.1159 21.9885 14.4159 20.2701 14.1743C17.1981 13.7423 15.6645 15.9575 15.8229 18.7175C15.9573 21.0871 16.6389 23.3527 17.8677 25.5143C20.0757 29.3951 24.1605 33.4271 28.9245 33.1319Z" fill="#1C1B17"/>
</g>
<defs>
<clipPath id="clip0_10960_48969">
<rect width="48" height="48" rx="4" fill="white"/>
</clipPath>
</defs>
</svg>
