<svg width="40" height="40" viewBox="0 0 40 40" fill="none" xmlns="http://www.w3.org/2000/svg">
<rect x="0.5" y="0.5" width="39" height="39" rx="3.5" fill="#FAFAFA"/>
<rect x="0.5" y="0.5" width="39" height="39" rx="3.5" stroke="#E6E6E6"/>
<rect x="7" y="7" width="26" height="26" rx="4" fill="#F1F252"/>
<path d="M25.6167 25.1025C25.6439 25.0699 25.6431 25.0382 25.6143 25.0073L19.8495 18.6936C19.8475 18.6914 19.846 18.6888 19.8451 18.6861C19.8442 18.6833 19.844 18.6803 19.8444 18.6774C19.8447 18.6745 19.8458 18.6717 19.8473 18.6693C19.8489 18.6668 19.851 18.6647 19.8535 18.6632C19.8647 18.6557 19.8769 18.652 19.8903 18.652C22.4981 18.6514 25.1334 18.6517 27.7962 18.6528C27.8143 18.6528 27.825 18.6616 27.8282 18.6792C28.1034 20.1247 28.048 21.5044 27.6618 22.8181C26.9641 25.1945 25.3622 27.1476 23.1019 28.1485C20.6816 29.2207 17.9868 28.9502 15.8001 27.5412C12.5532 25.4481 11.2306 21.2555 12.4444 17.6222C13.4958 14.4738 16.2433 12.2895 19.563 12.0334C20.6656 11.9481 21.8087 12.0262 22.9923 12.2678C23.0419 12.2785 23.0777 12.3057 23.0995 12.3495C24.0618 14.3119 25.0435 16.3116 26.0447 18.3487C26.0794 18.4186 26.0631 18.4338 25.9959 18.3943C24.7083 17.6305 23.4132 16.8597 22.1106 16.082C21.351 15.6286 20.5952 15.2264 19.8431 14.8754C18.4885 14.2425 16.2802 13.52 15.2536 15.1179C14.7103 15.9652 14.7407 16.9869 14.8768 17.9495C14.9146 18.2167 14.9656 18.4735 15.0296 18.72C15.4952 20.4973 16.3791 22.106 17.6812 23.5463C18.5773 24.5384 19.7166 25.4129 20.9736 25.8666C22.0244 26.2458 23.0894 26.2933 24.1685 26.009C24.7542 25.8543 25.2369 25.5521 25.6167 25.1025Z" fill="#1C1B18"/>
</svg>
