<svg
  width="40"
  height="40"
  viewBox="0 0 40 40"
  fill="none"
  xmlns="http://www.w3.org/2000/svg"
>
  <rect x="0.5" y="0.5" width="39" height="39" rx="3.5" fill="#FAFAFA" />
  <rect x="0.5" y="0.5" width="39" height="39" rx="3.5" stroke="#E6E6E6" />
  <g clip-path="url(#clip0_1025_614)">
    <rect width="28" height="28" transform="translate(6 6)" fill="#FFD495" />
    <path
      d="M19.9534 17.3944C19.9412 17.45 19.9549 17.4572 19.9945 17.416C20.8627 16.5094 21.833 16.07 22.9053 16.0978C25.5967 16.1658 25.8815 18.4206 25.4322 20.5656C25.2372 21.497 25.0159 22.4892 24.7681 23.5421C24.5807 24.3365 24.4269 25.5713 24.8549 26.31C25.3454 27.1584 26.1709 26.9143 26.7802 26.4105C27.2361 26.0323 27.6773 25.493 28.1038 24.7924C28.1495 24.7182 28.1662 24.7244 28.154 24.8109C28.0616 25.4528 27.8509 26.0653 27.5219 26.6485C26.6202 28.2475 25.3423 29.031 23.6882 28.9991C21.1278 28.9512 20.648 26.8185 21.108 24.7105C21.372 23.4999 21.6431 22.245 21.9213 20.9458C22.0615 20.2926 22.0843 19.6945 21.9899 19.1516C21.8726 18.487 21.274 18.3062 20.7165 18.5411C19.827 18.9166 19.3959 19.9505 19.2162 20.8515C18.9268 22.2981 18.546 24.0212 18.0738 26.021C17.8748 26.8617 17.5844 27.5603 17.2026 28.1166C16.1273 29.6852 14.301 28.6328 13.0231 28.0981C13.0165 28.0952 13.0108 28.0905 13.0068 28.0845C13.0027 28.0786 13.0004 28.0715 13 28.0643C12.9997 28.057 13.0014 28.0498 13.005 28.0435C13.0085 28.0372 13.0137 28.032 13.02 28.0285C14.1502 27.4845 14.5021 26.0596 14.7976 24.8588C15.7886 20.8304 16.7182 16.4666 17.5864 11.7675C17.595 11.7229 17.6166 11.682 17.6485 11.6503C17.6803 11.6185 17.7208 11.5974 17.7647 11.5897L21.306 11.0009C21.3164 10.9991 21.3271 11 21.3371 11.0034C21.3471 11.0068 21.3561 11.0126 21.3634 11.0204C21.3706 11.0282 21.3759 11.0377 21.3786 11.0481C21.3813 11.0584 21.3815 11.0693 21.3791 11.0798L19.9534 17.3944Z"
      fill="#815BEF"
    />
  </g>
  <defs>
    <clipPath id="clip0_1025_614">
      <rect x="7" y="7" width="26" height="26" rx="4" fill="white" />
    </clipPath>
  </defs>
</svg>
