<svg width="40" height="40" viewBox="0 0 40 40" fill="none" xmlns="http://www.w3.org/2000/svg">
<rect x="0.5" y="0.5" width="39" height="39" rx="3.5" fill="#FAFAFA"/>
<rect x="0.5" y="0.5" width="39" height="39" rx="3.5" stroke="#E6E6E6"/>
<g clip-path="url(#clip0_993_704)">
<path fill-rule="evenodd" clip-rule="evenodd" d="M9.98056 29.0379L11.1177 23.3058H12.9829L11.8458 29.0379H9.98056ZM15.5981 27.1727H16.7831L16.4649 25.0573L15.5986 27.1727H15.5981ZM12.9824 29.0379L15.8031 23.3058H17.6463L18.783 29.0379H17.0771L16.9634 28.3576H15.1439L14.8481 29.0401L12.9824 29.0379ZM20.4871 29.0379L21.1455 24.7369H19.5111L19.7841 23.2812H24.7872L24.5142 24.7369H22.9685L22.3313 29.0379H20.4871ZM26.7441 27.1727H27.9291L27.6333 25.0573L26.7441 27.1727ZM24.1513 29.0379L26.9487 23.3058H28.7919L29.9514 29.0379H28.1999L28.1314 28.3576H26.2882L25.9928 29.0401L24.1513 29.0379ZM34 16.8232H25.2665C24.9483 18.4382 23.8335 19.7803 21.6045 20.7129C21.8547 21.4862 22.7188 22.1915 23.6062 22.1915H28.3592C29.0868 22.1915 29.6556 21.577 29.8829 21.0767H25.0611C24.7653 21.0328 24.7653 20.8038 25.0382 20.7581H29.7921C30.4065 20.7581 30.952 20.235 31.2707 19.6666H25.7659C25.4705 19.6227 25.4705 19.3937 25.7659 19.348H31.3159C31.8864 19.348 32.385 18.6897 32.5886 18.2561H26.4953C26.1995 18.2122 26.1995 17.9379 26.4953 17.9151H32.7036C33.2039 17.9151 33.659 17.392 34 16.8232ZM6 16.8232H14.7335C15.0517 18.4382 16.1665 19.7803 18.3955 20.7129C18.1453 21.4862 17.2812 22.1915 16.3938 22.1915H11.6408C10.9132 22.1915 10.3444 21.577 10.1171 21.0767H14.9389C15.2347 21.0328 15.2347 20.8038 14.9618 20.7581H10.2079C9.59348 20.7581 9.04796 20.235 8.72934 19.6666H14.2341C14.5295 19.6227 14.5295 19.3937 14.2341 19.348H8.68414C8.11361 19.348 7.61505 18.6897 7.41141 18.2561H13.5047C13.8005 18.2122 13.8005 17.9379 13.5047 17.9151H7.29643C6.79611 17.9151 6.341 17.392 6 16.8232ZM17.168 12.0013C17.4866 12.2743 17.8504 12.5244 18.2371 12.6837C18.5557 12.0254 19.0332 11.4782 19.5563 11.0002C18.6778 11.0868 17.8457 11.4356 17.168 12.0013ZM15.6214 15.2081H17.5774C17.6003 14.3896 17.7824 13.6844 18.1006 12.9563C17.6728 12.7716 17.2738 12.5266 16.9156 12.2286C16.1212 13.0214 15.6578 14.0865 15.6192 15.2081H15.6214ZM19.8521 13.3649V15.2081H17.896C17.916 14.469 18.0862 13.7416 18.3964 13.0704C18.8618 13.2491 19.3538 13.3489 19.8521 13.3658V13.3649ZM22.832 12.0004C22.5134 12.2734 22.1496 12.5236 21.7629 12.6829C21.4215 12.0246 20.9897 11.4979 20.4437 10.9994C21.3222 11.086 22.1543 11.4348 22.832 12.0004ZM24.3786 15.2073H22.4226C22.3997 14.4111 22.2176 13.6835 21.9218 12.9554C22.339 12.765 22.7292 12.5204 23.0822 12.2278C23.9007 13.0695 24.333 14.093 24.3786 15.2073ZM20.1707 13.364V15.2073H22.1039C22.1039 14.4568 21.9218 13.7515 21.6036 13.0695C21.1454 13.2459 20.6613 13.3457 20.1707 13.3649V13.364ZM17.168 18.7112C17.4866 18.4611 17.8504 18.1881 18.2371 18.0529C18.5652 18.6931 19.013 19.2644 19.5563 19.736C18.6693 19.6223 17.8504 19.3037 17.168 18.7125V18.7112ZM15.6214 15.5268H17.5774C17.6003 16.3229 17.7824 17.0281 18.1006 17.7786C17.673 17.9636 17.274 18.2086 16.9156 18.5063C16.13 17.7075 15.6682 16.646 15.6192 15.5268H15.6214ZM19.8521 17.37V15.5268H17.896C17.9189 16.2544 18.0782 17.0053 18.3964 17.6421C18.8515 17.4828 19.3518 17.3691 19.8521 17.3691V17.37ZM22.832 18.7121C22.5104 18.4407 22.1501 18.2188 21.7629 18.0538C21.4348 18.694 20.987 19.2653 20.4437 19.7369C21.3307 19.6232 22.1496 19.3046 22.832 18.7134V18.7121ZM24.3786 15.5276H22.4226C22.4056 16.3043 22.2354 17.07 21.9218 17.7808C22.3388 17.9715 22.7289 18.2161 23.0822 18.5085C23.864 17.7071 24.3252 16.6472 24.3786 15.529V15.5276ZM20.1707 17.3709V15.5276H22.1039C22.0976 16.2613 21.9266 16.9842 21.6036 17.643C21.1713 17.4837 20.6482 17.37 20.1707 17.37V17.3709ZM19.8521 11.1828C19.329 11.5923 18.8515 12.1834 18.5329 12.7979C18.9651 12.9343 19.3974 13.048 19.8521 13.048V11.1828ZM20.1707 11.1828C20.704 11.6315 21.1444 12.1801 21.4671 12.7979C21.0532 12.9571 20.6142 13.0418 20.1707 13.048V11.1828ZM19.8521 19.5534C19.329 19.1439 18.8515 18.5523 18.5329 17.9384C18.9541 17.7767 19.4009 17.692 19.8521 17.6882V19.5534ZM20.1707 19.5758C20.6994 19.1139 21.1388 18.5589 21.4671 17.9384C21.0349 17.8019 20.6026 17.6882 20.1707 17.6882V19.5753V19.5758Z" fill="#2C4AFF"/>
</g>
<defs>
<clipPath id="clip0_993_704">
<rect width="28" height="18.0372" fill="white" transform="translate(6 11)"/>
</clipPath>
</defs>
</svg>
