<svg width="40" height="40" viewBox="0 0 40 40" fill="none" xmlns="http://www.w3.org/2000/svg">
<rect x="0.5" y="0.5" width="39" height="39" rx="3.5" fill="#FAFAFA"/>
<rect x="0.5" y="0.5" width="39" height="39" rx="3.5" stroke="#E6E6E6"/>
<g clip-path="url(#clip0_1274_640)">
<path d="M18.4964 8.50755C17.8342 8.5233 17.3484 8.54658 16.4577 8.60149C16.0458 8.62607 15.5961 8.66226 15.2795 8.69394C15.2 8.70258 15.0337 8.71851 14.9108 8.73013C14.3947 8.78077 13.6284 8.87749 13.306 8.93245C13.238 8.94407 13.1382 8.96 13.082 8.96864C13.027 8.97594 12.9286 8.99317 12.865 9.00483C12.8015 9.01645 12.6944 9.03671 12.6266 9.04813C12.3879 9.08864 11.9817 9.17111 11.7518 9.22607C11.6881 9.242 11.5739 9.26936 11.4987 9.28683C11.4235 9.30407 11.3557 9.32 11.3471 9.32149C10.9233 9.42258 10.5026 9.62658 10.1787 9.89111C9.86353 10.147 9.58172 10.5605 9.43998 10.9711C9.41694 11.0347 9.39366 11.0997 9.38655 11.1157C9.36198 11.1706 9.25494 11.6332 9.17823 12.0121C9.16681 12.0757 9.14655 12.1696 9.13494 12.2217C9.12327 12.2737 9.10758 12.3648 9.0974 12.4241C9.08862 12.4833 9.07715 12.5557 9.06985 12.583C9.04811 12.6656 8.95998 13.2294 8.90353 13.6385C8.84862 14.0347 8.81243 14.3225 8.78075 14.6144C8.76481 14.7575 8.74887 14.8977 8.74604 14.9253C8.74172 14.9527 8.72862 15.093 8.71566 15.2362C8.70404 15.3792 8.68681 15.5542 8.67798 15.6266C8.64759 15.8924 8.57238 17.0506 8.53494 17.8676C8.50604 18.4732 8.48727 19.7701 8.4974 20.4772C8.50753 21.359 8.52908 22.1471 8.54934 22.4217C8.55668 22.533 8.57108 22.7673 8.57972 22.9423C8.58836 23.1172 8.59998 23.3412 8.60727 23.441C8.64049 23.9412 8.66655 24.2694 8.67947 24.3734C8.68681 24.4372 8.70404 24.6063 8.71566 24.7479C8.72727 24.8896 8.74455 25.0588 8.75185 25.1238C8.76049 25.1889 8.77643 25.3291 8.78785 25.4362C8.82404 25.7788 8.85159 26.0028 8.87468 26.1519C8.8863 26.2314 8.90655 26.3673 8.91798 26.4554C8.95998 26.7734 9.00908 27.0828 9.06255 27.3663C9.07417 27.4299 9.09294 27.537 9.10604 27.6048C9.13062 27.7494 9.18702 28.0372 9.22753 28.2192C9.36625 28.857 9.42702 29.0476 9.59036 29.3615C9.63515 29.4481 9.69294 29.5494 9.719 29.5856C9.74353 29.6217 9.77972 29.6737 9.79849 29.7012C9.88095 29.8241 10.1167 30.0641 10.2468 30.1567C10.2684 30.1724 10.3104 30.2028 10.3377 30.2246C10.3668 30.2476 10.3942 30.265 10.4015 30.265C10.4073 30.265 10.4217 30.2752 10.4331 30.2868C10.4896 30.3417 10.8873 30.5312 11.0577 30.5817C11.0896 30.5919 11.1286 30.6048 11.1446 30.6121C11.1822 30.6294 11.3946 30.6828 11.6506 30.7408C11.762 30.7668 11.8762 30.7942 11.9036 30.8015C11.9701 30.8188 12.3893 30.9026 12.706 30.9605C12.8881 30.9937 13.2425 31.0501 13.465 31.082C13.5489 31.0934 13.6559 31.1094 13.7036 31.118C13.8785 31.1484 14.6015 31.2324 15.0554 31.2757C15.2187 31.2916 15.4197 31.3104 15.5035 31.319C15.6395 31.3334 15.7782 31.345 16.4433 31.3927C16.543 31.4 16.7701 31.413 16.9493 31.4217C17.1286 31.4304 17.3787 31.4433 17.506 31.4506C18.5354 31.5099 21.479 31.5099 22.4939 31.4506C22.6212 31.442 22.8713 31.4304 23.0506 31.4217C23.3585 31.4073 23.4713 31.4 23.9542 31.3638C24.5729 31.3162 25.4825 31.2279 25.7904 31.1846C25.8785 31.1716 26.0304 31.1514 26.1301 31.1383C26.4987 31.0906 27.0048 31.0139 27.2939 30.9605C27.6106 30.9026 28.0299 30.8188 28.0964 30.8015C28.1238 30.7942 28.238 30.7668 28.3494 30.7408C28.5995 30.6843 28.8164 30.6294 28.8554 30.6121C28.9034 30.5948 28.9516 30.5779 29 30.5615C29.1185 30.5225 29.5119 30.3359 29.545 30.3041C29.5551 30.2939 29.584 30.2724 29.6086 30.2577C29.7215 30.187 29.7734 30.1466 29.8762 30.0539C29.9918 29.9483 30.1524 29.775 30.1913 29.7157C30.2043 29.6954 30.239 29.6463 30.2678 29.6073C30.2982 29.5668 30.3228 29.5306 30.3228 29.5248C30.3228 29.519 30.346 29.4785 30.3734 29.4352C30.401 29.3919 30.4342 29.3281 30.4473 29.2934C30.4617 29.2603 30.4761 29.2241 30.482 29.217C30.5093 29.1808 30.6106 28.893 30.6539 28.7296C30.722 28.4767 30.8491 27.8795 30.8954 27.5975C30.907 27.5253 30.92 27.4574 30.9243 27.4458C30.9374 27.4139 31.0169 26.918 31.0891 26.4121C31.105 26.3008 31.121 26.1894 31.1253 26.1663C31.1369 26.0997 31.1889 25.6559 31.2121 25.4217C31.2235 25.3061 31.2395 25.173 31.2481 25.1253C31.2569 25.0775 31.2727 24.9215 31.2843 24.7783C31.2959 24.6352 31.3118 24.4588 31.319 24.3879C31.3276 24.3157 31.3407 24.1509 31.3493 24.0192C31.358 23.8876 31.3711 23.7258 31.3782 23.6578C31.387 23.5899 31.4028 23.3397 31.4144 23.1012C31.4275 22.8626 31.442 22.5691 31.4506 22.4506C31.5157 21.3995 31.5157 18.641 31.4506 17.5567C31.4433 17.4337 31.4304 17.1924 31.4217 17.0217C31.4129 16.8511 31.4 16.6256 31.3927 16.5228C31.384 16.4188 31.3653 16.1628 31.3493 15.9519C31.3334 15.7408 31.3175 15.5426 31.3131 15.5109C31.3088 15.479 31.2959 15.3388 31.2843 15.2C31.2727 15.0613 31.2597 14.9311 31.2554 14.9109C31.2511 14.8906 31.2351 14.7575 31.2192 14.6144C31.1818 14.2688 31.1354 13.8873 31.1253 13.8425C31.121 13.8223 31.105 13.7066 31.0891 13.5879C31.0182 13.0473 30.8868 12.2939 30.7739 11.7808C30.758 11.7084 30.7321 11.5914 30.7162 11.5205C30.6757 11.3354 30.6278 11.1489 30.6121 11.1157C30.6048 11.0997 30.5919 11.0608 30.5817 11.0289C30.5499 10.922 30.3893 10.5648 30.3489 10.5084C30.343 10.4997 30.2969 10.4319 30.2476 10.3567C30.145 10.202 29.882 9.9273 29.7243 9.81162C29.4121 9.58175 29.065 9.42555 28.6169 9.31568C28.5397 9.29681 28.4626 9.27749 28.3856 9.25775C28.3321 9.242 28.225 9.21877 27.9951 9.17111C27.93 9.15745 27.865 9.14345 27.8 9.12911C27.521 9.06123 26.6129 8.91368 26.0217 8.83851C25.903 8.82407 25.786 8.80813 25.7615 8.80251C25.718 8.79368 25.5084 8.77213 25.082 8.73013C24.9633 8.71851 24.8 8.70123 24.7205 8.69394C24.641 8.6853 24.4978 8.67234 24.4025 8.66355C24.307 8.65645 24.1509 8.6433 24.0555 8.63619C23.7316 8.60864 22.8324 8.55671 22.3349 8.53491C21.3734 8.49296 19.598 8.48 18.4964 8.50755ZM12.1263 18.2767C12.1349 18.2838 12.1769 18.297 12.2187 18.307C12.2969 18.3258 12.4068 18.3765 12.4891 18.4314C12.5542 18.4747 12.7075 18.6395 12.7377 18.6974C12.7524 18.7263 12.7681 18.7524 12.7724 18.7567C12.7769 18.761 12.7898 18.7899 12.8015 18.8217C12.8116 18.8534 12.8245 18.8868 12.8319 18.8939C12.8506 18.9215 12.8724 19.0934 12.8724 19.2208C12.8724 19.3451 12.8534 19.4911 12.8289 19.5446C12.7509 19.7238 12.7132 19.783 12.6149 19.8873C12.5238 19.9812 12.4863 20.0101 12.362 20.0709C12.2607 20.1215 12.1884 20.1476 12.1306 20.1532C12.0843 20.159 12.0438 20.1691 12.0395 20.175C12.0294 20.1924 11.7157 20.1924 11.7157 20.175C11.7157 20.1691 11.6795 20.159 11.6331 20.1532C11.5884 20.1476 11.5321 20.1344 11.5075 20.1243C11.4762 20.1102 11.4444 20.0972 11.4121 20.0853C11.3846 20.0752 11.3585 20.0636 11.3542 20.0592C11.3498 20.0535 11.3281 20.0405 11.3035 20.0289C11.2197 19.987 11.0463 19.7947 10.9957 19.6891C10.9681 19.6327 10.9422 19.5777 10.9349 19.5663C10.8858 19.4679 10.8771 19.0197 10.9233 18.9157C10.9364 18.8881 10.9551 18.842 10.9653 18.8144C10.9754 18.787 10.987 18.761 10.9913 18.7567C10.9957 18.7524 11.0129 18.7233 11.0289 18.6916C11.0564 18.638 11.2284 18.453 11.2529 18.453C11.2587 18.453 11.2719 18.4428 11.282 18.4299C11.3093 18.3995 11.4496 18.3316 11.5349 18.3099C11.5754 18.2997 11.6202 18.2853 11.6362 18.278C11.6521 18.2709 11.6911 18.2636 11.7228 18.2593C11.8081 18.2506 12.1075 18.2636 12.1263 18.2767ZM27.8795 19.2843V20.0144H25.0747V19.0372L25.2309 19.0125C25.5764 18.959 25.7918 18.9228 25.8048 18.9142C25.8134 18.9084 25.8843 18.8969 25.9638 18.8868C26.0433 18.8767 26.1157 18.8636 26.1228 18.8577C26.1316 18.8521 26.1995 18.839 26.2747 18.8289C26.3498 18.8203 26.4481 18.8028 26.4916 18.7914C26.5349 18.7813 26.626 18.7653 26.6939 18.7567C26.762 18.7479 26.8298 18.735 26.8458 18.7291C26.8617 18.722 26.9339 18.7089 27.0048 18.6988C27.0771 18.6901 27.158 18.6772 27.1855 18.6684C27.2129 18.6612 27.3171 18.641 27.4169 18.625C27.5167 18.6091 27.6468 18.5876 27.706 18.5774C27.7653 18.5658 27.8289 18.5572 27.8476 18.5557L27.8795 18.5542V19.2843ZM15.9084 19.9291V20.7952H17.3541V22.082H15.907L15.9127 23.4223C15.9171 24.8666 15.9141 24.7957 15.9924 24.9734C16.0516 25.1109 16.2192 25.2511 16.3638 25.2858C16.3884 25.2916 16.4159 25.3031 16.4275 25.3119C16.4549 25.3335 17.0405 25.3335 17.0666 25.3104C17.078 25.3017 17.1301 25.2901 17.185 25.2843L17.282 25.2742V26.5423L17.2428 26.5595C17.2068 26.5754 17.0405 26.6015 16.8121 26.6289C16.4868 26.6666 15.8939 26.6709 15.8592 26.6347C15.8506 26.6276 15.8275 26.6217 15.8058 26.6217C15.7493 26.6217 15.5151 26.5783 15.4977 26.5653C15.4891 26.5595 15.4501 26.545 15.4096 26.5364C15.3706 26.5263 15.3316 26.5132 15.3228 26.5076C15.3157 26.5003 15.2825 26.4873 15.2506 26.4772C15.2187 26.4671 15.1899 26.4539 15.1855 26.4496C15.1812 26.4453 15.1551 26.4294 15.1276 26.4134C15.0076 26.3499 14.9716 26.3268 14.9079 26.2732C14.8704 26.2428 14.8357 26.217 14.8284 26.217C14.8139 26.2154 14.704 26.0954 14.6174 25.9856C14.5509 25.9003 14.4524 25.737 14.4192 25.653C14.4076 25.6256 14.3947 25.5995 14.3904 25.5952C14.3846 25.5909 14.3701 25.5461 14.3557 25.4939C14.3426 25.442 14.3253 25.387 14.318 25.3711C14.3109 25.3552 14.2934 25.2901 14.282 25.2266C14.2697 25.1662 14.2567 25.1059 14.2428 25.0458C14.2327 25.0025 14.2255 24.4934 14.2212 23.5306L14.2154 22.082H13.3782V20.7952H14.2169V19.3377L14.3151 19.3277C14.3686 19.322 14.4192 19.3119 14.4265 19.3061C14.4351 19.3003 14.506 19.2873 14.5855 19.2772C14.665 19.2671 14.7374 19.2525 14.7446 19.2468C14.7532 19.241 14.8443 19.225 14.947 19.2121C15.0511 19.1975 15.1422 19.1817 15.1493 19.1759C15.158 19.1701 15.2058 19.16 15.2577 19.1557C15.3257 19.1475 15.3932 19.1365 15.4602 19.1225C15.6149 19.0906 15.8853 19.0486 15.8982 19.0559C15.904 19.0588 15.9084 19.4521 15.9084 19.9291ZM20.7012 20.6577C20.9035 20.6694 21.1321 20.6954 21.1493 20.7084C21.158 20.7141 21.1927 20.7243 21.2289 20.7286C21.3113 20.7417 21.5124 20.801 21.6337 20.8501C21.7349 20.8906 21.9605 21.0033 21.9951 21.0324C22.0068 21.041 22.0327 21.0583 22.0529 21.067C22.0731 21.0772 22.1369 21.1276 22.1931 21.177C22.2496 21.2276 22.3017 21.2709 22.3088 21.2737C22.3306 21.2838 22.5878 21.5962 22.5878 21.6134C22.5878 21.6177 22.601 21.641 22.6169 21.6626C22.6473 21.7061 22.7759 21.9562 22.7759 21.9721C22.7759 21.9777 22.7875 22.0096 22.8033 22.0428C22.8177 22.0762 22.8351 22.1268 22.841 22.1542C22.8468 22.1817 22.8569 22.2106 22.8626 22.2192C22.8683 22.2266 22.8815 22.2727 22.8916 22.3205C22.9002 22.3681 22.9118 22.4175 22.9162 22.4289C22.922 22.4405 22.9349 22.5026 22.9466 22.5663C22.9638 22.6617 22.9681 23.0217 22.9739 24.615L22.9797 26.5494H21.4024L21.401 26.3788C21.3995 26.2863 21.3951 26.1519 21.3893 26.081L21.3807 25.9509L21.3387 26.0086C21.2724 26.097 21.0539 26.305 20.9673 26.3628C20.7777 26.4873 20.7273 26.5175 20.6751 26.535C20.6433 26.5436 20.6015 26.561 20.5812 26.5724C20.5595 26.5826 20.506 26.6 20.4626 26.6086C20.4192 26.6187 20.3759 26.6319 20.3686 26.6375C20.2949 26.6925 19.384 26.6911 19.3131 26.6362C19.306 26.6304 19.2539 26.6175 19.1975 26.6073C19.1426 26.5972 19.0775 26.5812 19.0529 26.5696C19.0299 26.5595 18.9676 26.5334 18.9171 26.5132C18.859 26.4879 18.8021 26.4599 18.7466 26.4294C18.7081 26.4056 18.669 26.383 18.6293 26.3615C18.5686 26.3281 18.5484 26.3094 18.3836 26.1445C18.2144 25.9754 18.1927 25.9524 18.1927 25.9365C18.1927 25.9306 18.1739 25.8988 18.1524 25.8656C18.1291 25.8324 18.0959 25.7716 18.0784 25.7325C18.0612 25.6921 18.038 25.6443 18.0279 25.6241C18.0164 25.6038 18.0005 25.5519 17.9904 25.5084C17.9802 25.465 17.9673 25.4217 17.9615 25.4144C17.9455 25.3942 17.918 25.1889 17.918 25.0992C17.918 25.0575 17.9109 25.0154 17.9022 25.0068C17.8848 24.9894 17.8891 24.9316 17.9339 24.583C17.9426 24.5152 17.9557 24.453 17.9615 24.4458C17.9673 24.4372 17.9802 24.3995 17.9888 24.3605C18.0076 24.2853 18.0468 24.187 18.0873 24.1132C18.1002 24.0886 18.1175 24.0554 18.1263 24.038C18.1349 24.0193 18.1466 24.0048 18.1537 24.0048C18.1595 24.0048 18.1638 23.9962 18.1638 23.9861C18.1638 23.9701 18.3228 23.7633 18.3504 23.7446C18.3561 23.7403 18.3663 23.7259 18.3706 23.7114C18.3764 23.6954 18.3937 23.681 18.4096 23.6767C18.4255 23.6724 18.4385 23.6636 18.4385 23.6577C18.4385 23.6433 18.6815 23.4525 18.7638 23.4048C18.823 23.3686 18.9562 23.3008 19.1499 23.2081C19.1774 23.1937 19.4476 23.107 19.5663 23.0737C19.6096 23.0608 19.6949 23.0433 19.7542 23.0347C19.8134 23.0246 19.8699 23.013 19.8771 23.0073C19.8858 23.0015 19.9724 22.9884 20.0724 22.9797C20.1721 22.9711 20.2949 22.9567 20.347 22.9494C20.5524 22.919 21.2737 22.9248 21.3504 22.9567C21.3764 22.9681 21.3777 22.9625 21.3676 22.8395C21.362 22.7686 21.3518 22.7079 21.346 22.7036C21.3387 22.6992 21.3301 22.6719 21.3243 22.6428C21.3142 22.5894 21.2592 22.4724 21.2073 22.3927C21.1739 22.3423 21.0337 22.1975 21.0177 22.1975C21.0121 22.1975 20.9875 22.1831 20.9628 22.1643C20.8992 22.118 20.7967 22.0719 20.7344 22.0603C20.704 22.0545 20.6795 22.0443 20.6795 22.0385C20.6795 21.975 19.7455 21.9648 19.4651 22.027C19.4289 22.0342 19.3451 22.0501 19.2771 22.0617C19.2091 22.0732 19.1412 22.0891 19.1253 22.0964C19.1093 22.1036 19.0574 22.1167 19.0096 22.1253C18.962 22.1339 18.9099 22.147 18.8939 22.1542C18.878 22.1615 18.8202 22.1774 18.7653 22.1904C18.7104 22.2033 18.6582 22.2177 18.6496 22.225C18.641 22.2309 18.602 22.2453 18.5615 22.2554C18.5225 22.2656 18.482 22.28 18.4747 22.2858C18.466 22.2916 18.427 22.3045 18.3879 22.3147C18.3475 22.3233 18.2911 22.3436 18.2622 22.358C18.2319 22.3739 18.2043 22.3856 18.2 22.3856C18.1957 22.3856 18.1927 22.0833 18.1927 21.7147C18.1927 21.1927 18.1971 21.041 18.2116 21.0294C18.2217 21.0207 18.2622 21.0063 18.3012 20.9962C18.3417 20.9876 18.3807 20.9745 18.3879 20.9686C18.3967 20.9628 18.4443 20.9456 18.4964 20.9325C18.5484 20.918 18.5975 20.9022 18.6048 20.8965C18.6135 20.8891 18.6582 20.8775 18.7046 20.8676C18.7524 20.8575 18.8015 20.8443 18.8129 20.8372C18.826 20.8314 18.8853 20.8154 18.9446 20.8025C18.9906 20.7935 19.0364 20.7834 19.082 20.7721C19.0977 20.7676 19.1787 20.7547 19.2626 20.743C19.3466 20.7316 19.4347 20.7157 19.4577 20.7084C19.5417 20.6825 20.2992 20.6347 20.4699 20.6448C20.5175 20.6476 20.6217 20.6535 20.7012 20.6578V20.6577ZM12.7276 23.6724V26.5494H11.0362V20.7952H12.7276V23.6724ZM25.5084 22.5879C25.5084 24.2997 25.5157 24.6309 25.5504 24.6772C25.5575 24.6843 25.5663 24.7132 25.5721 24.7408C25.5924 24.8491 25.6863 25.0068 25.7931 25.1137C25.8496 25.1716 25.9131 25.2222 25.9334 25.2279C25.9551 25.2324 25.9711 25.241 25.9711 25.2468C25.9711 25.2524 26.0217 25.2727 26.0838 25.2929C26.1764 25.322 26.2255 25.3276 26.3701 25.3276C26.4714 25.3276 26.5595 25.3205 26.5797 25.3119C26.5984 25.3018 26.6433 25.2873 26.6795 25.2772C26.7157 25.2671 26.7807 25.2367 26.824 25.2076C26.905 25.1557 27.0554 25.017 27.0554 24.9937C27.0554 24.9866 27.0757 24.9547 27.0987 24.9243C27.1233 24.8925 27.1422 24.8608 27.1422 24.8521C27.1422 24.8433 27.1552 24.813 27.1696 24.7841C27.1855 24.7552 27.2028 24.7061 27.2086 24.6757C27.2129 24.6438 27.223 24.6121 27.2304 24.6048C27.2666 24.5585 27.2724 24.2666 27.2724 22.5706V20.7952H28.9638V26.5494H28.1629C27.5369 26.5494 27.3575 26.5451 27.3489 26.5306C27.3431 26.522 27.336 26.3846 27.333 26.227C27.3301 26.0709 27.3229 25.9423 27.3172 25.9423C27.3114 25.9423 27.294 25.9595 27.2767 25.9812C27.1957 26.0912 27.0684 26.2155 26.8689 26.3803C26.84 26.4033 26.7808 26.4352 26.6507 26.4988C26.5914 26.5276 26.5263 26.561 26.5061 26.5711C26.4858 26.5812 26.4309 26.5972 26.3831 26.6073C26.3354 26.6174 26.2934 26.6303 26.2891 26.6362C26.2747 26.6578 26.0188 26.6795 25.7658 26.6795C25.5172 26.6795 25.3147 26.6622 25.2555 26.6375C25.2395 26.6304 25.1846 26.613 25.1325 26.6C25.0805 26.587 25.0327 26.5696 25.0241 26.5638C25.017 26.558 24.9823 26.5436 24.9489 26.5334C24.9142 26.5248 24.8869 26.5119 24.8869 26.5061C24.8869 26.5003 24.8608 26.4873 24.8289 26.4772C24.7972 26.4671 24.7711 26.4539 24.7711 26.4481C24.7711 26.4425 24.7552 26.4308 24.7365 26.4222C24.6122 26.3658 24.3302 26.1012 24.2116 25.9306C24.1393 25.8266 24.0279 25.6183 24.0049 25.5417C23.9962 25.5114 23.9788 25.4666 23.9687 25.4433C23.9585 25.4188 23.9413 25.3668 23.9325 25.3277C23.9238 25.2873 23.9109 25.2453 23.9036 25.2309C23.8965 25.2177 23.8833 25.1499 23.8747 25.079C23.8661 25.0096 23.8502 24.9388 23.8415 24.9228C23.8284 24.9012 23.8226 24.385 23.8198 22.8438L23.8155 20.7952H25.5084L25.5084 22.5879Z" fill="#FF6200"/>
<path d="M20.5132 23.9919C20.4425 23.999 20.3701 24.0106 20.3542 24.0178C20.3383 24.0266 20.2863 24.0395 20.2385 24.0496C20.1924 24.0582 20.1301 24.0757 20.1013 24.0886C19.8843 24.1826 19.7788 24.2448 19.7066 24.32C19.6372 24.3924 19.5676 24.5268 19.5562 24.6106C19.5532 24.6395 19.5431 24.6772 19.5345 24.6929C19.5185 24.7263 19.5243 24.8289 19.5504 24.9633C19.5793 25.1093 19.695 25.2873 19.7975 25.3408C19.9798 25.4347 20.0145 25.4491 20.1157 25.4651C20.2978 25.4924 20.6449 25.4767 20.72 25.4362C20.733 25.4289 20.7866 25.4043 20.8385 25.3812C20.8907 25.3567 20.9585 25.3175 20.9904 25.2929C21.0223 25.2684 21.0583 25.2395 21.0714 25.2293C21.1537 25.1673 21.3056 24.9157 21.3258 24.8116C21.3301 24.7855 21.3418 24.7552 21.3504 24.7435C21.3605 24.7306 21.3677 24.5975 21.3707 24.359L21.3764 23.9946L21.2983 23.9861C21.1927 23.9729 20.6724 23.9774 20.5132 23.9919Z" fill="#FF6200"/>
</g>
<defs>
<clipPath id="clip0_1274_640">
<rect width="24" height="24" fill="white" transform="translate(8 8)"/>
</clipPath>
</defs>
</svg>
