<svg width="24" height="24" viewBox="0 0 24 24" fill="none" xmlns="http://www.w3.org/2000/svg">
<path d="M10.4964 0.507554C9.83417 0.523298 9.34836 0.546578 8.45772 0.60149C8.04579 0.626066 7.59612 0.662258 7.27947 0.693938C7.19998 0.702578 7.03371 0.718514 6.91083 0.73013C6.39468 0.78077 5.62836 0.87749 5.30604 0.93245C5.23798 0.944066 5.13823 0.960002 5.08198 0.968642C5.02702 0.975938 4.92862 0.99317 4.86502 1.00483C4.80147 1.01645 4.69443 1.03671 4.62655 1.04813C4.38785 1.08864 3.98172 1.17111 3.75185 1.22607C3.68811 1.242 3.57391 1.26936 3.49875 1.28683C3.42353 1.30407 3.35571 1.32 3.34707 1.32149C2.92327 1.42258 2.50255 1.62658 2.17875 1.89111C1.86353 2.14704 1.58172 2.56051 1.43998 2.97111C1.41694 3.03471 1.39366 3.09975 1.38655 3.11568C1.36198 3.17064 1.25494 3.63317 1.17823 4.01213C1.16681 4.07568 1.14655 4.16962 1.13494 4.22175C1.12327 4.27368 1.10758 4.36479 1.0974 4.42407C1.08862 4.4833 1.07715 4.55568 1.06985 4.58304C1.04811 4.6656 0.959978 5.22936 0.90353 5.63851C0.848618 6.03471 0.812426 6.32251 0.780746 6.61445C0.76481 6.75749 0.748874 6.89775 0.746042 6.9253C0.741722 6.95266 0.728618 7.09296 0.715658 7.23619C0.704042 7.37923 0.68681 7.55419 0.677978 7.62658C0.647594 7.89245 0.572378 9.05064 0.534938 9.86755C0.506042 10.4732 0.487274 11.7701 0.497402 12.4772C0.50753 13.359 0.529082 14.1471 0.549338 14.4217C0.556682 14.533 0.571082 14.7673 0.579722 14.9423C0.588362 15.1172 0.599978 15.3412 0.607274 15.441C0.64049 15.9412 0.666554 16.2694 0.679466 16.3734C0.68681 16.4372 0.704042 16.6063 0.715658 16.7479C0.727274 16.8896 0.744554 17.0588 0.75185 17.1238C0.76049 17.1889 0.776426 17.3291 0.78785 17.4362C0.824042 17.7788 0.851594 18.0028 0.874682 18.1519C0.886298 18.2314 0.906554 18.3673 0.917978 18.4554C0.959978 18.7734 1.00908 19.0828 1.06255 19.3663C1.07417 19.4299 1.09294 19.537 1.10604 19.6048C1.13062 19.7494 1.18702 20.0372 1.22753 20.2192C1.36625 20.857 1.42702 21.0476 1.59036 21.3615C1.63515 21.4481 1.69294 21.5494 1.719 21.5856C1.74353 21.6217 1.77972 21.6737 1.79849 21.7012C1.88095 21.8241 2.11668 22.0641 2.24681 22.1567C2.26836 22.1724 2.31036 22.2028 2.33772 22.2246C2.36681 22.2476 2.39417 22.265 2.40147 22.265C2.40727 22.265 2.42172 22.2752 2.43315 22.2868C2.48959 22.3417 2.88727 22.5312 3.05772 22.5817C3.08959 22.5919 3.12862 22.6048 3.14455 22.6121C3.18223 22.6294 3.39463 22.6828 3.65062 22.7408C3.76198 22.7668 3.87617 22.7942 3.90358 22.8015C3.97011 22.8188 4.38934 22.9026 4.70604 22.9605C4.88811 22.9937 5.24249 23.0501 5.46502 23.082C5.54887 23.0934 5.65591 23.1094 5.70358 23.118C5.87849 23.1484 6.60147 23.2324 7.0554 23.2757C7.21875 23.2916 7.41972 23.3104 7.50353 23.319C7.63947 23.3334 7.77823 23.345 8.44327 23.3927C8.54302 23.4 8.77011 23.413 8.94934 23.4217C9.12862 23.4304 9.37875 23.4433 9.50604 23.4506C10.5354 23.5099 13.479 23.5099 14.4939 23.4506C14.6212 23.442 14.8713 23.4304 15.0506 23.4217C15.3585 23.4073 15.4713 23.4 15.9542 23.3638C16.5729 23.3162 17.4825 23.2279 17.7904 23.1846C17.8785 23.1716 18.0304 23.1514 18.1301 23.1383C18.4987 23.0906 19.0048 23.0139 19.2939 22.9605C19.6106 22.9026 20.0299 22.8188 20.0964 22.8015C20.1238 22.7942 20.238 22.7668 20.3494 22.7408C20.5995 22.6843 20.8164 22.6294 20.8554 22.6121C20.9034 22.5948 20.9516 22.5779 21 22.5615C21.1185 22.5225 21.5119 22.3359 21.545 22.3041C21.5551 22.2939 21.584 22.2724 21.6086 22.2577C21.7215 22.187 21.7734 22.1466 21.8762 22.0539C21.9918 21.9483 22.1524 21.775 22.1913 21.7157C22.2043 21.6954 22.239 21.6463 22.2678 21.6073C22.2982 21.5668 22.3228 21.5306 22.3228 21.5248C22.3228 21.519 22.346 21.4785 22.3734 21.4352C22.401 21.3919 22.4342 21.3281 22.4473 21.2934C22.4617 21.2603 22.4761 21.2241 22.482 21.217C22.5093 21.1808 22.6106 20.893 22.6539 20.7296C22.722 20.4767 22.8491 19.8795 22.8954 19.5975C22.907 19.5253 22.92 19.4574 22.9243 19.4458C22.9374 19.4139 23.0169 18.918 23.0891 18.4121C23.105 18.3008 23.121 18.1894 23.1253 18.1663C23.1369 18.0997 23.1889 17.6559 23.2121 17.4217C23.2235 17.3061 23.2395 17.173 23.2481 17.1253C23.2569 17.0775 23.2727 16.9215 23.2843 16.7783C23.2959 16.6352 23.3118 16.4588 23.319 16.3879C23.3276 16.3157 23.3407 16.1509 23.3493 16.0192C23.358 15.8876 23.3711 15.7258 23.3782 15.6578C23.387 15.5899 23.4028 15.3397 23.4144 15.1012C23.4275 14.8626 23.442 14.5691 23.4506 14.4506C23.5157 13.3995 23.5157 10.641 23.4506 9.55671C23.4433 9.43368 23.4304 9.19239 23.4217 9.02175C23.4129 8.85111 23.4 8.62555 23.3927 8.52283C23.384 8.41877 23.3653 8.16283 23.3493 7.95187C23.3334 7.74077 23.3175 7.54258 23.3131 7.5109C23.3088 7.47898 23.2959 7.33877 23.2843 7.2C23.2727 7.06128 23.2597 6.93111 23.2554 6.9109C23.2511 6.89064 23.2351 6.75749 23.2192 6.61445C23.1818 6.26885 23.1354 5.8873 23.1253 5.84251C23.121 5.82226 23.105 5.70658 23.0891 5.58787C23.0182 5.0473 22.8868 4.29394 22.7739 3.78077C22.758 3.70839 22.7321 3.59136 22.7162 3.52051C22.6757 3.33543 22.6278 3.1489 22.6121 3.11568C22.6048 3.09975 22.5919 3.06077 22.5817 3.0289C22.5499 2.922 22.3893 2.56483 22.3489 2.50839C22.343 2.49975 22.2969 2.43187 22.2476 2.35671C22.145 2.202 21.882 1.9273 21.7243 1.81162C21.4121 1.58175 21.065 1.42555 20.6169 1.31568C20.5397 1.29681 20.4626 1.27749 20.3856 1.25775C20.3321 1.242 20.225 1.21877 19.9951 1.17111C19.93 1.15745 19.865 1.14345 19.8 1.12911C19.521 1.06123 18.6129 0.913682 18.0217 0.838514C17.903 0.824066 17.786 0.80813 17.7615 0.802514C17.718 0.793682 17.5084 0.77213 17.082 0.73013C16.9633 0.718514 16.8 0.701234 16.7205 0.693938C16.641 0.685298 16.4978 0.672338 16.4025 0.663554C16.307 0.65645 16.1509 0.643298 16.0555 0.636194C15.7316 0.608642 14.8324 0.556706 14.3349 0.534914C13.3734 0.492962 11.598 0.480002 10.4964 0.507554ZM4.1263 10.2767C4.13494 10.2838 4.17694 10.297 4.21875 10.307C4.29694 10.3258 4.40681 10.3765 4.48908 10.4314C4.55417 10.4747 4.70753 10.6395 4.73772 10.6974C4.75236 10.7263 4.76811 10.7524 4.77243 10.7567C4.77694 10.761 4.78985 10.7899 4.80147 10.8217C4.81159 10.8534 4.82451 10.8868 4.83185 10.8939C4.85057 10.9215 4.87236 11.0934 4.87236 11.2208C4.87236 11.3451 4.8534 11.4911 4.82887 11.5446C4.75087 11.7238 4.71319 11.783 4.61494 11.8873C4.52379 11.9812 4.4863 12.0101 4.36198 12.0709C4.2607 12.1215 4.18836 12.1476 4.13062 12.1532C4.0843 12.159 4.04379 12.1691 4.03947 12.175C4.02939 12.1924 3.71566 12.1924 3.71566 12.175C3.71566 12.1691 3.67947 12.159 3.63315 12.1532C3.58836 12.1476 3.53211 12.1344 3.50753 12.1243C3.47618 12.1102 3.44436 12.0972 3.41211 12.0853C3.38455 12.0752 3.35849 12.0636 3.35417 12.0592C3.34985 12.0535 3.32811 12.0405 3.30353 12.0289C3.21972 11.987 3.04625 11.7947 2.99566 11.6891C2.96811 11.6327 2.94223 11.5777 2.93494 11.5663C2.88579 11.4679 2.87715 11.0197 2.92327 10.9157C2.93643 10.8881 2.95515 10.842 2.96527 10.8144C2.9754 10.787 2.98702 10.761 2.99134 10.7567C2.99566 10.7524 3.01294 10.7233 3.02887 10.6916C3.05643 10.638 3.22836 10.453 3.25294 10.453C3.2587 10.453 3.27185 10.4428 3.28198 10.4299C3.30934 10.3995 3.44959 10.3316 3.53494 10.3099C3.5754 10.2997 3.62023 10.2853 3.63617 10.278C3.65211 10.2709 3.69108 10.2636 3.72281 10.2593C3.80811 10.2506 4.10753 10.2636 4.1263 10.2767ZM19.8795 11.2843V12.0144H17.0747V11.0372L17.2309 11.0125C17.5764 10.959 17.7918 10.9228 17.8048 10.9142C17.8134 10.9084 17.8843 10.8969 17.9638 10.8868C18.0433 10.8767 18.1157 10.8636 18.1228 10.8577C18.1316 10.8521 18.1995 10.839 18.2747 10.8289C18.3498 10.8203 18.4481 10.8028 18.4916 10.7914C18.5349 10.7813 18.626 10.7653 18.6939 10.7567C18.762 10.7479 18.8298 10.735 18.8458 10.7291C18.8617 10.722 18.9339 10.7089 19.0048 10.6988C19.0771 10.6901 19.158 10.6772 19.1855 10.6684C19.2129 10.6612 19.3171 10.641 19.4169 10.625C19.5167 10.6091 19.6468 10.5876 19.706 10.5774C19.7653 10.5658 19.8289 10.5572 19.8476 10.5557L19.8795 10.5542V11.2843ZM7.90836 11.9291V12.7952H9.35412V14.082H7.90702L7.91268 15.4223C7.91715 16.8666 7.91412 16.7957 7.99236 16.9734C8.05159 17.1109 8.21921 17.2511 8.36379 17.2858C8.38836 17.2916 8.41591 17.3031 8.42753 17.3119C8.45489 17.3335 9.04049 17.3335 9.06655 17.3104C9.07798 17.3017 9.13011 17.2901 9.18502 17.2843L9.28198 17.2742V18.5423L9.24281 18.5595C9.20681 18.5754 9.04049 18.6015 8.81211 18.6289C8.48681 18.6666 7.89391 18.6709 7.85921 18.6347C7.85057 18.6276 7.82753 18.6217 7.80579 18.6217C7.74934 18.6217 7.51515 18.5783 7.49772 18.5653C7.48908 18.5595 7.45011 18.545 7.40959 18.5364C7.37062 18.5263 7.33159 18.5132 7.32281 18.5076C7.31566 18.5003 7.28249 18.4873 7.25062 18.4772C7.21875 18.4671 7.18985 18.4539 7.18553 18.4496C7.18121 18.4453 7.15515 18.4294 7.12759 18.4134C7.00759 18.3499 6.97159 18.3268 6.90785 18.2732C6.87036 18.2428 6.83566 18.217 6.82836 18.217C6.81391 18.2154 6.70404 18.0954 6.6174 17.9856C6.55087 17.9003 6.45243 17.737 6.41921 17.653C6.40759 17.6256 6.39468 17.5995 6.39036 17.5952C6.38455 17.5909 6.37011 17.5461 6.35566 17.4939C6.34255 17.442 6.32527 17.387 6.31798 17.3711C6.31087 17.3552 6.2934 17.2901 6.28198 17.2266C6.26973 17.1662 6.25667 17.1059 6.24281 17.0458C6.23268 17.0025 6.22553 16.4934 6.22121 15.5306L6.21545 14.082H5.37823V12.7952H6.21694V11.3377L6.31515 11.3277C6.36862 11.322 6.41921 11.3119 6.42651 11.3061C6.43515 11.3003 6.50604 11.2873 6.58553 11.2772C6.66502 11.2671 6.7374 11.2525 6.74455 11.2468C6.75319 11.241 6.8443 11.225 6.94702 11.2121C7.05108 11.1975 7.14223 11.1817 7.14934 11.1759C7.15798 11.1701 7.20579 11.16 7.25772 11.1557C7.32567 11.1475 7.39324 11.1365 7.46023 11.1225C7.61494 11.0906 7.88527 11.0486 7.89823 11.0559C7.90404 11.0588 7.90836 11.4521 7.90836 11.9291ZM12.7012 12.6577C12.9035 12.6694 13.1321 12.6954 13.1493 12.7084C13.158 12.7141 13.1927 12.7243 13.2289 12.7286C13.3113 12.7417 13.5124 12.801 13.6337 12.8501C13.7349 12.8906 13.9605 13.0033 13.9951 13.0324C14.0068 13.041 14.0327 13.0583 14.0529 13.067C14.0731 13.0772 14.1369 13.1276 14.1931 13.177C14.2496 13.2276 14.3017 13.2709 14.3088 13.2737C14.3306 13.2838 14.5878 13.5962 14.5878 13.6134C14.5878 13.6177 14.601 13.641 14.6169 13.6626C14.6473 13.7061 14.7759 13.9562 14.7759 13.9721C14.7759 13.9777 14.7875 14.0096 14.8033 14.0428C14.8177 14.0762 14.8351 14.1268 14.841 14.1542C14.8468 14.1817 14.8569 14.2106 14.8626 14.2192C14.8683 14.2266 14.8815 14.2727 14.8916 14.3205C14.9002 14.3681 14.9118 14.4175 14.9162 14.4289C14.922 14.4405 14.9349 14.5026 14.9466 14.5663C14.9638 14.6617 14.9681 15.0217 14.9739 16.615L14.9797 18.5494H13.4024L13.401 18.3788C13.3995 18.2863 13.3951 18.1519 13.3893 18.081L13.3807 17.9509L13.3387 18.0086C13.2724 18.097 13.0539 18.305 12.9673 18.3628C12.7777 18.4873 12.7273 18.5175 12.6751 18.535C12.6433 18.5436 12.6015 18.561 12.5812 18.5724C12.5595 18.5826 12.506 18.6 12.4626 18.6086C12.4192 18.6187 12.3759 18.6319 12.3686 18.6375C12.2949 18.6925 11.384 18.6911 11.3131 18.6362C11.306 18.6304 11.2539 18.6175 11.1975 18.6073C11.1426 18.5972 11.0775 18.5812 11.0529 18.5696C11.0299 18.5595 10.9676 18.5334 10.9171 18.5132C10.859 18.4879 10.8021 18.4599 10.7466 18.4294C10.7081 18.4056 10.669 18.383 10.6293 18.3615C10.5686 18.3281 10.5484 18.3094 10.3836 18.1445C10.2144 17.9754 10.1927 17.9524 10.1927 17.9365C10.1927 17.9306 10.1739 17.8988 10.1524 17.8656C10.1291 17.8324 10.0959 17.7716 10.0784 17.7325C10.0612 17.6921 10.038 17.6443 10.0279 17.6241C10.0164 17.6038 10.0005 17.5519 9.99036 17.5084C9.98023 17.465 9.96732 17.4217 9.96147 17.4144C9.94553 17.3942 9.91798 17.1889 9.91798 17.0992C9.91798 17.0575 9.91087 17.0154 9.90223 17.0068C9.88481 16.9894 9.88908 16.9316 9.93391 16.583C9.94255 16.5152 9.95566 16.453 9.96147 16.4458C9.96727 16.4372 9.98019 16.3995 9.98883 16.3605C10.0076 16.2853 10.0468 16.187 10.0873 16.1132C10.1002 16.0886 10.1175 16.0554 10.1263 16.038C10.1349 16.0193 10.1466 16.0048 10.1537 16.0048C10.1595 16.0048 10.1638 15.9962 10.1638 15.9861C10.1638 15.9701 10.3228 15.7633 10.3504 15.7446C10.3561 15.7403 10.3663 15.7259 10.3706 15.7114C10.3764 15.6954 10.3937 15.681 10.4096 15.6767C10.4255 15.6724 10.4385 15.6636 10.4385 15.6577C10.4385 15.6433 10.6815 15.4525 10.7638 15.4048C10.823 15.3686 10.9562 15.3008 11.1499 15.2081C11.1774 15.1937 11.4476 15.107 11.5663 15.0737C11.6096 15.0608 11.6949 15.0433 11.7542 15.0347C11.8134 15.0246 11.8699 15.013 11.8771 15.0073C11.8858 15.0015 11.9724 14.9884 12.0724 14.9797C12.1721 14.9711 12.2949 14.9567 12.347 14.9494C12.5524 14.919 13.2737 14.9248 13.3504 14.9567C13.3764 14.9681 13.3777 14.9625 13.3676 14.8395C13.362 14.7686 13.3518 14.7079 13.346 14.7036C13.3387 14.6992 13.3301 14.6719 13.3243 14.6428C13.3142 14.5894 13.2592 14.4724 13.2073 14.3927C13.1739 14.3423 13.0337 14.1975 13.0177 14.1975C13.0121 14.1975 12.9875 14.1831 12.9628 14.1643C12.8992 14.118 12.7967 14.0719 12.7344 14.0603C12.704 14.0545 12.6795 14.0443 12.6795 14.0385C12.6795 13.975 11.7455 13.9648 11.4651 14.027C11.4289 14.0342 11.3451 14.0501 11.2771 14.0617C11.2091 14.0732 11.1412 14.0891 11.1253 14.0964C11.1093 14.1036 11.0574 14.1167 11.0096 14.1253C10.962 14.1339 10.9099 14.147 10.8939 14.1542C10.878 14.1615 10.8202 14.1774 10.7653 14.1904C10.7104 14.2033 10.6582 14.2177 10.6496 14.225C10.641 14.2309 10.602 14.2453 10.5615 14.2554C10.5225 14.2656 10.482 14.28 10.4747 14.2858C10.466 14.2916 10.427 14.3045 10.3879 14.3147C10.3475 14.3233 10.2911 14.3436 10.2622 14.358C10.2319 14.3739 10.2043 14.3856 10.2 14.3856C10.1957 14.3856 10.1927 14.0833 10.1927 13.7147C10.1927 13.1927 10.1971 13.041 10.2116 13.0294C10.2217 13.0207 10.2622 13.0063 10.3012 12.9962C10.3417 12.9876 10.3807 12.9745 10.3879 12.9686C10.3967 12.9628 10.4443 12.9456 10.4964 12.9325C10.5484 12.918 10.5975 12.9022 10.6048 12.8965C10.6135 12.8891 10.6582 12.8775 10.7046 12.8676C10.7524 12.8575 10.8015 12.8443 10.8129 12.8372C10.826 12.8314 10.8853 12.8154 10.9446 12.8025C10.9906 12.7935 11.0364 12.7834 11.082 12.7721C11.0977 12.7676 11.1787 12.7547 11.2626 12.743C11.3466 12.7316 11.4347 12.7157 11.4577 12.7084C11.5417 12.6825 12.2992 12.6347 12.4699 12.6448C12.5175 12.6476 12.6217 12.6535 12.7012 12.6578V12.6577ZM4.72759 15.6724V18.5494H3.03617V12.7952H4.72759V15.6724ZM17.5084 14.5879C17.5084 16.2997 17.5157 16.6309 17.5504 16.6772C17.5575 16.6843 17.5663 16.7132 17.5721 16.7408C17.5924 16.8491 17.6863 17.0068 17.7931 17.1137C17.8496 17.1716 17.9131 17.2222 17.9334 17.2279C17.9551 17.2324 17.9711 17.241 17.9711 17.2468C17.9711 17.2524 18.0217 17.2727 18.0838 17.2929C18.1764 17.322 18.2255 17.3276 18.3701 17.3276C18.4714 17.3276 18.5595 17.3205 18.5797 17.3119C18.5984 17.3018 18.6433 17.2873 18.6795 17.2772C18.7157 17.2671 18.7807 17.2367 18.824 17.2076C18.905 17.1557 19.0554 17.017 19.0554 16.9937C19.0554 16.9866 19.0757 16.9547 19.0987 16.9243C19.1233 16.8925 19.1422 16.8608 19.1422 16.8521C19.1422 16.8433 19.1552 16.813 19.1696 16.7841C19.1855 16.7552 19.2028 16.7061 19.2086 16.6757C19.2129 16.6438 19.223 16.6121 19.2304 16.6048C19.2666 16.5585 19.2724 16.2666 19.2724 14.5706V12.7952H20.9638V18.5494H20.1629C19.5369 18.5494 19.3575 18.5451 19.3489 18.5306C19.3431 18.522 19.336 18.3846 19.333 18.227C19.3301 18.0709 19.3229 17.9423 19.3172 17.9423C19.3114 17.9423 19.294 17.9595 19.2767 17.9812C19.1957 18.0912 19.0684 18.2155 18.8689 18.3803C18.84 18.4033 18.7808 18.4352 18.6507 18.4988C18.5914 18.5276 18.5263 18.561 18.5061 18.5711C18.4858 18.5812 18.4309 18.5972 18.3831 18.6073C18.3354 18.6174 18.2934 18.6303 18.2891 18.6362C18.2747 18.6578 18.0188 18.6795 17.7658 18.6795C17.5172 18.6795 17.3147 18.6622 17.2555 18.6375C17.2395 18.6304 17.1846 18.613 17.1325 18.6C17.0805 18.587 17.0327 18.5696 17.0241 18.5638C17.017 18.558 16.9823 18.5436 16.9489 18.5334C16.9142 18.5248 16.8869 18.5119 16.8869 18.5061C16.8869 18.5003 16.8608 18.4873 16.8289 18.4772C16.7972 18.4671 16.7711 18.4539 16.7711 18.4481C16.7711 18.4425 16.7552 18.4308 16.7365 18.4222C16.6122 18.3658 16.3302 18.1012 16.2116 17.9306C16.1393 17.8266 16.0279 17.6183 16.0049 17.5417C15.9962 17.5114 15.9788 17.4666 15.9687 17.4433C15.9585 17.4188 15.9413 17.3668 15.9325 17.3277C15.9238 17.2873 15.9109 17.2453 15.9036 17.2309C15.8965 17.2177 15.8833 17.1499 15.8747 17.079C15.8661 17.0096 15.8502 16.9388 15.8415 16.9228C15.8284 16.9012 15.8226 16.385 15.8198 14.8438L15.8155 12.7952H17.5084L17.5084 14.5879Z" fill="#FF6200"/>
</svg>
