<svg width="40" height="40" viewBox="0 0 40 40" fill="none" xmlns="http://www.w3.org/2000/svg">
<rect x="0.5" y="0.5" width="39" height="39" rx="3.5" fill="#FAFAFA"/>
<rect x="0.5" y="0.5" width="39" height="39" rx="3.5" stroke="#E6E6E6"/>
<path d="M7.36433 17.1742H6.71819V20.4444C6.71819 21.6726 6.29916 22.042 5.23685 22.042C4.34634 22.0391 4 21.6847 4 21.2252C4 21.1201 4.0378 20.7808 4.36375 20.7808C4.6868 20.7808 4.70718 21.006 4.70718 21.3724C4.70718 21.5255 4.76833 21.8258 5.14955 21.8258C5.75493 21.8258 6.02556 21.5406 6.02556 20.5315V17.1742H5.40277V17H7.36433V17.1742ZM7.4953 21.2612C7.38762 21.2612 7.2945 21.2972 7.22176 21.3754C7.14611 21.4534 7.10825 21.5465 7.10825 21.6576C7.10825 21.7687 7.14611 21.8618 7.22176 21.9339C7.29741 22.012 7.38762 22.048 7.4953 22.048C7.60299 22.048 7.6932 22.012 7.77181 21.9339C7.84747 21.8618 7.88526 21.7687 7.88526 21.6576C7.88526 21.5435 7.84747 21.4534 7.77181 21.3754C7.69616 21.2973 7.60584 21.2612 7.4953 21.2612ZM11.7007 21.2612C11.593 21.2612 11.5028 21.2972 11.4272 21.3754C11.3515 21.4535 11.3165 21.5465 11.3165 21.6576C11.3165 21.7687 11.3515 21.8618 11.4272 21.9339C11.5057 22.012 11.5959 22.048 11.7007 22.048C11.8084 22.048 11.9015 22.012 11.9772 21.9339C12.0528 21.8618 12.0907 21.7687 12.0907 21.6576C12.0907 21.5435 12.0528 21.4534 11.9772 21.3754C11.9015 21.2973 11.8084 21.2612 11.7007 21.2612ZM10.4813 17C11.9859 17 12.242 17.5855 12.242 18.4204C12.242 19.2462 11.8258 19.8498 10.3386 19.8498L9.82644 19.8528V21.099C9.82644 21.2522 9.84391 21.3273 9.87885 21.4113C9.91665 21.5104 9.99818 21.5855 10.1204 21.6365C10.2077 21.6696 10.3416 21.6876 10.5162 21.6936V21.9158H8.44988V21.6936C8.62448 21.6876 8.75545 21.6695 8.84275 21.6305C8.95917 21.5794 9.03773 21.5044 9.07273 21.4053C9.1047 21.3182 9.12217 21.3032 9.12217 21.0029V17.1741H8.55756V17.0029L10.4813 17ZM10.2164 19.6607C11.1244 19.6607 11.5755 19.2553 11.5755 18.4625C11.5755 17.6727 11.3252 17.1892 10.1785 17.1892L9.82353 17.1952V19.6636H10.2164M18.1499 21.3934C18.1237 21.3063 18.1092 21.1982 18.1092 21.0601V17.1742H18.6068V17H17.3932C17.3786 17.0451 15.9322 20.7568 15.9322 20.7568C15.929 20.7628 15.9244 20.7678 15.9188 20.7715C15.9132 20.7752 15.9068 20.7774 15.9002 20.7778C15.8827 20.7778 15.871 20.7688 15.8653 20.7568C15.8653 20.7568 14.3286 17.0451 14.3112 17H12.9637V17.1711H13.5225V20.9069C13.5225 20.9069 13.5109 21.2522 13.5109 21.2552C13.5022 21.3453 13.473 21.4264 13.4294 21.4925C13.3828 21.5616 13.31 21.6156 13.214 21.6517C13.15 21.6727 13.054 21.6877 12.9376 21.6907V21.9129H14.3083V21.6907C14.1948 21.6847 14.1453 21.6727 14.0784 21.6517C13.9794 21.6186 13.9066 21.5675 13.8572 21.4955C13.8135 21.4294 13.7844 21.3483 13.7757 21.2522C13.7757 21.2522 13.7611 20.9069 13.7611 20.9039V17.6876H13.8397C13.8397 17.6876 15.5742 21.8678 15.5946 21.9159H15.7401L17.3844 17.7357H17.4252V21.06C17.4252 21.2042 17.4106 21.3183 17.3844 21.4054C17.3524 21.5074 17.2826 21.5826 17.1807 21.6336C17.105 21.6696 16.9915 21.6877 16.8402 21.6936V21.9159H18.7145V21.6936C18.5631 21.6847 18.4467 21.6666 18.3682 21.6306C18.2518 21.5736 18.1819 21.4955 18.1499 21.3934ZM20.6702 18.3154C21.5957 18.3154 22.2825 18.967 22.2825 20.1622C22.2825 21.6967 21.2115 22.06 20.6498 22.06C20.3647 22.06 19.0463 21.9459 19.0463 20.1952C19.0434 19 19.672 18.3154 20.6702 18.3154ZM20.6586 21.8438C21.3309 21.8438 21.5376 21.4114 21.5376 20.1531C21.5376 19.2793 21.5346 18.5345 20.6586 18.5345C19.8495 18.5345 19.7914 19.2553 19.7914 20.2162C19.7914 21.4564 19.9048 21.8438 20.6586 21.8438ZM24.8989 18.3694C24.3023 18.3694 24.0957 18.7328 23.9297 19.1051C23.9297 19.1051 23.8861 19.1021 23.8832 19.1021C23.8803 19.1051 23.7639 18.3994 23.7639 18.3994H22.6288V18.5856H23.2517V21.006C23.2517 21.2462 23.24 21.4324 23.1789 21.5345C23.109 21.6517 22.9664 21.6967 22.7278 21.6967H22.6259V21.9189H24.5671V21.6967H24.4623C24.2092 21.6967 24.0782 21.6397 24.0113 21.5255C23.9501 21.4265 23.9211 21.2553 23.9211 21.006V19.7508C23.9211 19.3274 24.2499 18.8409 24.6224 18.8409C25.0124 18.8409 25.024 19.4174 25.4432 19.2103C25.74 19.0661 25.6731 18.3694 24.8989 18.3694ZM32.6258 21.5555C32.748 21.5555 32.8965 21.4234 32.9284 21.1742H33.0449C33.0128 21.7447 32.7422 21.973 32.2911 21.973C31.8895 21.973 31.6683 21.6786 31.6304 21.4354C31.3947 21.6937 31.0454 22.018 30.4925 22.018C29.9948 22.018 29.6078 21.6216 29.5845 21.1712C29.5176 20.018 30.9873 19.8949 31.6071 19.8378V19.2492C31.6071 19.036 31.5606 18.8649 31.4704 18.7358C31.3744 18.6006 31.2026 18.5346 30.9581 18.5346C30.7486 18.5346 30.5944 18.5886 30.4954 18.6937C30.4023 18.7958 30.3616 18.9069 30.3325 19.0991C30.2917 19.3604 30.184 19.4625 29.992 19.4625C29.9076 19.4625 29.8406 19.4384 29.7796 19.3844C29.7213 19.3334 29.6923 19.2583 29.6923 19.1502C29.6923 18.9189 29.7796 18.7597 30.0008 18.5856C30.2278 18.4055 30.5828 18.3154 31.063 18.3154C31.5636 18.3154 31.9099 18.4115 32.0874 18.5977C32.2679 18.7838 32.3174 19 32.3174 19.3153V20.7868L32.329 21.2373C32.3522 21.4385 32.4162 21.5555 32.6258 21.5555ZM31.6101 20.0541C31.1327 20.0541 30.2655 20.3814 30.2655 21.036C30.2655 21.2402 30.3353 21.6486 30.8126 21.6486C30.9989 21.6486 31.252 21.5375 31.5838 21.2252L31.5984 21.2102C31.6101 21.2012 31.6101 21.1951 31.6101 21.1832V20.0541ZM36.5897 21.5345C36.5053 21.4265 36.4877 21.1892 36.4877 21.009V19.4175C36.4877 19.1863 36.4587 18.9911 36.3743 18.8289C36.2899 18.6727 36.1706 18.5526 36.0221 18.4746C35.8708 18.3965 35.6991 18.3575 35.5099 18.3575C34.8289 18.3575 34.5321 18.7629 34.3982 19.0361H34.3458L34.2265 18.3995H33.17V18.5827H33.6997V21.0061C33.6997 21.1924 33.6851 21.3275 33.6589 21.4176C33.6298 21.5256 33.5629 21.5977 33.4639 21.6428C33.3999 21.6698 33.301 21.6879 33.173 21.6938V21.9161H34.8493V21.6938C34.6805 21.6788 34.567 21.6338 34.5059 21.5437C34.4389 21.4476 34.4099 21.2855 34.4099 21.0452V20.1173C34.4099 19.7299 34.4069 19.3545 34.535 19.1203C34.6747 18.8681 34.9278 18.7269 35.2101 18.7269C35.4663 18.7269 35.6031 18.811 35.6845 18.9792C35.7748 19.1683 35.7951 19.5197 35.7951 19.799V20.9491C35.7951 21.1413 35.7894 21.2794 35.7777 21.3695C35.7573 21.4747 35.734 21.5617 35.6526 21.6158C35.5944 21.6578 35.5042 21.6849 35.3848 21.6938V21.9131H37V21.6907C36.7934 21.6817 36.6711 21.6457 36.5897 21.5345ZM29.0112 18.1742C29.1945 18.1142 29.3459 18.1592 29.3953 18.3724C29.4186 18.4745 29.3983 18.5977 29.3401 18.7057C29.2848 18.8138 29.1887 18.8919 29.0374 18.94C28.9064 18.985 28.7667 18.985 28.6125 18.949C28.6853 19.1111 28.7463 19.3394 28.7463 19.6066C28.7463 20.5375 28.0566 20.8168 27.3203 20.9339C26.5695 21.054 26.3774 21.1471 26.3774 21.3903C26.3774 21.5555 26.4763 21.6516 26.9973 21.6516C28.0741 21.7057 28.5543 21.6426 28.8919 22.1201C28.9966 22.2732 29.049 22.4775 29.049 22.7327C29.049 22.9189 29.0025 23.1141 28.9007 23.3033C28.8046 23.4924 28.6241 23.6576 28.3651 23.7927C28.1061 23.9279 27.7452 24 27.3029 24C26.9682 24 26.7266 23.973 26.3599 23.8588C26.1213 23.7868 25.807 23.5886 25.807 23.1712C25.807 23.045 25.8273 22.94 25.8826 22.8499C25.9438 22.7538 26.0689 22.6967 26.1736 22.7147C26.3599 22.7478 26.4151 22.9219 26.3832 23.0871C26.3454 23.2493 26.3803 23.4775 26.5607 23.5916C26.8052 23.7477 27.0729 23.7837 27.4018 23.7837C27.786 23.7837 28.0945 23.7147 28.3215 23.5855C28.566 23.4444 28.6853 23.2552 28.6853 23.021C28.6853 22.8498 28.6271 22.7177 28.5136 22.6276C28.4059 22.5466 28.2574 22.4925 28.0741 22.4685C27.9024 22.4475 27.6375 22.4325 27.268 22.4294C26.8431 22.4205 26.5055 22.3694 26.2639 22.2673C26.0456 22.1742 25.8768 22.009 25.8768 21.7027C25.8768 21.1953 26.3366 21.0391 26.8547 20.931C26.8867 20.925 26.8867 20.88 26.8489 20.8739C26.2407 20.7418 25.9642 20.3814 25.9642 19.6427C25.9642 19.0091 26.3804 18.3155 27.3262 18.3155C27.9112 18.3155 28.2459 18.5197 28.4205 18.6848C28.4729 18.7269 28.5922 18.7239 28.6621 18.7028C28.7319 18.6788 28.7843 18.5977 28.8104 18.4536C28.8453 18.2973 28.9093 18.2072 29.0112 18.1742ZM27.3436 20.7357C27.7568 20.7357 28.0537 20.6066 28.0537 19.6306C28.0537 18.949 27.8936 18.5045 27.3436 18.5045C26.8721 18.5045 26.6509 18.991 26.6509 19.6427C26.648 20.5705 26.9012 20.7357 27.3436 20.7357Z" fill="#321C0F"/>
</svg>
