<svg
  width="110"
  height="110"
  viewBox="0 0 110 110"
  fill="none"
  xmlns="http://www.w3.org/2000/svg"
>
  <rect x="1.5" y="1.5" width="107" height="107" rx="8.5" fill="#FAFAFA" />
  <rect
    x="1.5"
    y="1.5"
    width="107"
    height="107"
    rx="8.5"
    stroke="#E6E6E6"
    stroke-width="3"
  />
  <path
    fill-rule="evenodd"
    clip-rule="evenodd"
    d="M54.9789 81.9932C53.6822 82.0292 52.4215 81.9212 51.1249 81.7413C47.631 81.2375 44.3532 80.1218 41.3276 78.2865C34.628 74.2558 30.3417 68.3898 28.5767 60.6884C28.1805 58.961 28.0004 57.1976 28.0004 55.4342C27.9644 48.3806 30.2696 42.1907 34.9522 36.9365C39.0223 32.402 44.0651 29.631 50.0083 28.4793C51.6651 28.1555 53.322 27.9755 54.9789 28.0475C54.9789 30.7466 54.9789 33.4097 54.9789 36.1088C54.9069 36.1447 54.8348 36.1807 54.7628 36.2527C53.7903 36.9365 52.8178 37.6562 51.8813 38.412C49.7561 40.1394 47.739 41.9748 46.0461 44.17C43.7769 47.085 42.2641 50.288 42.048 54.0667C41.9399 55.8661 42.156 57.6295 42.7323 59.3209C44.1371 63.5315 48.4954 67.886 54.6187 67.994C54.9789 67.994 55.051 68.0659 55.051 68.4618C55.0149 70.2972 55.0149 73.9679 55.0149 73.9679C55.0149 73.9679 55.0149 74.1839 55.0149 74.2918C54.9789 76.847 54.9789 79.4021 54.9789 81.9932Z"
    fill="#2B8EFF"
  />
  <path
    fill-rule="evenodd"
    clip-rule="evenodd"
    d="M54.9618 36.0668C54.9618 36.0668 54.9618 30.7046 54.9618 28.0055C56.4386 27.9695 57.8794 28.1135 59.3201 28.3294C62.0216 28.7613 64.615 29.553 67.0643 30.8126C72.143 33.4397 76.1412 37.1824 78.8426 42.2927C80.3915 45.2437 81.4 48.3746 81.7962 51.6495C82.2645 55.5002 81.9043 59.3149 80.7517 63.0216C79.4189 67.2322 77.1857 70.9389 74.052 74.0699C70.234 77.8486 65.6956 80.2958 60.4367 81.4114C58.6358 81.7713 56.7988 81.9872 54.9618 81.9512C54.9618 79.3601 54.9618 76.805 54.9618 74.2138C54.9618 74.1059 54.9618 73.9259 54.9618 73.9259C54.9618 73.9259 55.0698 73.854 55.1059 73.818C57.9154 71.8386 60.5808 69.6794 62.886 67.0883C64.3989 65.3968 65.6956 63.5974 66.596 61.5101C67.8567 58.5591 68.361 55.5362 67.7126 52.3333C66.56 46.5032 61.3372 42.1487 55.322 42.0048C54.9258 42.0048 54.9618 41.6809 54.9618 41.6809V36.0668Z"
    fill="#0561E2"
  />
</svg>
