<svg width="40" height="40" viewBox="0 0 40 40" fill="none" xmlns="http://www.w3.org/2000/svg">
<rect x="0.5" y="0.5" width="39" height="39" rx="3.5" fill="#FAFAFA"/>
<rect x="0.5" y="0.5" width="39" height="39" rx="3.5" stroke="#E6E6E6"/>
<g clip-path="url(#clip0_76_21)">
<path d="M30.0615 26.6268C32.1674 25.3805 33.6126 23.1333 33.6539 20.5795V20.5387C33.6023 23.1128 32.1777 25.3601 30.0615 26.6268ZM32.5906 16.5548C33.1584 17.4844 33.53 18.557 33.6333 19.7113C33.53 18.557 33.179 17.4946 32.5906 16.5548Z" fill="#E52F3C"/>
<path d="M33.6534 20.2118C33.6534 20.1608 33.6534 20.1199 33.6431 20.0688C33.6431 19.9871 33.6328 19.9054 33.6328 19.8135C33.6328 19.7726 33.6225 19.7419 33.6225 19.7011C33.5192 18.557 33.1476 17.4844 32.5799 16.5447C32.5592 16.514 32.5386 16.4732 32.5179 16.4425C32.1256 15.8296 31.6198 15.2678 31.0108 14.757C28.2752 12.428 24.0119 12.4587 21.3383 14.849C21.2763 14.9103 21.2041 14.9613 21.1421 15.0022C20.977 15.1043 20.8015 15.1452 20.595 15.1452C19.955 15.135 19.315 15.135 18.675 15.1452C18.1795 15.1554 17.9008 15.4619 17.9008 15.9215C17.9008 16.4016 18.1691 16.657 18.6853 16.6672C18.9021 16.6775 19.1085 16.6672 19.3253 16.6672C19.4905 16.6672 19.6453 16.6672 19.8105 16.6672C20.275 16.6672 20.7395 16.657 21.2041 16.6775C21.8028 16.7081 22.0815 17.0554 21.9783 17.5764C21.906 17.9237 21.6273 18.1075 21.1112 18.1075C20.4608 18.1178 19.8001 18.1178 19.1498 18.1178C18.9434 18.1178 18.7266 18.1178 18.5201 18.1178C17.3123 18.1178 16.0942 18.1178 14.8865 18.128C14.2877 18.1382 13.9574 18.5979 14.1432 19.1393C14.2877 19.5683 14.6387 19.65 15.0413 19.65C16.2491 19.65 17.4672 19.6602 18.675 19.65C18.7369 19.65 18.7988 19.65 18.8505 19.6602C19.1395 19.7011 19.3356 19.8645 19.4182 20.171C19.5318 20.6 19.3047 20.9269 18.8608 21.029C18.7782 21.0495 18.6956 21.0597 18.5924 21.0597C16.373 21.0699 14.1432 21.0597 11.9238 21.0597C11.2941 21.0597 10.9741 21.3151 10.9741 21.8156C10.9741 22.3366 11.2735 22.5817 11.9032 22.5817C13.2658 22.5817 14.6181 22.5817 15.9807 22.5817C16.8891 22.5817 17.7872 22.5817 18.6956 22.5817C18.8608 22.5817 19.026 22.5817 19.1911 22.5817C19.5627 22.5817 19.924 22.5817 20.2957 22.5919C20.8015 22.6021 21.1215 22.8984 21.1112 23.3274C21.1008 23.736 20.8015 23.9914 20.2957 24.0016C20.1408 24.0016 19.9756 24.0016 19.8208 24.0016C19.4079 24.0016 18.995 24.0016 18.5717 24.0016C17.8182 24.0016 17.0543 23.9914 16.3007 24.0118C15.702 24.022 15.4026 24.3285 15.4439 24.8597C15.4749 25.3296 15.7742 25.5747 16.3626 25.5747C17.7769 25.5849 19.1808 25.5849 20.595 25.5747C20.8325 25.5747 21.0286 25.6054 21.2247 25.7382C22.546 26.9435 24.2906 27.6892 26.2107 27.679C27.2533 27.679 28.2546 27.4645 29.1527 27.0763C29.2043 27.0559 29.2559 27.0355 29.2972 27.015C29.4004 26.9742 29.4933 26.9231 29.5862 26.872C29.6378 26.8414 29.6895 26.821 29.7514 26.7903C29.8237 26.7494 29.8959 26.7086 29.9579 26.6779L30.0611 26.6166C32.1773 25.3602 33.6018 23.1027 33.6534 20.5285C33.6534 20.4876 33.6534 20.4468 33.6534 20.3957V20.3855C33.6534 20.3344 33.6534 20.2731 33.6534 20.2118ZM31.7127 21.2538C30.8972 21.928 30.0817 22.6021 29.2559 23.2661C29.1527 23.3478 29.101 23.4296 29.1527 23.5726C29.2353 23.8177 29.2869 24.0731 29.3591 24.3285C29.4108 24.5021 29.3798 24.543 29.2043 24.5123C28.3991 24.4102 27.5939 24.2978 26.7887 24.1855C26.6958 24.1753 26.6236 24.1752 26.5719 24.2059V26.1161C26.5719 26.3 26.4171 26.4532 26.2313 26.4532C26.1384 26.4532 26.0558 26.4123 25.9939 26.3511C25.9319 26.2898 25.8907 26.2081 25.8907 26.1161V24.1957C25.8287 24.1752 25.7461 24.1753 25.6326 24.1855C24.848 24.2876 24.0635 24.3898 23.2687 24.5021C23.1241 24.5226 23.0622 24.4919 23.1138 24.3285C23.1964 24.0731 23.248 23.8075 23.3203 23.5624C23.3616 23.4398 23.3409 23.3683 23.2377 23.2866C22.3705 22.5817 21.5138 21.8667 20.657 21.1618C20.595 21.1108 20.5331 21.0495 20.4505 20.9678C20.6776 20.8452 20.8634 20.7226 21.0699 20.6204C21.2041 20.5591 21.235 20.4774 21.1937 20.3344C21.0286 19.7726 20.8738 19.2108 20.7189 18.649C20.657 18.4344 20.6776 18.414 20.8944 18.4651C21.3796 18.5979 21.8544 18.7204 22.3396 18.8635C22.4738 18.9043 22.5357 18.8737 22.577 18.7409C22.6493 18.4957 22.7422 18.2608 22.8351 18.0258C22.8557 17.9645 22.9073 17.9237 22.9486 17.8624C23.0002 17.9033 23.0519 17.9339 23.0932 17.9748C23.5061 18.4855 23.919 19.0065 24.3732 19.5172C24.1977 18.4038 24.0222 17.2904 23.8261 16.1156C24.0841 16.228 24.2803 16.3097 24.4764 16.4017C24.6313 16.4732 24.7964 16.5344 24.9513 16.6162C25.0751 16.6775 25.1474 16.6672 25.2197 16.5242C25.5087 15.9318 25.8081 15.3393 26.1074 14.757C26.1384 14.6957 26.2003 14.6549 26.252 14.6038C26.3036 14.6549 26.3655 14.706 26.3965 14.7673C26.6958 15.3597 26.9952 15.942 27.2842 16.5344C27.3462 16.6672 27.4081 16.6775 27.532 16.6162C27.8417 16.4732 28.1514 16.3404 28.461 16.2076C28.6365 16.1361 28.6675 16.1565 28.6365 16.3404C28.4817 17.3414 28.3165 18.3425 28.1617 19.3436C28.1514 19.3947 28.1514 19.4559 28.141 19.507C28.1617 19.5172 28.1617 19.5172 28.1823 19.5274C28.4094 19.2414 28.6365 18.9656 28.8636 18.6796C29.0494 18.4446 29.2353 18.2097 29.4211 17.9748C29.4624 17.9339 29.514 17.9033 29.5656 17.8726C29.5966 17.9237 29.6378 17.9747 29.6585 18.0258C29.7514 18.271 29.8443 18.5162 29.9166 18.7613C29.9579 18.8839 30.0095 18.9145 30.1437 18.8737C30.6185 18.7307 31.1037 18.6081 31.5889 18.4753C31.6508 18.4549 31.7231 18.4651 31.785 18.4651C31.7747 18.5264 31.785 18.5979 31.7644 18.6591C31.6095 19.221 31.4547 19.7828 31.2895 20.3446C31.2482 20.4774 31.2585 20.5489 31.3928 20.6102C31.5992 20.7021 31.7953 20.8248 32.0224 20.9575C31.9089 21.0801 31.8057 21.172 31.7127 21.2538Z" fill="#E52F3C"/>
<path d="M10.0349 18.1381C10.7782 18.1381 11.5214 18.1279 12.2646 18.1381C12.7602 18.1381 13.0389 18.4037 13.0492 18.8429C13.0698 19.3128 12.7602 19.6499 12.275 19.6601C10.7885 19.6703 9.302 19.6703 7.81551 19.6601C7.29936 19.6601 7 19.3435 7 18.8838C7 18.4445 7.32001 18.1585 7.84647 18.1483C8.56908 18.1279 9.302 18.1381 10.0349 18.1381Z" fill="#E52F3C"/>
<path d="M15.3511 16.6567C14.9795 16.6567 14.6079 16.667 14.2363 16.6567C13.8233 16.6363 13.5756 16.3911 13.5343 15.9928C13.5033 15.6046 13.7098 15.2471 14.0917 15.196C14.9072 15.0938 15.7331 15.0938 16.5589 15.196C16.9511 15.2471 17.1783 15.6352 17.1163 16.0234C17.0647 16.4218 16.817 16.6465 16.3834 16.667C16.0428 16.6772 15.6918 16.667 15.3511 16.6567C15.3511 16.667 15.3511 16.667 15.3511 16.6567Z" fill="#E52F3C"/>
<path d="M26.242 13C24.2703 13 22.4844 13.7559 21.1528 15.0021C21.2251 14.9613 21.287 14.9102 21.3489 14.8489C24.0123 12.4586 28.2859 12.428 31.0215 14.757C31.6305 15.2677 32.126 15.8296 32.5286 16.4425C31.2073 14.3688 28.895 13 26.242 13Z" fill="#E52F3C"/>
</g>
<defs>
<clipPath id="clip0_76_21">
<rect width="27" height="15" fill="white" transform="translate(7 13)"/>
</clipPath>
</defs>
</svg>
