<svg width="40" height="24" viewBox="0 0 40 24" fill="none" xmlns="http://www.w3.org/2000/svg">
<g clip-path="url(#clip0_8_150)">
<path d="M32.7077 12.0444C32.7085 16.437 29.305 19.9992 25.103 20C20.9029 20.0016 17.4967 16.4408 17.4954 12.0485V12.0444C17.4941 7.65162 20.8987 4.0894 25.0996 4.0883C29.3003 4.0867 32.7067 7.64724 32.7078 12.0403C32.7077 12.0403 32.7077 12.0428 32.7077 12.0444Z" fill="#F7981D"/>
<path d="M14.8499 4.0903C10.6736 4.11836 7.29224 7.67074 7.29224 12.0445C7.29224 16.4354 10.6997 19.9986 14.8988 19.9986C16.8684 19.9986 18.6648 19.213 20.0164 17.9259L20.0161 17.9251H20.0172C20.2945 17.6616 20.5527 17.3773 20.7897 17.0732H19.2317C19.0234 16.8111 18.8342 16.5373 18.6644 16.2546H21.3517C21.5158 15.9811 21.6631 15.6964 21.7951 15.4027H18.2212C18.0992 15.1292 17.9933 14.8508 17.9032 14.5674H22.1132C22.3675 13.7739 22.5047 12.9256 22.5047 12.0445C22.5047 11.4595 22.4438 10.8898 22.3296 10.3409H17.6797C17.7378 10.0585 17.8101 9.77889 17.8964 9.50567H22.1085C22.0145 9.21364 21.9049 8.92971 21.7806 8.6535H18.2207C18.349 8.36745 18.4946 8.08797 18.6569 7.81824H21.3426C21.1636 7.52046 20.966 7.23602 20.7525 6.96659H19.2551C19.4869 6.68163 19.7414 6.413 20.0176 6.16354C18.6665 4.87585 16.8699 4.09023 14.8992 4.09023C14.8821 4.0903 14.8659 4.0903 14.8499 4.0903Z" fill="#CB2026"/>
<path d="M17.6336 14.0695L17.7353 13.3498C17.6799 13.3498 17.5983 13.3744 17.5265 13.3744C17.2447 13.3744 17.2134 13.2178 17.2317 13.1019L17.4593 11.6329H17.8876L17.9911 10.8364H17.5874L17.6697 10.3417H16.8596C16.8421 10.3602 16.3814 13.1267 16.3814 13.4629C16.3814 13.9617 16.6488 14.1839 17.0266 14.1806C17.3218 14.1778 17.5526 14.0924 17.6336 14.0695Z" fill="white"/>
<path fill-rule="evenodd" clip-rule="evenodd" d="M19.2891 14.1786C18.6455 14.1786 17.8905 13.8939 17.8905 12.697C17.8905 11.66 18.4929 10.7429 19.3074 10.7427C20.1962 10.7427 20.4623 11.4228 20.4623 11.9805C20.4623 12.2041 20.3565 12.7533 20.3565 12.7533H18.7104C18.7104 12.7533 18.558 13.4317 19.4274 13.4317C19.8356 13.4317 20.2874 13.2223 20.2874 13.2223L20.1445 14.0392C20.1445 14.0392 19.8834 14.1786 19.2891 14.1786ZM19.6846 12.0615C19.6934 11.9543 19.7307 11.5007 19.3109 11.5007C18.869 11.5007 18.784 12.0259 18.7843 12.0813H19.6833C19.6833 12.0777 19.6838 12.071 19.6846 12.0615Z" fill="white"/>
<path d="M24.4387 14.0694L24.5837 13.1453C24.5837 13.1453 24.1863 13.3547 23.9137 13.3547C23.3393 13.3547 23.109 12.8949 23.109 12.403C23.109 11.4028 23.6032 10.8525 24.1539 10.8525C24.5663 10.8525 24.8976 11.0951 24.8976 11.0951L25.0296 10.1985C25.0296 10.1985 24.5386 9.99016 24.1178 9.99016C23.1828 9.99016 22.2728 10.8374 22.2728 12.4316C22.2728 13.4869 22.7644 14.1853 23.7308 14.1853C24.0038 14.1854 24.4387 14.0694 24.4387 14.0694Z" fill="white"/>
<path fill-rule="evenodd" clip-rule="evenodd" d="M12.1984 10.942C12.1984 10.942 12.6242 10.7557 13.1795 10.7557C13.4661 10.7557 14.2917 10.7876 14.2917 11.7769L13.9735 14.1098H13.2605L13.2872 13.7859C13.2855 13.7861 13.28 13.7926 13.2705 13.8037C13.2057 13.88 12.9551 14.175 12.4564 14.175C12.1572 14.175 11.6748 14.0044 11.6748 13.2621C11.6748 12.3191 12.4107 12.0066 13.1108 12.0066C13.2211 12.0066 13.4586 12.0276 13.4586 12.0276C13.4586 12.0276 13.4855 11.9701 13.4855 11.8147C13.4855 11.5581 13.2652 11.5229 12.9636 11.5229C12.4328 11.5229 12.0811 11.6717 12.0811 11.6717L12.1984 10.942ZM12.7799 13.4649C13.2675 13.4649 13.3687 12.7968 13.3532 12.6542C13.348 12.6534 13.3432 12.652 13.3374 12.6503C13.317 12.6444 13.2842 12.6348 13.1771 12.6348C12.5834 12.6348 12.4629 12.9132 12.4629 13.1448C12.4629 13.2637 12.5285 13.4649 12.7799 13.4649Z" fill="white"/>
<path d="M15.0498 14.1573C15.2319 14.1573 16.2747 14.2061 16.2747 13.0809C16.2747 12.0289 15.3096 12.2364 15.3096 11.8137C15.3096 11.6041 15.4669 11.5369 15.7543 11.5369C15.8685 11.5369 16.3078 11.5754 16.3078 11.5754L16.4103 10.8272C16.4103 10.8272 16.126 10.7611 15.6634 10.7611C15.0637 10.7611 14.4561 11.0104 14.4561 11.8663C14.4561 12.8369 15.47 12.7387 15.47 13.1472C15.47 13.4199 15.1865 13.4423 14.968 13.4423C14.5906 13.4423 14.2507 13.3067 14.249 13.313L14.1411 14.0528C14.16 14.0597 14.3701 14.1573 15.0498 14.1573Z" fill="white"/>
<path fill-rule="evenodd" clip-rule="evenodd" d="M30.9725 11.2179L31.1468 10.0846L31.9593 10.0828L31.3402 14.1102H30.5526L30.5878 13.8083C30.5878 13.8083 30.3194 14.162 29.8342 14.162C29.1594 14.162 28.8299 13.4827 28.8299 12.7887C28.8299 11.7134 29.4482 10.7781 30.1906 10.7781C30.6675 10.7781 30.9725 11.2179 30.9725 11.2179ZM30.12 13.3392C30.5588 13.3392 30.771 12.7423 30.771 12.2953C30.771 11.8017 30.6212 11.5918 30.3293 11.5917C29.9739 11.5917 29.6922 12.0258 29.6922 12.6819C29.6922 13.0834 29.8283 13.3392 30.12 13.3392Z" fill="white"/>
<path d="M8.79407 14.1137L9.28772 11.0731L9.35958 14.1137H9.91776L10.9586 11.0731L10.4974 14.1137H11.3263L11.9653 10.0819H10.683L9.88465 12.5552L9.8431 10.0819H8.66158L8.01373 14.1137H8.79407Z" fill="white"/>
<path d="M21.2721 14.1194C21.5078 12.718 21.5515 11.5795 22.1144 11.7871C22.213 11.2449 22.3078 11.0353 22.4149 10.8054C22.4149 10.8054 22.3648 10.7943 22.2586 10.7943C21.8967 10.7943 21.6278 11.3124 21.6278 11.3124L21.6993 10.8367H20.9451L20.4405 14.1194H21.2721Z" fill="white"/>
<path fill-rule="evenodd" clip-rule="evenodd" d="M25.3264 10.942C25.3264 10.942 25.7519 10.7557 26.3072 10.7557C26.5947 10.7557 27.42 10.7876 27.4197 11.7769L27.1016 14.1098H26.3882L26.4146 13.7859C26.413 13.7861 26.4077 13.7923 26.3986 13.803C26.335 13.8783 26.0842 14.175 25.5841 14.175C25.2851 14.175 24.8024 14.0044 24.8024 13.2621C24.8024 12.3191 25.5375 12.0066 26.2379 12.0066C26.349 12.0066 26.5866 12.0276 26.5866 12.0276C26.5866 12.0276 26.6137 11.9701 26.6137 11.8147C26.6137 11.5581 26.3929 11.5229 26.0916 11.5229C25.5603 11.5229 25.2093 11.6717 25.2093 11.6717L25.3264 10.942ZM25.9076 13.4649C26.396 13.4649 26.4967 12.7968 26.4812 12.6542C26.4759 12.6534 26.4711 12.652 26.4652 12.6503C26.4448 12.6444 26.4121 12.6348 26.3045 12.6348C25.7119 12.6348 25.5914 12.9132 25.5914 13.1448C25.5914 13.2637 25.6565 13.4649 25.9076 13.4649Z" fill="white"/>
<path d="M28.0709 14.1194C28.3069 12.718 28.3505 11.5795 28.9134 11.7871C29.0119 11.2449 29.1068 11.0353 29.2144 10.8054C29.2144 10.8054 29.1635 10.7943 29.0579 10.7943C28.695 10.7943 28.4268 11.3124 28.4268 11.3124L28.499 10.8367H27.7443L27.2394 14.1192L28.0709 14.1194Z" fill="white"/>
</g>
<defs>
<clipPath id="clip0_8_150">
<rect width="25.4155" height="16" fill="white" transform="translate(7.29224 3.99999)"/>
</clipPath>
</defs>
</svg>
