<svg width="40" height="40" viewBox="0 0 40 40" fill="none" xmlns="http://www.w3.org/2000/svg">
<rect x="0.5" y="0.5" width="39" height="39" rx="3.5" fill="#FAFAFA"/>
<rect x="0.5" y="0.5" width="39" height="39" rx="3.5" stroke="#E6E6E6"/>
<path d="M26.685 16.93C26.685 16.415 27.1 16 27.615 16C28.13 16 28.545 16.415 28.545 16.93C28.545 17.445 28.13 17.865 27.615 17.865C27.1 17.865 26.685 17.445 26.685 16.93ZM13.285 19.75C13.72 20.24 13.965 20.87 13.965 21.525V24.76H12.535V21.485C12.53 20.84 12 20.315 11.355 20.315C11.32 20.315 11.28 20.32 11.235 20.32C10.66 20.38 10.175 20.925 10.175 21.515V24.755H8.75V21.49C8.745 20.845 8.22 20.315 7.575 20.315C7.54 20.315 7.5 20.32 7.455 20.32C6.88 20.38 6.395 20.925 6.395 21.52V24.755H5V21.48C5 20.05 6.165 18.89 7.59 18.89C8.305 18.89 8.985 19.19 9.475 19.705C9.965 19.185 10.65 18.89 11.365 18.89C11.445 18.89 11.515 18.895 11.595 18.9C12.245 18.96 12.845 19.26 13.285 19.75ZM22.87 24.765H21.445V16.14H22.87V24.765ZM25.6 24.765H24.175V16.14H25.6V24.765ZM28.33 24.76H26.905V19.04H28.33V24.76ZM35 22.41H30.66C30.855 23.1 31.48 23.585 32.205 23.585C32.775 23.585 33.285 23.295 33.58 22.81L33.64 22.715L34.82 23.295L34.75 23.41C34.215 24.315 33.23 24.875 32.18 24.875H32.175C31.375 24.875 30.625 24.56 30.055 23.985C29.485 23.41 29.18 22.65 29.19 21.85C29.2 21.065 29.51 20.325 30.06 19.77C30.61 19.215 31.35 18.905 32.135 18.895H32.17C32.925 18.895 33.63 19.195 34.17 19.74C34.705 20.285 35 21 35 21.755V22.41ZM30.68 21.23H33.555C33.35 20.62 32.765 20.19 32.115 20.19C31.465 20.19 30.885 20.62 30.68 21.23ZM20.675 21.89C20.675 23.535 19.335 24.88 17.69 24.88C16.045 24.88 14.705 23.535 14.705 21.89C14.705 20.245 16.04 18.9 17.69 18.9C19.335 18.9 20.675 20.24 20.675 21.89ZM19.26 21.89C19.26 21.025 18.555 20.315 17.69 20.315C16.825 20.315 16.12 21.02 16.12 21.89C16.12 22.755 16.825 23.465 17.69 23.465C18.555 23.465 19.26 22.76 19.26 21.89Z" fill="black"/>
</svg>
