<svg width="32" height="32" viewBox="0 0 32 32" fill="none" xmlns="http://www.w3.org/2000/svg">
<rect x="0.4" y="0.4" width="31.2" height="31.2" rx="2.8" fill="#FAFAFA"/>
<rect x="0.4" y="0.4" width="31.2" height="31.2" rx="2.8" stroke="#E6E6E6" stroke-width="0.8"/>
<path d="M20.7173 10.2617C20.374 9.96497 19.9854 9.72506 19.5663 9.55108C19.1117 9.37128 18.6397 9.23937 18.1578 9.15748C17.651 9.0794 17.1365 9.06368 16.6259 9.11067C16.0715 9.16372 15.5268 9.29184 15.0068 9.49151C14.1146 9.83703 13.2955 10.3473 12.592 10.9957C12.1981 11.356 11.8416 11.7552 11.5282 12.1872C11.1909 12.6616 10.9056 13.1709 10.6771 13.7063C10.4265 14.283 10.2416 14.886 10.1261 15.5041C10.0066 16.1522 9.96586 16.8122 10.0048 17.47C10.0868 18.8787 10.5404 20.2404 11.3197 21.4168C12.294 22.9134 13.6895 24.0882 15.3302 24.7933C16.7846 25.4205 18.3888 25.6163 19.9514 25.3571C21.3149 25.1319 22.5962 24.5548 23.6683 23.6827C24.6282 22.8994 25.401 21.9115 25.9299 20.7912C25.9635 20.718 25.9843 20.6396 25.9916 20.5593C26.0028 20.4746 26.0028 20.3888 25.9916 20.304C25.9801 20.2177 25.9572 20.1333 25.9236 20.053C25.8903 19.9768 25.8474 19.9053 25.7959 19.8402C25.7502 19.7825 25.6939 19.7341 25.6299 19.6976C25.5782 19.6677 25.5195 19.6516 25.4597 19.6508C25.4021 19.6503 25.3457 19.6674 25.298 19.6998C25.244 19.7379 25.1995 19.7882 25.1683 19.8466C24.6802 20.7542 23.9892 21.5369 23.1492 22.1338C22.2281 22.7861 21.1547 23.1906 20.0322 23.3082C18.7589 23.4417 17.4731 23.2285 16.311 22.6912C15.0054 22.0903 13.8886 21.1442 13.0813 19.9551C12.4576 19.052 12.0686 18.0079 11.9494 16.9169C11.8945 16.4032 11.8988 15.8849 11.9622 15.3722C12.0248 14.8784 12.1425 14.3931 12.3133 13.9254C12.4188 13.6327 12.5461 13.3482 12.6941 13.0744C12.8324 12.8141 12.9888 12.5639 13.1622 12.3255C13.4864 11.8817 13.8669 11.4819 14.2941 11.1362C14.4026 11.0489 14.5068 10.9681 14.6196 10.8915C14.7323 10.8149 14.843 10.7425 14.9557 10.6787C15.0685 10.6149 15.1834 10.5468 15.3025 10.4851C15.4217 10.4234 15.5344 10.3681 15.6536 10.3149C15.7727 10.2617 15.9195 10.2064 16.0557 10.1596C16.1919 10.1128 16.3217 10.0766 16.4557 10.0447C16.5897 10.0128 16.7217 9.98724 16.8557 9.96597C16.9897 9.94469 17.1195 9.93192 17.2514 9.92341C17.1387 9.96384 17.0259 10.0085 16.9174 10.0575C16.8039 10.107 16.6932 10.1623 16.5855 10.2234C16.4756 10.2842 16.369 10.351 16.2663 10.4234C16.1608 10.4967 16.0593 10.5755 15.9621 10.6596C15.894 10.717 15.8281 10.7787 15.7642 10.8404C15.7004 10.9021 15.6366 10.9702 15.577 11.0404C15.5174 11.1106 15.4557 11.1808 15.4004 11.2532C15.3451 11.3255 15.2876 11.4085 15.2345 11.4893C14.8072 12.1497 14.5405 12.901 14.4558 13.6829C14.3588 14.5446 14.4562 15.417 14.7408 16.236C15.0431 17.1135 15.5365 17.9129 16.1855 18.5764C16.848 19.26 17.6675 19.7712 18.5727 20.0657C19.0829 20.2315 19.6118 20.333 20.1471 20.3678C20.6371 20.3999 21.1292 20.3677 21.6109 20.2721C22.4836 20.1047 23.298 19.714 23.9747 19.1381C24.2816 18.8771 24.5565 18.5807 24.7938 18.2551C25.016 17.9488 25.2044 17.6192 25.3555 17.2722C25.4997 16.9386 25.6101 16.5915 25.6853 16.236C25.762 15.8863 25.8061 15.5301 25.8172 15.1722C25.8438 14.3334 25.7353 13.4958 25.4959 12.6914C25.2778 11.961 24.9637 11.2627 24.5619 10.6149C24.1699 9.98418 23.701 9.40458 23.1662 8.8894C22.6099 8.35169 21.988 7.88633 21.3152 7.50432C21.2734 7.47958 21.2282 7.46095 21.1811 7.44901C21.1402 7.43844 21.0977 7.43484 21.0556 7.43837C21.0196 7.43949 20.9844 7.44974 20.9535 7.46816C20.9245 7.48576 20.9015 7.51172 20.8875 7.54263C20.8779 7.57744 20.8779 7.6142 20.8875 7.64901C20.8932 7.69061 20.9077 7.73051 20.9301 7.76602C20.9539 7.80795 20.9841 7.84598 21.0194 7.87878C21.0564 7.91658 21.0987 7.94883 21.1449 7.97453C21.7538 8.31364 22.3153 8.7314 22.8151 9.21705C23.2965 9.68126 23.7162 10.2054 24.064 10.7766C24.4181 11.3579 24.6888 11.986 24.8683 12.6425C25.0622 13.3536 25.1342 14.0924 25.081 14.8276C25.0612 15.1258 25.0128 15.4215 24.9363 15.7105C24.8617 16.0045 24.7561 16.2898 24.6215 16.5616C24.4832 16.8392 24.314 17.1005 24.1172 17.3403C23.9086 17.5937 23.67 17.8209 23.4066 18.0168C23.1296 18.2258 22.8272 18.3988 22.5066 18.5317C22.1655 18.6724 21.8081 18.7696 21.4428 18.8211C21.0537 18.8761 20.6593 18.8832 20.2684 18.8423C19.8446 18.798 19.4275 18.7038 19.0259 18.5615C18.8619 18.5039 18.7014 18.4372 18.545 18.3615C18.2321 18.2084 17.9374 18.0207 17.6663 17.8019C17.53 17.6939 17.4 17.5781 17.277 17.4551C17.5313 17.5831 17.797 17.6871 18.0706 17.7658C18.3354 17.8437 18.6067 17.8978 18.8812 17.9275C19.1463 17.9551 19.4133 17.9587 19.679 17.9381C19.9371 17.9183 20.1927 17.8748 20.4428 17.8083C20.8028 17.7144 21.1505 17.5787 21.479 17.4041C21.7792 17.2432 22.0604 17.0491 22.3173 16.8254C22.5558 16.6138 22.7699 16.3761 22.9555 16.1169C23.1348 15.866 23.286 15.5964 23.4066 15.3126C23.5254 15.0391 23.6153 14.7539 23.6747 14.4616C23.7316 14.1814 23.7615 13.8964 23.764 13.6106C23.7663 13.3334 23.745 13.0565 23.7002 12.7829C23.6567 12.5109 23.592 12.2427 23.5066 11.9808C23.2883 11.338 22.9742 10.7319 22.5747 10.183C22.1889 9.65297 21.7338 9.17711 21.2215 8.76812C20.6951 8.34451 20.1158 7.9912 19.4982 7.71708C18.8247 7.41669 18.1131 7.2105 17.3833 7.10433C16.3953 6.96106 15.3915 6.96537 14.4047 7.1171C11.9834 7.49421 9.77355 8.71592 8.16654 10.566C7.11708 11.7724 6.37862 13.2171 6.01553 14.7744C5.98958 14.8774 5.99627 14.9859 6.03468 15.085C6.07544 15.1811 6.14257 15.2637 6.2283 15.3233C6.32911 15.3916 6.44275 15.4386 6.56232 15.4616C6.70679 15.489 6.85462 15.494 7.00062 15.4765C7.1552 15.4585 7.30681 15.4206 7.45167 15.3637C7.58631 15.3089 7.71354 15.2374 7.83038 15.1509C7.93599 15.0748 8.02865 14.9821 8.10484 14.8765C8.17215 14.7861 8.21733 14.6811 8.23676 14.5701C8.44859 13.2874 8.97164 12.0762 9.76013 11.0425C10.4263 10.1699 11.2577 9.43685 12.2069 8.88515C13.8063 7.95461 15.6653 7.57069 17.5025 7.79155C18.1357 7.86955 18.7547 8.03718 19.3407 8.28941C19.8823 8.52212 20.3904 8.82623 20.8513 9.19364C21.2986 9.55036 21.6945 9.96704 22.0279 10.4319C22.3695 10.9103 22.6338 11.4394 22.8109 12C22.8793 12.2188 22.9291 12.443 22.9598 12.6702C22.9906 12.8943 23.0006 13.1208 22.9896 13.3467C22.9777 13.5749 22.9442 13.8015 22.8896 14.0233C22.83 14.2517 22.7473 14.4734 22.6428 14.685C22.4225 15.132 22.1048 15.5239 21.713 15.8318C21.5025 15.9994 21.2733 16.1422 21.0301 16.2573C20.7671 16.3772 20.4916 16.4679 20.2088 16.5275C19.9766 16.5761 19.7397 16.5989 19.5024 16.5956C19.2575 16.5928 19.0135 16.5635 18.7748 16.5084C18.5271 16.4516 18.286 16.3689 18.0557 16.2616C17.8167 16.1498 17.59 16.0136 17.3791 15.8552C17.1659 15.6934 16.9679 15.5125 16.7876 15.3148C16.6112 15.1183 16.455 14.9044 16.3217 14.6765C16.0349 14.2148 15.903 13.6737 15.9451 13.1318C15.9604 12.9476 15.9961 12.7657 16.0515 12.5893C16.0919 12.4808 16.1387 12.3765 16.1897 12.2723C16.2408 12.168 16.2919 12.0723 16.3429 11.9829C16.5531 11.6101 16.8439 11.2888 17.194 11.0425C17.515 10.8192 17.8763 10.6603 18.2578 10.5745C18.63 10.4914 19.0142 10.4762 19.3918 10.5298C19.7335 10.5795 20.0639 10.6882 20.3684 10.8511C20.4166 10.8776 20.4681 10.8976 20.5216 10.9106C20.5694 10.9189 20.6184 10.9189 20.6662 10.9106C20.7103 10.9044 20.7525 10.8884 20.7896 10.8638C20.8257 10.8415 20.8551 10.8099 20.8747 10.7723C20.8953 10.7334 20.9076 10.6907 20.9109 10.6468C20.9119 10.6 20.9054 10.5533 20.8918 10.5085C20.8768 10.4607 20.8546 10.4155 20.8258 10.3745C20.7947 10.3298 20.7574 10.2897 20.7152 10.2553" fill="#00AAB9"/>
</svg>
