<svg width="40" height="40" viewBox="0 0 40 40" fill="none" xmlns="http://www.w3.org/2000/svg">
<rect x="0.5" y="0.5" width="39" height="39" rx="3.5" fill="#FAFAFA"/>
<rect x="0.5" y="0.5" width="39" height="39" rx="3.5" stroke="#E6E6E6"/>
<path d="M31.02 27.408L31.0531 30.9609C31.0531 30.9713 31.0489 30.9812 31.0416 30.9885C31.0343 30.9959 31.0243 31 31.014 31H9.04912C9.03875 31 9.02881 30.9959 9.02148 30.9885C9.01414 30.9812 9.01002 30.9713 9.01002 30.9609L9 9.03916C8.99999 9.03172 9.0021 9.02443 9.00608 9.01815C9.01007 9.01187 9.01577 9.00685 9.0225 9.0037C9.02924 9.00054 9.03674 8.99937 9.04412 9.00032C9.0515 9.00128 9.05845 9.00432 9.06416 9.00909L31.0059 27.378C31.0103 27.3816 31.0139 27.3862 31.0163 27.3914C31.0187 27.3966 31.02 27.4023 31.02 27.408Z" fill="#00ACED"/>
<path d="M30.9669 25.9895L20.8486 17.5273C20.8448 17.5243 20.8418 17.5205 20.8397 17.5162C20.8376 17.5118 20.8365 17.5071 20.8365 17.5023C20.8365 17.4975 20.8376 17.4927 20.8397 17.4884C20.8418 17.484 20.8448 17.4802 20.8486 17.4772L30.9669 9.01508C30.9715 9.01105 30.9772 9.00843 30.9833 9.00754C30.9894 9.00665 30.9956 9.00753 31.0011 9.01006C31.0067 9.01259 31.0115 9.01668 31.0148 9.02183C31.0182 9.02699 31.02 9.03299 31.02 9.03914V25.9654C31.02 25.9715 31.0182 25.9776 31.0148 25.9827C31.0115 25.9879 31.0067 25.9919 31.0011 25.9945C30.9956 25.997 30.9894 25.9979 30.9833 25.997C30.9772 25.9961 30.9715 25.9935 30.9669 25.9895Z" fill="#004A70"/>
</svg>
