<svg
  width="40"
  height="40"
  viewBox="0 0 40 40"
  fill="none"
  xmlns="http://www.w3.org/2000/svg"
>
  <rect width="40" height="40" rx="20" fill="white" />
  <g clip-path="url(#clip0_3861_1398)">
    <path
      d="M9.67016 15C9.08568 15 8.55552 15.1894 8.14879 15.5386L8.03046 15.1242H7.01084V20.282H8.30915V17.4785C8.30915 16.8781 8.71378 16.2701 9.48743 16.2701C10.0927 16.2701 10.4542 16.6933 10.4542 17.4023V20.282H11.7525V17.3066C11.7525 15.8837 10.9546 15 9.67016 15Z"
      fill="#323642"
    />
    <path
      fill-rule="evenodd"
      clip-rule="evenodd"
      d="M20.9482 17.6409C20.9482 16.16 22.1197 15 23.6152 15C25.1108 15 26.2826 16.16 26.2826 17.6409C26.2826 19.1219 25.1108 20.282 23.6152 20.282C22.1197 20.282 20.9482 19.1219 20.9482 17.6409ZM23.6152 19.0391C24.3808 19.0391 24.9365 18.4511 24.9365 17.6409C24.9365 16.8309 24.3808 16.2433 23.6152 16.2433C22.8496 16.2433 22.2938 16.8309 22.2938 17.6409C22.2938 18.4511 22.8496 19.0391 23.6152 19.0391Z"
      fill="#323642"
    />
    <path
      fill-rule="evenodd"
      clip-rule="evenodd"
      d="M13.6832 17.6409C13.6832 16.16 14.8548 15 16.3503 15C17.8459 15 19.0175 16.16 19.0175 17.6409C19.0175 19.1219 17.8459 20.282 16.3503 20.282C14.8548 20.282 13.6832 19.1219 13.6832 17.6409ZM16.3503 19.0391C17.1159 19.0391 17.6716 18.4511 17.6716 17.6409C17.6716 16.8309 17.1159 16.2433 16.3503 16.2433C15.5846 16.2433 15.0288 16.8309 15.0288 17.6409C15.0288 18.4511 15.5846 19.0391 16.3503 19.0391Z"
      fill="#323642"
    />
    <path
      d="M30.8725 15C30.288 15 29.7579 15.1894 29.3512 15.5386L29.2328 15.1242H28.2133V20.282H29.5115V17.4785C29.5115 16.8781 29.9162 16.2701 30.6898 16.2701C31.2951 16.2701 31.6563 16.6933 31.6563 17.4023V20.282H32.9549V17.3066C32.9549 15.8837 32.157 15 30.8725 15Z"
      fill="#323642"
    />
    <path
      d="M7.51467 26.6747V25.2636C7.65855 25.5015 7.96846 25.6952 8.37798 25.6952C9.15829 25.6952 9.61761 25.0809 9.61761 24.2895C9.61761 23.5148 9.19149 22.9005 8.39458 22.9005C7.96293 22.9005 7.64749 23.1108 7.5036 23.3764V22.9614H7V26.6747H7.51467ZM9.08634 24.2895C9.08634 24.8374 8.78197 25.2304 8.30051 25.2304C7.82458 25.2304 7.50913 24.8374 7.50913 24.2895C7.50913 23.7583 7.82458 23.3598 8.30051 23.3598C8.7875 23.3598 9.08634 23.7583 9.08634 24.2895Z"
      fill="#2E4AA2"
    />
    <path
      d="M10.4465 24.9094C10.4465 25.33 10.7951 25.7063 11.3374 25.7063C11.8134 25.7063 12.079 25.4517 12.1952 25.2635C12.1952 25.4572 12.2118 25.5568 12.2229 25.6232H12.732C12.721 25.5568 12.6988 25.4185 12.6988 25.1861V23.8524C12.6988 23.3321 12.3889 22.8784 11.592 22.8784C11.0165 22.8784 10.5572 23.2325 10.5018 23.7417L10.9999 23.8579C11.0331 23.548 11.2378 23.3211 11.6031 23.3211C12.0071 23.3211 12.1786 23.5369 12.1786 23.797C12.1786 23.8911 12.1344 23.9741 11.9739 23.9962L11.2544 24.1014C10.7951 24.1678 10.4465 24.4334 10.4465 24.9094ZM11.4094 25.2691C11.1438 25.2691 10.9777 25.0809 10.9777 24.8817C10.9777 24.6437 11.1438 24.5164 11.3651 24.4832L12.1786 24.3615V24.4832C12.1786 25.0643 11.8355 25.2691 11.4094 25.2691Z"
      fill="#2E4AA2"
    />
    <path
      d="M14.4513 26.7356L16.1835 22.9614H15.6245L14.8276 24.7987L13.9975 22.9614H13.3999L14.5454 25.33L13.8813 26.7356H14.4513Z"
      fill="#2E4AA2"
    />
    <path
      d="M17.5307 25.6233V24.0184C17.5307 23.6199 17.7797 23.3432 18.1505 23.3432C18.549 23.3432 18.715 23.6089 18.715 23.952V25.6233H19.2352V24.0129C19.2352 23.631 19.4842 23.3432 19.8495 23.3432C20.2424 23.3432 20.4139 23.6033 20.4139 23.952V25.6233H20.9286V23.8967C20.9286 23.1993 20.4748 22.8839 20.0099 22.8839C19.6724 22.8839 19.3293 23.0057 19.119 23.3875C18.9751 23.0444 18.6541 22.8839 18.3221 22.8839C18.0121 22.8839 17.6801 23.0223 17.5141 23.3156V22.9614H17.016V25.6233H17.5307Z"
      fill="#2E4AA2"
    />
    <path
      d="M22.4307 24.0184C22.4528 23.6753 22.7184 23.3377 23.1556 23.3377C23.626 23.3377 23.8751 23.6365 23.8861 24.0184H22.4307ZM23.9636 24.7101C23.864 25.009 23.6482 25.2469 23.2165 25.2469C22.7682 25.2469 22.4251 24.9149 22.4141 24.439H24.4174C24.4229 24.4058 24.4285 24.3393 24.4285 24.2729C24.4285 23.4428 23.9691 22.8784 23.1501 22.8784C22.4805 22.8784 21.8773 23.4484 21.8773 24.284C21.8773 25.1861 22.5026 25.7063 23.2165 25.7063C23.8363 25.7063 24.2624 25.3355 24.4119 24.8651L23.9636 24.7101Z"
      fill="#2E4AA2"
    />
    <path
      d="M25.9447 24.0848C25.9447 23.6808 26.155 23.3543 26.5645 23.3543C27.0295 23.3543 27.1844 23.6531 27.1844 24.0239V25.6233H27.7046V23.9354C27.7046 23.3432 27.3891 22.8839 26.7527 22.8839C26.4428 22.8839 26.1275 23.0112 25.9338 23.3432V22.9614H25.4246V25.6233H25.9447V24.0848Z"
      fill="#2E4AA2"
    />
    <path
      d="M29.5614 22.1202H29.0854V22.5519C29.0854 22.7843 28.9637 22.9614 28.6759 22.9614H28.5321V23.4318H29.0412V24.8928C29.0412 25.3743 29.3289 25.651 29.7828 25.651C29.9598 25.651 30.0927 25.6178 30.1369 25.6012V25.1584C30.0927 25.1695 29.9986 25.1806 29.9323 25.1806C29.6609 25.1806 29.5614 25.0588 29.5614 24.8153V23.4318H30.1369V22.9614H29.5614V22.1202Z"
      fill="#2E4AA2"
    />
    <path
      d="M30.9414 24.9315C30.9856 25.2359 31.2955 25.7063 32.026 25.7063C32.6846 25.7063 33 25.258 33 24.8817C33 24.4888 32.7455 24.1955 32.264 24.0903L31.8323 23.9962C31.6275 23.952 31.5279 23.8358 31.5279 23.6753C31.5279 23.4926 31.7051 23.3211 31.9706 23.3211C32.3912 23.3211 32.5019 23.6255 32.524 23.7638L32.9834 23.5923C32.928 23.3543 32.7011 22.8784 31.9706 22.8784C31.4504 22.8784 31.0243 23.2657 31.0243 23.7195C31.0243 24.0958 31.2734 24.3781 31.6885 24.4666L32.1422 24.5663C32.3636 24.6161 32.4853 24.7433 32.4853 24.9094C32.4853 25.0975 32.3249 25.2635 32.0316 25.2635C31.6552 25.2635 31.4449 25.0422 31.4117 24.7655L30.9414 24.9315Z"
      fill="#2E4AA2"
    />
  </g>
  <defs>
    <clipPath id="clip0_3861_1398">
      <rect
        width="26"
        height="11.7484"
        fill="white"
        transform="translate(7 15)"
      />
    </clipPath>
  </defs>
</svg>
