<svg
  width="24"
  height="24"
  viewBox="0 0 24 24"
  fill="none"
  xmlns="http://www.w3.org/2000/svg"
>
  <rect x="0.3" y="0.3" width="23.4" height="23.4" rx="2.1" fill="#023D55" />
  <rect
    x="0.3"
    y="0.3"
    width="23.4"
    height="23.4"
    rx="2.1"
    stroke="#E6E6E6"
    stroke-width="0.6"
  />
  <g clip-path="url(#clip0_1202_25985)">
    <path
      d="M5.03008 10.982C5.10052 10.8897 5.19646 10.812 5.31791 10.7488C5.43935 10.6857 5.57658 10.6541 5.7296 10.6541C5.90448 10.6541 6.06357 10.6978 6.20687 10.7852C6.35261 10.8703 6.46676 10.9905 6.54934 11.1459C6.63193 11.3014 6.67322 11.4799 6.67322 11.6815C6.67322 11.8831 6.63193 12.064 6.54934 12.2244C6.46676 12.3822 6.35261 12.5061 6.20687 12.596C6.06357 12.6834 5.90448 12.7271 5.7296 12.7271C5.57658 12.7271 5.44057 12.6968 5.32155 12.636C5.20253 12.5729 5.10538 12.4952 5.03008 12.4029V13.6489H4.61475V10.6869H5.03008V10.982ZM6.25059 11.6815C6.25059 11.5431 6.22145 11.424 6.16315 11.3245C6.10729 11.2224 6.03199 11.1459 5.93727 11.0949C5.84497 11.0415 5.74538 11.0148 5.63852 11.0148C5.53407 11.0148 5.43449 11.0415 5.33977 11.0949C5.24747 11.1484 5.17217 11.2261 5.11388 11.3281C5.05802 11.4301 5.03008 11.5503 5.03008 11.6888C5.03008 11.8272 5.05802 11.9487 5.11388 12.0531C5.17217 12.1551 5.24747 12.2329 5.33977 12.2863C5.43449 12.3397 5.53407 12.3664 5.63852 12.3664C5.74538 12.3664 5.84497 12.3397 5.93727 12.2863C6.03199 12.2304 6.10729 12.1503 6.16315 12.0458C6.22145 11.9414 6.25059 11.8199 6.25059 11.6815ZM6.9455 11.6815C6.9455 11.4799 6.98679 11.3014 7.06937 11.1459C7.15438 10.9905 7.26853 10.8703 7.41184 10.7852C7.55758 10.6978 7.71788 10.6541 7.89275 10.6541C8.05061 10.6541 8.18786 10.6857 8.30445 10.7488C8.42349 10.8095 8.51821 10.886 8.58863 10.9783V10.6869H9.00761V12.6943H8.58863V12.3956C8.51821 12.4903 8.42222 12.5693 8.3008 12.6324C8.17938 12.6956 8.04094 12.7271 7.88547 12.7271C7.71302 12.7271 7.55514 12.6834 7.41184 12.596C7.26853 12.5061 7.15438 12.3822 7.06937 12.2244C6.98679 12.064 6.9455 11.8831 6.9455 11.6815ZM8.58863 11.6888C8.58863 11.5503 8.55948 11.4301 8.50119 11.3281C8.44535 11.2261 8.37122 11.1484 8.27894 11.0949C8.18667 11.0415 8.08704 11.0148 7.98019 11.0148C7.87332 11.0148 7.77374 11.0415 7.68145 11.0949C7.58915 11.1459 7.51386 11.2224 7.45556 11.3245C7.39969 11.424 7.37177 11.5431 7.37177 11.6815C7.37177 11.8199 7.39969 11.9414 7.45556 12.0458C7.51386 12.1503 7.58915 12.2304 7.68145 12.2863C7.77617 12.3397 7.87576 12.3664 7.98019 12.3664C8.08704 12.3664 8.18667 12.3397 8.27894 12.2863C8.37122 12.2329 8.44535 12.1551 8.50119 12.0531C8.55948 11.9487 8.58863 11.8272 8.58863 11.6888ZM11.3602 10.6869L10.1288 13.638H9.69886L10.1069 12.6616L9.31631 10.6869H9.77901L10.3437 12.2171L10.9303 10.6869H11.3602ZM12.089 9.99829V12.6943H11.6737V9.99829H12.089ZM13.5051 12.7271C13.3156 12.7271 13.1444 12.6846 12.9914 12.5996C12.8383 12.5122 12.7181 12.3907 12.6307 12.2353C12.5432 12.0774 12.4995 11.8952 12.4995 11.6888C12.4995 11.4848 12.5444 11.3038 12.6343 11.1459C12.7241 10.9881 12.8468 10.8666 13.0023 10.7816C13.1577 10.6966 13.3314 10.6541 13.5233 10.6541C13.7151 10.6541 13.8888 10.6966 14.0443 10.7816C14.1997 10.8666 14.3224 10.9881 14.4122 11.1459C14.5021 11.3038 14.5471 11.4848 14.5471 11.6888C14.5471 11.8928 14.5009 12.0738 14.4086 12.2316C14.3163 12.3895 14.19 12.5122 14.0297 12.5996C13.8718 12.6846 13.6969 12.7271 13.5051 12.7271ZM13.5051 12.3664C13.6119 12.3664 13.7115 12.3409 13.8038 12.2899C13.8985 12.2389 13.9751 12.1624 14.0333 12.0604C14.0916 11.9584 14.1208 11.8345 14.1208 11.6888C14.1208 11.5431 14.0928 11.4204 14.037 11.3208C13.9811 11.2188 13.907 11.1423 13.8147 11.0913C13.7224 11.0403 13.6228 11.0148 13.516 11.0148C13.4091 11.0148 13.3095 11.0403 13.2172 11.0913C13.1274 11.1423 13.0557 11.2188 13.0023 11.3208C12.9488 11.4204 12.9221 11.5431 12.9221 11.6888C12.9221 11.905 12.9768 12.0725 13.0861 12.1916C13.1978 12.3082 13.3375 12.3664 13.5051 12.3664ZM14.8192 11.6815C14.8192 11.4799 14.8604 11.3014 14.9431 11.1459C15.028 10.9905 15.1422 10.8703 15.2855 10.7852C15.4313 10.6978 15.5916 10.6541 15.7664 10.6541C15.9243 10.6541 16.0615 10.6857 16.1781 10.7488C16.2972 10.8095 16.3919 10.886 16.4623 10.9783V10.6869H16.8813V12.6943H16.4623V12.3956C16.3919 12.4903 16.2959 12.5693 16.1745 12.6324C16.0531 12.6956 15.9146 12.7271 15.7592 12.7271C15.5867 12.7271 15.4288 12.6834 15.2855 12.596C15.1422 12.5061 15.028 12.3822 14.9431 12.2244C14.8604 12.064 14.8192 11.8831 14.8192 11.6815ZM16.4623 11.6888C16.4623 11.5503 16.4332 11.4301 16.3749 11.3281C16.319 11.2261 16.2449 11.1484 16.1526 11.0949C16.0604 11.0415 15.9607 11.0148 15.8539 11.0148C15.747 11.0148 15.6474 11.0415 15.5551 11.0949C15.4629 11.1459 15.3875 11.2224 15.3292 11.3245C15.2734 11.424 15.2454 11.5431 15.2454 11.6815C15.2454 11.8199 15.2734 11.9414 15.3292 12.0458C15.3875 12.1503 15.4629 12.2304 15.5551 12.2863C15.6499 12.3397 15.7494 12.3664 15.8539 12.3664C15.9607 12.3664 16.0604 12.3397 16.1526 12.2863C16.2449 12.2329 16.319 12.1551 16.3749 12.0531C16.4332 11.9487 16.4623 11.8272 16.4623 11.6888ZM17.2884 11.6815C17.2884 11.4799 17.3296 11.3014 17.4122 11.1459C17.4972 10.9905 17.6114 10.8703 17.7547 10.7852C17.9004 10.6978 18.0619 10.6541 18.2393 10.6541C18.3704 10.6541 18.4991 10.6832 18.6255 10.7415C18.7542 10.7974 18.8562 10.8727 18.9315 10.9674V9.99829H19.3505V12.6943H18.9315V12.3919C18.8635 12.4891 18.7687 12.5693 18.6473 12.6324C18.5283 12.6956 18.3911 12.7271 18.2356 12.7271C18.0607 12.7271 17.9004 12.6834 17.7547 12.596C17.6114 12.5061 17.4972 12.3822 17.4122 12.2244C17.3296 12.064 17.2884 11.8831 17.2884 11.6815ZM18.9315 11.6888C18.9315 11.5503 18.9024 11.4301 18.8441 11.3281C18.7882 11.2261 18.7141 11.1484 18.6218 11.0949C18.5295 11.0415 18.4299 11.0148 18.3231 11.0148C18.2162 11.0148 18.1166 11.0415 18.0243 11.0949C17.932 11.1459 17.8567 11.2224 17.7984 11.3245C17.7426 11.424 17.7146 11.5431 17.7146 11.6815C17.7146 11.8199 17.7426 11.9414 17.7984 12.0458C17.8567 12.1503 17.932 12.2304 18.0243 12.2863C18.119 12.3397 18.2186 12.3664 18.3231 12.3664C18.4299 12.3664 18.5295 12.3397 18.6218 12.2863C18.7141 12.2329 18.7882 12.1551 18.8441 12.0531C18.9024 11.9487 18.9315 11.8272 18.9315 11.6888Z"
      fill="#C7EBF7"
    />
    <path
      d="M1 11.4355C1.14661 11.2796 1.26245 11.1285 1.34753 10.9822C1.38172 10.9222 1.40912 10.8587 1.42971 10.7918V8.88525C1.42971 8.88001 1.43253 8.87517 1.43711 8.87255L2.96178 8V8.86911L2.21344 9.29859C2.20886 9.30122 2.20605 9.30605 2.20605 9.31128V11.0039C2.19347 11.0676 2.17166 11.1266 2.14061 11.1811C2.08843 11.2706 2.01718 11.3631 1.92687 11.4586C2.01317 11.5481 2.08342 11.6396 2.1376 11.7331C2.17025 11.7882 2.19307 11.8484 2.20605 11.9137V13.6682C2.20605 13.6734 2.20886 13.6782 2.21344 13.6809L2.96178 14.1103V15.0064L1.43711 14.1338C1.43253 14.1312 1.42971 14.1264 1.42971 14.1211V12.0903C1.40813 12.0208 1.37909 11.9552 1.34257 11.8934C1.25427 11.7407 1.14008 11.5912 1 11.445V11.4355Z"
      fill="url(#paint0_linear_1202_25985)"
    />
    <path
      d="M23.0001 11.4355C22.8483 11.2796 22.7283 11.1285 22.6402 10.9822C22.6047 10.9222 22.5764 10.8587 22.5551 10.7918V8.88525C22.5551 8.88001 22.5521 8.87517 22.5474 8.87255L20.9683 8V8.86911L21.7433 9.29859C21.7481 9.30122 21.751 9.30605 21.751 9.31128V11.0039C21.764 11.0676 21.7866 11.1266 21.8188 11.181C21.8728 11.2706 21.9466 11.3631 22.0401 11.4586C21.9508 11.5481 21.878 11.6396 21.8218 11.7331C21.7881 11.7882 21.7644 11.8484 21.751 11.9137V13.6682C21.751 13.6734 21.7481 13.6782 21.7433 13.6809L20.9683 14.1103V15.0064L22.5474 14.1338C22.5521 14.1312 22.5551 14.1264 22.5551 14.1211V12.0903C22.5774 12.0208 22.6075 11.9552 22.6453 11.8934C22.7367 11.7407 22.855 11.5912 23.0001 11.445V11.4355Z"
      fill="url(#paint1_linear_1202_25985)"
    />
  </g>
  <defs>
    <linearGradient
      id="paint0_linear_1202_25985"
      x1="1.98089"
      y1="8"
      x2="1.98089"
      y2="15.0064"
      gradientUnits="userSpaceOnUse"
    >
      <stop stop-color="#4DBCA0" />
      <stop offset="1" stop-color="#1D798F" />
    </linearGradient>
    <linearGradient
      id="paint1_linear_1202_25985"
      x1="21.9842"
      y1="8"
      x2="21.9842"
      y2="15.0064"
      gradientUnits="userSpaceOnUse"
    >
      <stop stop-color="#4DBCA0" />
      <stop offset="1" stop-color="#1D798F" />
    </linearGradient>
    <clipPath id="clip0_1202_25985">
      <rect
        width="22"
        height="7.00637"
        fill="white"
        transform="translate(1 8)"
      />
    </clipPath>
  </defs>
</svg>
