<svg width="40" height="40" viewBox="0 0 40 40" fill="none" xmlns="http://www.w3.org/2000/svg">
<rect x="0.5" y="0.5" width="39" height="39" rx="3.5" fill="#FAFAFA"/>
<rect x="0.5" y="0.5" width="39" height="39" rx="3.5" stroke="#E6E6E6"/>
<path fill-rule="evenodd" clip-rule="evenodd" d="M20.3445 9.41501C16.401 9.40945 13.1882 12.6354 13.1825 16.6056C13.1801 18.1435 13.1939 21.4284 13.2002 22.8584C13.1994 22.8662 13.1979 22.8736 13.1979 22.8813L13.1888 29.4775C13.1888 29.6366 13.3148 29.7652 13.4707 29.7655C13.6265 29.7655 13.7527 29.637 13.7528 29.4783L13.7607 23.8331C14.8342 23.8289 18.7885 23.8143 20.3253 23.8164C24.2693 23.8217 27.4824 20.5962 27.4878 16.6254C27.493 12.655 24.2889 9.4202 20.3449 9.41489M20.3259 23.2413C18.7929 23.2391 14.8542 23.2537 13.7662 23.2579C13.7611 22.1742 13.7441 18.3123 13.7466 16.6065C13.7514 12.9534 16.7114 9.98487 20.3443 9.98993C23.9773 9.99511 26.9287 12.9715 26.9239 16.6249C26.9189 20.2781 23.959 23.2461 20.3259 23.2413Z" fill="#DB0011"/>
<path fill-rule="evenodd" clip-rule="evenodd" d="M20.4186 7.00001C15.2322 6.99318 11.0076 11.2093 11.0003 16.399C10.9967 19.0205 11.0277 25.4953 11.028 25.5586L11.0229 29.4525C11.0222 30.1121 11.4596 31.9973 13.4158 32C15.5094 32.0029 15.9832 30.1925 15.9839 29.5581C15.9846 29.0963 16.018 26.6466 16.0295 25.8308C17.4841 25.8258 18.9387 25.8233 20.3933 25.8235C25.5796 25.8308 29.8044 21.6145 29.8116 16.4248C29.8186 11.2352 25.6051 7.00734 20.4186 7.00001ZM20.3939 25.2473C19.5141 25.2459 17.973 25.2486 15.8125 25.2552C15.7856 25.2552 15.7593 25.259 15.7337 25.2667L15.6684 25.2859C15.548 25.3222 15.4652 25.4326 15.464 25.5583C15.4621 25.6986 15.416 29.0006 15.4148 29.5573C15.4148 29.5761 15.3267 31.4261 13.4164 31.4234C11.6673 31.4208 11.5915 29.4726 11.5915 29.4528L11.597 25.5574C11.5966 25.4922 11.5656 19.019 11.5693 16.3992C11.5756 11.5274 15.5451 7.56961 20.4176 7.57619C25.2905 7.5834 29.249 11.5522 29.2425 16.4239C29.2358 21.2956 25.2663 25.254 20.3939 25.2473Z" fill="#DB0011"/>
<path fill-rule="evenodd" clip-rule="evenodd" d="M20.4125 11.6095C17.6719 11.6056 15.4393 13.8259 15.4355 16.5594C15.4336 17.9025 15.4497 21.2187 15.4497 21.252C15.4506 21.4082 15.576 21.5344 15.7306 21.5347H15.732C15.7668 21.5347 19.1866 21.5209 20.399 21.5226C23.1398 21.5265 25.3727 19.306 25.3763 16.5729C25.38 13.8398 23.1532 11.6132 20.4125 11.6095ZM20.3996 20.9547C19.3912 20.9535 16.8583 20.9626 16.0109 20.9656C16.007 20.13 15.9962 17.6698 15.9976 16.5598C16.001 14.1401 17.9814 12.1738 20.4119 12.1772C22.8425 12.1807 24.8172 14.1522 24.8138 16.5722C24.8105 18.9921 22.8305 20.9581 20.3996 20.9547Z" fill="#DB0011"/>
</svg>
