<svg version="1.1" id="Layer_1" xmlns="http://www.w3.org/2000/svg" xmlns:xlink="http://www.w3.org/1999/xlink" x="0px" y="0px" viewBox="0 0 280.6 50" style="enable-background:new 0 0 280.6 50;" xml:space="preserve">
 <style type="text/css">
  .st0{fill:#00C3F7;}
	.st1{fill:#011B33;}
 </style>
 <g>
  <g>
   <path class="st0" d="M39.9,4.8H2.3C1.1,4.8,0,5.8,0,7.1v4.2c0,1.3,1.1,2.4,2.3,2.4h37.6c1.3,0,2.3-1.1,2.4-2.4V7.2
			C42.3,5.8,41.2,4.8,39.9,4.8L39.9,4.8z M39.9,28.4H2.3c-0.6,0-1.2,0.3-1.7,0.7c-0.4,0.4-0.7,1-0.7,1.7V35c0,1.3,1.1,2.4,2.3,2.4
			h37.6c1.3,0,2.3-1,2.4-2.4v-4.2C42.3,29.4,41.2,28.4,39.9,28.4L39.9,28.4z M23.5,40.1H2.3c-0.6,0-1.2,0.2-1.6,0.7
			c-0.4,0.4-0.7,1-0.7,1.7v4.2c0,1.3,1.1,2.4,2.3,2.4h21.1c1.3,0,2.3-1.1,2.3-2.4v-4.3C25.8,41.2,24.8,40.1,23.5,40.1L23.5,40.1z
			 M42.3,16.6h-40c-0.6,0-1.2,0.2-1.6,0.7c-0.4,0.4-0.7,1-0.7,1.7v4.2c0,1.3,1.1,2.4,2.3,2.4h39.9c1.3,0,2.3-1.1,2.3-2.4v-4.2
			C44.6,17.6,43.6,16.6,42.3,16.6L42.3,16.6z M42.3,16.6">
   </path>
   <path class="st1" d="M86,14.3c-1.2-1.2-2.5-2.1-4.1-2.8c-1.5-0.7-3.2-1-4.9-1c-1.6,0-3.2,0.3-4.7,1c-1,0.5-1.9,1.1-2.6,1.9v-0.7
			c0-0.4-0.2-0.7-0.4-1c-0.3-0.3-0.6-0.5-1-0.5h-5.3c-0.4,0-0.8,0.2-1,0.5c-0.3,0.3-0.4,0.6-0.4,1v35c0,0.4,0.2,0.7,0.4,1
			c0.3,0.3,0.6,0.4,1,0.4h5.3c0.4,0,0.7-0.1,1-0.4c0.3-0.3,0.4-0.6,0.4-1v-12c0.8,0.8,1.7,1.5,2.8,1.8c1.4,0.5,2.9,0.8,4.3,0.8
			c1.7,0,3.4-0.3,4.9-1c1.6-0.6,3-1.6,4.1-2.8c1.2-1.3,2.2-2.8,2.8-4.4c0.7-1.8,1.1-3.8,1-5.7c0-2-0.3-3.9-1-5.8
			C88.2,17.1,87.2,15.6,86,14.3L86,14.3z M81.3,27c-0.3,0.7-0.7,1.4-1.2,2c-1.1,1.2-2.6,1.8-4.2,1.8c-0.8,0-1.6-0.2-2.3-0.5
			c-0.7-0.3-1.4-0.8-1.9-1.3c-0.5-0.6-1-1.3-1.3-2c-0.6-1.6-0.6-3.3,0-4.9c0.3-0.7,0.7-1.4,1.3-2c0.6-0.6,1.2-1,1.9-1.4
			c0.7-0.3,1.5-0.5,2.3-0.5c0.8,0,1.6,0.2,2.4,0.5c0.7,0.3,1.3,0.8,1.9,1.3c0.5,0.6,0.9,1.2,1.2,2C81.9,23.6,81.9,25.4,81.3,27
			L81.3,27z M118.5,11.3h-5.3c-0.4,0-0.7,0.2-1,0.4c-0.3,0.3-0.4,0.7-0.4,1.1v0.6c-0.7-0.8-1.5-1.4-2.4-1.8c-1.4-0.7-3-1-4.6-1
			c-3.4,0-6.7,1.4-9.1,3.8c-1.2,1.3-2.2,2.8-2.9,4.4c-0.8,1.8-1.1,3.8-1.1,5.8c0,2,0.3,4,1.1,5.8c0.7,1.6,1.7,3.1,2.9,4.4
			c2.4,2.4,5.6,3.8,9,3.8c1.6,0,3.2-0.3,4.6-1c0.9-0.5,1.8-1.1,2.4-1.8v0.7c0,0.4,0.2,0.7,0.4,1c0.3,0.2,0.6,0.4,1,0.4h5.3
			c0.4,0,0.7-0.2,1-0.4c0.3-0.3,0.4-0.6,0.4-1V12.8c0-0.4-0.1-0.7-0.4-1C119.2,11.4,118.9,11.3,118.5,11.3L118.5,11.3z M111.3,26.9
			c-0.3,0.7-0.7,1.4-1.2,2c-0.5,0.5-1.2,1-1.9,1.4c-1.5,0.7-3.2,0.7-4.7,0c-0.7-0.3-1.4-0.8-1.9-1.4c-0.5-0.6-1-1.3-1.2-2
			c-0.6-1.6-0.6-3.3,0-4.9c0.3-0.7,0.7-1.4,1.2-2c0.5-0.6,1.2-1,1.9-1.4c1.5-0.7,3.2-0.7,4.7,0c0.7,0.3,1.3,0.8,1.9,1.3
			c0.5,0.6,0.9,1.2,1.2,2C112,23.6,112,25.4,111.3,26.9L111.3,26.9z M171.2,23.8c-0.8-0.7-1.6-1.2-2.6-1.6c-1-0.4-2-0.7-3.1-0.9
			l-4-0.8c-1-0.2-1.8-0.5-2.2-0.8c-0.3-0.2-0.5-0.6-0.5-1c0-0.4,0.2-0.8,0.8-1.1c0.7-0.4,1.5-0.6,2.2-0.5c1,0,2.1,0.2,3,0.6
			c0.9,0.4,1.8,0.9,2.6,1.4c1.2,0.7,2.2,0.6,2.9-0.2l1.9-2.2c0.4-0.4,0.6-0.9,0.6-1.4c0-0.5-0.3-1.1-0.7-1.4
			c-0.8-0.7-2.1-1.5-3.9-2.2c-1.7-0.7-3.9-1.1-6.5-1.1c-1.6,0-3.1,0.2-4.6,0.7c-1.3,0.4-2.5,1-3.5,1.8c-1,0.7-1.7,1.7-2.3,2.8
			c-0.5,1.1-0.8,2.2-0.8,3.4c0,2.2,0.7,4,2,5.3c1.3,1.3,3,2.2,5.2,2.6l4.2,0.9c0.9,0.2,1.8,0.4,2.7,0.8c0.5,0.2,0.8,0.6,0.8,1.2
			c0,0.5-0.2,0.9-0.8,1.3c-0.5,0.4-1.4,0.6-2.5,0.6c-1.1,0-2.3-0.2-3.3-0.7c-1-0.5-1.9-1.1-2.7-1.8c-0.4-0.3-0.8-0.5-1.2-0.7
			c-0.5-0.1-1.1,0-1.7,0.5l-2.3,1.8c-0.6,0.5-1,1.3-0.8,2c0.1,0.8,0.8,1.5,1.9,2.4c2.9,2,6.4,3,9.9,2.9c1.6,0,3.3-0.2,4.8-0.7
			c1.4-0.4,2.6-1,3.7-1.9c1-0.8,1.9-1.8,2.4-2.9c0.6-1.1,0.8-2.3,0.8-3.6c0-1.1-0.2-2.2-0.7-3.3C172.5,25.3,171.9,24.5,171.2,23.8
			L171.2,23.8z M194.2,30.2c-0.2-0.4-0.7-0.7-1.2-0.8c-0.5,0-1,0.2-1.4,0.4c-0.6,0.4-1.4,0.7-2.2,0.7c-0.2,0-0.5,0-0.8-0.1
			c-0.3,0-0.5-0.2-0.7-0.4c-0.2-0.2-0.4-0.5-0.6-0.8c-0.2-0.4-0.3-0.9-0.2-1.4v-9.6h6.9c0.4,0,0.8-0.2,1.1-0.5
			c0.3-0.3,0.5-0.6,0.5-1v-4.1c0-0.4-0.2-0.8-0.5-1c-0.3-0.3-0.6-0.4-1-0.4h-6.9V4.7c0-0.4-0.1-0.8-0.4-1c-0.3-0.3-0.6-0.4-1-0.4
			h-5.3c-0.4,0-0.8,0.1-1,0.4c-0.3,0.3-0.4,0.7-0.4,1v6.6h-3c-0.4,0-0.8,0.2-1,0.5c-0.3,0.3-0.4,0.6-0.4,1v4.1c0,0.4,0.1,0.7,0.4,1
			c0.2,0.3,0.6,0.5,1,0.5h3v11.4c0,1.4,0.2,2.7,0.8,3.9c0.5,1,1.2,1.9,2,2.6c0.8,0.7,1.8,1.2,2.9,1.5c1.1,0.3,2.2,0.5,3.3,0.5
			c1.5,0,2.9-0.2,4.3-0.7c1.3-0.4,2.5-1.2,3.4-2.1c0.6-0.6,0.7-1.6,0.2-2.3L194.2,30.2z M223.2,11.3h-5.3c-0.4,0-0.7,0.2-1,0.4
			c-0.3,0.3-0.4,0.7-0.4,1.1v0.6c-0.7-0.8-1.5-1.4-2.4-1.8c-1.4-0.7-3-1-4.6-1c-3.4,0-6.6,1.4-9,3.8c-1.2,1.3-2.2,2.8-2.9,4.4
			c-0.8,1.8-1.1,3.8-1.1,5.7c0,2,0.3,3.9,1.1,5.8c0.7,1.6,1.7,3.1,2.9,4.4c2.4,2.4,5.6,3.8,9,3.8c1.6,0,3.2-0.3,4.6-1
			c0.9-0.5,1.8-1.1,2.4-1.8v0.7c0,0.4,0.1,0.7,0.4,1c0.3,0.3,0.6,0.4,1,0.4h5.3c0.8,0,1.4-0.6,1.4-1.4V12.8c0-0.4-0.1-0.7-0.4-1
			C223.9,11.4,223.6,11.3,223.2,11.3L223.2,11.3z M216,26.9c-0.3,0.7-0.7,1.4-1.2,2c-0.6,0.5-1.2,1-1.9,1.4
			c-0.7,0.3-1.6,0.5-2.4,0.5c-0.8,0-1.6-0.2-2.3-0.5c-0.7-0.3-1.4-0.8-1.9-1.4c-0.5-0.6-1-1.3-1.2-2c-0.6-1.6-0.6-3.3,0-4.9
			c0.3-0.7,0.7-1.4,1.2-2c0.6-0.6,1.2-1,1.9-1.4c0.7-0.3,1.5-0.5,2.3-0.5c0.8,0,1.6,0.2,2.4,0.5c0.7,0.3,1.3,0.8,1.9,1.3
			c0.5,0.6,1,1.2,1.2,2C216.7,23.6,216.7,25.4,216,26.9L216,26.9z M252.2,29.8l-3-2.3c-0.6-0.5-1.1-0.6-1.6-0.4
			c-0.4,0.2-0.8,0.5-1.1,0.8c-0.7,0.8-1.4,1.5-2.3,2.1c-0.9,0.5-1.9,0.8-3,0.7c-1.2,0-2.3-0.3-3.3-1c-1-0.7-1.7-1.7-2.1-2.8
			c-0.3-0.8-0.4-1.6-0.4-2.4c0-0.8,0.1-1.7,0.4-2.5c0.3-0.7,0.7-1.4,1.2-2c0.6-0.6,1.2-1,1.9-1.3c0.7-0.3,1.6-0.5,2.4-0.5
			c1,0,2.1,0.2,2.9,0.7c0.9,0.6,1.6,1.3,2.3,2.1c0.3,0.3,0.7,0.6,1.1,0.8c0.5,0.2,1,0.1,1.6-0.4l3-2.3c0.4-0.3,0.7-0.6,0.8-1
			c0.2-0.5,0.1-1-0.1-1.4c-1.2-1.8-2.8-3.3-4.7-4.4c-2-1.1-4.4-1.7-7.1-1.7c-1.9,0-3.8,0.4-5.5,1.1c-1.7,0.7-3.2,1.7-4.5,3
			c-1.3,1.3-2.3,2.8-3,4.4c-1.4,3.5-1.4,7.5,0,11c0.7,1.7,1.7,3.2,3,4.4c2.7,2.6,6.2,4,10,4c2.7,0,5.1-0.6,7.1-1.7
			c1.9-1.1,3.5-2.6,4.7-4.4c0.3-0.4,0.3-0.9,0.1-1.4C252.8,30.5,252.5,30.1,252.2,29.8L252.2,29.8z M280.3,35.3l-8.3-12.3l7.1-9.4
			c0.3-0.4,0.4-1,0.3-1.5c-0.1-0.4-0.5-0.8-1.3-0.8h-5.6c-0.3,0-0.6,0.1-0.9,0.2c-0.4,0.2-0.6,0.4-0.8,0.8l-5.7,8h-1.4V1.4
			c0-0.4-0.1-0.7-0.4-1c-0.3-0.3-0.6-0.4-1-0.4h-5.3c-0.4,0-0.7,0.1-1,0.4c-0.3,0.3-0.4,0.6-0.4,1v34.8c0,0.4,0.2,0.8,0.4,1
			c0.3,0.3,0.6,0.4,1,0.4h5.3c0.4,0,0.7-0.2,1-0.4c0.3-0.3,0.4-0.6,0.4-1V27h1.5l6.2,9.6c0.4,0.7,1.1,1.1,1.8,1.1h5.9
			c0.9,0,1.3-0.4,1.4-0.8C280.7,36.4,280.6,35.8,280.3,35.3L280.3,35.3z M148.5,11.3h-5.9c-0.4,0-0.9,0.1-1.2,0.5
			c-0.3,0.3-0.5,0.6-0.5,1L136.5,29h-1.1l-4.7-16.3c-0.1-0.3-0.2-0.7-0.5-1c-0.3-0.3-0.7-0.5-1.1-0.5h-6.1c-0.8,0-1.3,0.3-1.5,0.8
			c-0.2,0.5-0.2,1,0,1.4l7.5,22.9c0.1,0.3,0.3,0.7,0.6,0.9c0.3,0.3,0.7,0.4,1.1,0.4h3.2l-0.3,0.7l-0.7,2.1c-0.2,0.6-0.6,1.2-1.2,1.7
			c-0.5,0.4-1.1,0.6-1.8,0.6c-0.5,0-1.1-0.1-1.6-0.3c-0.5-0.2-1-0.5-1.4-0.8c-0.4-0.3-0.9-0.4-1.3-0.4h-0.1c-0.6,0-1.1,0.3-1.3,0.8
			l-1.9,2.8c-0.8,1.2-0.3,2,0.2,2.4c1,0.9,2.2,1.6,3.5,2.1c1.4,0.5,2.9,0.7,4.5,0.7c2.7,0,5-0.7,6.7-2.2c1.8-1.6,3.1-3.7,3.8-6
			l8.7-28.3c0.2-0.5,0.2-1,0-1.5C149.7,11.6,149.3,11.3,148.5,11.3L148.5,11.3z M148.5,11.3">
   </path>
  </g>
 </g>
</svg>