<svg width="40" height="40" viewBox="0 0 40 40" fill="none" xmlns="http://www.w3.org/2000/svg">
<rect x="0.5" y="0.5" width="39" height="39" rx="3.5" fill="#FAFAFA"/>
<rect x="0.5" y="0.5" width="39" height="39" rx="3.5" stroke="#E6E6E6"/>
<g clip-path="url(#clip0_1_17)">
<path d="M34.9032 17.9491C34.6389 17.121 33.9215 16.5265 33.0813 16.5265H33.0624C32.5149 16.5265 32.0216 16.7783 31.67 17.1807C31.3184 16.7783 30.8251 16.5265 30.2776 16.5265H30.2611C29.7796 16.5265 29.3383 16.7212 29.0008 17.0405V16.8795C28.989 16.716 28.8687 16.5888 28.7176 16.5888H27.4243C27.2662 16.5888 27.1388 16.729 27.1388 16.9029V24.6236C27.1388 24.7975 27.2662 24.9377 27.4243 24.9377H28.7176C28.8616 24.9377 28.9819 24.8183 28.9985 24.6677V19.1251C28.9985 19.1044 28.9985 19.0888 29.0008 19.0706C29.0221 18.824 29.1873 18.6189 29.4469 18.5955H29.6852C29.7938 18.6059 29.8858 18.6475 29.9566 18.7124C30.0699 18.811 30.1313 18.9616 30.1313 19.1277L30.136 24.6417C30.136 24.8157 30.2634 24.9585 30.4216 24.9585H31.7148C31.8682 24.9585 31.991 24.8261 31.998 24.6599V19.1225C31.998 18.9408 32.0736 18.7747 32.2081 18.6786C32.2742 18.6319 32.3544 18.6007 32.4465 18.5903H32.6848C32.9657 18.6163 33.1332 18.8499 33.1332 19.1225L33.1379 24.6314C33.1379 24.8053 33.2654 24.9455 33.4235 24.9455H34.7168C34.8678 24.9455 34.9929 24.8157 35.0024 24.6521V18.6111C34.9953 18.271 34.9552 18.1127 34.9032 17.9491ZM26.1523 16.6096H25.4136V15.2908C25.4136 15.2882 25.4136 15.2882 25.4136 15.2856C25.4136 15.1298 25.2979 15 25.1516 15C25.1351 15 25.1186 15.0026 25.1021 15.0052C24.2831 15.2518 24.446 16.5005 22.9497 16.607H22.8057C22.7845 16.607 22.7633 16.6096 22.742 16.6147C22.6169 16.6485 22.5202 16.7731 22.5202 16.9237V18.3463C22.5202 18.5202 22.6476 18.6604 22.8057 18.6604H23.5846L23.5822 24.6885C23.5822 24.8598 23.7096 25 23.8654 25H25.1445C25.3003 25 25.4277 24.8598 25.4277 24.6885V18.6604H26.1523C26.308 18.6604 26.4378 18.5177 26.4378 18.3463V16.9237C26.4378 16.7497 26.3104 16.6096 26.1523 16.6096Z" fill="#00BAF2"/>
<path d="M21.503 16.6096H20.2097C20.054 16.6096 19.9242 16.7497 19.9242 16.9237V19.865C19.9218 20.0467 19.7873 20.1921 19.6221 20.1921H19.0816C18.9141 20.1921 18.7772 20.0441 18.7772 19.8598L18.7725 16.9237C18.7725 16.7497 18.645 16.6096 18.4869 16.6096H17.1936C17.0355 16.6096 16.908 16.7497 16.908 16.9237V20.1454C16.908 21.3681 17.701 22.243 18.8149 22.243C18.8149 22.243 19.6504 22.243 19.6764 22.2482C19.8274 22.2664 19.943 22.4065 19.943 22.5779C19.943 22.7466 19.8298 22.8868 19.6787 22.9076C19.6716 22.9076 19.6646 22.9102 19.6575 22.9128L17.7671 22.9206C17.609 22.9206 17.4815 23.0607 17.4815 23.2347V24.6547C17.4815 24.8287 17.609 24.9688 17.7671 24.9688H19.8793C20.9932 24.9688 21.7862 24.0966 21.7862 22.8738V16.9237C21.7886 16.7497 21.6611 16.6096 21.503 16.6096ZM14.1492 16.6173H12.3556C12.1974 16.6173 12.0676 16.7497 12.0676 16.9107V17.4637C12.0676 17.4663 12.0676 17.4714 12.0676 17.474C12.0676 17.4792 12.0676 17.4818 12.0676 17.487V18.2451C12.0676 18.4164 12.2045 18.5592 12.3721 18.5592H14.0807C14.2153 18.5826 14.3215 18.6916 14.338 18.8603V19.0447C14.3238 19.2056 14.2176 19.3224 14.0878 19.3354H13.2429C12.1172 19.3354 11.3171 20.1584 11.3171 21.311V22.9647C11.3171 24.1121 12.0063 24.9273 13.1226 24.9273H15.4661C15.8861 24.9273 16.2284 24.5768 16.2284 24.1459V18.7513C16.2284 17.4429 15.6147 16.6173 14.1492 16.6173ZM14.3545 22.5519V22.7752C14.3545 22.7934 14.3521 22.8115 14.3498 22.8271C14.3474 22.8427 14.3427 22.8583 14.338 22.8738C14.2979 22.9984 14.1846 23.0893 14.05 23.0893H13.512C13.3444 23.0893 13.2075 22.9491 13.2075 22.7752V22.5078C13.2075 22.5052 13.2075 22.5 13.2075 22.4974V21.7835V21.5602V21.5576C13.2075 21.3863 13.3444 21.2461 13.512 21.2461H14.05C14.2176 21.2461 14.3545 21.3863 14.3545 21.5602V22.5519ZM9.10579 16.607H6.28084C6.12508 16.607 6 16.7471 6 16.9159V18.31C6 18.3126 6 18.3152 6 18.3178C6 18.3255 6 18.3307 6 18.3359V24.6417C6 24.8131 6.11564 24.9533 6.26196 24.9559H7.57886C7.73698 24.9559 7.86442 24.8157 7.86442 24.6417L7.86914 22.4818H9.10579C10.1395 22.4818 10.8617 21.6926 10.8617 20.5478V18.5436C10.8617 17.4013 10.1395 16.607 9.10579 16.607ZM8.99251 19.2134V20.0909C8.99251 20.2752 8.85799 20.4258 8.69043 20.4258H7.8715V18.6682H8.69043C8.85799 18.6682 8.99251 18.8162 8.99251 19.0005V19.2134Z" fill="#20336B"/>
</g>
<defs>
<clipPath id="clip0_1_17">
<rect width="29" height="10" fill="white" transform="translate(6 15)"/>
</clipPath>
</defs>
</svg>
