<svg width="40" height="40" viewBox="0 0 40 40" fill="none" xmlns="http://www.w3.org/2000/svg">
<rect width="40" height="40" rx="20" fill="white"/>
<path fill-rule="evenodd" clip-rule="evenodd" d="M27.9371 15.1459C27.9123 15.1703 27.899 15.2987 27.899 15.5148C27.899 15.7309 27.9123 15.8593 27.9371 15.8838C27.9895 15.9354 28.6659 15.9354 28.7183 15.8838C28.7431 15.8593 28.7564 15.7309 28.7564 15.5148C28.7564 15.2987 28.7431 15.1703 28.7183 15.1459C28.6659 15.0943 27.9895 15.0943 27.9371 15.1459ZM28.8199 16.0151C28.7621 16.072 28.7564 16.1193 28.7564 16.5396C28.7564 16.9072 28.7665 17.0159 28.8058 17.0712C28.8536 17.1383 28.8733 17.1407 29.3922 17.1407C29.8905 17.1407 29.9314 17.1363 29.962 17.0802C29.9805 17.046 29.9948 16.8102 29.9948 16.5379C29.9948 16.1108 29.9882 16.0502 29.9367 16.0043C29.8879 15.9608 29.7995 15.9526 29.381 15.9526C28.9257 15.9526 28.878 15.9579 28.8199 16.0151ZM27.2422 17.1722C27.1516 17.2081 27.1051 17.2975 27.1051 17.4357V17.5471H26.877C26.7121 17.5471 26.6117 17.5649 26.5147 17.6111C26.2754 17.7252 26.2795 17.6901 26.2793 19.5879C26.2792 20.6939 26.2675 21.2942 26.2445 21.3773C26.1921 21.566 26.0688 21.7036 25.8701 21.7953C25.7077 21.8701 25.6571 21.8774 25.2951 21.8775C25.0529 21.8776 24.8399 21.8609 24.7487 21.8348C24.6664 21.8113 24.5395 21.7418 24.4667 21.6804C24.2232 21.4752 24.2332 21.559 24.2154 19.5749C24.2001 17.8596 24.1976 17.8016 24.1361 17.7337C24.018 17.6033 23.8989 17.5784 23.3988 17.5791C23.0087 17.5797 22.9072 17.5897 22.7983 17.6384C22.694 17.685 22.6564 17.725 22.614 17.8341C22.566 17.9581 22.5619 18.1464 22.5724 19.7837C22.5828 21.407 22.5899 21.6158 22.6404 21.7838C22.7388 22.1114 22.9084 22.3917 23.1539 22.6324C23.3306 22.8058 23.4482 22.8881 23.6794 23.0001C23.8432 23.0795 24.0914 23.1728 24.2309 23.2074C24.6204 23.3038 25.1612 23.3398 25.6275 23.3003C26.1138 23.2591 26.4384 23.1805 26.7726 23.0233C27.0894 22.8741 27.3727 22.6221 27.5629 22.32C27.7424 22.0349 27.828 21.7806 27.8669 21.4167C27.884 21.2575 27.8981 20.6101 27.8985 19.9781L27.899 18.8291H28.2339C28.5471 18.8291 28.5738 18.8241 28.6467 18.7523L28.7246 18.6756V17.2703L28.641 17.2055C28.5626 17.1447 28.5181 17.1408 27.9344 17.1427C27.5918 17.1437 27.2803 17.157 27.2422 17.1722ZM10.5215 17.6229C10.3561 17.681 10.2602 17.7479 10.1711 17.867C9.99928 18.0969 10.0052 17.9985 10.0052 20.6492C10.0052 22.9671 10.0085 23.1136 10.0617 23.166C10.1038 23.2076 10.1818 23.2245 10.3694 23.2329C10.6041 23.2434 10.6261 23.2389 10.7019 23.1642L10.7831 23.0842V21.2138L11.7755 21.1962C12.8655 21.1768 13.0478 21.1534 13.4019 20.987C13.7552 20.8209 14.0015 20.5295 14.1393 20.1141C14.1684 20.0264 14.1935 19.7915 14.2037 19.512C14.2169 19.1498 14.2091 19.004 14.1667 18.8163C14.0913 18.4825 13.9274 18.1755 13.7323 18.0029C13.6443 17.9249 13.4841 17.8188 13.3764 17.7671C13.0286 17.6001 12.8303 17.5783 11.6782 17.5798C10.896 17.5808 10.611 17.5915 10.5215 17.6229ZM12.7043 18.3448C13.0529 18.4172 13.2696 18.6012 13.3633 18.9042C13.4183 19.0821 13.4143 19.7128 13.3569 19.9077C13.2919 20.1283 13.082 20.3286 12.8313 20.4093C12.6595 20.4645 12.5486 20.4706 11.704 20.4706H10.7673V19.5169C10.7673 18.9925 10.7785 18.5237 10.7922 18.4754C10.8365 18.319 10.9397 18.3001 11.7517 18.2993C12.2767 18.2988 12.5445 18.3116 12.7043 18.3448ZM15.0514 18.8732C14.7956 18.9209 14.7045 18.9611 14.658 19.0466C14.6169 19.1222 14.6157 19.4251 14.6561 19.5297C14.6949 19.6302 14.8087 19.6591 14.9895 19.6143C15.0667 19.5952 15.3095 19.5644 15.5291 19.5459C16.0274 19.504 16.4055 19.5424 16.649 19.6597C16.7752 19.7205 16.838 19.7763 16.903 19.8856C16.9826 20.0193 16.9894 20.0575 16.9903 20.3757L16.9912 20.7207L16.1815 20.7399C15.5886 20.754 15.3183 20.7728 15.1723 20.8101C14.7497 20.9182 14.4879 21.1075 14.3333 21.4166C14.231 21.6212 14.2285 21.6358 14.2285 22.0339C14.2285 22.4317 14.2311 22.4468 14.3329 22.6504C14.5056 22.9957 14.8291 23.2219 15.2872 23.3175C15.5583 23.3741 16.2792 23.3741 16.6017 23.3174C16.7367 23.2937 16.9474 23.2289 17.0698 23.1733C17.35 23.0462 17.5707 22.8248 17.6766 22.5647C17.7512 22.3814 17.7529 22.3558 17.7631 21.2366C17.7703 20.4577 17.7619 20.0362 17.7368 19.909C17.6368 19.404 17.2967 19.0634 16.7355 18.9065C16.4783 18.8346 15.3752 18.8128 15.0514 18.8732ZM18.0763 18.9689C18.0471 18.9977 18.0233 19.0619 18.0233 19.1116C18.0233 19.2028 18.8157 22.0796 18.9626 22.522C19.0619 22.8208 19.1897 23.021 19.3577 23.1409C19.521 23.2573 19.7835 23.3138 20.0323 23.2861C20.217 23.2655 20.2195 23.2663 20.1992 23.3375C20.1878 23.3772 20.1291 23.5107 20.0687 23.6343C19.9414 23.8948 19.7477 24.0817 19.5423 24.1423C19.4675 24.1643 19.3141 24.1952 19.2015 24.2109C19.0889 24.2266 18.9777 24.255 18.9546 24.274C18.9042 24.3151 18.8998 24.5207 18.9459 24.684C18.9644 24.7496 19.0141 24.8242 19.0583 24.8528C19.1224 24.8941 19.1876 24.9003 19.3981 24.8853C20.1725 24.83 20.6544 24.3984 20.9243 23.5183C21.074 23.0303 22.0244 19.2377 22.0244 19.1283C22.0244 18.9816 21.9337 18.9229 21.7077 18.923C21.5001 18.9231 21.3536 18.9978 21.3009 19.1302C21.2813 19.1796 21.0999 19.9023 20.8978 20.7363C20.6956 21.5704 20.5141 22.295 20.4943 22.3466C20.4744 22.3982 20.4226 22.4785 20.3792 22.5251C20.2347 22.68 19.8678 22.6705 19.7614 22.5091C19.6917 22.4035 19.6435 22.2405 19.2006 20.6135C18.8521 19.3332 18.7759 19.087 18.707 19.0192C18.6362 18.9494 18.5933 18.9375 18.3774 18.9279C18.1775 18.9189 18.119 18.9269 18.0763 18.9689ZM17.0322 21.5256C17.0425 21.7943 16.9704 22.199 16.891 22.3183C16.7546 22.5234 16.4435 22.6245 15.9433 22.6264C15.5329 22.6279 15.313 22.568 15.1539 22.4115C14.9849 22.2451 14.9296 21.9475 15.0208 21.6957C15.0446 21.6301 15.0887 21.5496 15.1189 21.5167C15.2002 21.4282 15.4129 21.3359 15.6103 21.3033C15.7061 21.2875 16.0632 21.2766 16.4038 21.279L17.023 21.2835L17.0322 21.5256Z" fill="#9EAF3F"/>
</svg>
