<svg width="40" height="40" viewBox="0 0 40 40" fill="none" xmlns="http://www.w3.org/2000/svg">
<rect x="0.5" y="0.5" width="39" height="39" rx="3.5" fill="#FAFAFA"/>
<rect x="0.5" y="0.5" width="39" height="39" rx="3.5" stroke="#E6E6E6"/>
<g clip-path="url(#clip0_1299_665)">
<path fill-rule="evenodd" clip-rule="evenodd" d="M17.3185 8L10.045 9.905L8.0405 17.2195L10.5475 19.7935L8 22.325L9.8865 29.6715L17.1285 31.695L19.6765 29.163L22.1835 31.7365L29.457 29.8315L31.461 22.5165L28.9545 19.9435L31.502 17.412L29.6155 10.065L22.3725 8.0415L19.8255 10.573L17.3185 8ZM12.855 11.312L16.6865 10.308L18.362 12.028L15.9185 14.456L12.855 11.312ZM21.266 12.051L22.9685 10.3595L26.7835 11.4255L23.67 14.519L21.266 12.051ZM10.336 16.619L11.3915 12.7665L14.454 15.9105L12.011 18.3385L10.336 16.6185V16.619ZM25.1095 15.9975L28.223 12.903L29.216 16.773L27.514 18.465L25.1095 15.9975ZM17.3585 15.934L19.802 13.506L22.2055 15.974L19.7625 18.402L17.3585 15.934ZM13.4515 19.8165L15.8945 17.3885L18.2995 19.8565L15.8555 22.2845L13.4515 19.8165ZM21.203 19.88L23.646 17.452L26.05 19.92L23.6065 22.348L21.203 19.88ZM10.285 22.9635L11.988 21.271L14.3915 23.7395L11.279 26.8325L10.285 22.9635ZM17.2955 23.7625L19.739 21.3345L22.143 23.8025L19.7 26.2305L17.2955 23.7625ZM25.0465 23.8265L27.49 21.3985L29.1655 23.118L28.1105 26.9705L25.0465 23.8265ZM12.7185 28.3115L15.8315 25.217L18.2365 27.685L16.5335 29.3775L12.7185 28.3115ZM21.14 27.7085L23.583 25.2805L26.646 28.425L22.815 29.4285L21.14 27.7085Z" fill="#111111"/>
</g>
<defs>
<clipPath id="clip0_1299_665">
<rect width="24" height="24" fill="white" transform="translate(8 8)"/>
</clipPath>
</defs>
</svg>
