<svg width="40" height="40" viewBox="0 0 40 40" fill="none" xmlns="http://www.w3.org/2000/svg">
<rect x="0.5" y="0.5" width="39" height="39" rx="3.5" fill="#FAFAFA"/>
<rect x="0.5" y="0.5" width="39" height="39" rx="3.5" stroke="#E6E6E6"/>
<path d="M19.0083 19.995L16.0293 22.9401C15.974 22.9954 15.9463 22.9841 15.9463 22.9062V20.9467C15.9463 20.8666 15.9746 20.7977 16.031 20.7401L25.9283 10.8445C25.9341 10.8385 25.9387 10.8314 25.9417 10.8236C25.9447 10.8158 25.9461 10.8075 25.9458 10.7992C25.9455 10.7909 25.9434 10.7829 25.9399 10.7755C25.9363 10.7682 25.9312 10.7617 25.9249 10.7565C19.6265 5.53684 10.0069 10.3415 10.6082 18.5419C10.8588 21.9477 12.8047 24.7675 15.8684 26.3222C15.9204 26.3482 15.9463 26.3899 15.9463 26.4475V27.9548C15.9463 28.0192 15.9164 28.0383 15.8566 28.0124C11.4702 26.1054 8.59448 21.8562 9.04667 16.9956C9.71563 9.78434 16.9523 5.15747 23.7825 7.70801C29.9455 10.0096 32.728 17.3936 29.4357 23.2077C27.6033 26.4447 24.7163 28.3093 20.7747 28.8016C20.7508 28.8045 20.7288 28.8159 20.7129 28.8337C20.697 28.8515 20.6882 28.8744 20.6884 28.8981V32.8509C20.6884 32.9514 20.6387 33.0011 20.5393 33L19.2674 32.9915C19.2008 32.9915 19.1675 32.9576 19.1675 32.8899L19.1557 20.0559C19.1557 19.9171 19.1066 19.8967 19.0083 19.995ZM27.0257 11.9911L20.7815 18.2269C20.7654 18.243 20.7526 18.2619 20.7439 18.2825C20.7352 18.3032 20.7307 18.3251 20.7307 18.3471V27.0894C20.7307 27.1582 20.7651 27.1899 20.834 27.1842C28.362 26.4763 31.7322 17.7679 27.1612 11.9996C27.1195 11.9465 27.0743 11.9437 27.0257 11.9911Z" fill="#FC4F00"/>
</svg>
