<svg width="139" height="22" viewBox="0 0 139 22" fill="none" xmlns="http://www.w3.org/2000/svg">
<path d="M17.9574 19.3836L30.6503 4.77238L25.4423 0.25L8.22705 20.0692C9.61067 21.2632 11.4105 21.8613 13.2336 21.7329C15.0567 21.6044 16.7549 20.7599 17.9574 19.3836Z" fill="#00BEA6"/>
<path d="M6.37159 18.4906L11.7116 12.3454C10.0563 10.855 7.88688 10.0657 5.66084 10.144C4.57778 10.1949 3.51666 10.4672 2.54301 10.9443C1.56936 11.4214 0.70387 12.0931 0 12.9178L6.37159 18.4906Z" fill="#5A4CFF"/>
<path d="M50.1362 6.85547V20.2402H53.6585V6.85547H50.1362Z" fill="white"/>
<path d="M60.0867 10.5384C60.0867 9.78992 60.9232 9.20497 62.1938 9.20497C63.4278 9.20706 64.6305 9.59403 65.6343 10.312L67.3891 8.21746C65.8804 7.09991 64.0459 6.50978 62.1686 6.53808C58.6463 6.53808 56.6839 8.5068 56.6839 10.7523C56.6839 16.0168 64.6342 14.2117 64.6342 16.4131C64.6342 17.2434 63.9172 17.8535 62.3887 17.8535C61.0023 17.7924 59.6576 17.3601 58.4953 16.6018L56.6084 18.8032C58.2384 19.9879 60.2105 20.6085 62.2252 20.5707C65.9362 20.5707 68.0181 18.6837 68.0181 16.2747C68.0181 10.8718 60.0867 12.5323 60.0867 10.5384Z" fill="white"/>
<path d="M86.2461 6.85547V20.2402H89.7684V6.85547H86.2461Z" fill="white"/>
<path d="M122.331 13.894C122.331 9.49117 119.614 6.52237 115.626 6.52237C114.705 6.50751 113.791 6.67947 112.939 7.02787C112.086 7.37626 111.313 7.89385 110.667 8.54937C110.02 9.20488 109.513 9.9847 109.176 10.8417C108.839 11.6987 108.68 12.6151 108.707 13.5355C108.707 17.8315 111.783 20.5738 115.859 20.5738C117.851 20.6363 119.801 19.9849 121.356 18.7372L119.192 16.9257C118.3 17.4566 117.286 17.749 116.249 17.7749C113.978 17.7749 112.613 16.3597 112.393 14.674H122.343L122.331 13.894ZM112.324 12.2901C112.389 11.4666 112.769 10.6997 113.383 10.1474C113.997 9.59505 114.8 9.2994 115.626 9.32134C116.038 9.29502 116.452 9.35139 116.842 9.48716C117.232 9.62293 117.592 9.83535 117.899 10.1119C118.206 10.3885 118.455 10.7237 118.63 11.0978C118.806 11.4718 118.905 11.8772 118.922 12.2901H112.324Z" fill="white"/>
<path d="M106.191 6.85547H102.669V20.2402H106.191V6.85547Z" fill="white"/>
<path d="M100.172 1.43164V4.50736C100.172 4.50736 98.159 4.36899 97.5551 4.76525C97.3445 4.94999 97.1826 5.18381 97.0839 5.44602C96.9852 5.70822 96.9526 5.99072 96.989 6.26851V6.85347H100.178V9.93548H96.989V20.2382H93.4353V6.26851C93.4353 3.46325 95.1965 1.55744 97.6809 1.43164H100.172Z" fill="white"/>
<path d="M79.799 20.2408L75.9119 15.0391L74.264 16.7751V20.2408H70.7417V3.62305H74.264V12.7496L79.2959 6.84972H83.6547L78.4216 12.8628L83.9315 20.2408H79.799Z" fill="white"/>
<path d="M50.1362 6.85547V20.2402H53.6585V6.85547H50.1362Z" fill="#080E3F"/>
<path d="M60.0867 10.5384C60.0867 9.78992 60.9232 9.20497 62.1938 9.20497C63.4278 9.20706 64.6305 9.59403 65.6343 10.312L67.3891 8.21746C65.8804 7.09991 64.0459 6.50978 62.1686 6.53808C58.6463 6.53808 56.6839 8.5068 56.6839 10.7523C56.6839 16.0168 64.6342 14.2117 64.6342 16.4131C64.6342 17.2434 63.9172 17.8535 62.3887 17.8535C61.0023 17.7924 59.6576 17.3601 58.4953 16.6018L56.6084 18.8032C58.2384 19.9879 60.2105 20.6085 62.2252 20.5707C65.9362 20.5707 68.0181 18.6837 68.0181 16.2747C68.0181 10.8718 60.0867 12.5323 60.0867 10.5384Z" fill="#080E3F"/>
<path d="M86.2461 6.85547V20.2402H89.7684V6.85547H86.2461Z" fill="#080E3F"/>
<path d="M122.331 13.894C122.331 9.49117 119.614 6.52237 115.626 6.52237C114.705 6.50751 113.791 6.67947 112.939 7.02787C112.086 7.37626 111.313 7.89385 110.667 8.54937C110.02 9.20488 109.513 9.9847 109.176 10.8417C108.839 11.6987 108.68 12.6151 108.707 13.5355C108.707 17.8315 111.783 20.5738 115.859 20.5738C117.851 20.6363 119.801 19.9849 121.356 18.7372L119.192 16.9257C118.3 17.4566 117.286 17.749 116.249 17.7749C113.978 17.7749 112.613 16.3597 112.393 14.674H122.343L122.331 13.894ZM112.324 12.2901C112.389 11.4666 112.769 10.6997 113.383 10.1474C113.997 9.59505 114.8 9.2994 115.626 9.32134C116.038 9.29502 116.452 9.35139 116.842 9.48716C117.232 9.62293 117.592 9.83535 117.899 10.1119C118.206 10.3885 118.455 10.7237 118.63 11.0978C118.806 11.4718 118.905 11.8772 118.922 12.2901H112.324Z" fill="#080E3F"/>
<path d="M106.191 6.85547H102.669V20.2402H106.191V6.85547Z" fill="#080E3F"/>
<path d="M100.172 1.43164V4.50736C100.172 4.50736 98.159 4.36899 97.5551 4.76525C97.3445 4.94999 97.1826 5.18381 97.0839 5.44602C96.9852 5.70822 96.9526 5.99072 96.989 6.26851V6.85347H100.178V9.93548H96.989V20.2382H93.4353V6.26851C93.4353 3.46325 95.1965 1.55744 97.6809 1.43164H100.172Z" fill="#080E3F"/>
<path d="M79.799 20.2408L75.9119 15.0391L74.264 16.7751V20.2408H70.7417V3.62305H74.264V12.7496L79.2959 6.84972H83.6547L78.4216 12.8628L83.9315 20.2408H79.799Z" fill="#080E3F"/>
<path d="M138.225 13.5526V1.42578C137.291 1.42578 136.395 1.79688 135.734 2.45744C135.074 3.118 134.703 4.01391 134.703 4.94808L134.627 7.46401C133.584 6.86288 132.403 6.54419 131.199 6.53941C129.822 6.53919 128.476 6.9439 127.327 7.70316C126.179 8.46241 125.279 9.54268 124.74 10.8095C124.2 12.0764 124.045 13.4738 124.294 14.828C124.543 16.1821 125.185 17.4332 126.14 18.4254C127.094 19.4176 128.319 20.1072 129.663 20.4083C131.006 20.7095 132.409 20.6088 133.696 20.119C134.982 19.6291 136.097 18.7717 136.9 17.6533C137.703 16.535 138.159 15.2051 138.212 13.8293V13.5526H138.225ZM131.199 17.3705C130.444 17.3705 129.706 17.1466 129.078 16.727C128.45 16.3075 127.961 15.7112 127.672 15.0136C127.383 14.316 127.307 13.5483 127.455 12.8077C127.602 12.0671 127.966 11.3868 128.5 10.8529C129.034 10.3189 129.714 9.95531 130.454 9.80799C131.195 9.66068 131.963 9.73629 132.66 10.0253C133.358 10.3142 133.954 10.8036 134.374 11.4314C134.793 12.0593 135.017 12.7974 135.017 13.5526C135.018 14.0542 134.92 14.551 134.728 15.0146C134.537 15.4782 134.255 15.8994 133.901 16.2541C133.546 16.6088 133.125 16.89 132.661 17.0815C132.198 17.2731 131.701 17.3713 131.199 17.3705Z" fill="#080E3F"/>
<path d="M38.5818 10.3719V20.2532H42.1041V6.84961C41.1699 6.84961 40.274 7.22071 39.6134 7.88127C38.9529 8.54183 38.5818 9.43774 38.5818 10.3719Z" fill="#080E3F"/>
<path d="M43.3557 6.84961V11.0072C44.4867 11.0195 45.5791 10.5961 46.4063 9.82469C46.8085 9.44137 47.1277 8.97951 47.3441 8.46775C47.5605 7.95598 47.6695 7.40522 47.6642 6.84961H43.3557Z" fill="#080E3F"/>
</svg>