<svg width="24" height="24" viewBox="0 0 24 24" fill="none" xmlns="http://www.w3.org/2000/svg">
<g clip-path="url(#clip0_903_14)">
<rect width="24" height="24" fill="#6772E5"/>
<path d="M12 24C18.6274 24 24 18.6274 24 12C24 5.37258 18.6274 0 12 0C5.37258 0 0 5.37258 0 12C0 18.6274 5.37258 24 12 24Z" fill="#6772E5"/>
<path d="M9 10.2981C9.02651 10.1361 9.04125 9.97402 9.07954 9.81493C9.2681 9.0077 9.76599 8.45972 10.5084 8.12387C10.9415 7.92942 11.3981 7.83809 11.8695 7.81158C12.7504 7.76149 13.6048 7.88523 14.4326 8.19163C14.5092 8.22109 14.5387 8.25644 14.5387 8.33893C14.5357 9.00475 14.5387 9.67057 14.5387 10.3364V10.4425C14.5004 10.4277 14.4768 10.4218 14.4562 10.41C13.8758 10.1154 13.2601 9.94161 12.6149 9.87091C12.3556 9.84145 12.0934 9.82672 11.8342 9.88269C11.6368 9.92688 11.4688 10.0094 11.4158 10.2303C11.3775 10.3894 11.4099 10.5308 11.5248 10.6516C11.6574 10.793 11.8312 10.8755 12.008 10.9433C12.3733 11.0818 12.7445 11.2055 13.1098 11.341C13.4987 11.4854 13.8729 11.6651 14.1969 11.9302C14.683 12.325 14.9394 12.8376 14.9924 13.4593C15.0366 13.9542 14.9688 14.4285 14.7479 14.8763C14.4798 15.4184 14.0467 15.7837 13.5046 16.0312C13.0656 16.2316 12.6001 16.3288 12.1199 16.3641C11.1094 16.4378 10.1401 16.261 9.20328 15.881C9.13552 15.8545 9.10606 15.8162 9.10606 15.7425C9.10606 15.062 9.10606 14.3814 9.10606 13.7009C9.10606 13.6743 9.10901 13.6449 9.11195 13.6036C9.15909 13.6243 9.19444 13.639 9.2298 13.6567C9.8308 13.9631 10.4554 14.1929 11.1241 14.2989C11.4482 14.3519 11.7752 14.3726 12.1023 14.3048C12.173 14.2901 12.2407 14.2665 12.3055 14.2341C12.6208 14.0809 12.6885 13.6861 12.4469 13.4298C12.3114 13.2854 12.1435 13.1941 11.9638 13.1205C11.6014 12.9761 11.2332 12.8435 10.8708 12.7021C10.4672 12.546 10.0783 12.3604 9.74242 12.0805C9.30345 11.727 9.05892 11.2644 9.01473 10.6988C9.01178 10.6752 9.00589 10.6487 9 10.6251C9 10.5161 9 10.4071 9 10.2981Z" fill="white"/>
</g>
<defs>
<clipPath id="clip0_903_14">
<rect width="24" height="24" fill="white"/>
</clipPath>
</defs>
</svg>
