<svg width="40" height="40" viewBox="0 0 40 40" fill="none" xmlns="http://www.w3.org/2000/svg">
<rect width="40" height="40" rx="20" fill="white"/>
<path fill-rule="evenodd" clip-rule="evenodd" d="M7 17.8256L7.16379 17H10.9599L10.7962 17.8256H9.38618L8.61982 21.6961H7.64964L8.41687 17.8256H7ZM21.2046 18.9818H21.7949L21.9395 18.2487H21.3492L21.5179 17.3966H20.607L20.4383 18.2487H19.9853L19.8407 18.9818H20.2922L19.9966 20.4748C19.8122 21.4057 19.7436 21.7528 20.5962 21.7528C20.8168 21.7505 21.0375 21.7328 21.2551 21.6999L21.389 21.0256C21.3145 21.0354 21.2394 21.0399 21.164 21.0389C20.7989 21.0389 20.8166 20.9479 20.9093 20.471L20.9109 20.4625L21.2046 18.9818ZM17.6811 21.106C17.1888 21.106 17.0055 21.012 17.0466 20.6359L16.1357 20.6349C16.0058 21.4855 16.6485 21.7808 17.5408 21.7808C18.487 21.7808 19.1685 21.4527 19.3293 20.6413C19.4426 20.0585 19.1759 19.8157 18.5762 19.6654L17.7639 19.4622C17.4898 19.3901 17.4148 19.3055 17.4476 19.1409C17.4864 18.9446 17.6197 18.8334 18.0983 18.8334C18.518 18.8334 18.6067 18.9181 18.5914 19.2266H19.5024C19.623 18.3877 19.0921 18.1581 18.2449 18.1581C17.1437 18.1581 16.6544 18.5449 16.5166 19.2393C16.3955 19.849 16.6608 20.0649 17.1418 20.1892L18.0531 20.4185C18.3512 20.5031 18.4288 20.5756 18.39 20.772C18.34 21.012 18.1595 21.106 17.6811 21.106ZM10.531 18.2448L9.84655 21.6961H10.7604L11.0129 20.4194C11.1693 19.6335 11.3517 19.044 12.0728 19.044C12.1675 19.0425 12.2616 19.0489 12.3552 19.0635L12.5283 18.1924C12.4519 18.1762 12.3738 18.1693 12.2959 18.1724C11.8429 18.1724 11.587 18.3173 11.3046 18.6772L11.3903 18.2448H10.531ZM13.4555 21.7847C13.8613 21.7847 14.3026 21.7084 14.6144 21.3323L14.5429 21.6989H15.4013L16.0857 18.2477H15.1743L14.7791 20.2388C14.6522 20.8802 14.4045 21.0379 13.9261 21.0379C13.4666 21.0379 13.349 20.8935 13.4431 20.4288L13.8755 18.2477H12.9632L12.5199 20.487C12.3259 21.4762 12.6234 21.7847 13.4555 21.7847Z" fill="#00A4F0"/>
<path fill-rule="evenodd" clip-rule="evenodd" d="M23.5804 17.8056L23.3093 19.1747H23.9193C24.6997 19.1747 24.9772 19.0959 25.1081 18.4347C25.2135 17.9045 25.062 17.8056 24.2497 17.8056H23.5804ZM22.77 17H24.5473C25.5234 17 26.3583 17.094 26.0843 18.4745C25.8205 19.8034 24.9924 19.9788 24.0615 19.9788H23.1495L22.8093 21.6946H21.839L22.77 17ZM27.9953 20.1046L27.3364 20.2098C26.9786 20.2622 26.7147 20.3338 26.6427 20.7006C26.5897 20.963 26.6922 21.107 27.0992 21.107C27.6561 21.107 27.8522 20.8058 27.9385 20.3798L27.9953 20.1046ZM26.1127 19.2932C26.3358 18.402 26.8947 18.1591 27.8257 18.1591C28.7833 18.1591 29.2377 18.4152 29.0881 19.1683L28.5871 21.6961H27.7149L27.7674 21.4341C27.5537 21.6221 27.1864 21.7818 26.6378 21.7818C25.8112 21.7818 25.5891 21.415 25.7058 20.8254C25.8573 20.0595 26.4138 19.7707 26.9295 19.6918L28.1061 19.5149L28.1478 19.3063C28.2106 18.9847 28.066 18.8936 27.6394 18.8936C27.1864 18.8936 27.0746 18.998 26.9702 19.2932H26.1127ZM30.5168 18.2448C30.5222 19.09 30.6124 19.9328 30.786 20.7597L32.043 18.2448H33L31.0836 21.6961C30.48 22.7904 30.2903 23.0848 29.4515 23.0848C29.3 23.0848 29.1485 23.076 28.9975 23.0583L29.1387 22.3449C29.1877 22.3527 29.2372 22.3571 29.2867 22.3581C29.6407 22.3581 29.8913 22.3185 30.1084 21.7886C29.8098 20.6266 29.6122 19.4406 29.5181 18.2448H30.5168Z" fill="black"/>
</svg>
