<svg
  width="40"
  height="40"
  viewBox="0 0 40 40"
  fill="none"
  xmlns="http://www.w3.org/2000/svg"
>
  <rect width="40" height="40" rx="20" fill="#F5F5F5" />
  <path
    d="M28.2202 8.96098H12.2707C12.2665 8.96098 12.2632 8.96433 12.2632 8.96847V11.8923C12.2632 11.8964 12.2665 11.8997 12.2707 11.8997H28.2202C28.2244 11.8997 28.2277 11.8964 28.2277 11.8923V8.96847C28.2277 8.96433 28.2244 8.96098 28.2202 8.96098Z"
    fill="#16193A"
  />
  <path
    d="M20.2478 25.8049L24.6876 16.2588C24.6883 16.2573 24.6894 16.2561 24.6907 16.2552C24.6921 16.2543 24.6937 16.2538 24.6954 16.2538L28.2135 16.2541C28.2149 16.2541 28.2163 16.2545 28.2176 16.2552C28.2188 16.2559 28.2199 16.2569 28.2207 16.2581C28.2214 16.2593 28.2219 16.2607 28.222 16.2621C28.2221 16.2636 28.2218 16.265 28.2212 16.2663L20.2478 33.0249C20.2471 33.0264 20.246 33.0276 20.2447 33.0285C20.2433 33.0293 20.2417 33.0298 20.2401 33.0298C20.2384 33.0298 20.2369 33.0293 20.2355 33.0285C20.2341 33.0276 20.233 33.0264 20.2323 33.0249L12.262 16.2663C12.2614 16.265 12.2611 16.2636 12.2612 16.2621C12.2613 16.2607 12.2617 16.2593 12.2625 16.2581C12.2633 16.2569 12.2644 16.2559 12.2656 16.2552C12.2669 16.2545 12.2683 16.2541 12.2697 16.2541L15.7912 16.2538C15.7928 16.2538 15.7944 16.2543 15.7958 16.2552C15.7971 16.2561 15.7982 16.2573 15.7989 16.2588L20.2323 25.8049C20.233 25.8064 20.2341 25.8077 20.2355 25.8085C20.2369 25.8094 20.2384 25.8099 20.2401 25.8099C20.2417 25.8099 20.2433 25.8094 20.2447 25.8085C20.246 25.8077 20.2471 25.8064 20.2478 25.8049Z"
    fill="#16193A"
  />
</svg>
