<svg width="20" height="20" viewBox="0 0 20 20" fill="none" xmlns="http://www.w3.org/2000/svg">
<circle cx="10" cy="10" r="10" fill="#00C51F"/>
<path d="M10.9496 8.10628H11.9727L11.458 11.9377H10.4349L10.9496 8.10628ZM9.65966 8.10628L8.96919 10.3134L8.66787 8.10628H7.95229L7.04839 10.3069L6.93543 8.10628H5.94363L6.28889 11.9377H7.11119L8.12805 9.5144L8.48586 11.9377H9.29558L10.6326 8.10628H9.65966ZM18.2498 10.3331H15.8205C15.8331 10.8308 16.1187 11.1583 16.5392 11.1583C16.8563 11.1583 17.1073 10.9815 17.3019 10.6442L18.122 11.0332C17.8402 11.6125 17.2464 11.9901 16.5141 11.9901C15.5161 11.9901 14.8539 11.2893 14.8539 10.1628C14.8539 8.92495 15.6322 8.04734 16.7307 8.04734C17.6974 8.04734 18.3062 8.72847 18.3062 9.78947C18.3062 9.96631 18.2874 10.1432 18.2498 10.3331ZM17.3396 9.59954C17.3396 9.15419 17.1011 8.87256 16.7181 8.87256C16.3353 8.87256 15.9963 9.16728 15.9084 9.59954H17.3396ZM2.74582 9.26094L1.70132 10.5345H3.56623L3.77588 9.93389H2.97681L3.46517 9.34477L3.46674 9.32905L3.14912 8.75893H4.57747L3.47019 11.9377H4.22783L5.56484 8.10628H2.11059L2.74551 9.26094H2.74582ZM13.6361 8.87256C13.9971 8.87256 14.3134 9.07494 14.5896 9.42206L14.7346 8.34206C14.4772 8.16032 14.1289 8.04734 13.6675 8.04734C12.7511 8.04734 12.2364 8.60731 12.2364 9.31792C12.2364 9.81077 12.5 10.112 12.9331 10.3069L13.1403 10.4051C13.5263 10.577 13.6299 10.6622 13.6299 10.8439C13.6299 11.0257 13.4557 11.1518 13.1905 11.1518C12.7526 11.1534 12.398 10.9193 12.1312 10.5197L11.9834 11.6204C12.2872 11.8621 12.6767 11.9901 13.1905 11.9901C14.0614 11.9901 14.5965 11.4661 14.5965 10.7391C14.5965 10.2447 14.3862 9.92702 13.8558 9.67814L13.6299 9.5668C13.316 9.42107 13.2093 9.34084 13.2093 9.18038C13.2093 9.00682 13.3552 8.87256 13.6361 8.87256Z" fill="#163300"/>
</svg>
