<svg
  width="40"
  height="40"
  viewBox="0 0 40 40"
  fill="none"
  xmlns="http://www.w3.org/2000/svg"
>
  <g clip-path="url(#clip0_461_4038)">
    <rect width="40" height="40" fill="white" />
    <path
      d="M12.6872 16.6969C11.681 16.6969 10.8958 17.5214 10.8958 18.5717C10.8958 19.6073 11.681 20.422 12.6872 20.422C13.6933 20.422 14.4786 19.6122 14.4786 18.5717C14.4786 17.5214 13.6933 16.6969 12.6872 16.6969ZM12.6872 19.6613C12.1522 19.6613 11.7547 19.1901 11.7547 18.5668C11.7547 17.9288 12.1571 17.4478 12.6872 17.4478C13.2221 17.4478 13.6295 17.9288 13.6295 18.5668C13.6295 19.195 13.2221 19.6613 12.6872 19.6613ZM18.8221 15.2048H18.1547C18.1007 15.2048 18.0565 15.249 18.0565 15.303V20.211C18.0565 20.265 18.1007 20.3091 18.1547 20.3091H18.8221C18.8761 20.3091 18.9203 20.265 18.9203 20.211V15.303C18.9252 15.249 18.881 15.2048 18.8221 15.2048ZM17.3743 16.7901C17.1093 16.7312 16.8344 16.6969 16.5596 16.7018C15.8675 16.7018 15.1755 16.9177 15.1755 18.0073V20.2159C15.1755 20.2699 15.2197 20.314 15.2737 20.314H15.9412C15.9951 20.314 16.0393 20.2699 16.0393 20.2159V18.0269C16.0393 17.865 16.0688 17.4674 16.6626 17.4674C16.8442 17.4674 17.0258 17.487 17.2025 17.5165C17.2516 17.5312 17.3007 17.5018 17.3154 17.4527L17.4626 16.9128C17.4872 16.8441 17.4479 16.8048 17.3743 16.7901ZM10.5031 16.8048H9.79146C9.74729 16.8048 9.70803 16.8343 9.69821 16.8785L9.01601 19.2785L8.39269 17.1435C8.3387 16.9423 8.15711 16.8048 7.95097 16.8048H7.73012C7.52398 16.8048 7.34239 16.9423 7.2884 17.1435L6.66508 19.2785L5.98778 16.8785C5.97797 16.8343 5.9387 16.8048 5.89453 16.8048H5.18288C5.12889 16.8048 5.08472 16.849 5.08472 16.903C5.08472 16.9128 5.08472 16.9226 5.08962 16.9324L6.0614 19.9852C6.12521 20.1815 6.30189 20.3091 6.50803 20.3091H6.7976C7.00373 20.3091 7.18533 20.1717 7.24423 19.9754L7.84791 17.9337L8.45159 19.9754C8.51048 20.1717 8.69208 20.3091 8.89821 20.3091H9.18778C9.38901 20.3091 9.57061 20.1766 9.63441 19.9852L10.6062 16.9324C10.6209 16.8785 10.5915 16.8245 10.5424 16.8048C10.5228 16.8048 10.5129 16.8048 10.5031 16.8048ZM34.4197 16.8048H33.7375C33.6933 16.8048 33.6491 16.8294 33.6295 16.8735L32.6921 19.3472L31.7547 16.8686C31.7399 16.8294 31.7007 16.8048 31.6565 16.8048H30.9743C30.9203 16.7999 30.8712 16.8392 30.8663 16.8932C30.8663 16.9079 30.8663 16.9275 30.8712 16.9423L32.2405 20.3778L31.6859 21.7766C31.6614 21.8208 31.6761 21.8797 31.7203 21.9042C31.7399 21.914 31.7596 21.9189 31.7792 21.914H32.4516C32.4909 21.914 32.5301 21.8895 32.5448 21.8502L34.5031 16.9521C34.5277 16.903 34.5129 16.8441 34.4639 16.8196C34.454 16.8097 34.4393 16.8048 34.4197 16.8048ZM22.7534 15.2048H22.0859C22.032 15.2048 21.9878 15.249 21.9878 15.303V16.7754C21.7473 16.7214 21.5019 16.692 21.2516 16.6969C19.9215 16.6969 19.6418 17.8944 19.6418 18.5472C19.6418 19.995 20.5105 20.4171 21.3252 20.4171C21.8013 20.4269 22.2774 20.3337 22.7191 20.1521C22.8123 20.1275 22.8712 20.0392 22.8565 19.941V15.303C22.8516 15.249 22.8074 15.2048 22.7534 15.2048ZM21.9829 19.5877C21.8013 19.6367 21.6099 19.6613 21.4185 19.6662C20.7166 19.6662 20.5497 19.1705 20.5497 18.5815C20.5497 18.3705 20.5301 17.4576 21.3841 17.4576C21.5853 17.4625 21.7866 17.487 21.978 17.5361V19.5877H21.9829ZM29.0553 16.6969C28.6332 16.687 28.2111 16.7459 27.8037 16.8637C27.7301 16.8785 27.6859 16.9472 27.6958 17.0159C27.6958 17.0257 27.7007 17.0355 27.7056 17.0453L27.8037 17.4527C27.8136 17.5263 27.8823 17.5803 27.9559 17.5656C27.9608 17.5656 27.9657 17.5656 27.9657 17.5656C28.2896 17.4674 28.6234 17.4183 28.9571 17.4134C29.4234 17.4134 29.5461 17.5901 29.5461 18.0024H28.9669C27.7399 18.0024 27.3964 18.6502 27.3964 19.1803C27.3964 19.8478 27.7203 20.4171 28.8786 20.4171C29.7473 20.4171 30.1841 20.1962 30.2823 20.1472C30.3706 20.1177 30.4246 20.0294 30.4099 19.9361V17.914C30.4148 17.0012 29.8749 16.6969 29.0553 16.6969ZM29.5461 19.6367C29.3399 19.6956 29.1289 19.7251 28.9129 19.7251C28.4123 19.7251 28.27 19.4748 28.27 19.2146C28.27 18.8809 28.4859 18.6699 28.9669 18.6699H29.5461V19.6367ZM25.1927 16.6969C24.7166 16.687 24.2405 16.7803 23.7988 16.9619C23.7056 16.9864 23.6467 17.0748 23.6614 17.1729V21.8159C23.6614 21.8699 23.7056 21.914 23.7596 21.914H24.427C24.481 21.914 24.5252 21.8699 24.5252 21.8159V20.3435C24.7657 20.3975 25.0111 20.4269 25.2614 20.422C26.5915 20.422 26.8712 19.2245 26.8712 18.5717C26.8761 17.1189 26.0074 16.6969 25.1927 16.6969ZM25.1289 19.6564C24.9277 19.6515 24.7264 19.6269 24.535 19.5778V17.5312C24.7166 17.4821 24.908 17.4576 25.0994 17.4527C25.8013 17.4527 25.9682 17.9484 25.9682 18.5373C25.9632 18.7435 25.9878 19.6564 25.1289 19.6564Z"
      fill="#FF1F3E"
    />
    <path
      d="M5.70312 22.3754V22.2969C5.70312 21.8404 5.93379 21.5361 6.38532 21.5361C6.51293 21.5361 6.64545 21.5509 6.76815 21.5852L6.68471 21.9926C6.616 21.9779 6.54729 21.9729 6.47858 21.968C6.28716 21.968 6.21845 22.0907 6.21845 22.2821V22.3705H6.66017V22.7877H6.21845V24.2993H5.69821V22.7877H5.44299V22.3705H5.70312V22.3754Z"
      fill="black"
    />
    <path
      d="M7.78896 22.3313C7.90185 22.3313 8.01473 22.3411 8.12761 22.3657L8.05399 22.7926C7.98037 22.7681 7.90675 22.7583 7.83314 22.7632C7.72516 22.7583 7.61718 22.7828 7.51902 22.827V24.3043H6.99878V22.4982C7.24909 22.3853 7.51902 22.3313 7.78896 22.3313Z"
      fill="black"
    />
    <path
      d="M9.21235 24.3485C8.63321 24.3485 8.27002 23.946 8.27002 23.3374C8.27002 22.7338 8.63321 22.3313 9.21235 22.3313C9.7964 22.3313 10.1498 22.7338 10.1498 23.3374C10.1547 23.946 9.7964 24.3485 9.21235 24.3485ZM9.21235 23.9166C9.48229 23.9166 9.61971 23.6957 9.61971 23.3374C9.61971 22.9841 9.48229 22.7583 9.21235 22.7583C8.94732 22.7583 8.80008 22.9792 8.80008 23.3374C8.80008 23.6957 8.94732 23.9166 9.21235 23.9166Z"
      fill="black"
    />
    <path
      d="M12.8589 24.3042V23.141C12.8589 22.8858 12.7558 22.7582 12.5202 22.7582C12.3975 22.7582 12.2748 22.7926 12.1718 22.8466C12.2012 22.9643 12.2209 23.0821 12.216 23.1999V24.2993H11.7055V23.141C11.7055 22.8858 11.6074 22.7582 11.3669 22.7582C11.2589 22.7582 11.1558 22.7827 11.0626 22.8269V24.3042H10.5472V22.4981C10.8172 22.3852 11.1068 22.3312 11.3963 22.3312C11.5877 22.3214 11.7742 22.3754 11.9264 22.4883C12.1178 22.3901 12.3288 22.341 12.5399 22.3312C13.0748 22.3312 13.3742 22.611 13.3742 23.1067V24.3042H12.8589Z"
      fill="black"
    />
    <path
      d="M14.7731 24.3043V21.6638H16.3829V22.1252H15.3129V22.8417H16.2111V23.3031H15.3129V24.3092H14.7731V24.3043Z"
      fill="black"
    />
    <path d="M16.9473 21.6638H17.4871V24.3043H16.9473V21.6638Z" fill="black" />
    <path
      d="M18.1448 23.7399C18.3657 23.8283 18.6013 23.8773 18.8369 23.8823C19.1264 23.8823 19.2737 23.7743 19.2737 23.578C19.2737 23.3424 19.1019 23.2737 18.7583 23.1608C18.3264 23.0135 18.0467 22.8123 18.0467 22.3706C18.0467 21.8896 18.3755 21.6099 18.9547 21.6099C19.2001 21.6099 19.4405 21.654 19.6663 21.7473L19.5583 22.1939C19.3767 22.1203 19.1853 22.081 18.989 22.0761C18.724 22.0761 18.5915 22.1645 18.5915 22.351C18.5915 22.5571 18.724 22.6209 19.0185 22.724C19.4651 22.881 19.8086 23.0479 19.8086 23.5632C19.8086 24.0688 19.416 24.3387 18.8516 24.3387C18.5718 24.3436 18.297 24.2896 18.0369 24.1816L18.1448 23.7399Z"
      fill="black"
    />
  </g>
  <defs>
    <clipPath id="clip0_461_4038">
      <rect width="40" height="40" fill="white" />
    </clipPath>
  </defs>
</svg>
