<svg width="40" height="40" viewBox="0 0 40 40" fill="none" xmlns="http://www.w3.org/2000/svg">
<rect x="0.5" y="0.5" width="39" height="39" rx="3.5" fill="#FAFAFA"/>
<rect x="0.5" y="0.5" width="39" height="39" rx="3.5" stroke="#E6E6E6"/>
<path d="M18.7585 20.864C18.7589 20.8652 18.7596 20.8663 18.7606 20.867C18.7617 20.8678 18.7629 20.8682 18.7642 20.8682C18.7654 20.8682 18.7667 20.8678 18.7677 20.867C18.7687 20.8663 18.7695 20.8652 18.7698 20.864C18.9912 19.8011 19.2786 18.7565 19.6319 17.73C19.6345 17.7223 19.6345 17.7145 19.6319 17.7066C18.7678 15.0972 17.4539 12.6217 15.6674 10.5268C15.6598 10.5178 15.6616 10.5115 15.6728 10.5079C16.3715 10.2833 17.0835 10.1142 17.8087 10.0007C17.8244 9.99808 17.8369 10.0031 17.8464 10.0156C18.9108 11.405 19.8032 12.8935 20.5236 14.4812C20.6026 14.6552 20.6824 14.8288 20.7631 15.0022C20.7682 15.0136 20.7736 15.0136 20.7791 15.0025C21.6075 13.3365 22.626 11.7968 23.8346 10.3833C23.8374 10.3801 23.841 10.3778 23.8452 10.3766C23.8493 10.3755 23.8537 10.3756 23.8578 10.3769L24.8301 10.6963C24.8319 10.6969 24.8336 10.6979 24.835 10.6994C24.8363 10.7008 24.8373 10.7025 24.8378 10.7045C24.8383 10.7064 24.8384 10.7084 24.8379 10.7104C24.8375 10.7123 24.8365 10.7141 24.8352 10.7156C23.3626 12.3746 22.1734 14.217 21.2675 16.243C21.2637 16.2513 21.2634 16.2597 21.2665 16.2683C21.7987 17.7179 22.2103 19.2012 22.5014 20.7182C22.5017 20.7202 22.5026 20.722 22.5041 20.7234C22.5056 20.7247 22.5076 20.7255 22.5096 20.7255C22.5116 20.7256 22.5135 20.7249 22.5151 20.7237C22.5167 20.7225 22.5178 20.7207 22.5182 20.7187C23.3477 17.4279 24.9694 14.3948 27.3081 11.9294C27.3116 11.9258 27.3162 11.9235 27.3211 11.9229C27.326 11.9223 27.3309 11.9235 27.335 11.9263L28.1279 12.4576C28.1293 12.4585 28.1304 12.4597 28.1313 12.4611C28.1322 12.4625 28.1327 12.4641 28.1329 12.4657C28.1331 12.4674 28.133 12.469 28.1324 12.4706C28.1319 12.4722 28.1311 12.4736 28.1299 12.4749C25.1412 15.5838 23.4318 19.5339 22.9431 23.798C22.9427 23.8011 22.9413 23.8039 22.939 23.8059C22.9367 23.808 22.9338 23.8091 22.9307 23.8091H20.9187C20.9111 23.8091 20.907 23.8053 20.9063 23.7977C20.7678 22.3258 20.515 20.8739 20.148 19.442C20.1366 19.3976 20.1249 19.3975 20.1129 19.4415C19.7201 20.8698 19.4529 22.3214 19.3112 23.7964C19.3103 23.8049 19.3057 23.8091 19.2972 23.8091H17.2116C17.2096 23.8091 17.2076 23.8083 17.2061 23.8069C17.2045 23.8054 17.2036 23.8035 17.2034 23.8013C16.7333 19.5772 15.1511 15.334 12.1551 12.2364C12.1496 12.2308 12.1502 12.2257 12.1567 12.2212C12.7207 11.8409 13.3091 11.503 13.9218 11.2074C13.9274 11.2047 13.9337 11.2039 13.9398 11.2051C13.9459 11.2062 13.9514 11.2093 13.9556 11.2139C16.4105 13.9097 17.9852 17.3252 18.7585 20.864Z" fill="#47BEAA"/>
<path d="M9.3644 14.7075C9.75995 14.2516 10.2574 13.7371 10.7536 13.3075C10.7573 13.3043 10.7621 13.3026 10.767 13.3028C10.7719 13.303 10.7765 13.305 10.7799 13.3085C13.5219 16.1114 15.0593 19.9459 15.5178 23.7957C15.5188 23.8046 15.5148 23.8091 15.5059 23.8091H13.5003C13.4932 23.8091 13.4892 23.8056 13.4881 23.7985C13.0363 20.4622 11.7253 17.1709 9.36518 14.7305C9.35795 14.7231 9.35769 14.7154 9.3644 14.7075Z" fill="#47BEAA"/>
<path d="M29.9999 14.3319C30.028 14.3024 30.0677 14.2495 30.1111 14.215C30.1206 14.2074 30.1293 14.2082 30.1374 14.2173L30.7639 14.9269C30.7657 14.9289 30.7666 14.9315 30.7666 14.9342C30.7665 14.9369 30.7655 14.9394 30.7636 14.9413C28.4486 17.3915 27.0465 20.4622 26.5878 23.7972C26.5873 23.8005 26.5856 23.8035 26.5831 23.8057C26.5806 23.8078 26.5774 23.8091 26.5741 23.8091H25.6204C25.6103 23.8091 25.6057 23.8041 25.6068 23.7941C25.6104 23.7578 25.6173 23.7048 25.6274 23.6349C26.1368 20.1433 27.5577 16.8982 29.9999 14.3319Z" fill="#47BEAA"/>
<path d="M8.2853 16.1452C8.2896 16.1389 8.2951 16.1374 8.30181 16.1409C8.31368 16.1469 8.32624 16.1572 8.33948 16.1718C10.2434 18.2889 11.3661 21.0036 11.7942 23.7967C11.7955 23.8049 11.792 23.8091 11.7836 23.8091H9.77126C9.7671 23.8091 9.76308 23.8076 9.75992 23.8049C9.75675 23.8022 9.75464 23.7985 9.75397 23.7944C9.38809 21.6915 8.56783 19.6768 7.27152 18.0035C7.26895 18.0002 7.26733 17.9963 7.26683 17.9922C7.26633 17.9882 7.26697 17.984 7.26868 17.9803C7.56214 17.3435 7.90101 16.7318 8.2853 16.1452Z" fill="#47BEAA"/>
<path d="M32.2617 17.2228C32.2644 17.2196 32.2679 17.2171 32.2718 17.2156C32.2757 17.2141 32.2799 17.2135 32.2841 17.214C32.2882 17.2146 32.2922 17.2161 32.2955 17.2185C32.2989 17.2209 32.3016 17.2242 32.3035 17.2279L32.7516 18.1465C32.7532 18.1497 32.7538 18.1533 32.7534 18.1569C32.753 18.1604 32.7516 18.1638 32.7493 18.1666C31.4577 19.8071 30.6183 21.7459 30.246 23.7975C30.2446 23.8052 30.2399 23.8091 30.232 23.8091H29.2722C29.2632 23.8091 29.2595 23.8047 29.2608 23.7959C29.6688 21.3754 30.6727 19.1105 32.2617 17.2228Z" fill="#47BEAA"/>
<path d="M6.51811 20.0143C6.51777 20.0071 6.51854 20.0024 6.52043 20.0001C6.52216 19.9983 6.52428 19.997 6.52664 19.9962C6.529 19.9954 6.53154 19.9952 6.53405 19.9955C6.53657 19.9959 6.539 19.9968 6.54115 19.9982C6.54331 19.9996 6.54514 20.0015 6.54649 20.0037C7.26604 21.1807 7.76445 22.4459 8.04174 23.7993C8.04197 23.8005 8.04193 23.8017 8.04164 23.8028C8.04134 23.804 8.04079 23.8051 8.04003 23.806C8.03927 23.807 8.03831 23.8077 8.03723 23.8083C8.03614 23.8088 8.03495 23.8091 8.03375 23.8091H6.01084C6.00796 23.8091 6.00521 23.8079 6.00317 23.8059C6.00114 23.8039 6 23.8011 6 23.7982C6.00103 22.5183 6.17339 21.2614 6.51708 20.0277C6.51811 20.0236 6.51846 20.0191 6.51811 20.0143Z" fill="#47BEAA"/>
<path d="M33.7449 21.555C33.7476 21.5495 33.7507 21.5493 33.7542 21.5545C33.7559 21.557 33.7572 21.5609 33.758 21.5661C33.8772 22.3064 33.9374 23.0509 33.9384 23.7995C33.9384 23.8059 33.9352 23.8091 33.9288 23.8091H32.9613C32.9527 23.8091 32.9493 23.8049 32.9512 23.7964C33.1327 23.0198 33.3972 22.2726 33.7449 21.555Z" fill="#47BEAA"/>
<path d="M12.1425 29.3259C11.3589 28.9734 10.9662 28.1119 11.0869 27.2924C11.2472 26.2077 12.1585 25.6282 13.2192 25.7319C14.3241 25.84 15.0324 26.8262 14.8536 27.9111C14.7233 28.7033 14.1388 29.3401 13.3323 29.4624C12.9385 29.522 12.5032 29.4882 12.1425 29.3259ZM11.9423 27.9003C12.0212 28.2822 12.287 28.6122 12.6725 28.7133C14.2263 29.1215 14.5692 26.6337 13.1034 26.4652C12.2349 26.3653 11.7823 27.1257 11.9423 27.9003Z" fill="#47BEAA"/>
<path d="M16.6731 28.2922H16.0996C16.0961 28.2922 16.0929 28.2936 16.0904 28.296C16.088 28.2984 16.0867 28.3017 16.0867 28.3052V29.3824C16.0867 29.3858 16.0853 29.3891 16.0829 29.3915C16.0805 29.3939 16.0772 29.3953 16.0738 29.3953H15.2966C15.2858 29.3953 15.2803 29.3899 15.2803 29.379V25.8093C15.2803 25.8058 15.2817 25.8024 15.2842 25.8C15.2867 25.7975 15.29 25.7961 15.2935 25.7961C15.7449 25.7954 16.1985 25.7956 16.6543 25.7966C17.4911 25.7982 18.1666 26.1336 18.1349 27.0806C18.1189 27.5551 17.939 27.9135 17.4784 28.1096C17.4769 28.1102 17.4756 28.1112 17.4745 28.1124C17.4735 28.1136 17.4727 28.115 17.4722 28.1166C17.4718 28.1181 17.4717 28.1198 17.472 28.1214C17.4722 28.123 17.4729 28.1245 17.4738 28.1258L18.3697 29.3832C18.3704 29.3843 18.3709 29.3857 18.371 29.3871C18.3711 29.3885 18.3708 29.3898 18.3702 29.3911C18.3695 29.3923 18.3686 29.3934 18.3674 29.3941C18.3662 29.3949 18.3649 29.3953 18.3635 29.3953H17.4552C17.4511 29.3953 17.447 29.3943 17.4434 29.3924C17.4397 29.3905 17.4366 29.3878 17.4343 29.3845L16.694 28.3033C16.6889 28.2959 16.6819 28.2922 16.6731 28.2922ZM16.7748 27.6124C17.4746 27.5574 17.4392 26.5067 16.8218 26.5052C16.5794 26.5045 16.3384 26.5048 16.0988 26.5062C16.0956 26.5062 16.0925 26.5075 16.0902 26.5098C16.0879 26.512 16.0867 26.5151 16.0867 26.5183V27.5958C16.0867 27.606 16.0918 27.6112 16.1021 27.6116C16.4539 27.6197 16.6781 27.6199 16.7748 27.6124Z" fill="#47BEAA"/>
<path d="M22.5822 25.7959C23.4433 25.7982 24.2542 26.2366 24.4434 27.1335C24.7107 28.4027 23.8814 29.4069 22.6098 29.4141C22.1552 29.4167 21.7006 29.4164 21.2459 29.4131C21.2428 29.413 21.2399 29.4118 21.2377 29.4095C21.2355 29.4073 21.2343 29.4043 21.2343 29.4012V25.809C21.2343 25.8009 21.2384 25.7969 21.2464 25.7969C21.6926 25.7948 22.1379 25.7945 22.5822 25.7959ZM23.6373 27.8283C23.7214 27.2145 23.4871 26.611 22.8085 26.5183C22.616 26.4923 22.2981 26.5029 22.053 26.5062C22.0497 26.5063 22.0466 26.5076 22.0443 26.51C22.0419 26.5124 22.0406 26.5155 22.0406 26.5189V28.6919C22.0406 28.7002 22.0448 28.7043 22.053 28.7043C22.2876 28.7064 22.5461 28.7229 22.7781 28.6914C23.2523 28.6266 23.573 28.2977 23.6373 27.8283Z" fill="#47BEAA"/>
<path d="M8.54327 27.2674L8.11418 29.3778C8.11177 29.3895 8.10455 29.3953 8.09251 29.3953H6.8914C6.88366 29.3953 6.87885 29.3915 6.87696 29.3839L6.00329 25.8397C6.00293 25.8384 6.0029 25.8369 6.00318 25.8355C6.00347 25.8341 6.00408 25.8328 6.00495 25.8317C6.00582 25.8306 6.00694 25.8297 6.00822 25.8291C6.00949 25.8284 6.0109 25.8281 6.01232 25.8281H6.81503C6.82277 25.8281 6.8275 25.8318 6.82922 25.8392L7.53388 28.661C7.53624 28.6702 7.54167 28.6784 7.5493 28.6842C7.55693 28.6899 7.56629 28.6929 7.57584 28.6927C7.58539 28.6924 7.59457 28.6889 7.60186 28.6827C7.60915 28.6765 7.61411 28.668 7.61594 28.6586L8.13353 25.9365C8.13413 25.9332 8.13586 25.9303 8.1384 25.9282C8.14095 25.926 8.14415 25.9249 8.14747 25.9249H8.95818C8.96228 25.9249 8.96625 25.9263 8.96944 25.9289C8.97263 25.9315 8.97484 25.9351 8.97572 25.9391L9.55705 28.6728C9.55803 28.6776 9.56051 28.6819 9.56413 28.6852C9.56776 28.6884 9.57233 28.6904 9.57718 28.6909C9.59679 28.6926 9.60909 28.6821 9.61408 28.6594C9.82067 27.719 10.0252 26.7794 10.2277 25.8405C10.2284 25.837 10.2303 25.8339 10.2331 25.8316C10.2359 25.8294 10.2395 25.8281 10.2431 25.8281H11.0471C11.0549 25.8281 11.0579 25.8319 11.0562 25.8395L10.2803 29.3811C10.2782 29.3906 10.2724 29.3953 10.2627 29.3953H9.03636C9.02741 29.3953 9.022 29.3909 9.0201 29.3821L8.55489 27.2674C8.55093 27.2488 8.54706 27.2488 8.54327 27.2674Z" fill="#47BEAA"/>
<path d="M19.5207 28.6857H20.8964C20.8976 28.6857 20.8987 28.686 20.8998 28.6864C20.9009 28.6868 20.9018 28.6875 20.9027 28.6883C20.9035 28.6891 20.9041 28.6901 20.9046 28.6912C20.905 28.6922 20.9052 28.6934 20.9052 28.6945V29.3865C20.9052 29.3889 20.9043 29.3911 20.9027 29.3927C20.901 29.3944 20.8988 29.3953 20.8964 29.3953H18.7143C18.7132 29.3953 18.712 29.3951 18.711 29.3946C18.7099 29.3942 18.709 29.3935 18.7081 29.3927C18.7073 29.3919 18.7067 29.3909 18.7062 29.3899C18.7058 29.3888 18.7056 29.3877 18.7056 29.3865V25.8369C18.7056 25.8357 18.7058 25.8346 18.7062 25.8335C18.7067 25.8325 18.7073 25.8315 18.7081 25.8307C18.709 25.8299 18.7099 25.8292 18.711 25.8288C18.712 25.8283 18.7132 25.8281 18.7143 25.8281H19.5031C19.5054 25.8281 19.5077 25.829 19.5093 25.8307C19.511 25.8323 19.5119 25.8346 19.5119 25.8369V28.677C19.5119 28.6793 19.5128 28.6815 19.5145 28.6832C19.5161 28.6848 19.5183 28.6857 19.5207 28.6857Z" fill="#47BEAA"/>
<path d="M25.3431 29.1244H26.9366C26.94 29.1244 26.9432 29.1257 26.9456 29.1281C26.9479 29.1304 26.9493 29.1337 26.9493 29.137L26.9495 29.3827C26.9495 29.386 26.9482 29.3892 26.9458 29.3916C26.9434 29.394 26.9402 29.3953 26.9369 29.3953H25.0463C25.043 29.3953 25.0398 29.394 25.0374 29.3916C25.035 29.3892 25.0337 29.386 25.0337 29.3827V25.8408C25.0337 25.8374 25.035 25.8342 25.0374 25.8318C25.0398 25.8294 25.043 25.8281 25.0463 25.8281H25.3178C25.3211 25.8281 25.3243 25.8294 25.3267 25.8318C25.3291 25.8342 25.3304 25.8374 25.3304 25.8408V29.1117C25.3304 29.1151 25.3318 29.1183 25.3341 29.1207C25.3365 29.123 25.3397 29.1244 25.3431 29.1244Z" fill="#47BEAA"/>
<path d="M27.5682 25.8281H27.2854C27.2816 25.8281 27.2784 25.8312 27.2784 25.8351V29.3881C27.2784 29.3919 27.2816 29.395 27.2854 29.395H27.5682C27.5721 29.395 27.5752 29.3919 27.5752 29.3881V25.8351C27.5752 25.8312 27.5721 25.8281 27.5682 25.8281Z" fill="#47BEAA"/>
<path d="M28.6937 26.0931L28.6558 26.0923C28.6537 26.0923 28.6515 26.0927 28.6496 26.0935C28.6476 26.0943 28.6458 26.0955 28.6443 26.097C28.6428 26.0985 28.6416 26.1003 28.6408 26.1023C28.6399 26.1043 28.6395 26.1064 28.6395 26.1086V29.3824C28.6395 29.391 28.6352 29.3953 28.6266 29.3953H28.3655C28.3547 29.3953 28.3492 29.3899 28.3492 29.379V25.841C28.3492 25.8376 28.3506 25.8343 28.353 25.8319C28.3554 25.8295 28.3587 25.8281 28.3621 25.8281H28.8609C28.8695 25.8281 28.876 25.8317 28.8805 25.839L30.9282 29.1143C30.9318 29.1203 30.9374 29.125 30.9439 29.1275C30.9504 29.1301 30.9576 29.1304 30.9644 29.1285C30.9711 29.1265 30.977 29.1224 30.9812 29.1168C30.9854 29.1112 30.9876 29.1043 30.9875 29.0973V25.841C30.9875 25.8376 30.9889 25.8343 30.9913 25.8319C30.9937 25.8295 30.997 25.8281 31.0004 25.8281H31.2714C31.28 25.8281 31.2843 25.8324 31.2843 25.841V29.3824C31.2843 29.3858 31.2829 29.3891 31.2805 29.3915C31.2781 29.3939 31.2748 29.3953 31.2714 29.3953H30.7858C30.7807 29.3953 30.7758 29.394 30.7714 29.3916C30.767 29.3891 30.7633 29.3856 30.7607 29.3814L28.711 26.1032C28.7092 26.1002 28.7066 26.0977 28.7036 26.0959C28.7006 26.0941 28.6972 26.0932 28.6937 26.0931Z" fill="#47BEAA"/>
<path d="M32.2617 29.1244H33.9902C33.9928 29.1244 33.9953 29.1254 33.9972 29.1272C33.999 29.1291 34 29.1316 34 29.1342V29.3855C34 29.3881 33.999 29.3906 33.9972 29.3924C33.9953 29.3943 33.9928 29.3953 33.9902 29.3953H31.965C31.9624 29.3953 31.9599 29.3943 31.9581 29.3924C31.9562 29.3906 31.9552 29.3881 31.9552 29.3855V25.8379C31.9552 25.8353 31.9562 25.8328 31.9581 25.831C31.9599 25.8292 31.9624 25.8281 31.965 25.8281H33.9322C33.9348 25.8281 33.9373 25.8292 33.9391 25.831C33.941 25.8328 33.942 25.8353 33.942 25.8379V26.0828C33.942 26.0854 33.941 26.0879 33.9391 26.0897C33.9373 26.0916 33.9348 26.0926 33.9322 26.0926H32.2617C32.2591 26.0926 32.2566 26.0936 32.2548 26.0955C32.253 26.0973 32.2519 26.0998 32.2519 26.1024V27.4245C32.2519 27.4271 32.253 27.4296 32.2548 27.4314C32.2566 27.4333 32.2591 27.4343 32.2617 27.4343H33.8161C33.8187 27.4343 33.8212 27.4354 33.823 27.4372C33.8248 27.439 33.8259 27.4415 33.8259 27.4441V27.689C33.8259 27.6916 33.8248 27.6941 33.823 27.6959C33.8212 27.6978 33.8187 27.6988 33.8161 27.6988H32.2617C32.2591 27.6988 32.2566 27.6998 32.2548 27.7017C32.253 27.7035 32.2519 27.706 32.2519 27.7086V29.1146C32.2519 29.1172 32.253 29.1197 32.2548 29.1215C32.2566 29.1233 32.2591 29.1244 32.2617 29.1244Z" fill="#47BEAA"/>
</svg>
