<svg width="40" height="40" viewBox="0 0 40 40" fill="none" xmlns="http://www.w3.org/2000/svg">
<rect x="0.5" y="0.5" width="39" height="39" rx="3.5" fill="#FAFAFA"/>
<rect x="0.5" y="0.5" width="39" height="39" rx="3.5" stroke="#E6E6E6"/>
<path d="M7.90413 25V23.576L12.5121 16.552H8.33613V14.568H15.4081V15.992L10.8001 23.016H15.4561V25H7.90413ZM19.916 25.192C19.2227 25.192 18.54 25.0693 17.868 24.824C17.196 24.568 16.5933 24.184 16.06 23.672L17.308 22.136C17.6813 22.456 18.1027 22.7067 18.572 22.888C19.052 23.0693 19.5213 23.16 19.98 23.16C20.4707 23.16 20.8333 23.0693 21.068 22.888C21.3133 22.7067 21.436 22.4613 21.436 22.152C21.436 21.928 21.372 21.752 21.244 21.624C21.1267 21.4853 20.956 21.3627 20.732 21.256C20.508 21.1493 20.2413 21.032 19.932 20.904L18.572 20.344C18.22 20.184 17.8787 19.9813 17.548 19.736C17.228 19.48 16.9667 19.1707 16.764 18.808C16.572 18.4347 16.476 17.992 16.476 17.48C16.476 16.904 16.6307 16.3867 16.94 15.928C17.26 15.4587 17.6973 15.0853 18.252 14.808C18.8173 14.52 19.4627 14.376 20.188 14.376C20.8173 14.376 21.4253 14.488 22.012 14.712C22.5987 14.936 23.1107 15.2613 23.548 15.688L22.3 17.208C21.9587 16.952 21.6067 16.7547 21.244 16.616C20.892 16.4773 20.54 16.408 20.188 16.408C19.7827 16.408 19.4573 16.4933 19.212 16.664C18.9773 16.824 18.86 17.0533 18.86 17.352C18.86 17.5547 18.9293 17.7307 19.068 17.88C19.2067 18.0187 19.3987 18.1413 19.644 18.248C19.8893 18.344 20.156 18.456 20.444 18.584L21.788 19.128C22.2147 19.2987 22.5773 19.512 22.876 19.768C23.1853 20.024 23.4253 20.3333 23.596 20.696C23.7667 21.048 23.852 21.4693 23.852 21.96C23.852 22.536 23.6973 23.0693 23.388 23.56C23.0787 24.0507 22.6307 24.4453 22.044 24.744C21.4573 25.0427 20.748 25.192 19.916 25.192ZM25.6226 25V14.568H27.9746V23.016H32.1026V25H25.6226Z" fill="black"/>
</svg>