<svg
            width="150"
            height="40"
            viewBox="0 0 560 94"
            fill="none"
            xmlns="http://www.w3.org/2000/svg">
            <path
              d="M164.8 47.44C164.8 64.08 154.58 74 140.44 74C132.62 74 125.81 70.79 122.7 65.48V93.04H111.77V21.69H121.79L122.69 29.51C125.8 24.2 132.41 20.69 140.43 20.69C154.06 20.69 164.79 30.21 164.79 47.45L164.8 47.44ZM153.47 47.44C153.47 36.92 147.26 30.4 138.23 30.4C129.61 30.3 123 36.91 123 47.54C123 58.17 129.62 64.28 138.23 64.28C146.84 64.28 153.47 57.97 153.47 47.44Z"
              fill="#242628"
            />
            <path
              d="M222.93 50.35H183.64C183.84 59.97 190.15 64.98 198.17 64.98C204.18 64.98 209.2 62.17 211.3 56.56H222.43C219.72 66.98 210.5 74 197.97 74C182.63 74 172.51 63.38 172.51 47.24C172.51 31.1 182.63 20.58 197.87 20.58C213.11 20.58 222.93 30.8 222.93 46.24V50.35ZM183.74 42.73H211.8C211.2 33.81 205.29 29.3 197.87 29.3C190.45 29.3 184.54 33.81 183.74 42.73Z"
              fill="#242628"
            />
            <path
              d="M242.28 21.69C237.18 21.69 233.05 25.82 233.05 30.92V73.01H244.08V45.65V33.82C244.08 32.55 245.11 31.51 246.39 31.51H263.23V21.69H242.29H242.28Z"
              fill="#242628"
            />
            <path
              d="M94.14 21.59L80.01 64.19L64.77 21.69H52.94L72.48 72.31C73.08 73.91 73.38 75.22 73.38 76.52C73.38 77.23 73.31 77.88 73.19 78.48L73.16 78.59C73.09 78.91 73.01 79.21 72.91 79.5L72.17 82.21C71.99 82.88 71.38 83.34 70.69 83.34H55.14V93.06H66.47C74.09 93.06 80.4 91.26 84.01 81.23L105.56 21.69L94.13 21.59H94.14Z"
              fill="#242628"
            />
            <path
              d="M0.820007 73H11.74V45.34C11.74 36.72 16.45 30.71 25.17 30.71C32.79 30.61 37.5 35.12 37.5 45.04V73H48.43V43.33C48.43 25.79 37.71 20.58 27.98 20.58C20.56 20.58 14.75 23.49 11.74 28.3V0.639999H0.820007V73Z"
              fill="#242628"
            />
            <path
              d="M277.66 57.47C277.76 62.78 282.67 65.89 289.39 65.89C296.11 65.89 300.11 63.38 300.11 58.87C300.11 54.96 298.11 52.86 292.29 51.95L281.97 50.15C271.95 48.45 268.04 43.23 268.04 35.92C268.04 26.7 277.16 20.69 288.79 20.69C301.32 20.69 310.44 26.7 310.54 36.93H299.72C299.62 31.72 295.11 28.81 288.8 28.81C282.49 28.81 278.98 31.32 278.98 35.53C278.98 39.24 281.59 40.94 287.3 41.94L297.42 43.74C306.94 45.44 311.35 50.15 311.35 57.87C311.35 68.49 301.53 74.01 289.6 74.01C276.07 74.01 266.95 67.5 266.75 57.47H277.68H277.66Z"
              fill="#242628"
            />
            <path
              d="M336.19 60.98L347.82 21.69H359.25L370.68 60.98L380.4 21.69H391.93L377.4 73.01H365.07L353.44 33.92L341.71 73.01H329.28L314.65 21.69H326.18L336.2 60.98H336.19Z"
              fill="#242628"
            />
            <path
              d="M398.34 0.639999H410.47V12.07H398.34V0.639999ZM398.94 21.69H409.86V73.01H398.94V21.69Z"
              fill="#242628"
            />
            <path
              d="M479.32 30.11C470.8 30.11 464.99 36.32 464.99 47.25C464.99 58.78 471 64.39 479.02 64.39C485.43 64.39 490.15 60.78 492.25 53.97H503.88C501.27 66.4 491.85 74.02 479.22 74.02C463.99 74.02 453.76 63.4 453.76 47.26C453.76 31.12 463.98 20.6 479.32 20.6C491.85 20.6 501.17 27.72 503.88 40.14H492.05C490.25 33.73 485.33 30.12 479.32 30.12V30.11Z"
              fill="#242628"
            />
            <path
              d="M436.87 63.28C436.23 63.28 435.72 62.76 435.72 62.13V31.41H447.65V21.69H435.72V7.95H424.8V16.87C424.8 20.08 423.8 21.68 420.59 21.68H416.18V31.4H424.8V59.06C424.8 67.98 429.71 72.99 438.63 72.99H447.55V63.27H436.88L436.87 63.28Z"
              fill="#242628"
            />
            <path
              d="M539.22 20.58C531.8 20.58 525.99 23.49 522.98 28.3V0.639999H512.06V73H522.98V45.34C522.98 36.72 527.69 30.71 536.41 30.71C544.03 30.61 548.74 35.12 548.74 45.04V73H559.67V43.33C559.67 25.79 548.95 20.58 539.22 20.58Z"
              fill="#242628"
            />
          </svg>