<svg width="32" height="32" viewBox="0 0 32 32" fill="none" xmlns="http://www.w3.org/2000/svg">
<rect width="32" height="32" rx="6" fill="#006DF9"/>
<path d="M22.1243 10H9.8757C6.63064 10 4 12.6863 4 16C4 19.3137 6.63064 22 9.8757 22H22.1243C25.3694 22 28 19.3137 28 16C28 12.6863 25.3694 10 22.1243 10Z" fill="white"/>
<path d="M11.5266 17.4803L9.58291 14.3976C9.53913 14.3284 9.44006 14.3284 9.39628 14.3976L7.45261 17.4803C7.40515 17.5556 7.45814 17.6549 7.54616 17.6549H11.434C11.522 17.6549 11.575 17.5556 11.5275 17.4803H11.5266Z" fill="#006DF9"/>
<path d="M17.5599 14.2478H14.4859C14.3872 14.2478 14.3071 14.3295 14.3071 14.4304V17.5696C14.3071 17.6704 14.3872 17.7521 14.4859 17.7521H17.5599C17.6587 17.7521 17.7387 17.6704 17.7387 17.5696V14.4304C17.7387 14.3295 17.6587 14.2478 17.5599 14.2478Z" fill="#006DF9"/>
<path d="M22.5989 17.8982C23.6253 17.8982 24.4573 17.0485 24.4573 16.0003C24.4573 14.9522 23.6253 14.1025 22.5989 14.1025C21.5725 14.1025 20.7405 14.9522 20.7405 16.0003C20.7405 17.0485 21.5725 17.8982 22.5989 17.8982Z" fill="#006DF9"/>
</svg>
