<svg width="18" height="19" viewBox="0 0 18 19" fill="none" xmlns="http://www.w3.org/2000/svg">
<path d="M18 3.48791C18 1.83441 16.6583 0.5 15.0121 0.5H2.98791C1.33441 0.5 0 1.84166 0 3.48791V15.5121C0 17.1656 1.34166 18.5 2.98791 18.5H11.2337L18 11.7337V3.48791Z" fill="#F97D7D"/>
<path d="M3.03223 5.7579H4.5842C5.04109 5.7579 5.44721 6.05525 5.58501 6.49038L6.66559 9.89167C6.81063 10.3558 7.23851 10.6677 7.72441 10.6677H11.4158C11.8872 10.6677 12.3078 10.3703 12.4674 9.92068L13.5842 6.67894" stroke="white" stroke-width="0.725222" stroke-miterlimit="10"/>
<path d="M7.94234 13.9966C8.5151 13.9966 8.9794 13.5323 8.9794 12.9595C8.9794 12.3868 8.5151 11.9225 7.94234 11.9225C7.36958 11.9225 6.90527 12.3868 6.90527 12.9595C6.90527 13.5323 7.36958 13.9966 7.94234 13.9966Z" stroke="white" stroke-width="0.725222" stroke-miterlimit="10"/>
<path d="M11.249 13.9966C11.8217 13.9966 12.286 13.5323 12.286 12.9595C12.286 12.3868 11.8217 11.9225 11.249 11.9225C10.6762 11.9225 10.2119 12.3868 10.2119 12.9595C10.2119 13.5323 10.6762 13.9966 11.249 13.9966Z" stroke="white" stroke-width="0.725222" stroke-miterlimit="10"/>
<path d="M6.35376 8.20987H8.97906" stroke="white" stroke-width="0.725222" stroke-miterlimit="10"/>
</svg>
