<svg width="18" height="18" viewBox="0 0 18 18" fill="none" xmlns="http://www.w3.org/2000/svg">
<path d="M14.0625 17.4375C16.2371 17.4375 18 15.6746 18 13.5C18 11.3254 16.2371 9.5625 14.0625 9.5625C11.8879 9.5625 10.125 11.3254 10.125 13.5C10.125 15.6746 11.8879 17.4375 14.0625 17.4375Z" fill="#FFB92E"/>
<path d="M3.41417 8.02205L8.2081 0.687134C8.31578 0.520955 8.55922 0.520955 8.6669 0.687134L13.4561 8.02205C13.5732 8.20208 13.4421 8.4375 13.2267 8.4375H3.64825C3.4329 8.4375 3.30182 8.20208 3.41885 8.02205H3.41417Z" fill="#006DF9"/>
<path d="M6.56686 9.5625H1.30814C0.585674 9.5625 0 10.1482 0 10.8706V16.1294C0 16.8518 0.585674 17.4375 1.30814 17.4375H6.56686C7.28933 17.4375 7.875 16.8518 7.875 16.1294V10.8706C7.875 10.1482 7.28933 9.5625 6.56686 9.5625Z" fill="#6859F7"/>
</svg>
