<svg
  width="242"
  height="202"
  viewBox="0 0 242 202"
  fill="none"
  xmlns="http://www.w3.org/2000/svg"
>
  <path
    d="M78.8203 7.2832C85.8768 1.00299 96.9484 -0.283591 107.03 0.216746C138.694 1.79248 167.273 17.0755 191.994 34.3697C200.946 40.6271 209.755 47.3752 215.565 55.9946C227.4 73.5422 223.885 97.8508 207.441 112.309C201.845 117.227 195.061 121.003 188.099 124.339C175.719 130.282 162.359 135.051 148.308 136.416C138.288 137.381 128.144 136.598 118.183 135.246C90.3528 131.464 63.0356 123.115 40.1327 108.835C30.09 102.571 20.625 94.7838 16.4833 84.6568C12.3448 74.5299 14.9935 61.6803 25.2472 55.673C29.4895 53.1908 34.5596 52.0732 39.5225 51.0172C46.8322 49.4675 54.2555 47.9437 60.8511 44.7955C67.6642 41.5433 75.7302 35.2566 74.3767 28.0602C72.9387 20.3472 71.7767 13.5634 78.8203 7.2832Z"
    fill="#F3F1FF"
  />
  <path
    d="M166.326 161.845L165.761 161.527C165.822 161.42 171.98 150.662 181.104 147.566C184.846 146.325 188.144 143.859 190.39 140.623C191.455 139.064 192.383 137.394 193.149 135.662L193.743 135.925C192.961 137.693 192.013 139.398 190.926 140.99C188.599 144.347 185.184 146.897 181.312 148.184C172.425 151.195 166.384 161.738 166.326 161.845Z"
    fill="#535461"
  />
  <path
    opacity="0.4"
    d="M199.177 133.81C198.138 134.82 193.302 135.86 193.302 135.86C193.302 135.86 194.486 131.055 195.525 130.048C196.025 129.564 196.694 129.297 197.388 129.307C198.083 129.317 198.748 129.603 199.232 130.103C199.716 130.6 199.982 131.273 199.972 131.968C199.962 132.663 199.677 133.326 199.177 133.81Z"
    fill="#6C63FF"
  />
  <path
    opacity="0.4"
    d="M196.44 142.504C195.018 142.787 190.403 141.032 190.403 141.032C190.403 141.032 194.012 137.65 195.431 137.361C196.112 137.225 196.82 137.368 197.398 137.751C197.975 138.138 198.378 138.739 198.511 139.421C198.647 140.103 198.505 140.811 198.122 141.39C197.735 141.968 197.135 142.371 196.453 142.504H196.44Z"
    fill="#6C63FF"
  />
  <path
    opacity="0.4"
    d="M186.479 151.91C185.109 151.426 182 147.586 182 147.586C182 147.586 186.83 146.484 188.193 146.958C188.524 147.066 188.832 147.238 189.098 147.465C189.361 147.693 189.579 147.972 189.735 148.284C189.89 148.596 189.981 148.937 190.004 149.285C190.027 149.632 189.978 149.983 189.865 150.311C189.751 150.64 189.572 150.945 189.339 151.205C189.105 151.465 188.823 151.676 188.508 151.825C188.193 151.975 187.849 152.059 187.502 152.072C187.154 152.085 186.807 152.03 186.479 151.91Z"
    fill="#6C63FF"
  />
  <path
    opacity="0.4"
    d="M177.339 157.33C175.911 157.089 172.197 153.824 172.197 153.824C172.197 153.824 176.764 151.92 178.192 152.157C178.533 152.209 178.861 152.333 179.16 152.511C179.455 152.693 179.711 152.93 179.916 153.21C180.117 153.489 180.263 153.808 180.344 154.146C180.426 154.483 180.435 154.831 180.38 155.172C180.322 155.513 180.198 155.842 180.017 156.134C179.835 156.426 179.595 156.683 179.312 156.881C179.03 157.079 178.712 157.222 178.374 157.3C178.027 157.382 177.68 157.388 177.339 157.33Z"
    fill="#6C63FF"
  />
  <path
    opacity="0.4"
    d="M186.359 137.277C186.359 138.726 188.979 142.923 188.979 142.923C188.979 142.923 191.601 138.729 191.601 137.28C191.601 136.585 191.325 135.918 190.835 135.428C190.345 134.937 189.676 134.661 188.982 134.661C188.287 134.661 187.619 134.937 187.128 135.428C186.635 135.918 186.359 136.585 186.359 137.277Z"
    fill="#6C63FF"
  />
  <path
    opacity="0.4"
    d="M175.748 143.752C176.183 145.133 179.935 148.356 179.935 148.356C179.935 148.356 181.181 143.567 180.75 142.183C180.542 141.52 180.078 140.968 179.464 140.646C178.848 140.324 178.13 140.259 177.465 140.467C176.803 140.675 176.248 141.137 175.926 141.754C175.605 142.368 175.54 143.089 175.748 143.752Z"
    fill="#6C63FF"
  />
  <path
    d="M166.299 151.458C166.494 152.894 169.649 156.705 169.649 156.705C169.649 156.705 171.687 152.196 171.496 150.76C171.402 150.071 171.041 149.447 170.486 149.025C169.935 148.602 169.237 148.417 168.549 148.511C167.861 148.602 167.237 148.966 166.815 149.519C166.393 150.071 166.208 150.766 166.299 151.458Z"
    fill="#6C63FF"
  />
  <path
    opacity="0.25"
    d="M166.299 151.458C166.494 152.894 169.649 156.705 169.649 156.705C169.649 156.705 171.687 152.196 171.496 150.76C171.402 150.071 171.041 149.447 170.486 149.025C169.935 148.602 169.237 148.417 168.549 148.511C167.861 148.602 167.237 148.966 166.815 149.519C166.393 150.071 166.208 150.766 166.299 151.458Z"
    fill="#8383E2"
  />
  <path
    d="M166.712 161.501L166.066 161.439C166.079 161.316 167.348 148.986 174.44 142.459C177.358 139.808 179.37 136.214 180.114 132.345C180.455 130.49 180.627 128.586 180.623 126.688H181.273C181.276 128.625 181.101 130.568 180.75 132.465C179.981 136.474 177.897 140.194 174.878 142.94C167.974 149.291 166.725 161.377 166.712 161.501Z"
    fill="#535461"
  />
  <path
    d="M185.388 122.562C184.846 123.904 180.847 126.818 180.847 126.818C180.847 126.818 179.987 121.945 180.529 120.603C180.652 120.275 180.837 119.976 181.078 119.72C181.318 119.466 181.607 119.261 181.928 119.122C182.246 118.982 182.593 118.904 182.941 118.901C183.291 118.894 183.639 118.959 183.963 119.089C184.288 119.219 184.583 119.414 184.83 119.661C185.077 119.908 185.275 120.2 185.408 120.525C185.541 120.85 185.606 121.195 185.602 121.545C185.599 121.896 185.525 122.241 185.388 122.562Z"
    fill="#8383E2"
  />
  <path
    d="M186.408 131.617C185.223 132.449 180.283 132.722 180.283 132.722C180.283 132.722 182.214 128.163 183.392 127.332C183.675 127.133 183.993 126.994 184.327 126.916C184.665 126.841 185.012 126.831 185.35 126.893C185.69 126.952 186.012 127.075 186.304 127.26C186.596 127.445 186.846 127.686 187.044 127.965C187.242 128.248 187.381 128.563 187.459 128.901C187.534 129.236 187.544 129.583 187.485 129.924C187.427 130.265 187.3 130.587 187.115 130.88C186.93 131.165 186.69 131.419 186.408 131.617Z"
    fill="#8383E2"
  />
  <path
    d="M181.114 144.255C179.663 144.375 175.268 142.114 175.268 142.114C175.268 142.114 179.231 139.154 180.663 139.031C181.354 138.972 182.042 139.193 182.575 139.642C183.107 140.09 183.438 140.73 183.496 141.425C183.555 142.117 183.337 142.806 182.886 143.336C182.438 143.865 181.795 144.197 181.104 144.255H181.114Z"
    fill="#8383E2"
  />
  <path
    d="M174.95 152.914C173.548 153.274 168.828 151.793 168.828 151.793C168.828 151.793 172.23 148.203 173.632 147.839C173.97 147.745 174.32 147.719 174.664 147.761C175.011 147.803 175.346 147.917 175.648 148.089C175.95 148.261 176.216 148.495 176.427 148.771C176.638 149.051 176.79 149.366 176.881 149.704C176.969 150.042 176.988 150.392 176.936 150.737C176.888 151.081 176.768 151.413 176.589 151.712C176.41 152.01 176.174 152.27 175.891 152.475C175.609 152.68 175.291 152.829 174.95 152.91V152.914Z"
    fill="#8383E2"
  />
  <path
    d="M175.076 130.922C175.66 132.248 179.757 135.029 179.757 135.029C179.757 135.029 180.455 130.129 179.87 128.807C179.581 128.187 179.059 127.702 178.416 127.462C177.773 127.222 177.063 127.241 176.433 127.517C175.806 127.797 175.31 128.307 175.06 128.947C174.807 129.587 174.813 130.295 175.079 130.929V130.922H175.076Z"
    fill="#8383E2"
  />
  <path
    d="M167.997 141.143C168.951 142.232 173.69 143.655 173.69 143.655C173.69 143.655 172.891 138.772 171.934 137.683C171.71 137.417 171.434 137.199 171.122 137.043C170.814 136.884 170.473 136.79 170.126 136.767C169.778 136.741 169.431 136.786 169.1 136.897C168.772 137.007 168.467 137.183 168.204 137.413C167.945 137.644 167.73 137.924 167.578 138.235C167.425 138.551 167.338 138.888 167.318 139.236C167.299 139.584 167.347 139.931 167.464 140.26C167.584 140.584 167.763 140.887 167.997 141.143Z"
    fill="#8383E2"
  />
  <path
    d="M162.482 152.017C163.242 153.252 167.669 155.455 167.669 155.455C167.669 155.455 167.705 150.507 166.945 149.272C166.767 148.98 166.53 148.723 166.251 148.522C165.971 148.32 165.657 148.174 165.322 148.096C164.988 148.018 164.641 148.002 164.3 148.057C163.959 148.112 163.634 148.232 163.342 148.411C163.047 148.59 162.794 148.827 162.592 149.106C162.391 149.386 162.245 149.701 162.164 150.036C162.083 150.37 162.07 150.718 162.125 151.059C162.18 151.4 162.3 151.725 162.482 152.017Z"
    fill="#8383E2"
  />
  <path
    opacity="0.1"
    d="M90.9788 201.563C106.838 201.563 119.692 199.409 119.692 196.749C119.692 194.091 106.835 191.934 90.9788 191.934C75.1228 191.934 62.2659 194.088 62.2659 196.749C62.2659 199.406 75.1228 201.563 90.9788 201.563Z"
    fill="#6C63FF"
  />
  <path
    opacity="0.1"
    d="M147.496 164.61C163.355 164.61 176.209 162.456 176.209 159.795C176.209 157.135 163.355 154.98 147.496 154.98C131.637 154.98 118.783 157.135 118.783 159.795C118.783 162.456 131.637 164.61 147.496 164.61Z"
    fill="#6C63FF"
  />
  <path
    d="M149.402 96.2624L149.376 97.2014L147.743 154.815H145L146.347 97.2014L146.373 96.1162L149.402 96.2624Z"
    fill="#B77B7F"
  />
  <path
    d="M165.287 145.068L163.232 145.065L132.695 145L131.065 144.997L131.932 142.326H165.069L165.287 145.068Z"
    fill="#DDA2A6"
  />
  <path
    opacity="0.1"
    d="M149.401 96.2624L149.375 97.2014H146.344L146.369 96.1162L149.401 96.2624Z"
    fill="black"
  />
  <path d="M150.557 94.8555H145.467V96.7724H150.557V94.8555Z" fill="#B77B7F" />
  <path
    opacity="0.1"
    d="M132.961 142.326L132.691 145L131.062 144.997L131.929 142.326H132.961Z"
    fill="black"
  />
  <path
    d="M137.346 94.8164L137.262 95.6481L130.488 162.469L127.385 162.323L134.525 95.6514L134.607 94.8944L137.346 94.8164Z"
    fill="#DDA2A6"
  />
  <path
    opacity="0.1"
    d="M165.287 145.068L163.232 145.065L162.953 142.326H165.069L165.287 145.068Z"
    fill="black"
  />
  <path
    d="M168.536 162.32L165.429 162.466L158.655 95.6452L158.571 94.8135L161.31 94.885L161.391 95.642L168.536 162.32Z"
    fill="#DDA2A6"
  />
  <path d="M181.743 28.9375H113.304V94.5662H181.743V28.9375Z" fill="#A9A4ED" />
  <path
    d="M148.859 6.98754V22.8359H146.191V6.98754C146.185 6.80885 146.214 6.62692 146.275 6.45797C146.337 6.28903 146.435 6.13633 146.561 6.00637C146.684 5.87641 146.837 5.77244 147.003 5.70097C147.168 5.62949 147.347 5.59375 147.525 5.59375C147.707 5.59375 147.885 5.62949 148.051 5.70097C148.216 5.77244 148.366 5.87641 148.492 6.00637C148.616 6.13633 148.713 6.28903 148.778 6.45797C148.84 6.62692 148.869 6.80885 148.859 6.98754Z"
    fill="#DDA2A6"
  />
  <path
    opacity="0.1"
    d="M148.86 21.3936H146.188V22.8361H148.86V21.3936Z"
    fill="black"
  />
  <path
    d="M149.908 22.475V27.7058H145.156V22.475C145.156 22.3905 145.172 22.306 145.204 22.2248C145.237 22.1468 145.286 22.0754 145.344 22.0136C145.406 21.9519 145.477 21.9064 145.555 21.8739C145.633 21.8414 145.717 21.8252 145.802 21.8252H149.259C149.431 21.8252 149.593 21.8967 149.716 22.0169C149.84 22.1403 149.908 22.3028 149.908 22.475Z"
    fill="#DDA2A6"
  />
  <path
    opacity="0.1"
    d="M147.526 26.1566C148.084 26.1566 148.535 25.705 148.535 25.1462C148.535 24.5874 148.084 24.1357 147.526 24.1357C146.967 24.1357 146.516 24.5874 146.516 25.1462C146.516 25.705 146.967 26.1566 147.526 26.1566Z"
    fill="black"
  />
  <path
    d="M147.526 25.9388C148.084 25.9388 148.535 25.4872 148.535 24.9284C148.535 24.3696 148.084 23.918 147.526 23.918C146.967 23.918 146.516 24.3696 146.516 24.9284C146.516 25.4872 146.967 25.9388 147.526 25.9388Z"
    fill="#B77B7F"
  />
  <path
    opacity="0.1"
    d="M149.908 27.0596H145.143V27.7093H149.908V27.0596Z"
    fill="black"
  />
  <path
    opacity="0.1"
    d="M151.859 27.9268H143.195V29.3725H151.859V27.9268Z"
    fill="black"
  />
  <path d="M151.859 27.4912H143.195V28.937H151.859V27.4912Z" fill="#DDA2A6" />
  <path
    opacity="0.1"
    d="M129.998 92.874H166.384C166.799 92.874 167.199 93.0397 167.494 93.3354C167.789 93.631 167.955 94.0307 167.955 94.4465V94.7909H128.43V94.4465C128.43 94.0307 128.595 93.631 128.891 93.3354C129.183 93.0397 129.582 92.874 129.998 92.874Z"
    fill="black"
  />
  <path
    opacity="0.1"
    d="M134.603 94.8908L137.346 94.8193L137.262 95.651H134.522L134.603 94.8908Z"
    fill="black"
  />
  <path
    opacity="0.1"
    d="M150.557 94.8555H145.467V95.6515H150.557V94.8555Z"
    fill="black"
  />
  <path
    opacity="0.1"
    d="M161.395 95.6481H158.659L158.574 94.8164L161.314 94.8879L161.395 95.6481Z"
    fill="black"
  />
  <path
    d="M129.998 93.2988H166.384C166.799 93.2988 167.199 93.4645 167.494 93.7602C167.789 94.0558 167.955 94.4554 167.955 94.8713V95.2157H128.43V94.8713C128.43 94.4554 128.595 94.0558 128.891 93.7602C129.183 93.4645 129.582 93.2988 129.998 93.2988Z"
    fill="#DDA2A6"
  />
  <path
    d="M122.022 62.8341C121.474 62.5449 115.501 58.0321 115.501 58.0321L105.861 51.9176C105.861 51.9176 105.809 51.7714 105.718 51.5245C108.364 48.5225 107.786 44.1657 105.095 41.1019C101.833 37.3883 87.1 29.3894 82.6629 36.2285C82.0429 37.1934 82.0202 38.2916 81.8579 39.354C81.4781 41.8362 80.2577 44.2371 78.3394 46.2612C76.8625 47.824 74.9215 49.2632 74.0711 51.0307C74.0711 51.0079 74.0548 50.9884 74.0483 50.9624C73.8438 51.3426 73.6945 51.7487 73.6069 52.171C73.1849 54.3283 74.6326 56.3947 75.4051 58.4935C75.6648 59.205 75.8498 59.9393 75.9666 60.6865C75.9861 60.5371 76.0024 60.3909 76.0186 60.2382C76.2068 61.3038 76.2718 62.3857 76.2101 63.4644C70.8609 64.5528 70.8577 73.7051 70.8577 73.7051C70.8577 73.7051 70.1987 77.3439 70.3091 78.6532C70.4195 79.9658 70.4162 82.8021 70.4162 83.4844C70.4162 84.1667 69.7573 88.4325 69.6924 88.9426C69.6924 88.9491 69.6924 88.9556 69.6924 88.9654C69.595 89.5242 68.592 92.2273 71.0167 92.8316C71.1855 92.8738 71.364 92.9128 71.549 92.9453C71.6529 95.1319 71.8411 99.7096 71.6756 100.727C71.6756 100.727 72.5585 106.877 73.2888 108.44C73.753 109.356 74.2918 110.23 74.9085 111.052C74.8566 111.425 74.73 111.786 74.5352 112.111C74.1619 112.65 74.3534 113.092 74.9799 113.284C74.9572 113.469 74.9345 113.68 74.9085 113.917C74.6391 116.289 74.2398 121.003 74.9215 123.391C75.8563 126.666 75.9115 127.758 75.9115 127.758C75.9115 127.758 75.9115 128.739 76.2977 129.285C76.684 129.831 77.3981 134.905 77.3981 135.727C77.3981 136.546 79.2677 143.915 78.7159 145.659C78.1641 147.404 78.6088 149.864 78.6088 149.864C78.6088 149.864 78.2777 154.175 77.885 155.101C77.4922 156.027 77.3332 170.982 77.9369 174.858C78.5406 178.734 78.9269 181.95 78.9269 181.95C78.9269 181.95 78.5439 185.498 78.8717 185.989C79.1995 186.479 79.8065 189.429 79.3683 189.588C78.9301 189.751 78.7094 190.953 78.7094 190.953C78.9431 191.307 79.193 191.645 79.4592 191.973C79.2904 191.915 79.1249 191.843 78.9626 191.765C79.1379 192.006 79.3975 192.35 79.7189 192.73L79.417 196.655C79.404 196.808 79.4462 196.96 79.5339 197.087C79.6215 197.214 79.7513 197.305 79.9006 197.344C80.8647 197.607 81.8839 197.6 82.8446 197.331C83.8054 197.061 84.6786 196.531 85.3634 195.807C88.1127 193.023 89.0475 193.406 89.5409 191.717C89.5928 191.535 89.6415 191.356 89.6772 191.187C90.031 189.679 88.4275 188.559 87.1487 189.202C87.3239 188.009 87.4635 186.651 87.3304 185.888C87.0545 184.306 87.1097 180.16 87.1097 180.16L86.7267 160.293C86.7267 160.293 87.4408 156.365 88.2652 154.838C89.0897 153.311 88.9891 147.96 88.9891 147.96L89.9239 130.386L90.8035 121.819C90.8035 121.819 91.6831 118.872 92.7803 122.147C92.7803 122.147 92.1765 128.749 92.4524 130.331C92.7283 131.916 93.1113 139.61 92.8354 141.299C92.5595 142.989 91.3521 152.271 92.1116 154.617C92.8711 156.963 93.7151 159.805 93.5463 160.735C93.3775 161.664 92.8224 181.801 92.8224 181.801C92.8224 181.801 94.309 185.664 93.2087 186.931C92.1084 188.198 93.1535 193.211 93.1535 193.211C93.1535 193.211 93.2866 193.305 93.5138 193.435L93.4814 193.854L93.1373 198.367C93.1243 198.52 93.1665 198.673 93.2541 198.799C93.3418 198.926 93.4716 199.017 93.6209 199.059C94.585 199.322 95.6041 199.316 96.5649 199.046C97.5257 198.776 98.3988 198.25 99.0837 197.522C101.833 194.738 102.768 195.121 103.261 193.429C103.313 193.247 103.362 193.071 103.401 192.899C103.787 191.252 101.83 190.06 100.522 191.135L100.457 191.19C100.389 191.249 100.317 191.304 100.243 191.353C100.207 191.379 100.171 191.401 100.135 191.421C100.411 190.173 100.811 188.039 100.619 187.038C100.343 185.566 100.892 181.089 100.892 181.089C100.892 181.089 102.485 175.738 102.541 173.6L102.979 156.576C102.979 156.576 102.927 149.643 103.144 147.953C103.365 146.261 105.121 131.634 106.88 127.267C108.231 123.924 108.834 115.392 108.477 111.068C108.458 110.857 108.438 110.649 108.416 110.46C110.571 108.868 110.788 106.221 110.788 106.221C110.788 106.221 108.808 102.439 106.903 100.837C104.998 99.2353 104.585 96.4834 104.654 95.3105C104.686 94.5958 104.452 93.8973 103.995 93.3482C103.995 93.3482 103.115 90.5086 102.528 90.2195C102.479 90.1935 102.437 90.161 102.401 90.122C102.002 89.6931 102.31 88.4715 102.31 88.4715V88.4325C102.382 88.1499 102.794 86.3175 102.67 85.8496C102.524 85.3428 102.742 82.9386 102.742 82.9386C102.742 82.9386 104.134 78.7897 103.917 75.5147C103.696 72.2398 106.776 72.5322 106.776 72.5322L116.287 72.4347H117.368C117.751 72.1098 118.098 71.7492 118.41 71.3561C120.221 71.1416 123.885 70.4561 124.298 68.458C124.846 65.8166 122.571 63.1232 122.022 62.8341ZM77.9661 93.111L78.031 91.4476C78.255 91.6425 78.4043 91.7627 78.4043 91.7627C78.5244 92.1981 78.5309 92.6562 78.4205 93.0948C78.3621 93.2995 78.2582 93.4911 78.1154 93.6503C77.9726 93.8095 77.7973 93.9362 77.5993 94.0175C77.5539 94.037 77.5084 94.0597 77.4662 94.0889L77.3754 93.15L77.9661 93.111ZM112.457 63.8867C112.054 63.7048 110.697 63.7405 110 63.7405C109.302 63.7405 108.169 63.159 108.169 63.159C107.929 62.6879 106.591 62.4085 105.403 62.2493C104.501 60.0238 103.229 57.8502 103.057 55.5305C103.057 55.446 103.057 55.3615 103.044 55.277L103.18 55.5175C103.18 55.5175 108.717 59.0491 109.341 60.1082C109.824 60.914 112.148 62.7171 113.226 63.5229C113.077 63.7178 112.869 63.8543 112.635 63.9192C112.574 63.9225 112.512 63.9127 112.457 63.8867Z"
    fill="#211011"
  />
  <path
    d="M103.313 192.921C103.271 193.09 103.229 193.266 103.177 193.445C102.693 195.134 101.768 194.744 99.0707 197.506C98.3988 198.227 97.5419 198.75 96.5941 199.016C95.6463 199.286 94.6433 199.293 93.6922 199.029C93.5429 198.99 93.4131 198.9 93.3255 198.776C93.2378 198.649 93.1956 198.497 93.2086 198.344L93.5494 193.864L93.7117 191.71C93.7117 191.71 98.0222 192.918 100.213 191.385C100.288 191.336 100.356 191.281 100.424 191.222C100.44 191.206 100.457 191.19 100.473 191.174C100.755 190.94 101.106 190.8 101.473 190.774C101.839 190.748 102.206 190.839 102.518 191.031C102.829 191.222 103.076 191.508 103.219 191.846C103.362 192.19 103.394 192.564 103.313 192.921Z"
    fill="#67647E"
  />
  <path
    d="M89.7874 191.232C89.7452 191.401 89.703 191.576 89.6511 191.755C89.1674 193.444 88.2423 193.054 85.545 195.816C84.8731 196.537 84.0162 197.06 83.0684 197.33C82.1206 197.6 81.1176 197.603 80.1666 197.343C80.0173 197.304 79.8875 197.213 79.7998 197.086C79.7122 196.963 79.67 196.807 79.683 196.658L80.0238 192.177L80.1861 190.023C80.1861 190.023 84.4966 191.232 86.6876 189.698C86.7622 189.646 86.8304 189.594 86.8986 189.536C86.9148 189.52 86.931 189.503 86.9472 189.487C87.2296 189.253 87.5802 189.113 87.947 189.087C88.3138 189.061 88.6805 189.149 88.9921 189.344C89.3037 189.536 89.5504 189.822 89.6933 190.163C89.8361 190.498 89.8685 190.874 89.7874 191.232Z"
    fill="#67647E"
  />
  <path
    opacity="0.1"
    d="M85.3372 191.905L85.5125 194.234C83.0391 196.707 80.0951 193.026 79.2317 191.82C81.4973 192.987 85.3372 191.905 85.3372 191.905Z"
    fill="black"
  />
  <path
    opacity="0.1"
    d="M99.8757 192.85L100.2 192.636C97.9411 196.07 94.5881 194.488 93.543 193.871L93.7053 191.716C93.7053 191.716 98.0158 192.925 100.207 191.392C100.031 192.23 99.8757 192.85 99.8757 192.85Z"
    fill="black"
  />
  <path
    d="M106.754 127.819C105.02 132.15 103.287 146.66 103.07 148.349C102.852 150.038 102.907 156.903 102.907 156.903L102.472 173.785C102.417 175.9 100.846 181.206 100.846 181.206C100.846 181.206 100.304 185.647 100.577 187.106C100.846 188.568 99.8725 192.418 99.8725 192.418L100.197 192.2C97.49 196.307 93.2119 193.23 93.2119 193.23C93.2119 193.23 92.183 188.249 93.2671 187.005C94.3512 185.757 92.8874 181.914 92.8874 181.914C92.8874 181.914 93.4294 161.933 93.5917 161.013C93.754 160.094 92.9425 157.277 92.183 154.948C91.4235 152.618 92.6179 143.414 92.8874 141.734C93.1568 140.054 92.7802 132.419 92.5076 130.85C92.2349 129.281 92.8322 122.728 92.8322 122.728C91.7513 119.479 90.8846 122.403 90.8846 122.403L90.018 130.902L89.0962 148.339C89.0962 148.339 89.2065 153.655 88.3918 155.162C87.5803 156.673 86.876 160.575 86.876 160.575L87.2558 180.286C87.2558 180.286 87.2038 184.393 87.4732 185.969C87.7426 187.544 86.876 191.602 86.876 191.602C83.8444 198.747 78.9755 191.001 78.9755 191.001C78.9755 191.001 79.193 189.809 79.6247 189.65C80.0564 189.487 79.4624 186.563 79.1411 186.076C78.8197 185.588 79.193 182.07 79.193 182.07C79.193 182.07 78.8132 178.876 78.2257 175.029C77.6382 171.183 77.7941 156.348 78.1738 155.428C78.5536 154.509 78.8782 150.23 78.8782 150.23C78.8782 150.23 78.4465 147.793 78.9885 146.058C79.5306 144.324 77.6902 137.017 77.6902 136.204C77.6902 135.389 76.9858 130.356 76.6093 129.817C76.2295 129.274 76.2295 128.3 76.2295 128.3C76.2295 128.3 76.1776 127.218 75.2623 123.969C74.5904 121.597 74.9864 116.922 75.2493 114.566C75.3434 113.696 75.4246 113.14 75.4246 113.14C75.4246 113.14 106.478 108.104 107.718 109.241C108.007 109.511 108.201 110.431 108.315 111.74C108.685 116.035 108.078 124.511 106.754 127.819Z"
    fill="#453186"
  />
  <path
    opacity="0.1"
    d="M95.001 152.167C95.147 152.167 98.5747 152.456 99.8308 152.203C101.087 151.949 95.001 152.167 95.001 152.167Z"
    fill="black"
  />
  <path
    opacity="0.1"
    d="M95.2539 154.188C95.2539 154.188 99.9896 155.02 100.233 154.588C100.473 154.156 95.2539 154.188 95.2539 154.188Z"
    fill="black"
  />
  <path
    opacity="0.1"
    d="M80.7805 153.32C80.7805 153.32 83.2344 153.428 84.5717 154.045C85.9057 154.662 80.7805 153.32 80.7805 153.32Z"
    fill="black"
  />
  <path
    d="M71.8611 92.6037C71.8611 92.6037 72.2571 100.148 72.0429 101.483C72.0429 101.483 72.9063 107.585 73.6301 109.134C74.3507 110.684 75.9054 112.637 75.9054 112.637L78.0347 97.6623L77.5284 92.5322L71.8611 92.6037Z"
    fill="#EFB7B9"
  />
  <path
    d="M94.241 58.2361C98.8469 58.2361 102.58 54.503 102.58 49.8993C102.58 45.2955 98.8469 41.5625 94.241 41.5625C89.6351 41.5625 85.9023 45.2955 85.9023 49.8993C85.9023 54.503 89.6383 58.2361 94.241 58.2361Z"
    fill="#EFB7B9"
  />
  <path
    d="M89.911 53.7951C89.911 53.7951 87.3111 58.8862 84.7144 61.2677C82.1144 63.6492 100.308 66.3556 100.739 66.3556C101.171 66.3556 97.4901 55.5268 98.1393 54.2207C98.7885 52.9147 89.911 53.7951 89.911 53.7951Z"
    fill="#EFB7B9"
  />
  <path
    opacity="0.1"
    d="M108.321 111.744C107.912 112.056 107.461 112.309 106.984 112.491C103.667 113.791 100.054 115.594 97.6003 114.876C95.1464 114.154 89.9498 114.876 89.9498 114.876C89.9498 114.876 79.4786 114.008 77.3915 114.515C76.4405 114.746 75.7004 114.736 75.2168 114.57C75.3109 113.7 75.3921 113.144 75.3921 113.144C75.3921 113.144 106.481 108.108 107.721 109.245C108.013 109.512 108.201 110.434 108.321 111.744Z"
    fill="black"
  />
  <path
    d="M110.593 106.932C110.593 106.932 110.304 110.541 106.984 111.841C103.66 113.141 100.054 114.944 97.6001 114.226C95.1462 113.504 89.9496 114.226 89.9496 114.226C89.9496 114.226 79.4784 113.358 77.3914 113.865C75.301 114.369 74.2136 113.722 74.8628 112.783C75.512 111.844 75.4438 108.738 75.4438 107.442C75.4438 106.142 74.72 100.873 75.3692 99.9336C76.0184 98.9946 76.5961 95.3851 77.8945 94.8067C78.0892 94.7255 78.2645 94.5988 78.4041 94.4429C78.5436 94.2837 78.6475 94.0952 78.7059 93.8938C78.813 93.4584 78.8066 93.0036 78.6897 92.5715C78.6897 92.5715 78.469 92.3895 78.1671 92.1231C77.4011 91.4408 76.106 90.1705 76.5215 89.7546C77.0992 89.1763 76.5215 85.4205 76.5215 85.4205C76.5215 85.4205 75.1485 82.5355 75.6581 81.4536C76.1644 80.3717 71.2534 74.6665 71.2534 74.6665C71.2534 74.6665 71.2534 64.8514 77.1739 64.4161C77.1739 64.4161 81.361 64.5623 81.8674 62.6844C82.3738 60.8065 85.6943 59.7246 85.6943 59.7246L93.2766 61.3848C93.2766 61.3848 99.9891 62.8339 101.219 61.9631C102.449 61.0924 103.394 63.1165 103.394 63.1165C103.394 63.1165 107.581 63.3342 108.013 64.2017C108.445 65.0691 106.643 73.5131 106.643 73.5131C106.643 73.5131 103.608 73.2272 103.826 76.4729C104.043 79.7186 102.657 83.8383 102.657 83.8383C102.657 83.8383 102.44 86.2198 102.586 86.7234C102.722 87.188 102.3 89.0074 102.232 89.2868V89.3225C102.232 89.3225 101.93 90.5311 102.323 90.96C102.359 90.999 102.401 91.0315 102.449 91.0575C103.03 91.3434 103.897 94.1602 103.897 94.1602C104.348 94.706 104.579 95.4013 104.546 96.1096C104.475 97.2662 104.91 100.008 106.786 101.597C108.652 103.183 110.593 106.932 110.593 106.932Z"
    fill="#DB839F"
  />
  <path
    d="M78.3949 90.2127V90.5181L78.2651 93.9002C78.2651 93.9002 73.8248 94.2609 71.4066 93.6598C68.9884 93.0588 70.0044 90.3751 70.1017 89.8196C70.1017 89.8131 70.1017 89.8066 70.1017 89.7968C70.1732 89.29 70.8256 85.0664 70.8256 84.3809C70.8256 83.6953 70.8256 80.8785 70.7152 79.5789C70.6081 78.2793 71.2475 74.66 71.2475 74.66L71.7149 74.085L76.8012 76.0343L78.3949 90.2127Z"
    fill="#DB839F"
  />
  <path
    opacity="0.1"
    d="M78.3847 90.5276L78.2549 93.9098C78.2549 93.9098 73.8145 94.2704 71.3963 93.6694C68.9782 93.0683 69.9941 90.3847 70.0915 89.8291L78.3847 90.5276Z"
    fill="black"
  />
  <path
    opacity="0.1"
    d="M78.7026 93.8905C78.8097 93.4552 78.8033 93.0003 78.6864 92.5682C78.6864 92.5682 78.4657 92.3863 78.1638 92.1199C81.9874 91.587 97.1294 89.5077 102.229 89.2803V89.316C102.229 89.316 101.927 90.5246 102.32 90.9535L78.7026 93.8905Z"
    fill="black"
  />
  <path
    opacity="0.1"
    d="M102.797 96.4932C102.797 96.4932 103.735 101.808 100.236 103.677C100.233 103.686 102.219 101.051 102.797 96.4932Z"
    fill="black"
  />
  <path
    opacity="0.1"
    d="M79.8782 103.828C79.8782 103.828 88.3304 102.379 89.9858 103.504C91.6379 104.631 79.8782 103.828 79.8782 103.828Z"
    fill="black"
  />
  <path
    opacity="0.1"
    d="M99.8762 70.9434C99.8762 70.9434 98.5778 76.2879 99.5516 77.5127C100.522 78.7408 99.8762 70.9434 99.8762 70.9434Z"
    fill="black"
  />
  <path
    opacity="0.1"
    d="M75.402 66.5762C75.402 66.5762 76.5932 68.5613 75.8694 70.6211C75.1456 72.6777 75.402 66.5762 75.402 66.5762Z"
    fill="black"
  />
  <path
    opacity="0.1"
    d="M72.9385 83.9775C72.9385 83.9775 74.4543 84.8775 73.9512 86.2875C73.4481 87.6943 72.9385 83.9775 72.9385 83.9775Z"
    fill="black"
  />
  <path
    opacity="0.1"
    d="M72.802 79.8613C72.802 79.8613 74.2075 80.6183 74.3892 81.7392C74.5677 82.8569 72.802 79.8613 72.802 79.8613Z"
    fill="black"
  />
  <path
    opacity="0.1"
    d="M93.6663 123.033C93.6663 123.033 102.511 123.936 104.28 121.841C104.277 121.857 96.3019 123.433 93.6663 123.033Z"
    fill="black"
  />
  <path
    opacity="0.1"
    d="M78.3943 122.529C78.3943 122.529 87.8884 124.768 89.7646 122.997C89.7678 122.997 81.6077 123.611 78.3943 122.529Z"
    fill="black"
  />
  <path
    opacity="0.1"
    d="M94.3518 125.961C94.3518 125.961 98.3215 125.961 100.162 126.068C102.002 126.179 94.3518 125.961 94.3518 125.961Z"
    fill="black"
  />
  <path
    opacity="0.1"
    d="M79.0471 127.653C79.0471 127.653 80.9946 129.856 83.1986 129.46C85.3993 129.063 79.0471 127.653 79.0471 127.653Z"
    fill="black"
  />
  <path
    d="M82.8738 37.4726C82.2636 38.4212 82.2408 39.5194 82.0818 40.5753C81.7085 43.038 80.5043 45.4195 78.6185 47.4306C76.8852 49.2727 74.5124 50.9394 74.0645 53.1877C73.6393 55.3223 75.0805 57.3788 75.8367 59.4679C77.8297 64.9489 75.048 70.6963 74.2365 76.3527C74.0126 77.9154 74.282 79.9135 76.2068 80.4333C76.8073 80.599 77.4954 80.5763 78.0374 80.8362C78.7613 81.1838 78.9852 81.9051 79.1183 82.5549C79.6019 84.8779 79.7707 87.2594 79.6149 89.6279C79.5273 90.9567 79.4299 92.4837 80.6861 93.3999C81.2573 93.819 82.0234 94.0302 82.7667 94.2316C84.7434 94.7644 87.3012 95.1965 88.6352 93.9457C89.1967 93.4226 89.4045 92.6819 90.1024 92.266C91.1475 91.6454 92.6309 92.0646 93.9487 92.1295C96.6525 92.266 99.1356 90.6805 100.2 88.7701C101.265 86.8598 101.168 84.6635 100.781 82.6036C100.395 80.5438 99.7036 78.497 99.6549 76.4047C99.6387 75.6801 99.7036 74.9426 100.119 74.2993C100.924 73.055 102.797 72.4897 104.076 71.5117C106.475 69.6761 106.468 66.6676 105.595 64.1529C104.722 61.635 103.157 59.2242 102.966 56.6218C102.878 55.9915 103.005 55.3547 103.32 54.8024C103.664 54.2728 104.261 53.8765 104.767 53.4411C108.266 50.4846 107.854 45.6307 104.962 42.307C101.758 38.6227 87.246 30.6888 82.8738 37.4726Z"
    fill="#3D1D1E"
  />
  <g opacity="0.1">
    <path
      opacity="0.1"
      d="M76.2814 61.7421C76.554 59.5458 76.5021 57.3691 75.7296 55.2313C75.3465 54.1818 74.7948 53.1422 74.3923 52.0928C74.191 52.4729 74.045 52.879 73.9573 53.3014C73.5321 55.4359 74.9733 57.4925 75.7296 59.5816C75.9827 60.2834 76.1678 61.0046 76.2814 61.7421Z"
      fill="black"
    />
    <path
      opacity="0.1"
      d="M79.5048 85.3953C79.6573 83.0268 79.4918 80.6486 79.0081 78.3223C78.8718 77.6725 78.6511 76.9513 77.9273 76.6036C77.3852 76.3437 76.6971 76.3632 76.0966 76.2008C75.7265 76.113 75.3825 75.9408 75.0903 75.6972C74.7982 75.4567 74.5645 75.1481 74.4055 74.8037C74.2951 75.3528 74.1977 75.9019 74.1166 76.4542C73.8926 78.0169 74.162 80.015 76.0868 80.5349C76.6873 80.6973 77.3755 80.6745 77.9175 80.9345C78.6413 81.2821 78.8653 82.0034 78.9984 82.6532C79.2191 83.7318 79.3749 84.8202 79.4626 85.9184C79.4853 85.7429 79.495 85.5707 79.5048 85.3953Z"
      fill="black"
    />
    <path
      opacity="0.1"
      d="M100.093 84.5369C99.0248 86.4538 96.5417 88.0328 93.8379 87.8964C92.5201 87.8281 91.04 87.4123 89.9948 88.0328C89.2969 88.4454 89.0827 89.1862 88.5244 89.7125C87.1904 90.9569 84.6326 90.5345 82.6559 89.9984C81.9158 89.797 81.1498 89.5858 80.5753 89.1667C80.03 88.7671 79.6632 88.1693 79.5496 87.5C79.5626 88.2408 79.5496 88.9848 79.5041 89.7255C79.4165 91.0543 79.3191 92.5814 80.5753 93.4976C81.1466 93.9134 81.9126 94.1246 82.6559 94.326C84.6326 94.8589 87.1904 95.291 88.5244 94.0401C89.0859 93.5171 89.2969 92.7763 89.9948 92.3507C91.0367 91.7301 92.5201 92.1492 93.8379 92.2142C96.5417 92.3507 99.0248 90.7652 100.093 88.8548C101.118 87.0094 101.07 84.9236 100.713 82.9287C100.58 83.4908 100.369 84.0334 100.093 84.5369Z"
      fill="black"
    />
    <path
      opacity="0.1"
      d="M104.666 49.2178C104.15 49.6531 103.55 50.0527 103.219 50.5791C102.904 51.1281 102.777 51.7682 102.865 52.3985C102.936 53.188 103.102 53.9677 103.361 54.7182C103.764 54.2894 104.205 53.8995 104.679 53.5486C107.045 51.5505 107.62 48.6849 106.854 46.0078C106.445 47.2652 105.689 48.3795 104.666 49.2178Z"
      fill="black"
    />
    <path
      opacity="0.1"
      d="M103.965 67.2786C102.686 68.2566 100.813 68.8252 100.012 70.0695C99.5929 70.7128 99.528 71.4535 99.5442 72.1716C99.5734 73.0163 99.6773 73.8578 99.8526 74.683C99.898 74.5855 99.9499 74.4913 100.008 74.4003C100.81 73.156 102.686 72.5907 103.962 71.6127C106.153 69.9363 106.335 67.2852 105.689 64.9199C105.364 65.8589 104.76 66.6808 103.965 67.2786Z"
      fill="black"
    />
  </g>
  <path
    d="M117.092 72.4249C117.092 72.4249 123.337 72.1 123.879 69.4651C124.421 66.8302 122.188 64.1498 121.643 63.8672C121.098 63.5845 115.21 59.101 115.21 59.101L105.719 53.0385C105.719 53.0385 101.171 39.9939 100.165 44.9876C99.1588 49.9812 103.09 56.6123 103.09 56.6123C103.09 56.6123 108.539 60.1147 109.153 61.1608C109.766 62.207 113.522 64.9491 113.522 64.9491L117.092 72.4249Z"
    fill="#EFB7B9"
  />
  <path
    d="M120.448 68.1622C118.968 71.918 117.053 73.3995 117.053 73.3995H115.988L106.624 73.497L105.543 70.5469L107.059 64.1562L107.997 64.1952C107.997 64.1952 109.117 64.7735 109.802 64.7735C110.487 64.7735 111.827 64.7378 112.217 64.9165C112.272 64.9425 112.334 64.9522 112.392 64.9425C112.746 64.9068 113.116 64.3739 113.116 64.3739C113.116 64.3739 121.928 64.4097 120.448 68.1622Z"
    fill="#DB839F"
  />
  <path
    opacity="0.1"
    d="M120.448 68.1616C118.968 71.9174 117.053 73.3989 117.053 73.3989H115.988C116.543 71.9109 117.715 68.8569 118.159 68.1519C118.598 67.4858 114.673 65.8256 112.382 64.9289C112.736 64.8932 113.106 64.3604 113.106 64.3604C113.106 64.3604 121.928 64.4091 120.448 68.1616Z"
    fill="black"
  />
  <path
    opacity="0.1"
    d="M22.5432 186.54C28.4377 186.54 33.2156 185.604 33.2156 184.451C33.2156 183.298 28.4377 182.365 22.5432 182.365C16.6487 182.365 11.874 183.298 11.874 184.451C11.8708 185.604 16.6487 186.54 22.5432 186.54Z"
    fill="#6C63FF"
  />
  <path
    opacity="0.1"
    d="M200.42 172.207C204.711 172.207 208.194 171.528 208.194 170.686C208.194 169.848 204.715 169.169 200.42 169.169C196.126 169.169 192.646 169.848 192.646 170.686C192.646 171.528 196.126 172.207 200.42 172.207Z"
    fill="#6C63FF"
  />
  <path
    opacity="0.1"
    d="M234.109 178.363C238.4 178.363 241.883 177.684 241.883 176.846C241.883 176.007 238.403 175.325 234.109 175.325C229.815 175.325 226.335 176.007 226.335 176.846C226.338 177.684 229.818 178.363 234.109 178.363Z"
    fill="#6C63FF"
  />
  <path
    opacity="0.1"
    d="M181.941 191.043C186.236 191.043 189.715 190.364 189.715 189.526C189.715 188.688 186.236 188.009 181.941 188.009C177.65 188.009 174.167 188.688 174.167 189.526C174.167 190.364 177.65 191.043 181.941 191.043Z"
    fill="#6C63FF"
  />
  <path
    opacity="0.59"
    d="M32.6281 126.52C32.6281 126.52 34.3776 128.807 31.8198 132.257C29.2653 135.708 27.162 138.619 28.0157 140.773C28.0157 140.773 31.8685 134.366 35.0041 134.275C38.1396 134.184 36.0784 130.376 32.6281 126.52Z"
    fill="#453186"
  />
  <path
    opacity="0.1"
    d="M32.625 126.52C32.7775 126.744 32.8976 126.987 32.982 127.244C36.0429 130.841 37.6723 134.197 34.7315 134.281C31.992 134.359 28.704 139.259 27.9185 140.496C27.9444 140.594 27.9736 140.688 28.0126 140.779C28.0126 140.779 31.8654 134.372 35.0009 134.281C38.1397 134.19 36.0786 130.376 32.625 126.52Z"
    fill="black"
  />
  <path
    d="M35.8735 129.434C35.8735 130.24 35.7826 130.883 35.6723 130.883C35.5619 130.883 35.4678 130.23 35.4678 129.434C35.4678 128.638 35.5814 129.008 35.6917 129.008C35.8086 129.008 35.8735 128.618 35.8735 129.434Z"
    fill="#FFD037"
  />
  <path
    d="M36.9902 130.396C36.2859 130.779 35.6692 131.013 35.6173 130.916C35.5653 130.815 36.1009 130.431 36.7987 130.042C37.4966 129.652 37.2272 129.938 37.2824 130.042C37.3343 130.142 37.6946 130.009 36.9902 130.396Z"
    fill="#FFD037"
  />
  <path
    opacity="0.59"
    d="M23.3963 126.52C23.3963 126.52 21.6468 128.807 24.2045 132.257C26.7623 135.708 28.8623 138.619 28.0152 140.773C28.0152 140.773 24.1493 134.366 21.0106 134.275C17.8686 134.184 19.9459 130.376 23.3963 126.52Z"
    fill="#453186"
  />
  <path
    opacity="0.1"
    d="M23.3965 126.52C23.2439 126.744 23.1238 126.987 23.0394 127.244C19.9786 130.841 18.3491 134.197 21.2899 134.281C24.0294 134.359 27.3272 139.259 28.103 140.496C28.077 140.594 28.0478 140.685 28.0121 140.779C28.0121 140.779 24.1463 134.372 21.0075 134.281C17.8687 134.19 19.9461 130.376 23.3965 126.52Z"
    fill="black"
  />
  <path
    d="M20.1475 129.434C20.1475 130.24 20.2383 130.883 20.3487 130.883C20.4591 130.883 20.5499 130.23 20.5499 129.434C20.5499 128.638 20.4363 129.008 20.326 129.008C20.2156 129.008 20.1475 128.618 20.1475 129.434Z"
    fill="#FFD037"
  />
  <path
    d="M19.034 130.396C19.7416 130.779 20.355 131.013 20.4102 130.916C20.4654 130.815 19.9266 130.431 19.2255 130.042C18.5244 129.652 18.797 129.938 18.7419 130.042C18.6867 130.142 18.3264 130.009 19.034 130.396Z"
    fill="#FFD037"
  />
  <path
    opacity="0.1"
    d="M28.0093 158.252C38.1007 158.252 46.2803 156.998 46.2803 155.448C46.2803 153.899 38.1007 152.645 28.0093 152.645C17.9179 152.645 9.73828 153.899 9.73828 155.448C9.73828 156.998 17.9179 158.252 28.0093 158.252Z"
    fill="#6C63FF"
  />
  <path
    d="M37.4154 137.693L37.3278 138.417L37.2045 139.424L37.1525 139.847L37.0292 140.857L36.9772 141.276L36.8539 142.283L35.4582 153.742C35.3316 154.766 33.66 155.565 31.641 155.565H24.3898C22.3708 155.565 20.7024 154.766 20.5759 153.742L19.1769 142.283L19.0535 141.276L19.0016 140.857L18.875 139.847L18.8231 139.428L18.6997 138.42L18.6121 137.696C18.5407 137.118 19.4463 136.627 20.5888 136.627H35.4484C36.5812 136.624 37.4869 137.111 37.4154 137.693Z"
    fill="#DDA2A6"
  />
  <path
    d="M37.3249 138.404L37.2048 139.415H18.8137L18.6936 138.404H37.3249Z"
    fill="#EDEDED"
  />
  <path
    d="M37.1529 139.834L37.0328 140.841H18.9922L18.8689 139.834H37.1529Z"
    fill="#EDEDED"
  />
  <path
    d="M36.9775 141.26L36.8541 142.267H19.1641L19.0408 141.26H36.9775Z"
    fill="#EDEDED"
  />
  <path
    opacity="0.1"
    d="M44.0793 37.8069C48.2827 37.8069 51.6876 34.402 51.6876 30.1979C51.6876 25.997 48.2827 22.5889 44.0793 22.5889C39.8759 22.5889 36.4709 25.9938 36.4709 30.1979C36.4709 34.3988 39.8759 37.8069 44.0793 37.8069Z"
    fill="#6C63FF"
  />
  <path
    opacity="0.1"
    d="M28.1392 16.793C30.7392 16.793 32.849 14.6845 32.849 12.0821C32.849 9.47966 30.7392 7.37109 28.1392 7.37109C25.5393 7.37109 23.4294 9.47966 23.4294 12.0821C23.4294 14.6845 25.536 16.793 28.1392 16.793Z"
    fill="#6C63FF"
  />
  <path
    opacity="0.1"
    d="M3.50598 25.4875C5.10619 25.4875 6.40454 24.1912 6.40454 22.5895C6.40454 20.9877 5.10619 19.6914 3.50598 19.6914C1.90577 19.6914 0.607422 20.9877 0.607422 22.5895C0.607422 24.1912 1.90252 25.4875 3.50598 25.4875Z"
    fill="#6C63FF"
  />
</svg>
