<svg
  width="366"
  height="261"
  viewBox="0 0 366 261"
  fill="none"
  xmlns="http://www.w3.org/2000/svg"
>
  <path
    d="M54.4922 57.284C87.4519 52.0572 66.8833 24.3076 101.545 11.6611C181.604 -17.5485 288.191 12.4689 308.982 53.6699C329.298 93.9272 303.466 187.79 269.249 204.925C234.483 222.335 212.19 225.749 144.167 225.094C62.0007 224.303 31.9417 199.943 15.2786 174.27C-7.84648 138.642 -11.7881 67.7931 54.4894 57.284H54.4922Z"
    fill="#F2F1FD"
  />
  <path
    d="M201.736 241.793C218.705 241.793 240.456 240.058 256.655 240.98C272.855 241.902 287.27 243.095 303.974 243.095C320.679 243.095 334.483 252.541 315.205 257.157C284.036 264.621 225.572 256.283 207.799 257.157C173.629 258.839 174.853 241.793 201.739 241.793H201.736Z"
    fill="#F2F1FD"
  />
  <path
    d="M47.5634 246.834C54.6972 246.834 59.9962 246.118 66.808 246.67C73.6198 247.223 70.7718 248.322 77.7973 248.322C84.8228 248.322 85.8332 254.068 78.0444 254.731C65.706 255.783 60.976 255.517 53.5036 256.041C39.1361 257.052 36.2604 246.834 47.5662 246.834H47.5634Z"
    fill="#F2F1FD"
  />
  <path
    d="M288.283 51.4521H59.3444C56.8164 51.4521 54.7671 53.5015 54.7671 56.0294V210.857C54.7671 213.385 56.8164 215.435 59.3444 215.435H288.283C290.811 215.435 292.86 213.385 292.86 210.857V56.0294C292.86 53.5015 290.811 51.4521 288.283 51.4521Z"
    fill="white"
  />
  <path
    d="M288.28 215.712H59.3441C56.6655 215.712 54.4893 213.533 54.4893 210.857V56.0294C54.4893 53.3508 56.6682 51.1746 59.3441 51.1746H288.28C290.959 51.1746 293.135 53.3536 293.135 56.0294V210.857C293.135 213.536 290.956 215.712 288.28 215.712ZM59.3441 51.7297C56.9736 51.7297 55.0444 53.6589 55.0444 56.0294V210.857C55.0444 213.228 56.9736 215.157 59.3441 215.157H288.28C290.651 215.157 292.58 213.228 292.58 210.857V56.0294C292.58 53.6589 290.651 51.7297 288.28 51.7297H59.3441Z"
    fill="#A7A5E8"
  />
  <path
    d="M293.232 70.8242H54.4922V57.2839C54.4922 53.9197 57.0431 51.1938 60.1909 51.1938H288.83C292.338 51.1938 293.232 54.2333 293.232 57.9834V70.8242Z"
    fill="#A7A5E8"
  />
  <path
    d="M63.8324 63.8516C62.8414 63.8516 62.0337 62.9939 62.0337 61.9391C62.0337 60.8843 62.8414 60.0266 63.8324 60.0266C64.8234 60.0266 65.6311 60.8843 65.6311 61.9391C65.6311 62.9939 64.8234 63.8516 63.8324 63.8516ZM63.8324 60.3042C62.9941 60.3042 62.3113 61.037 62.3113 61.9391C62.3113 62.8413 62.9941 63.5741 63.8324 63.5741C64.6707 63.5741 65.3535 62.8413 65.3535 61.9391C65.3535 61.037 64.6707 60.3042 63.8324 60.3042Z"
    fill="white"
  />
  <path
    d="M70.9496 63.8516C69.9586 63.8516 69.1509 62.9939 69.1509 61.9391C69.1509 60.8843 69.9586 60.0266 70.9496 60.0266C71.9405 60.0266 72.7483 60.8843 72.7483 61.9391C72.7483 62.9939 71.9405 63.8516 70.9496 63.8516ZM70.9496 60.3042C70.1113 60.3042 69.4285 61.037 69.4285 61.9391C69.4285 62.8413 70.1113 63.5741 70.9496 63.5741C71.7879 63.5741 72.4707 62.8413 72.4707 61.9391C72.4707 61.037 71.7879 60.3042 70.9496 60.3042Z"
    fill="white"
  />
  <path
    d="M78.0663 63.8516C77.0753 63.8516 76.2676 62.9939 76.2676 61.9391C76.2676 60.8843 77.0753 60.0266 78.0663 60.0266C79.0572 60.0266 79.865 60.8843 79.865 61.9391C79.865 62.9939 79.0572 63.8516 78.0663 63.8516ZM78.0663 60.3042C77.228 60.3042 76.5452 61.037 76.5452 61.9391C76.5452 62.8413 77.228 63.5741 78.0663 63.5741C78.9046 63.5741 79.5874 62.8413 79.5874 61.9391C79.5874 61.037 78.9046 60.3042 78.0663 60.3042Z"
    fill="white"
  />
  <path
    d="M214.078 98.9458H130.008C128.168 98.9458 126.677 100.437 126.677 102.277V170.941C126.677 172.781 128.168 174.272 130.008 174.272H214.078C215.918 174.272 217.409 172.781 217.409 170.941V102.277C217.409 100.437 215.918 98.9458 214.078 98.9458Z"
    fill="#F2F1FD"
  />
  <path
    d="M178.509 112.975H159.253V149.16H185.312V120.63L178.509 112.975Z"
    fill="#A7A5E8"
  />
  <path d="M178.508 112.975V120.63H185.312" fill="#504DCE" />
  <path
    d="M175.044 128.019C175.527 128.019 175.918 127.628 175.918 127.145C175.918 126.662 175.527 126.271 175.044 126.271C174.561 126.271 174.169 126.662 174.169 127.145C174.169 127.628 174.561 128.019 175.044 128.019Z"
    fill="#262626"
  />
  <path
    d="M168.429 128.019C168.912 128.019 169.303 127.628 169.303 127.145C169.303 126.662 168.912 126.271 168.429 126.271C167.946 126.271 167.555 126.662 167.555 127.145C167.555 127.628 167.946 128.019 168.429 128.019Z"
    fill="#262626"
  />
  <path
    d="M166.672 135.289C166.572 135.289 166.475 135.253 166.394 135.184C166.222 135.031 166.208 134.767 166.361 134.595C167.624 133.182 169.767 132.339 172.09 132.339C174.414 132.339 176.437 133.138 177.711 134.476C177.87 134.643 177.864 134.906 177.697 135.064C177.531 135.223 177.267 135.217 177.109 135.051C175.99 133.874 174.114 133.171 172.09 133.171C170.067 133.171 168.088 133.912 166.98 135.15C166.897 135.242 166.783 135.289 166.669 135.289H166.672Z"
    fill="#262626"
  />
  <path
    d="M190.017 155.558H154.07C152.736 155.558 151.655 156.639 151.655 157.973V158.797C151.655 160.131 152.736 161.212 154.07 161.212H190.017C191.35 161.212 192.432 160.131 192.432 158.797V157.973C192.432 156.639 191.35 155.558 190.017 155.558Z"
    fill="white"
  />
  <path
    d="M190.017 161.351H154.071C152.661 161.351 151.517 160.205 151.517 158.797V157.976C151.517 156.566 152.663 155.422 154.071 155.422H190.017C191.427 155.422 192.571 156.569 192.571 157.976V158.797C192.571 160.208 191.425 161.351 190.017 161.351ZM154.071 155.697C152.816 155.697 151.795 156.718 151.795 157.973V158.795C151.795 160.049 152.816 161.071 154.071 161.071H190.017C191.272 161.071 192.293 160.049 192.293 158.795V157.973C192.293 156.718 191.272 155.697 190.017 155.697H154.071Z"
    fill="#A7A5E8"
  />
  <path
    d="M181.67 161.21H154.481C152.921 161.21 151.655 159.944 151.655 158.384C151.655 156.824 152.921 155.558 154.481 155.558H181.67C181.67 157.226 181.67 159.93 181.67 161.212V161.21Z"
    fill="#A7A5E8"
  />
  <path
    d="M178.509 163.877C181.543 163.877 184.002 161.418 184.002 158.384C184.002 155.35 181.543 152.89 178.509 152.89C175.475 152.89 173.016 155.35 173.016 158.384C173.016 161.418 175.475 163.877 178.509 163.877Z"
    fill="#504DCE"
  />
  <path
    d="M180.605 160.899C180.499 160.899 180.391 160.857 180.311 160.777L176.116 156.583C175.953 156.419 175.953 156.155 176.116 155.994C176.28 155.833 176.544 155.83 176.705 155.994L180.899 160.188C181.063 160.352 181.063 160.616 180.899 160.777C180.819 160.857 180.71 160.899 180.605 160.899Z"
    fill="white"
  />
  <path
    d="M176.414 160.899C176.308 160.899 176.2 160.857 176.119 160.777C175.956 160.613 175.956 160.349 176.119 160.188L180.314 155.994C180.477 155.83 180.741 155.83 180.902 155.994C181.063 156.158 181.066 156.421 180.902 156.582L176.708 160.777C176.627 160.857 176.519 160.899 176.414 160.899Z"
    fill="white"
  />
  <path
    d="M297.026 240.527C297.026 240.527 298.561 240.172 300.094 239.992C301.623 239.811 302.847 241.288 303.869 242.259C304.89 243.231 308.815 245.305 311.111 246.792C313.406 248.28 315.497 250.626 315.497 253.532C315.497 256.438 313.864 257.937 310.55 257.06C307.236 256.183 293.382 249.582 293.382 249.582"
    fill="#828191"
  />
  <path
    d="M312.277 257.382C311.749 257.382 311.166 257.299 310.528 257.129C307.244 256.261 293.487 249.712 293.349 249.646L293.407 249.521C293.546 249.588 307.291 256.13 310.561 256.993C312.155 257.415 313.387 257.301 314.225 256.655C315.008 256.052 315.422 254.973 315.422 253.532C315.422 251.078 313.834 248.644 311.066 246.851C310.192 246.284 309.071 245.627 307.985 244.991C306.167 243.925 304.452 242.917 303.813 242.309C303.677 242.179 303.536 242.04 303.391 241.896C302.453 240.966 301.387 239.914 300.097 240.061C298.587 240.239 297.054 240.591 297.038 240.594L297.007 240.458C297.024 240.455 298.564 240.1 300.08 239.922C301.437 239.764 302.528 240.844 303.489 241.796C303.633 241.938 303.772 242.079 303.91 242.207C304.535 242.801 306.248 243.806 308.058 244.866C309.143 245.504 310.267 246.162 311.144 246.729C313.951 248.547 315.563 251.025 315.563 253.526C315.563 255.011 315.13 256.13 314.314 256.757C313.781 257.168 313.098 257.374 312.277 257.374V257.382Z"
    fill="#262626"
  />
  <path
    d="M287.214 198.083C287.214 198.083 280.583 182.68 279.67 180.959C278.756 179.238 277.396 176.762 272.48 176.204C269.516 175.865 266.432 175.599 262.288 175.116H251.126C246.033 175.774 242.982 175.81 240.536 176.285C236.606 177.048 233.011 179.119 233.397 184.565C234.022 193.389 234.408 206.932 234.813 211.404C235.293 216.717 238.713 218.329 241.486 218.854C251.778 220.805 264.239 223.467 264.239 223.467L284.794 222.027L287.217 198.086L287.214 198.083Z"
    fill="#CC859C"
  />
  <path
    d="M264.275 219.609L256.12 218.185V220.475L263.517 221.766L264.275 219.609Z"
    fill="#41414F"
  />
  <path
    d="M273.374 193.592L275.861 198.083H273.538L273.374 193.592Z"
    fill="white"
  />
  <path
    d="M266.132 214.932L246.182 208.17L246.179 208.123L245.083 188.371L245.222 188.362L246.315 208.068L266.176 214.802L266.132 214.932Z"
    fill="black"
  />
  <path
    d="M238.519 199.291V231.529L256.808 223.465L238.519 199.291Z"
    fill="#CC859C"
  />
  <path
    d="M308.96 224.32C307.602 219.967 304.89 217.744 297.548 218.554C292.355 219.129 263.253 221.683 263.253 221.683C263.253 221.683 290.67 240.269 293.629 239.556C297.41 238.645 300.024 237.491 303.003 236.505C308.177 234.793 310.767 230.107 308.962 224.32H308.96Z"
    fill="#483F8C"
  />
  <path
    d="M270.138 198.083H300.754C301.332 198.083 301.751 198.636 301.59 199.191L295.425 220.759C295.319 221.128 294.984 221.386 294.598 221.389L264.644 221.75C264.072 221.755 263.651 221.222 263.789 220.667L269.294 198.735C269.391 198.35 269.738 198.078 270.138 198.078V198.083Z"
    fill="#5F5F72"
  />
  <path
    d="M258.362 248.405C247.664 249.593 239.884 247.95 236.814 242.723C233.369 236.858 236.336 229.646 239.67 225.158C247.32 214.854 251.914 214.868 256.808 217.161C260.902 219.079 288.915 235.936 299.344 240.28C299.902 245.302 297.895 249.649 294.584 250.501C290.981 249.929 272.866 244.042 272.866 244.042L258.362 248.405Z"
    fill="#423481"
  />
  <path
    d="M262.187 171.277C266.018 172.423 269.107 171.685 269.84 167.041C270.887 160.432 270.967 155.691 269.688 150.417C268.408 145.143 260.061 144.033 254.876 144.777C249.574 145.54 249.074 149.282 250.21 157.79C250.526 160.16 251.481 164.646 251.481 164.646C251.481 164.646 251.253 171.521 251.104 175.621C255.362 178.433 260.636 176.992 262.296 175.843L262.182 171.274L262.187 171.277Z"
    fill="#E6B9BA"
  />
  <path
    d="M262.188 171.347C262.188 171.347 262.168 171.347 262.16 171.341C259.106 169.984 257.455 166.511 256.744 164.563C256.73 164.526 256.75 164.488 256.786 164.474C256.822 164.46 256.861 164.479 256.875 164.515C257.58 166.445 259.209 169.878 262.215 171.213C262.251 171.23 262.265 171.269 262.251 171.305C262.24 171.33 262.215 171.347 262.188 171.347Z"
    fill="black"
  />
  <path
    d="M272.2 150.906C273.299 148.971 273.019 146.314 271.773 146.55C270.032 146.881 268.769 146.14 264.528 144.896C260.278 143.65 256.184 143.736 252.903 144.879C249.777 145.967 249.017 149.473 249.53 155.452C249.83 158.944 250.907 162.453 251.332 164.707C251.537 165.803 254.976 166.453 255.04 165.304C255.104 164.154 254.979 162.533 254.993 160.096C253.974 160.096 252.703 159.524 252.767 157.426C252.83 155.327 254.968 154.509 255.665 157.404C255.665 157.404 255.937 157.939 256.475 157.795C257.094 157.676 257.058 156.993 257.463 155.694C259.359 147.761 264.431 155.846 270.151 152.66C270.199 153.06 270.329 153.881 270.432 154.744C272.597 155.116 273.788 152.64 272.203 150.908L272.2 150.906Z"
    fill="#381E1F"
  />
  <path
    d="M265.929 164.13L264.716 163.907C264.661 163.896 264.622 163.844 264.633 163.785C264.644 163.73 264.697 163.694 264.755 163.702L265.948 163.921C266.093 163.921 266.246 163.846 266.348 163.719C266.451 163.591 266.487 163.424 266.448 163.266L265.552 159.799C265.538 159.744 265.571 159.685 265.627 159.672C265.682 159.658 265.738 159.691 265.754 159.747L266.654 163.216C266.706 163.441 266.654 163.672 266.515 163.849C266.373 164.027 266.162 164.13 265.935 164.13H265.929Z"
    fill="black"
  />
  <path
    d="M262.463 160.516C262.811 160.516 263.093 160.233 263.093 159.885C263.093 159.537 262.811 159.255 262.463 159.255C262.115 159.255 261.833 159.537 261.833 159.885C261.833 160.233 262.115 160.516 262.463 160.516Z"
    fill="black"
  />
  <path
    d="M268.167 160.016C268.515 160.016 268.797 159.734 268.797 159.386C268.797 159.038 268.515 158.756 268.167 158.756C267.819 158.756 267.537 159.038 267.537 159.386C267.537 159.734 267.819 160.016 268.167 160.016Z"
    fill="black"
  />
  <path
    d="M260.833 158.142C261.827 157.967 262.335 157.898 263.584 157.973C264.128 158.006 264.27 157.259 263.515 157.132C262.204 156.909 261.483 157.021 260.514 157.34C259.923 157.534 260.142 158.264 260.833 158.142Z"
    fill="black"
  />
  <path
    d="M268.924 157.734C267.917 157.665 267.739 157.615 266.504 157.823C265.968 157.912 265.738 157.146 266.484 156.979C267.625 156.727 268.158 156.688 269.158 156.904C269.765 157.035 269.624 157.784 268.924 157.734Z"
    fill="black"
  />
  <path
    d="M264.306 167.053C264.264 167.053 264.228 167.03 264.211 166.989C264.189 166.936 264.211 166.875 264.267 166.853C264.802 166.622 265.868 166.228 266.981 166.173C267.04 166.173 267.087 166.214 267.09 166.273C267.092 166.331 267.048 166.378 266.99 166.381C265.907 166.434 264.869 166.819 264.347 167.044C264.333 167.05 264.319 167.053 264.306 167.053Z"
    fill="black"
  />
  <path
    d="M262.532 159.383C261.921 159.383 261.391 159.333 261.138 159.261C261.102 159.25 261.08 159.211 261.091 159.175C261.102 159.139 261.141 159.117 261.177 159.128C261.552 159.233 262.582 159.286 263.512 159.2C263.551 159.194 263.584 159.225 263.587 159.264C263.589 159.303 263.562 159.336 263.523 159.339C263.19 159.369 262.848 159.383 262.532 159.383Z"
    fill="black"
  />
  <path
    d="M267.564 158.892C267.336 158.892 267.103 158.881 266.873 158.858C266.834 158.856 266.806 158.82 266.812 158.781C266.815 158.742 266.848 158.714 266.887 158.72C267.825 158.82 268.738 158.675 268.985 158.62C269.024 158.611 269.06 158.634 269.068 158.672C269.077 158.708 269.055 158.747 269.016 158.756C268.741 158.82 268.177 158.894 267.561 158.894L267.564 158.892Z"
    fill="black"
  />
  <path
    d="M265.543 246.384L272.577 244.15L260.147 239.692L258.151 240.508L265.543 246.384Z"
    fill="#483F8C"
  />
  <path
    d="M271.55 254.212C271.447 253.074 271.384 252.766 269.857 251.112C268.197 249.313 266.304 247.512 265.868 245.843C263.042 242.479 260.586 241.327 258.154 240.511L252.322 242.185C253.163 241.305 258.157 244.042 262.901 247.167C266.618 249.616 270.748 252.658 271.553 254.212H271.55Z"
    fill="#66647C"
  />
  <path
    d="M277.782 229.039L277.732 228.908L295.666 222.063L295.716 222.194L277.782 229.039Z"
    fill="black"
  />
  <path
    d="M294.584 250.57C294.584 250.57 294.575 250.57 294.57 250.57C288.432 249.418 277.504 245.771 269.418 242.912C260.658 239.814 253.255 236.952 253.18 236.925C253.144 236.911 253.127 236.869 253.141 236.836C253.155 236.8 253.194 236.783 253.23 236.797C253.524 236.911 282.861 248.239 294.592 250.437C294.631 250.445 294.656 250.481 294.647 250.518C294.642 250.551 294.611 250.573 294.578 250.573L294.584 250.57Z"
    fill="black"
  />
  <path
    d="M252.32 242.254C252.289 242.254 252.264 242.235 252.253 242.207C252.242 242.171 252.261 242.132 252.298 242.121L260.128 239.628C260.164 239.617 260.203 239.636 260.214 239.673C260.225 239.709 260.206 239.747 260.17 239.759L252.339 242.251C252.339 242.251 252.325 242.254 252.317 242.254H252.32Z"
    fill="black"
  />
  <path
    d="M265.957 246.201C265.926 246.201 265.899 246.182 265.89 246.151C265.879 246.115 265.899 246.076 265.938 246.065L272.846 243.975C272.883 243.964 272.921 243.983 272.932 244.022C272.944 244.058 272.924 244.097 272.885 244.108L265.976 246.198C265.976 246.198 265.962 246.201 265.957 246.201Z"
    fill="black"
  />
  <path
    d="M271.775 255.434H271.772C271.733 255.434 271.706 255.397 271.708 255.361C271.814 253.563 271.156 252.688 270.654 252.189C267.384 248.938 257.091 242.093 254.696 241.574C254.657 241.566 254.635 241.53 254.643 241.491C254.651 241.452 254.687 241.43 254.726 241.438C257.138 241.96 267.473 248.827 270.754 252.089C271.275 252.608 271.958 253.513 271.85 255.367C271.85 255.403 271.817 255.434 271.781 255.434H271.775Z"
    fill="black"
  />
  <path
    d="M265.957 246.201C265.932 246.201 265.91 246.187 265.896 246.165C264.175 243.009 259.29 240.697 257.91 240.469C257.871 240.464 257.846 240.427 257.852 240.389C257.857 240.35 257.893 240.328 257.932 240.33C259.509 240.591 264.294 242.934 266.018 246.096C266.038 246.129 266.024 246.171 265.99 246.19C265.979 246.196 265.968 246.198 265.957 246.198V246.201Z"
    fill="black"
  />
  <path
    d="M255.517 242.657C252.858 241.011 250.204 242.773 249.474 245.241C248.872 247.27 249.732 249.804 251.57 251.067C253.907 252.672 261.135 256.266 266.887 258.587C270.864 260.191 273.751 254.94 270.084 252.211C265.399 248.722 260.872 245.971 255.517 242.659V242.657Z"
    fill="#828191"
  />
  <path
    d="M268.355 258.956C267.889 258.956 267.386 258.862 266.862 258.651C260.805 256.208 253.771 252.661 251.531 251.123C249.696 249.863 248.783 247.326 249.408 245.222C249.821 243.825 250.851 242.665 252.097 242.19C252.889 241.891 254.129 241.716 255.556 242.598L256.772 243.351C261.616 246.346 265.799 248.933 270.129 252.155C272.097 253.621 272.169 255.722 271.364 257.155C270.801 258.157 269.724 258.959 268.358 258.959L268.355 258.956ZM253.405 242.085C252.913 242.085 252.486 242.19 252.145 242.321C250.94 242.782 249.941 243.909 249.541 245.263C248.933 247.314 249.824 249.785 251.612 251.012C254.043 252.68 261.482 256.333 266.915 258.523C268.896 259.323 270.515 258.379 271.242 257.088C272.016 255.708 271.947 253.682 270.046 252.267C265.721 249.047 261.541 246.462 256.7 243.47L255.484 242.718C254.721 242.246 254.015 242.085 253.408 242.085H253.405Z"
    fill="#262626"
  />
  <path
    d="M273.468 198.086L273.302 188.792L273.441 188.79L273.607 198.083L273.468 198.086Z"
    fill="black"
  />
  <path
    d="M315.033 255.645C314.874 251.806 313.47 250.026 311.255 248.403C309.842 247.367 307.907 246.401 306.197 245.549C305.081 244.991 304.115 244.511 303.494 244.108C302.697 243.589 301.839 242.845 301.009 242.124C300.182 241.405 299.402 240.725 298.678 240.253L298.753 240.136C299.485 240.614 300.271 241.297 301.098 242.018C301.923 242.737 302.778 243.478 303.566 243.992C304.182 244.392 305.143 244.872 306.256 245.427C307.968 246.282 309.911 247.251 311.333 248.294C313.517 249.896 315.005 251.758 315.166 255.642L315.027 255.647L315.033 255.645Z"
    fill="#262626"
  />
  <path
    d="M263.764 221L263.378 220.684C263.378 220.684 268.752 199.293 268.872 198.816C268.991 198.339 269.305 197.858 269.782 197.858H300.602C300.988 197.858 301.865 198.117 301.626 199.013C301.554 198.558 301.421 198.086 300.754 198.086H270.137C269.549 198.086 269.28 198.758 269.233 198.985C269.185 199.213 263.764 221 263.764 221Z"
    fill="#41414F"
  />
  <path
    d="M286.113 214.714C286.28 213.426 285.513 212.265 284.399 212.12C283.284 211.975 282.245 212.902 282.078 214.189C281.91 215.477 282.678 216.638 283.792 216.783C284.906 216.928 285.945 216.002 286.113 214.714Z"
    fill="#828191"
  />
  <path
    d="M361.311 124.361H288.397C286.023 124.361 284.1 126.285 284.1 128.658V182.361C284.1 184.734 286.023 186.658 288.397 186.658H361.311C363.684 186.658 365.608 184.734 365.608 182.361V128.658C365.608 126.285 363.684 124.361 361.311 124.361Z"
    fill="#F2F1FD"
  />
  <path
    d="M212.801 231.018C211.804 230.291 211.826 229.888 211.826 229.552C211.826 229.217 212.165 228.645 213.031 228.015C221.125 222.527 220.823 216.101 220.823 211.493H199.213C199.213 216.048 198.891 222.385 206.744 227.837C206.744 227.837 206.744 227.837 206.747 227.837C206.824 227.89 206.902 227.942 206.983 227.998C207.863 228.611 208.207 229.053 208.207 229.4C208.207 229.716 208.149 230.313 207.355 230.94C207.177 231.057 206.999 231.176 206.83 231.293C206.83 231.293 206.824 231.293 206.824 231.296C198.9 236.756 199.216 243.121 199.216 247.692H220.826C220.826 243.043 221.114 236.539 212.801 231.015V231.018Z"
    fill="#EACCCE"
  />
  <path
    d="M222.372 209.053H197.665C196.99 209.053 196.443 209.599 196.443 210.273C196.443 210.947 196.99 211.493 197.665 211.493H222.372C223.047 211.493 223.593 210.947 223.593 210.273C223.593 209.599 223.047 209.053 222.372 209.053Z"
    fill="#D4A3A7"
  />
  <path
    d="M222.372 246.474H197.665C196.99 246.474 196.443 247.02 196.443 247.694C196.443 248.367 196.99 248.914 197.665 248.914H222.372C223.047 248.914 223.593 248.367 223.593 247.694C223.593 247.02 223.047 246.474 222.372 246.474Z"
    fill="#D4A3A7"
  />
  <path
    d="M205.104 224.725C206.128 225.805 207.752 227.121 208.84 227.681C209.634 228.089 210.211 228.062 211.035 227.681C212.459 227.023 214.219 225.763 214.935 224.725H205.106H205.104Z"
    fill="#D4A3A7"
  />
  <path
    d="M200.67 245.358H219.263C219.168 243.306 218.985 240.88 217.866 239.295C216.748 237.71 214.597 239.109 211.704 239.295C208.812 239.481 207.974 237.952 205.048 237.857C202.922 237.788 202.089 238.596 201.559 239.337C201.029 240.078 200.629 243.856 200.67 245.358Z"
    fill="#D4A3A7"
  />
  <path
    d="M48.2939 223.501H75.9935L71.3691 252.391H53.1877L48.2939 223.501Z"
    fill="#D4A3A7"
  />
  <path
    d="M59.3189 223.517L58.9025 223.484C59.3466 218.207 58.3779 212.192 57.3509 205.822C55.8214 196.334 54.242 186.522 57.0233 177.684C57.9032 174.886 58.983 172.521 60.1266 170.014C62.7109 164.343 65.384 158.481 65.9697 146.917C66.1334 143.658 65.8559 141.596 65.6088 139.78C65.3923 138.176 65.1841 136.66 65.3201 134.606L65.7365 134.634C65.6061 136.646 65.8087 138.14 66.0224 139.725C66.2722 141.56 66.5554 143.641 66.386 146.939C65.7976 158.581 63.1078 164.482 60.5041 170.186C59.3661 172.679 58.2946 175.036 57.4203 177.809C54.6667 186.552 56.2405 196.315 57.7617 205.755C58.7915 212.151 59.7658 218.188 59.3161 223.517H59.3189Z"
    fill="#8285DC"
  />
  <path
    d="M64.3211 223.517C63.6799 216.256 66.3003 211.523 68.8346 206.949C70.6083 203.748 72.2821 200.723 72.7484 197.003C73.9143 187.649 76.1987 184.351 78.6137 180.862C81.5699 176.59 84.6288 172.174 85.6225 155.561L86.0389 155.586C85.0396 172.312 81.9474 176.779 78.9579 181.098C76.5707 184.545 74.3168 187.801 73.162 197.056C72.6874 200.856 70.9941 203.915 69.201 207.151C66.6972 211.673 64.1074 216.348 64.7375 223.481L64.3239 223.517H64.3211Z"
    fill="#8285DC"
  />
  <path
    d="M65.5117 137.837C62.6388 134.401 61.8033 132.58 61.8338 129.751C61.8588 127.495 63.0579 124.963 65.645 124.963C68.232 124.963 69.9752 127.192 69.52 130.251C69.1536 132.696 68.4652 134.551 65.5117 137.834V137.837Z"
    fill="#8285DC"
  />
  <path
    d="M85.6309 160.543C82.7579 157.107 81.9224 155.286 81.9529 152.457C81.9779 150.2 83.1771 147.669 85.7641 147.669C88.3511 147.669 90.0943 149.898 89.6391 152.957C89.2727 155.402 88.5843 157.257 85.6309 160.54V160.543Z"
    fill="#C3C2FA"
  />
  <path
    d="M65.9948 147.719C63.4994 147.991 59.6272 148.119 57.1012 146.304C55.4191 145.093 55.0444 142.129 56.8958 140.683C58.3781 139.522 60.9068 140.089 62.1504 142.723C63.3495 145.263 64.7763 146.695 65.9948 147.719Z"
    fill="#8285DC"
  />
  <path
    d="M66.3115 146.692C68.893 146.72 72.421 146.556 75.133 144.763C77.423 143.25 77.8255 140.724 76.1017 139.125C74.6694 137.795 72.0602 137.385 70.6417 140.152C69.1706 143.025 67.9964 145.232 66.3115 146.689V146.692Z"
    fill="#8285DC"
  />
  <path
    d="M83.7404 169.892C81.245 170.164 77.3728 170.292 74.8468 168.476C73.1647 167.266 72.79 164.302 74.6414 162.855C76.1237 161.695 78.6524 162.261 79.896 164.896C81.0951 167.435 82.5219 168.868 83.7404 169.892Z"
    fill="#C3C2FA"
  />
  <path
    d="M84.207 169.27C86.7885 169.376 90.3193 169.32 93.0812 167.61C95.4157 166.167 95.8931 163.655 94.2193 162.006C92.8259 160.635 90.2333 160.144 88.7316 162.869C87.1743 165.695 85.9336 167.869 84.207 169.273V169.27Z"
    fill="#C3C2FA"
  />
  <path
    d="M63.2801 162.595C59.1552 162.209 56.6182 161.459 54.5696 159.469C53.2206 158.159 53.1651 155.019 54.8833 153.29C56.6792 151.483 59.6965 152.313 60.3488 154.95C61.0261 157.698 62.1004 160.402 63.2801 162.592V162.595Z"
    fill="#8285DC"
  />
  <path
    d="M58.2977 174.463C54.1562 174.563 51.6247 174.161 49.3597 172.426C47.8663 171.282 46.2619 168.146 48.8711 166.208C51.0696 164.573 53.7787 165.562 54.2701 167.896C54.853 170.666 56.2103 172.901 58.2977 174.463Z"
    fill="#8285DC"
  />
  <path
    d="M63.9072 161.023C66.5664 162.528 69.7058 163.194 72.2457 161.931C73.7835 161.165 76.2428 157.701 74.0944 155.575C72.6648 154.159 70.694 154.353 68.7732 156.507C67.2049 158.264 66.2278 159.572 63.9072 161.021V161.023Z"
    fill="#8285DC"
  />
  <path
    d="M79.1913 180.126C75.469 179.652 73.1956 178.894 71.3997 177.031C70.22 175.805 70.2644 172.959 71.8716 171.447C73.5509 169.864 76.2601 170.708 76.7681 173.118C77.2982 175.627 78.1893 178.106 79.1913 180.126Z"
    fill="#C3C2FA"
  />
  <path
    d="M80.0073 179.549C82.5111 181.392 85.6089 182.447 88.343 181.484C90.0029 180.898 92.9425 177.7 91.0383 175.291C89.7698 173.689 87.7462 173.642 85.5228 175.585C83.7074 177.167 82.5472 178.367 80.0073 179.549Z"
    fill="#C3C2FA"
  />
  <path
    d="M58.7607 173.809C61.4311 175.291 64.49 175.641 67.1048 174.655C69.0672 173.917 70.9881 171.76 69.6724 169.584C68.2678 167.258 65.517 167.791 63.5906 169.259C61.7197 170.689 61.0702 172.34 58.7607 173.809Z"
    fill="#8285DC"
  />
  <path
    d="M55.8356 185.081C51.9273 186.455 49.5262 186.899 46.8337 185.95C45.0627 185.326 42.5673 182.836 44.4493 180.188C46.037 177.953 48.9183 178.056 50.1063 180.126C51.5164 182.58 53.3679 184.24 55.8383 185.084L55.8356 185.081Z"
    fill="#8285DC"
  />
  <path
    d="M56.1157 184.01C58.5751 185.825 62.661 186.366 65.3813 185.725C67.4243 185.245 69.5339 182.841 68.3486 180.593C66.9829 178.003 64.3904 178.322 62.3807 179.677C60.2988 181.078 59.4522 183.277 56.1185 184.01H56.1157Z"
    fill="#8285DC"
  />
  <path
    d="M74.3415 189.6C70.2389 190.18 67.7962 190.141 65.3452 188.681C63.7297 187.718 61.7728 184.79 64.1405 182.561C66.1363 180.681 68.9398 181.35 69.6976 183.613C70.597 186.297 72.0848 188.287 74.3415 189.6Z"
    fill="#C3C2FA"
  />
  <path
    d="M74.936 188.487C76.9513 190.785 80.8263 192.187 83.6215 192.143C85.72 192.109 88.2959 190.213 87.6158 187.762C86.8358 184.939 84.2322 184.701 81.981 185.592C79.6465 186.516 78.3503 188.484 74.936 188.49V188.487Z"
    fill="#C3C2FA"
  />
  <path
    d="M56.3738 198.38C52.7542 200.395 50.4614 201.239 47.6495 200.759C45.7981 200.442 42.9168 198.41 44.3241 195.482C45.5094 193.011 48.3684 192.626 49.8896 194.463C51.6938 196.645 53.8007 197.966 56.3766 198.38H56.3738Z"
    fill="#8285DC"
  />
  <path
    d="M56.3823 197.58C58.8417 199.396 62.9276 199.937 65.6479 199.296C67.6909 198.816 69.8005 196.412 68.6152 194.163C67.2495 191.574 64.657 191.893 62.6473 193.247C60.5654 194.649 59.7188 196.848 56.3851 197.58H56.3823Z"
    fill="#8285DC"
  />
  <g opacity="0.49">
    <path
      d="M287.431 124.361H362.277C364.114 124.361 365.608 125.854 365.608 127.692V134.237H284.1V127.692C284.1 125.854 285.593 124.361 287.431 124.361Z"
      fill="#A7A5E8"
    />
  </g>
  <g opacity="0.79">
    <path
      d="M338.416 140.846H313.212C311.373 140.846 309.881 142.338 309.881 144.177V164.063C309.881 165.903 311.373 167.394 313.212 167.394H338.416C340.256 167.394 341.747 165.903 341.747 164.063V144.177C341.747 142.338 340.256 140.846 338.416 140.846Z"
      fill="#504DCE"
    />
    <path
      d="M335.66 148.114H316.093C315.71 148.114 315.399 147.803 315.399 147.42C315.399 147.037 315.71 146.726 316.093 146.726H335.66C336.043 146.726 336.354 147.037 336.354 147.42C336.354 147.803 336.043 148.114 335.66 148.114Z"
      fill="white"
    />
    <path
      d="M335.66 154.814H316.093C315.71 154.814 315.399 154.503 315.399 154.12C315.399 153.737 315.71 153.426 316.093 153.426H335.66C336.043 153.426 336.354 153.737 336.354 154.12C336.354 154.503 336.043 154.814 335.66 154.814Z"
      fill="white"
    />
    <path
      d="M335.66 161.29H316.093C315.71 161.29 315.399 160.979 315.399 160.596C315.399 160.213 315.71 159.902 316.093 159.902H335.66C336.043 159.902 336.354 160.213 336.354 160.596C336.354 160.979 336.043 161.29 335.66 161.29Z"
      fill="white"
    />
    <path
      d="M321.112 156.375C322.357 156.375 323.366 155.365 323.366 154.121C323.366 152.876 322.357 151.867 321.112 151.867C319.868 151.867 318.858 152.876 318.858 154.121C318.858 155.365 319.868 156.375 321.112 156.375Z"
      fill="#F2F1FD"
    />
    <path
      d="M330.128 149.674C331.373 149.674 332.382 148.665 332.382 147.42C332.382 146.175 331.373 145.166 330.128 145.166C328.884 145.166 327.875 146.175 327.875 147.42C327.875 148.665 328.884 149.674 330.128 149.674Z"
      fill="#F2F1FD"
    />
    <path
      d="M330.128 162.85C331.373 162.85 332.382 161.841 332.382 160.596C332.382 159.351 331.373 158.342 330.128 158.342C328.884 158.342 327.875 159.351 327.875 160.596C327.875 161.841 328.884 162.85 330.128 162.85Z"
      fill="#F2F1FD"
    />
  </g>
  <path
    d="M319.813 171.91H305.954C304.114 171.91 302.623 173.401 302.623 175.241V175.86C302.623 177.7 304.114 179.191 305.954 179.191H319.813C321.653 179.191 323.144 177.7 323.144 175.86V175.241C323.144 173.401 321.653 171.91 319.813 171.91Z"
    fill="#A7A5E8"
  />
  <path
    d="M345.625 171.91H331.766C329.926 171.91 328.435 173.401 328.435 175.241V175.86C328.435 177.699 329.926 179.191 331.766 179.191H345.625C347.465 179.191 348.956 177.699 348.956 175.86V175.241C348.956 173.401 347.465 171.91 345.625 171.91Z"
    fill="white"
  />
  <path
    d="M345.625 179.333H331.766C329.853 179.333 328.296 177.775 328.296 175.863V175.244C328.296 173.331 329.853 171.774 331.766 171.774H345.625C347.538 171.774 349.095 173.331 349.095 175.244V175.863C349.095 177.775 347.538 179.333 345.625 179.333ZM331.766 172.052C330.006 172.052 328.573 173.484 328.573 175.244V175.863C328.573 177.623 330.006 179.055 331.766 179.055H345.625C347.385 179.055 348.817 177.623 348.817 175.863V175.244C348.817 173.484 347.385 172.052 345.625 172.052H331.766Z"
    fill="#A7A5E8"
  />
  <path
    d="M298.481 210.28C297.391 210.28 296.275 210.244 295.125 210.169L295.145 209.891C305.138 210.541 312.957 208.34 318.384 203.343C323.702 198.45 325.273 192.112 325.74 188.773L326.014 188.812C325.545 192.19 323.955 198.597 318.573 203.549C313.712 208.023 306.964 210.28 298.484 210.28H298.481Z"
    fill="#504DCE"
  />
  <path
    d="M291.031 130.584C290.418 130.584 289.921 130.076 289.921 129.452C289.921 128.827 290.421 128.322 291.031 128.322C291.642 128.322 292.142 128.83 292.142 129.452C292.142 130.074 291.642 130.584 291.031 130.584ZM291.031 128.6C290.57 128.6 290.198 128.983 290.198 129.452C290.198 129.921 290.573 130.307 291.031 130.307C291.489 130.307 291.864 129.924 291.864 129.452C291.864 128.98 291.489 128.6 291.031 128.6Z"
    fill="white"
  />
  <path
    d="M295.203 130.584C294.589 130.584 294.092 130.076 294.092 129.452C294.092 128.827 294.592 128.322 295.203 128.322C295.813 128.322 296.313 128.83 296.313 129.452C296.313 130.074 295.813 130.584 295.203 130.584ZM295.203 128.6C294.742 128.6 294.37 128.983 294.37 129.452C294.37 129.921 294.745 130.307 295.203 130.307C295.661 130.307 296.035 129.924 296.035 129.452C296.035 128.98 295.661 128.6 295.203 128.6Z"
    fill="white"
  />
  <path
    d="M299.372 130.584C298.759 130.584 298.262 130.076 298.262 129.452C298.262 128.827 298.761 128.322 299.372 128.322C299.983 128.322 300.482 128.83 300.482 129.452C300.482 130.074 299.983 130.584 299.372 130.584ZM299.372 128.6C298.911 128.6 298.539 128.983 298.539 129.452C298.539 129.921 298.914 130.307 299.372 130.307C299.83 130.307 300.205 129.924 300.205 129.452C300.205 128.98 299.83 128.6 299.372 128.6Z"
    fill="white"
  />
</svg>
