<svg
  width="280"
  height="274"
  viewBox="0 0 280 274"
  fill="none"
  xmlns="http://www.w3.org/2000/svg"
>
  <g clip-path="url(#clip0_29371_73620)">
    <path
      d="M84.0362 247.804C93.2686 249.196 107.764 249.481 120.96 249.373C162.401 249.023 199.807 245.635 232.167 241.798C243.884 240.409 255.415 238.915 263.02 237.003C278.509 233.111 273.908 227.721 252.386 224.515C245.063 223.426 236.186 222.588 227.071 221.848C210.868 220.53 193.384 219.472 174.99 219.169C161.878 218.956 148.598 219.129 135.56 219.429C99.1318 220.267 63.3838 222.121 33.403 225.286C20.2597 226.675 7.86831 228.401 2.45073 230.648C-2.96684 232.894 0.501519 235.744 13.9233 237.077C19.4739 237.628 26.1136 237.875 32.6079 238.11C42.1745 238.454 51.8927 238.791 60.5218 239.49C69.4387 240.211 79.9954 241.607 78.2257 243.203C76.3414 244.914 74.8192 246.418 84.0393 247.81L84.0362 247.804Z"
      fill="#F8F3FF"
    />
    <path
      opacity="0.1"
      d="M167.537 224.949C142.148 224.949 90.8 225.493 78.3467 225.493C49.5447 225.493 26.1943 229.172 26.1943 232.182C26.1943 235.193 49.5447 236.396 78.3467 236.396C107.149 236.396 130.499 233.955 130.499 230.945C130.499 230.645 130.261 230.348 129.812 230.06C140.192 230.444 153.295 230.672 167.537 230.672C201.228 230.672 228.541 229.392 228.541 227.811C228.541 226.23 201.228 224.949 167.537 224.949Z"
      fill="#6666FF"
    />
    <path
      d="M178.366 105.437C173.125 141.887 129.527 165.773 80.9889 158.793C32.4535 151.813 -2.64473 116.606 2.59649 80.156C7.83771 43.7057 51.4351 19.8201 99.9737 26.8001C148.512 33.7802 183.607 68.9898 178.366 105.437ZM235.379 1.73261C215.247 7.18423 202.246 23.8608 206.339 38.9812C210.432 54.0984 230.073 61.9355 250.206 56.4808C270.338 51.0292 283.339 34.3526 279.246 19.2322C275.152 4.11499 255.512 -3.72209 235.379 1.73261Z"
      fill="#F8F3FF"
    />
    <g opacity="0.7">
      <path
        d="M158.029 226.186H140.947L63.9404 141.72H235.038L158.029 226.186Z"
        fill="url(#paint0_linear_29371_73620)"
      />
      <path
        d="M161.711 221.855H137.887C136.007 221.855 134.483 223.378 134.483 225.258C134.483 227.138 136.007 228.662 137.887 228.662H161.711C163.59 228.662 165.114 227.138 165.114 225.258C165.114 223.378 163.59 221.855 161.711 221.855Z"
        fill="#A9A4ED"
      />
      <path
        d="M151.838 221.855H137.24C135.718 221.855 134.483 223.089 134.483 224.611V225.905C134.483 227.427 135.718 228.662 137.24 228.662H151.838C153.36 228.662 154.594 227.427 154.594 225.905V224.611C154.594 223.089 153.36 221.855 151.838 221.855Z"
        fill="#CCCCFF"
      />
    </g>
    <path
      d="M233.03 14.8667H68.4234C61.8464 14.8667 56.5146 20.1984 56.5146 26.7755V129.812C56.5146 136.389 61.8464 141.72 68.4234 141.72H233.03C239.607 141.72 244.939 136.389 244.939 129.812V26.7755C244.939 20.1984 239.607 14.8667 233.03 14.8667Z"
      fill="#A9D0FF"
    />
    <path
      d="M229.936 14.8667H65.3297C58.7526 14.8667 53.4209 20.1984 53.4209 26.7755V129.812C53.4209 136.389 58.7526 141.72 65.3297 141.72H229.936C236.513 141.72 241.845 136.389 241.845 129.812V26.7755C241.845 20.1984 236.513 14.8667 229.936 14.8667Z"
      fill="#528FFE"
    />
    <path
      opacity="0.1"
      d="M153.512 33.4306H103.08C101.465 33.4306 100.14 32.1095 100.14 30.4913C100.14 28.8731 101.461 27.552 103.08 27.552H153.512C155.127 27.552 156.451 28.8731 156.451 30.4913C156.451 32.1095 155.13 33.4306 153.512 33.4306ZM114.373 49.674C114.373 48.0559 113.052 46.7347 111.433 46.7347H79.5653C77.9502 46.7347 76.626 48.0559 76.626 49.674C76.626 51.2922 77.9471 52.6133 79.5653 52.6133H111.433C113.048 52.6133 114.373 51.2922 114.373 49.674ZM227.613 58.956C227.613 57.3379 226.292 56.0167 224.673 56.0167H189.711C188.096 56.0167 186.772 57.3379 186.772 58.956C186.772 60.5742 188.093 61.8953 189.711 61.8953H224.673C226.288 61.8953 227.613 60.5742 227.613 58.956ZM127.058 117.278C127.058 118.896 128.379 120.217 129.997 120.217H180.429C182.044 120.217 183.369 118.896 183.369 117.278C183.369 115.66 182.048 114.338 180.429 114.338H129.997C128.382 114.338 127.058 115.66 127.058 117.278ZM222.353 85.2549C222.353 83.6368 221.032 82.3156 219.414 82.3156H181.358C179.743 82.3156 178.418 83.6368 178.418 85.2549C178.418 86.8731 179.739 88.1942 181.358 88.1942H219.414C221.029 88.1942 222.353 86.8731 222.353 85.2549ZM95.8087 73.4978C95.8087 75.1159 97.1299 76.4371 98.748 76.4371H112.052C113.667 76.4371 114.991 75.1159 114.991 73.4978C114.991 71.8796 113.67 70.5585 112.052 70.5585H98.748C97.1329 70.5585 95.8087 71.8796 95.8087 73.4978Z"
      fill="white"
    />
    <path
      d="M149.025 109.354L168.331 95.2548C169.111 94.6855 169.649 93.6954 169.798 92.5599L174.352 57.6968C174.631 55.5651 173.48 53.5663 171.815 53.2724C157.502 50.7323 151.129 45.194 149.102 43.0097C148.561 42.4249 147.88 42.0969 147.172 42.0969H147.097C146.389 42.0969 145.708 42.4249 145.167 43.0097C143.14 45.194 136.766 50.7323 122.454 53.2724C120.789 53.5663 119.638 55.5682 119.917 57.6968L124.471 92.5599C124.619 93.6954 125.158 94.6855 125.937 95.2548L145.244 109.354C145.693 109.682 146.2 109.852 146.714 109.852H147.552C148.069 109.852 148.576 109.679 149.022 109.354H149.025Z"
      fill="white"
    />
    <path
      d="M148.719 103.909L164.876 92.1081C165.529 91.6317 165.977 90.8025 166.101 89.8526L169.913 60.6763C170.145 58.8941 169.183 57.2203 167.79 56.9728C155.813 54.8472 150.476 50.2124 148.781 48.3838C148.326 47.895 147.757 47.6196 147.166 47.6196H147.104C146.513 47.6196 145.944 47.895 145.489 48.3838C143.793 50.2124 138.459 54.8472 126.479 56.9728C125.087 57.2203 124.125 58.8941 124.357 60.6763L128.169 89.8526C128.292 90.8025 128.744 91.6317 129.394 92.1081L145.551 103.909C145.925 104.184 146.349 104.326 146.782 104.326H147.484C147.918 104.326 148.341 104.181 148.716 103.909H148.719Z"
      fill="#8DBBFF"
    />
    <path
      d="M154.751 73.1267H154.08C154.096 73.0215 154.108 72.9163 154.108 72.8049V68.1361C154.108 64.4388 151.11 61.4407 147.412 61.4407C143.715 61.4407 140.717 64.4388 140.717 68.1361V72.8049C140.717 72.9132 140.729 73.0215 140.745 73.1267H139.557C138.428 73.1267 137.512 74.0425 137.512 75.1718V81.1741C137.512 86.0039 141.429 89.9209 146.258 89.9209H148.013C152.842 89.9209 156.759 86.0039 156.759 81.1741V75.1316C156.759 74.0239 155.862 73.1267 154.755 73.1267H154.751ZM142.821 73.1267V68.1361C142.821 65.599 144.879 63.5415 147.416 63.5415C149.953 63.5415 152.01 65.599 152.01 68.1361V73.1267H142.821Z"
      fill="white"
    />
    <path
      d="M149.229 79.5715C149.229 78.4175 148.291 77.48 147.137 77.48C145.983 77.48 145.046 78.4175 145.046 79.5715C145.046 80.4286 145.563 81.1649 146.302 81.4867V84.4507C146.302 84.9118 146.676 85.2861 147.137 85.2861C147.598 85.2861 147.973 84.9118 147.973 84.4507V81.4867C148.712 81.1649 149.229 80.4286 149.229 79.5715Z"
      fill="#528FFE"
    />
    <g opacity="0.25">
      <path
        d="M236.585 119.902V114.964L231.595 114.113C231.158 111.928 230.298 109.896 229.104 108.104L232.034 103.974L228.544 100.484L224.413 103.414C222.622 102.219 220.589 101.359 218.405 100.923L217.554 95.9324H212.616L211.765 100.923C209.581 101.359 207.548 102.219 205.757 103.414L201.626 100.484L198.136 103.974L201.066 108.104C199.872 109.896 199.012 111.928 198.576 114.113L193.585 114.964V119.902L198.576 120.752C199.012 122.937 199.872 124.969 201.066 126.761L198.136 130.891L201.626 134.381L205.757 131.451C207.548 132.646 209.581 133.506 211.765 133.942L212.616 138.933H217.554L218.405 133.942C220.589 133.506 222.622 132.646 224.413 131.451L228.544 134.381L232.034 130.891L229.104 126.761C230.298 124.969 231.158 122.937 231.595 120.752L236.585 119.902ZM215.082 126.882C209.692 126.882 205.324 122.513 205.324 117.123C205.324 111.733 209.692 107.365 215.082 107.365C220.472 107.365 224.84 111.733 224.84 117.123C224.84 122.513 220.472 126.882 215.082 126.882Z"
        fill="white"
      />
      <path
        d="M199.204 36.7257L196.274 40.8562L199.764 44.3462L203.894 41.4162C205.686 42.6105 207.719 43.4706 209.903 43.9069L210.754 48.8975H215.692L216.543 43.9069C218.727 43.4706 220.76 42.6105 222.551 41.4162L226.682 44.3462L230.172 40.8562L227.242 36.7257C228.436 34.9343 229.296 32.9016 229.732 30.7172L234.723 29.8664V24.9284L229.732 24.0775C229.296 21.8932 228.436 19.8604 227.242 18.069L230.172 13.9385L226.682 10.4485L222.551 13.3785C220.76 12.1842 218.727 11.3241 216.543 10.8878L215.692 5.89722H210.754L209.903 10.8878C207.719 11.3241 205.686 12.1842 203.894 13.3785L199.764 10.4485L196.274 13.9385L199.204 18.069C198.01 19.8604 197.15 21.8932 196.713 24.0775L191.723 24.9284V29.8664L196.713 30.7172C197.15 32.9016 198.01 34.9343 199.204 36.7257ZM213.226 17.3295C218.616 17.3295 222.984 21.6982 222.984 27.088C222.984 32.4777 218.616 36.8464 213.226 36.8464C207.836 36.8464 203.467 32.4777 203.467 27.088C203.467 21.6982 207.836 17.3295 213.226 17.3295Z"
        fill="white"
      />
      <path
        d="M131.95 134.403L134.88 130.273L131.39 126.783L127.259 129.713C125.468 128.518 123.435 127.658 121.251 127.222L120.4 122.231H115.462L114.611 127.222C112.427 127.658 110.394 128.518 108.602 129.713L104.472 126.783L100.982 130.273L103.912 134.403C102.718 136.195 101.858 138.227 101.421 140.412L96.4307 141.262V146.2L101.421 147.051C101.858 149.236 102.718 151.268 103.912 153.06L100.982 157.19L104.472 160.68L108.602 157.75C110.394 158.945 112.427 159.805 114.611 160.241L115.462 165.232H120.4L121.251 160.241C123.435 159.805 125.468 158.945 127.259 157.75L131.39 160.68L134.88 157.19L131.95 153.06C133.144 151.268 134.004 149.236 134.44 147.051L139.431 146.2V141.262L134.44 140.412C134.004 138.227 133.144 136.195 131.95 134.403ZM117.928 153.181C112.538 153.181 108.169 148.812 108.169 143.422C108.169 138.032 112.538 133.664 117.928 133.664C123.317 133.664 127.686 138.032 127.686 143.422C127.686 148.812 123.317 153.181 117.928 153.181Z"
        fill="white"
      />
    </g>
    <path
      d="M53.4209 190.485V202.981H43.0901C41.6204 202.981 40.4262 204.172 40.4262 205.645V218.142H33.1893C31.7197 218.142 30.5254 219.333 30.5254 220.806V230.948C30.5254 232.417 31.7166 233.612 33.1893 233.612H112.018C113.488 233.612 114.682 232.421 114.682 230.948V190.485C114.682 189.015 113.491 187.821 112.018 187.821H56.0849C54.6152 187.821 53.4209 189.012 53.4209 190.485Z"
      fill="#CCCCFF"
    />
    <path
      d="M93.6426 190.485V202.981H83.3118C81.8421 202.981 80.6478 204.172 80.6478 205.645V218.142H73.411C71.9414 218.142 70.7471 219.333 70.7471 220.806V230.948C70.7471 232.417 71.9383 233.612 73.411 233.612H112.018C113.487 233.612 114.682 232.421 114.682 230.948V190.485C114.682 189.015 113.491 187.821 112.018 187.821H96.3065C94.8369 187.821 93.6426 189.012 93.6426 190.485Z"
      fill="#A9A4ED"
    />
    <path
      d="M70.961 179.535C70.961 179.535 67.4989 179.173 67.502 187.815C69.9802 187.83 71.6293 187.827 71.6293 187.827C71.6293 187.827 71.9511 185.649 72.7772 185.943C73.6033 186.237 73.5755 187.824 73.5755 187.824L78.7115 187.818C78.7115 187.818 79.1539 186.23 78.0494 185.937C76.9448 185.643 71.5149 183.378 70.961 179.532V179.535Z"
      fill="#67647E"
    />
    <path
      d="M91.6651 179.517C91.6651 179.517 88.203 179.155 88.2061 187.796C90.6843 187.811 92.3334 187.808 92.3334 187.808C92.3334 187.808 92.6552 185.63 93.4813 185.924C94.3074 186.218 94.2796 187.805 94.2796 187.805L99.4156 187.799C99.4156 187.799 99.858 186.212 98.7535 185.918C97.6489 185.624 92.219 183.359 91.6651 179.513V179.517Z"
      fill="#67647E"
    />
    <path
      d="M67.5015 182.939C65.5987 161.476 69.163 147.695 69.163 147.695C69.163 147.695 67.8356 137.386 67.8295 129.106C67.8233 120.824 70.4501 112.163 70.4501 112.163C78.7234 103.875 90.0227 110.264 90.0227 110.264L92.6433 151.587C92.6433 151.587 91.9533 161.083 91.9564 165.977C91.9595 170.872 93.4787 182.539 93.4787 182.539C93.4787 182.539 91.6594 182.917 88.5221 182.542C83.5469 161.844 83.6645 153.935 84.4132 151.677C83.6583 150.548 81.771 143.02 81.771 143.02L80.2549 132.104C80.2549 132.104 79.8837 136.999 78.3862 146.788C78.3862 146.788 78.0149 150.928 76.1337 154.697C75.385 157.71 71.601 172.017 73.3213 182.932L67.5015 182.939Z"
      fill="#49398E"
    />
    <path
      d="M64.6737 89.2896C64.6737 89.2896 57.5978 96.0562 56.0693 100.611C57.8051 102.581 67.7987 109.339 67.7987 109.339C67.7987 109.339 66.4837 110.496 66.4466 111.112C66.4095 111.727 66.5023 115.205 66.5023 115.205L64.6861 114.524C64.6861 114.524 63.6094 114.363 63.3371 115.004C67.0963 116.866 67.3933 116.968 67.3933 116.968L69.5468 116.056L69.1507 107.563L63.003 100.406L69.8623 92.857C69.8623 92.857 70.707 90.552 69.0115 89.1658C67.3191 87.7797 64.6706 89.2896 64.6706 89.2896H64.6737Z"
      fill="#EFB7B9"
    />
    <path
      d="M94.9512 97.7361C95.2606 97.9713 99.4406 100.174 100.963 99.1346C98.9486 92.4794 97.4728 87.7611 92.8999 82.6684C91.7396 80.2613 90.6506 78.3646 90.6506 78.3646C90.6506 78.3646 88.2063 78.6988 87.1141 78.8473C87.0368 78.3028 86.7274 78.0676 86.7274 78.0676C86.7274 78.0676 85.6754 78.4884 85.4774 79.0701L85.694 80.6666C85.694 80.6666 84.9947 81.6288 85.069 82.1733C85.1433 82.7179 88.9767 84.4134 90.1029 84.5372C91.0682 85.5149 93.6393 90.1528 93.7755 93.1849C93.9116 96.2139 94.9512 97.7361 94.9512 97.7361Z"
      fill="#EFB7B9"
    />
    <path
      d="M75.1623 82.461C75.1623 82.461 70.215 82.6683 66.3383 86.2357C62.4615 89.803 57.1182 95.2918 57.1182 95.2918C57.1182 95.2918 58.6002 101.115 65.1718 102.532C66.0227 100.638 67.7708 98.2527 67.7708 98.2527L70.5925 106.495C70.5925 106.495 67.6068 116.529 67.1179 119.648C68.4329 121.451 70.0046 122.005 71.8332 121.309C73.6617 120.613 75.6759 119.883 77.1023 121.399C78.5286 122.915 81.6597 122.083 82.4518 121.148C83.2438 120.214 86.0129 119.79 86.9814 120.678C87.9498 121.566 91.3594 121.733 92.1731 118.911L87.3526 99.9142L89.9918 96.3963C89.9918 96.3963 95.7559 100.307 98.1971 100.078C97.9124 94.5709 97.2163 91.449 93.0301 87.597C90.2084 86.7864 86.6936 84.1472 86.6936 84.1472C86.6936 84.1472 82.5724 81.8422 75.1654 82.461H75.1623Z"
      fill="#D17495"
    />
    <path
      d="M83.4024 81.8857C83.4024 81.8857 77.1556 82.4828 75.4323 79.8839L71.277 70.7288C71.0574 69.5097 71.8711 68.3433 73.0901 68.1236L82.072 66.5116C83.291 66.292 84.4574 67.1057 84.6771 68.3247L85.3423 77.5355C85.4382 78.077 85.8652 81.8362 83.4055 81.8857H83.4024Z"
      fill="#EFB7B9"
    />
    <path
      d="M66.846 74.2713C65.1257 76.4124 64.0768 79.231 65.8033 82.1332C66.4809 83.2717 66.4221 84.6888 65.7012 85.7995C64.9215 87.0031 64.2284 88.414 63.9995 89.9022C63.2538 94.7721 65.2773 98.1043 68.8199 98.4478C68.922 98.4571 69.0241 98.4632 69.1262 98.4663C69.7605 98.488 70.3019 98.9088 70.5495 99.4935C71.8056 102.442 74.4541 104.391 77.1892 104.094C79.3024 103.865 80.9669 102.352 81.7683 100.233C81.9044 99.8741 82.2169 99.6142 82.5975 99.5616C84.1568 99.3388 88.1017 98.2343 88.4173 92.6651C88.4482 87.6807 84.5281 84.1628 82.8233 82.4457C79.7232 80.02 80.3481 77.5231 80.4688 75.9514C84.6178 74.1971 84.8004 69.2405 84.8004 69.2405C84.8004 69.2405 84.6643 72.0127 84.9706 71.9756C88.244 69.1879 86.0163 65.5091 78.5227 64.0271C73.529 63.2474 69.2964 65.0543 68.8632 68.5505C68.7178 69.423 68.6931 72.0591 66.846 74.2775V74.2713Z"
      fill="#512E31"
    />
    <g opacity="0.1">
      <path
        d="M73.2227 106.656C78.204 111.638 81.8827 105.471 82.1024 104.596C78.4236 108.813 73.2227 106.656 73.2227 106.656Z"
        fill="black"
      />
      <path
        d="M71.2359 120.87L73.2191 112.637C73.2191 112.637 70.7439 117.897 70.0725 119.462C69.4011 121.028 71.2359 120.87 71.2359 120.87Z"
        fill="black"
      />
      <path
        d="M77.2445 115.422C77.2445 115.422 76.833 120.635 77.656 121.278C78.4821 121.919 77.2445 115.422 77.2445 115.422Z"
        fill="black"
      />
      <path
        d="M73.4914 126.869C75.3075 131.51 77.6559 132.587 77.6559 132.587L78.3273 144.48L80.3353 132.435L84.0481 131.198C76.6225 131.198 73.4883 126.866 73.4883 126.866L73.4914 126.869Z"
        fill="black"
      />
      <path
        d="M70.7471 147.908C71.6753 150.693 74.4599 149.765 75.3881 148.837C72.6035 149.455 70.7471 147.908 70.7471 147.908Z"
        fill="black"
      />
      <path
        d="M86.2168 153.478C88.692 153.168 89.9296 151.621 90.5484 150.074C89.6202 151.002 86.5262 150.693 86.5262 150.693L88.3826 151.497C88.3826 151.497 87.7638 152.24 86.2168 153.478Z"
        fill="black"
      />
      <path
        d="M72.6032 180.086C70.1281 180.705 68.5811 178.229 68.5811 178.229C68.5811 179.467 70.4374 180.705 70.4374 180.705L68.5811 181.426C68.5811 181.426 70.7468 181.323 72.6032 180.086Z"
        fill="black"
      />
      <path
        d="M92.405 180.395C91.09 180.395 89.7782 179.504 89.4131 179.235C90.0876 180.711 91.5232 180.983 92.405 180.395Z"
        fill="black"
      />
      <path
        d="M89.3105 179.158C89.3105 179.158 89.3477 179.189 89.4126 179.235C89.3755 179.158 89.3415 179.077 89.3105 178.991V179.158Z"
        fill="black"
      />
      <path
        d="M70.7471 150.743C73.5317 151.72 74.7693 150.693 75.3881 150.074C73.5317 151.002 70.7471 150.743 70.7471 150.743Z"
        fill="black"
      />
      <path
        d="M68.0244 182.939C68.0244 182.939 67.5386 184.745 67.5943 185.51C70.184 184.254 73.281 183.282 73.281 183.282L72.8974 182.932H68.0244V182.939Z"
        fill="black"
      />
      <path
        d="M93.2432 182.577C93.2432 182.577 90.1987 182.901 88.8249 182.577C88.5558 183.474 88.1443 185.652 88.2618 185.964C92.2129 183.802 93.6237 182.939 93.6237 182.939L93.2401 182.577H93.2432Z"
        fill="black"
      />
      <path
        d="M84.6049 70.5586C84.6049 70.5586 84.0511 74.8902 80.9571 76.4372C80.6477 77.6748 82.7826 81.2669 84.0511 81.697C83.7417 82.0064 82.238 81.9445 82.238 81.9445C82.238 81.9445 80.0289 80.4594 80.3383 76.1278C80.3383 76.1278 83.7417 74.5808 84.6513 70.3513"
        fill="black"
      />
    </g>
    <g opacity="0.1">
      <path
        d="M67.6533 83.8625C67.6533 83.8625 67.0345 86.9565 66.4157 89.4317C65.7969 91.9069 67.3439 95.6197 69.8191 95.3103C67.9627 94.0727 66.7251 90.9787 67.6533 83.8625Z"
        fill="#FFAE6C"
      />
      <path
        d="M79.7723 101.727C79.7723 101.727 76.9351 102.427 73.2224 100.57C72.947 100.431 75.6821 103.432 78.0088 102.773C80.3385 102.117 79.7723 101.724 79.7723 101.724V101.727Z"
        fill="#FFAE6C"
      />
      <path
        d="M80.957 73.0335C80.957 73.0335 80.957 71.7959 81.5758 70.5583C79.1006 73.0335 79.608 77.3497 80.4496 78.9276C79.9422 77.3961 80.957 73.0335 80.957 73.0335Z"
        fill="#FFAE6C"
      />
      <path
        d="M83.0059 74.0237C84.4384 72.5386 84.9767 68.0833 84.9767 68.0833C84.9767 68.0833 83.8536 71.4248 83.0059 74.0237Z"
        fill="#FFAE6C"
      />
      <path
        d="M81.5764 86.0284C76.9354 82.3156 75.6978 75.5088 75.6978 75.5088C75.6978 75.5088 74.7696 82.3156 79.4106 85.719C84.0516 89.1223 84.0516 94.6915 84.0516 94.6915C84.0516 94.6915 86.2174 89.7411 81.5764 86.0284Z"
        fill="#FFAE6C"
      />
    </g>
    <path
      opacity="0.9"
      d="M92.4051 83.2437L90.2393 78.9122L87.7641 79.2215C87.7641 79.2215 87.7023 79.039 87.6094 78.7791C88.8099 78.6151 90.6508 78.3645 90.6508 78.3645C90.6508 78.3645 91.7399 80.2611 92.9002 82.6683C97.4762 87.7641 98.9489 92.4793 100.963 99.1345C100.827 99.2273 100.666 99.2892 100.493 99.3356C96.4242 85.722 92.402 83.2468 92.402 83.2468L92.4051 83.2437ZM91.7863 151.002C91.7863 151.002 91.1675 165.544 91.1675 165.853C91.1675 166.163 92.4051 183.18 92.4051 183.18L98.2837 186.583V187.802H99.4161C99.4161 187.802 99.8554 186.215 98.754 185.921C97.9867 185.717 95.1216 184.556 93.2653 182.573C93.4014 182.552 93.4756 182.539 93.4756 182.539C93.4756 182.539 91.9596 170.872 91.9534 165.977C91.9503 161.082 92.6403 151.587 92.6403 151.587L90.688 120.805C91.3439 120.443 91.8977 119.843 92.1669 118.908L90.0351 110.508L90.0197 110.264C90.0197 110.264 90.0011 110.251 89.964 110.233L87.3464 99.9111L89.9268 96.5479L86.214 100.261L91.1644 118.515C91.1644 118.515 91.7213 119.997 89.9268 120.99C90.36 121.433 91.7832 151.002 91.7832 151.002H91.7863ZM82.4796 74.5001C82.4517 74.5311 82.9684 74.3361 83.4325 73.6524C83.8966 72.9686 84.3607 71.796 84.3607 71.796L84.7661 78.8131C84.7661 78.8131 84.9146 80.8335 83.4016 81.8824C85.8644 81.8329 85.4375 78.0768 85.3384 77.5322L84.9362 71.9507C84.9362 71.9507 84.9579 71.9692 84.9734 71.9661C87.3031 69.9829 86.8421 67.5479 83.6832 65.772C84.7568 67.056 85.6478 68.4204 85.5427 69.2496C85.292 71.1741 84.6732 68.6989 84.6732 68.6989C84.6732 68.6989 84.0049 72.8665 82.4827 74.497L82.4796 74.5001Z"
      fill="#97FFFA"
    />
  </g>
  <defs>
    <linearGradient
      id="paint0_linear_29371_73620"
      x1="149.489"
      y1="146.807"
      x2="149.489"
      y2="244.487"
      gradientUnits="userSpaceOnUse"
    >
      <stop stop-color="#2E90E8" stop-opacity="0.6" />
      <stop offset="1" stop-color="#C2E2FF" stop-opacity="0.1" />
    </linearGradient>
    <clipPath id="clip0_29371_73620">
      <rect width="280" height="273.524" fill="white" />
    </clipPath>
  </defs>
</svg>
