<svg width="48" height="48" viewBox="0 0 48 48" fill="none" xmlns="http://www.w3.org/2000/svg">
<g clip-path="url(#clip0)">
<path d="M46.8319 41.6377C48.3811 38.9637 48.3909 35.7766 46.8517 33.1124L31.3997 6.35275C29.8703 3.65902 27.1075 2.06055 24.0092 2.06055C20.9109 2.06055 18.1481 3.66889 16.6187 6.34289L1.14704 33.1322C-0.392233 35.8259 -0.382366 39.0327 1.17664 41.7067C2.71592 44.3511 5.46885 45.9397 8.5474 45.9397H39.4118C42.5003 45.9397 45.2729 44.3314 46.8319 41.6377Z" fill="#CB861E"/>
<mask id="mask0" mask-type="alpha" maskUnits="userSpaceOnUse" x="0" y="2" width="48" height="44">
<path d="M46.8319 41.6377C48.3811 38.9637 48.3909 35.7766 46.8517 33.1124L31.3997 6.35275C29.8703 3.65902 27.1075 2.06055 24.0092 2.06055C20.9109 2.06055 18.1481 3.66889 16.6187 6.34289L1.14704 33.1322C-0.392233 35.8259 -0.382366 39.0327 1.17664 41.7067C2.71592 44.3511 5.46885 45.9397 8.5474 45.9397H39.4118C42.5003 45.9397 45.2729 44.3314 46.8319 41.6377Z" fill="#EA6E63"/>
</mask>
<g mask="url(#mask0)">
<path d="M43.0819 39.3877C44.6311 36.7137 44.6409 33.5266 43.1017 30.8624L27.6497 4.10275C26.1203 1.40902 23.3575 -0.189453 20.2592 -0.189453C17.1609 -0.189453 14.3981 1.41889 12.8687 4.09289L-2.60296 30.8822C-4.14223 33.5759 -4.13237 36.7827 -2.57336 39.4567C-1.03408 42.1011 1.71885 43.6897 4.7974 43.6897H35.6618C38.7503 43.6897 41.5229 42.0814 43.0819 39.3877Z" fill="#E89519"/>
</g>
<path d="M23.9993 32.8955C22.6574 32.8955 21.5325 34.0204 21.5325 35.3623C21.5325 36.7042 22.6574 37.8291 23.9993 37.8291C25.2919 37.8291 26.4661 36.7042 26.4069 35.4215C26.4661 34.0105 25.3511 32.8955 23.9993 32.8955Z" fill="white"/>
<path d="M23.3876 15.5784C22.2134 15.9139 21.4832 16.9796 21.4832 18.2722C21.5424 19.0517 21.5918 19.841 21.651 20.6205C21.8187 23.5906 21.9864 26.5014 22.1542 29.4714C22.2134 30.4778 22.9929 31.208 23.9993 31.208C25.0058 31.208 25.7952 30.4285 25.8445 29.4122C25.8445 28.8004 25.8445 28.238 25.9037 27.6163C26.0122 25.712 26.1306 23.8076 26.2392 21.9033C26.2984 20.6699 26.4069 19.4365 26.4661 18.2031C26.4661 17.7591 26.4069 17.3644 26.2392 16.9697C25.736 15.8646 24.5618 15.3022 23.3876 15.5784Z" fill="white"/>
</g>
<defs>
<clipPath id="clip0">
<rect width="48" height="48" fill="white"/>
</clipPath>
</defs>
</svg>