<svg
  width="20"
  height="14"
  viewBox="0 0 20 14"
  fill="none"
  xmlns="http://www.w3.org/2000/svg"
>
  <path
    fill-rule="evenodd"
    clip-rule="evenodd"
    d="M2 0.181641C0.895431 0.181641 0 1.07707 0 2.18164V3.18164H20V2.18164C20 1.07707 19.1046 0.181641 18 0.181641H2ZM20 5.68164H0V11.818C0 12.9226 0.895431 13.818 2 13.818H18C19.1046 13.818 20 12.9226 20 11.818V5.68164ZM1.625 8.18164C1.625 7.97453 1.79289 7.80664 2 7.80664H10C10.2071 7.80664 10.375 7.97453 10.375 8.18164C10.375 8.38875 10.2071 8.55664 10 8.55664H2C1.79289 8.55664 1.625 8.38875 1.625 8.18164ZM2 9.80664C1.79289 9.80664 1.625 9.97453 1.625 10.1816C1.625 10.3887 1.79289 10.5566 2 10.5566H6C6.20711 10.5566 6.375 10.3887 6.375 10.1816C6.375 9.97453 6.20711 9.80664 6 9.80664H2Z"
    fill="black"
  />
</svg>
