<svg width="47" height="10" viewBox="0 0 47 10" fill="none" xmlns="http://www.w3.org/2000/svg">
<g clip-path="url(#clip0_12236_50917)">
<path fill-rule="evenodd" clip-rule="evenodd" d="M5.4938 9.99905C5.25376 10.0057 5.0204 9.98572 4.78036 9.9524C4.13359 9.85911 3.52684 9.65252 2.96675 9.31266C1.72656 8.56629 0.93311 7.48007 0.606394 6.05398C0.533049 5.73411 0.499711 5.40757 0.499711 5.08104C0.493043 3.7749 0.919774 2.62869 1.78657 1.65575C2.54002 0.816094 3.47349 0.302968 4.57366 0.0897207C4.88037 0.029745 5.18709 -0.00357488 5.4938 0.00975306C5.4938 0.509551 5.4938 1.00268 5.4938 1.50248C5.48047 1.50915 5.46713 1.51581 5.45379 1.52914C5.27377 1.65575 5.09374 1.78903 4.92038 1.92898C4.52699 2.24885 4.1536 2.58871 3.84022 2.99521C3.42015 3.53499 3.14011 4.12809 3.1001 4.82781C3.0801 5.161 3.12011 5.48754 3.22679 5.80075C3.48683 6.58043 4.29362 7.38677 5.42712 7.40676C5.4938 7.40676 5.50714 7.42009 5.50714 7.49339C5.50047 7.83326 5.50047 8.51298 5.50047 8.51298C5.50047 8.51298 5.50047 8.55297 5.50047 8.57296C5.4938 9.0461 5.4938 9.51924 5.4938 9.99905Z" fill="#0099FF"/>
<path fill-rule="evenodd" clip-rule="evenodd" d="M5.49436 1.49375C5.49436 1.49375 5.49436 0.500818 5.49436 0.00102055C5.76773 -0.00564343 6.03444 0.0210125 6.30115 0.0609963C6.80122 0.140964 7.2813 0.287571 7.7347 0.52081C8.67484 1.00728 9.41495 1.70033 9.91503 2.64662C10.2017 3.19306 10.3884 3.77283 10.4618 4.37925C10.5485 5.0923 10.4818 5.79868 10.2684 6.48507C10.0217 7.26475 9.60832 7.95114 9.02823 8.53091C8.32145 9.23062 7.48133 9.68377 6.50785 9.89036C6.17446 9.957 5.83441 9.99698 5.49436 9.99032C5.49436 9.51051 5.49436 9.03737 5.49436 8.55756C5.49436 8.53757 5.49436 8.50425 5.49436 8.50425C5.49436 8.50425 5.51436 8.49092 5.52103 8.48426C6.04111 8.11774 6.53452 7.7179 6.96125 7.23809C7.24129 6.92489 7.48133 6.59169 7.64802 6.20518C7.88139 5.65873 7.97474 5.09896 7.85472 4.50587C7.64135 3.4263 6.67454 2.61996 5.56104 2.59331C5.48769 2.59331 5.49436 2.53333 5.49436 2.53333V1.49375Z" fill="#0585DD"/>
<path d="M15.9344 6.55886C15.9344 6.84107 15.888 7.10984 15.8018 7.3719C15.7157 7.63395 15.5765 7.86241 15.4041 8.06398C15.2252 8.26556 15.0065 8.42011 14.7413 8.54106C14.4762 8.65528 14.1647 8.71576 13.82 8.71576C13.2633 8.71576 12.8059 8.58137 12.4547 8.31932C12.0967 8.05727 11.8648 7.64067 11.7521 7.06953L12.9252 6.78732C12.965 7.02249 13.0578 7.21063 13.2103 7.35174C13.3561 7.49284 13.5417 7.56004 13.7604 7.56004C14.1183 7.56004 14.3635 7.43909 14.4895 7.19048C14.6154 6.94858 14.6817 6.6059 14.6817 6.17586V1.39844H15.9344V6.55886Z" fill="white"/>
<path d="M22.8447 5.91381C22.8447 6.34384 22.7718 6.73356 22.626 7.07625C22.4802 7.42565 22.2814 7.71458 22.0295 7.95648C21.7776 8.19837 21.4794 8.38651 21.1347 8.51418C20.79 8.64856 20.4122 8.70904 20.0079 8.70904C19.6036 8.70904 19.2258 8.64185 18.8878 8.51418C18.5431 8.38651 18.2449 8.19837 17.9864 7.95648C17.7279 7.71458 17.529 7.41893 17.3898 7.07625C17.244 6.73356 17.1777 6.34384 17.1777 5.91381V1.39844H18.4304V5.87349C18.4304 6.04819 18.457 6.22962 18.51 6.42448C18.563 6.61262 18.6492 6.79404 18.7751 6.9553C18.8944 7.11656 19.0601 7.25095 19.2656 7.35174C19.4644 7.45925 19.7163 7.50628 20.0146 7.50628C20.3128 7.50628 20.5647 7.45253 20.7635 7.35174C20.9624 7.25095 21.1281 7.11656 21.254 6.9553C21.3733 6.79404 21.4661 6.61934 21.5191 6.42448C21.5721 6.22962 21.5987 6.04819 21.5987 5.87349V1.39844H22.8514V5.91381H22.8447Z" fill="white"/>
<path d="M27.5867 2.93412C27.4541 2.73926 27.2752 2.59816 27.0564 2.50409C26.8311 2.41002 26.5991 2.3697 26.3539 2.3697C26.208 2.3697 26.0689 2.38986 25.9297 2.42346C25.7905 2.45705 25.6712 2.51081 25.5651 2.58472C25.4524 2.65863 25.3663 2.7527 25.3 2.87365C25.2337 2.9946 25.2006 3.12898 25.2006 3.29025C25.2006 3.53214 25.2801 3.72028 25.4524 3.84123C25.6181 3.9689 25.8236 4.08312 26.0689 4.17048C26.3141 4.26455 26.5792 4.35862 26.8709 4.44597C27.1625 4.53332 27.4276 4.65427 27.6795 4.80881C27.9247 4.96335 28.1302 5.17165 28.2959 5.42027C28.4616 5.6756 28.5478 6.01828 28.5478 6.43488C28.5478 6.81788 28.4815 7.15384 28.3423 7.43606C28.2031 7.72499 28.0175 7.96016 27.7789 8.1483C27.5403 8.33644 27.2685 8.47755 26.957 8.57162C26.6455 8.66569 26.3141 8.71272 25.9761 8.71272C25.5386 8.71272 25.1144 8.63881 24.7167 8.49098C24.3124 8.34316 23.9611 8.09455 23.6695 7.74514L24.6173 6.81788C24.7698 7.05306 24.9686 7.23448 25.2205 7.36886C25.4723 7.50325 25.7308 7.56372 26.0092 7.56372C26.155 7.56372 26.3008 7.54356 26.4467 7.50325C26.5925 7.46293 26.725 7.40246 26.8443 7.32183C26.9636 7.2412 27.0564 7.14041 27.1293 7.01274C27.2023 6.89179 27.242 6.74397 27.242 6.5827C27.242 6.32065 27.1559 6.11907 26.9902 5.97797C26.8245 5.83686 26.619 5.71591 26.3737 5.62184C26.1285 5.52777 25.8568 5.4337 25.5651 5.34635C25.2735 5.259 25.0017 5.13806 24.7631 4.99023C24.5179 4.84241 24.3124 4.64083 24.1467 4.38549C23.981 4.13016 23.8948 3.79419 23.8948 3.37088C23.8948 3.00132 23.9678 2.68551 24.1202 2.41674C24.266 2.14797 24.4649 1.92623 24.7101 1.74481C24.9487 1.57011 25.2271 1.43572 25.5386 1.34837C25.8501 1.26102 26.1683 1.2207 26.4931 1.2207C26.8642 1.2207 27.2221 1.28118 27.5734 1.38869C27.9181 1.50291 28.2362 1.69105 28.5146 1.95311L27.5867 2.93412Z" fill="white"/>
<path d="M29.5927 1.39844H31.959C32.297 1.39844 32.6218 1.43203 32.9399 1.49923C33.2514 1.56642 33.5298 1.68065 33.7684 1.83519C34.007 1.99646 34.1993 2.20475 34.3385 2.46681C34.4776 2.73558 34.5505 3.06482 34.5505 3.46126C34.5505 3.91146 34.471 4.2743 34.3186 4.54979C34.1661 4.82528 33.9606 5.0403 33.7022 5.18812C33.4437 5.33595 33.1454 5.44346 32.8007 5.49721C32.4561 5.55097 32.1048 5.57784 31.7336 5.57784H30.8388V8.53433H29.5861V1.39844H29.5927ZM31.6011 4.49604C31.78 4.49604 31.9656 4.48932 32.1578 4.47588C32.35 4.46244 32.529 4.42212 32.6881 4.35493C32.8471 4.28774 32.9797 4.18695 33.0857 4.05256C33.1852 3.91818 33.2382 3.73003 33.2382 3.48814C33.2382 3.2664 33.1918 3.0917 33.099 2.95732C33.0062 2.82293 32.8869 2.72214 32.7411 2.65495C32.5953 2.58103 32.4296 2.54072 32.2506 2.52056C32.0716 2.5004 31.8993 2.48696 31.7336 2.48696H30.8388V4.49604H31.6011Z" fill="white"/>
<path d="M36.9601 1.39844H38.0404L41.0761 8.53433H39.6444L38.9882 6.90155H35.9393L35.303 8.53433H33.8979L36.9601 1.39844ZM38.5508 5.81302L37.4638 2.91028L36.3635 5.81302H38.5508Z" fill="white"/>
<path d="M42.603 5.48377L39.9584 1.39844H41.5293L43.2592 4.2407L45.009 1.39844H46.5003L43.8557 5.48377V8.54105H42.603V5.48377Z" fill="white"/>
</g>
<defs>
<clipPath id="clip0_12236_50917">
<rect width="46.0007" height="10.0007" fill="white" transform="translate(0.499634)"/>
</clipPath>
</defs>
</svg>
