<svg width="18" height="18" viewBox="0 0 18 18" fill="none" xmlns="http://www.w3.org/2000/svg">
<path d="M9.75 15.75C8.825 15.75 7.95925 15.578 7.15275 15.234C6.34625 14.89 5.637 14.4182 5.025 13.8187L6.09375 12.75C6.56875 13.2125 7.11875 13.5782 7.74375 13.8472C8.36875 14.1163 9.0375 14.2505 9.75 14.25C11.2 14.25 12.4375 13.7375 13.4625 12.7125C14.4875 11.6875 15 10.45 15 9C15 7.55 14.4875 6.3125 13.4625 5.2875C12.4375 4.2625 11.2 3.75 9.75 3.75C8.3 3.75 7.0625 4.2625 6.0375 5.2875C5.0125 6.3125 4.5 7.55 4.5 9V9.13125L5.86875 7.7625L6.9375 8.8125L3.75 12L0.5625 8.8125L1.63125 7.7625L3 9.15V9C3 8.0625 3.17825 7.18425 3.53475 6.36525C3.89125 5.54625 4.3725 4.83375 4.9785 4.22775C5.5845 3.62175 6.297 3.14075 7.116 2.78475C7.935 2.42875 8.813 2.2505 9.75 2.25C10.6875 2.25 11.5658 2.42825 12.3848 2.78475C13.2038 3.14125 13.9163 3.62225 14.5223 4.22775C15.1283 4.83425 15.6095 5.54675 15.966 6.36525C16.3225 7.18375 16.5005 8.062 16.5 9C16.5 10.875 15.8438 12.4688 14.5313 13.7812C13.2188 15.0938 11.625 15.75 9.75 15.75ZM8.25 12C8.0375 12 7.85925 11.928 7.71525 11.784C7.57125 11.64 7.4995 11.462 7.5 11.25V9C7.5 8.7875 7.572 8.60925 7.716 8.46525C7.86 8.32125 8.038 8.2495 8.25 8.25V7.5C8.25 7.0875 8.397 6.73425 8.691 6.44025C8.985 6.14625 9.338 5.9995 9.75 6C10.1625 6 10.5158 6.147 10.8098 6.441C11.1038 6.735 11.2505 7.088 11.25 7.5V8.25C11.4625 8.25 11.6408 8.322 11.7848 8.466C11.9288 8.61 12.0005 8.788 12 9V11.25C12 11.4625 11.928 11.6407 11.784 11.7847C11.64 11.9288 11.462 12.0005 11.25 12H8.25ZM9 8.25H10.5V7.5C10.5 7.2875 10.428 7.10925 10.284 6.96525C10.14 6.82125 9.962 6.7495 9.75 6.75C9.5375 6.75 9.35925 6.822 9.21525 6.966C9.07125 7.11 8.9995 7.288 9 7.5V8.25Z" fill="#6859F7"/>
</svg>
