<svg width="24" height="24" viewBox="0 0 24 24" fill="none" xmlns="http://www.w3.org/2000/svg">
<g clip-path="url(#clip0_6636_56237)">
<path d="M0.716906 11.7345L2.35633e-08 12.0384C-4.68514e-05 12.2201 0.0698438 12.4004 0.206203 12.5363L11.5053 23.7959C11.6371 23.9273 11.8636 23.9993 11.9966 24C12.1317 24.0006 12.3628 23.9295 12.4969 23.7957L23.7941 12.5291C23.9301 12.3934 23.9999 12.2136 24.0001 12.0322L23.3768 11.7345C23.0292 11.7345 19.8009 11.7345 15.8784 11.7345L11.6723 13.0923L8.11505 11.7345C4.42528 11.7345 1.35206 11.7345 0.716906 11.7345Z" fill="#FFB739"/>
<path d="M23.9998 12.0322C23.9998 12.2134 23.9301 12.3932 23.7938 12.529L12.4967 23.7956C12.3638 23.9286 12.1348 23.9998 12 23.9998V12.9864L15.8784 11.7345H23.3767L23.9998 12.0322Z" fill="#FF9441"/>
<path d="M8.11475 11.7345L11.9998 23.9998L15.8781 11.7345H8.11475Z" fill="#FF9441"/>
<path d="M15.8783 11.7345L12 23.9998V11.7345H15.8783Z" fill="#FF7149"/>
<path d="M23.8822 11.6419L20.1216 6.00743C20.0695 5.92952 20.0025 5.86334 19.9253 5.81224L19.5844 5.97593L12.6506 6.01915L12 5.69501L11.4742 6.02646L4.55602 6.06959L4.07325 5.81294C3.99661 5.8639 3.92981 5.92985 3.87787 6.0078L0.117516 11.6494C0.0383437 11.7682 0 11.9037 0 12.0385C1.36223 12.0381 22.2406 12.0326 24 12.0321C24.0001 11.897 23.9617 11.761 23.8822 11.6419Z" fill="#FFD17E"/>
<path d="M23.9998 12.0323C23.1281 12.0323 17.5605 12.0341 12 12.0356V5.69501L12.6508 6.01896L19.5845 5.97588L19.9253 5.81201C20.0025 5.86352 20.0695 5.92952 20.1215 6.00724L23.8823 11.6418C23.9619 11.7612 24.0003 11.8969 23.9998 12.0323Z" fill="#FFB739"/>
<path d="M4.46202 5.69501C4.32159 5.69501 4.18687 5.73724 4.07324 5.81285L8.23837 12.0363H8.23884L11.9996 5.69501H4.46202Z" fill="#FFB739"/>
<path d="M15.7626 12.0343L19.9254 5.81216C19.812 5.73702 19.6777 5.69507 19.5377 5.69507H12L15.7596 12.0344H15.7626V12.0343Z" fill="#FF9441"/>
<path d="M7.80093 16.9368C6.62553 16.9368 5.66924 15.9806 5.66924 14.8052C5.66924 14.4169 5.35443 14.1021 4.96611 14.1021C4.5778 14.1021 4.26299 14.4169 4.26299 14.8052C4.26299 15.9747 3.3125 16.9368 2.13135 16.9368C1.74304 16.9368 1.42822 17.2516 1.42822 17.6399C1.42822 18.0283 1.74304 18.3431 2.13135 18.3431C3.30674 18.3431 4.26299 19.2993 4.26299 20.4747C4.26299 20.863 4.5778 21.1778 4.96611 21.1778C5.35443 21.1778 5.66924 20.863 5.66924 20.4747C5.66924 19.3053 6.61963 18.3431 7.80093 18.3431C8.18924 18.3431 8.50405 18.0283 8.50405 17.6399C8.50405 17.2516 8.18924 16.9368 7.80093 16.9368Z" fill="#FFD17E"/>
<path d="M18.5777 2.83477C17.4023 2.83477 16.4461 1.87852 16.4461 0.703125C16.4461 0.314812 16.1313 0 15.743 0C15.3547 0 15.0398 0.314812 15.0398 0.703125C15.0398 1.87852 14.0836 2.83477 12.9082 2.83477C12.5199 2.83477 12.2051 3.14958 12.2051 3.53789C12.2051 3.9262 12.5199 4.24102 12.9082 4.24102C14.0836 4.24102 15.0398 5.19727 15.0398 6.37266C15.0398 6.76097 15.3547 7.07578 15.743 7.07578C16.1313 7.07578 16.4461 6.76097 16.4461 6.37266C16.4461 5.19727 17.4023 4.24102 18.5777 4.24102C18.966 4.24102 19.2809 3.9262 19.2809 3.53789C19.2809 3.14958 18.966 2.83477 18.5777 2.83477Z" fill="#FFB739"/>
</g>
<defs>
<clipPath id="clip0_6636_56237">
<rect width="24" height="24" fill="white"/>
</clipPath>
</defs>
</svg>
