<svg width="18" height="19" viewBox="0 0 18 19" fill="none" xmlns="http://www.w3.org/2000/svg">
<g clip-path="url(#clip0_2268_22888)">
<path d="M12.7173 7.77035C12.5217 7.69992 12.3182 7.64513 12.1147 7.59818C11.5747 7.51209 11.0269 7.46513 10.4712 7.46513H7.0121C6.46427 7.46513 5.91644 7.51209 5.36862 7.59818C5.16514 7.64513 4.96166 7.69992 4.76601 7.77035C2.99732 8.41209 1.72949 10.1025 1.72949 12.0982L5.2121 15.8704H12.2712L15.7538 12.0982C15.7538 10.1104 14.486 8.41209 12.7173 7.77035Z" fill="#F66405"/>
<path d="M12.553 2.06522V2.76956C12.553 4.66348 14.0869 6.19739 15.9808 6.19739H16.6852C16.6852 3.91217 14.8382 2.06522 12.553 2.06522Z" fill="#F66405"/>
<path d="M4.93784 2.06522V2.76956C4.93784 4.66348 3.40392 6.19739 1.51001 6.19739H0.805664C0.805664 3.91217 2.65262 2.06522 4.93784 2.06522Z" fill="#F66405"/>
<path d="M4.36695 13.6792H1.20521L0 14.8844" stroke="#F66405" stroke-miterlimit="10" stroke-linecap="round"/>
<path d="M5.58037 15.1818L2.88037 15.8705L2.03516 17.647" stroke="#F66405" stroke-miterlimit="10" stroke-linecap="round"/>
<path d="M13.1709 13.6792H16.3326L17.53 14.8844" stroke="#F66405" stroke-miterlimit="10" stroke-linecap="round"/>
<path d="M11.958 15.1817L14.658 15.8704L15.5032 17.647" stroke="#F66405" stroke-miterlimit="10" stroke-linecap="round"/>
<path d="M15.1748 7.98174L15.9496 7.35565" stroke="#F66405" stroke-miterlimit="10" stroke-linecap="round"/>
<path d="M2.30895 7.98171L1.54199 7.35562" stroke="#F66405" stroke-miterlimit="10" stroke-linecap="round"/>
</g>
<defs>
<clipPath id="clip0_2268_22888">
<rect width="18" height="18" fill="white" transform="translate(0 0.5)"/>
</clipPath>
</defs>
</svg>
